<?xml version="1.0" standalone="no"?>
<!DOCTYPE svg PUBLIC "-//W3C//DTD SVG 1.1//EN" "http://www.w3.org/Graphics/SVG/1.1/DTD/svg11.dtd" >
<svg>
<metadata>
Created by FontForge 20120731 at Mon Oct  3 21:02:55 2016
 By ,,,
Copyright (c) Mark Simonson, 2005. All rights reserved.
</metadata>
<defs>
<font id="ProximaNovaExCn-ExtrabldIt" horiz-adv-x="307" >
  <font-face 
    font-family="Proxima Nova ExCn Th"
    font-weight="800"
    font-style="italic"
    font-stretch="normal"
    units-per-em="1000"
    panose-1="2 0 5 6 3 0 0 2 0 4"
    ascent="790"
    descent="-210"
    x-height="483"
    cap-height="667"
    bbox="-151 -284 883 887"
    underline-thickness="20"
    underline-position="-113"
    unicode-range="U+0020-FB04"
  />
<missing-glyph horiz-adv-x="445" 
d="M418 -90h-351v842h351v-842zM386 -60v782h-288v-782h288z" />
    <glyph glyph-name="f_f_j" unicode="ffj" horiz-adv-x="741" 
d="M138 0h-135l81 366h-43l26 117h42l8 34q16 74 52.5 117t105.5 43q71 0 105 -30l-52 -100q-11 14 -33 14q-33 0 -43 -44l-8 -34h59l-26 -117h-58zM400 0h-135l81 366h-43l26 117h42l8 34q18 82 56.5 121t101.5 39q45 0 82 -16l-41 -104q-8 4 -21 4q-32 0 -43 -44l-8 -34
h59l-26 -117h-58zM471 -196q-54 0 -79 25l48 101q6 -10 22 -10q31 0 43 53l113 510h136l-114 -510q-19 -87 -56.5 -128t-112.5 -41zM704 532q-30 0 -51 20t-21 48q0 41 28.5 66t62.5 25q30 0 51 -20t21 -48q0 -41 -29 -66t-62 -25z" />
    <glyph glyph-name="f_j" unicode="fj" horiz-adv-x="478" 
d="M138 0h-135l81 366h-43l26 117h42l8 34q18 82 56.5 121t101.5 39q45 0 82 -16l-41 -104q-8 4 -21 4q-32 0 -43 -44l-8 -34h59l-26 -117h-58zM208 -196q-54 0 -79 25l48 101q6 -10 22 -10q31 0 43 53l113 510h136l-114 -510q-19 -87 -56.5 -128t-112.5 -41zM441 532
q-30 0 -51 20t-21 48q0 41 28.5 66t62.5 25q30 0 51 -20t21 -48q0 -41 -29 -66t-62 -25z" />
    <glyph glyph-name="f_f" unicode="ff" horiz-adv-x="525" 
d="M138 0h-135l81 366h-43l26 117h42l8 34q16 74 52.5 117t105.5 43q71 0 105 -30l-52 -100q-11 14 -33 14q-33 0 -43 -44l-8 -34h59l-26 -117h-58zM400 0h-135l81 366h-43l26 117h42l8 34q16 74 52.5 117t105.5 43q71 0 105 -30l-52 -100q-11 14 -33 14q-33 0 -43 -44
l-8 -34h59l-26 -117h-58z" />
    <glyph glyph-name="fi" unicode="fi" horiz-adv-x="478" 
d="M138 0h-135l81 366h-43l26 117h42l8 34q18 82 56.5 121t101.5 39q45 0 82 -16l-41 -104q-8 4 -21 4q-32 0 -43 -44l-8 -34h59l-26 -117h-58zM441 532q-30 0 -51 20t-21 48q0 41 28.5 66t62.5 25q30 0 51 -20t21 -48q0 -41 -29 -66t-62 -25zM384 0h-136l107 483h136z" />
    <glyph glyph-name="fl" unicode="fl" horiz-adv-x="478" 
d="M138 0h-135l81 366h-43l26 117h42l8 34q18 82 56.5 121t101.5 39q45 0 82 -16l-41 -104q-8 4 -21 4q-32 0 -43 -44l-8 -34h59l-26 -117h-58zM384 0h-136l147 667h136z" />
    <glyph glyph-name="f_f_i" unicode="ffi" horiz-adv-x="741" 
d="M138 0h-135l81 366h-43l26 117h42l8 34q16 74 52.5 117t105.5 43q71 0 105 -30l-52 -100q-11 14 -33 14q-33 0 -43 -44l-8 -34h59l-26 -117h-58zM400 0h-135l81 366h-43l26 117h42l8 34q18 82 56.5 121t101.5 39q45 0 82 -16l-41 -104q-8 4 -21 4q-32 0 -43 -44l-8 -34
h59l-26 -117h-58zM704 532q-30 0 -51 20t-21 48q0 41 28.5 66t62.5 25q30 0 51 -20t21 -48q0 -41 -29 -66t-62 -25zM647 0h-136l107 483h136z" />
    <glyph glyph-name="f_f_l" unicode="ffl" horiz-adv-x="741" 
d="M138 0h-135l81 366h-43l26 117h42l8 34q16 74 52.5 117t105.5 43q71 0 105 -30l-52 -100q-11 14 -33 14q-33 0 -43 -44l-8 -34h59l-26 -117h-58zM400 0h-135l81 366h-43l26 117h42l8 34q18 82 56.5 121t101.5 39q45 0 82 -16l-41 -104q-8 4 -21 4q-32 0 -43 -44l-8 -34
h59l-26 -117h-58zM647 0h-136l147 667h136z" />
    <glyph glyph-name="f_b" unicode="fb" horiz-adv-x="704" 
d="M138 0h-135l81 366h-43l26 117h42l8 34q18 82 56.5 121t101.5 39q45 0 82 -16l-41 -104q-8 4 -21 4q-32 0 -43 -44l-8 -34h59l-26 -117h-58zM495 -12q-76 0 -99 70l-12 -58h-135l146 667h136l-53 -239q46 67 103 67q112 0 112 -160q0 -51 -12.5 -109t-35.5 -112
t-62.5 -90t-87.5 -36zM462 108q22 0 41 23.5t29.5 58t16 68t5.5 58.5q0 59 -44 59q-30 0 -54 -44l-39 -178q4 -21 16 -33t29 -12z" />
    <glyph glyph-name="f_h" unicode="fh" horiz-adv-x="703" 
d="M138 0h-135l81 366h-43l26 117h42l8 34q18 82 56.5 121t101.5 39q45 0 82 -16l-41 -104q-8 4 -21 4q-32 0 -43 -44l-8 -34h59l-26 -117h-58zM608 0h-135l73 330q3 6 3 17q0 28 -27 28q-34 0 -68 -55l-70 -320h-136l147 667h136l-54 -243q22 30 55.5 50.5t68.5 20.5
q45 0 70 -23.5t25 -61.5q0 -14 -3 -27z" />
    <glyph glyph-name="f_k" unicode="fk" horiz-adv-x="686" 
d="M138 0h-135l81 366h-43l26 117h42l8 34q18 82 56.5 121t101.5 39q45 0 82 -16l-41 -104q-8 4 -21 4q-32 0 -43 -44l-8 -34h59l-26 -117h-58zM632 0h-146l-23 182l-56 -75l-23 -107h-136l147 667h136l-84 -378l134 194h151l-159 -214z" />
    <glyph glyph-name=".notdef" horiz-adv-x="445" 
d="M418 -90h-351v842h351v-842zM386 -60v782h-288v-782h288z" />
    <glyph glyph-name=".null" horiz-adv-x="0" 
 />
    <glyph glyph-name="nonmarkingreturn" horiz-adv-x="333" 
 />
    <glyph glyph-name="space" unicode=" " horiz-adv-x="155" 
 />
    <glyph glyph-name="exclam" unicode="!" horiz-adv-x="260" 
d="M184 222h-120l77 445h163zM82 -12q-32 0 -54.5 23t-22.5 55q0 37 27.5 64.5t65.5 27.5q32 0 54.5 -23t22.5 -55q0 -37 -27.5 -64.5t-65.5 -27.5z" />
    <glyph glyph-name="quotedbl" unicode="&#x22;" horiz-adv-x="415" 
d="M170 370h-57q7 206 7 223q0 36 24 60t59 24q26 0 45 -19t19 -46q0 -18 -8 -31zM358 370h-58q7 206 7 223q1 36 25 60t59 24q26 0 44.5 -19t18.5 -46q0 -14 -7 -31z" />
    <glyph glyph-name="numbersign" unicode="#" horiz-adv-x="471" 
d="M231 0h-99l78 168h-60l-75 -168h-99l77 168h-55l38 85h55l73 160h-56l37 85h57l76 169h99l-76 -169h58l75 169h99l-76 -169h55l-37 -85h-56l-74 -160h59l-38 -85h-60zM247 253l73 160h-58l-72 -160h57z" />
    <glyph glyph-name="dollar" unicode="$" horiz-adv-x="412" 
d="M86 -100l20 94q-89 17 -131 74l84 112q18 -26 47 -42t58 -16q28 0 46.5 19.5t18.5 50.5q0 20 -16 41t-39.5 41.5t-46.5 44t-39 58t-16 74.5q0 85 53 148t133 76l21 93h100l-22 -98q65 -18 105 -61l-79 -111q-36 46 -92 46q-27 0 -43 -18.5t-16 -44.5q0 -20 16 -41t39 -42
t45.5 -44.5t38.5 -58t16 -74.5q0 -85 -50 -150t-131 -79l-20 -92h-100z" />
    <glyph glyph-name="percent" unicode="%" horiz-adv-x="596" 
d="M131 0h-55l428 667h56zM405 -12q-55 0 -86.5 35.5t-31.5 90.5q0 86 47.5 146.5t110.5 60.5q55 0 86.5 -36t31.5 -90q0 -86 -47.5 -146.5t-110.5 -60.5zM411 70q23 0 44 35.5t21 80.5q0 53 -37 53q-23 0 -44 -35.5t-21 -80.5q0 -53 37 -53zM189 344q-55 0 -86.5 35.5
t-31.5 90.5q0 86 47.5 146.5t110.5 60.5q55 0 86.5 -35.5t31.5 -90.5q0 -86 -47.5 -146.5t-110.5 -60.5zM195 426q23 0 44 35.5t21 80.5q0 53 -37 53q-23 0 -44 -35.5t-21 -80.5q0 -53 37 -53z" />
    <glyph glyph-name="ampersand" unicode="&#x26;" horiz-adv-x="471" 
d="M416 0h-134q-2 4 -5.5 12t-5.5 12q-58 -36 -119 -36q-69 0 -110.5 40t-41.5 113q0 87 41.5 141t113.5 98q-10 47 -10 92q0 85 51.5 145t121.5 60q59 0 94 -35t35 -98q0 -38 -12.5 -68.5t-41 -56.5t-48 -39.5t-61.5 -39.5q5 -17 17 -51q3 -9 6 -18.5t7 -21t6 -17.5
q20 37 51 103l96 -58q-50 -102 -101 -165q21 -52 50 -112zM186 94q23 0 49 21q-15 36 -31 86q-11 30 -21 67q-46 -46 -46 -104q0 -29 13.5 -49.5t35.5 -20.5zM262 470q0 -18 1 -27q68 46 68 99q0 38 -23 38q-18 0 -32 -33.5t-14 -76.5z" />
    <glyph glyph-name="quotesingle" unicode="'" horiz-adv-x="229" 
d="M170 370h-57q7 206 7 223q0 36 24 60t59 24q26 0 45 -19t19 -46q0 -18 -8 -31z" />
    <glyph glyph-name="parenleft" unicode="(" horiz-adv-x="282" 
d="M172 -164l-107 -35q-41 116 -41 249q0 344 236 635l89 -54q-86 -143 -136 -314.5t-50 -332.5q0 -82 9 -148z" />
    <glyph glyph-name="parenright" unicode=")" horiz-adv-x="282" 
d="M109 650l108 35q41 -116 41 -249q0 -344 -236 -635l-89 54q86 143 136 314.5t50 332.5q0 75 -10 148z" />
    <glyph glyph-name="asterisk" unicode="*" horiz-adv-x="329" 
d="M224 363h-67l29 113l-104 -48l-19 60l107 38l-86 59l46 52l78 -67l19 107h67l-31 -113l105 48l19 -60l-106 -38l85 -59l-46 -52l-78 67z" />
    <glyph glyph-name="plus" unicode="+" horiz-adv-x="385" 
d="M368 296h-119l-31 -142h-91l32 142h-119l19 83h118l30 134h90l-29 -134h118z" />
    <glyph glyph-name="comma" unicode="," horiz-adv-x="262" 
d="M181 73q0 -58 -43 -116t-109 -89l-47 49q75 34 100 84q-2 -1 -11 -1q-27 0 -45.5 18t-18.5 50q0 37 28.5 63.5t64.5 26.5q34 0 57.5 -22.5t23.5 -62.5z" />
    <glyph glyph-name="hyphen" unicode="-" horiz-adv-x="244" 
d="M201 185h-184l25 114h184z" />
    <glyph glyph-name="period" unicode="." horiz-adv-x="259" 
d="M84 -12q-32 0 -54.5 23t-22.5 55q0 38 27.5 65t64.5 27q32 0 54.5 -23t22.5 -55q0 -38 -27 -65t-65 -27z" />
    <glyph glyph-name="slash" unicode="/" horiz-adv-x="241" 
d="M36 -20h-96l303 707h97z" />
    <glyph glyph-name="zero" unicode="0" horiz-adv-x="474" 
d="M202 -12q-79 0 -127 59t-48 167q0 111 36.5 217t103 176t144.5 70q79 0 126.5 -58.5t47.5 -166.5q0 -111 -36 -217t-102.5 -176.5t-144.5 -70.5zM216 122q33 0 63 73t44.5 153.5t14.5 129.5q0 65 -41 65q-34 0 -63.5 -73t-44 -153.5t-14.5 -128.5q0 -66 41 -66z" />
    <glyph glyph-name="one" unicode="1" horiz-adv-x="377" 
d="M276 0h-151l104 473l-109 -92l-66 91l238 195h131z" />
    <glyph glyph-name="two" unicode="2" horiz-adv-x="466" 
d="M384 0h-402l34 151q33 29 82.5 72t73.5 64t56.5 51t47.5 46t31 36.5t21.5 35.5t5.5 30q0 27 -16 42t-46 15q-61 0 -112 -58l-73 99q86 93 201 93q91 0 147.5 -45.5t56.5 -127.5q0 -81 -55 -150.5t-206 -206.5q-11 -10 -17 -15h199z" />
    <glyph glyph-name="three" unicode="3" horiz-adv-x="465" 
d="M205 -12q-75 0 -138.5 36t-83.5 98l119 78q13 -37 40.5 -57.5t62.5 -20.5q39 0 59.5 29.5t20.5 65.5q0 27 -19.5 41t-47.5 14q-29 0 -40 -2l31 135q7 -1 53 -1q38 0 57.5 25.5t19.5 60.5q0 53 -71 53q-56 0 -95 -48l-78 90q85 92 198 92q89 0 144.5 -40t55.5 -114
q0 -71 -46 -123t-106 -62q47 -15 69 -51t22 -79q0 -92 -65.5 -156t-161.5 -64z" />
    <glyph glyph-name="four" unicode="4" horiz-adv-x="463" 
d="M344 0h-151l29 133h-231l32 145l285 389h183l-89 -401h49l-29 -133h-49zM251 266l50 227l-158 -227h108z" />
    <glyph glyph-name="five" unicode="5" horiz-adv-x="471" 
d="M204 -12q-161 0 -215 133l116 79q13 -37 39.5 -57.5t58.5 -20.5q37 0 63.5 37.5t26.5 86.5q0 28 -15.5 44.5t-44.5 16.5q-42 0 -79 -43l-103 37l81 366h375l-29 -132h-224l-32 -149q37 44 98 44q60 0 96 -43t36 -119q0 -114 -69 -197t-179 -83z" />
    <glyph glyph-name="six" unicode="6" horiz-adv-x="466" 
d="M214 -12q-91 0 -140.5 58.5t-49.5 166.5q0 68 19 145t55 150t99 121t140 48q54 0 97.5 -22.5t66.5 -62.5l-98 -101q-18 52 -73 52q-41 0 -75 -45.5t-53 -111.5q-4 -10 -7 -28q23 35 56 55t67 20q57 0 93.5 -41.5t36.5 -112.5t-27.5 -137t-82 -110t-124.5 -44zM217 122
q33 0 53.5 43.5t20.5 84.5q0 26 -12 43.5t-35 17.5q-36 0 -69 -58q-5 -23 -5 -59q0 -72 47 -72z" />
    <glyph glyph-name="seven" unicode="7" horiz-adv-x="420" 
d="M180 0h-166l283 535h-218l30 132h389l-24 -105z" />
    <glyph glyph-name="eight" unicode="8" horiz-adv-x="466" 
d="M209 -12q-103 0 -156 37.5t-53 119.5q0 66 41 125.5t119 84.5q-34 17 -55.5 51.5t-21.5 76.5q0 84 65.5 139t150.5 55q82 0 140 -37.5t58 -117.5q0 -68 -42.5 -121t-107.5 -67q41 -22 62.5 -60t21.5 -82q0 -89 -61.5 -146.5t-160.5 -57.5zM265 391q78 27 78 104
q0 48 -48 48q-29 0 -48 -25.5t-19 -62.5q0 -40 37 -64zM208 122q30 0 52 29t22 71q0 27 -13 45.5t-26 24.5q-35 -9 -61 -39.5t-26 -76.5q0 -26 14 -40t38 -14z" />
    <glyph glyph-name="nine" unicode="9" horiz-adv-x="466" 
d="M291 678q91 0 140.5 -58.5t49.5 -166.5q0 -68 -19 -145t-55 -150t-99 -121t-140 -48q-113 0 -164 85l99 101q16 -52 73 -52q41 0 74.5 45.5t52.5 111.5q6 18 8 28q-23 -35 -56 -55t-68 -20q-56 0 -93 42t-37 112q0 71 27.5 137t82 110t124.5 44zM289 544q-33 0 -54 -43.5
t-21 -84.5q0 -26 12 -43.5t36 -17.5q35 0 68 58q6 28 6 59q0 72 -47 72z" />
    <glyph glyph-name="colon" unicode=":" horiz-adv-x="258" 
d="M84 -12q-32 0 -54.5 23t-22.5 55q0 37 27.5 64.5t65.5 27.5q32 0 54.5 -23t22.5 -55q0 -37 -27.5 -64.5t-65.5 -27.5zM157 320q-32 0 -54.5 23t-22.5 55q0 37 27.5 64.5t65.5 27.5q32 0 54.5 -23t22.5 -55q0 -38 -27.5 -65t-65.5 -27z" />
    <glyph glyph-name="semicolon" unicode=";" horiz-adv-x="260" 
d="M181 73q0 -58 -43 -116t-109 -89l-47 49q75 34 100 84q-2 -1 -11 -1q-27 0 -45.5 18t-18.5 50q0 37 28.5 63.5t64.5 26.5q34 0 57.5 -22.5t23.5 -62.5zM157 320q-32 0 -54.5 23t-22.5 55q0 37 27.5 64.5t65.5 27.5q32 0 54.5 -23t22.5 -55q0 -38 -27.5 -65t-65.5 -27z
" />
    <glyph glyph-name="less" unicode="&#x3c;" horiz-adv-x="385" 
d="M335 153l-297 133l21 98l357 133l-22 -102l-251 -85l213 -83z" />
    <glyph glyph-name="equal" unicode="=" horiz-adv-x="385" 
d="M387 386h-327l18 83h327zM346 199h-327l18 83h327z" />
    <glyph glyph-name="greater" unicode="&#x3e;" horiz-adv-x="385" 
d="M365 286l-357 -133l23 102l251 83l-214 85l21 94l298 -133z" />
    <glyph glyph-name="question" unicode="?" horiz-adv-x="331" 
d="M224 246l-122 -38q-9 27 -9 60q0 47 21.5 86t46.5 60.5t46.5 47.5t21.5 50q0 17 -10 28t-28 11q-28 0 -50 -22l-41 97q62 51 141 51q62 0 104 -35t42 -89q0 -47 -26.5 -89.5t-58 -68t-58 -57.5t-26.5 -60q0 -16 6 -32zM122 -12q-32 0 -54.5 23t-22.5 55q0 37 27.5 64.5
t65.5 27.5q32 0 54.5 -23t22.5 -55q0 -37 -27.5 -64.5t-65.5 -27.5z" />
    <glyph glyph-name="at" unicode="@" horiz-adv-x="652" 
d="M295 -70q-116 0 -178 76t-62 209q0 167 106.5 295t252.5 128q98 0 160.5 -65t62.5 -175q0 -127 -51.5 -220t-124.5 -93q-35 0 -59.5 17.5t-31.5 48.5l-2 8q-49 -74 -115 -74q-41 0 -69 30.5t-28 99.5t23.5 133.5t69 107t100.5 42.5q56 0 73 -62l10 48h120l-51 -241
q-3 -15 -3 -27q0 -40 28 -40q7 0 16 9.5t18 29t16.5 45.5t12.5 62t5 75q0 96 -49 148.5t-134 52.5t-158.5 -56t-115 -143.5t-41.5 -181.5q0 -110 50.5 -179t153.5 -69q74 0 153 55l21 -31q-88 -63 -179 -63zM317 180q11 0 20.5 4.5t17.5 14t12.5 16t11.5 19.5l26 125
q-10 44 -36 44q-40 0 -64.5 -55t-24.5 -111q0 -57 37 -57z" />
    <glyph glyph-name="A" unicode="A" horiz-adv-x="454" 
d="M402 0h-151l7 108h-116l-40 -108h-159l290 667h174zM270 241l17 260l-98 -260h81z" />
    <glyph glyph-name="B" unicode="B" horiz-adv-x="477" 
d="M249 0h-256l147 667h190q80 0 124.5 -42.5t44.5 -105.5q0 -68 -39.5 -123.5t-101.5 -62.5q40 -11 61 -46t21 -78q0 -81 -49.5 -145t-141.5 -64zM271 405q30 0 48.5 24.5t18.5 56.5q0 49 -54 49h-22l-29 -130h38zM215 132q32 0 52.5 26t20.5 64q0 51 -51 51h-33l-31 -141
h42z" />
    <glyph glyph-name="C" unicode="C" horiz-adv-x="448" 
d="M217 -12q-92 0 -142 59.5t-50 163.5q0 65 17 140.5t50 151t93 125.5t136 50q48 0 83.5 -18.5t55.5 -49.5t29.5 -66t10.5 -75l-140 -27q-4 102 -47 102q-39 0 -71.5 -66t-47.5 -142t-15 -128q0 -86 45 -86q42 0 79 80l121 -50q-74 -164 -207 -164z" />
    <glyph glyph-name="D" unicode="D" horiz-adv-x="500" 
d="M179 0h-186l147 667h181q76 0 130.5 -60t54.5 -166q0 -39 -7 -83.5t-21 -95t-40.5 -96.5t-61 -83.5t-85.5 -60t-112 -22.5zM262 535l-89 -403h33q37 0 67 36t46 88t24.5 100.5t8.5 82.5q0 48 -16.5 72t-42.5 24h-31z" />
    <glyph glyph-name="E" unicode="E" horiz-adv-x="392" 
d="M307 0h-314l147 667h314l-30 -132h-162l-29 -130h156l-29 -132h-156l-31 -141h163z" />
    <glyph glyph-name="F" unicode="F" horiz-adv-x="387" 
d="M144 0h-151l147 667h314l-30 -132h-162l-29 -130h156l-29 -132h-156z" />
    <glyph glyph-name="G" unicode="G" horiz-adv-x="474" 
d="M217 -12q-94 0 -143 60t-49 163q0 55 10.5 116t34.5 124t57.5 113t84 82t109.5 32q87 0 128 -53t43 -136l-127 -31q-4 86 -52 86q-38 0 -70 -63.5t-48 -139.5t-16 -133q0 -46 11 -66t35 -20q31 0 62 38l17 81h-68l30 133h200l-59 -269q-77 -117 -190 -117z" />
    <glyph glyph-name="H" unicode="H" horiz-adv-x="508" 
d="M407 0h-151l61 277h-112l-61 -277h-151l147 667h151l-57 -258h112l57 258h151z" />
    <glyph glyph-name="I" unicode="I" horiz-adv-x="245" 
d="M144 0h-151l147 667h151z" />
    <glyph glyph-name="J" unicode="J" horiz-adv-x="362" 
d="M92 -12q-85 0 -130 39l58 122q21 -27 58 -27q59 0 74 65l106 480h151l-107 -488q-23 -100 -72.5 -145.5t-137.5 -45.5z" />
    <glyph glyph-name="K" unicode="K" horiz-adv-x="497" 
d="M444 0h-158l-48 240l-61 -86l-33 -154h-151l147 667h151l-59 -270l175 270h173l-228 -313z" />
    <glyph glyph-name="L" unicode="L" horiz-adv-x="380" 
d="M307 0h-314l147 667h151l-118 -535h163z" />
    <glyph glyph-name="M" unicode="M" horiz-adv-x="645" 
d="M545 0h-149l81 371l-184 -371h-49l-18 371l-82 -371h-151l147 667h186l16 -319l160 319h190z" />
    <glyph glyph-name="N" unicode="N" horiz-adv-x="508" 
d="M407 0h-141l-49 331l-73 -331h-151l147 667h151l42 -315l70 315h151z" />
    <glyph glyph-name="O" unicode="O" horiz-adv-x="500" 
d="M217 -12q-94 0 -143 62t-49 161q0 65 17 141t50.5 151t93.5 125t135 50q95 0 143.5 -63t48.5 -162q0 -51 -10 -110t-33.5 -122.5t-56.5 -115t-84 -84.5t-112 -33zM224 122q29 0 55.5 38.5t43.5 93.5t26.5 110t9.5 92q0 88 -46 88q-29 0 -55.5 -39t-43 -94t-26 -110.5
t-9.5 -92.5q0 -86 45 -86z" />
    <glyph glyph-name="P" unicode="P" horiz-adv-x="469" 
d="M144 0h-151l147 667h186q78 0 125.5 -50.5t47.5 -127.5q0 -105 -66.5 -180t-188.5 -75h-49zM258 366h-2q39 0 62.5 32.5t23.5 75.5q0 28 -14 44.5t-37 16.5h-29l-38 -169h34z" />
    <glyph glyph-name="Q" unicode="Q" horiz-adv-x="500" 
d="M217 -12q-94 0 -143 62t-49 161q0 65 17 141t50.5 151t93.5 125t135 50q95 0 143.5 -63t48.5 -162t-37 -215.5t-107 -184.5l11 -68l-111 -21l-5 30q-22 -6 -47 -6zM224 122q11 0 19 4l-16 99l91 16q41 117 41 215q0 88 -46 88q-29 0 -55.5 -39t-43 -94t-26 -110.5
t-9.5 -92.5q0 -86 45 -86z" />
    <glyph glyph-name="R" unicode="R" horiz-adv-x="485" 
d="M403 0h-158l-13 234h-37l-51 -234h-151l147 667h187q74 0 123 -51.5t49 -127.5t-39 -141.5t-86 -85.5zM258 366h-1q38 0 61 32t23 75q0 31 -14 46.5t-36 15.5h-29l-38 -169h34z" />
    <glyph glyph-name="S" unicode="S" horiz-adv-x="416" 
d="M165 -12q-60 0 -111.5 22t-78.5 58l84 112q18 -26 47 -42t58 -16q28 0 46.5 19.5t18.5 50.5q0 20 -16 41t-39.5 41.5t-46.5 44t-39 58t-16 74.5q0 94 64 160.5t157 66.5q48 0 94 -18t75 -51l-79 -111q-36 46 -92 46q-27 0 -43 -18.5t-16 -44.5q0 -20 16 -41t39 -42
t45.5 -44.5t38.5 -58t16 -74.5q0 -96 -62.5 -164.5t-159.5 -68.5z" />
    <glyph glyph-name="T" unicode="T" horiz-adv-x="385" 
d="M214 0h-151l118 535h-99l29 132h349l-29 -132h-99z" />
    <glyph glyph-name="U" unicode="U" horiz-adv-x="508" 
d="M222 -12q-80 0 -134 49.5t-54 130.5q0 19 5 41l101 458h151l-104 -472q-3 -18 -3 -25q0 -23 14 -36.5t36 -13.5q48 0 65 75l104 472h151l-102 -463q-24 -109 -85.5 -162.5t-144.5 -53.5z" />
    <glyph glyph-name="V" unicode="V" horiz-adv-x="454" 
d="M260 0h-174l4 667h151l-30 -474l180 474h158z" />
    <glyph glyph-name="W" unicode="W" horiz-adv-x="650" 
d="M470 0h-151l38 388l-134 -388h-152l29 667h152l-42 -404l147 404h117l-30 -404l136 404h156z" />
    <glyph glyph-name="X" unicode="X" horiz-adv-x="473" 
d="M423 0h-158l-34 203l-115 -203h-174l233 348l-78 319h160l26 -192l105 192h174l-221 -334z" />
    <glyph glyph-name="Y" unicode="Y" horiz-adv-x="459" 
d="M251 0h-151l60 272l-73 395h154l20 -251l131 251h166l-247 -395z" />
    <glyph glyph-name="Z" unicode="Z" horiz-adv-x="394" 
d="M312 0h-338l27 127l244 408h-154l30 132h331l-26 -121l-248 -414h163z" />
    <glyph glyph-name="bracketleft" unicode="[" horiz-adv-x="216" 
d="M101 -190h-162l192 868h163l-19 -89h-67l-153 -690h67z" />
    <glyph glyph-name="backslash" unicode="\" horiz-adv-x="241" 
d="M88 -20v707h94v-707h-94z" />
    <glyph glyph-name="bracketright" unicode="]" horiz-adv-x="216" 
d="M84 -190h-162l19 89h66l153 690h-66l20 89h163z" />
    <glyph glyph-name="asciicircum" unicode="^" horiz-adv-x="341" 
d="M341 333h-93l-6 227l-106 -227h-98l177 334h98z" />
    <glyph glyph-name="underscore" unicode="_" horiz-adv-x="279" 
d="M199 -129h-284l20 89h284z" />
    <glyph glyph-name="grave" unicode="`" horiz-adv-x="193" 
d="M262 556h-84l-77 144h114z" />
    <glyph glyph-name="grave" unicode="&#x2cb;" horiz-adv-x="193" 
d="M262 556h-84l-77 144h114z" />
    <glyph glyph-name="a" unicode="a" horiz-adv-x="442" 
d="M208 495q78 0 99 -70l13 58h135l-107 -483h-135l12 55q-44 -67 -103 -67q-112 0 -112 160q0 51 12.5 109t36 112t62.5 90t87 36zM241 375q-42 0 -66.5 -73t-24.5 -135q0 -59 43 -59q30 0 54 44l39 178q-4 21 -16 33t-29 12z" />
    <glyph glyph-name="b" unicode="b" horiz-adv-x="442" 
d="M233 -12q-76 0 -99 70l-12 -58h-135l146 667h136l-53 -239q46 67 103 67q112 0 112 -160q0 -51 -12.5 -109t-35.5 -112t-62.5 -90t-87.5 -36zM200 108q22 0 41 23.5t29.5 58t16 68t5.5 58.5q0 59 -44 59q-30 0 -54 -44l-39 -178q4 -21 16 -33t29 -12z" />
    <glyph glyph-name="c" unicode="c" horiz-adv-x="358" 
d="M189 -12q-82 0 -129 49t-47 139q0 77 28 149t84 121t127 49q87 0 134 -50l-62 -101q-20 31 -60 31q-48 0 -80 -58.5t-32 -125.5q0 -41 19 -62t52 -21t57 24l19 -107q-45 -37 -110 -37z" />
    <glyph glyph-name="d" unicode="d" horiz-adv-x="442" 
d="M208 495q78 0 99 -70l54 242h134l-147 -667h-135l12 55q-44 -67 -103 -67q-112 0 -112 160q0 51 12.5 109t36 112t62.5 90t87 36zM241 375q-42 0 -66.5 -73t-24.5 -135q0 -59 43 -59q30 0 54 44l39 178q-4 21 -16 33t-29 12z" />
    <glyph glyph-name="e" unicode="e" horiz-adv-x="420" 
d="M191 -12q-84 0 -131 50t-47 140q0 69 25.5 139.5t81.5 124t128 53.5q81 0 120.5 -46t39.5 -126q0 -53 -19 -126h-250q-3 -15 -3 -29q0 -27 19 -49t63 -22q42 0 81 37l44 -85q-63 -61 -152 -61zM281 291h2q4 16 4 36q0 27 -14 43t-36 16q-33 0 -53 -29t-26 -66h123z" />
    <glyph glyph-name="f" unicode="f" horiz-adv-x="262" 
d="M138 0h-135l81 366h-43l26 117h42l8 34q16 74 52.5 117t105.5 43q71 0 105 -30l-52 -100q-11 14 -33 14q-33 0 -43 -44l-8 -34h59l-26 -117h-58z" />
    <glyph glyph-name="g" unicode="g" horiz-adv-x="442" 
d="M130 -196q-113 0 -168 63l66 101q37 -48 97 -48q35 0 56.5 23.5t34.5 76.5l14 58q-40 -68 -103 -68q-115 0 -115 150q0 49 11 104t33 108.5t61.5 88t89.5 34.5q31 0 62 -18.5t38 -51.5l13 58h135l-104 -463q-27 -120 -83 -168t-138 -48zM196 130q32 0 55 45l34 155
q-5 19 -18 32t-28 13q-41 0 -64 -64.5t-23 -121.5q0 -59 44 -59z" />
    <glyph glyph-name="h" unicode="h" horiz-adv-x="441" 
d="M346 0h-135l73 330q3 6 3 17q0 28 -27 28q-34 0 -68 -55l-70 -320h-136l147 667h136l-54 -243q22 30 55.5 50.5t68.5 20.5q45 0 70 -23.5t25 -61.5q0 -14 -3 -27z" />
    <glyph glyph-name="i" unicode="i" horiz-adv-x="216" 
d="M179 532q-30 0 -51 20t-21 48q0 41 28.5 66t62.5 25q30 0 51 -20t21 -48q0 -41 -29 -66t-62 -25zM122 0h-136l107 483h136z" />
    <glyph glyph-name="j" unicode="j" horiz-adv-x="216" 
d="M-54 -196q-54 0 -79 25l48 101q6 -10 22 -10q31 0 43 53l113 510h136l-114 -510q-19 -87 -56.5 -128t-112.5 -41zM179 532q-30 0 -51 20t-21 48q0 41 28.5 66t62.5 25q30 0 51 -20t21 -48q0 -41 -29 -66t-62 -25z" />
    <glyph glyph-name="k" unicode="k" horiz-adv-x="424" 
d="M370 0h-146l-23 182l-56 -75l-23 -107h-136l147 667h136l-84 -378l134 194h151l-159 -214z" />
    <glyph glyph-name="l" unicode="l" horiz-adv-x="216" 
d="M122 0h-136l147 667h136z" />
    <glyph glyph-name="m" unicode="m" horiz-adv-x="666" 
d="M571 0h-135l73 330l1 7q2 7 2 10q0 28 -28 28q-36 0 -67 -55l-71 -320h-135l73 330q3 9 3 18q0 27 -27 27q-36 0 -68 -55l-70 -320h-136l107 483h136l-14 -59q22 30 56 50.5t68 20.5q41 0 67.5 -22t26.5 -52v-6q23 34 59 57t72 23q43 0 69 -23t26 -62q0 -15 -4 -27z" />
    <glyph glyph-name="n" unicode="n" horiz-adv-x="441" 
d="M346 0h-135l73 330q3 9 3 17q0 28 -27 28q-34 0 -68 -55l-70 -320h-136l107 483h136l-14 -59q22 30 55.5 50.5t68.5 20.5q44 0 69.5 -23.5t25.5 -61.5q0 -12 -3 -27z" />
    <glyph glyph-name="o" unicode="o" horiz-adv-x="434" 
d="M185 -12q-84 0 -128 50t-44 137q0 73 26 144.5t82 123.5t127 52q83 0 127.5 -50t44.5 -137q0 -73 -26 -144.5t-82 -123.5t-127 -52zM192 108q40 0 65.5 73.5t25.5 129.5q0 64 -43 64q-28 0 -50 -40.5t-31.5 -85.5t-9.5 -78q0 -63 43 -63z" />
    <glyph glyph-name="p" unicode="p" horiz-adv-x="442" 
d="M233 -12q-76 0 -99 70l-53 -242h-135l147 667h136l-13 -55q46 67 103 67q112 0 112 -160q0 -51 -12.5 -109t-35.5 -112t-62.5 -90t-87.5 -36zM200 108q22 0 41 23.5t29.5 58t16 68t5.5 58.5q0 59 -44 59q-30 0 -54 -44l-39 -178q4 -21 16 -33t29 -12z" />
    <glyph glyph-name="q" unicode="q" horiz-adv-x="442" 
d="M208 495q78 0 99 -70l13 58h134l-147 -667h-135l53 239q-44 -67 -103 -67q-112 0 -112 160q0 51 12.5 109t36 112t62.5 90t87 36zM241 375q-42 0 -66.5 -73t-24.5 -135q0 -59 43 -59q30 0 54 44l39 178q-4 21 -16 33t-29 12z" />
    <glyph glyph-name="r" unicode="r" horiz-adv-x="295" 
d="M122 0h-136l107 483h136l-14 -59q19 32 52.5 52t71.5 20l-31 -134q-10 6 -28 6q-50 0 -90 -56z" />
    <glyph glyph-name="s" unicode="s" horiz-adv-x="364" 
d="M144 -12q-56 0 -104 22t-67 52l71 87q16 -23 43 -39t57 -16q23 0 38 13t15 31q0 17 -24 34.5t-52.5 32.5t-52.5 47t-24 74q0 70 46.5 119.5t130.5 49.5q45 0 88 -18.5t72 -50.5l-69 -85q-11 17 -38 32.5t-54 15.5q-21 0 -33.5 -11t-12.5 -28q0 -15 24.5 -31.5t54 -32.5
t54 -49t24.5 -75q0 -71 -51.5 -122.5t-135.5 -51.5z" />
    <glyph glyph-name="t" unicode="t" horiz-adv-x="269" 
d="M151 -12q-126 0 -126 94q0 22 5 46l54 238h-44l26 117h44l29 132h135l-29 -132h58l-26 -117h-58l-47 -212q-3 -10 -3 -21q0 -25 25 -25q13 0 21 8l-1 -113q-22 -15 -63 -15z" />
    <glyph glyph-name="u" unicode="u" horiz-adv-x="441" 
d="M93 483h136l-73 -330q-3 -9 -3 -17q0 -28 27 -28q34 0 67 53l71 322h135l-107 -483h-135l14 59q-22 -30 -55.5 -50.5t-68.5 -20.5q-44 0 -69.5 23.5t-25.5 61.5q0 12 3 27z" />
    <glyph glyph-name="v" unicode="v" horiz-adv-x="408" 
d="M222 0h-144l-27 483h139l-7 -313l133 313h147z" />
    <glyph glyph-name="w" unicode="w" horiz-adv-x="641" 
d="M472 0h-142l2 299l-129 -299h-142l-7 483h136l-12 -301l124 301h127l-4 -301l124 301h144z" />
    <glyph glyph-name="x" unicode="x" horiz-adv-x="395" 
d="M342 0h-140l-23 144l-87 -144h-147l167 243l-55 240h138l20 -142l82 142h146l-162 -240z" />
    <glyph glyph-name="y" unicode="y" horiz-adv-x="408" 
d="M-50 -182l43 111q7 -5 23 -5q23 0 39 28l22 43l-26 488h139l-7 -312l133 312h147l-279 -558q-36 -70 -70 -95.5t-85 -25.5q-49 0 -79 14z" />
    <glyph glyph-name="z" unicode="z" horiz-adv-x="351" 
d="M275 0h-306l22 101l194 265h-136l27 117h302l-22 -96l-196 -270h140z" />
    <glyph glyph-name="braceleft" unicode="{" horiz-adv-x="228" 
d="M114 -190h-18q-44 0 -78 28t-34 71q0 17 3 27l45 204q2 12 2 18q0 22 -10.5 35.5t-28.5 13.5l16 74q52 0 67 67l45 205q29 125 157 125h27l-19 -89h-27q-33 0 -41 -36l-50 -230q-15 -70 -65 -89q29 -14 29 -56q0 -18 -4 -34l-45 -200q-2 -12 -2 -18q0 -12 7 -20t17 -8h27
z" />
    <glyph glyph-name="bar" unicode="|" horiz-adv-x="182" 
d="M156 -20h-89v707h89v-707z" />
    <glyph glyph-name="braceright" unicode="}" horiz-adv-x="228" 
d="M113 678h18q44 0 78.5 -28.5t34.5 -71.5q0 -5 -3 -26l-46 -204q-2 -12 -2 -19q0 -21 11 -34.5t29 -13.5l-17 -74q-52 0 -67 -67l-45 -205q-29 -125 -157 -125h-27l20 89h27q32 0 40 36l50 230q9 36 23.5 57t42.5 32q-29 14 -29 56q0 18 4 34l44 200l3 18q0 12 -7.5 20
t-17.5 8h-27z" />
    <glyph glyph-name="asciitilde" unicode="~" horiz-adv-x="426" 
d="M403 667l89 -7q-43 -249 -169 -249q-42 0 -60.5 27t-18 60t-2 60t-14.5 27q-37 0 -74 -175l-90 7q6 33 14 63.5t22 66t32 60.5t44.5 42t57.5 17q42 0 60.5 -27.5t18 -60t2 -60t14.5 -27.5q37 0 74 176z" />
    <glyph glyph-name="nbspace" unicode="&#xa0;" horiz-adv-x="155" 
 />
    <glyph glyph-name="exclamdown" unicode="&#xa1;" horiz-adv-x="260" 
d="M75 261h119l-76 -445h-164zM176 495q32 0 54.5 -23t22.5 -55q0 -37 -27.5 -64.5t-64.5 -27.5q-32 0 -54.5 23t-22.5 55q0 37 27 64.5t65 27.5z" />
    <glyph glyph-name="cent" unicode="&#xa2;" horiz-adv-x="358" 
d="M78 -100l24 106q-89 44 -89 170q0 108 54 200.5t142 113.5l17 75h97l-17 -77q51 -12 80 -43l-62 -101q-20 31 -60 31q-48 0 -80 -58.5t-32 -125.5q0 -41 19 -62t52 -21t57 24l19 -107q-43 -35 -104 -37l-20 -88h-97z" />
    <glyph glyph-name="sterling" unicode="&#xa3;" horiz-adv-x="446" 
d="M37 278l19 86h43q-9 38 -9 74q0 103 72 171t159 68q72 0 121 -40t50 -114l-129 -36q-3 67 -41 67q-30 0 -50.5 -41.5t-20.5 -97.5q0 -23 7 -51h69l-19 -86h-50q-16 -99 -81 -141q21 8 36 8q22 0 52 -11.5t48 -11.5q38 0 67 27l11 -122q-43 -39 -106 -39q-43 0 -92.5 20.5
t-75.5 20.5q-39 0 -87 -36l-19 101q47 28 76.5 74.5t29.5 97.5v12h-80z" />
    <glyph glyph-name="currency" unicode="&#xa4;" horiz-adv-x="522" 
d="M461 136l-34 -27l-37 49q-61 -44 -132 -44q-83 0 -145 59l-79 -66l-23 31l77 63q-31 56 -31 108q0 95 80 173l-37 49l32 26l39 -48q60 43 133 43q81 0 143 -57l78 64l25 -30l-78 -64q31 -51 31 -108q0 -91 -80 -173zM454 351q0 68 -43.5 110.5t-111.5 42.5
q-77 0 -135 -56.5t-58 -132.5q0 -68 43.5 -110.5t111.5 -42.5q77 0 135 56.5t58 132.5z" />
    <glyph glyph-name="yen" unicode="&#xa5;" horiz-adv-x="459" 
d="M251 0h-151l25 114h-128l18 82h128l17 76h-128l18 83h94l-57 312h154l20 -251l131 251h166l-195 -312h92l-18 -83h-126l-17 -76h126l-19 -82h-125z" />
    <glyph glyph-name="brokenbar" unicode="&#xa6;" horiz-adv-x="182" 
d="M156 -20h-89v316h89v-316zM156 371h-89v316h89v-316z" />
    <glyph glyph-name="section" unicode="&#xa7;" horiz-adv-x="366" 
d="M368 341q0 -104 -102 -152q47 -35 47 -94q0 -74 -52.5 -125t-130.5 -51q-132 0 -179 68l73 86q32 -54 97 -54q27 0 43.5 17t16.5 41q0 18 -15.5 33.5t-37.5 28t-44 28t-37.5 42.5t-15.5 62q0 50 29.5 88.5t78.5 53.5q-24 17 -38.5 45t-14.5 57q0 69 50 115.5t121 46.5
q114 0 170 -68l-69 -74q-35 47 -91 47q-23 0 -37.5 -15.5t-14.5 -35.5q0 -21 24 -41t52.5 -35t52.5 -45t24 -69zM243 308q0 35 -29 58q-58 -13 -58 -68q0 -40 41 -62q46 21 46 72z" />
    <glyph glyph-name="dieresis" unicode="&#xa8;" horiz-adv-x="284" 
d="M382 620q0 -31 -24.5 -55t-55.5 -24q-27 0 -45 18t-18 45q0 31 24.5 55t55.5 24q27 0 45 -18t18 -45zM208 620q0 -31 -24 -55t-56 -24q-27 0 -45 18t-18 45q0 31 24.5 55t55.5 24q27 0 45 -18t18 -45z" />
    <glyph glyph-name="copyright" unicode="&#xa9;" horiz-adv-x="778" 
d="M754 334q0 -142 -101.5 -243.5t-244.5 -101.5q-142 0 -243 101t-101 244t101 244t243 101q143 0 244.5 -101.5t101.5 -243.5zM717 334q0 127 -91 217.5t-218 90.5t-217 -90.5t-90 -217.5t90 -217.5t217 -90.5t218 90.5t91 217.5zM507 213l25 -35q-64 -55 -139 -55
q-86 0 -138.5 52t-52.5 132q0 100 70 169t162 69q110 0 160 -81l-38 -27q-37 67 -124 67q-70 0 -126.5 -57t-56.5 -139q0 -60 39.5 -102t105.5 -42q62 0 113 49z" />
    <glyph glyph-name="ordfeminine" unicode="&#xaa;" horiz-adv-x="323" 
d="M228 571q-27 0 -45 -43.5t-18 -88.5q0 -44 30 -44q19 0 38 32l26 116q-7 28 -31 28zM280 640h97l-69 -314h-97l8 36q-30 -44 -73 -44q-37 0 -59.5 27t-22.5 85q0 77 39 147.5t98 70.5q51 0 71 -44z" />
    <glyph glyph-name="guillemotleft" unicode="&#xab;" horiz-adv-x="415" 
d="M179 63h-100l-50 180l130 177h104l-133 -181zM342 63h-100l-50 180l130 177h104l-133 -181z" />
    <glyph glyph-name="logicalnot" unicode="&#xac;" horiz-adv-x="385" 
d="M405 469l-59 -270h-85l41 187h-242l18 83h327z" />
    <glyph glyph-name="registered" unicode="&#xae;" horiz-adv-x="494" 
d="M508 465q0 -88 -62.5 -150t-150.5 -62t-149.5 62t-61.5 150t62 150t150 62t150 -61.5t62 -150.5zM476 465q0 75 -53 127.5t-128 52.5q-74 0 -126.5 -52.5t-52.5 -127.5q0 -74 52.5 -127t126.5 -53t127.5 53t53.5 127zM369 343h-40l-42 96h-44l-21 -96h-34l53 243h92
q32 0 52 -17.5t20 -46.5q0 -35 -25 -58.5t-55 -23.5zM369 519q0 37 -43 37h-57l-19 -86h64q23 0 39 14t16 35z" />
    <glyph glyph-name="macron" unicode="&#xaf;" horiz-adv-x="263" 
d="M339 591h-262l17 76h262z" />
    <glyph glyph-name="macron" unicode="&#x203e;" horiz-adv-x="263" 
d="M339 591h-262l17 76h262z" />
    <glyph glyph-name="degree" unicode="&#xb0;" horiz-adv-x="314" 
d="M359 539q0 -56 -40.5 -96t-96.5 -40q-57 0 -97 40t-40 96q0 57 40 97.5t97 40.5q56 0 96.5 -40.5t40.5 -97.5zM287 539q0 27 -19.5 46.5t-45.5 19.5q-27 0 -45.5 -19.5t-18.5 -46.5t18 -45.5t45 -18.5q26 0 46 19t20 45z" />
    <glyph glyph-name="plusminus" unicode="&#xb1;" horiz-adv-x="385" 
d="M368 296h-119l-31 -142h-91l32 142h-119l19 83h118l30 134h90l-29 -134h118zM306 18h-327l18 83h327z" />
    <glyph glyph-name="twosuperior" unicode="&#xb2;" 
d="M333 421h-268l18 79q132 102 171 140.5t39 68.5q0 37 -43 37t-79 -43l-47 65q57 59 135 59q59 0 97.5 -28t38.5 -79t-40 -94.5t-146 -123.5h141z" />
    <glyph glyph-name="threesuperior" unicode="&#xb3;" 
d="M357 539q0 -49 -40 -87t-102 -38q-49 0 -88 18.5t-57 51.5l73 57q21 -46 67 -46q23 0 36.5 17t13.5 38q0 35 -43 35q-24 0 -30 -1l17 79q5 -1 34 -1q25 0 39.5 13.5t14.5 35.5q0 35 -44 35q-42 0 -72 -36l-50 58q56 59 131 59q61 0 98.5 -26.5t37.5 -72.5
q0 -38 -26 -70.5t-70 -36.5q60 -18 60 -82z" />
    <glyph glyph-name="acute" unicode="&#xb4;" horiz-adv-x="193" 
d="M294 700l-141 -144h-86l111 144h116z" />
    <glyph glyph-name="mu" unicode="&#xb5;" horiz-adv-x="441" 
d="M81 -184h-135l147 667h136l-74 -332q-10 -44 23 -44q18 0 37 16t31 37l72 323h135l-107 -483h-135l12 57q-17 -23 -46.5 -42.5t-58.5 -26.5z" />
    <glyph glyph-name="mu" unicode="&#x3bc;" horiz-adv-x="441" 
d="M81 -184h-135l147 667h136l-74 -332q-10 -44 23 -44q18 0 37 16t31 37l72 323h135l-107 -483h-135l12 57q-17 -23 -46.5 -42.5t-58.5 -26.5z" />
    <glyph glyph-name="paragraph" unicode="&#xb6;" horiz-adv-x="449" 
d="M329 -100h-65l156 702h-77l-156 -702h-65l94 423q-57 0 -97 44.5t-40 111.5q0 73 56.5 130.5t137.5 57.5h226z" />
    <glyph glyph-name="periodcentered" unicode="&#xb7;" horiz-adv-x="259" 
d="M121 159q-32 0 -54.5 23t-22.5 55q0 37 28 65t65 28q32 0 54.5 -23.5t22.5 -55.5q0 -37 -27.5 -64.5t-65.5 -27.5z" />
    <glyph glyph-name="periodcentered" unicode="&#x2219;" horiz-adv-x="259" 
d="M121 159q-32 0 -54.5 23t-22.5 55q0 37 28 65t65 28q32 0 54.5 -23.5t22.5 -55.5q0 -37 -27.5 -64.5t-65.5 -27.5z" />
    <glyph glyph-name="cedilla" unicode="&#xb8;" horiz-adv-x="190" 
d="M9 -196q-60 0 -97 40l33 48q27 -32 63 -32q18 0 28.5 10t10.5 25q0 20 -21 20q-14 0 -22 -13l-42 28l48 81h65l-39 -62q11 10 23 10q23 0 38 -16.5t15 -44.5q0 -40 -29.5 -67t-73.5 -27z" />
    <glyph glyph-name="onesuperior" unicode="&#xb9;" horiz-adv-x="259" 
d="M259 421h-102l59 267l-64 -53l-46 61l153 125h88z" />
    <glyph glyph-name="ordmasculine" unicode="&#xba;" horiz-adv-x="318" 
d="M192 318q-59 0 -91.5 35t-32.5 91q0 77 45 140.5t119 63.5q59 0 91.5 -35t32.5 -91q0 -77 -45.5 -140.5t-118.5 -63.5zM196 396q28 0 44.5 48.5t16.5 83.5q0 41 -31 41q-28 0 -44.5 -48.5t-16.5 -83.5q0 -41 31 -41z" />
    <glyph glyph-name="guillemotright" unicode="&#xbb;" horiz-adv-x="415" 
d="M73 420h100l50 -180l-130 -177h-104l133 181zM236 420h100l50 -180l-130 -177h-104l133 181z" />
    <glyph glyph-name="onequarter" unicode="&#xbc;" horiz-adv-x="684" 
d="M604 667l-429 -667h-55l427 667h57zM636 84h-32l-18 -84h-101l18 84h-151l17 77l183 239h122l-52 -237h32zM520 163l28 125l-93 -125h65zM225 267h-102l59 267l-64 -53l-46 61l153 125h88z" />
    <glyph glyph-name="onehalf" unicode="&#xbd;" horiz-adv-x="721" 
d="M604 667l-429 -667h-55l427 667h57zM653 0h-268l18 79q132 102 171 140.5t39 68.5q0 37 -43 37t-79 -43l-47 65q57 59 135 59q59 0 97.5 -28t38.5 -79t-40 -94.5t-146 -123.5h141zM225 267h-102l59 267l-64 -53l-46 61l153 125h88z" />
    <glyph glyph-name="threequarters" unicode="&#xbe;" horiz-adv-x="720" 
d="M640 667l-429 -667h-55l427 667h57zM672 84h-32l-18 -84h-101l18 84h-151l17 77l183 239h122l-52 -237h32zM556 163l28 125l-93 -125h65zM323 385q0 -49 -40 -87t-102 -38q-49 0 -88 18.5t-57 51.5l73 57q21 -46 67 -46q23 0 36.5 17t13.5 38q0 35 -43 35q-24 0 -30 -1
l17 79q5 -1 34 -1q25 0 39.5 13.5t14.5 35.5q0 35 -44 35q-42 0 -72 -36l-50 58q56 59 131 59q61 0 98.5 -26.5t37.5 -72.5q0 -38 -26 -70.5t-70 -36.5q60 -18 60 -82z" />
    <glyph glyph-name="questiondown" unicode="&#xbf;" horiz-adv-x="296" 
d="M106 236l122 39q9 -29 9 -60q0 -47 -21.5 -86.5t-46.5 -61t-46.5 -47.5t-21.5 -50q0 -16 10 -27t28 -11q29 0 50 21l41 -97q-62 -51 -140 -51q-63 0 -105 35t-42 89q0 39 17.5 73.5t42 59.5t49.5 47.5t42.5 46.5t17.5 48q0 20 -6 32zM208 494q32 0 54.5 -23t22.5 -55
q0 -38 -27.5 -65t-65.5 -27q-32 0 -54.5 23t-22.5 55q0 37 27.5 64.5t65.5 27.5z" />
    <glyph glyph-name="Agrave" unicode="&#xc0;" horiz-adv-x="454" 
d="M404 728h-84l-77 144h114zM402 0h-151l7 108h-116l-40 -108h-159l290 667h174zM270 241l17 260l-98 -260h81z" />
    <glyph glyph-name="Aacute" unicode="&#xc1;" horiz-adv-x="454" 
d="M490 872l-141 -144h-86l111 144h116zM402 0h-151l7 108h-116l-40 -108h-159l290 667h174zM270 241l17 260l-98 -260h81z" />
    <glyph glyph-name="Acircumflex" unicode="&#xc2;" horiz-adv-x="454" 
d="M457 728h-71l-32 86l-67 -86h-75l93 144h120zM402 0h-151l7 108h-116l-40 -108h-159l290 667h174zM270 241l17 260l-98 -260h81z" />
    <glyph glyph-name="Atilde" unicode="&#xc3;" horiz-adv-x="454" 
d="M384 726q-20 0 -32.5 10t-17 22t-12 22t-19.5 10q-24 0 -36 -58h-70q29 134 111 134q20 0 33 -10t17 -22t12 -22t20 -10q23 0 36 58h70q-29 -134 -112 -134zM402 0h-151l7 108h-116l-40 -108h-159l290 667h174zM270 241l17 260l-98 -260h81z" />
    <glyph glyph-name="Adieresis" unicode="&#xc4;" horiz-adv-x="454" 
d="M505 794q0 -31 -24.5 -55t-55.5 -24q-27 0 -45 18t-18 45q0 31 24.5 55t55.5 24q27 0 45 -18t18 -45zM331 794q0 -31 -24 -55t-56 -24q-27 0 -45 18t-18 45q0 31 24.5 55t55.5 24q27 0 45 -18t18 -45zM402 0h-151l7 108h-116l-40 -108h-159l290 667h174zM270 241l17 260
l-98 -260h81z" />
    <glyph glyph-name="Aring" unicode="&#xc5;" horiz-adv-x="454" 
d="M335 692q-36 0 -58.5 23t-22.5 59q0 41 30.5 72t71.5 31q36 0 59 -23t23 -59q0 -42 -31 -72.5t-72 -30.5zM343 749q16 0 27.5 12t11.5 28q0 14 -8.5 23t-22.5 9q-16 0 -28 -12t-12 -28q0 -14 9 -23t23 -9zM402 0h-151l7 108h-116l-40 -108h-159l290 667h174zM270 241
l17 260l-98 -260h81z" />
    <glyph glyph-name="AE" unicode="&#xc6;" horiz-adv-x="632" 
d="M554 0h-314l24 108h-105l-54 -108h-159l376 667h379l-29 -132h-163l-28 -130h156l-30 -132h-155l-31 -141h162zM293 241l55 246l-124 -246h69z" />
    <glyph glyph-name="Ccedilla" unicode="&#xc7;" horiz-adv-x="448" 
d="M217 -12h-1l-24 -39q11 10 23 10q23 0 38 -16.5t15 -44.5q0 -40 -29.5 -67t-73.5 -27q-60 0 -97 40l33 48q27 -32 63 -32q18 0 28.5 10t10.5 25q0 20 -21 20q-14 0 -22 -13l-42 28l39 66q-64 17 -98 73t-34 142q0 65 17 140.5t50 151t93 125.5t136 50q48 0 83.5 -18.5
t55.5 -49.5t29.5 -66t10.5 -75l-140 -27q-4 102 -47 102q-39 0 -71.5 -66t-47.5 -142t-15 -128q0 -86 45 -86q42 0 79 80l121 -50q-74 -164 -207 -164z" />
    <glyph glyph-name="Egrave" unicode="&#xc8;" horiz-adv-x="392" 
d="M383 728h-84l-77 144h114zM307 0h-314l147 667h314l-30 -132h-162l-29 -130h156l-29 -132h-156l-31 -141h163z" />
    <glyph glyph-name="Eacute" unicode="&#xc9;" horiz-adv-x="392" 
d="M470 872l-141 -144h-86l111 144h116zM307 0h-314l147 667h314l-30 -132h-162l-29 -130h156l-29 -132h-156l-31 -141h163z" />
    <glyph glyph-name="Ecircumflex" unicode="&#xca;" horiz-adv-x="392" 
d="M434 728h-71l-32 86l-67 -86h-75l93 144h120zM307 0h-314l147 667h314l-30 -132h-162l-29 -130h156l-29 -132h-156l-31 -141h163z" />
    <glyph glyph-name="Edieresis" unicode="&#xcb;" horiz-adv-x="392" 
d="M484 794q0 -31 -24.5 -55t-55.5 -24q-27 0 -45 18t-18 45q0 31 24.5 55t55.5 24q27 0 45 -18t18 -45zM310 794q0 -31 -24 -55t-56 -24q-27 0 -45 18t-18 45q0 31 24.5 55t55.5 24q27 0 45 -18t18 -45zM307 0h-314l147 667h314l-30 -132h-162l-29 -130h156l-29 -132h-156
l-31 -141h163z" />
    <glyph glyph-name="Igrave" unicode="&#xcc;" horiz-adv-x="245" 
d="M299 728h-84l-77 144h114zM144 0h-151l147 667h151z" />
    <glyph glyph-name="Iacute" unicode="&#xcd;" horiz-adv-x="245" 
d="M386 872l-141 -144h-86l111 144h116zM144 0h-151l147 667h151z" />
    <glyph glyph-name="Icircumflex" unicode="&#xce;" horiz-adv-x="245" 
d="M352 728h-71l-32 86l-67 -86h-75l93 144h120zM144 0h-151l147 667h151z" />
    <glyph glyph-name="Idieresis" unicode="&#xcf;" horiz-adv-x="245" 
d="M402 793q0 -31 -24.5 -55t-55.5 -24q-27 0 -45 18t-18 45q0 31 24.5 55t55.5 24q27 0 45 -18t18 -45zM228 793q0 -31 -24 -55t-56 -24q-27 0 -45 18t-18 45q0 31 24.5 55t55.5 24q27 0 45 -18t18 -45zM144 0h-151l147 667h151z" />
    <glyph glyph-name="Eth" unicode="&#xd0;" horiz-adv-x="524" 
d="M203 0h-186l60 273h-57l26 121h57l61 273h181q76 0 130.5 -60t54.5 -166q0 -39 -7 -83.5t-21 -95t-40.5 -96.5t-61 -83.5t-85.5 -60t-112 -22.5zM291 273h-63l-31 -141h33q37 0 67 36t46 88t24.5 100.5t8.5 82.5q0 48 -16.5 72t-42.5 24h-31l-31 -141h63z" />
    <glyph glyph-name="Ntilde" unicode="&#xd1;" horiz-adv-x="508" 
d="M413 726q-20 0 -32.5 10t-17 22t-12 22t-19.5 10q-24 0 -36 -58h-70q29 134 111 134q20 0 33 -10t17 -22t12 -22t20 -10q23 0 36 58h70q-29 -134 -112 -134zM407 0h-141l-49 331l-73 -331h-151l147 667h151l42 -315l70 315h151z" />
    <glyph glyph-name="Ograve" unicode="&#xd2;" horiz-adv-x="500" 
d="M426 728h-84l-77 144h114zM217 -12q-94 0 -143 62t-49 161q0 65 17 141t50.5 151t93.5 125t135 50q95 0 143.5 -63t48.5 -162q0 -51 -10 -110t-33.5 -122.5t-56.5 -115t-84 -84.5t-112 -33zM224 122q29 0 55.5 38.5t43.5 93.5t26.5 110t9.5 92q0 88 -46 88
q-29 0 -55.5 -39t-43 -94t-26 -110.5t-9.5 -92.5q0 -86 45 -86z" />
    <glyph glyph-name="Oacute" unicode="&#xd3;" horiz-adv-x="500" 
d="M512 872l-141 -144h-86l111 144h116zM217 -12q-94 0 -143 62t-49 161q0 65 17 141t50.5 151t93.5 125t135 50q95 0 143.5 -63t48.5 -162q0 -51 -10 -110t-33.5 -122.5t-56.5 -115t-84 -84.5t-112 -33zM224 122q29 0 55.5 38.5t43.5 93.5t26.5 110t9.5 92q0 88 -46 88
q-29 0 -55.5 -39t-43 -94t-26 -110.5t-9.5 -92.5q0 -86 45 -86z" />
    <glyph glyph-name="Ocircumflex" unicode="&#xd4;" horiz-adv-x="500" 
d="M481 728h-71l-32 86l-67 -86h-75l93 144h120zM217 -12q-94 0 -143 62t-49 161q0 65 17 141t50.5 151t93.5 125t135 50q95 0 143.5 -63t48.5 -162q0 -51 -10 -110t-33.5 -122.5t-56.5 -115t-84 -84.5t-112 -33zM224 122q29 0 55.5 38.5t43.5 93.5t26.5 110t9.5 92
q0 88 -46 88q-29 0 -55.5 -39t-43 -94t-26 -110.5t-9.5 -92.5q0 -86 45 -86z" />
    <glyph glyph-name="Otilde" unicode="&#xd5;" horiz-adv-x="500" 
d="M411 726q-20 0 -32.5 10t-17 22t-12 22t-19.5 10q-24 0 -36 -58h-70q29 134 111 134q20 0 33 -10t17 -22t12 -22t20 -10q23 0 36 58h70q-29 -134 -112 -134zM217 -12q-94 0 -143 62t-49 161q0 65 17 141t50.5 151t93.5 125t135 50q95 0 143.5 -63t48.5 -162
q0 -51 -10 -110t-33.5 -122.5t-56.5 -115t-84 -84.5t-112 -33zM224 122q29 0 55.5 38.5t43.5 93.5t26.5 110t9.5 92q0 88 -46 88q-29 0 -55.5 -39t-43 -94t-26 -110.5t-9.5 -92.5q0 -86 45 -86z" />
    <glyph glyph-name="Odieresis" unicode="&#xd6;" horiz-adv-x="500" 
d="M529 794q0 -31 -24.5 -55t-55.5 -24q-27 0 -45 18t-18 45q0 31 24.5 55t55.5 24q27 0 45 -18t18 -45zM355 794q0 -31 -24 -55t-56 -24q-27 0 -45 18t-18 45q0 31 24.5 55t55.5 24q27 0 45 -18t18 -45zM217 -12q-94 0 -143 62t-49 161q0 65 17 141t50.5 151t93.5 125
t135 50q95 0 143.5 -63t48.5 -162q0 -51 -10 -110t-33.5 -122.5t-56.5 -115t-84 -84.5t-112 -33zM224 122q29 0 55.5 38.5t43.5 93.5t26.5 110t9.5 92q0 88 -46 88q-29 0 -55.5 -39t-43 -94t-26 -110.5t-9.5 -92.5q0 -86 45 -86z" />
    <glyph glyph-name="multiply" unicode="&#xd7;" horiz-adv-x="385" 
d="M279 181l-74 94l-122 -100l-51 65l123 100l-74 94l65 53l74 -94l122 100l51 -65l-122 -100l73 -94z" />
    <glyph glyph-name="Oslash" unicode="&#xd8;" horiz-adv-x="500" 
d="M217 -12q-77 0 -126 44l-23 -32h-85l66 90q-24 51 -24 121q0 65 17 141t50.5 151t93.5 125t135 50q78 0 127 -46l25 35h84l-68 -93q24 -52 24 -121q0 -51 -10 -110t-33.5 -122.5t-56.5 -115t-84 -84.5t-112 -33zM313 544q-46 0 -80.5 -85t-48.5 -185l170 231
q-11 39 -41 39zM224 122q31 0 59.5 45t45 103t24.5 119l-169 -230q11 -37 40 -37z" />
    <glyph glyph-name="Ugrave" unicode="&#xd9;" horiz-adv-x="508" 
d="M432 728h-84l-77 144h114zM222 -12q-80 0 -134 49.5t-54 130.5q0 19 5 41l101 458h151l-104 -472q-3 -18 -3 -25q0 -23 14 -36.5t36 -13.5q48 0 65 75l104 472h151l-102 -463q-24 -109 -85.5 -162.5t-144.5 -53.5z" />
    <glyph glyph-name="Uacute" unicode="&#xda;" horiz-adv-x="508" 
d="M517 872l-141 -144h-86l111 144h116zM222 -12q-80 0 -134 49.5t-54 130.5q0 19 5 41l101 458h151l-104 -472q-3 -18 -3 -25q0 -23 14 -36.5t36 -13.5q48 0 65 75l104 472h151l-102 -463q-24 -109 -85.5 -162.5t-144.5 -53.5z" />
    <glyph glyph-name="Ucircumflex" unicode="&#xdb;" horiz-adv-x="508" 
d="M485 728h-71l-32 86l-67 -86h-75l93 144h120zM222 -12q-80 0 -134 49.5t-54 130.5q0 19 5 41l101 458h151l-104 -472q-3 -18 -3 -25q0 -23 14 -36.5t36 -13.5q48 0 65 75l104 472h151l-102 -463q-24 -109 -85.5 -162.5t-144.5 -53.5z" />
    <glyph glyph-name="Udieresis" unicode="&#xdc;" horiz-adv-x="508" 
d="M532 794q0 -31 -24.5 -55t-55.5 -24q-27 0 -45 18t-18 45q0 31 24.5 55t55.5 24q27 0 45 -18t18 -45zM358 794q0 -31 -24 -55t-56 -24q-27 0 -45 18t-18 45q0 31 24.5 55t55.5 24q27 0 45 -18t18 -45zM222 -12q-80 0 -134 49.5t-54 130.5q0 19 5 41l101 458h151
l-104 -472q-3 -18 -3 -25q0 -23 14 -36.5t36 -13.5q48 0 65 75l104 472h151l-102 -463q-24 -109 -85.5 -162.5t-144.5 -53.5z" />
    <glyph glyph-name="Yacute" unicode="&#xdd;" horiz-adv-x="459" 
d="M494 872l-141 -144h-86l111 144h116zM251 0h-151l60 272l-73 395h154l20 -251l131 251h166l-247 -395z" />
    <glyph glyph-name="Thorn" unicode="&#xde;" horiz-adv-x="469" 
d="M144 0h-151l147 667h151l-23 -106h34q76 0 124.5 -49.5t48.5 -128.5q0 -47 -15 -91t-44.5 -81.5t-80 -60t-114.5 -22.5h-49zM232 260q38 0 62 32t24 76q0 29 -14 45t-37 16h-29l-37 -169h31z" />
    <glyph glyph-name="germandbls" unicode="&#xdf;" horiz-adv-x="549" 
d="M518 163q0 -66 -49.5 -120.5t-128.5 -54.5q-112 0 -166 70l65 88q37 -50 84 -50q19 0 33.5 13t14.5 32q0 14 -13 27t-31.5 25t-37 27t-31.5 38.5t-13 53.5q0 36 13.5 63t33 43t39 29t33 28.5t13.5 34.5q0 21 -17.5 34t-46.5 13q-64 0 -83 -82l-104 -475h-136l105 475
q20 90 78.5 146t150.5 56q80 0 137 -43.5t57 -108.5q0 -34 -14 -61t-34 -43.5t-40 -30t-34 -27t-14 -27.5q0 -13 14 -25t34 -23.5t40 -26t34 -40t14 -58.5z" />
    <glyph glyph-name="agrave" unicode="&#xe0;" horiz-adv-x="442" 
d="M208 495q78 0 99 -70l13 58h135l-107 -483h-135l12 55q-44 -67 -103 -67q-112 0 -112 160q0 51 12.5 109t36 112t62.5 90t87 36zM241 375q-42 0 -66.5 -73t-24.5 -135q0 -59 43 -59q30 0 54 44l39 178q-4 21 -16 33t-29 12zM338 556h-84l-77 144h114z" />
    <glyph glyph-name="aacute" unicode="&#xe1;" horiz-adv-x="442" 
d="M208 495q78 0 99 -70l13 58h135l-107 -483h-135l12 55q-44 -67 -103 -67q-112 0 -112 160q0 51 12.5 109t36 112t62.5 90t87 36zM241 375q-42 0 -66.5 -73t-24.5 -135q0 -59 43 -59q30 0 54 44l39 178q-4 21 -16 33t-29 12zM426 700l-141 -144h-86l111 144h116z" />
    <glyph glyph-name="acircumflex" unicode="&#xe2;" horiz-adv-x="442" 
d="M208 495q78 0 99 -70l13 58h135l-107 -483h-135l12 55q-44 -67 -103 -67q-112 0 -112 160q0 51 12.5 109t36 112t62.5 90t87 36zM241 375q-42 0 -66.5 -73t-24.5 -135q0 -59 43 -59q30 0 54 44l39 178q-4 21 -16 33t-29 12zM391 556h-71l-32 86l-67 -86h-75l93 144h120z
" />
    <glyph glyph-name="atilde" unicode="&#xe3;" horiz-adv-x="442" 
d="M208 495q78 0 99 -70l13 58h135l-107 -483h-135l12 55q-44 -67 -103 -67q-112 0 -112 160q0 51 12.5 109t36 112t62.5 90t87 36zM241 375q-42 0 -66.5 -73t-24.5 -135q0 -59 43 -59q30 0 54 44l39 178q-4 21 -16 33t-29 12zM321 554q-20 0 -32.5 10t-17 22t-12 22
t-19.5 10q-24 0 -36 -58h-70q29 134 111 134q20 0 33 -10t17 -22t12 -22t20 -10q23 0 36 58h70q-29 -134 -112 -134z" />
    <glyph glyph-name="adieresis" unicode="&#xe4;" horiz-adv-x="442" 
d="M208 495q78 0 99 -70l13 58h135l-107 -483h-135l12 55q-44 -67 -103 -67q-112 0 -112 160q0 51 12.5 109t36 112t62.5 90t87 36zM241 375q-42 0 -66.5 -73t-24.5 -135q0 -59 43 -59q30 0 54 44l39 178q-4 21 -16 33t-29 12zM439 620q0 -31 -24.5 -55t-55.5 -24
q-27 0 -45 18t-18 45q0 31 24.5 55t55.5 24q27 0 45 -18t18 -45zM265 620q0 -31 -24 -55t-56 -24q-27 0 -45 18t-18 45q0 31 24.5 55t55.5 24q27 0 45 -18t18 -45z" />
    <glyph glyph-name="aring" unicode="&#xe5;" horiz-adv-x="442" 
d="M208 495q78 0 99 -70l13 58h135l-107 -483h-135l12 55q-44 -67 -103 -67q-112 0 -112 160q0 51 12.5 109t36 112t62.5 90t87 36zM241 375q-42 0 -66.5 -73t-24.5 -135q0 -59 43 -59q30 0 54 44l39 178q-4 21 -16 33t-29 12zM270 539q-36 0 -58.5 23t-22.5 59
q0 41 30.5 72t71.5 31q36 0 59 -23t23 -59q0 -42 -31 -72.5t-72 -30.5zM278 596q16 0 27.5 12t11.5 28q0 14 -8.5 23t-22.5 9q-16 0 -28 -12t-12 -28q0 -14 9 -23t23 -9z" />
    <glyph glyph-name="ae" unicode="&#xe6;" horiz-adv-x="674" 
d="M475 -12q-87 0 -112 79l-15 -67h-135l13 55q-46 -67 -104 -67q-112 0 -112 160q0 51 12.5 109t36 112t62.5 90t87 36q78 0 99 -70l13 58h135l-10 -45q50 57 102 57q115 0 115 -161q0 -68 -20 -137h-249q-3 -15 -3 -28q0 -27 20.5 -48t62.5 -21q40 0 81 36l43 -94
q-53 -54 -122 -54zM241 375q-42 0 -66.5 -73t-24.5 -135q0 -59 44 -59q31 0 53 44l39 178q-3 21 -15.5 33t-29.5 12zM536 291q5 20 5 37q0 26 -13.5 42t-36.5 16q-33 0 -53 -29t-26 -66h124z" />
    <glyph glyph-name="ccedilla" unicode="&#xe7;" horiz-adv-x="358" 
d="M137 -196q-60 0 -97 40l33 48q27 -32 63 -32q18 0 28.5 10t10.5 25q0 20 -21 20q-14 0 -22 -13l-42 28l39 66q-116 33 -116 180q0 77 28 149t84 121t127 49q87 0 134 -50l-62 -101q-20 31 -60 31q-48 0 -80 -58.5t-32 -125.5q0 -41 19 -62t52 -21t57 24l19 -107
q-45 -37 -110 -37h-1l-24 -39q11 10 23 10q23 0 38 -16.5t15 -44.5q0 -40 -29.5 -67t-73.5 -27z" />
    <glyph glyph-name="egrave" unicode="&#xe8;" horiz-adv-x="420" 
d="M191 -12q-84 0 -131 50t-47 140q0 69 25.5 139.5t81.5 124t128 53.5q81 0 120.5 -46t39.5 -126q0 -53 -19 -126h-250q-3 -15 -3 -29q0 -27 19 -49t63 -22q42 0 81 37l44 -85q-63 -61 -152 -61zM281 291h2q4 16 4 36q0 27 -14 43t-36 16q-33 0 -53 -29t-26 -66h123z
M356 556h-84l-77 144h114z" />
    <glyph glyph-name="eacute" unicode="&#xe9;" horiz-adv-x="420" 
d="M191 -12q-84 0 -131 50t-47 140q0 69 25.5 139.5t81.5 124t128 53.5q81 0 120.5 -46t39.5 -126q0 -53 -19 -126h-250q-3 -15 -3 -29q0 -27 19 -49t63 -22q42 0 81 37l44 -85q-63 -61 -152 -61zM281 291h2q4 16 4 36q0 27 -14 43t-36 16q-33 0 -53 -29t-26 -66h123z
M444 700l-141 -144h-86l111 144h116z" />
    <glyph glyph-name="ecircumflex" unicode="&#xea;" horiz-adv-x="420" 
d="M191 -12q-84 0 -131 50t-47 140q0 69 25.5 139.5t81.5 124t128 53.5q81 0 120.5 -46t39.5 -126q0 -53 -19 -126h-250q-3 -15 -3 -29q0 -27 19 -49t63 -22q42 0 81 37l44 -85q-63 -61 -152 -61zM281 291h2q4 16 4 36q0 27 -14 43t-36 16q-33 0 -53 -29t-26 -66h123z
M405 556h-71l-32 86l-67 -86h-75l93 144h120z" />
    <glyph glyph-name="edieresis" unicode="&#xeb;" horiz-adv-x="420" 
d="M191 -12q-84 0 -131 50t-47 140q0 69 25.5 139.5t81.5 124t128 53.5q81 0 120.5 -46t39.5 -126q0 -53 -19 -126h-250q-3 -15 -3 -29q0 -27 19 -49t63 -22q42 0 81 37l44 -85q-63 -61 -152 -61zM281 291h2q4 16 4 36q0 27 -14 43t-36 16q-33 0 -53 -29t-26 -66h123z
M453 620q0 -31 -24.5 -55t-55.5 -24q-27 0 -45 18t-18 45q0 31 24.5 55t55.5 24q27 0 45 -18t18 -45zM279 620q0 -31 -24 -55t-56 -24q-27 0 -45 18t-18 45q0 31 24.5 55t55.5 24q27 0 45 -18t18 -45z" />
    <glyph glyph-name="igrave" unicode="&#xec;" horiz-adv-x="216" 
d="M247 556h-84l-77 144h114zM122 0h-136l107 483h136z" />
    <glyph glyph-name="iacute" unicode="&#xed;" horiz-adv-x="216" 
d="M332 700l-141 -144h-86l111 144h116zM122 0h-136l107 483h136z" />
    <glyph glyph-name="icircumflex" unicode="&#xee;" horiz-adv-x="216" 
d="M301 556h-71l-32 86l-67 -86h-75l93 144h120zM122 0h-136l107 483h136z" />
    <glyph glyph-name="idieresis" unicode="&#xef;" horiz-adv-x="216" 
d="M348 620q0 -31 -24.5 -55t-55.5 -24q-27 0 -45 18t-18 45q0 31 24.5 55t55.5 24q27 0 45 -18t18 -45zM174 620q0 -31 -24 -55t-56 -24q-27 0 -45 18t-18 45q0 31 24.5 55t55.5 24q27 0 45 -18t18 -45zM122 0h-136l107 483h136z" />
    <glyph glyph-name="eth" unicode="&#xf0;" horiz-adv-x="434" 
d="M199 492l-14 63l102 30q-9 48 -23 83l132 40q16 -48 24 -84l65 20l14 -62l-68 -20q8 -55 8 -126q0 -75 -13.5 -149.5t-41.5 -143.5t-79 -112t-117 -43q-87 0 -132 48.5t-45 129.5q0 64 22.5 129.5t70 114t106.5 48.5q40 0 64.5 -23.5t30.5 -59.5q0 69 -9 146zM191 108
q26 0 46 30t29.5 67.5t9.5 70.5q0 62 -45 62q-37 0 -60 -58.5t-23 -109.5q0 -62 43 -62z" />
    <glyph glyph-name="ntilde" unicode="&#xf1;" horiz-adv-x="441" 
d="M346 0h-135l73 330q3 9 3 17q0 28 -27 28q-34 0 -68 -55l-70 -320h-136l107 483h136l-14 -59q22 30 55.5 50.5t68.5 20.5q44 0 69.5 -23.5t25.5 -61.5q0 -12 -3 -27zM343 554q-20 0 -32.5 10t-17 22t-12 22t-19.5 10q-24 0 -36 -58h-70q29 134 111 134q20 0 33 -10
t17 -22t12 -22t20 -10q23 0 36 58h70q-29 -134 -112 -134z" />
    <glyph glyph-name="ograve" unicode="&#xf2;" horiz-adv-x="434" 
d="M185 -12q-84 0 -128 50t-44 137q0 73 26 144.5t82 123.5t127 52q83 0 127.5 -50t44.5 -137q0 -73 -26 -144.5t-82 -123.5t-127 -52zM192 108q40 0 65.5 73.5t25.5 129.5q0 64 -43 64q-28 0 -50 -40.5t-31.5 -85.5t-9.5 -78q0 -63 43 -63zM356 556h-84l-77 144h114z" />
    <glyph glyph-name="oacute" unicode="&#xf3;" horiz-adv-x="434" 
d="M185 -12q-84 0 -128 50t-44 137q0 73 26 144.5t82 123.5t127 52q83 0 127.5 -50t44.5 -137q0 -73 -26 -144.5t-82 -123.5t-127 -52zM192 108q40 0 65.5 73.5t25.5 129.5q0 64 -43 64q-28 0 -50 -40.5t-31.5 -85.5t-9.5 -78q0 -63 43 -63zM442 700l-141 -144h-86l111 144
h116z" />
    <glyph glyph-name="ocircumflex" unicode="&#xf4;" horiz-adv-x="434" 
d="M185 -12q-84 0 -128 50t-44 137q0 73 26 144.5t82 123.5t127 52q83 0 127.5 -50t44.5 -137q0 -73 -26 -144.5t-82 -123.5t-127 -52zM192 108q40 0 65.5 73.5t25.5 129.5q0 64 -43 64q-28 0 -50 -40.5t-31.5 -85.5t-9.5 -78q0 -63 43 -63zM409 556h-71l-32 86l-67 -86h-75
l93 144h120z" />
    <glyph glyph-name="otilde" unicode="&#xf5;" horiz-adv-x="434" 
d="M185 -12q-84 0 -128 50t-44 137q0 73 26 144.5t82 123.5t127 52q83 0 127.5 -50t44.5 -137q0 -73 -26 -144.5t-82 -123.5t-127 -52zM192 108q40 0 65.5 73.5t25.5 129.5q0 64 -43 64q-28 0 -50 -40.5t-31.5 -85.5t-9.5 -78q0 -63 43 -63zM339 554q-20 0 -32.5 10t-17 22
t-12 22t-19.5 10q-24 0 -36 -58h-70q29 134 111 134q20 0 33 -10t17 -22t12 -22t20 -10q23 0 36 58h70q-29 -134 -112 -134z" />
    <glyph glyph-name="odieresis" unicode="&#xf6;" horiz-adv-x="434" 
d="M185 -12q-84 0 -128 50t-44 137q0 73 26 144.5t82 123.5t127 52q83 0 127.5 -50t44.5 -137q0 -73 -26 -144.5t-82 -123.5t-127 -52zM192 108q40 0 65.5 73.5t25.5 129.5q0 64 -43 64q-28 0 -50 -40.5t-31.5 -85.5t-9.5 -78q0 -63 43 -63zM457 620q0 -31 -24.5 -55
t-55.5 -24q-27 0 -45 18t-18 45q0 31 24.5 55t55.5 24q27 0 45 -18t18 -45zM283 620q0 -31 -24 -55t-56 -24q-27 0 -45 18t-18 45q0 31 24.5 55t55.5 24q27 0 45 -18t18 -45z" />
    <glyph glyph-name="divide" unicode="&#xf7;" horiz-adv-x="374" 
d="M356 296h-316l19 83h316zM169 127q-24 0 -40.5 17t-16.5 41q0 28 20.5 48t48.5 20q23 0 40 -17t17 -41q0 -28 -20.5 -48t-48.5 -20zM234 420q-24 0 -40.5 16.5t-16.5 40.5q0 29 20.5 49t48.5 20q24 0 40.5 -17t16.5 -41q0 -28 -20.5 -48t-48.5 -20z" />
    <glyph glyph-name="oslash" unicode="&#xf8;" horiz-adv-x="434" 
d="M48 0h-76l62 72q-21 42 -21 103q0 73 26 144.5t82 123.5t127 52t115 -38l23 26h75l-62 -73q21 -42 21 -102q0 -73 -26 -144.5t-82 -123.5t-127 -52q-73 0 -116 37zM240 375q-23 0 -42.5 -28.5t-30 -63.5t-15.5 -73l123 144q-10 21 -35 21zM192 108q33 0 56 50.5t32 112.5
l-123 -144q9 -19 35 -19z" />
    <glyph glyph-name="ugrave" unicode="&#xf9;" horiz-adv-x="441" 
d="M93 483h136l-73 -330q-3 -9 -3 -17q0 -28 27 -28q34 0 67 53l71 322h135l-107 -483h-135l14 59q-22 -30 -55.5 -50.5t-68.5 -20.5q-44 0 -69.5 23.5t-25.5 61.5q0 12 3 27zM359 556h-84l-77 144h114z" />
    <glyph glyph-name="uacute" unicode="&#xfa;" horiz-adv-x="441" 
d="M93 483h136l-73 -330q-3 -9 -3 -17q0 -28 27 -28q34 0 67 53l71 322h135l-107 -483h-135l14 59q-22 -30 -55.5 -50.5t-68.5 -20.5q-44 0 -69.5 23.5t-25.5 61.5q0 12 3 27zM446 700l-141 -144h-86l111 144h116z" />
    <glyph glyph-name="ucircumflex" unicode="&#xfb;" horiz-adv-x="441" 
d="M93 483h136l-73 -330q-3 -9 -3 -17q0 -28 27 -28q34 0 67 53l71 322h135l-107 -483h-135l14 59q-22 -30 -55.5 -50.5t-68.5 -20.5q-44 0 -69.5 23.5t-25.5 61.5q0 12 3 27zM413 556h-71l-32 86l-67 -86h-75l93 144h120z" />
    <glyph glyph-name="udieresis" unicode="&#xfc;" horiz-adv-x="441" 
d="M93 483h136l-73 -330q-3 -9 -3 -17q0 -28 27 -28q34 0 67 53l71 322h135l-107 -483h-135l14 59q-22 -30 -55.5 -50.5t-68.5 -20.5q-44 0 -69.5 23.5t-25.5 61.5q0 12 3 27zM461 620q0 -31 -24.5 -55t-55.5 -24q-27 0 -45 18t-18 45q0 31 24.5 55t55.5 24q27 0 45 -18
t18 -45zM287 620q0 -31 -24 -55t-56 -24q-27 0 -45 18t-18 45q0 31 24.5 55t55.5 24q27 0 45 -18t18 -45z" />
    <glyph glyph-name="yacute" unicode="&#xfd;" horiz-adv-x="408" 
d="M-50 -182l43 111q7 -5 23 -5q23 0 39 28l22 43l-26 488h139l-7 -312l133 312h147l-279 -558q-36 -70 -70 -95.5t-85 -25.5q-49 0 -79 14zM428 700l-141 -144h-86l111 144h116z" />
    <glyph glyph-name="thorn" unicode="&#xfe;" horiz-adv-x="442" 
d="M233 -12q-76 0 -99 70l-53 -242h-135l187 851h136l-53 -239q46 67 103 67q112 0 112 -160q0 -51 -12.5 -109t-35.5 -112t-62.5 -90t-87.5 -36zM200 108q22 0 41 23.5t29.5 58t16 68t5.5 58.5q0 59 -44 59q-30 0 -54 -44l-39 -178q4 -21 16 -33t29 -12z" />
    <glyph glyph-name="ydieresis" unicode="&#xff;" horiz-adv-x="408" 
d="M-50 -182l43 111q7 -5 23 -5q23 0 39 28l22 43l-26 488h139l-7 -312l133 312h147l-279 -558q-36 -70 -70 -95.5t-85 -25.5q-49 0 -79 14zM443 620q0 -31 -24.5 -55t-55.5 -24q-27 0 -45 18t-18 45q0 31 24.5 55t55.5 24q27 0 45 -18t18 -45zM269 620q0 -31 -24 -55
t-56 -24q-27 0 -45 18t-18 45q0 31 24.5 55t55.5 24q27 0 45 -18t18 -45z" />
    <glyph glyph-name="Amacron" unicode="&#x100;" horiz-adv-x="454" 
d="M402 0h-151l7 108h-116l-40 -108h-159l290 667h174zM270 241l17 260l-98 -260h81zM468 746h-262l17 76h262z" />
    <glyph glyph-name="amacron" unicode="&#x101;" horiz-adv-x="442" 
d="M208 495q78 0 99 -70l13 58h135l-107 -483h-135l12 55q-44 -67 -103 -67q-112 0 -112 160q0 51 12.5 109t36 112t62.5 90t87 36zM241 375q-42 0 -66.5 -73t-24.5 -135q0 -59 43 -59q30 0 54 44l39 178q-4 21 -16 33t-29 12zM403 574h-262l17 76h262z" />
    <glyph glyph-name="Abreve" unicode="&#x102;" horiz-adv-x="454" 
d="M402 0h-151l7 108h-116l-40 -108h-159l290 667h174zM270 241l17 260l-98 -260h81zM471 778q-59 -64 -140 -64q-79 0 -113 64l68 46q16 -34 58 -34q43 0 72 34z" />
    <glyph glyph-name="abreve" unicode="&#x103;" horiz-adv-x="442" 
d="M208 495q78 0 99 -70l13 58h135l-107 -483h-135l12 55q-44 -67 -103 -67q-112 0 -112 160q0 51 12.5 109t36 112t62.5 90t87 36zM241 375q-42 0 -66.5 -73t-24.5 -135q0 -59 43 -59q30 0 54 44l39 178q-4 21 -16 33t-29 12zM407 619q-59 -64 -140 -64q-79 0 -113 64
l68 46q16 -34 58 -34q43 0 72 34z" />
    <glyph glyph-name="Aogonek" unicode="&#x104;" horiz-adv-x="454" 
d="M370 -105l47 -33q-31 -48 -79 -48q-36 0 -57.5 17t-21.5 51q0 62 61 118h-69l7 108h-116l-40 -108h-159l290 667h174l-5 -667q-78 -50 -78 -111q0 -19 18 -19q19 0 28 25zM270 241l17 260l-98 -260h81z" />
    <glyph glyph-name="aogonek" unicode="&#x105;" horiz-adv-x="442" 
d="M316 -105l47 -33q-31 -48 -79 -48q-36 0 -57.5 17t-21.5 51q0 62 61 118h-53l12 55q-44 -67 -103 -67q-112 0 -112 160q0 51 12.5 109t36 112t62.5 90t87 36q78 0 99 -70l13 58h135l-107 -483q-78 -50 -78 -111q0 -19 18 -19q19 0 28 25zM241 375q-42 0 -66.5 -73
t-24.5 -135q0 -59 43 -59q30 0 54 44l39 178q-4 21 -16 33t-29 12z" />
    <glyph glyph-name="Cacute" unicode="&#x106;" horiz-adv-x="448" 
d="M217 -12q-92 0 -142 59.5t-50 163.5q0 65 17 140.5t50 151t93 125.5t136 50q48 0 83.5 -18.5t55.5 -49.5t29.5 -66t10.5 -75l-140 -27q-4 102 -47 102q-39 0 -71.5 -66t-47.5 -142t-15 -128q0 -86 45 -86q42 0 79 80l121 -50q-74 -164 -207 -164zM514 872l-141 -144h-86
l111 144h116z" />
    <glyph glyph-name="cacute" unicode="&#x107;" horiz-adv-x="358" 
d="M189 -12q-82 0 -129 49t-47 139q0 77 28 149t84 121t127 49q87 0 134 -50l-62 -101q-20 31 -60 31q-48 0 -80 -58.5t-32 -125.5q0 -41 19 -62t52 -21t57 24l19 -107q-45 -37 -110 -37zM445 700l-141 -144h-86l111 144h116z" />
    <glyph glyph-name="Ccircumflex" unicode="&#x108;" horiz-adv-x="448" 
d="M217 -12q-92 0 -142 59.5t-50 163.5q0 65 17 140.5t50 151t93 125.5t136 50q48 0 83.5 -18.5t55.5 -49.5t29.5 -66t10.5 -75l-140 -27q-4 102 -47 102q-39 0 -71.5 -66t-47.5 -142t-15 -128q0 -86 45 -86q42 0 79 80l121 -50q-74 -164 -207 -164zM481 728h-71l-32 86
l-67 -86h-75l93 144h120z" />
    <glyph glyph-name="ccircumflex" unicode="&#x109;" horiz-adv-x="358" 
d="M189 -12q-82 0 -129 49t-47 139q0 77 28 149t84 121t127 49q87 0 134 -50l-62 -101q-20 31 -60 31q-48 0 -80 -58.5t-32 -125.5q0 -41 19 -62t52 -21t57 24l19 -107q-45 -37 -110 -37zM412 556h-71l-32 86l-67 -86h-75l93 144h120z" />
    <glyph glyph-name="Cdotaccent" unicode="&#x10a;" horiz-adv-x="448" 
d="M217 -12q-92 0 -142 59.5t-50 163.5q0 65 17 140.5t50 151t93 125.5t136 50q48 0 83.5 -18.5t55.5 -49.5t29.5 -66t10.5 -75l-140 -27q-4 102 -47 102q-39 0 -71.5 -66t-47.5 -142t-15 -128q0 -86 45 -86q42 0 79 80l121 -50q-74 -164 -207 -164zM442 793
q0 -31 -24.5 -55t-56.5 -24q-27 0 -45 18t-18 45q0 31 24.5 55t56.5 24q27 0 45 -18t18 -45z" />
    <glyph glyph-name="cdotaccent" unicode="&#x10b;" horiz-adv-x="358" 
d="M189 -12q-82 0 -129 49t-47 139q0 77 28 149t84 121t127 49q87 0 134 -50l-62 -101q-20 31 -60 31q-48 0 -80 -58.5t-32 -125.5q0 -41 19 -62t52 -21t57 24l19 -107q-45 -37 -110 -37zM375 627q0 -31 -24.5 -55t-56.5 -24q-27 0 -45 18t-18 45q0 31 24.5 55t56.5 24
q27 0 45 -18t18 -45z" />
    <glyph glyph-name="Ccaron" unicode="&#x10c;" horiz-adv-x="448" 
d="M217 -12q-92 0 -142 59.5t-50 163.5q0 65 17 140.5t50 151t93 125.5t136 50q48 0 83.5 -18.5t55.5 -49.5t29.5 -66t10.5 -75l-140 -27q-4 102 -47 102q-39 0 -71.5 -66t-47.5 -142t-15 -128q0 -86 45 -86q42 0 79 80l121 -50q-74 -164 -207 -164zM420 728h-120l-32 144
h71l32 -86l67 86h75z" />
    <glyph glyph-name="ccaron" unicode="&#x10d;" horiz-adv-x="358" 
d="M189 -12q-82 0 -129 49t-47 139q0 77 28 149t84 121t127 49q87 0 134 -50l-62 -101q-20 31 -60 31q-48 0 -80 -58.5t-32 -125.5q0 -41 19 -62t52 -21t57 24l19 -107q-45 -37 -110 -37zM351 556h-120l-32 144h71l32 -86l67 86h75z" />
    <glyph glyph-name="Dcaron" unicode="&#x10e;" horiz-adv-x="500" 
d="M179 0h-186l147 667h181q76 0 130.5 -60t54.5 -166q0 -39 -7 -83.5t-21 -95t-40.5 -96.5t-61 -83.5t-85.5 -60t-112 -22.5zM262 535l-89 -403h33q37 0 67 36t46 88t24.5 100.5t8.5 82.5q0 48 -16.5 72t-42.5 24h-31zM416 728h-120l-32 144h71l32 -86l67 86h75z" />
    <glyph glyph-name="dcaron" unicode="&#x10f;" horiz-adv-x="570" 
d="M208 495q78 0 99 -70l54 242h134l-147 -667h-135l12 55q-44 -67 -103 -67q-112 0 -112 160q0 51 12.5 109t36 112t62.5 90t87 36zM241 375q-42 0 -66.5 -73t-24.5 -135q0 -59 43 -59q30 0 54 44l39 178q-4 21 -16 33t-29 12zM654 613q0 -46 -34 -92t-86 -71l-37 38
q25 12 48 30.5t33 38.5h-9q-21 0 -35.5 14t-14.5 39q0 28 22 49t50 21q26 0 44.5 -18t18.5 -49z" />
    <glyph glyph-name="Dcroat" unicode="&#x110;" horiz-adv-x="524" 
d="M203 0h-186l60 273h-57l26 121h57l61 273h181q76 0 130.5 -60t54.5 -166q0 -39 -7 -83.5t-21 -95t-40.5 -96.5t-61 -83.5t-85.5 -60t-112 -22.5zM291 273h-63l-31 -141h33q37 0 67 36t46 88t24.5 100.5t8.5 82.5q0 48 -16.5 72t-42.5 24h-31l-31 -141h63z" />
    <glyph glyph-name="dcroat" unicode="&#x111;" horiz-adv-x="452" 
d="M208 495q78 0 99 -70l23 102h-112l19 76h110l14 64h134l-14 -64h43l-18 -76h-42l-116 -527h-135l12 55q-44 -67 -103 -67q-112 0 -112 160q0 51 12.5 109t36 112t62.5 90t87 36zM241 375q-42 0 -66.5 -73t-24.5 -135q0 -59 43 -59q30 0 54 44l39 178q-4 21 -16 33t-29 12
z" />
    <glyph glyph-name="Emacron" unicode="&#x112;" horiz-adv-x="392" 
d="M307 0h-314l147 667h314l-30 -132h-162l-29 -130h156l-29 -132h-156l-31 -141h163zM445 746h-262l17 76h262z" />
    <glyph glyph-name="emacron" unicode="&#x113;" horiz-adv-x="420" 
d="M191 -12q-84 0 -131 50t-47 140q0 69 25.5 139.5t81.5 124t128 53.5q81 0 120.5 -46t39.5 -126q0 -53 -19 -126h-250q-3 -15 -3 -29q0 -27 19 -49t63 -22q42 0 81 37l44 -85q-63 -61 -152 -61zM281 291h2q4 16 4 36q0 27 -14 43t-36 16q-33 0 -53 -29t-26 -66h123z
M414 574h-262l17 76h262z" />
    <glyph glyph-name="Ebreve" unicode="&#x114;" horiz-adv-x="392" 
d="M307 0h-314l147 667h314l-30 -132h-162l-29 -130h156l-29 -132h-156l-31 -141h163zM448 778q-59 -64 -140 -64q-79 0 -113 64l68 46q16 -34 58 -34q43 0 72 34z" />
    <glyph glyph-name="ebreve" unicode="&#x115;" horiz-adv-x="420" 
d="M191 -12q-84 0 -131 50t-47 140q0 69 25.5 139.5t81.5 124t128 53.5q81 0 120.5 -46t39.5 -126q0 -53 -19 -126h-250q-3 -15 -3 -29q0 -27 19 -49t63 -22q42 0 81 37l44 -85q-63 -61 -152 -61zM281 291h2q4 16 4 36q0 27 -14 43t-36 16q-33 0 -53 -29t-26 -66h123z
M427 619q-59 -64 -140 -64q-79 0 -113 64l68 46q16 -34 58 -34q43 0 72 34z" />
    <glyph glyph-name="Edotaccent" unicode="&#x116;" horiz-adv-x="392" 
d="M307 0h-314l147 667h314l-30 -132h-162l-29 -130h156l-29 -132h-156l-31 -141h163zM400 793q0 -31 -24.5 -55t-56.5 -24q-27 0 -45 18t-18 45q0 31 24.5 55t56.5 24q27 0 45 -18t18 -45z" />
    <glyph glyph-name="edotaccent" unicode="&#x117;" horiz-adv-x="420" 
d="M191 -12q-84 0 -131 50t-47 140q0 69 25.5 139.5t81.5 124t128 53.5q81 0 120.5 -46t39.5 -126q0 -53 -19 -126h-250q-3 -15 -3 -29q0 -27 19 -49t63 -22q42 0 81 37l44 -85q-63 -61 -152 -61zM281 291h2q4 16 4 36q0 27 -14 43t-36 16q-33 0 -53 -29t-26 -66h123z
M371 627q0 -31 -24.5 -55t-56.5 -24q-27 0 -45 18t-18 45q0 31 24.5 55t56.5 24q27 0 45 -18t18 -45z" />
    <glyph glyph-name="Eogonek" unicode="&#x118;" horiz-adv-x="392" 
d="M275 -105l47 -33q-31 -48 -79 -48q-36 0 -57.5 17t-21.5 51q0 62 61 118h-232l147 667h314l-30 -132h-162l-29 -130h156l-29 -132h-156l-31 -141h163l-29 -132q-78 -50 -78 -111q0 -19 18 -19q19 0 28 25z" />
    <glyph glyph-name="eogonek" unicode="&#x119;" horiz-adv-x="420" 
d="M229 -105l47 -33q-31 -48 -79 -48q-36 0 -57.5 17t-21.5 51q0 57 49 107q-73 7 -113.5 56t-40.5 133q0 69 25.5 139.5t81.5 124t128 53.5q81 0 120.5 -46t39.5 -126q0 -53 -19 -126h-250q-3 -15 -3 -29q0 -27 19 -49t63 -22q42 0 81 37l44 -85q-35 -33 -82 -49
q-78 -50 -78 -111q0 -19 18 -19q19 0 28 25zM283 291q4 16 4 36q0 27 -14 43t-36 16q-33 0 -53 -29t-26 -66h125z" />
    <glyph glyph-name="Ecaron" unicode="&#x11a;" horiz-adv-x="392" 
d="M307 0h-314l147 667h314l-30 -132h-162l-29 -130h156l-29 -132h-156l-31 -141h163zM370 728h-120l-32 144h71l32 -86l67 86h75z" />
    <glyph glyph-name="ecaron" unicode="&#x11b;" horiz-adv-x="420" 
d="M191 -12q-84 0 -131 50t-47 140q0 69 25.5 139.5t81.5 124t128 53.5q81 0 120.5 -46t39.5 -126q0 -53 -19 -126h-250q-3 -15 -3 -29q0 -27 19 -49t63 -22q42 0 81 37l44 -85q-63 -61 -152 -61zM281 291h2q4 16 4 36q0 27 -14 43t-36 16q-33 0 -53 -29t-26 -66h123z
M347 556h-120l-32 144h71l32 -86l67 86h75z" />
    <glyph glyph-name="Gcircumflex" unicode="&#x11c;" horiz-adv-x="474" 
d="M217 -12q-94 0 -143 60t-49 163q0 55 10.5 116t34.5 124t57.5 113t84 82t109.5 32q87 0 128 -53t43 -136l-127 -31q-4 86 -52 86q-38 0 -70 -63.5t-48 -139.5t-16 -133q0 -46 11 -66t35 -20q31 0 62 38l17 81h-68l30 133h200l-59 -269q-77 -117 -190 -117zM443 728h-71
l-32 86l-67 -86h-75l93 144h120z" />
    <glyph glyph-name="gcircumflex" unicode="&#x11d;" horiz-adv-x="442" 
d="M130 -196q-113 0 -168 63l66 101q37 -48 97 -48q35 0 56.5 23.5t34.5 76.5l14 58q-40 -68 -103 -68q-115 0 -115 150q0 49 11 104t33 108.5t61.5 88t89.5 34.5q31 0 62 -18.5t38 -51.5l13 58h135l-104 -463q-27 -120 -83 -168t-138 -48zM196 130q32 0 55 45l34 155
q-5 19 -18 32t-28 13q-41 0 -64 -64.5t-23 -121.5q0 -59 44 -59zM414 547h-71l-32 86l-67 -86h-75l93 144h120z" />
    <glyph glyph-name="Gbreve" unicode="&#x11e;" horiz-adv-x="474" 
d="M217 -12q-94 0 -143 60t-49 163q0 55 10.5 116t34.5 124t57.5 113t84 82t109.5 32q87 0 128 -53t43 -136l-127 -31q-4 86 -52 86q-38 0 -70 -63.5t-48 -139.5t-16 -133q0 -46 11 -66t35 -20q31 0 62 38l17 81h-68l30 133h200l-59 -269q-77 -117 -190 -117zM497 778
q-59 -64 -140 -64q-79 0 -113 64l68 46q16 -34 58 -34q43 0 72 34z" />
    <glyph glyph-name="gbreve" unicode="&#x11f;" horiz-adv-x="442" 
d="M130 -196q-113 0 -168 63l66 101q37 -48 97 -48q35 0 56.5 23.5t34.5 76.5l14 58q-40 -68 -103 -68q-115 0 -115 150q0 49 11 104t33 108.5t61.5 88t89.5 34.5q31 0 62 -18.5t38 -51.5l13 58h135l-104 -463q-27 -120 -83 -168t-138 -48zM196 130q32 0 55 45l34 155
q-5 19 -18 32t-28 13q-41 0 -64 -64.5t-23 -121.5q0 -59 44 -59zM428 619q-59 -64 -140 -64q-79 0 -113 64l68 46q16 -34 58 -34q43 0 72 34z" />
    <glyph glyph-name="Gdotaccent" unicode="&#x120;" horiz-adv-x="474" 
d="M217 -12q-94 0 -143 60t-49 163q0 55 10.5 116t34.5 124t57.5 113t84 82t109.5 32q87 0 128 -53t43 -136l-127 -31q-4 86 -52 86q-38 0 -70 -63.5t-48 -139.5t-16 -133q0 -46 11 -66t35 -20q31 0 62 38l17 81h-68l30 133h200l-59 -269q-77 -117 -190 -117zM443 793
q0 -31 -24.5 -55t-56.5 -24q-27 0 -45 18t-18 45q0 31 24.5 55t56.5 24q27 0 45 -18t18 -45z" />
    <glyph glyph-name="gdotaccent" unicode="&#x121;" horiz-adv-x="442" 
d="M130 -196q-113 0 -168 63l66 101q37 -48 97 -48q35 0 56.5 23.5t34.5 76.5l14 58q-40 -68 -103 -68q-115 0 -115 150q0 49 11 104t33 108.5t61.5 88t89.5 34.5q31 0 62 -18.5t38 -51.5l13 58h135l-104 -463q-27 -120 -83 -168t-138 -48zM196 130q32 0 55 45l34 155
q-5 19 -18 32t-28 13q-41 0 -64 -64.5t-23 -121.5q0 -59 44 -59zM380 627q0 -31 -24.5 -55t-56.5 -24q-27 0 -45 18t-18 45q0 31 24.5 55t56.5 24q27 0 45 -18t18 -45z" />
    <glyph glyph-name="Gcommaaccent" unicode="&#x122;" horiz-adv-x="474" 
d="M217 -12q-94 0 -143 60t-49 163q0 55 10.5 116t34.5 124t57.5 113t84 82t109.5 32q87 0 128 -53t43 -136l-127 -31q-4 86 -52 86q-38 0 -70 -63.5t-48 -139.5t-16 -133q0 -46 11 -66t35 -20q31 0 62 38l17 81h-68l30 133h200l-59 -269q-77 -117 -190 -117zM228 -121
q0 -46 -34 -92t-86 -71l-37 38q25 12 48 30.5t33 38.5h-9q-21 0 -35.5 14t-14.5 39q0 28 22 49t50 21q26 0 44.5 -18t18.5 -49z" />
    <glyph glyph-name="gcommaaccent" unicode="&#x123;" horiz-adv-x="442" 
d="M231 622q0 47 34.5 93.5t86.5 71.5l37 -39q-24 -11 -47.5 -30t-33.5 -40h9q21 0 36 -14t15 -39q0 -29 -22.5 -50t-50.5 -21q-27 0 -45.5 18t-18.5 50zM130 -196q-113 0 -168 63l66 101q37 -48 97 -48q35 0 56.5 23.5t34.5 76.5l14 58q-40 -68 -103 -68q-115 0 -115 150
q0 49 11 104t33 108.5t61.5 88t89.5 34.5q31 0 62 -18.5t38 -51.5l13 58h135l-104 -463q-27 -120 -83 -168t-138 -48zM196 130q32 0 55 45l34 155q-5 19 -18 32t-28 13q-41 0 -64 -64.5t-23 -121.5q0 -59 44 -59z" />
    <glyph glyph-name="Hcircumflex" unicode="&#x124;" horiz-adv-x="508" 
d="M407 0h-151l61 277h-112l-61 -277h-151l147 667h151l-57 -258h112l57 258h151zM484 728h-71l-32 86l-67 -86h-75l93 144h120z" />
    <glyph glyph-name="hcircumflex" unicode="&#x125;" horiz-adv-x="441" 
d="M346 0h-135l73 330q3 6 3 17q0 28 -27 28q-34 0 -68 -55l-70 -320h-136l147 667h136l-54 -243q22 30 55.5 50.5t68.5 20.5q45 0 70 -23.5t25 -61.5q0 -14 -3 -27zM340 728h-71l-32 86l-67 -86h-75l93 144h120z" />
    <glyph glyph-name="Hbar" unicode="&#x126;" horiz-adv-x="533" 
d="M420 0h-151l61 277h-112l-61 -277h-151l110 501h-46l17 76h46l20 90h151l-20 -90h112l20 90h151l-20 -90h44l-16 -76h-45zM247 409h112l20 92h-112z" />
    <glyph glyph-name="hbar" unicode="&#x127;" horiz-adv-x="451" 
d="M356 0h-135l73 330q3 6 3 17q0 28 -27 28q-34 0 -68 -55l-70 -320h-136l116 527h-36l17 76h36l14 64h136l-14 -64h117l-17 -76h-117l-23 -103q22 30 55.5 50.5t68.5 20.5q45 0 70 -23.5t25 -61.5q0 -14 -3 -27z" />
    <glyph glyph-name="Itilde" unicode="&#x128;" horiz-adv-x="245" 
d="M144 0h-151l147 667h151zM284 726q-20 0 -32.5 10t-17 22t-12 22t-19.5 10q-24 0 -36 -58h-70q29 134 111 134q20 0 33 -10t17 -22t12 -22t20 -10q23 0 36 58h70q-29 -134 -112 -134z" />
    <glyph glyph-name="itilde" unicode="&#x129;" horiz-adv-x="216" 
d="M122 0h-136l107 483h136zM231 537q-20 0 -32.5 10t-17 22t-12 22t-19.5 10q-24 0 -36 -58h-70q29 134 111 134q20 0 33 -10t17 -22t12 -22t20 -10q23 0 36 58h70q-29 -134 -112 -134z" />
    <glyph glyph-name="Imacron" unicode="&#x12a;" horiz-adv-x="245" 
d="M144 0h-151l147 667h151zM364 746h-262l17 76h262z" />
    <glyph glyph-name="imacron" unicode="&#x12b;" horiz-adv-x="216" 
d="M122 0h-136l107 483h136zM312 574h-262l17 76h262z" />
    <glyph glyph-name="Ibreve" unicode="&#x12c;" horiz-adv-x="245" 
d="M144 0h-151l147 667h151zM368 778q-59 -64 -140 -64q-79 0 -113 64l68 46q16 -34 58 -34q43 0 72 34z" />
    <glyph glyph-name="ibreve" unicode="&#x12d;" horiz-adv-x="216" 
d="M122 0h-136l107 483h136zM321 619q-59 -64 -140 -64q-79 0 -113 64l68 46q16 -34 58 -34q43 0 72 34z" />
    <glyph glyph-name="Iogonek" unicode="&#x12e;" horiz-adv-x="245" 
d="M112 -105l47 -33q-31 -48 -79 -48q-36 0 -57.5 17t-21.5 51q0 62 61 118h-69l147 667h151l-147 -667q-78 -50 -78 -111q0 -19 18 -19q19 0 28 25z" />
    <glyph glyph-name="iogonek" unicode="&#x12f;" horiz-adv-x="216" 
d="M90 -105l47 -33q-31 -48 -79 -48q-36 0 -57.5 17t-21.5 51q0 62 61 118h-54l107 483h136l-107 -483q-78 -50 -78 -111q0 -19 18 -19q19 0 28 25zM179 532q-30 0 -51 20t-21 48q0 41 28.5 66t62.5 25q30 0 51 -20t21 -48q0 -41 -29 -66t-62 -25z" />
    <glyph glyph-name="Idotaccent" unicode="&#x130;" horiz-adv-x="245" 
d="M144 0h-151l147 667h151zM315 793q0 -31 -24.5 -55t-56.5 -24q-27 0 -45 18t-18 45q0 31 24.5 55t56.5 24q27 0 45 -18t18 -45z" />
    <glyph glyph-name="dotlessi" unicode="&#x131;" horiz-adv-x="216" 
d="M122 0h-136l107 483h136z" />
    <glyph glyph-name="IJ" unicode="&#x132;" horiz-adv-x="606" 
d="M144 0h-151l147 667h151zM337 -12q-85 0 -130 39l58 122q21 -27 58 -27q59 0 74 65l106 480h151l-107 -488q-23 -100 -72.5 -145.5t-137.5 -45.5z" />
    <glyph glyph-name="ij" unicode="&#x133;" horiz-adv-x="432" 
d="M179 532q-30 0 -51 20t-21 48q0 41 28.5 66t62.5 25q30 0 51 -20t21 -48q0 -41 -29 -66t-62 -25zM122 0h-136l107 483h136zM162 -196q-54 0 -79 25l48 101q6 -10 22 -10q31 0 43 53l113 510h136l-114 -510q-19 -87 -56.5 -128t-112.5 -41zM395 532q-30 0 -51 20t-21 48
q0 41 28.5 66t62.5 25q30 0 51 -20t21 -48q0 -41 -29 -66t-62 -25z" />
    <glyph glyph-name="Jcircumflex" unicode="&#x134;" horiz-adv-x="362" 
d="M92 -12q-85 0 -130 39l58 122q21 -27 58 -27q59 0 74 65l106 480h151l-107 -488q-23 -100 -72.5 -145.5t-137.5 -45.5zM471 728h-71l-32 86l-67 -86h-75l93 144h120z" />
    <glyph glyph-name="jcircumflex" unicode="&#x135;" horiz-adv-x="216" 
d="M-54 -196q-54 0 -79 25l49 105q6 -10 22 -10q31 0 42 49l113 510h136l-114 -510q-19 -87 -56.5 -128t-112.5 -41zM302 556h-71l-32 86l-67 -86h-75l93 144h120z" />
    <glyph glyph-name="Kcommaaccent" unicode="&#x136;" horiz-adv-x="497" 
d="M444 0h-158l-48 240l-61 -86l-33 -154h-151l147 667h151l-59 -270l175 270h173l-228 -313zM238 -121q0 -46 -34 -92t-86 -71l-37 38q25 12 48 30.5t33 38.5h-9q-21 0 -35.5 14t-14.5 39q0 28 22 49t50 21q26 0 44.5 -18t18.5 -49z" />
    <glyph glyph-name="kcommaaccent" unicode="&#x137;" horiz-adv-x="424" 
d="M370 0h-146l-23 182l-56 -75l-23 -107h-136l147 667h136l-84 -378l134 194h151l-159 -214zM202 -121q0 -46 -34 -92t-86 -71l-37 38q25 12 48 30.5t33 38.5h-9q-21 0 -35.5 14t-14.5 39q0 28 22 49t50 21q26 0 44.5 -18t18.5 -49z" />
    <glyph glyph-name="kgreenlandic" unicode="&#x138;" horiz-adv-x="424" 
d="M370 0h-146l-23 182l-56 -75l-23 -107h-136l107 483h136l-44 -194l134 194h151l-159 -214z" />
    <glyph glyph-name="Lacute" unicode="&#x139;" horiz-adv-x="380" 
d="M307 0h-314l147 667h151l-118 -535h163zM457 872l-141 -144h-86l111 144h116z" />
    <glyph glyph-name="lacute" unicode="&#x13a;" horiz-adv-x="216" 
d="M122 0h-136l147 667h136zM370 872l-141 -144h-86l111 144h116z" />
    <glyph glyph-name="Lcommaaccent" unicode="&#x13b;" horiz-adv-x="380" 
d="M307 0h-314l147 667h151l-118 -535h163zM179 -121q0 -46 -34 -92t-86 -71l-37 38q25 12 48 30.5t33 38.5h-9q-21 0 -35.5 14t-14.5 39q0 28 22 49t50 21q26 0 44.5 -18t18.5 -49z" />
    <glyph glyph-name="lcommaaccent" unicode="&#x13c;" horiz-adv-x="216" 
d="M122 0h-136l147 667h136zM98 -121q0 -46 -34 -92t-86 -71l-37 38q25 12 48 30.5t33 38.5h-9q-21 0 -35.5 14t-14.5 39q0 28 22 49t50 21q26 0 44.5 -18t18.5 -49z" />
    <glyph glyph-name="Lcaron" unicode="&#x13d;" horiz-adv-x="380" 
d="M307 0h-314l147 667h151l-118 -535h163zM456 614q0 -46 -34 -92t-86 -71l-37 38q25 12 48 30.5t33 38.5h-9q-21 0 -35.5 14t-14.5 39q0 28 22 49t50 21q26 0 44.5 -18t18.5 -49z" />
    <glyph glyph-name="lcaron" unicode="&#x13e;" horiz-adv-x="344" 
d="M122 0h-136l147 667h136zM440 613q0 -46 -34 -92t-86 -71l-37 38q25 12 48 30.5t33 38.5h-9q-21 0 -35.5 14t-14.5 39q0 28 22 49t50 21q26 0 44.5 -18t18.5 -49z" />
    <glyph glyph-name="Ldot" unicode="&#x13f;" horiz-adv-x="462" 
d="M307 0h-314l147 667h151l-118 -535h163zM367 257q-32 0 -54.5 23t-22.5 55q0 37 28 65t65 28q32 0 54.5 -23.5t22.5 -55.5q0 -37 -27.5 -64.5t-65.5 -27.5z" />
    <glyph glyph-name="ldot" unicode="&#x140;" horiz-adv-x="391" 
d="M122 0h-136l147 667h136zM295 159q-32 0 -54.5 23t-22.5 55q0 37 28 65t65 28q32 0 54.5 -23.5t22.5 -55.5q0 -37 -27.5 -64.5t-65.5 -27.5z" />
    <glyph glyph-name="Lslash" unicode="&#x141;" horiz-adv-x="388" 
d="M5 205l26 122l47 24l70 316h151l-51 -228l65 33l-26 -123l-66 -34l-40 -183h163l-29 -132h-314l50 228z" />
    <glyph glyph-name="lslash" unicode="&#x142;" horiz-adv-x="251" 
d="M8 221l21 97l49 25l72 324h136l-54 -246l50 26l-21 -98l-51 -26l-71 -323h-136l54 246z" />
    <glyph glyph-name="Nacute" unicode="&#x143;" horiz-adv-x="508" 
d="M407 0h-141l-49 331l-73 -331h-151l147 667h151l42 -315l70 315h151zM516 872l-141 -144h-86l111 144h116z" />
    <glyph glyph-name="nacute" unicode="&#x144;" horiz-adv-x="441" 
d="M346 0h-135l73 330q3 9 3 17q0 28 -27 28q-34 0 -68 -55l-70 -320h-136l107 483h136l-14 -59q22 30 55.5 50.5t68.5 20.5q44 0 69.5 -23.5t25.5 -61.5q0 -12 -3 -27zM445 700l-141 -144h-86l111 144h116z" />
    <glyph glyph-name="Ncommaaccent" unicode="&#x145;" horiz-adv-x="508" 
d="M407 0h-141l-49 331l-73 -331h-151l147 667h151l42 -315l70 315h151zM243 -121q0 -46 -34 -92t-86 -71l-37 38q25 12 48 30.5t33 38.5h-9q-21 0 -35.5 14t-14.5 39q0 28 22 49t50 21q26 0 44.5 -18t18.5 -49z" />
    <glyph glyph-name="ncommaaccent" unicode="&#x146;" horiz-adv-x="441" 
d="M346 0h-135l73 330q3 9 3 17q0 28 -27 28q-34 0 -68 -55l-70 -320h-136l107 483h136l-14 -59q22 30 55.5 50.5t68.5 20.5q44 0 69.5 -23.5t25.5 -61.5q0 -12 -3 -27zM210 -121q0 -46 -34 -92t-86 -71l-37 38q25 12 48 30.5t33 38.5h-9q-21 0 -35.5 14t-14.5 39
q0 28 22 49t50 21q26 0 44.5 -18t18.5 -49z" />
    <glyph glyph-name="Ncaron" unicode="&#x147;" horiz-adv-x="508" 
d="M407 0h-141l-49 331l-73 -331h-151l147 667h151l42 -315l70 315h151zM422 728h-120l-32 144h71l32 -86l67 86h75z" />
    <glyph glyph-name="ncaron" unicode="&#x148;" horiz-adv-x="441" 
d="M346 0h-135l73 330q3 9 3 17q0 28 -27 28q-34 0 -68 -55l-70 -320h-136l107 483h136l-14 -59q22 30 55.5 50.5t68.5 20.5q44 0 69.5 -23.5t25.5 -61.5q0 -12 -3 -27zM351 556h-120l-32 144h71l32 -86l67 86h75z" />
    <glyph glyph-name="napostrophe" unicode="&#x149;" horiz-adv-x="441" 
d="M346 0h-135l73 330q3 9 3 17q0 28 -27 28q-34 0 -68 -55l-70 -320h-136l107 483h136l-14 -59q22 30 55.5 50.5t68.5 20.5q44 0 69.5 -23.5t25.5 -61.5q0 -12 -3 -27zM254 701q0 -46 -34 -92t-86 -71l-37 38q25 12 48 30.5t33 38.5h-9q-21 0 -35.5 14t-14.5 39q0 28 22 49
t50 21q26 0 44.5 -18t18.5 -49z" />
    <glyph glyph-name="Eng" unicode="&#x14a;" horiz-adv-x="508" 
d="M196 -196q-82 0 -130 39l55 115q22 -23 60 -23q61 0 74 65l6 29l-44 302l-73 -331h-151l147 667h151l42 -315l70 315h151l-148 -672q-22 -100 -72 -145.5t-138 -45.5z" />
    <glyph glyph-name="eng" unicode="&#x14b;" horiz-adv-x="441" 
d="M171 -196q-50 0 -79 25l48 105q7 -10 23 -10q32 0 42 50l79 356q3 8 3 17q0 28 -27 28q-35 0 -68 -55l-70 -320h-136l107 483h136l-14 -60q23 30 56 51t68 21q43 0 69 -23.5t26 -61.5q0 -14 -3 -27l-91 -409q-20 -92 -59 -131t-110 -39z" />
    <glyph glyph-name="Omacron" unicode="&#x14c;" horiz-adv-x="500" 
d="M217 -12q-94 0 -143 62t-49 161q0 65 17 141t50.5 151t93.5 125t135 50q95 0 143.5 -63t48.5 -162q0 -51 -10 -110t-33.5 -122.5t-56.5 -115t-84 -84.5t-112 -33zM224 122q29 0 55.5 38.5t43.5 93.5t26.5 110t9.5 92q0 88 -46 88q-29 0 -55.5 -39t-43 -94t-26 -110.5
t-9.5 -92.5q0 -86 45 -86zM491 746h-262l17 76h262z" />
    <glyph glyph-name="omacron" unicode="&#x14d;" horiz-adv-x="434" 
d="M185 -12q-84 0 -128 50t-44 137q0 73 26 144.5t82 123.5t127 52q83 0 127.5 -50t44.5 -137q0 -73 -26 -144.5t-82 -123.5t-127 -52zM192 108q40 0 65.5 73.5t25.5 129.5q0 64 -43 64q-28 0 -50 -40.5t-31.5 -85.5t-9.5 -78q0 -63 43 -63zM421 574h-262l17 76h262z" />
    <glyph glyph-name="Obreve" unicode="&#x14e;" horiz-adv-x="500" 
d="M217 -12q-94 0 -143 62t-49 161q0 65 17 141t50.5 151t93.5 125t135 50q95 0 143.5 -63t48.5 -162q0 -51 -10 -110t-33.5 -122.5t-56.5 -115t-84 -84.5t-112 -33zM224 122q29 0 55.5 38.5t43.5 93.5t26.5 110t9.5 92q0 88 -46 88q-29 0 -55.5 -39t-43 -94t-26 -110.5
t-9.5 -92.5q0 -86 45 -86zM495 778q-59 -64 -140 -64q-79 0 -113 64l68 46q16 -34 58 -34q43 0 72 34z" />
    <glyph glyph-name="obreve" unicode="&#x14f;" horiz-adv-x="434" 
d="M185 -12q-84 0 -128 50t-44 137q0 73 26 144.5t82 123.5t127 52q83 0 127.5 -50t44.5 -137q0 -73 -26 -144.5t-82 -123.5t-127 -52zM192 108q40 0 65.5 73.5t25.5 129.5q0 64 -43 64q-28 0 -50 -40.5t-31.5 -85.5t-9.5 -78q0 -63 43 -63zM426 619q-59 -64 -140 -64
q-79 0 -113 64l68 46q16 -34 58 -34q43 0 72 34z" />
    <glyph glyph-name="Ohungarumlaut" unicode="&#x150;" horiz-adv-x="500" 
d="M217 -12q-94 0 -143 62t-49 161q0 65 17 141t50.5 151t93.5 125t135 50q95 0 143.5 -63t48.5 -162q0 -51 -10 -110t-33.5 -122.5t-56.5 -115t-84 -84.5t-112 -33zM224 122q29 0 55.5 38.5t43.5 93.5t26.5 110t9.5 92q0 88 -46 88q-29 0 -55.5 -39t-43 -94t-26 -110.5
t-9.5 -92.5q0 -86 45 -86zM427 872l-114 -144h-71l84 144h101zM561 872l-114 -144h-71l84 144h101z" />
    <glyph glyph-name="ohungarumlaut" unicode="&#x151;" horiz-adv-x="434" 
d="M185 -12q-84 0 -128 50t-44 137q0 73 26 144.5t82 123.5t127 52q83 0 127.5 -50t44.5 -137q0 -73 -26 -144.5t-82 -123.5t-127 -52zM192 108q40 0 65.5 73.5t25.5 129.5q0 64 -43 64q-28 0 -50 -40.5t-31.5 -85.5t-9.5 -78q0 -63 43 -63zM356 700l-114 -144h-71l84 144
h101zM490 700l-114 -144h-71l84 144h101z" />
    <glyph glyph-name="OE" unicode="&#x152;" horiz-adv-x="651" 
d="M573 0h-314l9 42q-39 -54 -100 -54q-65 0 -104.5 58.5t-39.5 164.5q0 69 19 147.5t53.5 151t91.5 120t125 47.5q27 0 51.5 -13.5t33.5 -38.5l8 42h314l-29 -132h-163l-28 -130h156l-30 -132h-155l-31 -141h162zM303 197l60 273q-4 73 -47 73q-32 0 -59.5 -38.5
t-43.5 -93.5t-25.5 -109.5t-9.5 -93.5q0 -86 45 -86q20 0 41.5 19t38.5 56z" />
    <glyph glyph-name="oe" unicode="&#x153;" horiz-adv-x="672" 
d="M642 197h-246q-3 -12 -3 -28q0 -30 18.5 -50.5t60.5 -20.5q44 0 80 36l44 -85q-62 -61 -150 -61q-96 0 -127 78q-61 -78 -136 -78q-85 0 -127.5 50t-42.5 137q0 121 64.5 220.5t168.5 99.5q86 0 123 -76q54 76 134 76q158 0 158 -172q0 -50 -19 -126zM415 291h121
q4 11 4 36q0 58 -48 58q-33 0 -52 -28t-25 -66zM279 311q0 64 -42 64q-40 0 -64 -70.5t-24 -133.5q0 -64 43 -64q39 0 63 73t24 131z" />
    <glyph glyph-name="Racute" unicode="&#x154;" horiz-adv-x="485" 
d="M403 0h-158l-13 234h-37l-51 -234h-151l147 667h187q74 0 123 -51.5t49 -127.5t-39 -141.5t-86 -85.5zM258 366h-1q38 0 61 32t23 75q0 31 -14 46.5t-36 15.5h-29l-38 -169h34zM504 872l-141 -144h-86l111 144h116z" />
    <glyph glyph-name="racute" unicode="&#x155;" horiz-adv-x="295" 
d="M122 0h-136l107 483h136l-14 -59q19 32 52.5 52t71.5 20l-31 -134q-10 6 -28 6q-50 0 -90 -56zM383 700l-141 -144h-86l111 144h116z" />
    <glyph glyph-name="Rcommaaccent" unicode="&#x156;" horiz-adv-x="485" 
d="M403 0h-158l-13 234h-37l-51 -234h-151l147 667h187q74 0 123 -51.5t49 -127.5t-39 -141.5t-86 -85.5zM231 -121q0 -46 -34 -92t-86 -71l-37 38q25 12 48 30.5t33 38.5h-9q-21 0 -35.5 14t-14.5 39q0 28 22 49t50 21q26 0 44.5 -18t18.5 -49zM262 535l-38 -169h33
q38 0 61 32t23 75q0 31 -14 46.5t-36 15.5h-29z" />
    <glyph glyph-name="rcommaaccent" unicode="&#x157;" horiz-adv-x="295" 
d="M122 0h-136l107 483h136l-14 -59q19 32 52.5 52t71.5 20l-31 -134q-10 6 -28 6q-50 0 -90 -56zM137 -121q0 -46 -34 -92t-86 -71l-37 38q25 12 48 30.5t33 38.5h-9q-21 0 -35.5 14t-14.5 39q0 28 22 49t50 21q26 0 44.5 -18t18.5 -49z" />
    <glyph glyph-name="Rcaron" unicode="&#x158;" horiz-adv-x="485" 
d="M403 0h-158l-13 234h-37l-51 -234h-151l147 667h187q74 0 123 -51.5t49 -127.5t-39 -141.5t-86 -85.5zM258 366h-1q38 0 61 32t23 75q0 31 -14 46.5t-36 15.5h-29l-38 -169h34zM410 728h-120l-32 144h71l32 -86l67 86h75z" />
    <glyph glyph-name="rcaron" unicode="&#x159;" horiz-adv-x="295" 
d="M122 0h-136l107 483h136l-14 -59q19 32 52.5 52t71.5 20l-31 -134q-10 6 -28 6q-50 0 -90 -56zM291 556h-120l-32 144h71l32 -86l67 86h75z" />
    <glyph glyph-name="Sacute" unicode="&#x15a;" horiz-adv-x="416" 
d="M165 -12q-60 0 -111.5 22t-78.5 58l84 112q18 -26 47 -42t58 -16q28 0 46.5 19.5t18.5 50.5q0 20 -16 41t-39.5 41.5t-46.5 44t-39 58t-16 74.5q0 94 64 160.5t157 66.5q48 0 94 -18t75 -51l-79 -111q-36 46 -92 46q-27 0 -43 -18.5t-16 -44.5q0 -20 16 -41t39 -42
t45.5 -44.5t38.5 -58t16 -74.5q0 -96 -62.5 -164.5t-159.5 -68.5zM468 872l-141 -144h-86l111 144h116z" />
    <glyph glyph-name="sacute" unicode="&#x15b;" horiz-adv-x="364" 
d="M144 -12q-56 0 -104 22t-67 52l71 87q16 -23 43 -39t57 -16q23 0 38 13t15 31q0 17 -24 34.5t-52.5 32.5t-52.5 47t-24 74q0 70 46.5 119.5t130.5 49.5q45 0 88 -18.5t72 -50.5l-69 -85q-11 17 -38 32.5t-54 15.5q-21 0 -33.5 -11t-12.5 -28q0 -15 24.5 -31.5t54 -32.5
t54 -49t24.5 -75q0 -71 -51.5 -122.5t-135.5 -51.5zM407 700l-141 -144h-86l111 144h116z" />
    <glyph glyph-name="Scircumflex" unicode="&#x15c;" horiz-adv-x="412" 
d="M459 728h-71l-32 86l-67 -86h-75l93 144h120zM165 -12q-60 0 -111.5 22t-78.5 58l84 112q18 -26 47 -42t58 -16q28 0 46.5 19.5t18.5 50.5q0 20 -16 41t-39.5 41.5t-46.5 44t-39 58t-16 74.5q0 94 64 160.5t157 66.5q48 0 94 -18t75 -51l-79 -111q-36 46 -92 46
q-27 0 -43 -18.5t-16 -44.5q0 -20 16 -41t39 -42t45.5 -44.5t38.5 -58t16 -74.5q0 -96 -62.5 -164.5t-159.5 -68.5z" />
    <glyph glyph-name="scircumflex" unicode="&#x15d;" horiz-adv-x="364" 
d="M144 -12q-56 0 -104 22t-67 52l71 87q16 -23 43 -39t57 -16q23 0 38 13t15 31q0 17 -24 34.5t-52.5 32.5t-52.5 47t-24 74q0 70 46.5 119.5t130.5 49.5q45 0 88 -18.5t72 -50.5l-69 -85q-11 17 -38 32.5t-54 15.5q-21 0 -33.5 -11t-12.5 -28q0 -15 24.5 -31.5t54 -32.5
t54 -49t24.5 -75q0 -71 -51.5 -122.5t-135.5 -51.5zM378 556h-71l-32 86l-67 -86h-75l93 144h120z" />
    <glyph glyph-name="Scedilla" unicode="&#x15e;" horiz-adv-x="416" 
d="M109 -196q-60 0 -97 40l33 48q27 -32 63 -32q18 0 28.5 10t10.5 25q0 20 -21 20q-14 0 -22 -13l-42 28l38 65q-83 19 -125 73l84 112q18 -26 47 -42t58 -16q28 0 46.5 19.5t18.5 50.5q0 20 -16 41t-39.5 41.5t-46.5 44t-39 58t-16 74.5q0 94 64 160.5t157 66.5
q48 0 94 -18t75 -51l-79 -111q-36 46 -92 46q-27 0 -43 -18.5t-16 -44.5q0 -20 16 -41t39 -42t45.5 -44.5t38.5 -58t16 -74.5q0 -96 -62.5 -164.5t-159.5 -68.5h-5l-24 -39q11 10 23 10q23 0 38 -16.5t15 -44.5q0 -40 -29.5 -67t-73.5 -27z" />
    <glyph glyph-name="scedilla" unicode="&#x15f;" horiz-adv-x="364" 
d="M91 -196q-60 0 -97 40l33 48q27 -32 63 -32q18 0 28.5 10t10.5 25q0 20 -21 20q-14 0 -22 -13l-42 28l38 66q-78 18 -109 66l71 87q16 -23 43 -39t57 -16q23 0 38 13t15 31q0 17 -24 34.5t-52.5 32.5t-52.5 47t-24 74q0 70 46.5 119.5t130.5 49.5q45 0 88 -18.5t72 -50.5
l-69 -85q-11 17 -38 32.5t-54 15.5q-21 0 -33.5 -11t-12.5 -28q0 -15 24.5 -31.5t54 -32.5t54 -49t24.5 -75q0 -71 -51.5 -122.5t-135.5 -51.5h-2l-24 -39q11 10 23 10q23 0 38 -16.5t15 -44.5q0 -40 -29.5 -67t-73.5 -27z" />
    <glyph glyph-name="Scaron" unicode="&#x160;" horiz-adv-x="412" 
d="M398 728h-120l-32 144h71l32 -86l67 86h75zM165 -12q-60 0 -111.5 22t-78.5 58l84 112q18 -26 47 -42t58 -16q28 0 46.5 19.5t18.5 50.5q0 20 -16 41t-39.5 41.5t-46.5 44t-39 58t-16 74.5q0 94 64 160.5t157 66.5q48 0 94 -18t75 -51l-79 -111q-36 46 -92 46
q-27 0 -43 -18.5t-16 -44.5q0 -20 16 -41t39 -42t45.5 -44.5t38.5 -58t16 -74.5q0 -96 -62.5 -164.5t-159.5 -68.5z" />
    <glyph glyph-name="scaron" unicode="&#x161;" horiz-adv-x="364" 
d="M144 -12q-56 0 -104 22t-67 52l71 87q16 -23 43 -39t57 -16q23 0 38 13t15 31q0 17 -24 34.5t-52.5 32.5t-52.5 47t-24 74q0 70 46.5 119.5t130.5 49.5q45 0 88 -18.5t72 -50.5l-69 -85q-11 17 -38 32.5t-54 15.5q-21 0 -33.5 -11t-12.5 -28q0 -15 24.5 -31.5t54 -32.5
t54 -49t24.5 -75q0 -71 -51.5 -122.5t-135.5 -51.5zM317 556h-120l-32 144h71l32 -86l67 86h75z" />
    <glyph glyph-name="Tcommaaccent" unicode="&#x162;" horiz-adv-x="385" 
d="M214 0h-151l118 535h-99l29 132h349l-29 -132h-99zM182 -121q0 -46 -34 -92t-86 -71l-37 38q25 12 48 30.5t33 38.5h-9q-21 0 -35.5 14t-14.5 39q0 28 22 49t50 21q26 0 44.5 -18t18.5 -49z" />
    <glyph glyph-name="Tcommaaccent" unicode="&#x21a;" horiz-adv-x="385" 
d="M214 0h-151l118 535h-99l29 132h349l-29 -132h-99zM182 -121q0 -46 -34 -92t-86 -71l-37 38q25 12 48 30.5t33 38.5h-9q-21 0 -35.5 14t-14.5 39q0 28 22 49t50 21q26 0 44.5 -18t18.5 -49z" />
    <glyph glyph-name="tcommaaccent" unicode="&#x163;" horiz-adv-x="269" 
d="M151 -12q-126 0 -126 94q0 22 5 46l54 238h-44l26 117h44l29 132h135l-29 -132h58l-26 -117h-58l-47 -212q-3 -10 -3 -21q0 -25 25 -25q13 0 21 8l-1 -113q-22 -15 -63 -15zM124 -121q0 -46 -34 -92t-86 -71l-37 38q25 12 48 30.5t33 38.5h-9q-21 0 -35.5 14t-14.5 39
q0 28 22 49t50 21q26 0 44.5 -18t18.5 -49z" />
    <glyph glyph-name="tcommaaccent" unicode="&#x21b;" horiz-adv-x="269" 
d="M151 -12q-126 0 -126 94q0 22 5 46l54 238h-44l26 117h44l29 132h135l-29 -132h58l-26 -117h-58l-47 -212q-3 -10 -3 -21q0 -25 25 -25q13 0 21 8l-1 -113q-22 -15 -63 -15zM124 -121q0 -46 -34 -92t-86 -71l-37 38q25 12 48 30.5t33 38.5h-9q-21 0 -35.5 14t-14.5 39
q0 28 22 49t50 21q26 0 44.5 -18t18.5 -49z" />
    <glyph glyph-name="Tcaron" unicode="&#x164;" horiz-adv-x="385" 
d="M214 0h-151l118 535h-99l29 132h349l-29 -132h-99zM361 728h-120l-32 144h71l32 -86l67 86h75z" />
    <glyph glyph-name="tcaron" unicode="&#x165;" horiz-adv-x="269" 
d="M151 -12q-126 0 -126 94q0 22 5 46l54 238h-44l26 117h44l29 132h135l-29 -132h58l-26 -117h-58l-47 -212q-3 -10 -3 -21q0 -25 25 -25q13 0 21 8l-1 -113q-22 -15 -63 -15zM453 701q0 -46 -34 -92t-86 -71l-37 38q25 12 48 30.5t33 38.5h-9q-21 0 -35.5 14t-14.5 39
q0 28 22 49t50 21q26 0 44.5 -18t18.5 -49z" />
    <glyph glyph-name="Tbar" unicode="&#x166;" horiz-adv-x="385" 
d="M214 0h-151l57 258h-67l16 76h67l45 201h-99l29 132h349l-29 -132h-99l-45 -201h68l-17 -76h-67z" />
    <glyph glyph-name="tbar" unicode="&#x167;" horiz-adv-x="269" 
d="M151 -12q-126 0 -126 94q0 22 5 46l17 78h-42l16 76h44l19 84h-44l26 117h44l29 132h135l-29 -132h58l-26 -117h-58l-19 -84h34l-16 -76h-35l-11 -52q-3 -10 -3 -21q0 -25 25 -25q13 0 21 8l-1 -113q-22 -15 -63 -15z" />
    <glyph glyph-name="Utilde" unicode="&#x168;" horiz-adv-x="508" 
d="M222 -12q-80 0 -134 49.5t-54 130.5q0 19 5 41l101 458h151l-104 -472q-3 -18 -3 -25q0 -23 14 -36.5t36 -13.5q48 0 65 75l104 472h151l-102 -463q-24 -109 -85.5 -162.5t-144.5 -53.5zM415 726q-20 0 -32.5 10t-17 22t-12 22t-19.5 10q-24 0 -36 -58h-70
q29 134 111 134q20 0 33 -10t17 -22t12 -22t20 -10q23 0 36 58h70q-29 -134 -112 -134z" />
    <glyph glyph-name="utilde" unicode="&#x169;" horiz-adv-x="441" 
d="M93 483h136l-73 -330q-3 -9 -3 -17q0 -28 27 -28q34 0 67 53l71 322h135l-107 -483h-135l14 59q-22 -30 -55.5 -50.5t-68.5 -20.5q-44 0 -69.5 23.5t-25.5 61.5q0 12 3 27zM342 554q-20 0 -32.5 10t-17 22t-12 22t-19.5 10q-24 0 -36 -58h-70q29 134 111 134q20 0 33 -10
t17 -22t12 -22t20 -10q23 0 36 58h70q-29 -134 -112 -134z" />
    <glyph glyph-name="Umacron" unicode="&#x16a;" horiz-adv-x="508" 
d="M222 -12q-80 0 -134 49.5t-54 130.5q0 19 5 41l101 458h151l-104 -472q-3 -18 -3 -25q0 -23 14 -36.5t36 -13.5q48 0 65 75l104 472h151l-102 -463q-24 -109 -85.5 -162.5t-144.5 -53.5zM495 746h-262l17 76h262z" />
    <glyph glyph-name="umacron" unicode="&#x16b;" horiz-adv-x="441" 
d="M93 483h136l-73 -330q-3 -9 -3 -17q0 -28 27 -28q34 0 67 53l71 322h135l-107 -483h-135l14 59q-22 -30 -55.5 -50.5t-68.5 -20.5q-44 0 -69.5 23.5t-25.5 61.5q0 12 3 27zM424 574h-262l17 76h262z" />
    <glyph glyph-name="Ubreve" unicode="&#x16c;" horiz-adv-x="508" 
d="M222 -12q-80 0 -134 49.5t-54 130.5q0 19 5 41l101 458h151l-104 -472q-3 -18 -3 -25q0 -23 14 -36.5t36 -13.5q48 0 65 75l104 472h151l-102 -463q-24 -109 -85.5 -162.5t-144.5 -53.5zM499 778q-59 -64 -140 -64q-79 0 -113 64l68 46q16 -34 58 -34q43 0 72 34z" />
    <glyph glyph-name="ubreve" unicode="&#x16d;" horiz-adv-x="441" 
d="M93 483h136l-73 -330q-3 -9 -3 -17q0 -28 27 -28q34 0 67 53l71 322h135l-107 -483h-135l14 59q-22 -30 -55.5 -50.5t-68.5 -20.5q-44 0 -69.5 23.5t-25.5 61.5q0 12 3 27zM431 619q-59 -64 -140 -64q-79 0 -113 64l68 46q16 -34 58 -34q43 0 72 34z" />
    <glyph glyph-name="Uring" unicode="&#x16e;" horiz-adv-x="508" 
d="M222 -12q-80 0 -134 49.5t-54 130.5q0 19 5 41l101 458h151l-104 -472q-3 -18 -3 -25q0 -23 14 -36.5t36 -13.5q48 0 65 75l104 472h151l-102 -463q-24 -109 -85.5 -162.5t-144.5 -53.5zM362 692q-36 0 -58.5 23t-22.5 59q0 41 30.5 72t71.5 31q36 0 59 -23t23 -59
q0 -42 -31 -72.5t-72 -30.5zM370 749q16 0 27.5 12t11.5 28q0 14 -8.5 23t-22.5 9q-16 0 -28 -12t-12 -28q0 -14 9 -23t23 -9z" />
    <glyph glyph-name="uring" unicode="&#x16f;" horiz-adv-x="441" 
d="M93 483h136l-73 -330q-3 -9 -3 -17q0 -28 27 -28q34 0 67 53l71 322h135l-107 -483h-135l14 59q-22 -30 -55.5 -50.5t-68.5 -20.5q-44 0 -69.5 23.5t-25.5 61.5q0 12 3 27zM296 546q-36 0 -58.5 23t-22.5 59q0 41 30.5 72t71.5 31q36 0 59 -23t23 -59q0 -42 -31 -72.5
t-72 -30.5zM304 603q16 0 27.5 12t11.5 28q0 14 -8.5 23t-22.5 9q-16 0 -28 -12t-12 -28q0 -14 9 -23t23 -9z" />
    <glyph glyph-name="Uhungarumlaut" unicode="&#x170;" horiz-adv-x="508" 
d="M222 -12q-80 0 -134 49.5t-54 130.5q0 19 5 41l101 458h151l-104 -472q-3 -18 -3 -25q0 -23 14 -36.5t36 -13.5q48 0 65 75l104 472h151l-102 -463q-24 -109 -85.5 -162.5t-144.5 -53.5zM431 872l-114 -144h-71l84 144h101zM565 872l-114 -144h-71l84 144h101z" />
    <glyph glyph-name="uhungarumlaut" unicode="&#x171;" horiz-adv-x="441" 
d="M93 483h136l-73 -330q-3 -9 -3 -17q0 -28 27 -28q34 0 67 53l71 322h135l-107 -483h-135l14 59q-22 -30 -55.5 -50.5t-68.5 -20.5q-44 0 -69.5 23.5t-25.5 61.5q0 12 3 27zM360 700l-114 -144h-71l84 144h101zM494 700l-114 -144h-71l84 144h101z" />
    <glyph glyph-name="Uogonek" unicode="&#x172;" horiz-adv-x="508" 
d="M264 -105l47 -33q-31 -48 -79 -48q-36 0 -57.5 17t-21.5 51q0 57 49 107q-73 6 -120.5 54.5t-47.5 124.5q0 19 5 41l101 458h151l-104 -472q-3 -18 -3 -25q0 -23 14 -36.5t36 -13.5q48 0 65 75l104 472h151l-102 -463q-36 -162 -156 -204q-78 -50 -78 -111q0 -19 18 -19
q19 0 28 25z" />
    <glyph glyph-name="uogonek" unicode="&#x173;" horiz-adv-x="441" 
d="M314 -105l47 -33q-31 -48 -79 -48q-36 0 -57.5 17t-21.5 51q0 62 61 118h-53l14 59q-22 -30 -55.5 -50.5t-68.5 -20.5q-44 0 -69.5 23.5t-25.5 61.5q0 12 3 27l84 383h136l-73 -330q-3 -9 -3 -17q0 -28 27 -28q34 0 67 53l71 322h135l-107 -483q-78 -50 -78 -111
q0 -19 18 -19q19 0 28 25z" />
    <glyph glyph-name="Wcircumflex" unicode="&#x174;" horiz-adv-x="650" 
d="M470 0h-151l38 388l-134 -388h-152l29 667h152l-42 -404l147 404h117l-30 -404l136 404h156zM555 728h-71l-32 86l-67 -86h-75l93 144h120z" />
    <glyph glyph-name="wcircumflex" unicode="&#x175;" horiz-adv-x="641" 
d="M472 0h-142l2 299l-129 -299h-142l-7 483h136l-12 -301l124 301h127l-4 -301l124 301h144zM513 556h-71l-32 86l-67 -86h-75l93 144h120z" />
    <glyph glyph-name="Ycircumflex" unicode="&#x176;" horiz-adv-x="459" 
d="M460 728h-71l-32 86l-67 -86h-75l93 144h120zM251 0h-151l60 272l-73 395h154l20 -251l131 251h166l-247 -395z" />
    <glyph glyph-name="ycircumflex" unicode="&#x177;" horiz-adv-x="408" 
d="M-50 -182l43 111q7 -5 23 -5q23 0 39 28l22 43l-26 488h139l-7 -312l133 312h147l-279 -558q-36 -70 -70 -95.5t-85 -25.5q-49 0 -79 14zM395 556h-71l-32 86l-67 -86h-75l93 144h120z" />
    <glyph glyph-name="Ydieresis" unicode="&#x178;" horiz-adv-x="459" 
d="M509 794q0 -31 -24.5 -55t-55.5 -24q-27 0 -45 18t-18 45q0 31 24.5 55t55.5 24q27 0 45 -18t18 -45zM335 794q0 -31 -24 -55t-56 -24q-27 0 -45 18t-18 45q0 31 24.5 55t55.5 24q27 0 45 -18t18 -45zM251 0h-151l60 272l-73 395h154l20 -251l131 251h166l-247 -395z" />
    <glyph glyph-name="Zacute" unicode="&#x179;" horiz-adv-x="394" 
d="M312 0h-338l27 127l244 408h-154l30 132h331l-26 -121l-248 -414h163zM459 872l-141 -144h-86l111 144h116z" />
    <glyph glyph-name="zacute" unicode="&#x17a;" horiz-adv-x="351" 
d="M275 0h-306l22 101l194 265h-136l27 117h302l-22 -96l-196 -270h140zM400 700l-141 -144h-86l111 144h116z" />
    <glyph glyph-name="Zdotaccent" unicode="&#x17b;" horiz-adv-x="394" 
d="M312 0h-338l27 127l244 408h-154l30 132h331l-26 -121l-248 -414h163zM387 793q0 -31 -24.5 -55t-56.5 -24q-27 0 -45 18t-18 45q0 31 24.5 55t56.5 24q27 0 45 -18t18 -45z" />
    <glyph glyph-name="zdotaccent" unicode="&#x17c;" horiz-adv-x="351" 
d="M275 0h-306l22 101l194 265h-136l27 117h302l-22 -96l-196 -270h140zM329 627q0 -31 -24.5 -55t-56.5 -24q-27 0 -45 18t-18 45q0 31 24.5 55t56.5 24q27 0 45 -18t18 -45z" />
    <glyph glyph-name="Zcaron" unicode="&#x17d;" horiz-adv-x="394" 
d="M365 728h-120l-32 144h71l32 -86l67 86h75zM312 0h-338l27 127l244 408h-154l30 132h331l-26 -121l-248 -414h163z" />
    <glyph glyph-name="zcaron" unicode="&#x17e;" horiz-adv-x="351" 
d="M275 0h-306l22 101l194 265h-136l27 117h302l-22 -96l-196 -270h140zM303 556h-120l-32 144h71l32 -86l67 86h75z" />
    <glyph glyph-name="longs" unicode="&#x17f;" horiz-adv-x="262" 
d="M138 0h-135l81 366h-43l26 117h42l8 34q16 74 52.5 117t105.5 43q71 0 105 -30l-52 -100q-11 14 -33 14q-33 0 -43 -44z" />
    <glyph glyph-name="florin" unicode="&#x192;" horiz-adv-x="414" 
d="M109 -161h-154l87 397h-40v118h67l39 182q15 66 56 103.5t103 37.5q66 0 103 -26l-39 -117q-13 11 -31 11q-35 0 -45 -48l-31 -143h72v-118h-99z" />
    <glyph glyph-name="AEacute" unicode="&#x1fc;" horiz-adv-x="632" 
d="M554 0h-314l24 108h-105l-54 -108h-159l376 667h379l-29 -132h-163l-28 -130h156l-30 -132h-155l-31 -141h162zM293 241l55 246l-124 -246h69zM601 872l-141 -144h-86l111 144h116z" />
    <glyph glyph-name="aeacute" unicode="&#x1fd;" horiz-adv-x="674" 
d="M475 -12q-87 0 -112 79l-15 -67h-135l13 55q-46 -67 -104 -67q-112 0 -112 160q0 51 12.5 109t36 112t62.5 90t87 36q78 0 99 -70l13 58h135l-10 -45q50 57 102 57q115 0 115 -161q0 -68 -20 -137h-249q-3 -15 -3 -28q0 -27 20.5 -48t62.5 -21q40 0 81 36l43 -94
q-53 -54 -122 -54zM241 375q-42 0 -66.5 -73t-24.5 -135q0 -59 44 -59q31 0 53 44l39 178q-3 21 -15.5 33t-29.5 12zM541 700l-141 -144h-86l111 144h116zM536 291q5 20 5 37q0 26 -13.5 42t-36.5 16q-33 0 -53 -29t-26 -66h124z" />
    <glyph glyph-name="Oslashacute" unicode="&#x1fe;" horiz-adv-x="500" 
d="M512 872l-141 -144h-86l111 144h116zM217 -12q-77 0 -126 44l-23 -32h-85l66 90q-24 51 -24 121q0 65 17 141t50.5 151t93.5 125t135 50q78 0 127 -46l25 35h84l-68 -93q24 -52 24 -121q0 -51 -10 -110t-33.5 -122.5t-56.5 -115t-84 -84.5t-112 -33zM313 544
q-46 0 -80.5 -85t-48.5 -185l170 231q-11 39 -41 39zM224 122q31 0 59.5 45t45 103t24.5 119l-169 -230q11 -37 40 -37z" />
    <glyph glyph-name="oslashacute" unicode="&#x1ff;" horiz-adv-x="434" 
d="M442 700l-141 -144h-86l111 144h116zM48 0h-76l62 72q-21 42 -21 103q0 73 26 144.5t82 123.5t127 52t115 -38l23 26h75l-62 -73q21 -42 21 -102q0 -73 -26 -144.5t-82 -123.5t-127 -52q-73 0 -116 37zM240 375q-23 0 -42.5 -28.5t-30 -63.5t-15.5 -73l123 144
q-10 21 -35 21zM192 108q33 0 56 50.5t32 112.5l-123 -144q9 -19 35 -19z" />
    <glyph glyph-name="Scommaaccent" unicode="&#x218;" horiz-adv-x="412" 
d="M165 -12q-60 0 -111.5 22t-78.5 58l84 112q18 -26 47 -42t58 -16q28 0 46.5 19.5t18.5 50.5q0 20 -16 41t-39.5 41.5t-46.5 44t-39 58t-16 74.5q0 94 64 160.5t157 66.5q48 0 94 -18t75 -51l-79 -111q-36 46 -92 46q-27 0 -43 -18.5t-16 -44.5q0 -20 16 -41t39 -42
t45.5 -44.5t38.5 -58t16 -74.5q0 -96 -62.5 -164.5t-159.5 -68.5zM195 -121q0 -46 -34 -92t-86 -71l-37 38q25 12 48 30.5t33 38.5h-9q-21 0 -35.5 14t-14.5 39q0 28 22 49t50 21q26 0 44.5 -18t18.5 -49z" />
    <glyph glyph-name="scommaaccent" unicode="&#x219;" horiz-adv-x="366" 
d="M144 -12q-56 0 -104 22t-67 52l71 87q16 -23 43 -39t57 -16q23 0 38 13t15 31q0 17 -24 34.5t-52.5 32.5t-52.5 47t-24 74q0 70 46.5 119.5t130.5 49.5q45 0 88 -18.5t72 -50.5l-69 -85q-11 17 -38 32.5t-54 15.5q-21 0 -33.5 -11t-12.5 -28q0 -15 24.5 -31.5t54 -32.5
t54 -49t24.5 -75q0 -71 -51.5 -122.5t-135.5 -51.5zM173 -121q0 -46 -34 -92t-86 -71l-37 38q25 12 48 30.5t33 38.5h-9q-21 0 -35.5 14t-14.5 39q0 28 22 49t50 21q26 0 44.5 -18t18.5 -49z" />
    <glyph glyph-name="hsuperior" unicode="&#x2b0;" horiz-adv-x="322" 
d="M307 326h-96l45 206q2 8 2 15q0 19 -21 19q-20 0 -44 -36l-45 -204h-97l95 434h98l-34 -158q33 46 83 46q33 0 51.5 -16t18.5 -43q0 -9 -2 -21z" />
    <glyph glyph-name="hsuperior" unicode="&#xf637;" horiz-adv-x="322" 
d="M307 326h-96l45 206q2 8 2 15q0 19 -21 19q-20 0 -44 -36l-45 -204h-97l95 434h98l-34 -158q33 46 83 46q33 0 51.5 -16t18.5 -43q0 -9 -2 -21z" />
    <glyph glyph-name="circumflex" unicode="&#x2c6;" horiz-adv-x="245" 
d="M314 556h-71l-32 86l-67 -86h-75l93 144h120z" />
    <glyph glyph-name="caron" unicode="&#x2c7;" horiz-adv-x="245" 
d="M253 556h-120l-32 144h71l32 -86l67 86h75z" />
    <glyph glyph-name="breve" unicode="&#x2d8;" horiz-adv-x="253" 
d="M336 619q-59 -64 -140 -64q-79 0 -113 64l68 46q16 -34 58 -34q43 0 72 34z" />
    <glyph glyph-name="dotaccent" unicode="&#x2d9;" horiz-adv-x="183" 
d="M247 627q0 -31 -24.5 -55t-56.5 -24q-27 0 -45 18t-18 45q0 31 24.5 55t56.5 24q27 0 45 -18t18 -45z" />
    <glyph glyph-name="ring" unicode="&#x2da;" horiz-adv-x="182" 
d="M167 546q-36 0 -58.5 23t-22.5 59q0 41 30.5 72t71.5 31q36 0 59 -23t23 -59q0 -42 -31 -72.5t-72 -30.5zM175 603q16 0 27.5 12t11.5 28q0 14 -8.5 23t-22.5 9q-16 0 -28 -12t-12 -28q0 -14 9 -23t23 -9z" />
    <glyph glyph-name="ogonek" unicode="&#x2db;" horiz-adv-x="164" 
d="M33 -105l47 -33q-31 -48 -79 -48q-36 0 -57.5 17t-21.5 51q0 80 100 149l43 -31q-78 -50 -78 -111q0 -19 18 -19q19 0 28 25z" />
    <glyph glyph-name="tilde" unicode="&#x2dc;" horiz-adv-x="271" 
d="M257 554q-20 0 -32.5 10t-17 22t-12 22t-19.5 10q-24 0 -36 -58h-70q29 134 111 134q20 0 33 -10t17 -22t12 -22t20 -10q23 0 36 58h70q-29 -134 -112 -134z" />
    <glyph glyph-name="hungarumlaut" unicode="&#x2dd;" horiz-adv-x="285" 
d="M252 700l-114 -144h-71l84 144h101zM386 700l-114 -144h-71l84 144h101z" />
    <glyph glyph-name="Delta" unicode="&#x394;" horiz-adv-x="454" 
d="M402 0h-459l290 667h174zM263 132l23 369l-138 -369h115z" />
    <glyph glyph-name="Delta" unicode="&#x2206;" horiz-adv-x="454" 
d="M402 0h-459l290 667h174zM263 132l23 369l-138 -369h115z" />
    <glyph glyph-name="Omega" unicode="&#x3a9;" horiz-adv-x="494" 
d="M-22 0l30 132h92q-62 65 -62 168q0 82 32 167.5t96.5 148t143.5 62.5q89 0 146 -51.5t57 -155.5q0 -109 -47.5 -196.5t-121.5 -142.5h93l-30 -132h-188l29 132q44 36 75.5 148t31.5 176q0 44 -10.5 65.5t-37.5 21.5q-35 0 -66 -59t-47 -134t-16 -136q0 -58 18 -82
l-12 -55l-17 -77h-189z" />
    <glyph glyph-name="Omega" unicode="&#x2126;" horiz-adv-x="494" 
d="M-22 0l30 132h92q-62 65 -62 168q0 82 32 167.5t96.5 148t143.5 62.5q89 0 146 -51.5t57 -155.5q0 -109 -47.5 -196.5t-121.5 -142.5h93l-30 -132h-188l29 132q44 36 75.5 148t31.5 176q0 44 -10.5 65.5t-37.5 21.5q-35 0 -66 -59t-47 -134t-16 -136q0 -58 18 -82
l-12 -55l-17 -77h-189z" />
    <glyph glyph-name="pi" unicode="&#x3c0;" horiz-adv-x="468" 
d="M360 0h-136l85 381h-89l-84 -381h-136l84 381h-36l26 119h432l-25 -119h-36z" />
    <glyph glyph-name="endash" unicode="&#x2013;" horiz-adv-x="460" 
d="M417 185h-400l25 114h400z" />
    <glyph glyph-name="emdash" unicode="&#x2014;" horiz-adv-x="640" 
d="M597 185h-580l25 114h580z" />
    <glyph glyph-name="quoteleft" unicode="&#x2018;" horiz-adv-x="262" 
d="M90 472q0 58 43.5 116t108.5 90l47 -50q-77 -35 -100 -84q3 1 11 1q27 0 46 -18t19 -50q0 -36 -29 -63t-65 -27q-34 0 -57.5 22.5t-23.5 62.5z" />
    <glyph glyph-name="quoteright" unicode="&#x2019;" horiz-adv-x="262" 
d="M296 592q0 -58 -43.5 -116t-108.5 -90l-47 50q77 35 100 84q-3 -1 -11 -1q-27 0 -46 18t-19 50q0 36 29 63t65 27q34 0 57.5 -22.5t23.5 -62.5z" />
    <glyph glyph-name="quotesinglbase" unicode="&#x201a;" horiz-adv-x="262" 
d="M181 73q0 -58 -43 -116t-109 -89l-47 49q75 34 100 84q-2 -1 -11 -1q-27 0 -45.5 18t-18.5 50q0 37 28.5 63.5t64.5 26.5q34 0 57.5 -22.5t23.5 -62.5z" />
    <glyph glyph-name="quotedblleft" unicode="&#x201c;" horiz-adv-x="472" 
d="M302 472q0 58 43.5 116t108.5 90l47 -50q-77 -35 -100 -84q3 1 11 1q27 0 46 -18t19 -50q0 -36 -28.5 -63t-64.5 -27q-34 0 -58 22.5t-24 62.5zM93 472q0 58 43 116t109 90l47 -50q-76 -34 -100 -84q3 1 11 1q27 0 45.5 -18t18.5 -50q0 -36 -28.5 -63t-64.5 -27
q-34 0 -57.5 22.5t-23.5 62.5z" />
    <glyph glyph-name="quotedblright" unicode="&#x201d;" horiz-adv-x="472" 
d="M296 592q0 -58 -43.5 -116t-108.5 -90l-47 50q77 35 100 84q-3 -1 -11 -1q-27 0 -46 18t-19 50q0 36 29 63t65 27q34 0 57.5 -22.5t23.5 -62.5zM505 592q0 -58 -43 -116t-108 -90l-48 50q76 34 100 84q-3 -1 -11 -1q-27 0 -45.5 18t-18.5 50q0 36 28.5 63t64.5 27
q34 0 57.5 -22.5t23.5 -62.5z" />
    <glyph glyph-name="quotedblbase" unicode="&#x201e;" horiz-adv-x="472" 
d="M181 73q0 -58 -43 -116t-109 -89l-47 49q75 34 100 84q-2 -1 -11 -1q-27 0 -45.5 18t-18.5 50q0 37 28.5 63.5t64.5 26.5q34 0 57.5 -22.5t23.5 -62.5zM390 73q0 -58 -43 -116t-108 -89l-48 49q31 14 60 37t40 47q-2 -1 -11 -1q-27 0 -45.5 18t-18.5 50q0 37 28.5 63.5
t64.5 26.5q34 0 57.5 -22.5t23.5 -62.5z" />
    <glyph glyph-name="dagger" unicode="&#x2020;" horiz-adv-x="279" 
d="M320 521l-88 4l-39 -198h-71l48 198l-90 -4l15 65l88 -3l17 94h71l-25 -94l89 3z" />
    <glyph glyph-name="daggerdbl" unicode="&#x2021;" horiz-adv-x="279" 
d="M335 586l-15 -65l-88 4l-42 -191l90 4l-15 -65l-88 3l-17 -96h-71l25 96l-89 -3l15 65l87 -4l42 191l-89 -4l15 65l88 -3l17 94h71l-25 -94z" />
    <glyph glyph-name="bullet" unicode="&#x2022;" horiz-adv-x="358" 
d="M300 254q0 -54 -40 -92.5t-94 -38.5q-46 0 -77 30.5t-31 77.5q0 54 40 92.5t94 38.5q46 0 77 -31t31 -77z" />
    <glyph glyph-name="ellipsis" unicode="&#x2026;" horiz-adv-x="778" 
d="M84 -12q-32 0 -54.5 23t-22.5 55q0 38 27.5 65t64.5 27q32 0 54.5 -23t22.5 -55q0 -38 -27 -65t-65 -27zM343 -12q-32 0 -54.5 23t-22.5 55q0 38 27.5 65t65.5 27q31 0 53.5 -23t22.5 -55q0 -38 -27.5 -65t-64.5 -27zM602 -12q-32 0 -54.5 23t-22.5 55q0 37 27.5 64.5
t65.5 27.5q32 0 54.5 -23t22.5 -55q0 -37 -27.5 -64.5t-65.5 -27.5z" />
    <glyph glyph-name="perthousand" unicode="&#x2030;" horiz-adv-x="880" 
d="M131 0h-55l428 667h56zM405 -12q-55 0 -86.5 35.5t-31.5 90.5q0 86 47.5 146.5t110.5 60.5q55 0 86.5 -36t31.5 -90q0 -86 -47.5 -146.5t-110.5 -60.5zM411 70q23 0 44 35.5t21 80.5q0 53 -37 53q-23 0 -44 -35.5t-21 -80.5q0 -53 37 -53zM189 344q-55 0 -86.5 35.5
t-31.5 90.5q0 86 47.5 146.5t110.5 60.5q55 0 86.5 -35.5t31.5 -90.5q0 -86 -47.5 -146.5t-110.5 -60.5zM195 426q23 0 44 35.5t21 80.5q0 53 -37 53q-23 0 -44 -35.5t-21 -80.5q0 -53 37 -53zM689 -12q-55 0 -86.5 36t-31.5 90q0 86 48 146.5t111 60.5q55 0 86.5 -36
t31.5 -90q0 -86 -48 -146.5t-111 -60.5zM696 70q22 0 43 35.5t21 80.5q0 53 -37 53q-23 0 -43.5 -35.5t-20.5 -80.5q0 -53 37 -53z" />
    <glyph glyph-name="guilsinglleft" unicode="&#x2039;" horiz-adv-x="252" 
d="M179 63h-100l-50 180l130 177h104l-133 -181z" />
    <glyph glyph-name="guilsinglright" unicode="&#x203a;" horiz-adv-x="252" 
d="M73 420h100l50 -180l-130 -177h-104l133 181z" />
    <glyph glyph-name="fraction" unicode="&#x2044;" horiz-adv-x="142" 
d="M333 667l-429 -667h-55l427 667h57z" />
    <glyph glyph-name="fraction" unicode="&#x2215;" horiz-adv-x="142" 
d="M333 667l-429 -667h-55l427 667h57z" />
    <glyph glyph-name="zerosuperior" unicode="&#x2070;" 
d="M379 685q0 -54 -18 -114t-61 -108.5t-101 -48.5q-56 0 -89.5 35.5t-33.5 106.5q0 54 18 114t61 108.5t101 48.5q56 0 89.5 -35.5t33.5 -106.5zM280 702q0 44 -28 44q-31 0 -54 -76.5t-23 -130.5q0 -44 28 -44q31 0 54 76.5t23 130.5z" />
    <glyph glyph-name="foursuperior" unicode="&#x2074;" 
d="M344 505h-32l-18 -84h-101l18 84h-151l17 77l183 239h122l-52 -237h32zM228 584l28 125l-93 -125h65z" />
    <glyph glyph-name="fivesuperior" unicode="&#x2075;" 
d="M355 582q0 -70 -43 -119t-112 -49q-102 0 -145 70l74 55q19 -44 66 -44q24 0 39.5 22.5t15.5 50.5q0 40 -36 40q-33 0 -55 -32l-69 22l50 223h248l-18 -81h-148l-18 -87q26 28 61 28q38 0 64 -25t26 -74z" />
    <glyph glyph-name="sixsuperior" unicode="&#x2076;" 
d="M356 585q0 -68 -41.5 -119.5t-107.5 -51.5q-60 0 -95 35.5t-35 101.5q0 64 21.5 125.5t68.5 106t108 44.5q72 0 111 -48l-63 -62q-15 29 -51 29q-52 0 -81 -99l-1 -8q29 49 80 49q36 0 61 -25.5t25 -77.5zM253 569q0 40 -33 40q-24 0 -42 -33q-4 -17 -4 -37q0 -44 31 -44
q21 0 34.5 25t13.5 49z" />
    <glyph glyph-name="sevensuperior" unicode="&#x2077;" horiz-adv-x="283" 
d="M374 751l-186 -330h-97l186 319h-165l18 81h260z" />
    <glyph glyph-name="eightsuperior" unicode="&#x2078;" 
d="M347 535q0 -53 -37 -87t-100 -34q-67 0 -107.5 26t-40.5 76q0 42 29.5 75t71.5 43q-23 10 -37 30.5t-14 45.5q0 55 40.5 86t95.5 31t96.5 -24.5t41.5 -72.5q0 -40 -25.5 -71t-67.5 -39q22 -11 38 -34.5t16 -50.5zM283 717q0 33 -34 33q-17 0 -29 -15.5t-12 -35.5
q0 -16 9.5 -27t18.5 -14q47 13 47 59zM249 544q0 18 -9.5 31t-18.5 16q-21 -2 -38 -21.5t-17 -44.5q0 -16 10 -25t27 -9q20 0 33 15t13 38z" />
    <glyph glyph-name="ninesuperior" unicode="&#x2079;" 
d="M100 657q0 68 41.5 119.5t107.5 51.5q60 0 95 -35.5t35 -101.5q0 -64 -21.5 -125.5t-68.5 -106t-108 -44.5q-72 0 -111 48l63 62q15 -29 51 -29q52 0 81 99l1 8q-29 -49 -80 -49q-36 0 -61 25.5t-25 77.5zM203 673q0 -40 33 -40q24 0 42 33q4 17 4 37q0 44 -31 44
q-21 0 -34.5 -25t-13.5 -49z" />
    <glyph glyph-name="parenleftsuperior" unicode="&#x207d;" horiz-adv-x="175" 
d="M188 381l-60 -25q-31 75 -31 164q0 195 148 366l49 -24q-55 -82 -87 -182t-32 -191q0 -68 13 -108z" />
    <glyph glyph-name="parenrightsuperior" unicode="&#x207e;" horiz-adv-x="176" 
d="M152 862l60 25q31 -77 31 -165q0 -192 -148 -365l-50 24q56 82 88 181.5t32 191.5q0 68 -13 108z" />
    <glyph glyph-name="nsuperior" unicode="&#x207f;" horiz-adv-x="323" 
d="M307 326h-96l45 206q2 8 2 15q0 19 -21 19q-20 0 -44 -36l-45 -204h-97l69 314h97l-7 -38q33 46 83 46q33 0 51.5 -16t18.5 -43q0 -9 -2 -21z" />
    <glyph glyph-name="zeroinferior" unicode="&#x2080;" 
d="M263 118q0 -54 -18 -114t-61 -108.5t-101 -48.5q-56 0 -89.5 35.5t-33.5 106.5q0 54 18 114t61 108.5t101 48.5q56 0 89.5 -35.5t33.5 -106.5zM164 135q0 44 -28 44q-31 0 -54 -76.5t-23 -130.5q0 -44 28 -44q31 0 54 76.5t23 130.5z" />
    <glyph glyph-name="oneinferior" unicode="&#x2081;" horiz-adv-x="259" 
d="M134 -146h-102l59 267l-64 -53l-46 61l153 125h88z" />
    <glyph glyph-name="twoinferior" unicode="&#x2082;" 
d="M208 -146h-268l18 79q132 102 171 140.5t39 68.5q0 37 -43 37t-79 -43l-47 65q57 59 135 59q59 0 97.5 -28t38.5 -79t-40 -94.5t-146 -123.5h141z" />
    <glyph glyph-name="threeinferior" unicode="&#x2083;" 
d="M232 -28q0 -49 -40 -87t-102 -38q-49 0 -88 18.5t-57 51.5l73 57q21 -46 67 -46q23 0 36.5 17t13.5 38q0 35 -43 35q-24 0 -30 -1l17 79q5 -1 34 -1q25 0 39.5 13.5t14.5 35.5q0 35 -44 35q-42 0 -72 -36l-50 58q56 59 131 59q61 0 98.5 -26.5t37.5 -72.5
q0 -38 -26 -70.5t-70 -36.5q60 -18 60 -82z" />
    <glyph glyph-name="fourinferior" unicode="&#x2084;" 
d="M228 -62h-32l-18 -84h-101l18 84h-151l17 77l183 239h122l-52 -237h32zM112 17l28 125l-93 -125h65z" />
    <glyph glyph-name="fiveinferior" unicode="&#x2085;" 
d="M239 15q0 -70 -43 -119t-112 -49q-102 0 -145 70l74 55q19 -44 66 -44q24 0 39.5 22.5t15.5 50.5q0 40 -36 40q-33 0 -55 -32l-69 22l50 223h248l-18 -81h-148l-18 -87q26 28 61 28q38 0 64 -25t26 -74z" />
    <glyph glyph-name="sixinferior" unicode="&#x2086;" 
d="M240 18q0 -68 -41.5 -119.5t-107.5 -51.5q-60 0 -95 35.5t-35 101.5q0 64 21.5 125.5t68.5 106t108 44.5q72 0 111 -48l-63 -62q-15 29 -51 29q-52 0 -81 -99l-1 -8q29 49 80 49q36 0 61 -25.5t25 -77.5zM137 2q0 40 -33 40q-24 0 -42 -33q-4 -17 -4 -37q0 -44 31 -44
q21 0 34.5 25t13.5 49z" />
    <glyph glyph-name="seveninferior" unicode="&#x2087;" horiz-adv-x="283" 
d="M258 184l-186 -330h-97l186 319h-165l18 81h260z" />
    <glyph glyph-name="eightinferior" unicode="&#x2088;" 
d="M231 -32q0 -53 -37 -87t-100 -34q-67 0 -107.5 26t-40.5 76q0 42 29.5 75t71.5 43q-23 10 -37 30.5t-14 45.5q0 55 40.5 86t95.5 31t96.5 -24.5t41.5 -72.5q0 -40 -25.5 -71t-67.5 -39q22 -11 38 -34.5t16 -50.5zM167 150q0 33 -34 33q-17 0 -29 -15.5t-12 -35.5
q0 -16 9.5 -27t18.5 -14q47 13 47 59zM133 -23q0 18 -9.5 31t-18.5 16q-21 -2 -38 -21.5t-17 -44.5q0 -16 10 -25t27 -9q20 0 33 15t13 38z" />
    <glyph glyph-name="nineinferior" unicode="&#x2089;" 
d="M-16 90q0 68 41.5 119.5t107.5 51.5q60 0 95 -35.5t35 -101.5q0 -64 -21.5 -125.5t-68.5 -106t-108 -44.5q-72 0 -111 48l63 62q15 -29 51 -29q52 0 81 99l1 8q-29 -49 -80 -49q-36 0 -61 25.5t-25 77.5zM87 106q0 -40 33 -40q24 0 42 33q4 17 4 37q0 44 -31 44
q-21 0 -34.5 -25t-13.5 -49z" />
    <glyph glyph-name="parenleftinferior" unicode="&#x208d;" horiz-adv-x="175" 
d="M63 -186l-60 -25q-31 75 -31 164q0 195 148 366l49 -24q-55 -82 -87 -182t-32 -191q0 -68 13 -108z" />
    <glyph glyph-name="parenrightinferior" unicode="&#x208e;" horiz-adv-x="176" 
d="M27 295l60 25q31 -77 31 -165q0 -192 -148 -365l-50 24q56 82 88 181.5t32 191.5q0 68 -13 108z" />
    <glyph glyph-name="colonmonetary" unicode="&#x20a1;" horiz-adv-x="438" 
d="M214 -12h-10l-38 -88h-75l43 102q-14 6 -28 15l-50 -117h-75l74 171q-33 55 -33 140q0 50 9.5 108t32 122t55 115.5t83 85.5t110.5 36l39 90h75l-44 -101q11 -3 29 -13l49 114h76l-73 -168q30 -52 34 -131l-140 -27q-4 102 -47 102q-39 0 -71.5 -66t-47.5 -142t-15 -128
q0 -86 45 -86q42 0 79 80l121 -50q-74 -164 -207 -164z" />
    <glyph glyph-name="frenchfranc" unicode="&#x20a3;" horiz-adv-x="399" 
d="M156 0h-151l23 105h-46l17 76h46l107 486h314l-30 -132h-162l-29 -130h156l-29 -132h-156l-21 -92h78l-17 -76h-77z" />
    <glyph glyph-name="lira" unicode="&#x20a4;" horiz-adv-x="446" 
d="M50 334l15 68h27q-2 11 -2 36q0 103 72 171t159 68q72 0 121 -40t50 -114l-129 -36q-3 67 -41 67q-30 0 -50.5 -41.5t-20.5 -97.5v-13h85l-15 -68h-58v-7q0 -15 -4 -43h51l-15 -68h-55q-24 -54 -63 -79q21 8 36 8q22 0 52 -11.5t48 -11.5q38 0 67 27l11 -122
q-43 -39 -106 -39q-43 0 -92.5 20.5t-75.5 20.5q-39 0 -87 -36l-19 101q75 45 98 122h-86l16 68h77q-1 18 -9 50h-57z" />
    <glyph glyph-name="uni20A6" unicode="&#x20a6;" horiz-adv-x="531" 
d="M419 0h-141l-49 331l-73 -331h-151l50 229h-46l18 76h45l14 63h-46l17 76h46l49 223h151l42 -315l70 315h151l-49 -223h43l-17 -76h-43l-14 -63h43l-17 -76h-43z" />
    <glyph glyph-name="peseta" unicode="&#x20a7;" horiz-adv-x="511" 
d="M156 0h-151l91 412h-46l17 77h46l39 178h186q78 0 125.5 -50.5t47.5 -127.5h46l-17 -77h-39q-22 -79 -84.5 -128.5t-160.5 -49.5h-49zM268 366q45 0 71 46h-93l-10 -46h32zM274 535l-11 -46h89q-8 46 -49 46h-29z" />
    <glyph glyph-name="rupee" unicode="&#x20a8;" horiz-adv-x="816" 
d="M403 0h-158l-13 234h-37l-51 -234h-151l147 667h187q74 0 123 -51.5t49 -127.5t-39 -141.5t-86 -85.5zM258 366h-1q38 0 61 32t23 75q0 31 -14 46.5t-36 15.5h-29l-38 -169h34zM596 -12q-56 0 -104 22t-67 52l71 87q16 -23 43 -39t57 -16q23 0 38 13t15 31q0 17 -24 34.5
t-52.5 32.5t-52.5 47t-24 74q0 70 46.5 119.5t130.5 49.5q45 0 88 -18.5t72 -50.5l-69 -85q-11 17 -38 32.5t-54 15.5q-21 0 -33.5 -11t-12.5 -28q0 -15 24.5 -31.5t54 -32.5t54 -49t24.5 -75q0 -71 -51.5 -122.5t-135.5 -51.5z" />
    <glyph glyph-name="uni20A9" unicode="&#x20a9;" horiz-adv-x="686" 
d="M488 0h-151l38 388l-134 -388h-152l10 229h-77l17 76h63l3 63h-52l17 76h38l10 223h152l-42 -404l147 404h117l-30 -404l136 404h156l-89 -223h36l-17 -76h-49l-25 -63h60l-17 -76h-74z" />
    <glyph glyph-name="afii57636" unicode="&#x20aa;" horiz-adv-x="591" 
d="M341 0h-218l87 392h97l-65 -297h102q41 0 61.5 19t30.5 62l83 374h99l-88 -390q-17 -79 -67.5 -119.5t-121.5 -40.5zM107 550h174q64 0 114.5 -34t50.5 -103q0 -25 -7 -53l-44 -203h-99l48 215q3 12 3 25q0 58 -76 58h-86l-101 -455h-98z" />
    <glyph glyph-name="Euro" unicode="&#x20ac;" horiz-adv-x="467" 
d="M235 -12q-92 0 -142 59.5t-50 163.5v12h-34l18 83h23q4 27 12 57h-23l19 83h28q37 102 100.5 167t152.5 65q48 0 83.5 -18.5t55.5 -49.5t29.5 -66t10.5 -75l-140 -27q-4 102 -47 102q-47 0 -86 -98h92l-19 -83h-99q-7 -26 -12 -57h99l-19 -83h-90v-15q0 -86 45 -86
q42 0 79 80l121 -50q-74 -164 -207 -164z" />
    <glyph glyph-name="afii61289" unicode="&#x2113;" horiz-adv-x="458" 
d="M98 487l-80 -359q-6 -24 -6 -49q0 -91 127 -91q44 0 62 15v107q-10 -8 -21 -8q-25 0 -25 26q0 10 3 20l14 64l222 165q64 48 91 82.5t27 71.5q0 67 -57 106.5t-133 39.5q-181 0 -224 -190zM310 437l-106 -79l29 129q20 89 88 89q27 0 43 -13.5t16 -36.5q0 -17 -13 -35.5
t-21 -25t-36 -28.5z" />
    <glyph glyph-name="afii61352" unicode="&#x2116;" horiz-adv-x="825" 
d="M407 0h-141l-49 331l-73 -331h-151l147 667h151l42 -315l70 315h151zM701 350q-59 0 -91.5 35t-32.5 91q0 77 45 140.5t119 63.5q59 0 91.5 -35t32.5 -91q0 -77 -45.5 -140.5t-118.5 -63.5zM705 428q28 0 44.5 48.5t16.5 83.5q0 41 -31 41q-28 0 -44.5 -48.5t-16.5 -83.5
q0 -41 31 -41z" />
    <glyph glyph-name="published" unicode="&#x2117;" horiz-adv-x="778" 
d="M755 334q0 -142 -102 -243.5t-245 -101.5q-142 0 -243 101t-101 244t101 244t243 101q143 0 245 -101.5t102 -243.5zM717 334q0 126 -91.5 217t-217.5 91t-215.5 -90.5t-89.5 -217.5t89.5 -217.5t215.5 -90.5q127 0 218 90.5t91 217.5zM596 429q0 -57 -42.5 -94.5
t-105.5 -37.5h-120l-37 -166h-46l89 405h138q52 0 88 -28.5t36 -78.5zM547 426q0 30 -22 49t-60 19h-93l-35 -154h118q40 0 66 25t26 61z" />
    <glyph glyph-name="servicemark" unicode="&#x2120;" horiz-adv-x="374" 
d="M382 447h-28l40 182l-95 -182h-8l-15 182l-40 -182h-28l48 220h42l10 -157l78 157h44zM181 513q0 -29 -19.5 -50.5t-47.5 -21.5q-33 0 -50 24l18 22q12 -19 33 -19q12 0 24 13t12 28q0 18 -25 44.5t-25 48.5q0 29 17.5 50t44.5 21q29 0 45 -18l-18 -24q-10 15 -29 15
q-11 0 -20.5 -10.5t-9.5 -26.5q0 -13 25 -42.5t25 -53.5z" />
    <glyph glyph-name="trademark" unicode="&#x2122;" horiz-adv-x="374" 
d="M384 447h-28l40 182l-95 -182h-8l-15 182l-40 -182h-28l48 220h43l10 -157l78 157h43zM217 641h-42l-43 -194h-28l43 194h-42l5 26h112z" />
    <glyph glyph-name="estimated" unicode="&#x212e;" horiz-adv-x="842" 
d="M829 324h-632q-4 0 -4 -5v-190q0 -15 9 -23q98 -103 240 -103q151 0 250 115h57q-54 -63 -135 -99.5t-174 -36.5q-161 0 -275.5 103t-114.5 248t114.5 248t275.5 103t275.5 -103t114.5 -248zM687 349v191q0 14 -10 24q-97 99 -236 99t-238 -102q-10 -10 -10 -24v-188
q0 -6 5 -6h485q4 0 4 6z" />
    <glyph glyph-name="onethird" unicode="&#x2153;" horiz-adv-x="721" 
d="M604 667l-429 -667h-55l427 667h57zM677 118q0 -49 -40 -87t-102 -38q-49 0 -88 18.5t-57 51.5l73 57q21 -46 67 -46q23 0 36.5 17t13.5 38q0 35 -43 35q-24 0 -30 -1l17 79q5 -1 34 -1q25 0 39.5 13.5t14.5 35.5q0 35 -44 35q-42 0 -72 -36l-50 58q56 59 131 59
q61 0 98.5 -26.5t37.5 -72.5q0 -38 -26 -70.5t-70 -36.5q60 -18 60 -82zM224 267h-102l59 267l-64 -53l-46 61l153 125h88z" />
    <glyph glyph-name="twothirds" unicode="&#x2154;" horiz-adv-x="757" 
d="M640 667l-429 -667h-55l427 667h57zM713 118q0 -49 -40 -87t-102 -38q-49 0 -88 18.5t-57 51.5l73 57q21 -46 67 -46q23 0 36.5 17t13.5 38q0 35 -43 35q-24 0 -30 -1l17 79q5 -1 34 -1q25 0 39.5 13.5t14.5 35.5q0 35 -44 35q-42 0 -72 -36l-50 58q56 59 131 59
q61 0 98.5 -26.5t37.5 -72.5q0 -38 -26 -70.5t-70 -36.5q60 -18 60 -82zM299 267h-268l18 79q132 102 171 140.5t39 68.5q0 37 -43 37t-79 -43l-47 65q57 59 135 59q59 0 97.5 -28t38.5 -79t-40 -94.5t-146 -123.5h141z" />
    <glyph glyph-name="oneeighth" unicode="&#x215b;" horiz-adv-x="721" 
d="M604 667l-429 -667h-55l427 667h57zM676 114q0 -53 -37 -87t-100 -34q-67 0 -107.5 26t-40.5 76q0 42 29.5 75t71.5 43q-23 10 -37 30.5t-14 45.5q0 55 40.5 86t95.5 31t96.5 -24.5t41.5 -72.5q0 -40 -25.5 -71t-67.5 -39q22 -11 38 -34.5t16 -50.5zM612 296q0 33 -34 33
q-17 0 -29 -15.5t-12 -35.5q0 -16 9.5 -27t18.5 -14q47 13 47 59zM578 123q0 18 -9.5 31t-18.5 16q-21 -2 -38 -21.5t-17 -44.5q0 -16 10 -25t27 -9q20 0 33 15t13 38zM225 267h-102l59 267l-64 -53l-46 61l153 125h88z" />
    <glyph glyph-name="threeeighths" unicode="&#x215c;" horiz-adv-x="757" 
d="M640 667l-429 -667h-55l427 667h57zM712 114q0 -53 -37 -87t-100 -34q-67 0 -107.5 26t-40.5 76q0 42 29.5 75t71.5 43q-23 10 -37 30.5t-14 45.5q0 55 40.5 86t95.5 31t96.5 -24.5t41.5 -72.5q0 -40 -25.5 -71t-67.5 -39q22 -11 38 -34.5t16 -50.5zM648 296q0 33 -34 33
q-17 0 -29 -15.5t-12 -35.5q0 -16 9.5 -27t18.5 -14q47 13 47 59zM614 123q0 18 -9.5 31t-18.5 16q-21 -2 -38 -21.5t-17 -44.5q0 -16 10 -25t27 -9q20 0 33 15t13 38zM323 385q0 -49 -40 -87t-102 -38q-49 0 -88 18.5t-57 51.5l73 57q21 -46 67 -46q23 0 36.5 17t13.5 38
q0 35 -43 35q-24 0 -30 -1l17 79q5 -1 34 -1q25 0 39.5 13.5t14.5 35.5q0 35 -44 35q-42 0 -72 -36l-50 58q56 59 131 59q61 0 98.5 -26.5t37.5 -72.5q0 -38 -26 -70.5t-70 -36.5q60 -18 60 -82z" />
    <glyph glyph-name="fiveeighths" unicode="&#x215d;" horiz-adv-x="750" 
d="M633 667l-429 -667h-55l427 667h57zM705 114q0 -53 -37 -87t-100 -34q-67 0 -107.5 26t-40.5 76q0 42 29.5 75t71.5 43q-23 10 -37 30.5t-14 45.5q0 55 40.5 86t95.5 31t96.5 -24.5t41.5 -72.5q0 -40 -25.5 -71t-67.5 -39q22 -11 38 -34.5t16 -50.5zM641 296q0 33 -34 33
q-17 0 -29 -15.5t-12 -35.5q0 -16 9.5 -27t18.5 -14q47 13 47 59zM607 123q0 18 -9.5 31t-18.5 16q-21 -2 -38 -21.5t-17 -44.5q0 -16 10 -25t27 -9q20 0 33 15t13 38zM330 428q0 -70 -43 -119t-112 -49q-102 0 -145 70l74 55q19 -44 66 -44q24 0 39.5 22.5t15.5 50.5
q0 40 -36 40q-33 0 -55 -32l-69 22l50 223h248l-18 -81h-148l-18 -87q26 28 61 28q38 0 64 -25t26 -74z" />
    <glyph glyph-name="seveneighths" unicode="&#x215e;" horiz-adv-x="697" 
d="M581 667l-429 -667h-55l427 667h57zM653 114q0 -53 -37 -87t-100 -34q-67 0 -107.5 26t-40.5 76q0 42 29.5 75t71.5 43q-23 10 -37 30.5t-14 45.5q0 55 40.5 86t95.5 31t96.5 -24.5t41.5 -72.5q0 -40 -25.5 -71t-67.5 -39q22 -11 38 -34.5t16 -50.5zM589 296q0 33 -34 33
q-17 0 -29 -15.5t-12 -35.5q0 -16 9.5 -27t18.5 -14q47 13 47 59zM555 123q0 18 -9.5 31t-18.5 16q-21 -2 -38 -21.5t-17 -44.5q0 -16 10 -25t27 -9q20 0 33 15t13 38zM349 597l-186 -330h-97l186 319h-165l18 81h260z" />
    <glyph glyph-name="arrowleft" unicode="&#x2190;" horiz-adv-x="582" 
d="M558 211h-269l12 -130l-281 205l281 204l-12 -129h269v-150z" />
    <glyph glyph-name="arrowup" unicode="&#x2191;" horiz-adv-x="582" 
d="M236 17v269l-130 -12l205 281l204 -281l-129 12v-269h-150z" />
    <glyph glyph-name="arrowright" unicode="&#x2192;" horiz-adv-x="582" 
d="M604 286l-281 -205l12 130h-268v150h268l-12 129z" />
    <glyph glyph-name="arrowdown" unicode="&#x2193;" horiz-adv-x="582" 
d="M386 555v-269l130 12l-205 -281l-204 281l129 -12v269h150z" />
    <glyph glyph-name="partialdiff" unicode="&#x2202;" horiz-adv-x="434" 
d="M188 -12q-87 0 -132 48.5t-45 129.5q0 64 22.5 129.5t70 114t106.5 48.5q40 0 64.5 -23.5t30.5 -59.5q0 195 -41 293l132 40q43 -126 43 -272q0 -75 -13.5 -149.5t-41.5 -143.5t-79 -112t-117 -43zM191 108q26 0 46 30t29.5 67.5t9.5 70.5q0 62 -45 62q-37 0 -60 -58.5
t-23 -109.5q0 -62 43 -62z" />
    <glyph glyph-name="product" unicode="&#x220f;" horiz-adv-x="561" 
d="M419 -90h-151l138 625h-124l-137 -625h-152l138 625h-49l29 132h525l-29 -132h-50z" />
    <glyph glyph-name="summation" unicode="&#x2211;" horiz-adv-x="381" 
d="M308 291l-57 244h166l29 132h-321l-29 -132l58 -237l-167 -250l-30 -138h322l29 132h-167z" />
    <glyph glyph-name="minus" unicode="&#x2212;" horiz-adv-x="385" 
d="M367 293h-328l19 83h327z" />
    <glyph glyph-name="radical" unicode="&#x221a;" horiz-adv-x="465" 
d="M234 0h-88l1 295l-88 -17l4 81l166 31l-9 -255l235 532h85z" />
    <glyph glyph-name="infinity" unicode="&#x221e;" horiz-adv-x="501" 
d="M137 157q-47 0 -71 33.5t-24 90.5q0 85 42.5 159.5t110.5 74.5q38 0 62.5 -28t30.5 -72q50 99 115 99q48 0 71.5 -33.5t23.5 -90.5q0 -85 -42 -159t-110 -74q-38 0 -63 27.5t-31 71.5q-24 -47 -50.5 -73t-64.5 -26zM344 239q31 0 52.5 43.5t21.5 89.5q0 61 -36 61
q-34 0 -77 -101q3 -93 39 -93zM160 239q35 0 77 101q-3 93 -39 93q-31 0 -53 -43.5t-22 -89.5q0 -29 10 -45t27 -16z" />
    <glyph glyph-name="integral" unicode="&#x222b;" horiz-adv-x="249" 
d="M-33 -100h-26l19 88h27q32 0 40 37l137 618q28 125 157 125h27l-20 -89h-27q-32 0 -40 -36l-137 -618q-28 -125 -157 -125z" />
    <glyph glyph-name="approxequal" unicode="&#x2248;" horiz-adv-x="385" 
d="M19 199l19 86q34 -20 77 -20q34 0 82.5 18t89.5 18q44 0 78 -16l-19 -86q-32 19 -77 19q-34 0 -82.5 -17.5t-89.5 -17.5q-46 0 -78 16zM59 383l19 86q34 -20 78 -20q34 0 82.5 18t89.5 18q45 0 77 -16l-18 -86q-34 19 -77 19q-34 0 -82.5 -17.5t-89.5 -17.5q-44 0 -79 16
z" />
    <glyph glyph-name="notequal" unicode="&#x2260;" horiz-adv-x="385" 
d="M86 93h-59l68 106h-76l18 83h112l67 104h-156l18 83h191l68 105h60l-68 -105h76l-18 -83h-112l-67 -104h156l-18 -83h-192z" />
    <glyph glyph-name="lessequal" unicode="&#x2264;" horiz-adv-x="385" 
d="M335 153l-297 133l21 98l357 133l-22 -102l-251 -85l213 -83zM306 18h-327l18 83h327z" />
    <glyph glyph-name="greaterequal" unicode="&#x2265;" horiz-adv-x="385" 
d="M365 286l-357 -133l23 102l251 83l-214 85l21 94l298 -133zM306 18h-327l18 83h327z" />
    <glyph glyph-name="triangleright" unicode="&#x22b2;" horiz-adv-x="587" 
d="M609 286l-535 -309v618z" />
    <glyph glyph-name="triangleleft" unicode="&#x22b3;" horiz-adv-x="587" 
d="M555 595v-618l-535 309z" />
    <glyph glyph-name="uni2318" unicode="&#x2318;" horiz-adv-x="667" 
d="M197 153l14 66h-71q-29 0 -51.5 -22t-22.5 -51q0 -24 15.5 -41t39.5 -17q29 0 49 17.5t27 47.5zM262 448l13 56q2 12 2 18q0 25 -16 41t-42 16q-31 0 -52.5 -20.5t-21.5 -51.5q0 -27 18 -43t46 -16h53zM269 265h137l31 137h-137zM560 160q0 27 -18 43t-45 16h-54l-12 -56
q-2 -10 -2 -18q0 -25 15.5 -41t41.5 -16q31 0 52.5 20.5t21.5 51.5zM640 521q0 24 -16 41t-40 17q-29 0 -49 -17.5t-27 -47.5l-14 -66h72q29 0 51.5 22.5t22.5 50.5zM606 160q0 -48 -38.5 -83t-88.5 -35q-42 0 -70 28t-28 70q0 14 3 29l12 50h-137l-17 -74
q-11 -46 -45 -74.5t-80 -28.5q-41 0 -70 28t-29 69q0 50 38 88t87 38h79l31 137h-54q-45 0 -72.5 29.5t-27.5 75.5q0 48 38.5 83t88.5 35q42 0 70 -28t28 -70q0 -14 -3 -29l-11 -50h137l16 74q11 46 45 74.5t80 28.5q42 0 71 -28t29 -69q0 -50 -38 -88t-87 -38h-79l-31 -137
h51q45 0 73.5 -29.5t28.5 -75.5z" />
    <glyph glyph-name="uni2318" unicode="&#xf8ff;" horiz-adv-x="667" 
d="M197 153l14 66h-71q-29 0 -51.5 -22t-22.5 -51q0 -24 15.5 -41t39.5 -17q29 0 49 17.5t27 47.5zM262 448l13 56q2 12 2 18q0 25 -16 41t-42 16q-31 0 -52.5 -20.5t-21.5 -51.5q0 -27 18 -43t46 -16h53zM269 265h137l31 137h-137zM560 160q0 27 -18 43t-45 16h-54l-12 -56
q-2 -10 -2 -18q0 -25 15.5 -41t41.5 -16q31 0 52.5 20.5t21.5 51.5zM640 521q0 24 -16 41t-40 17q-29 0 -49 -17.5t-27 -47.5l-14 -66h72q29 0 51.5 22.5t22.5 50.5zM606 160q0 -48 -38.5 -83t-88.5 -35q-42 0 -70 28t-28 70q0 14 3 29l12 50h-137l-17 -74
q-11 -46 -45 -74.5t-80 -28.5q-41 0 -70 28t-29 69q0 50 38 88t87 38h79l31 137h-54q-45 0 -72.5 29.5t-27.5 75.5q0 48 38.5 83t88.5 35q42 0 70 -28t28 -70q0 -14 -3 -29l-11 -50h137l16 74q11 46 45 74.5t80 28.5q42 0 71 -28t29 -69q0 -50 -38 -88t-87 -38h-79l-31 -137
h51q45 0 73.5 -29.5t28.5 -75.5z" />
    <glyph glyph-name="blacksquare" unicode="&#x25a0;" horiz-adv-x="661" 
d="M638 0h-571v572h571v-572z" />
    <glyph glyph-name="triagup" unicode="&#x25b2;" horiz-adv-x="616" 
d="M637 29l-619 1l309 535z" />
    <glyph glyph-name="triagdn" unicode="&#x25bc;" horiz-adv-x="616" 
d="M637 510l-310 -535l-309 535h619z" />
    <glyph glyph-name="lozenge" unicode="&#x25ca;" horiz-adv-x="375" 
d="M144 0h-21l-84 334l231 333h21l85 -333zM142 45l197 293l-67 284l-196 -292z" />
    <glyph glyph-name="circlesolid" unicode="&#x25cf;" horiz-adv-x="695" 
d="M664 285q0 -123 -87 -210t-210 -87t-210 87t-87 210t87 210t210 87t210 -87t87 -210z" />
    <glyph glyph-name="blackstar" unicode="&#x2605;" horiz-adv-x="759" 
d="M779 421l-235 -171l90 -275l-235 170l-234 -170l89 275l-234 171h290l89 276l90 -276h290z" />
    <glyph glyph-name="ballotbox" unicode="&#x2610;" horiz-adv-x="661" 
d="M636 0h-571v572h571v-572zM546 83v406h-390v-406h390z" />
    <glyph glyph-name="boxchecked" unicode="&#x2611;" horiz-adv-x="661" 
d="M656 0h-571v572h484l93 170l71 -44l-77 -142v-556zM566 83v307l-162 -299l-202 246l64 60l126 -152l132 244h-348v-406h390z" />
    <glyph glyph-name="diamond" unicode="&#x2666;" horiz-adv-x="501" 
d="M521 285l-251 -250l-250 250l250 251z" />
    <glyph glyph-name="checkmark" unicode="&#x2713;" horiz-adv-x="531" 
d="M551 698l-329 -607l-202 246l64 60l126 -152l270 497z" />
    <glyph glyph-name="perthousand.onum" unicode="&#xf628;" horiz-adv-x="727" 
d="M281 453q0 -64 -37.5 -116t-95.5 -52q-48 0 -74.5 29t-26.5 80q0 64 38 116t96 52q48 0 74 -29t26 -80zM463 550l-373 -550h-54l372 550h55zM203 452q0 41 -25 41q-23 0 -37.5 -31t-14.5 -66q0 -41 25 -41q22 0 37 31t15 66zM451 158q0 -64 -37.5 -116t-95.5 -52
q-48 0 -74 29t-26 80q0 63 37.5 115.5t95.5 52.5q47 0 73.5 -29.5t26.5 -79.5zM373 157q0 41 -25 41q-23 0 -37.5 -31t-14.5 -67q0 -40 25 -40q22 0 37 31t15 66zM693 158q0 -64 -37.5 -116t-95.5 -52q-48 0 -74 29t-26 80q0 63 38 115.5t96 52.5q47 0 73 -29.5t26 -79.5z
M615 157q0 41 -25 41q-22 0 -37 -31t-15 -67q0 -40 25 -40q23 0 37.5 31t14.5 66z" />
    <glyph glyph-name="zero.tzero" unicode="&#xf638;" horiz-adv-x="466" 
d="M198 -12q-72 0 -119 49l-27 -37h-88l76 104q-17 48 -17 110q0 111 36.5 217t103 176t144.5 70q72 0 118 -49l28 39h87l-76 -104q17 -48 17 -111q0 -111 -36 -217t-102.5 -176.5t-144.5 -70.5zM212 122q36 0 65 75t45 173l-150 -206q5 -42 40 -42zM293 543
q-36 0 -65 -73.5t-45 -170.5l149 204q-5 40 -39 40z" />
    <glyph glyph-name="zero.tnum" unicode="&#xf639;" horiz-adv-x="466" 
d="M198 -12q-79 0 -127 59t-48 167q0 111 36.5 217t103 176t144.5 70q79 0 126.5 -58.5t47.5 -166.5q0 -111 -36 -217t-102.5 -176.5t-144.5 -70.5zM212 122q33 0 63 73t44.5 153.5t14.5 129.5q0 65 -41 65q-34 0 -63.5 -73t-44 -153.5t-14.5 -128.5q0 -66 41 -66z" />
    <glyph glyph-name="two.tnum" unicode="&#xf63a;" horiz-adv-x="466" 
d="M390 0h-402l34 151q33 29 82.5 72t73.5 64t56.5 51t47.5 46t31 36.5t21.5 35.5t5.5 30q0 27 -16 42t-46 15q-61 0 -112 -58l-73 99q86 93 201 93q91 0 147.5 -45.5t56.5 -127.5q0 -81 -55 -150.5t-206 -206.5q-11 -10 -17 -15h199z" />
    <glyph glyph-name="three.tnum" unicode="&#xf63b;" horiz-adv-x="466" 
d="M205 -12q-75 0 -138.5 36t-83.5 98l119 78q13 -37 40.5 -57.5t62.5 -20.5q39 0 59.5 29.5t20.5 65.5q0 27 -19.5 41t-47.5 14q-29 0 -40 -2l31 135q7 -1 53 -1q38 0 57.5 25.5t19.5 60.5q0 53 -71 53q-56 0 -95 -48l-78 90q85 92 198 92q89 0 144.5 -40t55.5 -114
q0 -71 -46 -123t-106 -62q47 -15 69 -51t22 -79q0 -92 -65.5 -156t-161.5 -64z" />
    <glyph glyph-name="four.tnum" unicode="&#xf63c;" horiz-adv-x="466" 
d="M345 0h-151l29 133h-231l32 145l285 389h183l-89 -401h49l-29 -133h-49zM252 266l50 227l-158 -227h108z" />
    <glyph glyph-name="five.tnum" unicode="&#xf63d;" horiz-adv-x="466" 
d="M198 -12q-161 0 -215 133l116 79q13 -37 39.5 -57.5t58.5 -20.5q37 0 63.5 37.5t26.5 86.5q0 28 -15.5 44.5t-44.5 16.5q-42 0 -79 -43l-103 37l81 366h375l-29 -132h-224l-32 -149q37 44 98 44q60 0 96 -43t36 -119q0 -114 -69 -197t-179 -83z" />
    <glyph glyph-name="six.tnum" unicode="&#xf63e;" horiz-adv-x="466" 
d="M213 -12q-91 0 -140.5 58.5t-49.5 166.5q0 68 19 145t55 150t99 121t140 48q54 0 97.5 -22.5t66.5 -62.5l-98 -101q-18 52 -73 52q-41 0 -75 -45.5t-53 -111.5q-3 -10 -7 -28q23 35 56 55t67 20q57 0 93.5 -41.5t36.5 -112.5t-27.5 -137t-82 -110t-124.5 -44zM216 122
q33 0 53.5 43.5t20.5 84.5q0 26 -12 43.5t-35 17.5q-36 0 -69 -58q-5 -23 -5 -59q0 -72 47 -72z" />
    <glyph glyph-name="seven.tnum" unicode="&#xf63f;" horiz-adv-x="466" 
d="M202 0h-166l283 535h-218l30 132h389l-24 -105z" />
    <glyph glyph-name="eight.tnum" unicode="&#xf640;" horiz-adv-x="466" 
d="M209 -12q-103 0 -156 37.5t-53 119.5q0 66 41 125.5t119 84.5q-34 17 -55.5 51.5t-21.5 76.5q0 84 65.5 139t150.5 55q82 0 140 -37.5t58 -117.5q0 -68 -42.5 -121t-107.5 -67q41 -22 62.5 -60t21.5 -82q0 -89 -61.5 -146.5t-160.5 -57.5zM265 391q78 27 78 104
q0 48 -48 48q-29 0 -48 -25.5t-19 -62.5q0 -40 37 -64zM208 122q30 0 52 29t22 71q0 27 -13 45.5t-26 24.5q-35 -9 -61 -39.5t-26 -76.5q0 -26 14 -40t38 -14z" />
    <glyph glyph-name="nine.tnum" unicode="&#xf641;" horiz-adv-x="466" 
d="M291 678q91 0 140.5 -58.5t49.5 -166.5q0 -68 -19 -145t-55 -150t-99 -121t-140 -48q-113 0 -164 85l99 101q16 -52 73 -52q41 0 74.5 45.5t52.5 111.5q6 18 8 28q-23 -35 -56 -55t-68 -20q-56 0 -93 42t-37 112q0 71 27.5 137t82 110t124.5 44zM289 544q-33 0 -54 -43.5
t-21 -84.5q0 -26 12 -43.5t36 -17.5q35 0 68 58q6 28 6 59q0 72 -47 72z" />
    <glyph glyph-name="percent.onum" unicode="&#xf642;" horiz-adv-x="485" 
d="M281 453q0 -64 -37.5 -116t-95.5 -52q-48 0 -74.5 29t-26.5 80q0 64 38 116t96 52q48 0 74 -29t26 -80zM463 550l-373 -550h-54l372 550h55zM203 452q0 41 -25 41q-23 0 -37.5 -31t-14.5 -66q0 -41 25 -41q22 0 37 31t15 66zM451 158q0 -64 -37.5 -116t-95.5 -52
q-48 0 -74 29t-26 80q0 63 37.5 115.5t95.5 52.5q47 0 73.5 -29.5t26.5 -79.5zM373 157q0 41 -25 41q-23 0 -37.5 -31t-14.5 -67q0 -40 25 -40q22 0 37 31t15 66z" />
    <glyph glyph-name="zero.tonum" unicode="&#xf643;" horiz-adv-x="466" 
d="M464 357q0 -56 -17 -118.5t-48 -119.5t-83 -94t-115 -37q-87 0 -136.5 54t-49.5 151q0 56 17 118.5t48 119.5t83 94t115 37q86 0 136 -54t50 -151zM311 360q0 68 -42 68q-24 0 -44.5 -30t-32.5 -71.5t-18.5 -78.5t-6.5 -58q0 -68 43 -68q44 0 72.5 90.5t28.5 147.5z" />
    <glyph glyph-name="one.tonum" unicode="&#xf644;" horiz-adv-x="466" 
d="M325 0h-151l78 356l-109 -92l-66 91l238 195h131z" />
    <glyph glyph-name="two.tonum" unicode="&#xf645;" horiz-adv-x="466" 
d="M366 0h-378l28 126q285 158 285 254q0 23 -15.5 36.5t-42.5 13.5q-61 0 -103 -58l-77 91q84 99 201 99q88 0 143 -40.5t55 -107.5q0 -75 -59 -143t-174 -139h166z" />
    <glyph glyph-name="three.tonum" unicode="&#xf646;" horiz-adv-x="466" 
d="M179 -129q-75 0 -138.5 36t-83.5 98l119 78q13 -37 40.5 -57.5t62.5 -20.5q39 0 59.5 29.5t20.5 65.5q0 27 -19.5 41t-47.5 14q-29 0 -40 -2l31 135q7 -1 53 -1q38 0 57.5 25.5t19.5 60.5q0 53 -71 53q-56 0 -95 -48l-78 90q85 92 198 92q89 0 144.5 -40t55.5 -114
q0 -71 -46 -123t-106 -62q47 -15 69 -51t22 -79q0 -92 -65.5 -156t-161.5 -64z" />
    <glyph glyph-name="four.tonum" unicode="&#xf647;" horiz-adv-x="466" 
d="M399 23h-49l-31 -140h-151l31 140h-231l30 134l292 393h176l-87 -394h49zM228 156l49 221l-157 -221h108z" />
    <glyph glyph-name="five.tonum" unicode="&#xf648;" horiz-adv-x="466" 
d="M172 -129q-161 0 -215 133l116 79q13 -37 39.5 -57.5t58.5 -20.5q37 0 63.5 37.5t26.5 86.5q0 28 -15.5 44.5t-44.5 16.5q-42 0 -79 -43l-103 37l81 366h375l-29 -132h-224l-32 -149q37 44 98 44q60 0 96 -43t36 -119q0 -114 -69 -197t-179 -83z" />
    <glyph glyph-name="six.tonum" unicode="&#xf649;" horiz-adv-x="466" 
d="M213 -12q-91 0 -140.5 58.5t-49.5 166.5q0 68 19 145t55 150t99 121t140 48q54 0 97.5 -22.5t66.5 -62.5l-98 -101q-18 52 -73 52q-41 0 -75 -45.5t-53 -111.5q-3 -10 -7 -28q23 35 56 55t67 20q57 0 93.5 -41.5t36.5 -112.5t-27.5 -137t-82 -110t-124.5 -44zM216 122
q33 0 53.5 43.5t20.5 84.5q0 26 -12 43.5t-35 17.5q-36 0 -69 -58q-5 -23 -5 -59q0 -72 47 -72z" />
    <glyph glyph-name="seven.tonum" unicode="&#xf64a;" horiz-adv-x="466" 
d="M176 -117h-166l283 535h-218l30 132h389l-24 -105z" />
    <glyph glyph-name="eight.tonum" unicode="&#xf64b;" horiz-adv-x="466" 
d="M209 -12q-103 0 -156 37.5t-53 119.5q0 66 41 125.5t119 84.5q-34 17 -55.5 51.5t-21.5 76.5q0 84 65.5 139t150.5 55q82 0 140 -37.5t58 -117.5q0 -68 -42.5 -121t-107.5 -67q41 -22 62.5 -60t21.5 -82q0 -89 -61.5 -146.5t-160.5 -57.5zM265 391q78 27 78 104
q0 48 -48 48q-29 0 -48 -25.5t-19 -62.5q0 -40 37 -64zM208 122q30 0 52 29t22 71q0 27 -13 45.5t-26 24.5q-35 -9 -61 -39.5t-26 -76.5q0 -26 14 -40t38 -14z" />
    <glyph glyph-name="nine.tonum" unicode="&#xf64c;" horiz-adv-x="466" 
d="M265 561q91 0 140.5 -58.5t49.5 -166.5q0 -68 -19 -145t-55 -150t-99 -121t-140 -48q-113 0 -164 85l99 101q16 -52 73 -52q41 0 74.5 45.5t52.5 111.5q6 18 8 28q-23 -35 -56 -55t-68 -20q-56 0 -93 42t-37 112q0 71 27.5 137t82 110t124.5 44zM263 427q-33 0 -54 -43.5
t-21 -84.5q0 -26 12 -43.5t36 -17.5q35 0 68 58q6 28 6 59q0 72 -47 72z" />
    <glyph glyph-name="colonmonetary.onum" unicode="&#xf64d;" horiz-adv-x="403" 
d="M21 -53l39 94q-43 49 -43 139q0 42 9 91t29 101t48 94t71 69t94 27q11 0 16 -1l16 38h51l-20 -47q14 -6 20 -9l24 56h51l-38 -88q31 -40 36 -113l-119 -24q-3 65 -41 65q-45 0 -74.5 -95t-29.5 -161q0 -72 42 -72q20 0 34 17t28 51l104 -46q-33 -67 -73.5 -106
t-106.5 -39q-8 0 -24 2l-17 -43h-50l22 53l-21 9l-26 -62h-51z" />
    <glyph glyph-name="Euro.onum" unicode="&#xf64e;" horiz-adv-x="420" 
d="M265 298h-72q-6 -23 -9 -47h71l-14 -63h-64v-5q0 -72 42 -72q20 0 34 17t28 51l104 -46q-33 -67 -73.5 -106t-106.5 -39q-76 0 -123.5 48t-47.5 144v8h-33l14 63h24q7 35 10 47h-24l14 63h28q31 88 86 144.5t132 56.5q146 0 156 -164l-119 -24q-3 65 -41 65
q-39 0 -69 -78h67z" />
    <glyph glyph-name="florin.onum" unicode="&#xf64f;" horiz-adv-x="390" 
d="M123 -119h-154l70 319h-34v96h56l25 111q20 81 65.5 117.5t104.5 36.5q57 0 90 -28l-50 -114q-9 10 -22 10q-28 0 -39 -48l-19 -85h54v-96h-76z" />
    <glyph glyph-name="numbersign.onum" unicode="&#xf650;" horiz-adv-x="402" 
d="M422 403l-31 -71h-46l-50 -110h48l-34 -73h-47l-66 -149h-89l69 149h-52l-66 -149h-89l68 149h-44l33 73h45l49 110h-45l32 71h46l66 147h89l-67 -147h50l66 147h89l-67 -147h43zM257 332h-50l-48 -110h49z" />
    <glyph glyph-name="sterling.onum" unicode="&#xf651;" horiz-adv-x="367" 
d="M19 231l17 72h32q-4 32 -4 55q0 92 57 147.5t133 55.5q59 0 100 -33.5t42 -91.5l-110 -26q-3 52 -30 52t-40.5 -40t-13.5 -85q0 -22 1 -34h60l-16 -72h-44q-1 -5 -1 -14q-5 -58 -53 -104q12 4 17 4q18 0 41.5 -8.5t39.5 -8.5q33 0 53 24l12 -98q-35 -35 -91 -35
q-38 0 -75 15.5t-59 15.5q-29 0 -72 -30l-18 84q34 19 58.5 53.5t24.5 80.5q0 14 -1 21h-60z" />
    <glyph glyph-name="yen.onum" unicode="&#xf652;" horiz-adv-x="405" 
d="M219 0h-141l24 107h-110l16 70h109l11 47h-110l16 71h80l-52 255h146l19 -188l102 188h148l-164 -255h81l-16 -71h-110l-11 -47h111l-16 -70h-110z" />
    <glyph glyph-name="cent.onum" unicode="&#xf654;" horiz-adv-x="403" 
d="M105 -82l18 81q-106 36 -106 181q0 52 13.5 112t40 119t73 101t104.5 48l14 64h96l-17 -76q75 -33 83 -150l-119 -24q-3 65 -41 65q-45 0 -74.5 -95t-29.5 -161q0 -72 42 -72q20 0 34 17t28 51l104 -46q-30 -60 -64 -97t-87 -45l-16 -73h-96z" />
    <glyph glyph-name="zero.dnom" unicode="&#xf655;" 
d="M295 264q0 -54 -18 -114t-61 -108.5t-101 -48.5q-56 0 -89.5 35.5t-33.5 106.5q0 54 18 114t61 108.5t101 48.5q56 0 89.5 -35.5t33.5 -106.5zM196 281q0 44 -28 44q-31 0 -54 -76.5t-23 -130.5q0 -44 28 -44q31 0 54 76.5t23 130.5z" />
    <glyph glyph-name="one.dnom" unicode="&#xf656;" horiz-adv-x="259" 
d="M166 0h-102l59 267l-64 -53l-46 61l153 125h88z" />
    <glyph glyph-name="two.dnom" unicode="&#xf657;" 
d="M240 0h-268l18 79q132 102 171 140.5t39 68.5q0 37 -43 37t-79 -43l-47 65q57 59 135 59q59 0 97.5 -28t38.5 -79t-40 -94.5t-146 -123.5h141z" />
    <glyph glyph-name="three.dnom" unicode="&#xf658;" 
d="M264 118q0 -49 -40 -87t-102 -38q-49 0 -88 18.5t-57 51.5l73 57q21 -46 67 -46q23 0 36.5 17t13.5 38q0 35 -43 35q-24 0 -30 -1l17 79q5 -1 34 -1q25 0 39.5 13.5t14.5 35.5q0 35 -44 35q-42 0 -72 -36l-50 58q56 59 131 59q61 0 98.5 -26.5t37.5 -72.5
q0 -38 -26 -70.5t-70 -36.5q60 -18 60 -82z" />
    <glyph glyph-name="four.dnom" unicode="&#xf659;" 
d="M260 84h-32l-18 -84h-101l18 84h-151l17 77l183 239h122l-52 -237h32zM144 163l28 125l-93 -125h65z" />
    <glyph glyph-name="five.dnom" unicode="&#xf65a;" 
d="M271 161q0 -70 -43 -119t-112 -49q-102 0 -145 70l74 55q19 -44 66 -44q24 0 39.5 22.5t15.5 50.5q0 40 -36 40q-33 0 -55 -32l-69 22l50 223h248l-18 -81h-148l-18 -87q26 28 61 28q38 0 64 -25t26 -74z" />
    <glyph glyph-name="six.dnom" unicode="&#xf65b;" 
d="M272 164q0 -68 -41.5 -119.5t-107.5 -51.5q-60 0 -95 35.5t-35 101.5q0 64 21.5 125.5t68.5 106t108 44.5q72 0 111 -48l-63 -62q-15 29 -51 29q-52 0 -81 -99l-1 -8q29 49 80 49q36 0 61 -25.5t25 -77.5zM169 148q0 40 -33 40q-24 0 -42 -33q-4 -17 -4 -37q0 -44 31 -44
q21 0 34.5 25t13.5 49z" />
    <glyph glyph-name="seven.dnom" unicode="&#xf65c;" horiz-adv-x="283" 
d="M290 330l-186 -330h-97l186 319h-165l18 81h260z" />
    <glyph glyph-name="eight.dnom" unicode="&#xf65d;" 
d="M263 114q0 -53 -37 -87t-100 -34q-67 0 -107.5 26t-40.5 76q0 42 29.5 75t71.5 43q-23 10 -37 30.5t-14 45.5q0 55 40.5 86t95.5 31t96.5 -24.5t41.5 -72.5q0 -40 -25.5 -71t-67.5 -39q22 -11 38 -34.5t16 -50.5zM199 296q0 33 -34 33q-17 0 -29 -15.5t-12 -35.5
q0 -16 9.5 -27t18.5 -14q47 13 47 59zM165 123q0 18 -9.5 31t-18.5 16q-21 -2 -38 -21.5t-17 -44.5q0 -16 10 -25t27 -9q20 0 33 15t13 38z" />
    <glyph glyph-name="nine.dnom" unicode="&#xf65e;" 
d="M16 236q0 68 41.5 119.5t107.5 51.5q60 0 95 -35.5t35 -101.5q0 -64 -21.5 -125.5t-68.5 -106t-108 -44.5q-72 0 -111 48l63 62q15 -29 51 -29q52 0 81 99l1 8q-29 -49 -80 -49q-36 0 -61 25.5t-25 77.5zM119 252q0 -40 33 -40q24 0 42 33q4 17 4 37q0 44 -31 44
q-21 0 -34.5 -25t-13.5 -49z" />
    <glyph glyph-name="zero.numr" unicode="&#xf661;" 
d="M354 531q0 -54 -18 -114t-61 -108.5t-101 -48.5q-56 0 -89.5 35.5t-33.5 106.5q0 54 18 114t61 108.5t101 48.5q56 0 89.5 -35.5t33.5 -106.5zM255 548q0 44 -28 44q-31 0 -54 -76.5t-23 -130.5q0 -44 28 -44q31 0 54 76.5t23 130.5z" />
    <glyph glyph-name="one.numr" unicode="&#xf662;" horiz-adv-x="259" 
d="M225 267h-102l59 267l-64 -53l-46 61l153 125h88z" />
    <glyph glyph-name="two.numr" unicode="&#xf663;" 
d="M299 267h-268l18 79q132 102 171 140.5t39 68.5q0 37 -43 37t-79 -43l-47 65q57 59 135 59q59 0 97.5 -28t38.5 -79t-40 -94.5t-146 -123.5h141z" />
    <glyph glyph-name="three.numr" unicode="&#xf664;" 
d="M323 385q0 -49 -40 -87t-102 -38q-49 0 -88 18.5t-57 51.5l73 57q21 -46 67 -46q23 0 36.5 17t13.5 38q0 35 -43 35q-24 0 -30 -1l17 79q5 -1 34 -1q25 0 39.5 13.5t14.5 35.5q0 35 -44 35q-42 0 -72 -36l-50 58q56 59 131 59q61 0 98.5 -26.5t37.5 -72.5
q0 -38 -26 -70.5t-70 -36.5q60 -18 60 -82z" />
    <glyph glyph-name="four.numr" unicode="&#xf665;" 
d="M319 351h-32l-18 -84h-101l18 84h-151l17 77l183 239h122l-52 -237h32zM203 430l28 125l-93 -125h65z" />
    <glyph glyph-name="five.numr" unicode="&#xf666;" 
d="M330 428q0 -70 -43 -119t-112 -49q-102 0 -145 70l74 55q19 -44 66 -44q24 0 39.5 22.5t15.5 50.5q0 40 -36 40q-33 0 -55 -32l-69 22l50 223h248l-18 -81h-148l-18 -87q26 28 61 28q38 0 64 -25t26 -74z" />
    <glyph glyph-name="six.numr" unicode="&#xf667;" 
d="M331 431q0 -68 -41.5 -119.5t-107.5 -51.5q-60 0 -95 35.5t-35 101.5q0 64 21.5 125.5t68.5 106t108 44.5q72 0 111 -48l-63 -62q-14 29 -51 29q-52 0 -81 -99l-1 -8q29 49 80 49q36 0 61 -25.5t25 -77.5zM228 415q0 40 -33 40q-24 0 -42 -33q-4 -17 -4 -37q0 -44 31 -44
q21 0 34.5 25t13.5 49z" />
    <glyph glyph-name="seven.numr" unicode="&#xf668;" horiz-adv-x="283" 
d="M349 597l-186 -330h-97l186 319h-165l18 81h260z" />
    <glyph glyph-name="eight.numr" unicode="&#xf669;" 
d="M322 381q0 -53 -37 -87t-100 -34q-67 0 -107.5 26t-40.5 76q0 42 29.5 75t71.5 43q-23 10 -37 30.5t-14 45.5q0 55 40.5 86t95.5 31t96.5 -24.5t41.5 -72.5q0 -40 -25.5 -71t-67.5 -39q22 -11 38 -34.5t16 -50.5zM258 563q0 33 -34 33q-17 0 -29 -15.5t-12 -35.5
q0 -16 9.5 -27t18.5 -14q47 13 47 59zM224 390q0 18 -9.5 31t-18.5 16q-21 -2 -38 -21.5t-17 -44.5q0 -16 10 -25t27 -9q20 0 33 15t13 38z" />
    <glyph glyph-name="nine.numr" unicode="&#xf66a;" 
d="M75 503q0 68 41.5 119.5t107.5 51.5q60 0 95 -35.5t35 -101.5q0 -64 -21.5 -125.5t-68.5 -106t-108 -44.5q-72 0 -111 48l63 62q14 -29 51 -29q52 0 81 99l1 8q-29 -49 -80 -49q-36 0 -61 25.5t-25 77.5zM178 519q0 -40 33 -40q24 0 42 33q4 17 4 37q0 44 -31 44
q-21 0 -34.5 -25t-13.5 -49z" />
    <glyph glyph-name="Abreve.smcp" unicode="&#xf66d;" horiz-adv-x="399" 
d="M186 550h160l2 -550h-144l6 86h-90l-32 -86h-145zM221 208l13 189l-72 -189h59zM418 659q-59 -64 -140 -64q-79 0 -113 64l68 46q16 -34 58 -34q43 0 72 34z" />
    <glyph glyph-name="Amacron.smcp" unicode="&#xf66e;" horiz-adv-x="399" 
d="M186 550h160l2 -550h-144l6 86h-90l-32 -86h-145zM221 208l13 189l-72 -189h59zM409 624h-262l17 76h262z" />
    <glyph glyph-name="Aogonek.smcp" unicode="&#xf66f;" horiz-adv-x="399" 
d="M186 550h160l2 -550q-78 -50 -78 -111q0 -19 18 -19q19 0 28 25l47 -33q-31 -48 -79 -48q-36 0 -57.5 17t-21.5 51q0 62 61 118h-62l6 86h-90l-32 -86h-145zM221 208l13 189l-72 -189h59z" />
    <glyph glyph-name="AEacute.smcp" unicode="&#xf670;" horiz-adv-x="553" 
d="M531 750l-141 -144h-86l111 144h116zM472 0h-280l19 86h-83l-42 -86h-146l311 550h342l-27 -122h-139l-19 -88h133l-27 -121h-133l-21 -97h139zM238 208l42 189l-95 -189h53z" />
    <glyph glyph-name="Cacute.smcp" unicode="&#xf671;" horiz-adv-x="403" 
d="M188 -12q-76 0 -123.5 48t-47.5 144q0 42 9 91t29 101t48 94t71 69t94 27q146 0 156 -164l-119 -24q-3 65 -41 65q-45 0 -74.5 -95t-29.5 -161q0 -72 42 -72q20 0 34 17t28 51l104 -46q-33 -67 -73.5 -106t-106.5 -39zM461 750l-141 -144h-86l111 144h116z" />
    <glyph glyph-name="Ccaron.smcp" unicode="&#xf672;" horiz-adv-x="403" 
d="M188 -12q-76 0 -123.5 48t-47.5 144q0 42 9 91t29 101t48 94t71 69t94 27q146 0 156 -164l-119 -24q-3 65 -41 65q-45 0 -74.5 -95t-29.5 -161q0 -72 42 -72q20 0 34 17t28 51l104 -46q-33 -67 -73.5 -106t-106.5 -39zM368 606h-120l-32 144h71l32 -86l67 86h75z" />
    <glyph glyph-name="Ccircumflex.smcp" unicode="&#xf673;" horiz-adv-x="403" 
d="M188 -12q-76 0 -123.5 48t-47.5 144q0 42 9 91t29 101t48 94t71 69t94 27q146 0 156 -164l-119 -24q-3 65 -41 65q-45 0 -74.5 -95t-29.5 -161q0 -72 42 -72q20 0 34 17t28 51l104 -46q-33 -67 -73.5 -106t-106.5 -39zM429 606h-71l-32 86l-67 -86h-75l93 144h120z" />
    <glyph glyph-name="Cdotaccent.smcp" unicode="&#xf674;" horiz-adv-x="403" 
d="M188 -12q-76 0 -123.5 48t-47.5 144q0 42 9 91t29 101t48 94t71 69t94 27q146 0 156 -164l-119 -24q-3 65 -41 65q-45 0 -74.5 -95t-29.5 -161q0 -72 42 -72q20 0 34 17t28 51l104 -46q-33 -67 -73.5 -106t-106.5 -39zM394 691q0 -31 -24.5 -55t-56.5 -24q-27 0 -45 18
t-18 45q0 31 24.5 55t56.5 24q27 0 45 -18t18 -45z" />
    <glyph glyph-name="Dcaron.smcp" unicode="&#xf675;" horiz-adv-x="447" 
d="M172 0h-189l121 550h138q90 0 143 -48t53 -149q0 -38 -7.5 -81.5t-27 -92.5t-48.5 -88t-76.5 -65t-106.5 -26zM181 122h5q33 0 59.5 42.5t38 93.5t11.5 92q0 78 -62 78h-16l-67 -306h31zM363 606h-120l-32 144h71l32 -86l67 86h75z" />
    <glyph glyph-name="Dcroat.smcp" unicode="&#xf676;" horiz-adv-x="463" 
d="M189 0h-189l50 229h-41l22 96h40l50 225h138q90 0 143 -48t53 -149q0 -38 -7.5 -81.5t-27 -92.5t-48.5 -88t-76.5 -65t-106.5 -26zM203 122q33 0 59.5 42.5t38 93.5t11.5 92q0 78 -62 78h-16l-23 -103h46l-22 -96h-45l-23 -107h36z" />
    <glyph glyph-name="Ebreve.smcp" unicode="&#xf677;" horiz-adv-x="347" 
d="M266 0h-280l121 550h280l-27 -122h-139l-20 -88h134l-27 -121h-134l-21 -97h139zM398 659q-59 -64 -140 -64q-79 0 -113 64l68 46q16 -34 58 -34q43 0 72 34z" />
    <glyph glyph-name="Ecaron.smcp" unicode="&#xf678;" horiz-adv-x="347" 
d="M266 0h-280l121 550h280l-27 -122h-139l-20 -88h134l-27 -121h-134l-21 -97h139zM322 606h-120l-32 144h71l32 -86l67 86h75z" />
    <glyph glyph-name="Edotaccent.smcp" unicode="&#xf679;" horiz-adv-x="347" 
d="M266 0h-280l121 550h280l-27 -122h-139l-20 -88h134l-27 -121h-134l-21 -97h139zM350 691q0 -31 -24.5 -55t-56.5 -24q-27 0 -45 18t-18 45q0 31 24.5 55t56.5 24q27 0 45 -18t18 -45z" />
    <glyph glyph-name="Emacron.smcp" unicode="&#xf67a;" horiz-adv-x="347" 
d="M266 0h-280l121 550h280l-27 -122h-139l-20 -88h134l-27 -121h-134l-21 -97h139zM396 624h-262l17 76h262z" />
    <glyph glyph-name="Eng.smcp" unicode="&#xf67b;" horiz-adv-x="447" 
d="M164 -196q-82 0 -119 37l52 93q19 -23 50 -23q46 0 58 54l12 57l-31 247l-60 -269h-140l121 550h142l30 -253l55 253h140l-130 -589q-18 -83 -60.5 -120t-119.5 -37z" />
    <glyph glyph-name="Eogonek.smcp" unicode="&#xf67c;" horiz-adv-x="347" 
d="M234 -105l47 -33q-31 -48 -79 -48q-36 0 -57.5 17t-21.5 51q0 62 61 118h-198l121 550h280l-27 -122h-139l-20 -88h134l-27 -121h-134l-21 -97h139l-26 -122q-78 -50 -78 -111q0 -19 18 -19q19 0 28 25z" />
    <glyph glyph-name="Gbreve.smcp" unicode="&#xf67d;" horiz-adv-x="425" 
d="M198 -12q-89 0 -135 50.5t-46 144.5q0 81 27 165t87 149t139 65q70 0 110.5 -44.5t42.5 -120.5l-118 -23q-4 65 -42 65q-23 0 -43 -29.5t-32.5 -72t-20 -84.5t-7.5 -70q0 -72 47 -72q22 0 36 14l16 71h-51l25 113h175l-58 -262q-69 -59 -152 -59zM445 659
q-59 -64 -140 -64q-79 0 -113 64l68 46q16 -34 58 -34q43 0 72 34z" />
    <glyph glyph-name="Gcircumflex.smcp" unicode="&#xf67e;" horiz-adv-x="425" 
d="M198 -12q-89 0 -135 50.5t-46 144.5q0 81 27 165t87 149t139 65q70 0 110.5 -44.5t42.5 -120.5l-118 -23q-4 65 -42 65q-23 0 -43 -29.5t-32.5 -72t-20 -84.5t-7.5 -70q0 -72 47 -72q22 0 36 14l16 71h-51l25 113h175l-58 -262q-69 -59 -152 -59zM429 606h-71l-32 86
l-67 -86h-75l93 144h120z" />
    <glyph glyph-name="Gcommaaccent.smcp" unicode="&#xf67f;" horiz-adv-x="425" 
d="M198 -12q-89 0 -135 50.5t-46 144.5q0 81 27 165t87 149t139 65q70 0 110.5 -44.5t42.5 -120.5l-118 -23q-4 65 -42 65q-23 0 -43 -29.5t-32.5 -72t-20 -84.5t-7.5 -70q0 -72 47 -72q22 0 36 14l16 71h-51l25 113h175l-58 -262q-69 -59 -152 -59zM217 -121q0 -46 -34 -92
t-86 -71l-37 38q25 12 48 30.5t33 38.5h-9q-21 0 -35.5 14t-14.5 39q0 28 22 49t50 21q26 0 44.5 -18t18.5 -49z" />
    <glyph glyph-name="Gdotaccent.smcp" unicode="&#xf680;" horiz-adv-x="425" 
d="M198 -12q-89 0 -135 50.5t-46 144.5q0 81 27 165t87 149t139 65q70 0 110.5 -44.5t42.5 -120.5l-118 -23q-4 65 -42 65q-23 0 -43 -29.5t-32.5 -72t-20 -84.5t-7.5 -70q0 -72 47 -72q22 0 36 14l16 71h-51l25 113h175l-58 -262q-69 -59 -152 -59zM394 691
q0 -31 -24.5 -55t-56.5 -24q-27 0 -45 18t-18 45q0 31 24.5 55t56.5 24q27 0 45 -18t18 -45z" />
    <glyph glyph-name="Hcircumflex.smcp" unicode="&#xf681;" horiz-adv-x="457" 
d="M362 0h-141l49 221h-95l-49 -221h-140l121 550h140l-45 -208h95l45 208h141zM430 606h-71l-32 86l-67 -86h-75l93 144h120z" />
    <glyph glyph-name="Hbar.smcp" unicode="&#xf682;" horiz-adv-x="483" 
d="M375 0h-141l49 221h-95l-49 -221h-140l90 411h-39l17 76h39l14 63h140l-14 -63h95l14 63h141l-14 -63h40l-17 -76h-40zM215 342h95l15 69h-95z" />
    <glyph glyph-name="Ibreve.smcp" unicode="&#xf683;" horiz-adv-x="217" 
d="M125 0h-140l121 550h140zM327 659q-59 -64 -140 -64q-79 0 -113 64l68 46q16 -34 58 -34q43 0 72 34z" />
    <glyph glyph-name="IJ.smcp" unicode="&#xf684;" horiz-adv-x="542" 
d="M126 0h-140l121 550h140zM298 -12q-82 0 -119 37l56 109q18 -23 50 -23q46 0 58 55l85 384h140l-89 -403q-18 -84 -61.5 -121.5t-119.5 -37.5z" />
    <glyph glyph-name="Imacron.smcp" unicode="&#xf685;" horiz-adv-x="217" 
d="M125 0h-140l121 550h140zM324 624h-262l17 76h262z" />
    <glyph glyph-name="Iogonek.smcp" unicode="&#xf686;" horiz-adv-x="217" 
d="M93 -105l47 -33q-31 -48 -79 -48q-36 0 -57.5 17t-21.5 51q0 62 61 118h-58l121 550h140l-121 -550q-78 -50 -78 -111q0 -19 18 -19q19 0 28 25z" />
    <glyph glyph-name="Itilde.smcp" unicode="&#xf687;" horiz-adv-x="217" 
d="M125 0h-140l121 550h140zM241 587q-20 0 -32.5 10t-17 22t-12 22t-19.5 10q-24 0 -36 -58h-70q29 134 111 134q20 0 33 -10t17 -22t12 -22t20 -10q23 0 36 58h70q-29 -134 -112 -134z" />
    <glyph glyph-name="Jcircumflex.smcp" unicode="&#xf688;" horiz-adv-x="321" 
d="M77 -12q-82 0 -119 37l56 109q18 -23 50 -23q46 0 58 55l85 384h140l-89 -403q-18 -84 -61.5 -121.5t-119.5 -37.5zM414 606h-71l-32 86l-67 -86h-75l93 144h120z" />
    <glyph glyph-name="Kcommaaccent.smcp" unicode="&#xf689;" horiz-adv-x="440" 
d="M386 0h-156l-35 186l-41 -58l-28 -128h-140l121 550h140l-45 -209l142 209h153l-195 -258zM212 -121q0 -46 -34 -92t-86 -71l-37 38q25 12 48 30.5t33 38.5h-9q-21 0 -35.5 14t-14.5 39q0 28 22 49t50 21q26 0 44.5 -18t18.5 -49z" />
    <glyph glyph-name="Lacute.smcp" unicode="&#xf68a;" horiz-adv-x="337" 
d="M266 0h-280l121 550h140l-94 -428h139zM415 750l-141 -144h-86l111 144h116z" />
    <glyph glyph-name="Lcaron.smcp" unicode="&#xf68b;" horiz-adv-x="358" 
d="M266 0h-280l121 550h140l-94 -428h139zM402 493q0 -46 -34 -92t-86 -71l-37 38q25 12 48 30.5t33 38.5h-9q-21 0 -35.5 14t-14.5 39q0 28 22 49t50 21q26 0 44.5 -18t18.5 -49z" />
    <glyph glyph-name="Lcommaaccent.smcp" unicode="&#xf68c;" horiz-adv-x="337" 
d="M266 0h-280l121 550h140l-94 -428h139zM168 -121q0 -46 -34 -92t-86 -71l-37 38q25 12 48 30.5t33 38.5h-9q-21 0 -35.5 14t-14.5 39q0 28 22 49t50 21q26 0 44.5 -18t18.5 -49z" />
    <glyph glyph-name="Ldot.smcp" unicode="&#xf68d;" horiz-adv-x="435" 
d="M266 0h-280l121 550h140l-94 -428h139zM337 220q-32 0 -54.5 23t-22.5 55q0 38 28 65.5t65 27.5q32 0 54.5 -23.5t22.5 -55.5q0 -37 -27.5 -64.5t-65.5 -27.5z" />
    <glyph glyph-name="Nacute.smcp" unicode="&#xf68e;" horiz-adv-x="447" 
d="M353 0h-133l-34 269l-60 -269h-140l121 550h142l30 -253l55 253h140zM458 750l-141 -144h-86l111 144h116z" />
    <glyph glyph-name="Ncaron.smcp" unicode="&#xf68f;" horiz-adv-x="447" 
d="M353 0h-133l-34 269l-60 -269h-140l121 550h142l30 -253l55 253h140zM365 606h-120l-32 144h71l32 -86l67 86h75z" />
    <glyph glyph-name="Ncommaaccent.smcp" unicode="&#xf690;" horiz-adv-x="447" 
d="M353 0h-133l-34 269l-60 -269h-140l121 550h142l30 -253l55 253h140zM213 -121q0 -46 -34 -92t-86 -71l-37 38q25 12 48 30.5t33 38.5h-9q-21 0 -35.5 14t-14.5 39q0 28 22 49t50 21q26 0 44.5 -18t18.5 -49z" />
    <glyph glyph-name="Obreve.smcp" unicode="&#xf691;" horiz-adv-x="452" 
d="M193 -12q-81 0 -128.5 49.5t-47.5 144.5q0 38 8 84.5t27 99.5t47 96t73 71.5t99 28.5q81 0 128.5 -49.5t47.5 -144.5q0 -50 -13.5 -110t-41 -123t-79.5 -105t-120 -42zM201 111q25 0 46 31.5t33 76t18.5 85.5t6.5 66q0 69 -41 69q-25 0 -46 -31.5t-33.5 -76t-19 -85.5
t-6.5 -66q0 -69 42 -69zM445 659q-59 -64 -140 -64q-79 0 -113 64l68 46q16 -34 58 -34q43 0 72 34z" />
    <glyph glyph-name="Ohungarumlaut.smcp" unicode="&#xf692;" horiz-adv-x="452" 
d="M193 -12q-81 0 -128.5 49.5t-47.5 144.5q0 38 8 84.5t27 99.5t47 96t73 71.5t99 28.5q81 0 128.5 -49.5t47.5 -144.5q0 -50 -13.5 -110t-41 -123t-79.5 -105t-120 -42zM201 111q25 0 46 31.5t33 76t18.5 85.5t6.5 66q0 69 -41 69q-25 0 -46 -31.5t-33.5 -76t-19 -85.5
t-6.5 -66q0 -69 42 -69zM377 750l-114 -144h-71l84 144h101zM511 750l-114 -144h-71l84 144h101z" />
    <glyph glyph-name="Omacron.smcp" unicode="&#xf693;" horiz-adv-x="452" 
d="M193 -12q-81 0 -128.5 49.5t-47.5 144.5q0 38 8 84.5t27 99.5t47 96t73 71.5t99 28.5q81 0 128.5 -49.5t47.5 -144.5q0 -50 -13.5 -110t-41 -123t-79.5 -105t-120 -42zM201 111q25 0 46 31.5t33 76t18.5 85.5t6.5 66q0 69 -41 69q-25 0 -46 -31.5t-33.5 -76t-19 -85.5
t-6.5 -66q0 -69 42 -69zM442 624h-262l17 76h262z" />
    <glyph glyph-name="Oslashacute.smcp" unicode="&#xf694;" horiz-adv-x="452" 
d="M193 -12q-76 0 -121 42l-24 -30h-70l60 75q-21 42 -21 107q0 38 8 84.5t27 99.5t47 96t73 71.5t99 28.5q79 0 124 -45l27 33h70l-65 -80q20 -43 20 -102q0 -50 -13.5 -110t-41 -123t-79.5 -105t-120 -42zM463 750l-141 -144h-86l111 144h116zM264 439q-38 0 -64 -66
t-37 -144l139 172q-8 38 -38 38zM201 111q37 0 62.5 62t36.5 139l-137 -169q10 -32 38 -32z" />
    <glyph glyph-name="Racute.smcp" unicode="&#xf695;" horiz-adv-x="427" 
d="M351 0h-149l-9 185h-26l-41 -185h-140l121 550h153q80 0 125.5 -39.5t45.5 -110.5q0 -63 -31.5 -118t-75.5 -75zM220 307h8q25 0 41 24.5t16 52.5q0 44 -41 44h-23l-27 -121h26zM447 750l-141 -144h-86l111 144h116z" />
    <glyph glyph-name="Rcaron.smcp" unicode="&#xf696;" horiz-adv-x="427" 
d="M351 0h-149l-9 185h-26l-41 -185h-140l121 550h153q80 0 125.5 -39.5t45.5 -110.5q0 -63 -31.5 -118t-75.5 -75zM220 307h8q25 0 41 24.5t16 52.5q0 44 -41 44h-23l-27 -121h26zM352 606h-120l-32 144h71l32 -86l67 86h75z" />
    <glyph glyph-name="Rcommaaccent.smcp" unicode="&#xf697;" horiz-adv-x="427" 
d="M351 0h-149l-9 185h-26l-41 -185h-140l121 550h153q80 0 125.5 -39.5t45.5 -110.5q0 -63 -31.5 -118t-75.5 -75zM220 307h8q25 0 41 24.5t16 52.5q0 44 -41 44h-23l-27 -121h26zM200 -121q0 -46 -34 -92t-86 -71l-37 38q25 12 48 30.5t33 38.5h-9q-21 0 -35.5 14
t-14.5 39q0 28 22 49t50 21q26 0 44.5 -18t18.5 -49z" />
    <glyph glyph-name="Sacute.smcp" unicode="&#xf698;" horiz-adv-x="377" 
d="M153 -12q-121 0 -179 71l75 102q38 -50 96 -50q23 0 37 16t14 39q0 18 -21 39t-46 40t-46 54.5t-21 79.5q0 77 56 130t136 53q95 0 156 -61l-73 -103q-32 41 -82 41q-19 0 -32.5 -15t-13.5 -35q0 -15 14 -30.5t33.5 -31t39.5 -35t34 -51.5t14 -72q0 -69 -55 -125
t-136 -56zM431 750l-141 -144h-86l111 144h116z" />
    <glyph glyph-name="Scedilla.smcp" unicode="&#xf699;" horiz-adv-x="377" 
d="M107 -196q-60 0 -97 40l33 48q27 -32 63 -32q18 0 28.5 10t10.5 25q0 20 -21 20q-14 0 -22 -13l-42 28l37 63q-80 13 -123 66l75 102q38 -50 96 -50q23 0 37 16t14 39q0 18 -21 39t-46 40t-46 54.5t-21 79.5q0 77 56 130t136 53q95 0 156 -61l-73 -103q-32 41 -82 41
q-19 0 -32.5 -15t-13.5 -35q0 -15 14 -30.5t33.5 -31t39.5 -35t34 -51.5t14 -72q0 -68 -53.5 -123.5t-132.5 -57.5l-24 -39q11 10 23 10q23 0 38 -16.5t15 -44.5q0 -40 -29.5 -67t-73.5 -27z" />
    <glyph glyph-name="Scircumflex.smcp" unicode="&#xf69a;" horiz-adv-x="377" 
d="M153 -12q-121 0 -179 71l75 102q38 -50 96 -50q23 0 37 16t14 39q0 18 -21 39t-46 40t-46 54.5t-21 79.5q0 77 56 130t136 53q95 0 156 -61l-73 -103q-32 41 -82 41q-19 0 -32.5 -15t-13.5 -35q0 -15 14 -30.5t33.5 -31t39.5 -35t34 -51.5t14 -72q0 -69 -55 -125
t-136 -56zM400 606h-71l-32 86l-67 -86h-75l93 144h120z" />
    <glyph glyph-name="Scommaaccent.smcp" unicode="&#xf69b;" horiz-adv-x="377" 
d="M153 -12q-121 0 -179 71l75 102q38 -50 96 -50q23 0 37 16t14 39q0 18 -21 39t-46 40t-46 54.5t-21 79.5q0 77 56 130t136 53q95 0 156 -61l-73 -103q-32 41 -82 41q-19 0 -32.5 -15t-13.5 -35q0 -15 14 -30.5t33.5 -31t39.5 -35t34 -51.5t14 -72q0 -69 -55 -125
t-136 -56zM180 -121q0 -46 -34 -92t-86 -71l-37 38q25 12 48 30.5t33 38.5h-9q-21 0 -35.5 14t-14.5 39q0 28 22 49t50 21q26 0 44.5 -18t18.5 -49z" />
    <glyph glyph-name="Tbar.smcp" unicode="&#xf69c;" horiz-adv-x="329" 
d="M181 0h-140l44 201h-50l18 76h48l34 151h-80l27 122h299l-27 -122h-79l-34 -151h45l-17 -76h-44z" />
    <glyph glyph-name="Tcaron.smcp" unicode="&#xf69d;" horiz-adv-x="329" 
d="M181 0h-140l94 428h-80l27 122h299l-27 -122h-79zM307 606h-120l-32 144h71l32 -86l67 86h75z" />
    <glyph glyph-name="Tcommaaccent.smcp" unicode="&#xf69e;" horiz-adv-x="329" 
d="M181 0h-140l94 428h-80l27 122h299l-27 -122h-79zM154 -121q0 -46 -34 -92t-86 -71l-37 38q25 12 48 30.5t33 38.5h-9q-21 0 -35.5 14t-14.5 39q0 28 22 49t50 21q26 0 44.5 -18t18.5 -49z" />
    <glyph glyph-name="Ubreve.smcp" unicode="&#xf69f;" horiz-adv-x="455" 
d="M198 -12q-81 0 -129.5 37.5t-49.5 100.5q0 25 6 49l82 375h140l-82 -373q-3 -11 -3 -23q0 -43 41 -43q40 0 55 65l83 374h140l-83 -373q-41 -189 -200 -189zM447 659q-59 -64 -140 -64q-79 0 -113 64l68 46q16 -34 58 -34q43 0 72 34z" />
    <glyph glyph-name="Uhungarumlaut.smcp" unicode="&#xf6a0;" horiz-adv-x="455" 
d="M198 -12q-81 0 -129.5 37.5t-49.5 100.5q0 25 6 49l82 375h140l-82 -373q-3 -11 -3 -23q0 -43 41 -43q40 0 55 65l83 374h140l-83 -373q-41 -189 -200 -189zM378 750l-114 -144h-71l84 144h101zM512 750l-114 -144h-71l84 144h101z" />
    <glyph glyph-name="Umacron.smcp" unicode="&#xf6a1;" horiz-adv-x="455" 
d="M198 -12q-81 0 -129.5 37.5t-49.5 100.5q0 25 6 49l82 375h140l-82 -373q-3 -11 -3 -23q0 -43 41 -43q40 0 55 65l83 374h140l-83 -373q-41 -189 -200 -189zM443 624h-262l17 76h262z" />
    <glyph glyph-name="Uogonek.smcp" unicode="&#xf6a2;" horiz-adv-x="455" 
d="M239 -105l47 -33q-31 -48 -79 -48q-36 0 -57.5 17t-21.5 51q0 57 49 107q-72 5 -114.5 41.5t-43.5 95.5q0 25 6 49l82 375h140l-82 -373q-3 -11 -3 -23q0 -43 41 -43q40 0 55 65l83 374h140l-83 -373q-30 -141 -127 -177q-78 -50 -78 -111q0 -19 18 -19q19 0 28 25z" />
    <glyph glyph-name="Uring.smcp" unicode="&#xf6a3;" horiz-adv-x="455" 
d="M198 -12q-81 0 -129.5 37.5t-49.5 100.5q0 25 6 49l82 375h140l-82 -373q-3 -11 -3 -23q0 -43 41 -43q40 0 55 65l83 374h140l-83 -373q-41 -189 -200 -189zM314 596q-36 0 -58.5 23t-22.5 59q0 41 30.5 72t71.5 31q36 0 59 -23t23 -59q0 -42 -31 -72.5t-72 -30.5z
M322 653q16 0 27.5 12t11.5 28q0 14 -8.5 23t-22.5 9q-16 0 -28 -12t-12 -28q0 -14 9 -23t23 -9z" />
    <glyph glyph-name="Utilde.smcp" unicode="&#xf6a4;" horiz-adv-x="455" 
d="M198 -12q-81 0 -129.5 37.5t-49.5 100.5q0 25 6 49l82 375h140l-82 -373q-3 -11 -3 -23q0 -43 41 -43q40 0 55 65l83 374h140l-83 -373q-41 -189 -200 -189zM360 604q-20 0 -32.5 10t-17 22t-12 22t-19.5 10q-24 0 -36 -58h-70q29 134 111 134q20 0 33 -10t17 -22t12 -22
t20 -10q23 0 36 58h70q-29 -134 -112 -134z" />
    <glyph glyph-name="Wcircumflex.smcp" unicode="&#xf6a6;" horiz-adv-x="570" 
d="M487 606h-71l-32 86l-67 -86h-75l93 144h120zM409 0h-139l23 279l-100 -279h-140l17 550h143l-26 -294l111 294h109l-19 -297l104 297h142z" />
    <glyph glyph-name="Ycircumflex.smcp" unicode="&#xf6a9;" horiz-adv-x="405" 
d="M219 0h-141l50 225l-66 325h146l19 -188l102 188h148l-209 -325zM405 606h-71l-32 86l-67 -86h-75l93 144h120z" />
    <glyph glyph-name="Zacute.smcp" unicode="&#xf6ab;" horiz-adv-x="338" 
d="M261 0h-292l23 106l195 321h-124l27 123h286l-22 -102l-198 -325h132zM399 750l-141 -144h-86l111 144h116z" />
    <glyph glyph-name="Zdotaccent.smcp" unicode="&#xf6ac;" horiz-adv-x="338" 
d="M261 0h-292l23 106l195 321h-124l27 123h286l-22 -102l-198 -325h132zM346 691q0 -31 -24.5 -55t-56.5 -24q-27 0 -45 18t-18 45q0 31 24.5 55t56.5 24q27 0 45 -18t18 -45z" />
    <glyph glyph-name="Idotaccent.smcp" unicode="&#xf6ad;" horiz-adv-x="211" 
d="M123 0h-140l121 550h140zM276 691q0 -31 -24.5 -55t-56.5 -24q-27 0 -45 18t-18 45q0 31 24.5 55t56.5 24q27 0 45 -18t18 -45z" />
    <glyph glyph-name="parenleft.case" unicode="&#xf6ae;" horiz-adv-x="282" 
d="M192 -74l-107 -35q-41 116 -41 249q0 344 236 635l89 -54q-86 -143 -136 -314.5t-50 -332.5q0 -82 9 -148z" />
    <glyph glyph-name="parenright.case" unicode="&#xf6af;" horiz-adv-x="282" 
d="M129 740l108 35q41 -116 41 -249q0 -344 -236 -635l-89 54q86 143 136 314.5t50 332.5q0 75 -10 148z" />
    <glyph glyph-name="bracketleft.case" unicode="&#xf6b0;" horiz-adv-x="216" 
d="M121 -100h-162l192 868h163l-19 -89h-67l-153 -690h67z" />
    <glyph glyph-name="bracketright.case" unicode="&#xf6b1;" horiz-adv-x="216" 
d="M104 -100h-162l19 89h66l153 690h-66l20 89h163z" />
    <glyph glyph-name="braceleft.case" unicode="&#xf6b2;" horiz-adv-x="228" 
d="M134 -100h-18q-44 0 -78 28t-34 71q0 17 3 27l45 204q2 12 2 18q0 22 -10.5 35.5t-28.5 13.5l16 74q52 0 67 67l45 205q29 125 157 125h27l-19 -89h-27q-33 0 -41 -36l-50 -230q-15 -70 -65 -89q29 -14 29 -56q0 -18 -4 -34l-45 -200q-2 -12 -2 -18q0 -12 7 -20t17 -8h27
z" />
    <glyph glyph-name="braceright.case" unicode="&#xf6b3;" horiz-adv-x="228" 
d="M133 768h18q44 0 78.5 -28.5t34.5 -71.5q0 -5 -3 -26l-46 -204q-2 -12 -2 -19q0 -21 11 -34.5t29 -13.5l-17 -74q-52 0 -67 -67l-45 -205q-29 -125 -157 -125h-27l20 89h27q32 0 40 36l50 230q9 36 23.5 57t42.5 32q-29 14 -29 56q0 18 4 34l44 200l3 18q0 12 -7.5 20
t-17.5 8h-27z" />
    <glyph glyph-name="exclamdown.case" unicode="&#xf6b4;" horiz-adv-x="260" 
d="M115 445h119l-76 -445h-164zM216 679q32 0 54.5 -23t22.5 -55q0 -37 -27.5 -64.5t-64.5 -27.5q-32 0 -54.5 23t-22.5 55q0 37 27 64.5t65 27.5z" />
    <glyph glyph-name="questiondown.case" unicode="&#xf6b5;" horiz-adv-x="331" 
d="M146 416l122 39q9 -29 9 -60q0 -47 -21.5 -86.5t-46.5 -61t-46.5 -47.5t-21.5 -50q0 -16 10 -27t28 -11q29 0 50 21l41 -97q-62 -51 -140 -51q-63 0 -105 35t-42 89q0 39 17.5 73.5t42.5 59.5t49.5 47.5t42 46.5t17.5 48q0 20 -6 32zM248 674q32 0 54.5 -23t22.5 -55
q0 -38 -27.5 -65t-65.5 -27q-32 0 -54.5 23t-22.5 55q0 37 27.5 64.5t65.5 27.5z" />
    <glyph glyph-name="guillemotleft.case" unicode="&#xf6b6;" horiz-adv-x="415" 
d="M201 162h-100l-50 180l130 177h104l-133 -181zM364 162h-100l-50 180l130 177h104l-133 -181z" />
    <glyph glyph-name="guillemotright.case" unicode="&#xf6b7;" horiz-adv-x="415" 
d="M95 519h100l50 -180l-130 -177h-104l133 181zM258 519h100l50 -180l-130 -177h-104l133 181z" />
    <glyph glyph-name="guilsinglleft.case" unicode="&#xf6b8;" horiz-adv-x="252" 
d="M201 162h-100l-50 180l130 177h104l-133 -181z" />
    <glyph glyph-name="guilsinglright.case" unicode="&#xf6b9;" horiz-adv-x="252" 
d="M95 519h100l50 -180l-130 -177h-104l133 181z" />
    <glyph glyph-name="hyphen.case" unicode="&#xf6ba;" horiz-adv-x="244" 
d="M223 284h-184l25 114h184z" />
    <glyph glyph-name="endash.case" unicode="&#xf6bb;" horiz-adv-x="460" 
d="M439 284h-400l25 114h400z" />
    <glyph glyph-name="emdash.case" unicode="&#xf6bc;" horiz-adv-x="640" 
d="M619 284h-580l25 114h580z" />
    <glyph glyph-name="periodcentered.case" unicode="&#xf6bd;" horiz-adv-x="259" 
d="M142 257q-32 0 -54.5 23t-22.5 55q0 37 27.5 65t65.5 28q32 0 54.5 -23.5t22.5 -55.5q0 -37 -27.5 -64.5t-65.5 -27.5z" />
    <glyph glyph-name="bullet.case" unicode="&#xf6be;" horiz-adv-x="358" 
d="M322 353q0 -54 -40 -92.5t-94 -38.5q-46 0 -77 31t-31 77q0 54 40 92.5t94 38.5q46 0 77 -30.5t31 -77.5z" />
    <glyph glyph-name="cent.case" unicode="&#xf6bf;" horiz-adv-x="358" 
d="M98 -9l23 106q-88 44 -88 170q0 108 54 200.5t142 113.5l17 75h97l-17 -77q51 -12 80 -43l-62 -101q-17 24 -44 29l-59 -265h2q33 0 57 24l19 -107q-43 -35 -105 -37l-19 -88h-97z" />
    <glyph glyph-name="commaaccent" unicode="&#xf6c3;" horiz-adv-x="262" 
d="M117 -121q0 -46 -34 -92t-86 -71l-37 38q25 12 48 30.5t33 38.5h-9q-21 0 -35.5 14t-14.5 39q0 28 22 49t50 21q26 0 44.5 -18t18.5 -49z" />
    <glyph glyph-name="one.tnum" unicode="&#xf6dc;" horiz-adv-x="466" 
d="M325 0h-151l104 473l-109 -92l-66 91l238 195h131z" />
    <glyph glyph-name="rupiah" unicode="&#xf6dd;" horiz-adv-x="896" 
d="M403 0h-158l-13 234h-37l-51 -234h-151l147 667h187q74 0 123 -51.5t49 -127.5t-39 -141.5t-86 -85.5zM258 366h-1q38 0 61 32t23 75q0 31 -14 46.5t-36 15.5h-29l-38 -169h34zM685 -12q-76 0 -99 70l-53 -242h-135l147 667h136l-13 -55q46 67 103 67q112 0 112 -160
q0 -51 -12.5 -109t-35.5 -112t-62.5 -90t-87.5 -36zM652 108q22 0 41 23.5t29.5 58t16 68t5.5 58.5q0 59 -44 59q-30 0 -54 -44l-39 -178q4 -21 16 -33t29 -12z" />
    <glyph glyph-name="centinferior" unicode="&#xf6df;" horiz-adv-x="239" 
d="M17 -151l14 63q-64 28 -64 113q0 66 36.5 116.5t91.5 61.5l10 45h65l-10 -48q37 -11 54 -33l-46 -56q-14 23 -42 23q-31 0 -49 -34.5t-18 -74.5q0 -25 12 -38t32 -13q21 0 39 20l21 -65q-26 -24 -69 -27l-12 -53h-65z" />
    <glyph glyph-name="centsuperior" unicode="&#xf6e0;" horiz-adv-x="239" 
d="M142 416l14 63q-64 26 -64 113q0 66 36.5 116.5t91.5 61.5l10 45h65l-10 -48q37 -11 54 -33l-46 -56q-14 23 -42 23q-31 0 -49 -34.5t-18 -74.5q0 -25 12 -38t32 -13q21 0 39 20l21 -65q-27 -26 -69 -27l-12 -53h-65z" />
    <glyph glyph-name="commainferior" unicode="&#xf6e1;" horiz-adv-x="160" 
d="M60 -91q0 -33 -25.5 -73t-69.5 -64l-29 34q16 6 35 20.5t24 28.5q-3 -1 -5 -1q-16 0 -28.5 13t-12.5 34q0 25 18.5 42.5t43.5 17.5q20 0 34.5 -14t14.5 -38z" />
    <glyph glyph-name="commasuperior" unicode="&#xf6e2;" horiz-adv-x="160" 
d="M185 476q0 -33 -25.5 -73t-69.5 -64l-29 34q16 6 35 20.5t24 28.5q-3 -1 -5 -1q-16 0 -28.5 13t-12.5 34q0 25 18.5 42.5t43.5 17.5q20 0 34.5 -14t14.5 -38z" />
    <glyph glyph-name="dollarinferior" unicode="&#xf6e3;" horiz-adv-x="275" 
d="M10 -206l13 56q-57 9 -91 49l53 71q29 -39 78 -39q20 0 30.5 12t10.5 31q0 16 -18 31.5t-39.5 27.5t-39.5 36.5t-18 54.5q0 51 34.5 89t88.5 45l13 57h66l-13 -60q51 -12 75 -40l-53 -70q-22 32 -63 32q-19 0 -30.5 -12t-11.5 -28q0 -14 18 -29t39 -28t39 -38.5t18 -56.5
q0 -51 -32.5 -90t-88.5 -46l-12 -55h-66z" />
    <glyph glyph-name="dollarsuperior" unicode="&#xf6e4;" horiz-adv-x="275" 
d="M135 361l13 56q-58 9 -91 49l53 71q29 -39 78 -39q20 0 30.5 12t10.5 31q0 16 -18 31.5t-39.5 27.5t-39.5 36.5t-18 54.5q0 51 34.5 89t88.5 45l13 57h66l-13 -60q51 -12 75 -40l-53 -70q-22 32 -63 32q-19 0 -30.5 -12t-11.5 -28q0 -14 18 -29t39 -28t39 -38.5t18 -56.5
q0 -52 -32.5 -91t-88.5 -46l-12 -54h-66z" />
    <glyph glyph-name="hypheninferior" unicode="&#xf6e5;" horiz-adv-x="154" 
d="M85 15h-118l17 76h118z" />
    <glyph glyph-name="hyphensuperior" unicode="&#xf6e6;" horiz-adv-x="154" 
d="M210 582h-118l17 76h118z" />
    <glyph glyph-name="periodinferior" unicode="&#xf6e7;" horiz-adv-x="160" 
d="M61 -89q0 -25 -19 -43t-44 -18q-22 0 -36 14t-14 36q0 25 19 43t44 18q22 0 36 -14t14 -36z" />
    <glyph glyph-name="periodsuperior" unicode="&#xf6e8;" horiz-adv-x="160" 
d="M186 478q0 -25 -19 -43t-44 -18q-22 0 -36 14t-14 36q0 25 19 43t44 18q22 0 36 -14t14 -36z" />
    <glyph glyph-name="asuperior" unicode="&#xf6e9;" horiz-adv-x="311" 
d="M228 571q-27 0 -45 -43.5t-18 -88.5q0 -44 30 -44q19 0 38 32l26 116q-7 28 -31 28zM280 640h97l-69 -314h-97l8 36q-30 -44 -73 -44q-37 0 -59.5 27t-22.5 85q0 77 39 147.5t98 70.5q51 0 71 -44z" />
    <glyph glyph-name="bsuperior" unicode="&#xf6ea;" horiz-adv-x="323" 
d="M201 395q27 0 45 43.5t18 88.5q0 44 -30 44q-20 0 -39 -32l-25 -116q7 -28 31 -28zM148 326h-97l96 434h97l-34 -156q30 44 73 44q36 0 58.5 -27t22.5 -85q0 -77 -38.5 -147.5t-98.5 -70.5q-50 0 -71 44z" />
    <glyph glyph-name="dsuperior" unicode="&#xf6eb;" horiz-adv-x="323" 
d="M228 571q-27 0 -45 -43.5t-18 -88.5q0 -44 30 -44q19 0 38 32l26 116q-7 28 -31 28zM307 760h97l-96 -434h-97l8 36q-30 -44 -73 -44q-37 0 -59.5 27t-22.5 85q0 77 39 147.5t98 70.5q51 0 71 -44z" />
    <glyph glyph-name="esuperior" unicode="&#xf6ec;" horiz-adv-x="306" 
d="M195 318q-57 0 -92.5 32.5t-35.5 92.5q0 79 46 142t119 63q54 0 84 -33t30 -90q0 -38 -11 -76h-177q0 -2 -0.5 -7t-0.5 -8q0 -19 15.5 -31.5t40.5 -12.5q29 0 58 24l31 -54q-45 -42 -107 -42zM255 516h1q3 10 3 20q0 43 -34 43q-40 0 -52 -63h82z" />
    <glyph glyph-name="isuperior" unicode="&#xf6ed;" horiz-adv-x="164" 
d="M179 669q-20 0 -34.5 14.5t-14.5 34.5q0 26 20 45t46 19q21 0 35 -14.5t14 -34.5q0 -26 -20 -45t-46 -19zM148 326h-97l69 314h97z" />
    <glyph glyph-name="lsuperior" unicode="&#xf6ee;" horiz-adv-x="164" 
d="M148 326h-97l96 434h97z" />
    <glyph glyph-name="msuperior" unicode="&#xf6ef;" horiz-adv-x="477" 
d="M462 326h-97l46 209q2 8 2 12q0 19 -20 19q-21 0 -43 -36l-45 -204h-97l46 209q2 8 2 12q0 19 -19 19q-24 0 -44 -36l-45 -204h-97l69 314h97l-7 -38q11 18 34.5 32t48.5 14q29 0 48.5 -14t20.5 -38q13 21 37.5 36.5t49.5 15.5q30 0 49.5 -13.5t19.5 -40.5q0 -13 -2 -23z
" />
    <glyph glyph-name="osuperior" unicode="&#xf6f0;" horiz-adv-x="318" 
d="M192 318q-59 0 -91.5 35t-32.5 91q0 77 45 140.5t119 63.5q59 0 91.5 -35t32.5 -91q0 -77 -45.5 -140.5t-118.5 -63.5zM196 396q28 0 44.5 48.5t16.5 83.5q0 41 -31 41q-28 0 -44.5 -48.5t-16.5 -83.5q0 -41 31 -41z" />
    <glyph glyph-name="rsuperior" unicode="&#xf6f1;" horiz-adv-x="215" 
d="M148 326h-97l69 314h97l-8 -39q35 48 85 48l-21 -94q-4 2 -18 2q-32 0 -63 -33z" />
    <glyph glyph-name="ssuperior" unicode="&#xf6f2;" horiz-adv-x="260" 
d="M159 318q-83 0 -123 52l51 59q28 -40 70 -40q16 0 26.5 9t10.5 23q0 13 -17.5 24.5t-38 20.5t-38 29.5t-17.5 48.5q0 41 33 72.5t86 31.5q76 0 117 -48l-47 -54q-28 34 -64 34q-14 0 -22.5 -8t-8.5 -21q0 -12 17 -23t38 -20t38 -29.5t17 -48.5q0 -47 -36.5 -79.5
t-91.5 -32.5z" />
    <glyph glyph-name="tsuperior" unicode="&#xf6f3;" horiz-adv-x="193" 
d="M163 318q-87 0 -87 62q0 14 3 28l35 163h-31l15 69h31l19 86h97l-19 -86h41l-15 -69h-40l-35 -154q-2 -10 -2 -11q0 -15 16 -15q9 0 17 5l1 -65q-20 -13 -46 -13z" />
    <glyph glyph-name="Lslash.smcp" unicode="&#xf6f9;" horiz-adv-x="344" 
d="M-8 150l27 122l38 19l57 259h140l-39 -178l74 38l-28 -123l-73 -37l-28 -128h139l-26 -122h-280l37 169z" />
    <glyph glyph-name="OE.smcp" unicode="&#xf6fa;" horiz-adv-x="584" 
d="M503 0h-279l7 33q-35 -45 -87 -45q-61 0 -94 51t-33 129q0 60 14.5 126.5t42 127.5t74.5 100.5t105 39.5q28 0 52 -13.5t31 -37.5l9 39h279l-27 -122h-140l-19 -88h134l-27 -121h-134l-21 -97h140zM262 176l44 198q-1 65 -42 65q-32 0 -57.5 -52t-36.5 -109.5t-11 -97.5
q0 -69 42 -69q32 0 61 65z" />
    <glyph glyph-name="Scaron.smcp" unicode="&#xf6fd;" horiz-adv-x="377" 
d="M153 -12q-121 0 -179 71l75 102q38 -50 96 -50q23 0 37 16t14 39q0 18 -21 39t-46 40t-46 54.5t-21 79.5q0 77 56 130t136 53q95 0 156 -61l-73 -103q-32 41 -82 41q-19 0 -32.5 -15t-13.5 -35q0 -15 14 -30.5t33.5 -31t39.5 -35t34 -51.5t14 -72q0 -69 -55 -125
t-136 -56zM339 606h-120l-32 144h71l32 -86l67 86h75z" />
    <glyph glyph-name="Zcaron.smcp" unicode="&#xf6ff;" horiz-adv-x="338" 
d="M261 0h-292l23 106l195 321h-124l27 123h286l-22 -102l-198 -325h132zM308 606h-120l-32 144h71l32 -86l67 86h75z" />
    <glyph glyph-name="exclam.smcp" unicode="&#xf721;" horiz-adv-x="207" 
d="M245 550l-94 -339h-109l55 339h148zM59 -12q-32 0 -54.5 23t-22.5 55q0 37 27.5 64.5t65.5 27.5q32 0 54.5 -23t22.5 -55q0 -37 -27.5 -64.5t-65.5 -27.5z" />
    <glyph glyph-name="dollar.onum" unicode="&#xf724;" horiz-adv-x="377" 
d="M75 -74l15 68q-76 14 -116 65l75 102q38 -50 96 -50q23 0 37 16t14 39q0 18 -21 39t-46 40t-46 54.5t-21 79.5q0 67 43 117t110 62l16 70h96l-17 -73q60 -14 100 -54l-73 -103q-32 41 -82 41q-19 0 -32.5 -15t-13.5 -35q0 -15 14 -30.5t33.5 -31t39.5 -35t34 -51.5
t14 -72q0 -61 -45 -114t-114 -64l-14 -65h-96z" />
    <glyph glyph-name="ampersand.smcp" unicode="&#xf726;" horiz-adv-x="414" 
d="M359 0h-122q-1 3 -4 9.5t-5 9.5q-49 -30 -99 -30q-62 0 -100 33.5t-38 94.5q0 73 34.5 118.5t94.5 79.5q-8 43 -8 76q0 72 46 121.5t105 49.5q49 0 82 -31t33 -79q0 -32 -10.5 -58.5t-33.5 -47.5t-41 -33.5t-51 -31.5q1 -2 5.5 -15t7.5 -21q8 -24 18 -49q25 42 47 90
l84 -50q-40 -82 -90 -140q39 -84 45 -96zM156 82q18 0 37 14q-13 32 -26 70q-7 17 -19 49q-33 -36 -33 -82q0 -21 11 -36t30 -15zM218 392q0 -15 1 -22q53 34 53 79q0 28 -16 28t-27 -26t-11 -59z" />
    <glyph glyph-name="zero.onum" unicode="&#xf730;" horiz-adv-x="474" 
d="M468 357q0 -56 -17 -118.5t-48 -119.5t-83 -94t-115 -37q-87 0 -136.5 54t-49.5 151q0 56 17 118.5t48 119.5t83 94t115 37q86 0 136 -54t50 -151zM315 360q0 68 -42 68q-24 0 -44.5 -30t-32.5 -71.5t-18.5 -78.5t-6.5 -58q0 -68 43 -68q44 0 72.5 90.5t28.5 147.5z" />
    <glyph glyph-name="one.onum" unicode="&#xf731;" horiz-adv-x="377" 
d="M276 0h-151l78 356l-109 -92l-66 91l238 195h131z" />
    <glyph glyph-name="two.onum" unicode="&#xf732;" horiz-adv-x="448" 
d="M360 0h-378l28 126q285 158 285 254q0 23 -15.5 36.5t-42.5 13.5q-61 0 -103 -58l-77 91q84 99 201 99q88 0 143 -40.5t55 -107.5q0 -75 -59 -143t-174 -139h166z" />
    <glyph glyph-name="three.onum" unicode="&#xf733;" horiz-adv-x="465" 
d="M179 -129q-75 0 -138.5 36t-83.5 98l119 78q13 -37 40.5 -57.5t62.5 -20.5q39 0 59.5 29.5t20.5 65.5q0 27 -19.5 41t-47.5 14q-29 0 -40 -2l31 135q7 -1 53 -1q38 0 57.5 25.5t19.5 60.5q0 53 -71 53q-56 0 -95 -48l-78 90q85 92 198 92q89 0 144.5 -40t55.5 -114
q0 -71 -46 -123t-106 -62q47 -15 69 -51t22 -79q0 -92 -65.5 -156t-161.5 -64z" />
    <glyph glyph-name="four.onum" unicode="&#xf734;" horiz-adv-x="463" 
d="M398 23h-49l-31 -140h-151l31 140h-231l30 134l292 393h176l-87 -394h49zM227 156l49 221l-157 -221h108z" />
    <glyph glyph-name="five.onum" unicode="&#xf735;" horiz-adv-x="471" 
d="M178 -129q-161 0 -215 133l116 79q13 -37 39.5 -57.5t58.5 -20.5q37 0 63.5 37.5t26.5 86.5q0 28 -15.5 44.5t-44.5 16.5q-42 0 -79 -43l-103 37l81 366h375l-29 -132h-224l-32 -149q37 44 98 44q60 0 96 -43t36 -119q0 -114 -69 -197t-179 -83z" />
    <glyph glyph-name="six.onum" unicode="&#xf736;" horiz-adv-x="466" 
d="M214 -12q-91 0 -140.5 58.5t-49.5 166.5q0 68 19 145t55 150t99 121t140 48q54 0 97.5 -22.5t66.5 -62.5l-98 -101q-18 52 -73 52q-41 0 -75 -45.5t-53 -111.5q-4 -10 -7 -28q23 35 56 55t67 20q57 0 93.5 -41.5t36.5 -112.5t-27.5 -137t-82 -110t-124.5 -44zM217 122
q33 0 53.5 43.5t20.5 84.5q0 26 -12 43.5t-35 17.5q-36 0 -69 -58q-5 -23 -5 -59q0 -72 47 -72z" />
    <glyph glyph-name="seven.onum" unicode="&#xf737;" horiz-adv-x="420" 
d="M154 -117h-166l283 535h-218l30 132h389l-24 -105z" />
    <glyph glyph-name="eight.onum" unicode="&#xf738;" horiz-adv-x="466" 
d="M209 -12q-103 0 -156 37.5t-53 119.5q0 66 41 125.5t119 84.5q-34 17 -55.5 51.5t-21.5 76.5q0 84 65.5 139t150.5 55q82 0 140 -37.5t58 -117.5q0 -68 -42.5 -121t-107.5 -67q41 -22 62.5 -60t21.5 -82q0 -89 -61.5 -146.5t-160.5 -57.5zM265 391q78 27 78 104
q0 48 -48 48q-29 0 -48 -25.5t-19 -62.5q0 -40 37 -64zM208 122q30 0 52 29t22 71q0 27 -13 45.5t-26 24.5q-35 -9 -61 -39.5t-26 -76.5q0 -26 14 -40t38 -14z" />
    <glyph glyph-name="nine.onum" unicode="&#xf739;" horiz-adv-x="466" 
d="M265 561q91 0 140.5 -58.5t49.5 -166.5q0 -68 -19 -145t-55 -150t-99 -121t-140 -48q-113 0 -164 85l99 101q16 -52 73 -52q41 0 74.5 45.5t52.5 111.5q6 18 8 28q-23 -35 -56 -55t-68 -20q-56 0 -93 42t-37 112q0 71 27.5 137t82 110t124.5 44zM263 427q-33 0 -54 -43.5
t-21 -84.5q0 -26 12 -43.5t36 -17.5q35 0 68 58q6 28 6 59q0 72 -47 72z" />
    <glyph glyph-name="question.smcp" unicode="&#xf73f;" horiz-adv-x="294" 
d="M332 458q0 -33 -14.5 -60.5t-35 -45.5t-40.5 -33.5t-34.5 -32.5t-14.5 -35q0 -11 6 -22l-110 -34q-8 18 -8 47q0 31 16 57.5t35.5 42t35.5 35.5t16 40q0 30 -30 30q-21 0 -39 -20l-47 78q61 57 133 57q57 0 94 -28t37 -76zM103 -12q-32 0 -54.5 23t-22.5 55
q0 37 27.5 64.5t65.5 27.5q32 0 54.5 -23t22.5 -55q0 -38 -27.5 -65t-65.5 -27z" />
    <glyph glyph-name="A.smcp" unicode="&#xf761;" horiz-adv-x="399" 
d="M186 550h160l2 -550h-144l6 86h-90l-32 -86h-145zM221 208l13 189l-72 -189h59z" />
    <glyph glyph-name="B.smcp" unicode="&#xf762;" horiz-adv-x="415" 
d="M207 0h-221l121 550h174q70 0 109 -32t39 -85q0 -54 -30.5 -98t-85.5 -55q66 -28 66 -102q0 -70 -44 -124t-128 -54zM153 122h38q21 0 34 19t13 42q0 36 -33 36h-31zM236 340h-2q20 0 32 18t12 39q0 31 -36 31h-21l-20 -88h35z" />
    <glyph glyph-name="C.smcp" unicode="&#xf763;" horiz-adv-x="403" 
d="M188 -12q-76 0 -123.5 48t-47.5 144q0 42 9 91t29 101t48 94t71 69t94 27q146 0 156 -164l-119 -24q-3 65 -41 65q-45 0 -74.5 -95t-29.5 -161q0 -72 42 -72q20 0 34 17t28 51l104 -46q-33 -67 -73.5 -106t-106.5 -39z" />
    <glyph glyph-name="D.smcp" unicode="&#xf764;" horiz-adv-x="447" 
d="M175 0h-189l121 550h138q90 0 143 -48t53 -149q0 -38 -7.5 -81.5t-27 -92.5t-48.5 -88t-76.5 -65t-106.5 -26zM184 122h5q33 0 59.5 42.5t38 93.5t11.5 92q0 78 -62 78h-16l-67 -306h31z" />
    <glyph glyph-name="E.smcp" unicode="&#xf765;" horiz-adv-x="347" 
d="M266 0h-280l121 550h280l-27 -122h-139l-20 -88h134l-27 -121h-134l-21 -97h139z" />
    <glyph glyph-name="F.smcp" unicode="&#xf766;" horiz-adv-x="343" 
d="M126 0h-140l121 550h280l-26 -122h-140l-20 -88h134l-27 -121h-134z" />
    <glyph glyph-name="G.smcp" unicode="&#xf767;" horiz-adv-x="425" 
d="M198 -12q-89 0 -135 50.5t-46 144.5q0 81 27 165t87 149t139 65q70 0 110.5 -44.5t42.5 -120.5l-118 -23q-4 65 -42 65q-23 0 -43 -29.5t-32.5 -72t-20 -84.5t-7.5 -70q0 -72 47 -72q22 0 36 14l16 71h-51l25 113h175l-58 -262q-69 -59 -152 -59z" />
    <glyph glyph-name="H.smcp" unicode="&#xf768;" horiz-adv-x="457" 
d="M362 0h-141l49 221h-95l-49 -221h-140l121 550h140l-45 -208h95l45 208h141z" />
    <glyph glyph-name="I.smcp" unicode="&#xf769;" horiz-adv-x="221" 
d="M126 0h-140l121 550h140z" />
    <glyph glyph-name="J.smcp" unicode="&#xf76a;" horiz-adv-x="321" 
d="M77 -12q-82 0 -119 37l56 109q18 -23 50 -23q46 0 58 55l85 384h140l-89 -403q-18 -84 -61.5 -121.5t-119.5 -37.5z" />
    <glyph glyph-name="K.smcp" unicode="&#xf76b;" horiz-adv-x="440" 
d="M386 0h-156l-35 186l-41 -58l-28 -128h-140l121 550h140l-45 -209l142 209h153l-195 -258z" />
    <glyph glyph-name="L.smcp" unicode="&#xf76c;" horiz-adv-x="337" 
d="M266 0h-280l121 550h140l-94 -428h139z" />
    <glyph glyph-name="M.smcp" unicode="&#xf76d;" horiz-adv-x="565" 
d="M471 0h-138l61 281l-140 -281h-51l-15 282l-62 -282h-140l121 550h170l14 -262l132 262h169z" />
    <glyph glyph-name="N.smcp" unicode="&#xf76e;" horiz-adv-x="447" 
d="M353 0h-133l-34 269l-60 -269h-140l121 550h142l30 -253l55 253h140z" />
    <glyph glyph-name="O.smcp" unicode="&#xf76f;" horiz-adv-x="452" 
d="M193 -12q-81 0 -128.5 49.5t-47.5 144.5q0 38 8 84.5t27 99.5t47 96t73 71.5t99 28.5q81 0 128.5 -49.5t47.5 -144.5q0 -50 -13.5 -110t-41 -123t-79.5 -105t-120 -42zM201 111q25 0 46 31.5t33 76t18.5 85.5t6.5 66q0 69 -41 69q-25 0 -46 -31.5t-33.5 -76t-19 -85.5
t-6.5 -66q0 -69 42 -69z" />
    <glyph glyph-name="P.smcp" unicode="&#xf770;" horiz-adv-x="412" 
d="M126 0h-140l121 550h161q74 0 118 -40.5t44 -108.5q0 -84 -54.5 -150t-146.5 -66h-62zM224 307h4q26 0 41 23.5t15 54.5q0 43 -41 43h-22l-27 -121h30z" />
    <glyph glyph-name="Q.smcp" unicode="&#xf771;" horiz-adv-x="452" 
d="M193 -12q-81 0 -128.5 49.5t-47.5 144.5q0 38 8 84.5t27 99.5t47 96t73 71.5t99 28.5q81 0 128.5 -49.5t47.5 -144.5q0 -76 -29.5 -171t-87.5 -152l10 -60l-102 -21l-5 29q-22 -5 -40 -5zM201 111q5 0 13 2l-11 70l69 13q33 93 33 174q0 69 -41 69q-25 0 -46 -31.5
t-33.5 -76t-19 -85.5t-6.5 -66q0 -69 42 -69z" />
    <glyph glyph-name="R.smcp" unicode="&#xf772;" horiz-adv-x="427" 
d="M351 0h-149l-9 185h-26l-41 -185h-140l121 550h153q80 0 125.5 -39.5t45.5 -110.5q0 -63 -31.5 -118t-75.5 -75zM220 307h8q25 0 41 24.5t16 52.5q0 44 -41 44h-23l-27 -121h26z" />
    <glyph glyph-name="S.smcp" unicode="&#xf773;" horiz-adv-x="377" 
d="M153 -12q-121 0 -179 71l75 102q38 -50 96 -50q23 0 37 16t14 39q0 18 -21 39t-46 40t-46 54.5t-21 79.5q0 77 56 130t136 53q95 0 156 -61l-73 -103q-32 41 -82 41q-19 0 -32.5 -15t-13.5 -35q0 -15 14 -30.5t33.5 -31t39.5 -35t34 -51.5t14 -72q0 -69 -55 -125
t-136 -56z" />
    <glyph glyph-name="T.smcp" unicode="&#xf774;" horiz-adv-x="329" 
d="M181 0h-140l94 428h-80l27 122h299l-27 -122h-79z" />
    <glyph glyph-name="U.smcp" unicode="&#xf775;" horiz-adv-x="455" 
d="M198 -12q-81 0 -129.5 37.5t-49.5 100.5q0 25 6 49l82 375h140l-82 -373q-3 -11 -3 -23q0 -43 41 -43q40 0 55 65l83 374h140l-83 -373q-41 -189 -200 -189z" />
    <glyph glyph-name="V.smcp" unicode="&#xf776;" horiz-adv-x="399" 
d="M225 0h-160l-1 550h143l-20 -357l136 357h146z" />
    <glyph glyph-name="W.smcp" unicode="&#xf777;" horiz-adv-x="570" 
d="M409 0h-139l23 279l-100 -279h-140l17 550h143l-26 -294l111 294h109l-19 -297l104 297h142z" />
    <glyph glyph-name="X.smcp" unicode="&#xf778;" horiz-adv-x="418" 
d="M368 0h-152l-23 169l-96 -169h-155l187 281l-59 269h152l18 -158l88 158h154l-177 -269z" />
    <glyph glyph-name="Y.smcp" unicode="&#xf779;" horiz-adv-x="405" 
d="M219 0h-141l50 225l-66 325h146l19 -188l102 188h148l-209 -325z" />
    <glyph glyph-name="Z.smcp" unicode="&#xf77a;" horiz-adv-x="338" 
d="M261 0h-292l23 106l195 321h-124l27 123h286l-22 -102l-198 -325h132z" />
    <glyph glyph-name="exclamdown.smcp" unicode="&#xf7a1;" horiz-adv-x="207" 
d="M-38 0l94 339h109l-55 -339h-148zM148 562q32 0 54.5 -23t22.5 -55q0 -37 -27.5 -64.5t-65.5 -27.5q-32 0 -54.5 23t-22.5 55q0 37 27.5 64.5t65.5 27.5z" />
    <glyph glyph-name="questiondown.smcp" unicode="&#xf7b8;" horiz-adv-x="294" 
d="M-38 92q0 33 14.5 60.5t35 45.5t40.5 33.5t34.5 32.5t14.5 35q0 11 -6 22l110 34q8 -18 8 -47q0 -31 -16 -57.5t-35.5 -42t-35.5 -35.5t-16 -40q0 -30 30 -30q21 0 39 20l47 -78q-61 -57 -133 -57q-57 0 -94 28t-37 76zM191 562q32 0 54.5 -23t22.5 -55
q0 -37 -27.5 -64.5t-65.5 -27.5q-32 0 -54.5 23t-22.5 55q0 38 27.5 65t65.5 27z" />
    <glyph glyph-name="Agrave.smcp" unicode="&#xf7e0;" horiz-adv-x="399" 
d="M186 550h160l2 -550h-144l6 86h-90l-32 -86h-145zM221 208l13 189l-72 -189h59zM349 606h-84l-77 144h114z" />
    <glyph glyph-name="Aacute.smcp" unicode="&#xf7e1;" horiz-adv-x="399" 
d="M186 550h160l2 -550h-144l6 86h-90l-32 -86h-145zM221 208l13 189l-72 -189h59zM435 750l-141 -144h-86l111 144h116z" />
    <glyph glyph-name="Acircumflex.smcp" unicode="&#xf7e2;" horiz-adv-x="399" 
d="M186 550h160l2 -550h-144l6 86h-90l-32 -86h-145zM221 208l13 189l-72 -189h59zM402 606h-71l-32 86l-67 -86h-75l93 144h120z" />
    <glyph glyph-name="Atilde.smcp" unicode="&#xf7e3;" horiz-adv-x="399" 
d="M186 550h160l2 -550h-144l6 86h-90l-32 -86h-145zM221 208l13 189l-72 -189h59zM332 604q-20 0 -32.5 10t-17 22t-12 22t-19.5 10q-24 0 -36 -58h-70q29 134 111 134q20 0 33 -10t17 -22t12 -22t20 -10q23 0 36 58h70q-29 -134 -112 -134z" />
    <glyph glyph-name="Adieresis.smcp" unicode="&#xf7e4;" horiz-adv-x="399" 
d="M186 550h160l2 -550h-144l6 86h-90l-32 -86h-145zM221 208l13 189l-72 -189h59zM452 684q0 -31 -24.5 -55t-55.5 -24q-27 0 -45 18t-18 45q0 31 24.5 55t55.5 24q27 0 45 -18t18 -45zM278 684q0 -31 -24 -55t-56 -24q-27 0 -45 18t-18 45q0 31 24.5 55t55.5 24
q27 0 45 -18t18 -45z" />
    <glyph glyph-name="Aring.smcp" unicode="&#xf7e5;" horiz-adv-x="399" 
d="M186 550h160l2 -550h-144l6 86h-90l-32 -86h-145zM221 208l13 189l-72 -189h59zM286 596q-36 0 -58.5 23t-22.5 59q0 41 30.5 72t71.5 31q36 0 59 -23t23 -59q0 -42 -31 -72.5t-72 -30.5zM294 653q16 0 27.5 12t11.5 28q0 14 -8.5 23t-22.5 9q-16 0 -28 -12t-12 -28
q0 -14 9 -23t23 -9z" />
    <glyph glyph-name="AE.smcp" unicode="&#xf7e6;" horiz-adv-x="553" 
d="M472 0h-280l19 86h-83l-42 -86h-146l311 550h342l-27 -122h-139l-19 -88h133l-27 -121h-133l-21 -97h139zM238 208l42 189l-95 -189h53z" />
    <glyph glyph-name="Ccedilla.smcp" unicode="&#xf7e7;" horiz-adv-x="403" 
d="M137 -196q-60 0 -97 40l33 48q27 -32 63 -32q18 0 28.5 10t10.5 25q0 20 -21 20q-14 0 -22 -13l-42 28l39 67q-112 34 -112 183q0 42 9 91t29 101t48 94t71 69t94 27q146 0 156 -164l-119 -24q-3 65 -41 65q-45 0 -74.5 -95t-29.5 -161q0 -72 42 -72q20 0 34 17t28 51
l104 -46q-33 -67 -73.5 -106t-106.5 -39l-24 -39q11 10 23 10q23 0 38 -16.5t15 -44.5q0 -40 -29.5 -67t-73.5 -27z" />
    <glyph glyph-name="Egrave.smcp" unicode="&#xf7e8;" horiz-adv-x="347" 
d="M266 0h-280l121 550h280l-27 -122h-139l-20 -88h134l-27 -121h-134l-21 -97h139zM330 606h-84l-77 144h114z" />
    <glyph glyph-name="Eacute.smcp" unicode="&#xf7e9;" horiz-adv-x="347" 
d="M266 0h-280l121 550h280l-27 -122h-139l-20 -88h134l-27 -121h-134l-21 -97h139zM417 750l-141 -144h-86l111 144h116z" />
    <glyph glyph-name="Ecircumflex.smcp" unicode="&#xf7ea;" horiz-adv-x="347" 
d="M266 0h-280l121 550h280l-27 -122h-139l-20 -88h134l-27 -121h-134l-21 -97h139zM382 606h-71l-32 86l-67 -86h-75l93 144h120z" />
    <glyph glyph-name="Edieresis.smcp" unicode="&#xf7eb;" horiz-adv-x="347" 
d="M266 0h-280l121 550h280l-27 -122h-139l-20 -88h134l-27 -121h-134l-21 -97h139zM433 684q0 -31 -24.5 -55t-55.5 -24q-27 0 -45 18t-18 45q0 31 24.5 55t55.5 24q27 0 45 -18t18 -45zM259 684q0 -31 -24 -55t-56 -24q-27 0 -45 18t-18 45q0 31 24.5 55t55.5 24
q27 0 45 -18t18 -45z" />
    <glyph glyph-name="Igrave.smcp" unicode="&#xf7ec;" horiz-adv-x="217" 
d="M126 0h-140l121 550h140zM258 606h-84l-77 144h114z" />
    <glyph glyph-name="Iacute.smcp" unicode="&#xf7ed;" horiz-adv-x="217" 
d="M126 0h-140l121 550h140zM344 750l-141 -144h-86l111 144h116z" />
    <glyph glyph-name="Icircumflex.smcp" unicode="&#xf7ee;" horiz-adv-x="217" 
d="M126 0h-140l121 550h140zM310 606h-71l-32 86l-67 -86h-75l93 144h120z" />
    <glyph glyph-name="Idieresis.smcp" unicode="&#xf7ef;" horiz-adv-x="217" 
d="M126 0h-140l121 550h140zM362 684q0 -31 -24.5 -55t-55.5 -24q-27 0 -45 18t-18 45q0 31 24.5 55t55.5 24q27 0 45 -18t18 -45zM188 684q0 -31 -24 -55t-56 -24q-27 0 -45 18t-18 45q0 31 24.5 55t55.5 24q27 0 45 -18t18 -45z" />
    <glyph glyph-name="Eth.smcp" unicode="&#xf7f0;" horiz-adv-x="463" 
d="M189 0h-189l50 229h-41l22 96h40l50 225h138q90 0 143 -48t53 -149q0 -38 -7.5 -81.5t-27 -92.5t-48.5 -88t-76.5 -65t-106.5 -26zM203 122q33 0 59.5 42.5t38 93.5t11.5 92q0 78 -62 78h-16l-23 -103h46l-22 -96h-45l-23 -107h36z" />
    <glyph glyph-name="Ntilde.smcp" unicode="&#xf7f1;" horiz-adv-x="447" 
d="M353 0h-133l-34 269l-60 -269h-140l121 550h142l30 -253l55 253h140zM355 604q-20 0 -32.5 10t-17 22t-12 22t-19.5 10q-24 0 -36 -58h-70q29 134 111 134q20 0 33 -10t17 -22t12 -22t20 -10q23 0 36 58h70q-29 -134 -112 -134z" />
    <glyph glyph-name="Ograve.smcp" unicode="&#xf7f2;" horiz-adv-x="452" 
d="M193 -12q-81 0 -128.5 49.5t-47.5 144.5q0 38 8 84.5t27 99.5t47 96t73 71.5t99 28.5q81 0 128.5 -49.5t47.5 -144.5q0 -50 -13.5 -110t-41 -123t-79.5 -105t-120 -42zM201 111q25 0 46 31.5t33 76t18.5 85.5t6.5 66q0 69 -41 69q-25 0 -46 -31.5t-33.5 -76t-19 -85.5
t-6.5 -66q0 -69 42 -69zM376 606h-84l-77 144h114z" />
    <glyph glyph-name="Oacute.smcp" unicode="&#xf7f3;" horiz-adv-x="452" 
d="M193 -12q-81 0 -128.5 49.5t-47.5 144.5q0 38 8 84.5t27 99.5t47 96t73 71.5t99 28.5q81 0 128.5 -49.5t47.5 -144.5q0 -50 -13.5 -110t-41 -123t-79.5 -105t-120 -42zM201 111q25 0 46 31.5t33 76t18.5 85.5t6.5 66q0 69 -41 69q-25 0 -46 -31.5t-33.5 -76t-19 -85.5
t-6.5 -66q0 -69 42 -69zM463 750l-141 -144h-86l111 144h116z" />
    <glyph glyph-name="Ocircumflex.smcp" unicode="&#xf7f4;" horiz-adv-x="452" 
d="M193 -12q-81 0 -128.5 49.5t-47.5 144.5q0 38 8 84.5t27 99.5t47 96t73 71.5t99 28.5q81 0 128.5 -49.5t47.5 -144.5q0 -50 -13.5 -110t-41 -123t-79.5 -105t-120 -42zM201 111q25 0 46 31.5t33 76t18.5 85.5t6.5 66q0 69 -41 69q-25 0 -46 -31.5t-33.5 -76t-19 -85.5
t-6.5 -66q0 -69 42 -69zM429 606h-71l-32 86l-67 -86h-75l93 144h120z" />
    <glyph glyph-name="Otilde.smcp" unicode="&#xf7f5;" horiz-adv-x="452" 
d="M193 -12q-81 0 -128.5 49.5t-47.5 144.5q0 38 8 84.5t27 99.5t47 96t73 71.5t99 28.5q81 0 128.5 -49.5t47.5 -144.5q0 -50 -13.5 -110t-41 -123t-79.5 -105t-120 -42zM201 111q25 0 46 31.5t33 76t18.5 85.5t6.5 66q0 69 -41 69q-25 0 -46 -31.5t-33.5 -76t-19 -85.5
t-6.5 -66q0 -69 42 -69zM358 604q-20 0 -32.5 10t-17 22t-12 22t-19.5 10q-24 0 -36 -58h-70q29 134 111 134q20 0 33 -10t17 -22t12 -22t20 -10q23 0 36 58h70q-29 -134 -112 -134z" />
    <glyph glyph-name="Odieresis.smcp" unicode="&#xf7f6;" horiz-adv-x="452" 
d="M193 -12q-81 0 -128.5 49.5t-47.5 144.5q0 38 8 84.5t27 99.5t47 96t73 71.5t99 28.5q81 0 128.5 -49.5t47.5 -144.5q0 -50 -13.5 -110t-41 -123t-79.5 -105t-120 -42zM201 111q25 0 46 31.5t33 76t18.5 85.5t6.5 66q0 69 -41 69q-25 0 -46 -31.5t-33.5 -76t-19 -85.5
t-6.5 -66q0 -69 42 -69zM479 684q0 -31 -24.5 -55t-55.5 -24q-27 0 -45 18t-18 45q0 31 24.5 55t55.5 24q27 0 45 -18t18 -45zM305 684q0 -31 -24 -55t-56 -24q-27 0 -45 18t-18 45q0 31 24.5 55t55.5 24q27 0 45 -18t18 -45z" />
    <glyph glyph-name="Oslash.smcp" unicode="&#xf7f8;" horiz-adv-x="452" 
d="M193 -12q-74 0 -120 41l-24 -29h-73l62 76q-21 43 -21 106q0 38 8 84.5t27 99.5t47 96t73 71.5t99 28.5q76 0 123 -44l26 32h74l-66 -81q19 -44 19 -101q0 -50 -13.5 -110t-41 -123t-79.5 -105t-120 -42zM264 439q-38 0 -64.5 -65t-36.5 -143l139 172q-8 36 -38 36z
M201 111q36 0 61.5 61t36.5 138l-136 -169q9 -30 38 -30z" />
    <glyph glyph-name="Ugrave.smcp" unicode="&#xf7f9;" horiz-adv-x="455" 
d="M198 -12q-81 0 -129.5 37.5t-49.5 100.5q0 25 6 49l82 375h140l-82 -373q-3 -11 -3 -23q0 -43 41 -43q40 0 55 65l83 374h140l-83 -373q-41 -189 -200 -189zM377 606h-84l-77 144h114z" />
    <glyph glyph-name="Uacute.smcp" unicode="&#xf7fa;" horiz-adv-x="455" 
d="M198 -12q-81 0 -129.5 37.5t-49.5 100.5q0 25 6 49l82 375h140l-82 -373q-3 -11 -3 -23q0 -43 41 -43q40 0 55 65l83 374h140l-83 -373q-41 -189 -200 -189zM463 750l-141 -144h-86l111 144h116z" />
    <glyph glyph-name="Ucircumflex.smcp" unicode="&#xf7fb;" horiz-adv-x="455" 
d="M198 -12q-81 0 -129.5 37.5t-49.5 100.5q0 25 6 49l82 375h140l-82 -373q-3 -11 -3 -23q0 -43 41 -43q40 0 55 65l83 374h140l-83 -373q-41 -189 -200 -189zM431 606h-71l-32 86l-67 -86h-75l93 144h120z" />
    <glyph glyph-name="Udieresis.smcp" unicode="&#xf7fc;" horiz-adv-x="455" 
d="M198 -12q-81 0 -129.5 37.5t-49.5 100.5q0 25 6 49l82 375h140l-82 -373q-3 -11 -3 -23q0 -43 41 -43q40 0 55 65l83 374h140l-83 -373q-41 -189 -200 -189zM479 684q0 -31 -24.5 -55t-55.5 -24q-27 0 -45 18t-18 45q0 31 24.5 55t55.5 24q27 0 45 -18t18 -45zM305 684
q0 -31 -24 -55t-56 -24q-27 0 -45 18t-18 45q0 31 24.5 55t55.5 24q27 0 45 -18t18 -45z" />
    <glyph glyph-name="Yacute.smcp" unicode="&#xf7fd;" horiz-adv-x="405" 
d="M219 0h-141l50 225l-66 325h146l19 -188l102 188h148l-209 -325zM438 750l-141 -144h-86l111 144h116z" />
    <glyph glyph-name="Thorn.smcp" unicode="&#xf7fe;" horiz-adv-x="412" 
d="M126 0h-140l121 550h140l-17 -80h20q84 0 123 -37t39 -112q0 -85 -54 -150.5t-147 -65.5h-62zM200 226h10q25 0 40.5 25t15.5 53q0 44 -41 44h-22l-27 -122h24z" />
    <glyph glyph-name="Ydieresis.smcp" unicode="&#xf7ff;" horiz-adv-x="405" 
d="M219 0h-141l50 225l-66 325h146l19 -188l102 188h148l-209 -325zM455 684q0 -31 -24.5 -55t-55.5 -24q-27 0 -45 18t-18 45q0 31 24.5 55t55.5 24q27 0 45 -18t18 -45zM281 684q0 -31 -24 -55t-56 -24q-27 0 -45 18t-18 45q0 31 24.5 55t55.5 24q27 0 45 -18t18 -45z" />
    <glyph glyph-name="f.alt1" horiz-adv-x="262" 
d="M138 0h-135l81 366h-43l26 117h42l8 34q18 82 56.5 121t101.5 39q45 0 82 -16l-41 -104q-8 4 -21 4q-32 0 -43 -44l-8 -34h59l-26 -117h-58z" />
    <glyph glyph-name="l.alt1" horiz-adv-x="246" 
d="M135 -12q-127 0 -127 92q0 25 6 48l119 539h136l-114 -513q-2 -12 -2 -22q0 -24 24 -24q12 0 22 8l-2 -113q-19 -15 -62 -15z" />
    <glyph glyph-name="a.alt1" horiz-adv-x="434" 
d="M351 0h-135l10 47q-38 -59 -107 -59q-50 0 -82.5 33.5t-32.5 91.5q0 80 44.5 135.5t111.5 55.5q34 0 65.5 -15t44.5 -43l12 52q3 15 3 29q0 26 -20 41t-50 15q-52 0 -101 -36l-27 98q61 50 163 50q77 0 127 -34t50 -97q0 -21 -6 -45zM187 78q37 0 55 37l13 59
q-12 40 -54 40q-29 0 -44.5 -26.5t-15.5 -60.5q0 -49 46 -49z" />
    <glyph glyph-name="y.alt1" horiz-adv-x="441" 
d="M129 -196q-56 0 -101.5 17.5t-66.5 45.5l66 101q36 -48 97 -48q37 0 58 24.5t33 75.5l13 59q-22 -29 -56 -49.5t-67 -20.5q-44 0 -69.5 23.5t-25.5 62.5q0 2 3 26l80 362h136l-69 -308q-2 -8 -2 -18q0 -28 27 -28q35 0 67 55l66 299h135l-104 -463q-26 -115 -81.5 -165.5
t-138.5 -50.5z" />
    <glyph glyph-name="G.alt1" horiz-adv-x="474" 
d="M205 -12q-85 0 -132.5 59.5t-47.5 163.5q0 67 17.5 143t52.5 151t97.5 124t140.5 49q79 0 117.5 -52.5t40.5 -136.5l-126 -31q-4 86 -49 86q-38 0 -71 -62t-49.5 -138.5t-16.5 -135.5q0 -45 11 -65.5t38 -20.5t50 35.5t35 83.5h-77l30 133h218q-37 -195 -101 -290.5
t-178 -95.5z" />
    <glyph glyph-name="G.smcp.alt1" horiz-adv-x="425" 
d="M185 -12q-78 0 -123 50t-45 139q0 57 15.5 121.5t45 124.5t80 99.5t112.5 39.5q71 0 111 -45.5t42 -115.5l-116 -27q-5 65 -44 65q-23 0 -44 -31t-33.5 -75t-19.5 -86.5t-7 -69.5q0 -66 41 -66q45 0 66 85h-58l25 113h189q-10 -60 -27.5 -113.5t-45.5 -102t-70 -77
t-94 -28.5z" />
    <glyph glyph-name="Gbreve.alt1" horiz-adv-x="474" 
d="M495 778q-59 -64 -140 -64q-79 0 -113 64l68 46q16 -34 58 -34q43 0 72 34zM205 -12q-85 0 -132.5 59.5t-47.5 163.5q0 67 17.5 143t52.5 151t97.5 124t140.5 49q79 0 117.5 -52.5t40.5 -136.5l-126 -31q-4 86 -49 86q-38 0 -71 -62t-49.5 -138.5t-16.5 -135.5
q0 -45 11 -65.5t38 -20.5t50 35.5t35 83.5h-77l30 133h218q-37 -195 -101 -290.5t-178 -95.5z" />
    <glyph glyph-name="Gbreve.smcp.alt1" horiz-adv-x="425" 
d="M445 659q-59 -64 -140 -64q-79 0 -113 64l68 46q16 -34 58 -34q43 0 72 34zM185 -12q-78 0 -123 50t-45 139q0 57 15.5 121.5t45 124.5t80 99.5t112.5 39.5q71 0 111 -45.5t42 -115.5l-116 -27q-5 65 -44 65q-23 0 -44 -31t-33.5 -75t-19.5 -86.5t-7 -69.5q0 -66 41 -66
q45 0 66 85h-58l25 113h189q-10 -60 -27.5 -113.5t-45.5 -102t-70 -77t-94 -28.5z" />
    <glyph glyph-name="Gcommaaccent.alt1" horiz-adv-x="474" 
d="M240 -121q0 -46 -34 -92t-86 -71l-37 38q25 12 48 30.5t33 38.5h-9q-21 0 -35.5 14t-14.5 39q0 28 22 49t50 21q26 0 44.5 -18t18.5 -49zM205 -12q-85 0 -132.5 59.5t-47.5 163.5q0 67 17.5 143t52.5 151t97.5 124t140.5 49q79 0 117.5 -52.5t40.5 -136.5l-126 -31
q-4 86 -49 86q-38 0 -71 -62t-49.5 -138.5t-16.5 -135.5q0 -45 11 -65.5t38 -20.5t50 35.5t35 83.5h-77l30 133h218q-37 -195 -101 -290.5t-178 -95.5z" />
    <glyph glyph-name="Gcommaaccent.smcp.alt1" horiz-adv-x="425" 
d="M217 -121q0 -46 -34 -92t-86 -71l-37 38q25 12 48 30.5t33 38.5h-9q-21 0 -35.5 14t-14.5 39q0 28 22 49t50 21q26 0 44.5 -18t18.5 -49zM185 -12q-78 0 -123 50t-45 139q0 57 15.5 121.5t45 124.5t80 99.5t112.5 39.5q71 0 111 -45.5t42 -115.5l-116 -27q-5 65 -44 65
q-23 0 -44 -31t-33.5 -75t-19.5 -86.5t-7 -69.5q0 -66 41 -66q45 0 66 85h-58l25 113h189q-10 -60 -27.5 -113.5t-45.5 -102t-70 -77t-94 -28.5z" />
    <glyph glyph-name="lslash.alt1" horiz-adv-x="270" 
d="M8 221l21 97l49 25l72 324h136l-55 -246l51 26l-21 -98l-52 -26l-37 -169q-2 -12 -2 -22q0 -24 24 -24q12 0 22 8l-2 -113q-20 -15 -62 -15q-127 0 -127 92q0 25 6 48l26 118z" />
    <glyph glyph-name="lacute.alt1" horiz-adv-x="246" 
d="M370 872l-141 -144h-86l111 144h116zM135 -12q-127 0 -127 92q0 25 6 48l119 539h136l-114 -513q-2 -12 -2 -22q0 -24 24 -24q12 0 22 8l-2 -113q-19 -15 -62 -15z" />
    <glyph glyph-name="lcommaaccent.alt1" horiz-adv-x="246" 
d="M102 -121q0 -46 -34 -92t-86 -71l-37 38q25 12 48 30.5t33 38.5h-9q-21 0 -35.5 14t-14.5 39q0 28 22 49t50 21q26 0 44.5 -18t18.5 -49zM135 -12q-127 0 -127 92q0 25 6 48l119 539h136l-114 -513q-2 -12 -2 -22q0 -24 24 -24q12 0 22 8l-2 -113q-19 -15 -62 -15z" />
    <glyph glyph-name="lcaron.alt1" horiz-adv-x="344" 
d="M447 613q0 -46 -34 -92t-86 -71l-37 38q25 12 48 30.5t33 38.5h-9q-21 0 -35.5 14t-14.5 39q0 28 22 49t50 21q26 0 44.5 -18t18.5 -49zM135 -12q-127 0 -127 92q0 25 6 48l119 539h136l-114 -513q-2 -12 -2 -22q0 -24 24 -24q12 0 22 8l-2 -113q-19 -15 -62 -15z" />
    <glyph glyph-name="aacute.alt1" horiz-adv-x="434" 
d="M444 700l-141 -144h-86l111 144h116zM351 0h-135l10 47q-38 -59 -107 -59q-50 0 -82.5 33.5t-32.5 91.5q0 80 44.5 135.5t111.5 55.5q34 0 65.5 -15t44.5 -43l12 52q3 15 3 29q0 26 -20 41t-50 15q-52 0 -101 -36l-27 98q61 50 163 50q77 0 127 -34t50 -97q0 -21 -6 -45z
M187 78q37 0 55 37l13 59q-12 40 -54 40q-29 0 -44.5 -26.5t-15.5 -60.5q0 -49 46 -49z" />
    <glyph glyph-name="agrave.alt1" horiz-adv-x="434" 
d="M357 556h-84l-77 144h114zM351 0h-135l10 47q-38 -59 -107 -59q-50 0 -82.5 33.5t-32.5 91.5q0 80 44.5 135.5t111.5 55.5q34 0 65.5 -15t44.5 -43l12 52q3 15 3 29q0 26 -20 41t-50 15q-52 0 -101 -36l-27 98q61 50 163 50q77 0 127 -34t50 -97q0 -21 -6 -45zM187 78
q37 0 55 37l13 59q-12 40 -54 40q-29 0 -44.5 -26.5t-15.5 -60.5q0 -49 46 -49z" />
    <glyph glyph-name="acircumflex.alt1" horiz-adv-x="434" 
d="M412 556h-71l-32 86l-67 -86h-75l93 144h120zM351 0h-135l10 47q-38 -59 -107 -59q-50 0 -82.5 33.5t-32.5 91.5q0 80 44.5 135.5t111.5 55.5q34 0 65.5 -15t44.5 -43l12 52q3 15 3 29q0 26 -20 41t-50 15q-52 0 -101 -36l-27 98q61 50 163 50q77 0 127 -34t50 -97
q0 -21 -6 -45zM187 78q37 0 55 37l13 59q-12 40 -54 40q-29 0 -44.5 -26.5t-15.5 -60.5q0 -49 46 -49z" />
    <glyph glyph-name="adieresis.alt1" horiz-adv-x="434" 
d="M459 620q0 -31 -24.5 -55t-55.5 -24q-27 0 -45 18t-18 45q0 31 24.5 55t55.5 24q27 0 45 -18t18 -45zM285 620q0 -31 -24 -55t-56 -24q-27 0 -45 18t-18 45q0 31 24.5 55t55.5 24q27 0 45 -18t18 -45zM351 0h-135l10 47q-38 -59 -107 -59q-50 0 -82.5 33.5t-32.5 91.5
q0 80 44.5 135.5t111.5 55.5q34 0 65.5 -15t44.5 -43l12 52q3 15 3 29q0 26 -20 41t-50 15q-52 0 -101 -36l-27 98q61 50 163 50q77 0 127 -34t50 -97q0 -21 -6 -45zM187 78q37 0 55 37l13 59q-12 40 -54 40q-29 0 -44.5 -26.5t-15.5 -60.5q0 -49 46 -49z" />
    <glyph glyph-name="atilde.alt1" horiz-adv-x="434" 
d="M340 554q-20 0 -32.5 10t-17 22t-12 22t-19.5 10q-24 0 -36 -58h-70q29 134 111 134q20 0 33 -10t17 -22t12 -22t20 -10q23 0 36 58h70q-29 -134 -112 -134zM351 0h-135l10 47q-38 -59 -107 -59q-50 0 -82.5 33.5t-32.5 91.5q0 80 44.5 135.5t111.5 55.5q34 0 65.5 -15
t44.5 -43l12 52q3 15 3 29q0 26 -20 41t-50 15q-52 0 -101 -36l-27 98q61 50 163 50q77 0 127 -34t50 -97q0 -21 -6 -45zM187 78q37 0 55 37l13 59q-12 40 -54 40q-29 0 -44.5 -26.5t-15.5 -60.5q0 -49 46 -49z" />
    <glyph glyph-name="aring.alt1" horiz-adv-x="434" 
d="M292 546q-36 0 -58.5 23t-22.5 59q0 41 30.5 72t71.5 31q36 0 59 -23t23 -59q0 -42 -31 -72.5t-72 -30.5zM300 603q16 0 27.5 12t11.5 28q0 14 -8.5 23t-22.5 9q-16 0 -28 -12t-12 -28q0 -14 9 -23t23 -9zM351 0h-135l10 47q-38 -59 -107 -59q-50 0 -82.5 33.5
t-32.5 91.5q0 80 44.5 135.5t111.5 55.5q34 0 65.5 -15t44.5 -43l12 52q3 15 3 29q0 26 -20 41t-50 15q-52 0 -101 -36l-27 98q61 50 163 50q77 0 127 -34t50 -97q0 -21 -6 -45zM187 78q37 0 55 37l13 59q-12 40 -54 40q-29 0 -44.5 -26.5t-15.5 -60.5q0 -49 46 -49z" />
    <glyph glyph-name="amacron.alt1" horiz-adv-x="434" 
d="M424 591h-262l17 76h262zM351 0h-135l10 47q-38 -59 -107 -59q-50 0 -82.5 33.5t-32.5 91.5q0 80 44.5 135.5t111.5 55.5q34 0 65.5 -15t44.5 -43l12 52q3 15 3 29q0 26 -20 41t-50 15q-52 0 -101 -36l-27 98q61 50 163 50q77 0 127 -34t50 -97q0 -21 -6 -45zM187 78
q37 0 55 37l13 59q-12 40 -54 40q-29 0 -44.5 -26.5t-15.5 -60.5q0 -49 46 -49z" />
    <glyph glyph-name="abreve.alt1" horiz-adv-x="434" 
d="M426 619q-59 -64 -140 -64q-79 0 -113 64l68 46q16 -34 58 -34q43 0 72 34zM351 0h-135l10 47q-38 -59 -107 -59q-50 0 -82.5 33.5t-32.5 91.5q0 80 44.5 135.5t111.5 55.5q34 0 65.5 -15t44.5 -43l12 52q3 15 3 29q0 26 -20 41t-50 15q-52 0 -101 -36l-27 98
q61 50 163 50q77 0 127 -34t50 -97q0 -21 -6 -45zM187 78q37 0 55 37l13 59q-12 40 -54 40q-29 0 -44.5 -26.5t-15.5 -60.5q0 -49 46 -49z" />
    <glyph glyph-name="aogonek.alt1" horiz-adv-x="434" 
d="M351 0q-78 -50 -78 -111q0 -19 18 -19q19 0 28 25l47 -33q-31 -48 -79 -48q-36 0 -57.5 17t-21.5 51q0 62 61 118h-53l10 47q-38 -59 -107 -59q-50 0 -82.5 33.5t-32.5 91.5q0 80 44.5 135.5t111.5 55.5q34 0 65.5 -15t44.5 -43l12 52q3 15 3 29q0 26 -20 41t-50 15
q-52 0 -101 -36l-27 98q61 50 163 50q77 0 127 -34t50 -97q0 -21 -6 -45zM187 78q37 0 55 37l13 59q-12 40 -54 40q-29 0 -44.5 -26.5t-15.5 -60.5q0 -49 46 -49z" />
    <glyph glyph-name="yacute.alt1" horiz-adv-x="441" 
d="M445 700l-141 -144h-86l111 144h116zM129 -196q-56 0 -101.5 17.5t-66.5 45.5l66 101q36 -48 97 -48q37 0 58 24.5t33 75.5l13 59q-22 -29 -56 -49.5t-67 -20.5q-44 0 -69.5 23.5t-25.5 62.5q0 2 3 26l80 362h136l-69 -308q-2 -8 -2 -18q0 -28 27 -28q35 0 67 55l66 299
h135l-104 -463q-26 -115 -81.5 -165.5t-138.5 -50.5z" />
    <glyph glyph-name="ydieresis.alt1" horiz-adv-x="441" 
d="M461 620q0 -31 -24.5 -55t-55.5 -24q-27 0 -45 18t-18 45q0 31 24.5 55t55.5 24q27 0 45 -18t18 -45zM287 620q0 -31 -24 -55t-56 -24q-27 0 -45 18t-18 45q0 31 24.5 55t55.5 24q27 0 45 -18t18 -45zM129 -196q-56 0 -101.5 17.5t-66.5 45.5l66 101q36 -48 97 -48
q37 0 58 24.5t33 75.5l13 59q-22 -29 -56 -49.5t-67 -20.5q-44 0 -69.5 23.5t-25.5 62.5q0 2 3 26l80 362h136l-69 -308q-2 -8 -2 -18q0 -28 27 -28q35 0 67 55l66 299h135l-104 -463q-26 -115 -81.5 -165.5t-138.5 -50.5z" />
    <glyph glyph-name="ae.alt1" horiz-adv-x="669" 
d="M638 197h-249q-3 -15 -3 -28q0 -30 20.5 -50.5t60.5 -20.5q42 0 81 36l44 -85q-68 -61 -152 -61q-99 0 -140 73q-73 -73 -169 -73q-55 0 -91 36t-36 95q0 80 44 132.5t112 52.5q34 0 66 -15t45 -42l11 51q3 17 3 27q0 27 -19.5 42.5t-50.5 15.5q-53 0 -101 -36l-27 98
q65 50 163 50q90 0 120 -66q59 66 134 66q72 0 112.5 -43t40.5 -129q0 -50 -19 -126zM252 125v18q0 21 3 31q-12 40 -54 40q-26 0 -43 -25.5t-17 -61.5q0 -49 46 -49q36 0 65 47zM408 291h124q4 15 4 34q0 28 -13.5 44t-37.5 16q-58 0 -77 -94z" />
    <glyph glyph-name="zero.pzero" horiz-adv-x="474" 
d="M202 -12q-74 0 -119 50l-28 -38h-85l75 102q-18 46 -18 112q0 111 36.5 217t103 176t144.5 70q74 0 119 -50l29 40h85l-76 -104q17 -48 17 -111q0 -111 -36 -217t-102.5 -176.5t-144.5 -70.5zM297 543q-36 0 -65.5 -75.5t-45.5 -173.5l151 206q-7 43 -40 43zM216 122
q36 0 65 75t45 173l-150 -205q5 -43 40 -43z" />
    <glyph glyph-name="Gcircumflex.alt1" horiz-adv-x="474" 
d="M482 728h-71l-32 86l-67 -86h-75l93 144h120zM205 -12q-85 0 -132.5 59.5t-47.5 163.5q0 67 17.5 143t52.5 151t97.5 124t140.5 49q79 0 117.5 -52.5t40.5 -136.5l-126 -31q-4 86 -49 86q-38 0 -71 -62t-49.5 -138.5t-16.5 -135.5q0 -45 11 -65.5t38 -20.5t50 35.5
t35 83.5h-77l30 133h218q-37 -195 -101 -290.5t-178 -95.5z" />
    <glyph glyph-name="Gdotaccent.alt1" horiz-adv-x="474" 
d="M440 793q0 -31 -24.5 -55t-56.5 -24q-27 0 -45 18t-18 45q0 31 24.5 55t56.5 24q27 0 45 -18t18 -45zM205 -12q-85 0 -132.5 59.5t-47.5 163.5q0 67 17.5 143t52.5 151t97.5 124t140.5 49q79 0 117.5 -52.5t40.5 -136.5l-126 -31q-4 86 -49 86q-38 0 -71 -62
t-49.5 -138.5t-16.5 -135.5q0 -45 11 -65.5t38 -20.5t50 35.5t35 83.5h-77l30 133h218q-37 -195 -101 -290.5t-178 -95.5z" />
    <glyph glyph-name="Gcircumflex.smcp.alt1" horiz-adv-x="425" 
d="M185 -12q-78 0 -123 50t-45 139q0 57 15.5 121.5t45 124.5t80 99.5t112.5 39.5q71 0 111 -45.5t42 -115.5l-116 -27q-5 65 -44 65q-23 0 -44 -31t-33.5 -75t-19.5 -86.5t-7 -69.5q0 -66 41 -66q45 0 66 85h-58l25 113h189q-10 -60 -27.5 -113.5t-45.5 -102t-70 -77
t-94 -28.5zM428 606h-71l-32 86l-67 -86h-75l93 144h120z" />
    <glyph glyph-name="Gdotaccent.smcp.alt1" horiz-adv-x="425" 
d="M185 -12q-78 0 -123 50t-45 139q0 57 15.5 121.5t45 124.5t80 99.5t112.5 39.5q71 0 111 -45.5t42 -115.5l-116 -27q-5 65 -44 65q-23 0 -44 -31t-33.5 -75t-19.5 -86.5t-7 -69.5q0 -66 41 -66q45 0 66 85h-58l25 113h189q-10 -60 -27.5 -113.5t-45.5 -102t-70 -77
t-94 -28.5zM394 691q0 -31 -24.5 -55t-56.5 -24q-27 0 -45 18t-18 45q0 31 24.5 55t56.5 24q27 0 45 -18t18 -45z" />
    <glyph glyph-name="aeacute.alt1" horiz-adv-x="669" 
d="M638 197h-249q-3 -15 -3 -28q0 -30 20.5 -50.5t60.5 -20.5q42 0 81 36l44 -85q-68 -61 -152 -61q-99 0 -140 73q-73 -73 -169 -73q-55 0 -91 36t-36 95q0 80 44 132.5t112 52.5q34 0 66 -15t45 -42l11 51q3 17 3 27q0 27 -19.5 42.5t-50.5 15.5q-53 0 -101 -36l-27 98
q65 50 163 50q90 0 120 -66q59 66 134 66q72 0 112.5 -43t40.5 -129q0 -50 -19 -126zM561 700l-141 -144h-86l111 144h116zM252 125v18q0 21 3 31q-12 40 -54 40q-26 0 -43 -25.5t-17 -61.5q0 -49 46 -49q36 0 65 47zM408 291h124q4 15 4 34q0 28 -13.5 44t-37.5 16
q-58 0 -77 -94z" />
    <glyph glyph-name="ycircumflex.alt1" horiz-adv-x="441" 
d="M413 556h-71l-32 86l-67 -86h-75l93 144h120zM129 -196q-56 0 -101.5 17.5t-66.5 45.5l66 101q36 -48 97 -48q37 0 58 24.5t33 75.5l13 59q-22 -29 -56 -49.5t-67 -20.5q-44 0 -69.5 23.5t-25.5 62.5q0 2 3 26l80 362h136l-69 -308q-2 -8 -2 -18q0 -28 27 -28q35 0 67 55
l66 299h135l-104 -463q-26 -115 -81.5 -165.5t-138.5 -50.5z" />
    <glyph glyph-name="ldot.alt1" horiz-adv-x="391" 
d="M135 -12q-127 0 -127 92q0 25 6 48l119 539h136l-114 -513q-2 -12 -2 -22q0 -24 24 -24q12 0 22 8l-2 -113q-19 -15 -62 -15zM295 159q-32 0 -54.5 23t-22.5 55q0 37 28 65t65 28q32 0 54.5 -23.5t22.5 -55.5q0 -37 -27.5 -64.5t-65.5 -27.5z" />
    <glyph glyph-name="fl.alt1" horiz-adv-x="508" 
d="M138 0h-135l81 366h-43l26 117h42l8 34q18 82 56.5 121t101.5 39q45 0 82 -16l-41 -104q-8 4 -21 4q-32 0 -43 -44l-8 -34h59l-26 -117h-58zM397 -12q-127 0 -127 92q0 25 6 48l119 539h136l-114 -513q-2 -12 -2 -22q0 -24 24 -24q12 0 22 8l-2 -113q-19 -15 -62 -15z
" />
    <glyph glyph-name="f_f_l.alt1" horiz-adv-x="770" 
d="M138 0h-135l81 366h-43l26 117h42l8 34q16 74 52.5 117t105.5 43q71 0 105 -30l-52 -100q-11 14 -33 14q-33 0 -43 -44l-8 -34h59l-26 -117h-58zM400 0h-135l81 366h-43l26 117h42l8 34q18 82 56.5 121t101.5 39q45 0 82 -16l-41 -104q-8 4 -21 4q-32 0 -43 -44l-8 -34
h59l-26 -117h-58zM660 -12q-127 0 -127 92q0 25 6 48l119 539h136l-114 -513q-2 -12 -2 -22q0 -24 24 -24q12 0 22 8l-2 -113q-20 -15 -62 -15z" />
    </font>
</defs>
</svg>
