<?xml version="1.0" standalone="no"?>
<!DOCTYPE svg PUBLIC "-//W3C//DTD SVG 1.1//EN" "http://www.w3.org/Graphics/SVG/1.1/DTD/svg11.dtd" >
<svg>
<metadata>
Created by FontForge 20120731 at Mon Oct  3 21:03:11 2016
 By ,,,
Copyright (c) Mark Simonson, 2005. All rights reserved.
</metadata>
<defs>
<font id="ProximaNovaCond-ThinIt" horiz-adv-x="310" >
  <font-face 
    font-family="Proxima Nova Cn Th"
    font-weight="250"
    font-style="italic"
    font-stretch="normal"
    units-per-em="1000"
    panose-1="2 0 5 6 3 0 0 2 0 4"
    ascent="790"
    descent="-210"
    x-height="483"
    cap-height="667"
    bbox="-190 -252 897 886"
    underline-thickness="20"
    underline-position="-113"
    unicode-range="U+0020-FB04"
  />
<missing-glyph horiz-adv-x="511" 
d="M451 -90h-351v842h351v-842zM419 -60v782h-288v-782h288z" />
    <glyph glyph-name="f_f_j" unicode="ffj" horiz-adv-x="629" 
d="M65 0h-30l101 456h-65l6 27h65l17 79q26 115 116 115q45 0 70 -31l-22 -22q-18 26 -51 26q-64 0 -83 -88l-17 -79h84l-6 -27h-84zM289 0h-30l101 456h-65l6 27h65l17 79q25 115 116 115q31 0 51 -14l-16 -25q-15 12 -38 12q-64 0 -83 -88l-17 -79h84l-6 -27h-84z
M378 -196q-56 0 -77 41l26 17q15 -31 50 -31q55 0 73 83l127 569h30l-127 -569q-13 -60 -37.5 -85t-64.5 -25zM613 566q-11 0 -19 7.5t-8 18.5q0 14 10.5 23t22.5 9q11 0 19 -7.5t8 -18.5q0 -14 -10.5 -23t-22.5 -9z" />
    <glyph glyph-name="f_j" unicode="fj" horiz-adv-x="405" 
d="M65 0h-30l101 456h-65l6 27h65l17 79q25 115 116 115q31 0 51 -14l-16 -25q-15 12 -38 12q-64 0 -83 -88l-17 -79h84l-6 -27h-84zM154 -196q-56 0 -77 41l26 17q15 -31 50 -31q55 0 73 83l127 569h30l-127 -569q-13 -60 -37.5 -85t-64.5 -25zM389 566q-11 0 -19 7.5
t-8 18.5q0 14 10.5 23t22.5 9q11 0 19 -7.5t8 -18.5q0 -14 -10.5 -23t-22.5 -9z" />
    <glyph glyph-name="f_f" unicode="ff" horiz-adv-x="448" 
d="M65 0h-30l101 456h-65l6 27h65l17 79q26 115 116 115q45 0 70 -31l-22 -22q-18 26 -51 26q-64 0 -83 -88l-17 -79h84l-6 -27h-84zM289 0h-30l101 456h-65l6 27h65l17 79q26 115 116 115q45 0 70 -31l-22 -22q-18 26 -51 26q-64 0 -83 -88l-17 -79h84l-6 -27h-84z" />
    <glyph glyph-name="fi" unicode="fi" horiz-adv-x="405" 
d="M65 0h-30l101 456h-65l6 27h65l17 79q25 115 116 115q31 0 51 -14l-16 -25q-15 12 -38 12q-64 0 -83 -88l-17 -79h84l-6 -27h-84zM389 566q-11 0 -19 7.5t-8 18.5q0 14 10.5 23t22.5 9q11 0 19 -7.5t8 -18.5q0 -14 -10.5 -23t-22.5 -9zM276 0h-30l107 483h30z" />
    <glyph glyph-name="fl" unicode="fl" horiz-adv-x="405" 
d="M65 0h-30l101 456h-65l6 27h65l17 79q25 115 116 115q31 0 51 -14l-16 -25q-15 12 -38 12q-64 0 -83 -88l-17 -79h84l-6 -27h-84zM276 0h-30l147 667h30z" />
    <glyph glyph-name="f_f_i" unicode="ffi" horiz-adv-x="629" 
d="M65 0h-30l101 456h-65l6 27h65l17 79q26 115 116 115q45 0 70 -31l-22 -22q-18 26 -51 26q-64 0 -83 -88l-17 -79h84l-6 -27h-84zM289 0h-30l101 456h-65l6 27h65l17 79q25 115 116 115q31 0 51 -14l-16 -25q-15 12 -38 12q-64 0 -83 -88l-17 -79h84l-6 -27h-84zM613 566
q-11 0 -19 7.5t-8 18.5q0 14 10.5 23t22.5 9q11 0 19 -7.5t8 -18.5q0 -14 -10.5 -23t-22.5 -9zM500 0h-30l107 483h30z" />
    <glyph glyph-name="f_f_l" unicode="ffl" horiz-adv-x="629" 
d="M65 0h-30l101 456h-65l6 27h65l17 79q26 115 116 115q45 0 70 -31l-22 -22q-18 26 -51 26q-64 0 -83 -88l-17 -79h84l-6 -27h-84zM289 0h-30l101 456h-65l6 27h65l17 79q25 115 116 115q31 0 51 -14l-16 -25q-15 12 -38 12q-64 0 -83 -88l-17 -79h84l-6 -27h-84zM500 0
h-30l147 667h30z" />
    <glyph glyph-name="f_b" unicode="fb" horiz-adv-x="683" 
d="M65 0h-30l101 456h-65l6 27h65l17 79q25 115 116 115q31 0 51 -14l-16 -25q-15 12 -38 12q-64 0 -83 -88l-17 -79h84l-6 -27h-84zM424 -12q-44 0 -78.5 25t-52.5 69l-17 -82h-30l147 667h30l-56 -255q54 83 136 83q63 0 100.5 -44t37.5 -121q0 -74 -25 -151t-76.5 -134
t-115.5 -57zM425 15q53 0 97 54.5t65 125t21 134.5q0 68 -29 103.5t-81 35.5q-40 0 -79 -29.5t-63 -72.5l-55 -251q11 -42 45 -71t79 -29z" />
    <glyph glyph-name="f_h" unicode="fh" horiz-adv-x="659" 
d="M65 0h-30l101 456h-65l6 27h65l17 79q25 115 116 115q31 0 51 -14l-16 -25q-15 12 -38 12q-64 0 -83 -88l-17 -79h84l-6 -27h-84zM530 0h-30l81 367q5 20 5 33q0 68 -80 68q-38 0 -77.5 -27.5t-70.5 -67.5l-82 -373h-30l147 667h30l-56 -256q71 84 145 84q48 0 76 -23.5
t28 -67.5q0 -18 -6 -38z" />
    <glyph glyph-name="f_k" unicode="fk" horiz-adv-x="635" 
d="M65 0h-30l101 456h-65l6 27h65l17 79q25 115 116 115q31 0 51 -14l-16 -25q-15 12 -38 12q-64 0 -83 -88l-17 -79h84l-6 -27h-84zM556 0h-33l-109 245l-107 -103l-31 -142h-30l147 667h30l-106 -480l310 296h40l-231 -218z" />
    <glyph glyph-name=".notdef" horiz-adv-x="511" 
d="M451 -90h-351v842h351v-842zM419 -60v782h-288v-782h288z" />
    <glyph glyph-name=".null" horiz-adv-x="0" 
 />
    <glyph glyph-name="nonmarkingreturn" horiz-adv-x="333" 
 />
    <glyph glyph-name="space" unicode=" " horiz-adv-x="220" 
 />
    <glyph glyph-name="exclam" unicode="!" horiz-adv-x="208" 
d="M95 161h-20l101 506h42zM52 -9q-13 0 -21.5 8.5t-8.5 21.5q0 15 10.5 25t25.5 10q13 0 21.5 -8.5t8.5 -21.5q0 -15 -10.5 -25t-25.5 -10z" />
    <glyph glyph-name="quotedbl" unicode="&#x22;" horiz-adv-x="290" 
d="M140 443h-21q29 195 30 201q5 33 31 33q10 0 16.5 -7t6.5 -17q0 -5 -4 -17zM256 443h-21q29 195 30 201q5 33 31 33q10 0 16.5 -7t6.5 -17q0 -5 -4 -17z" />
    <glyph glyph-name="numbersign" unicode="#" horiz-adv-x="481" 
d="M175 0h-33l98 191h-102l-96 -191h-33l97 191h-96l14 29h96l116 227h-97l12 29h99l95 191h33l-95 -191h100l96 191h32l-96 -191h95l-12 -29h-97l-116 -227h99l-13 -29h-100zM252 220l117 227h-101l-115 -227h99z" />
    <glyph glyph-name="dollar" unicode="$" horiz-adv-x="440" 
d="M188 -12h-1l-19 -88h-32l20 90q-48 7 -87.5 30.5t-58.5 56.5l28 22q42 -68 124 -79l71 318q-28 20 -44 33.5t-36 34.5t-29 45t-9 52q0 73 54.5 124t127.5 51h12l20 90h32l-21 -94q82 -16 115 -71l-26 -22q-34 50 -96 63l-64 -290q54 -40 83.5 -78t29.5 -91
q0 -81 -53.5 -139t-140.5 -58zM348 185q0 41 -22.5 71.5t-64.5 61.5l-67 -300q70 1 112 49t42 118zM149 503q0 -37 23 -65.5t69 -62.5l61 273h-5q-62 0 -105 -43.5t-43 -101.5z" />
    <glyph glyph-name="percent" unicode="%" horiz-adv-x="632" 
d="M107 0h-34l495 667h35zM423 -12q-54 0 -86 36t-32 89q0 85 48 143t109 58q54 0 85.5 -35.5t31.5 -89.5q0 -85 -47.5 -143t-108.5 -58zM423 15q48 0 85.5 50t37.5 122q0 47 -23.5 73.5t-61.5 26.5q-48 0 -85.5 -50t-37.5 -121q0 -47 23.5 -74t61.5 -27zM209 351
q-54 0 -85.5 35.5t-31.5 89.5q0 85 47.5 143t108.5 58q54 0 86 -36t32 -89q0 -85 -48 -143t-109 -58zM210 378q48 0 85.5 50t37.5 122q0 47 -23.5 73.5t-61.5 26.5q-48 0 -85.5 -50t-37.5 -121q0 -47 23.5 -74t61.5 -27z" />
    <glyph glyph-name="ampersand" unicode="&#x26;" horiz-adv-x="498" 
d="M400 0h-43q-30 55 -39 73q-78 -85 -158 -85q-60 0 -98.5 36t-38.5 98q0 47 13 85t39.5 68t51.5 50t63 44q-16 57 -16 113q0 77 44 136t99 59q42 0 67.5 -23.5t25.5 -72.5q0 -31 -10 -59t-23.5 -47t-39.5 -40.5t-44.5 -33.5t-51.5 -33q-9 -5 -13 -8q16 -50 44 -112
q26 -65 52 -116q52 68 97 166l28 -13q-58 -120 -109 -185zM160 18q67 0 141 86q-43 87 -57 122q-24 56 -45 115q-67 -44 -104 -93.5t-37 -123.5q0 -50 29 -78t73 -28zM208 475q0 -42 12 -87q39 24 60 39t47.5 39.5t38 53t11.5 62.5q0 65 -62 65q-40 0 -73.5 -51.5
t-33.5 -120.5z" />
    <glyph glyph-name="quotesingle" unicode="'" horiz-adv-x="176" 
d="M140 443h-21q29 195 30 201q5 33 31 33q10 0 16.5 -7t6.5 -17q0 -5 -4 -17z" />
    <glyph glyph-name="parenleft" unicode="(" horiz-adv-x="187" 
d="M74 -192l-19 -7q-33 112 -33 231q0 341 228 653l15 -10q-213 -332 -213 -668q0 -92 22 -199z" />
    <glyph glyph-name="parenright" unicode=")" horiz-adv-x="187" 
d="M112 678l19 7q33 -112 33 -230q0 -342 -228 -654l-16 10q214 332 214 669q0 91 -22 198z" />
    <glyph glyph-name="asterisk" unicode="*" horiz-adv-x="309" 
d="M206 409h-31l33 120l-114 -53l-9 27l118 42l-93 64l20 24l85 -74l20 118h31l-33 -120l114 53l9 -27l-117 -42l92 -64l-20 -24l-85 74z" />
    <glyph glyph-name="plus" unicode="+" horiz-adv-x="434" 
d="M422 322h-172l-42 -192h-32l42 192h-172l7 30h172l41 186h32l-41 -186h172z" />
    <glyph glyph-name="comma" unicode="," horiz-adv-x="208" 
d="M89 18q0 -36 -27 -73.5t-62 -56.5l-18 20q27 15 47 38t25 46h-6q-10 0 -18 8.5t-8 19.5q0 15 10.5 25.5t24.5 10.5q32 0 32 -38z" />
    <glyph glyph-name="hyphen" unicode="-" horiz-adv-x="265" 
d="M231 227h-205l6 30h205z" />
    <glyph glyph-name="period" unicode="." horiz-adv-x="208" 
d="M52 -9q-13 0 -21.5 8.5t-8.5 21.5q0 15 10.5 25t25.5 10q13 0 21.5 -8.5t8.5 -21.5q0 -15 -10.5 -25t-25.5 -10z" />
    <glyph glyph-name="slash" unicode="/" horiz-adv-x="223" 
d="M-28 -20h-31l348 707h33z" />
    <glyph glyph-name="zero" unicode="0" horiz-adv-x="491" 
d="M209 -12q-73 0 -111.5 53.5t-38.5 152.5q0 74 18 157t50 156.5t83.5 121.5t110.5 48q73 0 111 -53t38 -152q0 -74 -18 -157t-50 -156.5t-83 -122t-110 -48.5zM211 18q65 0 119 81t80.5 185t26.5 193q0 170 -118 170q-65 0 -119 -80.5t-81 -184.5t-27 -193
q0 -171 119 -171z" />
    <glyph glyph-name="one" unicode="1" horiz-adv-x="260" 
d="M126 0h-32l137 621l-130 -115l-17 23l159 138h30z" />
    <glyph glyph-name="two" unicode="2" horiz-adv-x="463" 
d="M334 0h-328l8 37q39 40 101.5 101.5t91.5 91t71.5 74t61.5 69.5t40 57.5t28.5 58t7.5 51.5q0 49 -32.5 78t-85.5 29q-83 0 -140 -75l-25 19q67 86 165 86q66 0 109.5 -34.5t43.5 -100.5q0 -25 -8 -51.5t-19 -50t-36 -56t-44.5 -56t-59 -65t-66 -68t-80 -79.5t-86.5 -86
h288z" />
    <glyph glyph-name="three" unicode="3" horiz-adv-x="439" 
d="M178 -12q-64 0 -111.5 36.5t-61.5 99.5l32 12q13 -56 50.5 -87t90.5 -31q71 0 115 59t44 139q0 54 -35.5 84t-89.5 30q-29 0 -38 -1l8 32q8 -1 65 -1q65 0 109.5 51t44.5 125q0 51 -32.5 81t-88.5 30q-79 0 -139 -79l-24 19q29 40 73 65t92 25q68 0 110.5 -37t42.5 -104
q0 -74 -45.5 -130.5t-109.5 -65.5q41 -13 65.5 -48.5t24.5 -81.5q0 -87 -54 -154.5t-138 -67.5z" />
    <glyph glyph-name="four" unicode="4" horiz-adv-x="417" 
d="M260 0h-32l43 195h-257l8 34l342 438h43l-98 -442h78l-6 -30h-78zM277 225l88 396l-310 -396h222z" />
    <glyph glyph-name="five" unicode="5" horiz-adv-x="461" 
d="M196 -12q-67 0 -106 34.5t-58 100.5l33 11q26 -116 135 -116q66 0 117.5 73.5t51.5 164.5q0 59 -31.5 91.5t-85.5 32.5q-63 0 -126 -57l-22 18l72 326h289l-6 -30h-257l-61 -275q46 48 118 48q62 0 103 -41t41 -113q0 -104 -60.5 -186t-146.5 -82z" />
    <glyph glyph-name="six" unicode="6" horiz-adv-x="464" 
d="M202 -12q-75 0 -110.5 51.5t-35.5 139.5q0 44 8.5 103t29 129t50 128.5t76.5 98t104 39.5q53 0 91 -29.5t50 -81.5l-30 -14q-9 44 -38.5 69.5t-74.5 25.5q-150 0 -218 -324q-1 -5 -3 -17q27 40 71 70t92 30q65 0 104.5 -38t39.5 -108q0 -99 -58 -185.5t-148 -86.5z
M207 18q72 0 120 79t48 162q0 53 -30.5 85t-84.5 32q-88 0 -167 -120q-7 -37 -7 -86q0 -70 30.5 -111t90.5 -41z" />
    <glyph glyph-name="seven" unicode="7" horiz-adv-x="384" 
d="M83 0h-36l356 637h-286l6 30h324l-5 -22z" />
    <glyph glyph-name="eight" unicode="8" horiz-adv-x="455" 
d="M197 -12q-75 0 -120 36.5t-45 105.5q0 76 49 133.5t134 84.5q-38 21 -66 59t-28 84q0 77 53.5 131.5t126.5 54.5q65 0 109 -36.5t44 -102.5q0 -78 -49 -128t-122 -69q41 -25 70.5 -65.5t29.5 -90.5q0 -83 -54.5 -140t-131.5 -57zM253 359q69 12 117.5 58.5t48.5 121.5
q0 48 -34 77.5t-87 29.5q-58 0 -100.5 -44.5t-42.5 -113.5q0 -43 30.5 -79t67.5 -50zM196 18q59 0 106.5 48.5t47.5 120.5q0 53 -33.5 92t-69.5 52q-75 -13 -127.5 -67t-52.5 -129q0 -57 37 -87t92 -30z" />
    <glyph glyph-name="nine" unicode="9" horiz-adv-x="464" 
d="M300 678q75 0 111 -51.5t36 -139.5q0 -44 -8.5 -103t-29 -129t-50 -128.5t-77 -98t-104.5 -39.5q-53 0 -90.5 29.5t-50.5 81.5l30 15q10 -45 39 -70.5t74 -25.5q149 0 219 324q1 8 3 18q-28 -41 -72 -71t-92 -30q-65 0 -104.5 38.5t-39.5 108.5q0 62 24 123.5t73 104.5
t109 43zM296 648q-73 0 -121 -79t-48 -162q0 -52 30.5 -84.5t85.5 -32.5q86 0 167 120q7 49 7 86q0 70 -30.5 111t-90.5 41z" />
    <glyph glyph-name="colon" unicode=":" horiz-adv-x="208" 
d="M52 -9q-13 0 -21.5 8.5t-8.5 21.5q0 15 10.5 25t25.5 10q13 0 21.5 -8.5t8.5 -21.5q0 -15 -10.5 -25t-25.5 -10zM148 425q-13 0 -21.5 8.5t-8.5 21.5q0 15 10.5 25t25.5 10q13 0 21.5 -8.5t8.5 -21.5q0 -15 -10.5 -25t-25.5 -10z" />
    <glyph glyph-name="semicolon" unicode=";" horiz-adv-x="208" 
d="M89 18q0 -36 -27 -73.5t-62 -56.5l-18 20q27 15 47 38t25 46h-6q-10 0 -18 8.5t-8 19.5q0 15 10.5 25.5t24.5 10.5q32 0 32 -38zM148 425q-13 0 -21.5 8.5t-8.5 21.5q0 15 10.5 25t25.5 10q13 0 21.5 -8.5t8.5 -21.5q0 -15 -10.5 -25t-25.5 -10z" />
    <glyph glyph-name="less" unicode="&#x3c;" horiz-adv-x="434" 
d="M379 128l-333 196l5 21l420 197l-9 -38l-373 -172l297 -170z" />
    <glyph glyph-name="equal" unicode="=" horiz-adv-x="434" 
d="M443 418h-376l7 30h376zM399 220h-376l7 30h376z" />
    <glyph glyph-name="greater" unicode="&#x3e;" horiz-adv-x="434" 
d="M422 324l-419 -196l9 38l373 170l-297 172l7 34l332 -197z" />
    <glyph glyph-name="question" unicode="?" horiz-adv-x="385" 
d="M197 189l-27 -20q-21 29 -21 67q0 33 17 61.5t42.5 47.5t55.5 41t55.5 42t42.5 50.5t17 66.5q0 44 -32 73.5t-87 29.5q-70 0 -128 -53l-16 24q65 59 144 59q70 0 111.5 -38t41.5 -92q0 -47 -24 -85t-58 -64t-68 -49t-58 -51t-24 -59t16 -51zM137 -9q-13 0 -21.5 8.5
t-8.5 21.5q0 15 10.5 25t25.5 10q13 0 21.5 -8.5t8.5 -21.5q0 -15 -10.5 -25t-25.5 -10z" />
    <glyph glyph-name="at" unicode="@" horiz-adv-x="676" 
d="M324 -70q-116 0 -192.5 84t-76.5 216q0 162 107.5 285.5t247.5 123.5q112 0 181.5 -79.5t69.5 -207.5q0 -118 -43 -192.5t-99 -74.5q-35 0 -55 23t-20 57v6q-58 -86 -137 -86q-52 0 -86 36t-34 103q0 107 63 191.5t147 84.5q38 0 64 -23t37 -59l13 64h30l-63 -296
q-2 -12 -2 -23q0 -51 42 -51q15 0 33.5 14t37 41t31 76t12.5 109q0 116 -62 186.5t-161 70.5q-85 0 -160 -54.5t-118.5 -142t-43.5 -181.5q0 -121 68 -196.5t173 -75.5q83 0 158 57l15 -23q-82 -63 -177 -63zM307 112q77 0 146 103l37 170q-9 36 -32 62t-61 26
q-74 0 -125.5 -80t-51.5 -169q0 -51 22.5 -81.5t64.5 -30.5z" />
    <glyph glyph-name="A" unicode="A" horiz-adv-x="474" 
d="M404 0h-34l-14 179h-265l-92 -179h-37l349 667h38zM355 209l-32 416l-216 -416h248z" />
    <glyph glyph-name="B" unicode="B" horiz-adv-x="480" 
d="M212 0h-186l147 667h157q59 0 98 -37.5t39 -99.5q0 -71 -38.5 -126t-97.5 -66q35 -9 56 -46t21 -79q0 -86 -52 -149.5t-144 -63.5zM290 358q70 0 106 54t36 118q0 49 -30 78t-78 29h-125l-62 -279h153zM218 30q70 0 112.5 55t42.5 128q0 54 -29.5 84.5t-83.5 30.5h-130
l-66 -298h154z" />
    <glyph glyph-name="C" unicode="C" horiz-adv-x="512" 
d="M258 -12q-89 0 -143 60t-54 168t38 213.5t108 177t153 71.5q129 0 177 -126l-30 -12q-42 108 -151 108q-69 0 -130 -67t-95.5 -167t-34.5 -200q0 -94 43.5 -145t121.5 -51q76 0 150 82l23 -19q-79 -93 -176 -93z" />
    <glyph glyph-name="D" unicode="D" horiz-adv-x="535" 
d="M172 0h-146l147 667h142q80 0 135.5 -62.5t55.5 -171.5q0 -49 -11.5 -104.5t-37.5 -114.5t-63.5 -106t-95.5 -77.5t-126 -30.5zM199 637l-135 -607h113q56 0 105.5 27t83.5 70t58.5 96.5t36 107.5t11.5 102q0 94 -46.5 149t-116.5 55h-110z" />
    <glyph glyph-name="E" unicode="E" horiz-adv-x="444" 
d="M335 0h-309l147 667h309l-6 -30h-277l-62 -279h270l-7 -30h-270l-66 -298h277z" />
    <glyph glyph-name="F" unicode="F" horiz-adv-x="432" 
d="M58 0h-32l147 667h309l-6 -30h-277l-62 -279h270l-7 -30h-270z" />
    <glyph glyph-name="G" unicode="G" horiz-adv-x="542" 
d="M258 -12q-91 0 -144 60.5t-53 167.5q0 108 37 213.5t107 177t155 71.5q125 0 177 -126l-29 -11q-42 107 -152 107q-70 0 -131 -67t-95 -166.5t-34 -200.5q0 -96 44 -146t121 -50q82 0 151 78l43 195h-188l6 30h220l-53 -240q-85 -93 -182 -93z" />
    <glyph glyph-name="H" unicode="H" horiz-adv-x="545" 
d="M411 0h-32l72 328h-321l-72 -328h-32l147 667h32l-68 -309h321l68 309h32z" />
    <glyph glyph-name="I" unicode="I" horiz-adv-x="192" 
d="M58 0h-32l147 667h32z" />
    <glyph glyph-name="J" unicode="J" horiz-adv-x="382" 
d="M110 -12q-97 0 -136 75l27 20q33 -65 109 -65q109 0 139 135l114 514h32l-114 -514q-37 -165 -171 -165z" />
    <glyph glyph-name="K" unicode="K" horiz-adv-x="472" 
d="M393 0h-37l-161 326l-85 -90l-52 -236h-32l147 667h32l-83 -376l353 376h44l-302 -319z" />
    <glyph glyph-name="L" unicode="L" horiz-adv-x="391" 
d="M307 0h-289l147 667h32l-141 -637h257z" />
    <glyph glyph-name="M" unicode="M" horiz-adv-x="639" 
d="M505 0h-32l137 619l-337 -619h-14l-64 619l-137 -619h-32l147 667h50l61 -577l316 577h52z" />
    <glyph glyph-name="N" unicode="N" horiz-adv-x="543" 
d="M409 0h-32l-186 599l-133 -599h-32l147 667h32l187 -592l132 592h32z" />
    <glyph glyph-name="O" unicode="O" horiz-adv-x="580" 
d="M258 -12q-89 0 -143 62t-54 166q0 76 21.5 157t59 149t95.5 112t123 44q89 0 143.5 -62.5t54.5 -165.5q0 -104 -36 -208.5t-107 -179t-157 -74.5zM261 18q71 0 132.5 66.5t95.5 165.5t34 201q0 93 -46 145t-121 52q-71 0 -132 -66.5t-94.5 -166t-33.5 -201.5
q0 -93 45.5 -144.5t119.5 -51.5z" />
    <glyph glyph-name="P" unicode="P" horiz-adv-x="448" 
d="M58 0h-32l147 667h155q59 0 97.5 -42.5t38.5 -106.5q0 -90 -55 -159.5t-156 -69.5h-131zM261 319h-3q82 0 126.5 59.5t44.5 139.5q0 53 -30.5 86t-76.5 33h-123l-71 -318h133z" />
    <glyph glyph-name="Q" unicode="Q" horiz-adv-x="580" 
d="M258 -12q-89 0 -143 62t-54 166q0 76 21.5 157t59 149t95.5 112t123 44q89 0 143.5 -62.5t54.5 -165.5q0 -111 -43.5 -225t-115.5 -179l28 -62l-28 -13l-25 55q-55 -38 -116 -38zM261 18q50 0 100 37l-63 139l29 13l58 -131q62 60 100 164.5t38 210.5q0 93 -46 145
t-121 52q-71 0 -132 -66.5t-94.5 -166t-33.5 -201.5q0 -93 45.5 -144.5t119.5 -51.5z" />
    <glyph glyph-name="R" unicode="R" horiz-adv-x="473" 
d="M365 0h-35l-88 289h-120l-64 -289h-32l147 667h150q59 0 101 -41t42 -106q0 -93 -53 -157.5t-139 -71.5zM259 319h1q80 0 125 60t45 141q0 54 -31 85.5t-76 31.5h-124l-71 -318h131z" />
    <glyph glyph-name="S" unicode="S" horiz-adv-x="447" 
d="M188 -12q-57 0 -106.5 25.5t-71.5 63.5l28 22q24 -37 63.5 -59t87.5 -22q72 0 115.5 48t43.5 119q0 40 -24 72.5t-58 57t-68.5 49.5t-58.5 60.5t-24 78.5q0 73 54.5 124t127.5 51q52 0 94.5 -20t63.5 -55l-26 -22q-43 67 -132 67q-62 0 -105 -43.5t-43 -101.5
q0 -35 24 -65.5t58.5 -55.5t68.5 -51t58 -63.5t24 -82.5q0 -81 -53.5 -139t-140.5 -58z" />
    <glyph glyph-name="T" unicode="T" horiz-adv-x="423" 
d="M173 0h-32l141 637h-167l6 30h367l-6 -30h-168z" />
    <glyph glyph-name="U" unicode="U" horiz-adv-x="534" 
d="M239 -12q-79 0 -126 44t-47 121q0 21 5 51l102 463h32l-102 -463q-5 -20 -5 -46q0 -65 38.5 -102.5t103.5 -37.5q72 0 112 45t61 141l102 463h32l-102 -463q-24 -110 -71.5 -163t-134.5 -53z" />
    <glyph glyph-name="V" unicode="V" horiz-adv-x="474" 
d="M202 0h-38l-54 667h33l48 -625l323 625h37z" />
    <glyph glyph-name="W" unicode="W" horiz-adv-x="671" 
d="M448 0h-38l4 597l-260 -597h-38l2 667h34l-6 -611l265 611h34l-5 -611l264 611h36z" />
    <glyph glyph-name="X" unicode="X" horiz-adv-x="473" 
d="M403 0h-36l-114 311l-248 -311h-43l277 343l-118 324h36l106 -295l232 295h44l-262 -328z" />
    <glyph glyph-name="Y" unicode="Y" horiz-adv-x="466" 
d="M195 0h-32l64 289l-122 378h35l108 -342l259 342h41l-289 -378z" />
    <glyph glyph-name="Z" unicode="Z" horiz-adv-x="444" 
d="M345 0h-355l6 31l444 606h-308l6 30h347l-6 -30l-444 -607h316z" />
    <glyph glyph-name="bracketleft" unicode="[" horiz-adv-x="187" 
d="M73 -190h-135l192 868h136l-7 -30h-106l-179 -808h106z" />
    <glyph glyph-name="backslash" unicode="\" horiz-adv-x="223" 
d="M134 -20l-40 707h30l40 -707h-30z" />
    <glyph glyph-name="bracketright" unicode="]" horiz-adv-x="187" 
d="M56 -190h-135l7 30h105l179 808h-106l7 30h136z" />
    <glyph glyph-name="asciicircum" unicode="^" horiz-adv-x="374" 
d="M374 333h-31l-67 305l-203 -305h-35l229 334h26z" />
    <glyph glyph-name="underscore" unicode="_" horiz-adv-x="422" 
d="M355 -70h-427l7 30h427z" />
    <glyph glyph-name="grave" unicode="`" horiz-adv-x="162" 
d="M231 556h-27l-103 144h43z" />
    <glyph glyph-name="grave" unicode="&#x2cb;" horiz-adv-x="162" 
d="M231 556h-27l-103 144h43z" />
    <glyph glyph-name="a" unicode="a" horiz-adv-x="459" 
d="M258 495q44 0 78.5 -24.5t52.5 -68.5l17 81h30l-107 -483h-30l16 72q-55 -84 -136 -84q-63 0 -100.5 44.5t-37.5 121.5q0 73 25 150t76.5 134t115.5 57zM257 468q-53 0 -97 -54t-65 -125t-21 -134q0 -68 29 -104t81 -36q40 0 79 29.5t63 72.5l55 251q-11 42 -45 71
t-79 29z" />
    <glyph glyph-name="b" unicode="b" horiz-adv-x="459" 
d="M200 -12q-44 0 -78.5 25t-52.5 69l-17 -82h-30l147 667h30l-56 -255q54 83 136 83q63 0 100.5 -44t37.5 -121q0 -74 -25 -151t-76.5 -134t-115.5 -57zM201 15q53 0 97 54.5t65 125t21 134.5q0 68 -29 103.5t-81 35.5q-40 0 -79 -29.5t-63 -72.5l-55 -251q11 -42 45 -71
t79 -29z" />
    <glyph glyph-name="c" unicode="c" horiz-adv-x="394" 
d="M200 -12q-71 0 -114.5 47t-43.5 136q0 73 27 146t81 125.5t121 52.5q85 0 124 -67l-24 -19q-32 59 -100 59q-60 0 -106.5 -51.5t-68 -118.5t-21.5 -132q0 -75 34.5 -113t91.5 -38q59 0 103 51l18 -21q-56 -57 -122 -57z" />
    <glyph glyph-name="d" unicode="d" horiz-adv-x="459" 
d="M258 495q44 0 78.5 -24.5t52.5 -68.5l58 265h30l-148 -667h-30l16 72q-55 -84 -136 -84q-63 0 -100.5 44.5t-37.5 121.5q0 73 25 150t76.5 134t115.5 57zM257 468q-53 0 -97 -54t-65 -125t-21 -134q0 -68 29 -104t81 -36q40 0 79 29.5t63 72.5l55 251q-11 42 -45 71
t-79 29z" />
    <glyph glyph-name="e" unicode="e" horiz-adv-x="459" 
d="M212 -12q-80 0 -125.5 48.5t-45.5 133.5q0 65 25 137.5t79 130t123 57.5q70 0 110.5 -45.5t40.5 -125.5q0 -44 -13 -92h-325q-6 -28 -6 -61q0 -71 35.5 -113.5t101.5 -42.5q65 0 121 61l19 -21q-64 -67 -140 -67zM376 259h5q7 35 7 61q0 66 -32.5 107t-91.5 41
q-64 0 -114.5 -64.5t-64.5 -144.5h291z" />
    <glyph glyph-name="f" unicode="f" horiz-adv-x="224" 
d="M65 0h-30l101 456h-65l6 27h65l17 79q26 115 116 115q45 0 70 -31l-22 -22q-18 26 -51 26q-64 0 -83 -88l-17 -79h84l-6 -27h-84z" />
    <glyph glyph-name="g" unicode="g" horiz-adv-x="459" 
d="M147 -196q-106 0 -156 66l25 24q39 -63 132 -63q114 0 146 146l22 95q-57 -84 -140 -84q-60 0 -98 42.5t-38 125.5q0 52 15 110t41.5 110t69 85.5t92.5 33.5q40 0 77 -26t54 -67l18 81h29l-112 -506q-39 -173 -177 -173zM182 15q38 0 77 28.5t65 69.5l57 255
q-12 41 -48 70.5t-78 29.5q-53 0 -96.5 -54t-64.5 -124t-21 -134q0 -70 29 -105.5t80 -35.5z" />
    <glyph glyph-name="h" unicode="h" horiz-adv-x="435" 
d="M306 0h-30l81 367q5 20 5 33q0 68 -80 68q-38 0 -77.5 -27.5t-70.5 -67.5l-82 -373h-30l147 667h30l-56 -256q71 84 145 84q48 0 76 -23.5t28 -67.5q0 -18 -6 -38z" />
    <glyph glyph-name="i" unicode="i" horiz-adv-x="181" 
d="M165 566q-11 0 -19 7.5t-8 18.5q0 14 10.5 23t22.5 9q11 0 19 -7.5t8 -18.5q0 -14 -10.5 -23t-22.5 -9zM52 0h-30l107 483h30z" />
    <glyph glyph-name="j" unicode="j" horiz-adv-x="181" 
d="M-70 -196q-56 0 -77 41l26 17q15 -31 50 -31q55 0 73 83l127 569h30l-127 -569q-13 -60 -37.5 -85t-64.5 -25zM165 566q-11 0 -19 7.5t-8 18.5q0 14 10.5 23t22.5 9q11 0 19 -7.5t8 -18.5q0 -14 -10.5 -23t-22.5 -9z" />
    <glyph glyph-name="k" unicode="k" horiz-adv-x="411" 
d="M332 0h-33l-109 245l-107 -103l-31 -142h-30l147 667h30l-106 -480l310 296h40l-231 -218z" />
    <glyph glyph-name="l" unicode="l" horiz-adv-x="181" 
d="M52 0h-30l147 667h30z" />
    <glyph glyph-name="m" unicode="m" horiz-adv-x="647" 
d="M518 0h-30l82 371q4 20 4 29q0 33 -19 50.5t-50 17.5q-34 0 -72 -27.5t-66 -67.5l-82 -373h-30l82 371q4 28 4 33q0 64 -70 64q-34 0 -70.5 -27.5t-66.5 -67.5l-82 -373h-30l107 483h30l-16 -72q62 84 134 84q43 0 68.5 -24t25.5 -56q0 -5 -1 -9q69 89 141 89
q41 0 67 -24t26 -66q0 -13 -6 -39z" />
    <glyph glyph-name="n" unicode="n" horiz-adv-x="435" 
d="M306 0h-30l81 366q5 25 5 34q0 68 -80 68q-38 0 -77.5 -27.5t-70.5 -67.5l-82 -373h-30l107 483h30l-16 -72q71 84 145 84q48 0 76 -23t28 -68q0 -20 -6 -38z" />
    <glyph glyph-name="o" unicode="o" horiz-adv-x="461" 
d="M193 -12q-70 0 -111 45t-41 130q0 75 26.5 150t80 128.5t119.5 53.5q70 0 111 -45t41 -130q0 -75 -26.5 -150t-80 -128.5t-119.5 -53.5zM194 15q54 0 100 51t69 120.5t23 133.5q0 72 -31.5 110t-88.5 38q-54 0 -100 -51t-69 -120.5t-23 -133.5q0 -72 31.5 -110t88.5 -38z
" />
    <glyph glyph-name="p" unicode="p" horiz-adv-x="457" 
d="M200 -12q-44 0 -78.5 25t-52.5 69l-58 -266h-31l149 667h30l-16 -71q54 83 136 83q63 0 100.5 -44t37.5 -121q0 -74 -25 -151t-76.5 -134t-115.5 -57zM201 15q53 0 97 54.5t65 125t21 134.5q0 68 -29 103.5t-81 35.5q-40 0 -79 -29.5t-63 -72.5l-55 -251q11 -42 45 -71
t79 -29z" />
    <glyph glyph-name="q" unicode="q" horiz-adv-x="457" 
d="M258 495q44 0 78.5 -24.5t52.5 -68.5l17 81h30l-148 -667h-30l57 256q-55 -84 -136 -84q-63 0 -100.5 44.5t-37.5 121.5q0 73 25 150t76.5 134t115.5 57zM257 468q-53 0 -97 -54t-65 -125t-21 -134q0 -68 29 -104t81 -36q40 0 79 29.5t63 72.5l55 251q-11 42 -45 71
t-79 29z" />
    <glyph glyph-name="r" unicode="r" horiz-adv-x="266" 
d="M52 0h-30l107 483h30l-18 -77q33 45 69 65.5t91 20.5l-8 -35q-5 2 -25 2q-39 0 -75.5 -27.5t-60.5 -69.5z" />
    <glyph glyph-name="s" unicode="s" horiz-adv-x="366" 
d="M144 -12q-102 0 -143 74l26 19q36 -66 118 -66q52 0 86 33.5t34 78.5q0 30 -19.5 54.5t-47.5 42.5t-56.5 36t-48 44.5t-19.5 58.5q0 56 39.5 94t105.5 38q44 0 78.5 -18.5t50.5 -47.5l-25 -19q-12 26 -42.5 42t-65.5 16q-49 0 -79.5 -27.5t-30.5 -69.5q0 -28 19.5 -51.5
t48 -41t56.5 -36.5t47.5 -46t19.5 -61q0 -61 -42 -104t-110 -43z" />
    <glyph glyph-name="t" unicode="t" horiz-adv-x="234" 
d="M114 -12q-69 0 -69 65q0 11 3 28l84 375h-66l6 27h66l29 132h30l-29 -132h84l-6 -27h-84l-84 -375q-3 -13 -3 -27q0 -39 41 -39q25 0 45 20l15 -22q-29 -25 -62 -25z" />
    <glyph glyph-name="u" unicode="u" horiz-adv-x="435" 
d="M129 483h30l-81 -366q-5 -23 -5 -33q0 -69 79 -69q38 0 77.5 26.5t69.5 65.5l84 376h30l-107 -483h-30l16 72q-73 -84 -146 -84q-47 0 -75 23.5t-28 68.5q0 13 5 38z" />
    <glyph glyph-name="v" unicode="v" horiz-adv-x="375" 
d="M151 0h-35l-49 483h32l40 -448l240 448h36z" />
    <glyph glyph-name="w" unicode="w" horiz-adv-x="594" 
d="M389 0h-27l-22 439l-216 -439h-27l-23 483h32l14 -436l214 436h30l20 -436l208 436h34z" />
    <glyph glyph-name="x" unicode="x" horiz-adv-x="379" 
d="M304 0h-34l-83 223l-182 -223h-38l206 247l-90 236h34l76 -211l172 211h38l-196 -236z" />
    <glyph glyph-name="y" unicode="y" horiz-adv-x="375" 
d="M-56 -187l12 28q11 -8 35 -8q19 0 33.5 12.5t33.5 45.5l56 98l-47 494h32l41 -445l239 445h36l-331 -602q-42 -77 -100 -77q-24 0 -40 9z" />
    <glyph glyph-name="z" unicode="z" horiz-adv-x="371" 
d="M266 0h-270l6 27l326 429h-230l6 27h265l-6 -27l-326 -429h234z" />
    <glyph glyph-name="braceleft" unicode="{" horiz-adv-x="212" 
d="M98 -190h-39q-31 0 -54 21.5t-23 57.5q0 11 3 26l54 242q3 18 3 19q0 24 -10 38.5t-29 14.5l7 30q53 0 68 72l54 244q12 52 41.5 77.5t70.5 25.5h47l-7 -30h-47q-58 0 -75 -73l-55 -247q-14 -69 -64 -87q29 -15 29 -53q0 -18 -4 -34l-53 -241q-2 -12 -2 -19q0 -24 14 -39
t34 -15h44z" />
    <glyph glyph-name="bar" unicode="|" horiz-adv-x="190" 
d="M130 -20h-30v707h30v-707z" />
    <glyph glyph-name="braceright" unicode="}" horiz-adv-x="212" 
d="M113 678h39q31 0 54 -22t23 -58q0 -13 -3 -25l-54 -242q-2 -10 -2 -19q0 -23 9.5 -38t28.5 -15l-7 -30q-51 0 -68 -72l-54 -244q-23 -103 -112 -103h-47l7 30h47q60 0 75 73l55 248q14 67 64 87q-29 14 -29 53q0 18 4 34l53 240q2 12 2 19q0 24 -13.5 39t-34.5 15h-44z
" />
    <glyph glyph-name="asciitilde" unicode="~" horiz-adv-x="436" 
d="M471 667l30 -3q-55 -231 -156 -231q-32 0 -48.5 21t-20.5 50.5t-6 59t-13 50.5t-34 21q-73 0 -124 -204l-29 5q56 229 156 229q39 0 56 -31.5t16.5 -70t10 -70t38.5 -31.5q74 0 124 205z" />
    <glyph glyph-name="nbspace" unicode="&#xa0;" horiz-adv-x="220" 
 />
    <glyph glyph-name="exclamdown" unicode="&#xa1;" horiz-adv-x="208" 
d="M111 322h20l-101 -506h-42zM154 492q13 0 21.5 -8.5t8.5 -21.5q0 -15 -10.5 -25t-25.5 -10q-13 0 -21.5 8.5t-8.5 21.5q0 15 10.5 25t25.5 10z" />
    <glyph glyph-name="cent" unicode="&#xa2;" horiz-adv-x="394" 
d="M200 -12q-3 0 -9 0.5t-9 0.5l-20 -89h-30l21 94q-51 14 -81 59t-30 118q0 71 26 143t78.5 124.5t117.5 55.5l16 71h30l-16 -72q67 -7 101 -65l-24 -19q-27 49 -83 58l-100 -452h13q59 0 103 51l18 -21q-56 -57 -122 -57zM75 166q0 -119 84 -145l99 446q-43 -4 -79 -35
t-58 -76t-34 -95t-12 -95z" />
    <glyph glyph-name="sterling" unicode="&#xa3;" horiz-adv-x="417" 
d="M29 267l6 30h118q-5 13 -21 42.5t-24.5 54.5t-8.5 55q0 90 57.5 159t137.5 69q53 0 94.5 -29t49.5 -75l-29 -14q-8 39 -38.5 63.5t-76.5 24.5q-63 0 -112 -55t-49 -141q0 -29 9 -55t23.5 -54t20.5 -45h113l-6 -30h-99q2 -16 2 -23q0 -57 -36.5 -110t-82.5 -84q24 9 42 9
q30 0 73.5 -21t66.5 -21q47 0 84 41l13 -26q-47 -45 -100 -45q-39 0 -79.5 22t-74.5 22q-38 0 -96 -38l-10 31q68 32 118 94t50 123q0 14 -3 26h-132z" />
    <glyph glyph-name="currency" unicode="&#xa4;" horiz-adv-x="522" 
d="M461 136l-34 -27l-37 49q-61 -44 -132 -44q-83 0 -145 59l-79 -66l-23 31l77 63q-31 56 -31 108q0 95 80 173l-37 49l32 26l39 -48q60 43 133 43q81 0 143 -57l78 64l25 -30l-78 -64q31 -51 31 -108q0 -91 -80 -173zM454 351q0 68 -43.5 110.5t-111.5 42.5
q-77 0 -135 -56.5t-58 -132.5q0 -68 43.5 -110.5t111.5 -42.5q77 0 135 56.5t58 132.5z" />
    <glyph glyph-name="yen" unicode="&#xa5;" horiz-adv-x="466" 
d="M199 0h-32l28 129h-201l7 30h201l29 130h-201l6 30h185l-112 348h35l108 -342l259 342h41l-266 -348h176l-6 -30h-193l-29 -130h193l-7 -30h-193z" />
    <glyph glyph-name="brokenbar" unicode="&#xa6;" horiz-adv-x="190" 
d="M130 -20h-30v316h30v-316zM130 371h-30v316h30v-316z" />
    <glyph glyph-name="section" unicode="&#xa7;" horiz-adv-x="366" 
d="M334 313q0 -48 -29 -84.5t-87 -53.5q61 -41 61 -106q0 -61 -40.5 -105.5t-107.5 -44.5q-104 0 -152 70l27 20q36 -63 124 -63q50 0 84 34t34 84q0 29 -19.5 52t-47 39.5t-55 34.5t-47 45t-19.5 62q0 50 36.5 87t100.5 43q-83 48 -83 117q0 54 39.5 93.5t100.5 39.5
q97 0 139 -64l-25 -18q-34 55 -114 55q-45 0 -77 -29.5t-32 -71.5q0 -30 19.5 -53.5t47 -40t55.5 -34t47.5 -45t19.5 -63.5zM304 309q0 59 -78 100q-70 -8 -103 -38.5t-33 -70.5q0 -33 26 -58.5t78 -51.5q110 34 110 119z" />
    <glyph glyph-name="dieresis" unicode="&#xa8;" horiz-adv-x="252" 
d="M313 601q0 -13 -9 -22t-22 -9q-10 0 -17.5 7t-7.5 18q0 13 9 22t22 9q10 0 17.5 -7t7.5 -18zM151 601q0 -13 -9 -22t-22 -9q-10 0 -17.5 7t-7.5 18q0 13 9 22t22 9q10 0 17.5 -7t7.5 -18z" />
    <glyph glyph-name="copyright" unicode="&#xa9;" horiz-adv-x="778" 
d="M754 334q0 -143 -101.5 -244t-244.5 -101q-142 0 -243 101t-101 244t100.5 244t243.5 101t244.5 -101t101.5 -244zM728 334q0 132 -94 225.5t-226 93.5q-131 0 -224.5 -93.5t-93.5 -225.5q0 -131 93.5 -225t224.5 -94q132 0 226 94t94 225zM504 193l15 -23
q-61 -51 -131 -51q-89 0 -140.5 54t-51.5 134q0 101 72.5 172t164.5 71q106 0 153 -80l-24 -17q-37 70 -129 70q-79 0 -143.5 -63t-64.5 -153q0 -67 46 -114t117 -47q69 0 116 47z" />
    <glyph glyph-name="ordfeminine" unicode="&#xaa;" horiz-adv-x="340" 
d="M239 624q-50 0 -85.5 -60.5t-35.5 -126.5q0 -46 20 -70.5t54 -24.5q53 0 96 65l35 158q-8 25 -31.5 42t-52.5 17zM339 640h28l-69 -314h-28l11 50q-42 -58 -96 -58q-43 0 -69.5 30t-26.5 89q0 76 42 143.5t106 67.5q30 0 55 -15.5t37 -41.5z" />
    <glyph glyph-name="guillemotleft" unicode="&#xab;" horiz-adv-x="319" 
d="M147 63h-33l-85 180l165 177h39l-168 -181zM245 63h-33l-85 180l165 177h39l-169 -181z" />
    <glyph glyph-name="logicalnot" unicode="&#xac;" horiz-adv-x="434" 
d="M450 448l-51 -228h-32l44 198h-344l7 30h376z" />
    <glyph glyph-name="registered" unicode="&#xae;" horiz-adv-x="494" 
d="M508 465q0 -88 -62.5 -150t-150.5 -62t-149.5 62t-61.5 150t62 150t150 62t150 -61.5t62 -150.5zM482 465q0 78 -54.5 132t-132.5 54q-77 0 -131 -54t-54 -132q0 -77 54 -131.5t131 -54.5t132 54.5t55 131.5zM365 343h-35l-42 96h-49l-21 -96h-29l53 243h91q28 0 48 -17
t20 -47q0 -35 -25 -58.5t-55 -23.5zM370 518q0 19 -12 30t-29 11h-64l-20 -92h70q23 0 39 15t16 36z" />
    <glyph glyph-name="macron" unicode="&#xaf;" horiz-adv-x="302" 
d="M378 591h-301l6 27h301z" />
    <glyph glyph-name="macron" unicode="&#x203e;" horiz-adv-x="302" 
d="M378 591h-301l6 27h301z" />
    <glyph glyph-name="degree" unicode="&#xb0;" horiz-adv-x="273" 
d="M318 566q0 -46 -32.5 -78t-78.5 -32t-78 32t-32 78t32 78.5t78 32.5t78.5 -32.5t32.5 -78.5zM288 566q0 33 -24 57t-57 24t-56.5 -24t-23.5 -57t23 -56.5t56 -23.5t57.5 23.5t24.5 56.5z" />
    <glyph glyph-name="plusminus" unicode="&#xb1;" horiz-adv-x="434" 
d="M422 322h-172l-42 -192h-32l42 192h-172l7 30h172l41 186h32l-41 -186h172zM358 30h-377l6 30h377z" />
    <glyph glyph-name="twosuperior" unicode="&#xb2;" 
d="M307 421h-224l5 26q19 17 50 43.5t46.5 40t39.5 35t36 33.5t28.5 29.5t24.5 29t16.5 26t11.5 26.5t3 25q0 32 -22 49t-53 17q-56 0 -94 -50l-19 19q48 57 113 57q41 0 73 -23t32 -69q0 -18 -5 -35t-20 -38t-26 -35.5t-39.5 -41t-43.5 -40t-54.5 -48t-57.5 -50.5h184z" />
    <glyph glyph-name="threesuperior" unicode="&#xb3;" 
d="M334 541q0 -47 -33.5 -87t-89.5 -40q-88 0 -117 72l25 14q26 -60 92 -60q43 0 68 33t25 76q0 31 -22.5 48.5t-56.5 17.5q-20 0 -26 -1l6 27q10 -1 42 -1q40 0 67.5 26t27.5 68q0 30 -22 48.5t-56 18.5q-49 0 -93 -49l-18 19q48 56 112 56q47 0 76.5 -23.5t29.5 -67.5
q0 -42 -27 -73.5t-70 -38.5q25 -6 42.5 -28.5t17.5 -54.5z" />
    <glyph glyph-name="acute" unicode="&#xb4;" horiz-adv-x="162" 
d="M263 700l-167 -144h-29l151 144h45z" />
    <glyph glyph-name="mu" unicode="&#xb5;" horiz-adv-x="435" 
d="M11 -184h-31l149 667h30l-81 -366q-23 -104 65 -104q39 0 83 27t72 65l85 378h30l-107 -483h-30l15 70q-75 -82 -157 -82q-59 0 -79 29z" />
    <glyph glyph-name="mu" unicode="&#x3bc;" horiz-adv-x="435" 
d="M11 -184h-31l149 667h30l-81 -366q-23 -104 65 -104q39 0 83 27t72 65l85 378h30l-107 -483h-30l15 70q-75 -82 -157 -82q-59 0 -79 29z" />
    <glyph glyph-name="paragraph" unicode="&#xb6;" horiz-adv-x="449" 
d="M280 -100h-30l164 737h-98l-164 -737h-30l94 423q-57 0 -97 44.5t-40 111.5q0 73 56.5 130.5t137.5 57.5h177z" />
    <glyph glyph-name="periodcentered" unicode="&#xb7;" horiz-adv-x="208" 
d="M101 212q-13 0 -21.5 8.5t-8.5 21.5q0 15 10.5 25t25.5 10q13 0 21.5 -8.5t8.5 -21.5q0 -15 -10.5 -25t-25.5 -10z" />
    <glyph glyph-name="periodcentered" unicode="&#x2219;" horiz-adv-x="208" 
d="M101 212q-13 0 -21.5 8.5t-8.5 21.5q0 15 10.5 25t25.5 10q13 0 21.5 -8.5t8.5 -21.5q0 -15 -10.5 -25t-25.5 -10z" />
    <glyph glyph-name="cedilla" unicode="&#xb8;" horiz-adv-x="171" 
d="M-4 -187q-55 0 -85 35l19 25q26 -33 69 -33q30 0 47.5 16.5t17.5 40.5q0 33 -36 33q-20 0 -36 -17l-18 13l50 85h30l-42 -70q12 11 30 11q23 0 37 -14.5t14 -39.5q0 -36 -27.5 -60.5t-69.5 -24.5z" />
    <glyph glyph-name="onesuperior" unicode="&#xb9;" horiz-adv-x="191" 
d="M170 421h-30l78 356l-74 -65l-16 21l103 88h27z" />
    <glyph glyph-name="ordmasculine" unicode="&#xba;" horiz-adv-x="339" 
d="M200 318q-52 0 -81 32.5t-29 89.5q0 73 43.5 140.5t110.5 67.5q52 0 81 -32.5t29 -89.5q0 -72 -43.5 -140t-110.5 -68zM200 344q55 0 90 60t35 122q0 44 -22 69.5t-60 25.5q-55 0 -89 -59.5t-34 -121.5q0 -44 21.5 -70t58.5 -26z" />
    <glyph glyph-name="guillemotright" unicode="&#xbb;" horiz-adv-x="319" 
d="M75 420h33l85 -180l-165 -177h-39l169 182zM173 420h33l85 -180l-165 -177h-39l168 182z" />
    <glyph glyph-name="onequarter" unicode="&#xbc;" horiz-adv-x="615" 
d="M569 667l-496 -667h-34l495 667h35zM554 113h-50l-25 -113h-29l25 113h-165l5 27l214 260h38l-58 -261h50zM480 139l50 223l-185 -223h135zM136 267h-30l78 356l-74 -65l-16 21l103 88h27z" />
    <glyph glyph-name="onehalf" unicode="&#xbd;" horiz-adv-x="650" 
d="M569 667l-496 -667h-34l495 667h35zM554 0h-224l5 26q19 17 50 43.5t46.5 40t39.5 35t36 33.5t28.5 29.5t24.5 29t16.5 26t11.5 26.5t3 25q0 32 -22 49t-53 17q-56 0 -94 -50l-19 19q47 57 113 57q41 0 73 -23t32 -69q0 -18 -5 -35t-20 -38t-26 -35.5t-39.5 -41
t-43.5 -40t-54.5 -48t-57.5 -50.5h184zM136 267h-30l78 356l-74 -65l-16 21l103 88h27z" />
    <glyph glyph-name="threequarters" unicode="&#xbe;" horiz-adv-x="696" 
d="M650 667l-496 -667h-34l495 667h35zM635 113h-50l-25 -113h-29l25 113h-165l5 27l214 260h38l-58 -261h50zM561 139l50 223l-185 -223h135zM300 387q0 -47 -33.5 -87t-89.5 -40q-88 0 -117 72l25 14q26 -60 92 -60q43 0 68 33t25 76q0 31 -22.5 48.5t-56.5 17.5
q-20 0 -26 -1l6 27q10 -1 42 -1q40 0 67.5 26t27.5 68q0 30 -22 48.5t-56 18.5q-49 0 -93 -49l-18 19q48 56 112 56q47 0 76.5 -23.5t29.5 -67.5q0 -42 -27 -73.5t-70 -38.5q25 -6 42.5 -28.5t17.5 -54.5z" />
    <glyph glyph-name="questiondown" unicode="&#xbf;" horiz-adv-x="324" 
d="M186 295l27 20q21 -29 21 -68t-23.5 -71t-57.5 -55t-68 -47t-57.5 -58.5t-23.5 -77.5q0 -44 32 -73.5t87 -29.5q70 0 128 53l16 -24q-65 -59 -144 -59q-70 0 -112 38t-42 92q0 47 24 85t58 64t68.5 49t58.5 51t24 59t-16 52zM246 492q13 0 21.5 -8.5t8.5 -21.5
q0 -15 -10.5 -25t-25.5 -10q-13 0 -21.5 8.5t-8.5 21.5q0 15 10.5 25t25.5 10z" />
    <glyph glyph-name="Agrave" unicode="&#xc0;" horiz-adv-x="474" 
d="M391 728h-27l-103 144h43zM404 0h-34l-14 179h-265l-92 -179h-37l349 667h38zM355 209l-32 416l-216 -416h248z" />
    <glyph glyph-name="Aacute" unicode="&#xc1;" horiz-adv-x="474" 
d="M493 872l-167 -144h-29l151 144h45zM404 0h-34l-14 179h-265l-92 -179h-37l349 667h38zM355 209l-32 416l-216 -416h248z" />
    <glyph glyph-name="Acircumflex" unicode="&#xc2;" horiz-adv-x="474" 
d="M448 728h-23l-53 118l-101 -118h-28l115 144h36zM404 0h-34l-14 179h-265l-92 -179h-37l349 667h38zM355 209l-32 416l-216 -416h248z" />
    <glyph glyph-name="Atilde" unicode="&#xc3;" horiz-adv-x="474" 
d="M395 726q-24 0 -36 17.5t-14.5 39t-11.5 39t-26 17.5q-43 0 -67 -107h-25q30 134 99 134q23 0 35 -17.5t14.5 -39t11.5 -39t26 -17.5q44 0 68 107h25q-28 -134 -99 -134zM404 0h-34l-14 179h-265l-92 -179h-37l349 667h38zM355 209l-32 416l-216 -416h248z" />
    <glyph glyph-name="Adieresis" unicode="&#xc4;" horiz-adv-x="474" 
d="M462 767q0 -13 -9 -22t-22 -9q-11 0 -18 7t-7 18q0 13 9 22t22 9q11 0 18 -7t7 -18zM300 767q0 -13 -9 -22t-22 -9q-11 0 -18 7t-7 18q0 13 9 22t22 9q11 0 18 -7t7 -18zM404 0h-34l-14 179h-265l-92 -179h-37l349 667h38zM355 209l-32 416l-216 -416h248z" />
    <glyph glyph-name="Aring" unicode="&#xc5;" horiz-adv-x="474" 
d="M347 692q-34 0 -55.5 22t-21.5 56q0 38 28 66t66 28q34 0 55.5 -22t21.5 -56q0 -38 -28 -66t-66 -28zM347 716q29 0 49.5 20t20.5 48q0 24 -15 40t-38 16q-29 0 -49.5 -20.5t-20.5 -48.5q0 -23 15 -39t38 -16zM404 0h-34l-14 179h-265l-92 -179h-37l349 667h38zM355 209
l-32 416l-216 -416h248z" />
    <glyph glyph-name="AE" unicode="&#xc6;" horiz-adv-x="720" 
d="M607 0h-309l39 179h-209l-123 -179h-38l466 667h321l-6 -30h-277l-62 -279h270l-7 -30h-270l-66 -298h277zM344 209l91 412l-287 -412h196z" />
    <glyph glyph-name="Ccedilla" unicode="&#xc7;" horiz-adv-x="512" 
d="M258 -12h-7l-28 -47q12 11 30 11q23 0 37 -14.5t14 -39.5q0 -36 -27.5 -60.5t-69.5 -24.5q-55 0 -85 35l19 25q26 -33 69 -33q30 0 47.5 16.5t17.5 40.5q0 33 -36 33q-20 0 -36 -17l-18 13l38 65q-75 11 -118.5 69.5t-43.5 155.5q0 108 38 213.5t108 177t153 71.5
q129 0 177 -126l-30 -12q-42 108 -151 108q-69 0 -130 -67t-95.5 -167t-34.5 -200q0 -94 43.5 -145t121.5 -51q76 0 150 82l23 -19q-79 -93 -176 -93z" />
    <glyph glyph-name="Egrave" unicode="&#xc8;" horiz-adv-x="444" 
d="M390 728h-27l-103 144h43zM335 0h-309l147 667h309l-6 -30h-277l-62 -279h270l-7 -30h-270l-66 -298h277z" />
    <glyph glyph-name="Eacute" unicode="&#xc9;" horiz-adv-x="444" 
d="M490 872l-167 -144h-29l151 144h45zM335 0h-309l147 667h309l-6 -30h-277l-62 -279h270l-7 -30h-270l-66 -298h277z" />
    <glyph glyph-name="Ecircumflex" unicode="&#xca;" horiz-adv-x="444" 
d="M445 728h-23l-53 118l-101 -118h-28l115 144h36zM335 0h-309l147 667h309l-6 -30h-277l-62 -279h270l-7 -30h-270l-66 -298h277z" />
    <glyph glyph-name="Edieresis" unicode="&#xcb;" horiz-adv-x="444" 
d="M458 767q0 -13 -9 -22t-22 -9q-11 0 -18 7t-7 18q0 13 9 22t22 9q11 0 18 -7t7 -18zM296 767q0 -13 -9 -22t-22 -9q-11 0 -18 7t-7 18q0 13 9 22t22 9q11 0 18 -7t7 -18zM335 0h-309l147 667h309l-6 -30h-277l-62 -279h270l-7 -30h-270l-66 -298h277z" />
    <glyph glyph-name="Igrave" unicode="&#xcc;" horiz-adv-x="192" 
d="M250 728h-27l-103 144h43zM58 0h-32l147 667h32z" />
    <glyph glyph-name="Iacute" unicode="&#xcd;" horiz-adv-x="192" 
d="M352 872l-167 -144h-29l151 144h45zM58 0h-32l147 667h32z" />
    <glyph glyph-name="Icircumflex" unicode="&#xce;" horiz-adv-x="192" 
d="M307 728h-23l-53 118l-101 -118h-28l115 144h36zM58 0h-32l147 667h32z" />
    <glyph glyph-name="Idieresis" unicode="&#xcf;" horiz-adv-x="192" 
d="M322 767q0 -13 -9 -22t-22 -9q-11 0 -18 7t-7 18q0 13 9 22t22 9q11 0 18 -7t7 -18zM160 767q0 -13 -9 -22t-22 -9q-11 0 -18 7t-7 18q0 13 9 22t22 9q11 0 18 -7t7 -18zM58 0h-32l147 667h32z" />
    <glyph glyph-name="Eth" unicode="&#xd0;" horiz-adv-x="559" 
d="M196 0h-146l70 319h-85l7 30h85l70 318h142q80 0 135.5 -62.5t55.5 -171.5q0 -49 -11.5 -104.5t-37.5 -114.5t-63.5 -106t-95.5 -77.5t-126 -30.5zM294 319h-142l-64 -289h113q56 0 105.5 27t83.5 70t58.5 96.5t36 107.5t11.5 102q0 94 -46.5 149t-116.5 55h-110
l-64 -288h142z" />
    <glyph glyph-name="Ntilde" unicode="&#xd1;" horiz-adv-x="543" 
d="M431 726q-24 0 -36 17.5t-14.5 39t-11.5 39t-26 17.5q-43 0 -67 -107h-25q30 134 99 134q23 0 35 -17.5t14.5 -39t11.5 -39t26 -17.5q44 0 68 107h25q-28 -134 -99 -134zM409 0h-32l-186 599l-133 -599h-32l147 667h32l187 -592l132 592h32z" />
    <glyph glyph-name="Ograve" unicode="&#xd2;" horiz-adv-x="580" 
d="M445 728h-27l-103 144h43zM258 -12q-89 0 -143 62t-54 166q0 76 21.5 157t59 149t95.5 112t123 44q89 0 143.5 -62.5t54.5 -165.5q0 -104 -36 -208.5t-107 -179t-157 -74.5zM261 18q71 0 132.5 66.5t95.5 165.5t34 201q0 93 -46 145t-121 52q-71 0 -132 -66.5t-94.5 -166
t-33.5 -201.5q0 -93 45.5 -144.5t119.5 -51.5z" />
    <glyph glyph-name="Oacute" unicode="&#xd3;" horiz-adv-x="580" 
d="M546 872l-167 -144h-29l151 144h45zM258 -12q-89 0 -143 62t-54 166q0 76 21.5 157t59 149t95.5 112t123 44q89 0 143.5 -62.5t54.5 -165.5q0 -104 -36 -208.5t-107 -179t-157 -74.5zM261 18q71 0 132.5 66.5t95.5 165.5t34 201q0 93 -46 145t-121 52q-71 0 -132 -66.5
t-94.5 -166t-33.5 -201.5q0 -93 45.5 -144.5t119.5 -51.5z" />
    <glyph glyph-name="Ocircumflex" unicode="&#xd4;" horiz-adv-x="580" 
d="M501 728h-23l-53 118l-101 -118h-28l115 144h36zM258 -12q-89 0 -143 62t-54 166q0 76 21.5 157t59 149t95.5 112t123 44q89 0 143.5 -62.5t54.5 -165.5q0 -104 -36 -208.5t-107 -179t-157 -74.5zM261 18q71 0 132.5 66.5t95.5 165.5t34 201q0 93 -46 145t-121 52
q-71 0 -132 -66.5t-94.5 -166t-33.5 -201.5q0 -93 45.5 -144.5t119.5 -51.5z" />
    <glyph glyph-name="Otilde" unicode="&#xd5;" horiz-adv-x="580" 
d="M453 726q-24 0 -36 17.5t-14.5 39t-11.5 39t-26 17.5q-43 0 -67 -107h-25q30 134 99 134q23 0 35 -17.5t14.5 -39t11.5 -39t26 -17.5q44 0 68 107h25q-28 -134 -99 -134zM258 -12q-89 0 -143 62t-54 166q0 76 21.5 157t59 149t95.5 112t123 44q89 0 143.5 -62.5
t54.5 -165.5q0 -104 -36 -208.5t-107 -179t-157 -74.5zM261 18q71 0 132.5 66.5t95.5 165.5t34 201q0 93 -46 145t-121 52q-71 0 -132 -66.5t-94.5 -166t-33.5 -201.5q0 -93 45.5 -144.5t119.5 -51.5z" />
    <glyph glyph-name="Odieresis" unicode="&#xd6;" horiz-adv-x="580" 
d="M513 767q0 -13 -9 -22t-22 -9q-10 0 -17.5 7t-7.5 18q0 13 9 22t22 9q10 0 17.5 -7t7.5 -18zM351 767q0 -13 -9 -22t-22 -9q-10 0 -17.5 7t-7.5 18q0 13 9 22t22 9q10 0 17.5 -7t7.5 -18zM258 -12q-89 0 -143 62t-54 166q0 76 21.5 157t59 149t95.5 112t123 44
q89 0 143.5 -62.5t54.5 -165.5q0 -104 -36 -208.5t-107 -179t-157 -74.5zM261 18q71 0 132.5 66.5t95.5 165.5t34 201q0 93 -46 145t-121 52q-71 0 -132 -66.5t-94.5 -166t-33.5 -201.5q0 -93 45.5 -144.5t119.5 -51.5z" />
    <glyph glyph-name="multiply" unicode="&#xd7;" horiz-adv-x="434" 
d="M337 180l-103 133l-164 -135l-19 24l165 134l-104 133l25 19l102 -133l165 135l18 -23l-164 -135l103 -132z" />
    <glyph glyph-name="Oslash" unicode="&#xd8;" horiz-adv-x="580" 
d="M258 -12q-82 0 -135 53l-29 -41h-34l44 63q-43 60 -43 153q0 76 21.5 157t59 149t95.5 112t123 44q81 0 135 -54l30 43h35l-46 -65q44 -61 44 -152q0 -104 -36 -208.5t-107 -179t-157 -74.5zM96 214q0 -73 29 -122l351 505q-46 51 -120 51q-71 0 -132 -66.5t-94.5 -166
t-33.5 -201.5zM261 18q71 0 132.5 66.5t95.5 165.5t34 201q0 70 -30 121l-351 -504q44 -50 119 -50z" />
    <glyph glyph-name="Ugrave" unicode="&#xd9;" horiz-adv-x="534" 
d="M421 728h-27l-103 144h43zM239 -12q-79 0 -126 44t-47 121q0 21 5 51l102 463h32l-102 -463q-5 -20 -5 -46q0 -65 38.5 -102.5t103.5 -37.5q72 0 112 45t61 141l102 463h32l-102 -463q-24 -110 -71.5 -163t-134.5 -53z" />
    <glyph glyph-name="Uacute" unicode="&#xda;" horiz-adv-x="534" 
d="M521 872l-167 -144h-29l151 144h45zM239 -12q-79 0 -126 44t-47 121q0 21 5 51l102 463h32l-102 -463q-5 -20 -5 -46q0 -65 38.5 -102.5t103.5 -37.5q72 0 112 45t61 141l102 463h32l-102 -463q-24 -110 -71.5 -163t-134.5 -53z" />
    <glyph glyph-name="Ucircumflex" unicode="&#xdb;" horiz-adv-x="534" 
d="M478 728h-23l-53 118l-101 -118h-28l115 144h36zM239 -12q-79 0 -126 44t-47 121q0 21 5 51l102 463h32l-102 -463q-5 -20 -5 -46q0 -65 38.5 -102.5t103.5 -37.5q72 0 112 45t61 141l102 463h32l-102 -463q-24 -110 -71.5 -163t-134.5 -53z" />
    <glyph glyph-name="Udieresis" unicode="&#xdc;" horiz-adv-x="534" 
d="M491 767q0 -13 -9 -22t-22 -9q-10 0 -17.5 7t-7.5 18q0 13 9 22t22 9q10 0 17.5 -7t7.5 -18zM329 767q0 -13 -9 -22t-22 -9q-10 0 -17.5 7t-7.5 18q0 13 9 22t22 9q10 0 17.5 -7t7.5 -18zM239 -12q-79 0 -126 44t-47 121q0 21 5 51l102 463h32l-102 -463q-5 -20 -5 -46
q0 -65 38.5 -102.5t103.5 -37.5q72 0 112 45t61 141l102 463h32l-102 -463q-24 -110 -71.5 -163t-134.5 -53z" />
    <glyph glyph-name="Yacute" unicode="&#xdd;" horiz-adv-x="466" 
d="M493 872l-167 -144h-29l151 144h45zM195 0h-32l64 289l-122 378h35l108 -342l259 342h41l-289 -378z" />
    <glyph glyph-name="Thorn" unicode="&#xde;" horiz-adv-x="448" 
d="M58 0h-32l147 667h32l-28 -129h122q59 0 97.5 -42.5t38.5 -106.5q0 -39 -12.5 -78t-36.5 -73.5t-66 -56t-96 -21.5h-131zM229 190q82 0 126.5 59.5t44.5 139.5q0 52 -30 85.5t-77 33.5h-123l-70 -318h129z" />
    <glyph glyph-name="germandbls" unicode="&#xdf;" horiz-adv-x="477" 
d="M434 131q0 -56 -40.5 -99.5t-109.5 -43.5q-97 0 -151 76l27 20q45 -69 125 -69q52 0 85 33.5t33 81.5q0 28 -19.5 50.5t-47.5 38.5t-55.5 32.5t-47 42.5t-19.5 60q0 36 18.5 62.5t45 42.5t53.5 31t45.5 35.5t18.5 47.5q0 35 -28 56t-66 21q-44 0 -78.5 -30.5t-46.5 -87.5
l-118 -532h-30l118 532q15 67 56.5 106t99.5 39q52 0 87.5 -28t35.5 -73q0 -34 -18.5 -59.5t-45.5 -40.5t-53.5 -29.5t-45 -36.5t-18.5 -52q0 -28 19.5 -50t47.5 -38.5t56 -33.5t47.5 -44t19.5 -61z" />
    <glyph glyph-name="agrave" unicode="&#xe0;" horiz-adv-x="459" 
d="M258 495q44 0 78.5 -24.5t52.5 -68.5l17 81h30l-107 -483h-30l16 72q-55 -84 -136 -84q-63 0 -100.5 44.5t-37.5 121.5q0 73 25 150t76.5 134t115.5 57zM257 468q-53 0 -97 -54t-65 -125t-21 -134q0 -68 29 -104t81 -36q40 0 79 29.5t63 72.5l55 251q-11 42 -45 71
t-79 29zM330 556h-27l-103 144h43z" />
    <glyph glyph-name="aacute" unicode="&#xe1;" horiz-adv-x="459" 
d="M258 495q44 0 78.5 -24.5t52.5 -68.5l17 81h30l-107 -483h-30l16 72q-55 -84 -136 -84q-63 0 -100.5 44.5t-37.5 121.5q0 73 25 150t76.5 134t115.5 57zM257 468q-53 0 -97 -54t-65 -125t-21 -134q0 -68 29 -104t81 -36q40 0 79 29.5t63 72.5l55 251q-11 42 -45 71
t-79 29zM433 700l-167 -144h-29l151 144h45z" />
    <glyph glyph-name="acircumflex" unicode="&#xe2;" horiz-adv-x="459" 
d="M258 495q44 0 78.5 -24.5t52.5 -68.5l17 81h30l-107 -483h-30l16 72q-55 -84 -136 -84q-63 0 -100.5 44.5t-37.5 121.5q0 73 25 150t76.5 134t115.5 57zM257 468q-53 0 -97 -54t-65 -125t-21 -134q0 -68 29 -104t81 -36q40 0 79 29.5t63 72.5l55 251q-11 42 -45 71
t-79 29zM387 556h-23l-53 118l-101 -118h-28l115 144h36z" />
    <glyph glyph-name="atilde" unicode="&#xe3;" horiz-adv-x="459" 
d="M258 495q44 0 78.5 -24.5t52.5 -68.5l17 81h30l-107 -483h-30l16 72q-55 -84 -136 -84q-63 0 -100.5 44.5t-37.5 121.5q0 73 25 150t76.5 134t115.5 57zM257 468q-53 0 -97 -54t-65 -125t-21 -134q0 -68 29 -104t81 -36q40 0 79 29.5t63 72.5l55 251q-11 42 -45 71
t-79 29zM339 554q-24 0 -36 17.5t-14.5 39t-11.5 39t-26 17.5q-43 0 -67 -107h-25q30 134 99 134q23 0 35 -17.5t14.5 -39t11.5 -39t26 -17.5q44 0 68 107h25q-28 -134 -99 -134z" />
    <glyph glyph-name="adieresis" unicode="&#xe4;" horiz-adv-x="459" 
d="M258 495q44 0 78.5 -24.5t52.5 -68.5l17 81h30l-107 -483h-30l16 72q-55 -84 -136 -84q-63 0 -100.5 44.5t-37.5 121.5q0 73 25 150t76.5 134t115.5 57zM257 468q-53 0 -97 -54t-65 -125t-21 -134q0 -68 29 -104t81 -36q40 0 79 29.5t63 72.5l55 251q-11 42 -45 71
t-79 29zM403 601q0 -13 -9 -22t-22 -9q-10 0 -17.5 7t-7.5 18q0 13 9 22t22 9q10 0 17.5 -7t7.5 -18zM241 601q0 -13 -9 -22t-22 -9q-10 0 -17.5 7t-7.5 18q0 13 9 22t22 9q10 0 17.5 -7t7.5 -18z" />
    <glyph glyph-name="aring" unicode="&#xe5;" horiz-adv-x="459" 
d="M258 495q44 0 78.5 -24.5t52.5 -68.5l17 81h30l-107 -483h-30l16 72q-55 -84 -136 -84q-63 0 -100.5 44.5t-37.5 121.5q0 73 25 150t76.5 134t115.5 57zM257 468q-53 0 -97 -54t-65 -125t-21 -134q0 -68 29 -104t81 -36q40 0 79 29.5t63 72.5l55 251q-11 42 -45 71
t-79 29zM294 553q-34 0 -55.5 22t-21.5 56q0 37 28.5 65.5t65.5 28.5q34 0 55.5 -22t21.5 -56q0 -38 -28 -66t-66 -28zM294 577q29 0 49.5 20t20.5 48q0 24 -15 40t-38 16q-29 0 -49.5 -20.5t-20.5 -48.5q0 -23 15 -39t38 -16z" />
    <glyph glyph-name="ae" unicode="&#xe6;" horiz-adv-x="756" 
d="M515 -12q-67 0 -107.5 37t-49.5 106l-29 -131h-30l16 72q-55 -84 -136 -84q-63 0 -100.5 44.5t-37.5 121.5q0 73 25 150t76.5 134t115.5 57q44 0 78.5 -24.5t52.5 -68.5l17 81h30l-25 -110q67 122 159 122q70 0 108 -45t38 -126q0 -44 -13 -92h-321q-6 -29 -6 -61
q0 -70 36 -113t102 -43q62 0 117 61l19 -21q-62 -67 -135 -67zM257 468q-53 0 -97 -54t-65 -125t-21 -134q0 -68 29 -104t81 -36q40 0 79 29.5t63 72.5l55 251q-11 42 -45 71t-79 29zM678 259q7 35 7 61q0 67 -29.5 107.5t-88.5 40.5q-65 0 -115.5 -64.5t-65.5 -144.5h292z
" />
    <glyph glyph-name="ccedilla" unicode="&#xe7;" horiz-adv-x="394" 
d="M149 -187q-55 0 -85 35l19 25q26 -33 69 -33q30 0 47.5 16.5t17.5 40.5q0 33 -36 33q-20 0 -36 -17l-18 13l38 66q-57 10 -90 55.5t-33 123.5q0 73 27 146t81 125.5t121 52.5q85 0 124 -67l-24 -19q-32 59 -100 59q-60 0 -106.5 -51.5t-68 -118.5t-21.5 -132
q0 -75 34.5 -113t91.5 -38q59 0 103 51l18 -21q-56 -57 -122 -57h-7l-28 -47q12 11 30 11q23 0 37 -14.5t14 -39.5q0 -36 -27.5 -60.5t-69.5 -24.5z" />
    <glyph glyph-name="egrave" unicode="&#xe8;" horiz-adv-x="459" 
d="M212 -12q-80 0 -125.5 48.5t-45.5 133.5q0 65 25 137.5t79 130t123 57.5q70 0 110.5 -45.5t40.5 -125.5q0 -44 -13 -92h-325q-6 -28 -6 -61q0 -71 35.5 -113.5t101.5 -42.5q65 0 121 61l19 -21q-64 -67 -140 -67zM376 259h5q7 35 7 61q0 66 -32.5 107t-91.5 41
q-64 0 -114.5 -64.5t-64.5 -144.5h291zM349 556h-27l-103 144h43z" />
    <glyph glyph-name="eacute" unicode="&#xe9;" horiz-adv-x="459" 
d="M212 -12q-80 0 -125.5 48.5t-45.5 133.5q0 65 25 137.5t79 130t123 57.5q70 0 110.5 -45.5t40.5 -125.5q0 -44 -13 -92h-325q-6 -28 -6 -61q0 -71 35.5 -113.5t101.5 -42.5q65 0 121 61l19 -21q-64 -67 -140 -67zM376 259h5q7 35 7 61q0 66 -32.5 107t-91.5 41
q-64 0 -114.5 -64.5t-64.5 -144.5h291zM449 700l-167 -144h-29l151 144h45z" />
    <glyph glyph-name="ecircumflex" unicode="&#xea;" horiz-adv-x="459" 
d="M212 -12q-80 0 -125.5 48.5t-45.5 133.5q0 65 25 137.5t79 130t123 57.5q70 0 110.5 -45.5t40.5 -125.5q0 -44 -13 -92h-325q-6 -28 -6 -61q0 -71 35.5 -113.5t101.5 -42.5q65 0 121 61l19 -21q-64 -67 -140 -67zM376 259h5q7 35 7 61q0 66 -32.5 107t-91.5 41
q-64 0 -114.5 -64.5t-64.5 -144.5h291zM405 556h-23l-53 118l-101 -118h-28l115 144h36z" />
    <glyph glyph-name="edieresis" unicode="&#xeb;" horiz-adv-x="459" 
d="M212 -12q-80 0 -125.5 48.5t-45.5 133.5q0 65 25 137.5t79 130t123 57.5q70 0 110.5 -45.5t40.5 -125.5q0 -44 -13 -92h-325q-6 -28 -6 -61q0 -71 35.5 -113.5t101.5 -42.5q65 0 121 61l19 -21q-64 -67 -140 -67zM376 259h5q7 35 7 61q0 66 -32.5 107t-91.5 41
q-64 0 -114.5 -64.5t-64.5 -144.5h291zM419 601q0 -13 -9 -22t-22 -9q-10 0 -17.5 7t-7.5 18q0 13 9 22t22 9q10 0 17.5 -7t7.5 -18zM257 601q0 -13 -9 -22t-22 -9q-10 0 -17.5 7t-7.5 18q0 13 9 22t22 9q10 0 17.5 -7t7.5 -18z" />
    <glyph glyph-name="igrave" unicode="&#xec;" horiz-adv-x="181" 
d="M205 556h-27l-103 144h43zM52 0h-30l107 483h30z" />
    <glyph glyph-name="iacute" unicode="&#xed;" horiz-adv-x="181" 
d="M308 700l-167 -144h-29l151 144h45zM52 0h-30l107 483h30z" />
    <glyph glyph-name="icircumflex" unicode="&#xee;" horiz-adv-x="181" 
d="M262 556h-23l-53 118l-101 -118h-28l115 144h36zM52 0h-30l107 483h30z" />
    <glyph glyph-name="idieresis" unicode="&#xef;" horiz-adv-x="181" 
d="M277 601q0 -13 -9 -22t-22 -9q-10 0 -17.5 7t-7.5 18q0 13 9 22t22 9q10 0 17.5 -7t7.5 -18zM115 601q0 -13 -9 -22t-22 -9q-10 0 -17.5 7t-7.5 18q0 13 9 22t22 9q10 0 17.5 -7t7.5 -18zM52 0h-30l107 483h30z" />
    <glyph glyph-name="eth" unicode="&#xf0;" horiz-adv-x="461" 
d="M183 532l-6 25l129 39q-25 39 -52 69l28 18q38 -49 55 -77l100 30l6 -25l-92 -28q69 -120 69 -230q0 -84 -25.5 -166t-78 -140.5t-119.5 -58.5q-72 0 -113.5 47.5t-41.5 128.5q0 77 28 152.5t80 127t113 51.5q38 0 72.5 -20.5t50.5 -64.5q-22 85 -66 163zM197 15
q52 0 97 52.5t68 123.5t23 134q0 56 -30.5 99.5t-91.5 43.5q-52 0 -96.5 -51t-68 -120t-23.5 -132q0 -73 32.5 -111.5t89.5 -38.5z" />
    <glyph glyph-name="ntilde" unicode="&#xf1;" horiz-adv-x="435" 
d="M306 0h-30l81 366q5 25 5 34q0 68 -80 68q-38 0 -77.5 -27.5t-70.5 -67.5l-82 -373h-30l107 483h30l-16 -72q71 84 145 84q48 0 76 -23t28 -68q0 -20 -6 -38zM344 554q-24 0 -36 17.5t-14.5 39t-11.5 39t-26 17.5q-43 0 -67 -107h-25q30 134 99 134q23 0 35 -17.5
t14.5 -39t11.5 -39t26 -17.5q44 0 68 107h25q-28 -134 -99 -134z" />
    <glyph glyph-name="ograve" unicode="&#xf2;" horiz-adv-x="461" 
d="M193 -12q-70 0 -111 45t-41 130q0 75 26.5 150t80 128.5t119.5 53.5q70 0 111 -45t41 -130q0 -75 -26.5 -150t-80 -128.5t-119.5 -53.5zM194 15q54 0 100 51t69 120.5t23 133.5q0 72 -31.5 110t-88.5 38q-54 0 -100 -51t-69 -120.5t-23 -133.5q0 -72 31.5 -110t88.5 -38z
M347 556h-27l-103 144h43z" />
    <glyph glyph-name="oacute" unicode="&#xf3;" horiz-adv-x="461" 
d="M193 -12q-70 0 -111 45t-41 130q0 75 26.5 150t80 128.5t119.5 53.5q70 0 111 -45t41 -130q0 -75 -26.5 -150t-80 -128.5t-119.5 -53.5zM194 15q54 0 100 51t69 120.5t23 133.5q0 72 -31.5 110t-88.5 38q-54 0 -100 -51t-69 -120.5t-23 -133.5q0 -72 31.5 -110t88.5 -38z
M448 700l-167 -144h-29l151 144h45z" />
    <glyph glyph-name="ocircumflex" unicode="&#xf4;" horiz-adv-x="461" 
d="M193 -12q-70 0 -111 45t-41 130q0 75 26.5 150t80 128.5t119.5 53.5q70 0 111 -45t41 -130q0 -75 -26.5 -150t-80 -128.5t-119.5 -53.5zM194 15q54 0 100 51t69 120.5t23 133.5q0 72 -31.5 110t-88.5 38q-54 0 -100 -51t-69 -120.5t-23 -133.5q0 -72 31.5 -110t88.5 -38z
M403 556h-23l-53 118l-101 -118h-28l115 144h36z" />
    <glyph glyph-name="otilde" unicode="&#xf5;" horiz-adv-x="461" 
d="M193 -12q-70 0 -111 45t-41 130q0 75 26.5 150t80 128.5t119.5 53.5q70 0 111 -45t41 -130q0 -75 -26.5 -150t-80 -128.5t-119.5 -53.5zM194 15q54 0 100 51t69 120.5t23 133.5q0 72 -31.5 110t-88.5 38q-54 0 -100 -51t-69 -120.5t-23 -133.5q0 -72 31.5 -110t88.5 -38z
M356 554q-24 0 -36 17.5t-14.5 39t-11.5 39t-26 17.5q-43 0 -67 -107h-25q30 134 99 134q23 0 35 -17.5t14.5 -39t11.5 -39t26 -17.5q44 0 68 107h25q-28 -134 -99 -134z" />
    <glyph glyph-name="odieresis" unicode="&#xf6;" horiz-adv-x="461" 
d="M193 -12q-70 0 -111 45t-41 130q0 75 26.5 150t80 128.5t119.5 53.5q70 0 111 -45t41 -130q0 -75 -26.5 -150t-80 -128.5t-119.5 -53.5zM194 15q54 0 100 51t69 120.5t23 133.5q0 72 -31.5 110t-88.5 38q-54 0 -100 -51t-69 -120.5t-23 -133.5q0 -72 31.5 -110t88.5 -38z
M418 601q0 -13 -9 -22t-22 -9q-11 0 -18 7t-7 18q0 13 9 22t22 9q11 0 18 -7t7 -18zM256 601q0 -13 -9 -22t-22 -9q-11 0 -18 7t-7 18q0 13 9 22t22 9q11 0 18 -7t7 -18z" />
    <glyph glyph-name="divide" unicode="&#xf7;" horiz-adv-x="443" 
d="M431 322h-385l7 30h385zM201 131q-13 0 -21.5 8.5t-8.5 21.5q0 15 10.5 25t25.5 10q13 0 21.5 -8.5t8.5 -21.5q0 -15 -10.5 -25t-25.5 -10zM277 473q-13 0 -21.5 8.5t-8.5 21.5q0 15 10.5 25t25.5 10q13 0 21.5 -8.5t8.5 -21.5q0 -15 -10.5 -25t-25.5 -10z" />
    <glyph glyph-name="oslash" unicode="&#xf8;" horiz-adv-x="461" 
d="M49 0h-33l48 59q-23 41 -23 104q0 75 26.5 150t80 128.5t119.5 53.5q70 0 111 -46l28 34h33l-45 -56q25 -42 25 -107q0 -75 -26.5 -150t-80 -128.5t-119.5 -53.5q-74 0 -114 49zM194 15q54 0 100 51t69 120.5t23 133.5q0 46 -14 80l-273 -338q30 -47 95 -47zM74 163
q0 -45 12 -76l273 337q-32 44 -93 44q-54 0 -100 -51t-69 -120.5t-23 -133.5z" />
    <glyph glyph-name="ugrave" unicode="&#xf9;" horiz-adv-x="435" 
d="M129 483h30l-81 -366q-5 -23 -5 -33q0 -69 79 -69q38 0 77.5 26.5t69.5 65.5l84 376h30l-107 -483h-30l16 72q-73 -84 -146 -84q-47 0 -75 23.5t-28 68.5q0 13 5 38zM335 556h-27l-103 144h43z" />
    <glyph glyph-name="uacute" unicode="&#xfa;" horiz-adv-x="435" 
d="M129 483h30l-81 -366q-5 -23 -5 -33q0 -69 79 -69q38 0 77.5 26.5t69.5 65.5l84 376h30l-107 -483h-30l16 72q-73 -84 -146 -84q-47 0 -75 23.5t-28 68.5q0 13 5 38zM436 700l-167 -144h-29l151 144h45z" />
    <glyph glyph-name="ucircumflex" unicode="&#xfb;" horiz-adv-x="435" 
d="M129 483h30l-81 -366q-5 -23 -5 -33q0 -69 79 -69q38 0 77.5 26.5t69.5 65.5l84 376h30l-107 -483h-30l16 72q-73 -84 -146 -84q-47 0 -75 23.5t-28 68.5q0 13 5 38zM390 556h-23l-53 118l-101 -118h-28l115 144h36z" />
    <glyph glyph-name="udieresis" unicode="&#xfc;" horiz-adv-x="435" 
d="M129 483h30l-81 -366q-5 -23 -5 -33q0 -69 79 -69q38 0 77.5 26.5t69.5 65.5l84 376h30l-107 -483h-30l16 72q-73 -84 -146 -84q-47 0 -75 23.5t-28 68.5q0 13 5 38zM408 601q0 -13 -9 -22t-22 -9q-11 0 -18 7t-7 18q0 13 9 22t22 9q11 0 18 -7t7 -18zM246 601
q0 -13 -9 -22t-22 -9q-11 0 -18 7t-7 18q0 13 9 22t22 9q11 0 18 -7t7 -18z" />
    <glyph glyph-name="yacute" unicode="&#xfd;" horiz-adv-x="375" 
d="M-56 -187l12 28q11 -8 35 -8q19 0 33.5 12.5t33.5 45.5l56 98l-47 494h32l41 -445l239 445h36l-331 -602q-42 -77 -100 -77q-24 0 -40 9zM405 700l-167 -144h-29l151 144h45z" />
    <glyph glyph-name="thorn" unicode="&#xfe;" horiz-adv-x="457" 
d="M200 -12q-44 0 -78.5 25t-52.5 69l-58 -266h-31l189 851h30l-56 -255q54 83 136 83q63 0 100.5 -44t37.5 -121q0 -74 -25 -151t-76.5 -134t-115.5 -57zM201 15q53 0 97 54.5t65 125t21 134.5q0 68 -29 103.5t-81 35.5q-40 0 -79 -29.5t-63 -72.5l-55 -251q11 -42 45 -71
t79 -29z" />
    <glyph glyph-name="ydieresis" unicode="&#xff;" horiz-adv-x="375" 
d="M-56 -187l12 28q11 -8 35 -8q19 0 33.5 12.5t33.5 45.5l56 98l-47 494h32l41 -445l239 445h36l-331 -602q-42 -77 -100 -77q-24 0 -40 9zM375 601q0 -13 -9 -22t-22 -9q-10 0 -17.5 7t-7.5 18q0 13 9 22t22 9q10 0 17.5 -7t7.5 -18zM213 601q0 -13 -9 -22t-22 -9
q-10 0 -17.5 7t-7.5 18q0 13 9 22t22 9q10 0 17.5 -7t7.5 -18z" />
    <glyph glyph-name="Amacron" unicode="&#x100;" horiz-adv-x="474" 
d="M404 0h-34l-14 179h-265l-92 -179h-37l349 667h38zM355 209l-32 416l-216 -416h248zM499 750h-301l6 27h301z" />
    <glyph glyph-name="amacron" unicode="&#x101;" horiz-adv-x="459" 
d="M258 495q44 0 78.5 -24.5t52.5 -68.5l17 81h30l-107 -483h-30l16 72q-55 -84 -136 -84q-63 0 -100.5 44.5t-37.5 121.5q0 73 25 150t76.5 134t115.5 57zM257 468q-53 0 -97 -54t-65 -125t-21 -134q0 -68 29 -104t81 -36q40 0 79 29.5t63 72.5l55 251q-11 42 -45 71
t-79 29zM439 581h-301l6 27h301z" />
    <glyph glyph-name="Abreve" unicode="&#x102;" horiz-adv-x="474" 
d="M404 0h-34l-14 179h-265l-92 -179h-37l349 667h38zM355 209l-32 416l-216 -416h248zM506 801q-70 -73 -161 -73t-130 73l23 19q14 -30 44 -47.5t67 -17.5q80 0 137 65z" />
    <glyph glyph-name="abreve" unicode="&#x103;" horiz-adv-x="459" 
d="M258 495q44 0 78.5 -24.5t52.5 -68.5l17 81h30l-107 -483h-30l16 72q-55 -84 -136 -84q-63 0 -100.5 44.5t-37.5 121.5q0 73 25 150t76.5 134t115.5 57zM257 468q-53 0 -97 -54t-65 -125t-21 -134q0 -68 29 -104t81 -36q40 0 79 29.5t63 72.5l55 251q-11 42 -45 71
t-79 29zM449 642q-70 -73 -161 -73t-130 73l23 19q14 -30 44 -47.5t67 -17.5q80 0 137 65z" />
    <glyph glyph-name="Aogonek" unicode="&#x104;" horiz-adv-x="474" 
d="M392 -118l21 -14q-28 -54 -78 -54q-29 0 -46 15.5t-17 44.5q0 78 97 135l-13 170h-265l-92 -179h-37l349 667h38l55 -667q-104 -52 -104 -122q0 -37 39 -37q35 0 53 41zM355 209l-32 416l-216 -416h248z" />
    <glyph glyph-name="aogonek" unicode="&#x105;" horiz-adv-x="459" 
d="M317 -118l21 -14q-28 -54 -78 -54q-29 0 -46 15.5t-17 44.5q0 80 105 139l13 59q-55 -84 -136 -84q-63 0 -100.5 44.5t-37.5 121.5q0 73 25 150t76.5 134t115.5 57q44 0 78.5 -24.5t52.5 -68.5l17 81h30l-107 -483q-104 -52 -104 -122q0 -37 39 -37q35 0 53 41zM257 468
q-53 0 -97 -54t-65 -125t-21 -134q0 -68 29 -104t81 -36q40 0 79 29.5t63 72.5l55 251q-11 42 -45 71t-79 29z" />
    <glyph glyph-name="Cacute" unicode="&#x106;" horiz-adv-x="512" 
d="M258 -12q-89 0 -143 60t-54 168t38 213.5t108 177t153 71.5q129 0 177 -126l-30 -12q-42 108 -151 108q-69 0 -130 -67t-95.5 -167t-34.5 -200q0 -94 43.5 -145t121.5 -51q76 0 150 82l23 -19q-79 -93 -176 -93zM553 872l-167 -144h-29l151 144h45z" />
    <glyph glyph-name="cacute" unicode="&#x107;" horiz-adv-x="394" 
d="M200 -12q-71 0 -114.5 47t-43.5 136q0 73 27 146t81 125.5t121 52.5q85 0 124 -67l-24 -19q-32 59 -100 59q-60 0 -106.5 -51.5t-68 -118.5t-21.5 -132q0 -75 34.5 -113t91.5 -38q59 0 103 51l18 -21q-56 -57 -122 -57zM454 700l-167 -144h-29l151 144h45z" />
    <glyph glyph-name="Ccircumflex" unicode="&#x108;" horiz-adv-x="512" 
d="M258 -12q-89 0 -143 60t-54 168t38 213.5t108 177t153 71.5q129 0 177 -126l-30 -12q-42 108 -151 108q-69 0 -130 -67t-95.5 -167t-34.5 -200q0 -94 43.5 -145t121.5 -51q76 0 150 82l23 -19q-79 -93 -176 -93zM509 728h-23l-53 118l-101 -118h-28l115 144h36z" />
    <glyph glyph-name="ccircumflex" unicode="&#x109;" horiz-adv-x="394" 
d="M200 -12q-71 0 -114.5 47t-43.5 136q0 73 27 146t81 125.5t121 52.5q85 0 124 -67l-24 -19q-32 59 -100 59q-60 0 -106.5 -51.5t-68 -118.5t-21.5 -132q0 -75 34.5 -113t91.5 -38q59 0 103 51l18 -21q-56 -57 -122 -57zM408 556h-23l-53 118l-101 -118h-28l115 144h36z
" />
    <glyph glyph-name="Cdotaccent" unicode="&#x10a;" horiz-adv-x="512" 
d="M258 -12q-89 0 -143 60t-54 168t38 213.5t108 177t153 71.5q129 0 177 -126l-30 -12q-42 108 -151 108q-69 0 -130 -67t-95.5 -167t-34.5 -200q0 -94 43.5 -145t121.5 -51q76 0 150 82l23 -19q-79 -93 -176 -93zM443 768q0 -13 -9.5 -22.5t-22.5 -9.5q-11 0 -18.5 7.5
t-7.5 18.5q0 13 9.5 22.5t22.5 9.5q11 0 18.5 -7.5t7.5 -18.5z" />
    <glyph glyph-name="cdotaccent" unicode="&#x10b;" horiz-adv-x="394" 
d="M200 -12q-71 0 -114.5 47t-43.5 136q0 73 27 146t81 125.5t121 52.5q85 0 124 -67l-24 -19q-32 59 -100 59q-60 0 -106.5 -51.5t-68 -118.5t-21.5 -132q0 -75 34.5 -113t91.5 -38q59 0 103 51l18 -21q-56 -57 -122 -57zM350 623q0 -13 -9.5 -22.5t-22.5 -9.5
q-11 0 -18.5 7.5t-7.5 18.5q0 13 9.5 22.5t22.5 9.5q11 0 18.5 -7.5t7.5 -18.5z" />
    <glyph glyph-name="Ccaron" unicode="&#x10c;" horiz-adv-x="512" 
d="M258 -12q-89 0 -143 60t-54 168t38 213.5t108 177t153 71.5q129 0 177 -126l-30 -12q-42 108 -151 108q-69 0 -130 -67t-95.5 -167t-34.5 -200q0 -94 43.5 -145t121.5 -51q76 0 150 82l23 -19q-79 -93 -176 -93zM426 728h-36l-54 144h24l52 -118l102 118h27z" />
    <glyph glyph-name="ccaron" unicode="&#x10d;" horiz-adv-x="394" 
d="M200 -12q-71 0 -114.5 47t-43.5 136q0 73 27 146t81 125.5t121 52.5q85 0 124 -67l-24 -19q-32 59 -100 59q-60 0 -106.5 -51.5t-68 -118.5t-21.5 -132q0 -75 34.5 -113t91.5 -38q59 0 103 51l18 -21q-56 -57 -122 -57zM325 556h-36l-54 144h24l52 -118l102 118h27z" />
    <glyph glyph-name="Dcaron" unicode="&#x10e;" horiz-adv-x="535" 
d="M172 0h-146l147 667h142q80 0 135.5 -62.5t55.5 -171.5q0 -49 -11.5 -104.5t-37.5 -114.5t-63.5 -106t-95.5 -77.5t-126 -30.5zM199 637l-135 -607h113q56 0 105.5 27t83.5 70t58.5 96.5t36 107.5t11.5 102q0 94 -46.5 149t-116.5 55h-110zM391 728h-36l-54 144h24
l52 -118l102 118h27z" />
    <glyph glyph-name="dcaron" unicode="&#x10f;" horiz-adv-x="506" 
d="M258 495q44 0 78.5 -24.5t52.5 -68.5l58 265h30l-148 -667h-30l16 72q-55 -84 -136 -84q-63 0 -100.5 44.5t-37.5 121.5q0 73 25 150t76.5 134t115.5 57zM257 468q-53 0 -97 -54t-65 -125t-21 -134q0 -68 29 -104t81 -36q40 0 79 29.5t63 72.5l55 251q-11 42 -45 71
t-79 29zM593 642q0 -37 -27 -74t-63 -56l-18 20q28 15 48 38t25 46h-6q-10 0 -18.5 8.5t-8.5 19.5q0 15 11 25.5t25 10.5q32 0 32 -38z" />
    <glyph glyph-name="Dcroat" unicode="&#x110;" horiz-adv-x="559" 
d="M196 0h-146l70 319h-85l7 30h85l70 318h142q80 0 135.5 -62.5t55.5 -171.5q0 -49 -11.5 -104.5t-37.5 -114.5t-63.5 -106t-95.5 -77.5t-126 -30.5zM294 319h-142l-64 -289h113q56 0 105.5 27t83.5 70t58.5 96.5t36 107.5t11.5 102q0 94 -46.5 149t-116.5 55h-110
l-64 -288h142z" />
    <glyph glyph-name="dcroat" unicode="&#x111;" horiz-adv-x="468" 
d="M258 495q44 0 78.5 -24.5t52.5 -68.5l30 139h-158l5 27h159l22 99h30l-22 -99h52l-5 -27h-53l-120 -541h-30l16 72q-55 -84 -136 -84q-63 0 -100.5 44.5t-37.5 121.5q0 73 25 150t76.5 134t115.5 57zM257 468q-53 0 -97 -54t-65 -125t-21 -134q0 -68 29 -104t81 -36
q40 0 79 29.5t63 72.5l55 251q-11 42 -45 71t-79 29z" />
    <glyph glyph-name="Emacron" unicode="&#x112;" horiz-adv-x="444" 
d="M335 0h-309l147 667h309l-6 -30h-277l-62 -279h270l-7 -30h-270l-66 -298h277zM497 750h-301l6 27h301z" />
    <glyph glyph-name="emacron" unicode="&#x113;" horiz-adv-x="459" 
d="M212 -12q-80 0 -125.5 48.5t-45.5 133.5q0 65 25 137.5t79 130t123 57.5q70 0 110.5 -45.5t40.5 -125.5q0 -44 -13 -92h-325q-6 -28 -6 -61q0 -71 35.5 -113.5t101.5 -42.5q65 0 121 61l19 -21q-64 -67 -140 -67zM376 259h5q7 35 7 61q0 66 -32.5 107t-91.5 41
q-64 0 -114.5 -64.5t-64.5 -144.5h291zM455 581h-301l6 27h301z" />
    <glyph glyph-name="Ebreve" unicode="&#x114;" horiz-adv-x="444" 
d="M335 0h-309l147 667h309l-6 -30h-277l-62 -279h270l-7 -30h-270l-66 -298h277zM504 801q-70 -73 -161 -73t-130 73l23 19q14 -30 44 -47.5t67 -17.5q80 0 137 65z" />
    <glyph glyph-name="ebreve" unicode="&#x115;" horiz-adv-x="459" 
d="M212 -12q-80 0 -125.5 48.5t-45.5 133.5q0 65 25 137.5t79 130t123 57.5q70 0 110.5 -45.5t40.5 -125.5q0 -44 -13 -92h-325q-6 -28 -6 -61q0 -71 35.5 -113.5t101.5 -42.5q65 0 121 61l19 -21q-64 -67 -140 -67zM376 259h5q7 35 7 61q0 66 -32.5 107t-91.5 41
q-64 0 -114.5 -64.5t-64.5 -144.5h291zM467 642q-70 -73 -161 -73t-130 73l23 19q14 -30 44 -47.5t67 -17.5q80 0 137 65z" />
    <glyph glyph-name="Edotaccent" unicode="&#x116;" horiz-adv-x="444" 
d="M335 0h-309l147 667h309l-6 -30h-277l-62 -279h270l-7 -30h-270l-66 -298h277zM387 768q0 -13 -9.5 -22.5t-22.5 -9.5q-11 0 -18.5 7.5t-7.5 18.5q0 13 9.5 22.5t22.5 9.5q11 0 18.5 -7.5t7.5 -18.5z" />
    <glyph glyph-name="edotaccent" unicode="&#x117;" horiz-adv-x="459" 
d="M212 -12q-80 0 -125.5 48.5t-45.5 133.5q0 65 25 137.5t79 130t123 57.5q70 0 110.5 -45.5t40.5 -125.5q0 -44 -13 -92h-325q-6 -28 -6 -61q0 -71 35.5 -113.5t101.5 -42.5q65 0 121 61l19 -21q-64 -67 -140 -67zM376 259h5q7 35 7 61q0 66 -32.5 107t-91.5 41
q-64 0 -114.5 -64.5t-64.5 -144.5h291zM344 623q0 -13 -9.5 -22.5t-22.5 -9.5q-11 0 -18.5 7.5t-7.5 18.5q0 13 9.5 22.5t22.5 9.5q11 0 18.5 -7.5t7.5 -18.5z" />
    <glyph glyph-name="Eogonek" unicode="&#x118;" horiz-adv-x="444" 
d="M323 -118l21 -14q-28 -54 -78 -54q-29 0 -46 15.5t-17 44.5q0 71 83 126h-260l147 667h309l-6 -30h-277l-62 -279h270l-7 -30h-270l-66 -298h277l-6 -30q-104 -52 -104 -122q0 -37 39 -37q35 0 53 41z" />
    <glyph glyph-name="eogonek" unicode="&#x119;" horiz-adv-x="459" 
d="M261 -118l21 -14q-28 -54 -78 -54q-29 0 -46 15.5t-17 44.5q0 63 66 114q-78 2 -122 49.5t-44 132.5q0 65 25 137.5t79 130t123 57.5q70 0 110.5 -45.5t40.5 -125.5q0 -44 -13 -92h-325q-6 -28 -6 -61q0 -71 35.5 -113.5t101.5 -42.5q65 0 121 61l19 -21q-38 -39 -79 -55
q-104 -52 -104 -122q0 -37 39 -37q35 0 53 41zM381 259q7 35 7 61q0 66 -32.5 107t-91.5 41q-64 0 -114.5 -64.5t-64.5 -144.5h296z" />
    <glyph glyph-name="Ecaron" unicode="&#x11a;" horiz-adv-x="444" 
d="M335 0h-309l147 667h309l-6 -30h-277l-62 -279h270l-7 -30h-270l-66 -298h277zM361 728h-36l-54 144h24l52 -118l102 118h27z" />
    <glyph glyph-name="ecaron" unicode="&#x11b;" horiz-adv-x="459" 
d="M212 -12q-80 0 -125.5 48.5t-45.5 133.5q0 65 25 137.5t79 130t123 57.5q70 0 110.5 -45.5t40.5 -125.5q0 -44 -13 -92h-325q-6 -28 -6 -61q0 -71 35.5 -113.5t101.5 -42.5q65 0 121 61l19 -21q-64 -67 -140 -67zM376 259h5q7 35 7 61q0 66 -32.5 107t-91.5 41
q-64 0 -114.5 -64.5t-64.5 -144.5h291zM321 556h-36l-54 144h24l52 -118l102 118h27z" />
    <glyph glyph-name="Gcircumflex" unicode="&#x11c;" horiz-adv-x="542" 
d="M258 -12q-91 0 -144 60.5t-53 167.5q0 108 37 213.5t107 177t155 71.5q125 0 177 -126l-29 -11q-42 107 -152 107q-70 0 -131 -67t-95 -166.5t-34 -200.5q0 -96 44 -146t121 -50q82 0 151 78l43 195h-188l6 30h220l-53 -240q-85 -93 -182 -93zM492 728h-23l-53 118
l-101 -118h-28l115 144h36z" />
    <glyph glyph-name="gcircumflex" unicode="&#x11d;" horiz-adv-x="459" 
d="M147 -196q-106 0 -156 66l25 24q39 -63 132 -63q114 0 146 146l22 95q-57 -84 -140 -84q-60 0 -98 42.5t-38 125.5q0 52 15 110t41.5 110t69 85.5t92.5 33.5q40 0 77 -26t54 -67l18 81h29l-112 -506q-39 -173 -177 -173zM182 15q38 0 77 28.5t65 69.5l57 255
q-12 41 -48 70.5t-78 29.5q-53 0 -96.5 -54t-64.5 -124t-21 -134q0 -70 29 -105.5t80 -35.5zM401 551h-23l-53 118l-101 -118h-28l115 144h36z" />
    <glyph glyph-name="Gbreve" unicode="&#x11e;" horiz-adv-x="542" 
d="M258 -12q-91 0 -144 60.5t-53 167.5q0 108 37 213.5t107 177t155 71.5q125 0 177 -126l-29 -11q-42 107 -152 107q-70 0 -131 -67t-95 -166.5t-34 -200.5q0 -96 44 -146t121 -50q82 0 151 78l43 195h-188l6 30h220l-53 -240q-85 -93 -182 -93zM570 801q-70 -73 -161 -73
t-130 73l23 19q14 -30 44 -47.5t67 -17.5q80 0 137 65z" />
    <glyph glyph-name="gbreve" unicode="&#x11f;" horiz-adv-x="459" 
d="M147 -196q-106 0 -156 66l25 24q39 -63 132 -63q114 0 146 146l22 95q-57 -84 -140 -84q-60 0 -98 42.5t-38 125.5q0 52 15 110t41.5 110t69 85.5t92.5 33.5q40 0 77 -26t54 -67l18 81h29l-112 -506q-39 -173 -177 -173zM182 15q38 0 77 28.5t65 69.5l57 255
q-12 41 -48 70.5t-78 29.5q-53 0 -96.5 -54t-64.5 -124t-21 -134q0 -70 29 -105.5t80 -35.5zM463 642q-70 -73 -161 -73t-130 73l23 19q14 -30 44 -47.5t67 -17.5q80 0 137 65z" />
    <glyph glyph-name="Gdotaccent" unicode="&#x120;" horiz-adv-x="542" 
d="M258 -12q-91 0 -144 60.5t-53 167.5q0 108 37 213.5t107 177t155 71.5q125 0 177 -126l-29 -11q-42 107 -152 107q-70 0 -131 -67t-95 -166.5t-34 -200.5q0 -96 44 -146t121 -50q82 0 151 78l43 195h-188l6 30h220l-53 -240q-85 -93 -182 -93zM444 768q0 -13 -9.5 -22.5
t-22.5 -9.5q-11 0 -18.5 7.5t-7.5 18.5q0 13 9.5 22.5t22.5 9.5q11 0 18.5 -7.5t7.5 -18.5z" />
    <glyph glyph-name="gdotaccent" unicode="&#x121;" horiz-adv-x="459" 
d="M147 -196q-106 0 -156 66l25 24q39 -63 132 -63q114 0 146 146l22 95q-57 -84 -140 -84q-60 0 -98 42.5t-38 125.5q0 52 15 110t41.5 110t69 85.5t92.5 33.5q40 0 77 -26t54 -67l18 81h29l-112 -506q-39 -173 -177 -173zM182 15q38 0 77 28.5t65 69.5l57 255
q-12 41 -48 70.5t-78 29.5q-53 0 -96.5 -54t-64.5 -124t-21 -134q0 -70 29 -105.5t80 -35.5zM338 623q0 -13 -9.5 -22.5t-22.5 -9.5q-11 0 -18.5 7.5t-7.5 18.5q0 13 9.5 22.5t22.5 9.5q11 0 18.5 -7.5t7.5 -18.5z" />
    <glyph glyph-name="Gcommaaccent" unicode="&#x122;" horiz-adv-x="542" 
d="M258 -12q-91 0 -144 60.5t-53 167.5q0 108 37 213.5t107 177t155 71.5q125 0 177 -126l-29 -11q-42 107 -152 107q-70 0 -131 -67t-95 -166.5t-34 -200.5q0 -96 44 -146t121 -50q82 0 151 78l43 195h-188l6 30h220l-53 -240q-85 -93 -182 -93zM254 -122q0 -37 -27 -74
t-63 -56l-18 20q28 15 48 38t25 46h-6q-10 0 -18.5 8.5t-8.5 19.5q0 15 11 25.5t25 10.5q32 0 32 -38z" />
    <glyph glyph-name="gcommaaccent" unicode="&#x123;" horiz-adv-x="459" 
d="M267 602q0 36 27 73.5t62 56.5l18 -20q-27 -15 -47 -38t-25 -46h6q10 0 18 -8.5t8 -19.5q0 -15 -10.5 -25.5t-24.5 -10.5q-32 0 -32 38zM147 -196q-106 0 -156 66l25 24q39 -63 132 -63q114 0 146 146l22 95q-57 -84 -140 -84q-60 0 -98 42.5t-38 125.5q0 52 15 110
t41.5 110t69 85.5t92.5 33.5q40 0 77 -26t54 -67l18 81h29l-112 -506q-39 -173 -177 -173zM182 15q38 0 77 28.5t65 69.5l57 255q-12 41 -48 70.5t-78 29.5q-53 0 -96.5 -54t-64.5 -124t-21 -134q0 -70 29 -105.5t80 -35.5z" />
    <glyph glyph-name="Hcircumflex" unicode="&#x124;" horiz-adv-x="545" 
d="M411 0h-32l72 328h-321l-72 -328h-32l147 667h32l-68 -309h321l68 309h32zM481 728h-23l-53 118l-101 -118h-28l115 144h36z" />
    <glyph glyph-name="hcircumflex" unicode="&#x125;" horiz-adv-x="435" 
d="M306 0h-30l81 367q5 20 5 33q0 68 -80 68q-38 0 -77.5 -27.5t-70.5 -67.5l-82 -373h-30l147 667h30l-56 -256q71 84 145 84q48 0 76 -23.5t28 -67.5q0 -18 -6 -38zM302 728h-23l-53 118l-101 -118h-28l115 144h36z" />
    <glyph glyph-name="Hbar" unicode="&#x126;" horiz-adv-x="582" 
d="M430 0h-32l72 328h-321l-72 -328h-32l110 501h-79l6 27h79l31 139h32l-31 -139h321l31 139h32l-31 -139h78l-6 -27h-78zM156 358h321l31 143h-321z" />
    <glyph glyph-name="hbar" unicode="&#x127;" horiz-adv-x="444" 
d="M315 0h-30l81 367q5 20 5 33q0 68 -80 68q-38 0 -77.5 -27.5t-70.5 -67.5l-82 -373h-30l119 541h-66l6 27h66l22 99h30l-22 -99h142l-6 -27h-142l-28 -130q71 84 145 84q48 0 76 -23.5t28 -67.5q0 -18 -6 -38z" />
    <glyph glyph-name="Itilde" unicode="&#x128;" horiz-adv-x="192" 
d="M58 0h-32l147 667h32zM259 726q-24 0 -36 17.5t-14.5 39t-11.5 39t-26 17.5q-43 0 -67 -107h-25q30 134 99 134q23 0 35 -17.5t14.5 -39t11.5 -39t26 -17.5q44 0 68 107h25q-28 -134 -99 -134z" />
    <glyph glyph-name="itilde" unicode="&#x129;" horiz-adv-x="181" 
d="M52 0h-30l107 483h30zM215 544q-24 0 -36 17.5t-14.5 39t-11.5 39t-26 17.5q-43 0 -67 -107h-25q30 134 99 134q23 0 35 -17.5t14.5 -39t11.5 -39t26 -17.5q44 0 68 107h25q-28 -134 -99 -134z" />
    <glyph glyph-name="Imacron" unicode="&#x12a;" horiz-adv-x="192" 
d="M58 0h-32l147 667h32zM358 750h-301l6 27h301z" />
    <glyph glyph-name="imacron" unicode="&#x12b;" horiz-adv-x="181" 
d="M52 0h-30l107 483h30zM316 581h-301l6 27h301z" />
    <glyph glyph-name="Ibreve" unicode="&#x12c;" horiz-adv-x="192" 
d="M58 0h-32l147 667h32zM365 801q-70 -73 -161 -73t-130 73l23 19q14 -30 44 -47.5t67 -17.5q80 0 137 65z" />
    <glyph glyph-name="ibreve" unicode="&#x12d;" horiz-adv-x="181" 
d="M52 0h-30l107 483h30zM326 642q-70 -73 -161 -73t-130 73l23 19q14 -30 44 -47.5t67 -17.5q80 0 137 65z" />
    <glyph glyph-name="Iogonek" unicode="&#x12e;" horiz-adv-x="192" 
d="M46 -118l21 -14q-28 -54 -78 -54q-29 0 -46 15.5t-17 44.5q0 80 102 138l145 655h32l-147 -667q-104 -52 -104 -122q0 -37 39 -37q35 0 53 41z" />
    <glyph glyph-name="iogonek" unicode="&#x12f;" horiz-adv-x="181" 
d="M40 -118l21 -14q-28 -54 -78 -54q-29 0 -46 15.5t-17 44.5q0 80 105 139l104 470h30l-107 -483q-104 -52 -104 -122q0 -37 39 -37q35 0 53 41zM165 566q-11 0 -19 7.5t-8 18.5q0 14 10.5 23t22.5 9q11 0 19 -7.5t8 -18.5q0 -14 -10.5 -23t-22.5 -9z" />
    <glyph glyph-name="Idotaccent" unicode="&#x130;" horiz-adv-x="192" 
d="M58 0h-32l147 667h32zM240 768q0 -13 -9.5 -22.5t-22.5 -9.5q-11 0 -18.5 7.5t-7.5 18.5q0 13 9.5 22.5t22.5 9.5q11 0 18.5 -7.5t7.5 -18.5z" />
    <glyph glyph-name="dotlessi" unicode="&#x131;" horiz-adv-x="181" 
d="M52 0h-30l107 483h30z" />
    <glyph glyph-name="IJ" unicode="&#x132;" horiz-adv-x="574" 
d="M58 0h-32l147 667h32zM302 -12q-97 0 -136 75l27 20q33 -65 109 -65q109 0 139 135l114 514h32l-114 -514q-37 -165 -171 -165z" />
    <glyph glyph-name="ij" unicode="&#x133;" horiz-adv-x="362" 
d="M165 566q-11 0 -19 7.5t-8 18.5q0 14 10.5 23t22.5 9q11 0 19 -7.5t8 -18.5q0 -14 -10.5 -23t-22.5 -9zM52 0h-30l107 483h30zM111 -196q-56 0 -77 41l26 17q16 -31 50 -31q55 0 73 83l127 569h30l-127 -569q-13 -60 -37.5 -85t-64.5 -25zM346 566q-11 0 -19 7.5t-8 18.5
q0 14 10.5 23t22.5 9q11 0 19 -7.5t8 -18.5q0 -14 -10.5 -23t-22.5 -9z" />
    <glyph glyph-name="Jcircumflex" unicode="&#x134;" horiz-adv-x="382" 
d="M110 -12q-97 0 -136 75l27 20q33 -65 109 -65q109 0 139 135l114 514h32l-114 -514q-37 -165 -171 -165zM495 728h-23l-53 118l-101 -118h-28l115 144h36z" />
    <glyph glyph-name="jcircumflex" unicode="&#x135;" horiz-adv-x="181" 
d="M-70 -196q-56 0 -77 41l26 17q15 -31 50 -31q55 0 73 83l127 569h30l-127 -569q-13 -60 -37.5 -85t-64.5 -25zM263 556h-23l-53 118l-101 -118h-28l115 144h36z" />
    <glyph glyph-name="Kcommaaccent" unicode="&#x136;" horiz-adv-x="472" 
d="M393 0h-37l-161 326l-85 -90l-52 -236h-32l147 667h32l-83 -376l353 376h44l-302 -319zM196 -122q0 -37 -27 -74t-63 -56l-18 20q28 15 48 38t25 46h-6q-10 0 -18.5 8.5t-8.5 19.5q0 15 11 25.5t25 10.5q32 0 32 -38z" />
    <glyph glyph-name="kcommaaccent" unicode="&#x137;" horiz-adv-x="411" 
d="M332 0h-33l-109 245l-107 -103l-31 -142h-30l147 667h30l-106 -480l310 296h40l-231 -218zM165 -122q0 -37 -27 -74t-63 -56l-18 20q28 15 48 38t25 46h-6q-10 0 -18.5 8.5t-8.5 19.5q0 15 11 25.5t25 10.5q32 0 32 -38z" />
    <glyph glyph-name="kgreenlandic" unicode="&#x138;" horiz-adv-x="411" 
d="M332 0h-33l-109 245l-107 -103l-31 -142h-30l107 483h30l-66 -296l310 296h40l-231 -218z" />
    <glyph glyph-name="Lacute" unicode="&#x139;" horiz-adv-x="391" 
d="M307 0h-289l147 667h32l-141 -637h257zM441 872l-167 -144h-29l151 144h45z" />
    <glyph glyph-name="lacute" unicode="&#x13a;" horiz-adv-x="181" 
d="M52 0h-30l147 667h30zM346 872l-167 -144h-29l151 144h45z" />
    <glyph glyph-name="Lcommaaccent" unicode="&#x13b;" horiz-adv-x="391" 
d="M307 0h-289l147 667h32l-141 -637h257zM155 -122q0 -37 -27 -74t-63 -56l-18 20q28 15 48 38t25 46h-6q-10 0 -18.5 8.5t-8.5 19.5q0 15 11 25.5t25 10.5q32 0 32 -38z" />
    <glyph glyph-name="lcommaaccent" unicode="&#x13c;" horiz-adv-x="181" 
d="M52 0h-30l147 667h30zM50 -122q0 -37 -27 -74t-63 -56l-18 20q28 15 48 38t25 46h-6q-10 0 -18.5 8.5t-8.5 19.5q0 15 11 25.5t25 10.5q32 0 32 -38z" />
    <glyph glyph-name="Lcaron" unicode="&#x13d;" horiz-adv-x="391" 
d="M307 0h-289l147 667h32l-141 -637h257zM343 642q0 -37 -27 -74t-63 -56l-18 20q28 15 48 38t25 46h-6q-10 0 -18.5 8.5t-8.5 19.5q0 15 11 25.5t25 10.5q32 0 32 -38z" />
    <glyph glyph-name="lcaron" unicode="&#x13e;" horiz-adv-x="226" 
d="M52 0h-30l147 667h30zM331 641q0 -37 -27 -74t-63 -56l-18 20q28 15 48 38t25 46h-6q-10 0 -18.5 8.5t-8.5 19.5q0 15 11 25.5t25 10.5q32 0 32 -38z" />
    <glyph glyph-name="Ldot" unicode="&#x13f;" horiz-adv-x="391" 
d="M307 0h-289l147 667h32l-141 -637h257zM303 309q-13 0 -21.5 8.5t-8.5 21.5q0 15 10.5 25t25.5 10q13 0 21.5 -8.5t8.5 -21.5q0 -15 -10.5 -25t-25.5 -10z" />
    <glyph glyph-name="ldot" unicode="&#x140;" horiz-adv-x="234" 
d="M52 0h-30l147 667h30zM205 212q-13 0 -21.5 8.5t-8.5 21.5q0 15 10.5 25t25.5 10q13 0 21.5 -8.5t8.5 -21.5q0 -15 -10.5 -25t-25.5 -10z" />
    <glyph glyph-name="Lslash" unicode="&#x141;" horiz-adv-x="419" 
d="M22 259l8 34l91 47l72 327h32l-69 -309l101 52l-8 -34l-100 -52l-65 -294h257l-6 -30h-289l67 306z" />
    <glyph glyph-name="lslash" unicode="&#x142;" horiz-adv-x="237" 
d="M24 267l7 32l95 48l71 320h30l-67 -302l95 48l-7 -32l-95 -48l-73 -333h-30l69 315z" />
    <glyph glyph-name="Nacute" unicode="&#x143;" horiz-adv-x="543" 
d="M409 0h-32l-186 599l-133 -599h-32l147 667h32l187 -592l132 592h32zM526 872l-167 -144h-29l151 144h45z" />
    <glyph glyph-name="nacute" unicode="&#x144;" horiz-adv-x="435" 
d="M306 0h-30l81 366q5 25 5 34q0 68 -80 68q-38 0 -77.5 -27.5t-70.5 -67.5l-82 -373h-30l107 483h30l-16 -72q71 84 145 84q48 0 76 -23t28 -68q0 -20 -6 -38zM434 700l-167 -144h-29l151 144h45z" />
    <glyph glyph-name="Ncommaaccent" unicode="&#x145;" horiz-adv-x="543" 
d="M409 0h-32l-186 599l-133 -599h-32l147 667h32l187 -592l132 592h32zM231 -122q0 -37 -27 -74t-63 -56l-18 20q28 15 48 38t25 46h-6q-10 0 -18.5 8.5t-8.5 19.5q0 15 11 25.5t25 10.5q32 0 32 -38z" />
    <glyph glyph-name="ncommaaccent" unicode="&#x146;" horiz-adv-x="435" 
d="M306 0h-30l81 366q5 25 5 34q0 68 -80 68q-38 0 -77.5 -27.5t-70.5 -67.5l-82 -373h-30l107 483h30l-16 -72q71 84 145 84q48 0 76 -23t28 -68q0 -20 -6 -38zM178 -122q0 -37 -27 -74t-63 -56l-18 20q28 15 48 38t25 46h-6q-10 0 -18.5 8.5t-8.5 19.5q0 15 11 25.5
t25 10.5q32 0 32 -38z" />
    <glyph glyph-name="Ncaron" unicode="&#x147;" horiz-adv-x="543" 
d="M409 0h-32l-186 599l-133 -599h-32l147 667h32l187 -592l132 592h32zM398 728h-36l-54 144h24l52 -118l102 118h27z" />
    <glyph glyph-name="ncaron" unicode="&#x148;" horiz-adv-x="435" 
d="M306 0h-30l81 366q5 25 5 34q0 68 -80 68q-38 0 -77.5 -27.5t-70.5 -67.5l-82 -373h-30l107 483h30l-16 -72q71 84 145 84q48 0 76 -23t28 -68q0 -20 -6 -38zM306 556h-36l-54 144h24l52 -118l102 118h27z" />
    <glyph glyph-name="napostrophe" unicode="&#x149;" horiz-adv-x="435" 
d="M306 0h-30l81 366q5 25 5 34q0 68 -80 68q-38 0 -77.5 -27.5t-70.5 -67.5l-82 -373h-30l107 483h30l-16 -72q71 84 145 84q48 0 76 -23t28 -68q0 -20 -6 -38zM232 687q0 -37 -27 -74t-63 -56l-18 20q28 15 48 38t25 46h-6q-10 0 -18.5 8.5t-8.5 19.5q0 15 11 25.5
t25 10.5q32 0 32 -38z" />
    <glyph glyph-name="Eng" unicode="&#x14a;" horiz-adv-x="543" 
d="M231 -196q-97 0 -136 74l26 20q33 -64 110 -64q107 0 138 132l8 34l-186 599l-133 -599h-32l147 667h32l187 -592l132 592h32l-155 -701q-39 -162 -170 -162z" />
    <glyph glyph-name="eng" unicode="&#x14b;" horiz-adv-x="435" 
d="M185 -196q-56 0 -78 41l27 17q14 -31 50 -31q27 0 44.5 19t27.5 64l101 452q5 30 5 35q0 67 -80 67q-38 0 -77.5 -27.5t-70.5 -67.5l-82 -373h-30l107 483h30l-17 -74q73 86 146 86q47 0 75.5 -23t28.5 -69q0 -13 -6 -37l-100 -452q-13 -59 -37.5 -84.5t-63.5 -25.5z" />
    <glyph glyph-name="Omacron" unicode="&#x14c;" horiz-adv-x="580" 
d="M258 -12q-89 0 -143 62t-54 166q0 76 21.5 157t59 149t95.5 112t123 44q89 0 143.5 -62.5t54.5 -165.5q0 -104 -36 -208.5t-107 -179t-157 -74.5zM261 18q71 0 132.5 66.5t95.5 165.5t34 201q0 93 -46 145t-121 52q-71 0 -132 -66.5t-94.5 -166t-33.5 -201.5
q0 -93 45.5 -144.5t119.5 -51.5zM552 750h-301l6 27h301z" />
    <glyph glyph-name="omacron" unicode="&#x14d;" horiz-adv-x="461" 
d="M193 -12q-70 0 -111 45t-41 130q0 75 26.5 150t80 128.5t119.5 53.5q70 0 111 -45t41 -130q0 -75 -26.5 -150t-80 -128.5t-119.5 -53.5zM194 15q54 0 100 51t69 120.5t23 133.5q0 72 -31.5 110t-88.5 38q-54 0 -100 -51t-69 -120.5t-23 -133.5q0 -72 31.5 -110t88.5 -38z
M456 581h-301l6 27h301z" />
    <glyph glyph-name="Obreve" unicode="&#x14e;" horiz-adv-x="580" 
d="M258 -12q-89 0 -143 62t-54 166q0 76 21.5 157t59 149t95.5 112t123 44q89 0 143.5 -62.5t54.5 -165.5q0 -104 -36 -208.5t-107 -179t-157 -74.5zM261 18q71 0 132.5 66.5t95.5 165.5t34 201q0 93 -46 145t-121 52q-71 0 -132 -66.5t-94.5 -166t-33.5 -201.5
q0 -93 45.5 -144.5t119.5 -51.5zM557 801q-70 -73 -161 -73t-130 73l23 19q14 -30 44 -47.5t67 -17.5q80 0 137 65z" />
    <glyph glyph-name="obreve" unicode="&#x14f;" horiz-adv-x="461" 
d="M193 -12q-70 0 -111 45t-41 130q0 75 26.5 150t80 128.5t119.5 53.5q70 0 111 -45t41 -130q0 -75 -26.5 -150t-80 -128.5t-119.5 -53.5zM194 15q54 0 100 51t69 120.5t23 133.5q0 72 -31.5 110t-88.5 38q-54 0 -100 -51t-69 -120.5t-23 -133.5q0 -72 31.5 -110t88.5 -38z
M465 642q-70 -73 -161 -73t-130 73l23 19q14 -30 44 -47.5t67 -17.5q80 0 137 65z" />
    <glyph glyph-name="Ohungarumlaut" unicode="&#x150;" horiz-adv-x="580" 
d="M258 -12q-89 0 -143 62t-54 166q0 76 21.5 157t59 149t95.5 112t123 44q89 0 143.5 -62.5t54.5 -165.5q0 -104 -36 -208.5t-107 -179t-157 -74.5zM261 18q71 0 132.5 66.5t95.5 165.5t34 201q0 93 -46 145t-121 52q-71 0 -132 -66.5t-94.5 -166t-33.5 -201.5
q0 -93 45.5 -144.5t119.5 -51.5zM462 872l-127 -144h-25l111 144h41zM583 872l-127 -144h-25l111 144h41z" />
    <glyph glyph-name="ohungarumlaut" unicode="&#x151;" horiz-adv-x="461" 
d="M193 -12q-70 0 -111 45t-41 130q0 75 26.5 150t80 128.5t119.5 53.5q70 0 111 -45t41 -130q0 -75 -26.5 -150t-80 -128.5t-119.5 -53.5zM194 15q54 0 100 51t69 120.5t23 133.5q0 72 -31.5 110t-88.5 38q-54 0 -100 -51t-69 -120.5t-23 -133.5q0 -72 31.5 -110t88.5 -38z
M365 700l-127 -144h-25l111 144h41zM486 700l-127 -144h-25l111 144h41z" />
    <glyph glyph-name="OE" unicode="&#x152;" horiz-adv-x="843" 
d="M730 0h-309l22 103q-74 -115 -195 -115q-87 0 -137 63t-50 165q0 71 22.5 150.5t61 149.5t98.5 115.5t127 45.5q137 0 170 -139l28 129h309l-6 -30h-277l-62 -279h270l-7 -30h-270l-66 -298h277zM460 177l63 287q-7 89 -48 136t-112 47q-73 0 -136.5 -71t-97 -170
t-33.5 -192q0 -88 42 -142t116 -54q60 0 115 42.5t91 116.5z" />
    <glyph glyph-name="oe" unicode="&#x153;" horiz-adv-x="780" 
d="M728 232h-322q-6 -27 -6 -61q0 -73 35.5 -114.5t99.5 -41.5q66 0 119 61l19 -21q-62 -67 -137 -67t-118 44t-45 103q-68 -147 -182 -147q-69 0 -109.5 45.5t-40.5 129.5q0 78 27 153.5t79.5 127t117.5 51.5q69 0 106 -43.5t38 -100.5q65 144 182 144q70 0 109.5 -45.5
t39.5 -125.5q0 -48 -12 -92zM410 259h292q7 26 7 61q0 68 -31.5 108t-89.5 40q-68 0 -116.5 -66t-61.5 -143zM382 320q0 75 -32.5 111.5t-85.5 36.5t-98 -50.5t-68.5 -120t-23.5 -134.5q0 -70 30.5 -109t87.5 -39q53 0 98.5 51t68.5 120.5t23 133.5z" />
    <glyph glyph-name="Racute" unicode="&#x154;" horiz-adv-x="473" 
d="M365 0h-35l-88 289h-120l-64 -289h-32l147 667h150q59 0 101 -41t42 -106q0 -93 -53 -157.5t-139 -71.5zM259 319h1q80 0 125 60t45 141q0 54 -31 85.5t-76 31.5h-124l-71 -318h131zM490 872l-167 -144h-29l151 144h45z" />
    <glyph glyph-name="racute" unicode="&#x155;" horiz-adv-x="266" 
d="M52 0h-30l107 483h30l-18 -77q33 45 69 65.5t91 20.5l-8 -35q-5 2 -25 2q-39 0 -75.5 -27.5t-60.5 -69.5zM377 700l-167 -144h-29l151 144h45z" />
    <glyph glyph-name="Rcommaaccent" unicode="&#x156;" horiz-adv-x="473" 
d="M365 0h-35l-88 289h-120l-64 -289h-32l147 667h150q59 0 101 -41t42 -106q0 -93 -53 -157.5t-139 -71.5zM259 319h1q80 0 125 60t45 141q0 54 -31 85.5t-76 31.5h-124l-71 -318h131zM195 -122q0 -37 -27 -74t-63 -56l-18 20q28 15 48 38t25 46h-6q-10 0 -18.5 8.5
t-8.5 19.5q0 15 11 25.5t25 10.5q32 0 32 -38z" />
    <glyph glyph-name="rcommaaccent" unicode="&#x157;" horiz-adv-x="266" 
d="M52 0h-30l107 483h30l-18 -77q33 45 69 65.5t91 20.5l-8 -35q-5 2 -25 2q-39 0 -75.5 -27.5t-60.5 -69.5zM93 -122q0 -37 -27 -74t-63 -56l-18 20q28 15 48 38t25 46h-6q-10 0 -18.5 8.5t-8.5 19.5q0 15 11 25.5t25 10.5q32 0 32 -38z" />
    <glyph glyph-name="Rcaron" unicode="&#x158;" horiz-adv-x="473" 
d="M365 0h-35l-88 289h-120l-64 -289h-32l147 667h150q59 0 101 -41t42 -106q0 -93 -53 -157.5t-139 -71.5zM259 319h1q80 0 125 60t45 141q0 54 -31 85.5t-76 31.5h-124l-71 -318h131zM362 728h-36l-54 144h24l52 -118l102 118h27z" />
    <glyph glyph-name="rcaron" unicode="&#x159;" horiz-adv-x="266" 
d="M52 0h-30l107 483h30l-18 -77q33 45 69 65.5t91 20.5l-8 -35q-5 2 -25 2q-39 0 -75.5 -27.5t-60.5 -69.5zM246 556h-36l-54 144h24l52 -118l102 118h27z" />
    <glyph glyph-name="Sacute" unicode="&#x15a;" horiz-adv-x="447" 
d="M188 -12q-57 0 -106.5 25.5t-71.5 63.5l28 22q24 -37 63.5 -59t87.5 -22q72 0 115.5 48t43.5 119q0 40 -24 72.5t-58 57t-68.5 49.5t-58.5 60.5t-24 78.5q0 73 54.5 124t127.5 51q52 0 94.5 -20t63.5 -55l-26 -22q-43 67 -132 67q-62 0 -105 -43.5t-43 -101.5
q0 -35 24 -65.5t58.5 -55.5t68.5 -51t58 -63.5t24 -82.5q0 -81 -53.5 -139t-140.5 -58zM476 872l-167 -144h-29l151 144h45z" />
    <glyph glyph-name="sacute" unicode="&#x15b;" horiz-adv-x="366" 
d="M144 -12q-102 0 -143 74l26 19q36 -66 118 -66q52 0 86 33.5t34 78.5q0 30 -19.5 54.5t-47.5 42.5t-56.5 36t-48 44.5t-19.5 58.5q0 56 39.5 94t105.5 38q44 0 78.5 -18.5t50.5 -47.5l-25 -19q-12 26 -42.5 42t-65.5 16q-49 0 -79.5 -27.5t-30.5 -69.5q0 -28 19.5 -51.5
t48 -41t56.5 -36.5t47.5 -46t19.5 -61q0 -61 -42 -104t-110 -43zM400 700l-167 -144h-29l151 144h45z" />
    <glyph glyph-name="Scircumflex" unicode="&#x15c;" horiz-adv-x="440" 
d="M415 728h-23l-53 118l-101 -118h-28l115 144h36zM188 -12q-57 0 -106.5 25.5t-71.5 63.5l28 22q24 -37 63.5 -59t87.5 -22q72 0 115.5 48t43.5 119q0 40 -24 72.5t-58 57t-68.5 49.5t-58.5 60.5t-24 78.5q0 73 54.5 124t127.5 51q52 0 94.5 -20t63.5 -55l-26 -22
q-43 67 -132 67q-62 0 -105 -43.5t-43 -101.5q0 -35 24 -65.5t58.5 -55.5t68.5 -51t58 -63.5t24 -82.5q0 -81 -53.5 -139t-140.5 -58z" />
    <glyph glyph-name="scircumflex" unicode="&#x15d;" horiz-adv-x="366" 
d="M144 -12q-102 0 -143 74l26 19q36 -66 118 -66q52 0 86 33.5t34 78.5q0 30 -19.5 54.5t-47.5 42.5t-56.5 36t-48 44.5t-19.5 58.5q0 56 39.5 94t105.5 38q44 0 78.5 -18.5t50.5 -47.5l-25 -19q-12 26 -42.5 42t-65.5 16q-49 0 -79.5 -27.5t-30.5 -69.5q0 -28 19.5 -51.5
t48 -41t56.5 -36.5t47.5 -46t19.5 -61q0 -61 -42 -104t-110 -43zM355 556h-23l-53 118l-101 -118h-28l115 144h36z" />
    <glyph glyph-name="Scedilla" unicode="&#x15e;" horiz-adv-x="447" 
d="M127 -187q-55 0 -85 35l19 25q26 -33 69 -33q30 0 47.5 16.5t17.5 40.5q0 33 -36 33q-20 0 -36 -17l-18 13l39 66q-96 18 -134 85l28 22q24 -37 63.5 -59t87.5 -22q72 0 115.5 48t43.5 119q0 40 -24 72.5t-58 57t-68.5 49.5t-58.5 60.5t-24 78.5q0 73 54.5 124t127.5 51
q52 0 94.5 -20t63.5 -55l-26 -22q-43 67 -132 67q-62 0 -105 -43.5t-43 -101.5q0 -35 24 -65.5t58.5 -55.5t68.5 -51t58 -63.5t24 -82.5q0 -81 -53.5 -139t-140.5 -58q-11 0 -17 1l-28 -48q12 11 30 11q23 0 37 -14.5t14 -39.5q0 -36 -27.5 -60.5t-69.5 -24.5z" />
    <glyph glyph-name="scedilla" unicode="&#x15f;" horiz-adv-x="366" 
d="M90 -187q-55 0 -85 35l19 25q26 -33 69 -33q30 0 47.5 16.5t17.5 40.5q0 33 -36 33q-20 0 -36 -17l-18 13l38 65q-73 12 -105 71l26 19q36 -66 118 -66q52 0 86 33.5t34 78.5q0 30 -19.5 54.5t-47.5 42.5t-56.5 36t-48 44.5t-19.5 58.5q0 56 39.5 94t105.5 38
q44 0 78.5 -18.5t50.5 -47.5l-25 -19q-12 26 -42.5 42t-65.5 16q-49 0 -79.5 -27.5t-30.5 -69.5q0 -28 19.5 -51.5t48 -41t56.5 -36.5t47.5 -46t19.5 -61q0 -61 -42 -104t-110 -43h-10l-28 -47q12 11 30 11q23 0 37 -14.5t14 -39.5q0 -36 -27.5 -60.5t-69.5 -24.5z" />
    <glyph glyph-name="Scaron" unicode="&#x160;" horiz-adv-x="440" 
d="M351 728h-36l-54 144h24l52 -118l102 118h27zM188 -12q-57 0 -106.5 25.5t-71.5 63.5l28 22q24 -37 63.5 -59t87.5 -22q72 0 115.5 48t43.5 119q0 40 -24 72.5t-58 57t-68.5 49.5t-58.5 60.5t-24 78.5q0 73 54.5 124t127.5 51q52 0 94.5 -20t63.5 -55l-26 -22
q-43 67 -132 67q-62 0 -105 -43.5t-43 -101.5q0 -35 24 -65.5t58.5 -55.5t68.5 -51t58 -63.5t24 -82.5q0 -81 -53.5 -139t-140.5 -58z" />
    <glyph glyph-name="scaron" unicode="&#x161;" horiz-adv-x="366" 
d="M144 -12q-102 0 -143 74l26 19q36 -66 118 -66q52 0 86 33.5t34 78.5q0 30 -19.5 54.5t-47.5 42.5t-56.5 36t-48 44.5t-19.5 58.5q0 56 39.5 94t105.5 38q44 0 78.5 -18.5t50.5 -47.5l-25 -19q-12 26 -42.5 42t-65.5 16q-49 0 -79.5 -27.5t-30.5 -69.5q0 -28 19.5 -51.5
t48 -41t56.5 -36.5t47.5 -46t19.5 -61q0 -61 -42 -104t-110 -43zM272 556h-36l-54 144h24l52 -118l102 118h27z" />
    <glyph glyph-name="Tcommaaccent" unicode="&#x162;" horiz-adv-x="423" 
d="M173 0h-32l141 637h-167l6 30h367l-6 -30h-168zM171 -122q0 -37 -27 -74t-63 -56l-18 20q28 15 48 38t25 46h-6q-10 0 -18.5 8.5t-8.5 19.5q0 15 11 25.5t25 10.5q32 0 32 -38z" />
    <glyph glyph-name="Tcommaaccent" unicode="&#x21a;" horiz-adv-x="423" 
d="M173 0h-32l141 637h-167l6 30h367l-6 -30h-168zM171 -122q0 -37 -27 -74t-63 -56l-18 20q28 15 48 38t25 46h-6q-10 0 -18.5 8.5t-8.5 19.5q0 15 11 25.5t25 10.5q32 0 32 -38z" />
    <glyph glyph-name="tcommaaccent" unicode="&#x163;" horiz-adv-x="234" 
d="M114 -12q-69 0 -69 65q0 11 3 28l84 375h-66l6 27h66l29 132h30l-29 -132h84l-6 -27h-84l-84 -375q-3 -13 -3 -27q0 -39 41 -39q25 0 45 20l15 -22q-29 -25 -62 -25zM77 -122q0 -37 -27 -74t-63 -56l-18 20q28 15 48 38t25 46h-6q-10 0 -18.5 8.5t-8.5 19.5q0 15 11 25.5
t25 10.5q32 0 32 -38z" />
    <glyph glyph-name="tcommaaccent" unicode="&#x21b;" horiz-adv-x="234" 
d="M114 -12q-69 0 -69 65q0 11 3 28l84 375h-66l6 27h66l29 132h30l-29 -132h84l-6 -27h-84l-84 -375q-3 -13 -3 -27q0 -39 41 -39q25 0 45 20l15 -22q-29 -25 -62 -25zM77 -122q0 -37 -27 -74t-63 -56l-18 20q28 15 48 38t25 46h-6q-10 0 -18.5 8.5t-8.5 19.5q0 15 11 25.5
t25 10.5q32 0 32 -38z" />
    <glyph glyph-name="Tcaron" unicode="&#x164;" horiz-adv-x="423" 
d="M173 0h-32l141 637h-167l6 30h367l-6 -30h-168zM338 728h-36l-54 144h24l52 -118l102 118h27z" />
    <glyph glyph-name="tcaron" unicode="&#x165;" horiz-adv-x="234" 
d="M114 -12q-69 0 -69 65q0 11 3 28l84 375h-66l6 27h66l29 132h30l-29 -132h84l-6 -27h-84l-84 -375q-3 -13 -3 -27q0 -39 41 -39q25 0 45 20l15 -22q-29 -25 -62 -25zM346 687q0 -37 -27 -74t-63 -56l-18 20q28 15 48 38t25 46h-6q-10 0 -18.5 8.5t-8.5 19.5q0 15 11 25.5
t25 10.5q32 0 32 -38z" />
    <glyph glyph-name="Tbar" unicode="&#x166;" horiz-adv-x="423" 
d="M173 0h-32l71 321h-122l6 27h122l64 289h-167l6 30h367l-6 -30h-168l-64 -289h122l-6 -27h-122z" />
    <glyph glyph-name="tbar" unicode="&#x167;" horiz-adv-x="234" 
d="M114 -12q-69 0 -69 65q0 11 3 28l36 161h-66l6 27h66l42 187h-66l6 27h66l29 132h30l-29 -132h84l-6 -27h-84l-42 -187h55l-6 -27h-55l-36 -161q-3 -13 -3 -27q0 -39 41 -39q25 0 45 20l15 -22q-29 -25 -62 -25z" />
    <glyph glyph-name="Utilde" unicode="&#x168;" horiz-adv-x="534" 
d="M239 -12q-79 0 -126 44t-47 121q0 21 5 51l102 463h32l-102 -463q-5 -20 -5 -46q0 -65 38.5 -102.5t103.5 -37.5q72 0 112 45t61 141l102 463h32l-102 -463q-24 -110 -71.5 -163t-134.5 -53zM431 726q-24 0 -36 17.5t-14.5 39t-11.5 39t-26 17.5q-43 0 -67 -107h-25
q30 134 99 134q23 0 35 -17.5t14.5 -39t11.5 -39t26 -17.5q44 0 68 107h25q-28 -134 -99 -134z" />
    <glyph glyph-name="utilde" unicode="&#x169;" horiz-adv-x="435" 
d="M129 483h30l-81 -366q-5 -23 -5 -33q0 -69 79 -69q38 0 77.5 26.5t69.5 65.5l84 376h30l-107 -483h-30l16 72q-73 -84 -146 -84q-47 0 -75 23.5t-28 68.5q0 13 5 38zM342 554q-24 0 -36 17.5t-14.5 39t-11.5 39t-26 17.5q-43 0 -67 -107h-25q30 134 99 134q23 0 35 -17.5
t14.5 -39t11.5 -39t26 -17.5q44 0 68 107h25q-28 -134 -99 -134z" />
    <glyph glyph-name="Umacron" unicode="&#x16a;" horiz-adv-x="534" 
d="M239 -12q-79 0 -126 44t-47 121q0 21 5 51l102 463h32l-102 -463q-5 -20 -5 -46q0 -65 38.5 -102.5t103.5 -37.5q72 0 112 45t61 141l102 463h32l-102 -463q-24 -110 -71.5 -163t-134.5 -53zM529 750h-301l6 27h301z" />
    <glyph glyph-name="umacron" unicode="&#x16b;" horiz-adv-x="435" 
d="M129 483h30l-81 -366q-5 -23 -5 -33q0 -69 79 -69q38 0 77.5 26.5t69.5 65.5l84 376h30l-107 -483h-30l16 72q-73 -84 -146 -84q-47 0 -75 23.5t-28 68.5q0 13 5 38zM443 581h-301l6 27h301z" />
    <glyph glyph-name="Ubreve" unicode="&#x16c;" horiz-adv-x="534" 
d="M239 -12q-79 0 -126 44t-47 121q0 21 5 51l102 463h32l-102 -463q-5 -20 -5 -46q0 -65 38.5 -102.5t103.5 -37.5q72 0 112 45t61 141l102 463h32l-102 -463q-24 -110 -71.5 -163t-134.5 -53zM538 801q-70 -73 -161 -73t-130 73l23 19q14 -30 44 -47.5t67 -17.5
q80 0 137 65z" />
    <glyph glyph-name="ubreve" unicode="&#x16d;" horiz-adv-x="435" 
d="M129 483h30l-81 -366q-5 -23 -5 -33q0 -69 79 -69q38 0 77.5 26.5t69.5 65.5l84 376h30l-107 -483h-30l16 72q-73 -84 -146 -84q-47 0 -75 23.5t-28 68.5q0 13 5 38zM452 642q-70 -73 -161 -73t-130 73l23 19q14 -30 44 -47.5t67 -17.5q80 0 137 65z" />
    <glyph glyph-name="Uring" unicode="&#x16e;" horiz-adv-x="534" 
d="M239 -12q-79 0 -126 44t-47 121q0 21 5 51l102 463h32l-102 -463q-5 -20 -5 -46q0 -65 38.5 -102.5t103.5 -37.5q72 0 112 45t61 141l102 463h32l-102 -463q-24 -110 -71.5 -163t-134.5 -53zM376 692q-34 0 -55.5 22t-21.5 56q0 38 28.5 66t65.5 28q34 0 55.5 -22
t21.5 -56q0 -38 -28 -66t-66 -28zM376 716q29 0 49.5 20t20.5 48q0 24 -15 40t-38 16q-29 0 -49.5 -20.5t-20.5 -48.5q0 -23 15 -39t38 -16z" />
    <glyph glyph-name="uring" unicode="&#x16f;" horiz-adv-x="435" 
d="M129 483h30l-81 -366q-5 -23 -5 -33q0 -69 79 -69q38 0 77.5 26.5t69.5 65.5l84 376h30l-107 -483h-30l16 72q-73 -84 -146 -84q-47 0 -75 23.5t-28 68.5q0 13 5 38zM297 560q-34 0 -55.5 22t-21.5 56q0 38 28 66t66 28q34 0 55.5 -22t21.5 -56q0 -38 -28 -66t-66 -28z
M297 584q29 0 49.5 20t20.5 48q0 24 -15 40t-38 16q-29 0 -49.5 -20.5t-20.5 -48.5q0 -23 15 -39t38 -16z" />
    <glyph glyph-name="Uhungarumlaut" unicode="&#x170;" horiz-adv-x="534" 
d="M239 -12q-79 0 -126 44t-47 121q0 21 5 51l102 463h32l-102 -463q-5 -20 -5 -46q0 -65 38.5 -102.5t103.5 -37.5q72 0 112 45t61 141l102 463h32l-102 -463q-24 -110 -71.5 -163t-134.5 -53zM439 872l-127 -144h-25l111 144h41zM560 872l-127 -144h-25l111 144h41z" />
    <glyph glyph-name="uhungarumlaut" unicode="&#x171;" horiz-adv-x="435" 
d="M129 483h30l-81 -366q-5 -23 -5 -33q0 -69 79 -69q38 0 77.5 26.5t69.5 65.5l84 376h30l-107 -483h-30l16 72q-73 -84 -146 -84q-47 0 -75 23.5t-28 68.5q0 13 5 38zM352 700l-127 -144h-25l111 144h41zM473 700l-127 -144h-25l111 144h41z" />
    <glyph glyph-name="Uogonek" unicode="&#x172;" horiz-adv-x="534" 
d="M239 -12q-79 0 -126 44t-47 121q0 21 5 51l102 463h32l-102 -463q-5 -20 -5 -46q0 -65 38.5 -102.5t103.5 -37.5q72 0 112 45t61 141l102 463h32l-102 -463q-37 -169 -133 -204q-104 -52 -104 -122q0 -37 39 -37q35 0 53 41l21 -14q-28 -54 -78 -54q-29 0 -46 15.5
t-17 44.5q0 63 66 114h-7z" />
    <glyph glyph-name="uogonek" unicode="&#x173;" horiz-adv-x="435" 
d="M294 -118l21 -14q-28 -54 -78 -54q-29 0 -46 15.5t-17 44.5q0 80 105 139l13 59q-73 -84 -146 -84q-47 0 -75 23.5t-28 68.5q0 13 5 38l81 365h30l-81 -366q-5 -23 -5 -33q0 -69 79 -69q38 0 77.5 26.5t69.5 65.5l84 376h30l-107 -483q-104 -52 -104 -122q0 -37 39 -37
q35 0 53 41z" />
    <glyph glyph-name="Wcircumflex" unicode="&#x174;" horiz-adv-x="671" 
d="M448 0h-38l4 597l-260 -597h-38l2 667h34l-6 -611l265 611h34l-5 -611l264 611h36zM546 728h-23l-53 118l-101 -118h-28l115 144h36z" />
    <glyph glyph-name="wcircumflex" unicode="&#x175;" horiz-adv-x="594" 
d="M389 0h-27l-22 439l-216 -439h-27l-23 483h32l14 -436l214 436h30l20 -436l208 436h34zM469 556h-23l-53 118l-101 -118h-28l115 144h36z" />
    <glyph glyph-name="Ycircumflex" unicode="&#x176;" horiz-adv-x="466" 
d="M444 728h-23l-53 118l-101 -118h-28l115 144h36zM195 0h-32l64 289l-122 378h35l108 -342l259 342h41l-289 -378z" />
    <glyph glyph-name="ycircumflex" unicode="&#x177;" horiz-adv-x="375" 
d="M-56 -187l12 28q11 -8 35 -8q19 0 33.5 12.5t33.5 45.5l56 98l-47 494h32l41 -445l239 445h36l-331 -602q-42 -77 -100 -77q-24 0 -40 9zM360 556h-23l-53 118l-101 -118h-28l115 144h36z" />
    <glyph glyph-name="Ydieresis" unicode="&#x178;" horiz-adv-x="466" 
d="M461 767q0 -13 -9 -22t-22 -9q-10 0 -17.5 7t-7.5 18q0 13 9 22t22 9q10 0 17.5 -7t7.5 -18zM299 767q0 -13 -9 -22t-22 -9q-10 0 -17.5 7t-7.5 18q0 13 9 22t22 9q10 0 17.5 -7t7.5 -18zM195 0h-32l64 289l-122 378h35l108 -342l259 342h41l-289 -378z" />
    <glyph glyph-name="Zacute" unicode="&#x179;" horiz-adv-x="444" 
d="M345 0h-355l6 31l444 606h-308l6 30h347l-6 -30l-444 -607h316zM477 872l-167 -144h-29l151 144h45z" />
    <glyph glyph-name="zacute" unicode="&#x17a;" horiz-adv-x="371" 
d="M266 0h-270l6 27l326 429h-230l6 27h265l-6 -27l-326 -429h234zM402 700l-167 -144h-29l151 144h45z" />
    <glyph glyph-name="Zdotaccent" unicode="&#x17b;" horiz-adv-x="444" 
d="M345 0h-355l6 31l444 606h-308l6 30h347l-6 -30l-444 -607h316zM366 768q0 -13 -9.5 -22.5t-22.5 -9.5q-11 0 -18.5 7.5t-7.5 18.5q0 13 9.5 22.5t22.5 9.5q11 0 18.5 -7.5t7.5 -18.5z" />
    <glyph glyph-name="zdotaccent" unicode="&#x17c;" horiz-adv-x="371" 
d="M266 0h-270l6 27l326 429h-230l6 27h265l-6 -27l-326 -429h234zM297 623q0 -13 -9.5 -22.5t-22.5 -9.5q-11 0 -18.5 7.5t-7.5 18.5q0 13 9.5 22.5t22.5 9.5q11 0 18.5 -7.5t7.5 -18.5z" />
    <glyph glyph-name="Zcaron" unicode="&#x17d;" horiz-adv-x="444" 
d="M349 728h-36l-54 144h24l52 -118l102 118h27zM345 0h-355l6 31l444 606h-308l6 30h347l-6 -30l-444 -607h316z" />
    <glyph glyph-name="zcaron" unicode="&#x17e;" horiz-adv-x="371" 
d="M266 0h-270l6 27l326 429h-230l6 27h265l-6 -27l-326 -429h234zM269 556h-36l-54 144h24l52 -118l102 118h27z" />
    <glyph glyph-name="longs" unicode="&#x17f;" horiz-adv-x="224" 
d="M65 0h-30l101 456h-65l6 27h65l17 79q26 115 116 115q45 0 70 -31l-22 -22q-18 26 -51 26q-64 0 -83 -88z" />
    <glyph glyph-name="florin" unicode="&#x192;" horiz-adv-x="374" 
d="M13 -161h-32l95 428h-65v30h71l59 265q26 115 116 115q45 0 72 -31l-23 -20q-16 21 -49 21q-65 0 -84 -86l-58 -264h131v-30h-138z" />
    <glyph glyph-name="AEacute" unicode="&#x1fc;" horiz-adv-x="720" 
d="M607 0h-309l39 179h-209l-123 -179h-38l466 667h321l-6 -30h-277l-62 -279h270l-7 -30h-270l-66 -298h277zM344 209l91 412l-287 -412h196zM621 872l-167 -144h-29l151 144h45z" />
    <glyph glyph-name="aeacute" unicode="&#x1fd;" horiz-adv-x="756" 
d="M515 -12q-67 0 -107.5 37t-49.5 106l-29 -131h-30l16 72q-55 -84 -136 -84q-63 0 -100.5 44.5t-37.5 121.5q0 73 25 150t76.5 134t115.5 57q44 0 78.5 -24.5t52.5 -68.5l17 81h30l-25 -110q67 122 159 122q70 0 108 -45t38 -126q0 -44 -13 -92h-321q-6 -29 -6 -61
q0 -70 36 -113t102 -43q62 0 117 61l19 -21q-62 -67 -135 -67zM257 468q-53 0 -97 -54t-65 -125t-21 -134q0 -68 29 -104t81 -36q40 0 79 29.5t63 72.5l55 251q-11 42 -45 71t-79 29zM678 259q7 35 7 61q0 67 -29.5 107.5t-88.5 40.5q-65 0 -115.5 -64.5t-65.5 -144.5h292z
M573 700l-167 -144h-29l151 144h45z" />
    <glyph glyph-name="Oslashacute" unicode="&#x1fe;" horiz-adv-x="580" 
d="M546 872l-167 -144h-29l151 144h45zM258 -12q-82 0 -135 53l-29 -41h-34l44 63q-43 60 -43 153q0 76 21.5 157t59 149t95.5 112t123 44q81 0 135 -54l30 43h35l-46 -65q44 -61 44 -152q0 -104 -36 -208.5t-107 -179t-157 -74.5zM96 214q0 -73 29 -122l351 505
q-46 51 -120 51q-71 0 -132 -66.5t-94.5 -166t-33.5 -201.5zM261 18q71 0 132.5 66.5t95.5 165.5t34 201q0 70 -30 121l-351 -504q44 -50 119 -50z" />
    <glyph glyph-name="oslashacute" unicode="&#x1ff;" horiz-adv-x="461" 
d="M448 700l-167 -144h-29l151 144h45zM49 0h-33l48 59q-23 41 -23 104q0 75 26.5 150t80 128.5t119.5 53.5q70 0 111 -46l28 34h33l-45 -56q25 -42 25 -107q0 -75 -26.5 -150t-80 -128.5t-119.5 -53.5q-74 0 -114 49zM194 15q54 0 100 51t69 120.5t23 133.5q0 46 -14 80
l-273 -338q30 -47 95 -47zM74 163q0 -45 12 -76l273 337q-32 44 -93 44q-54 0 -100 -51t-69 -120.5t-23 -133.5z" />
    <glyph glyph-name="Scommaaccent" unicode="&#x218;" horiz-adv-x="440" 
d="M188 -12q-57 0 -106.5 25.5t-71.5 63.5l28 22q24 -37 63.5 -59t87.5 -22q72 0 115.5 48t43.5 119q0 40 -24 72.5t-58 57t-68.5 49.5t-58.5 60.5t-24 78.5q0 73 54.5 124t127.5 51q52 0 94.5 -20t63.5 -55l-26 -22q-43 67 -132 67q-62 0 -105 -43.5t-43 -101.5
q0 -35 24 -65.5t58.5 -55.5t68.5 -51t58 -63.5t24 -82.5q0 -81 -53.5 -139t-140.5 -58zM177 -122q0 -37 -27 -74t-63 -56l-18 20q28 15 48 38t25 46h-6q-10 0 -18.5 8.5t-8.5 19.5q0 15 11 25.5t25 10.5q32 0 32 -38z" />
    <glyph glyph-name="scommaaccent" unicode="&#x219;" horiz-adv-x="366" 
d="M144 -12q-102 0 -143 74l26 19q36 -66 118 -66q52 0 86 33.5t34 78.5q0 30 -19.5 54.5t-47.5 42.5t-56.5 36t-48 44.5t-19.5 58.5q0 56 39.5 94t105.5 38q44 0 78.5 -18.5t50.5 -47.5l-25 -19q-12 26 -42.5 42t-65.5 16q-49 0 -79.5 -27.5t-30.5 -69.5q0 -28 19.5 -51.5
t48 -41t56.5 -36.5t47.5 -46t19.5 -61q0 -61 -42 -104t-110 -43zM142 -122q0 -37 -27 -74t-63 -56l-18 20q28 15 48 38t25 46h-6q-10 0 -18.5 8.5t-8.5 19.5q0 15 11 25.5t25 10.5q32 0 32 -38z" />
    <glyph glyph-name="hsuperior" unicode="&#x2b0;" horiz-adv-x="327" 
d="M312 326h-28l50 230q3 12 3 20q0 49 -56 49q-45 0 -95 -61l-52 -238h-28l96 434h28l-37 -167q44 55 99 55q74 0 74 -61q0 -13 -4 -33z" />
    <glyph glyph-name="hsuperior" unicode="&#xf637;" horiz-adv-x="327" 
d="M312 326h-28l50 230q3 12 3 20q0 49 -56 49q-45 0 -95 -61l-52 -238h-28l96 434h28l-37 -167q44 55 99 55q74 0 74 -61q0 -13 -4 -33z" />
    <glyph glyph-name="circumflex" unicode="&#x2c6;" horiz-adv-x="205" 
d="M274 556h-23l-53 118l-101 -118h-28l115 144h36z" />
    <glyph glyph-name="caron" unicode="&#x2c7;" horiz-adv-x="205" 
d="M191 556h-36l-54 144h24l52 -118l102 118h27z" />
    <glyph glyph-name="breve" unicode="&#x2d8;" horiz-adv-x="291" 
d="M379 642q-70 -73 -161 -73t-130 73l23 19q14 -30 44 -47.5t67 -17.5q80 0 137 65z" />
    <glyph glyph-name="dotaccent" unicode="&#x2d9;" horiz-adv-x="58" 
d="M141 623q0 -13 -9.5 -22.5t-22.5 -9.5q-11 0 -18.5 7.5t-7.5 18.5q0 13 9.5 22.5t22.5 9.5q11 0 18.5 -7.5t7.5 -18.5z" />
    <glyph glyph-name="ring" unicode="&#x2da;" horiz-adv-x="170" 
d="M165 560q-34 0 -55.5 22t-21.5 56q0 38 28 66t66 28q34 0 55.5 -22t21.5 -56q0 -38 -28 -66t-66 -28zM165 584q29 0 49.5 20t20.5 48q0 24 -15 40t-38 16q-29 0 -49.5 -20.5t-20.5 -48.5q0 -23 15 -39t38 -16z" />
    <glyph glyph-name="ogonek" unicode="&#x2db;" horiz-adv-x="144" 
d="M40 -118l21 -14q-28 -54 -78 -54q-29 0 -46 15.5t-17 44.5q0 83 112 143l20 -17q-104 -52 -104 -122q0 -37 39 -37q35 0 53 41z" />
    <glyph glyph-name="tilde" unicode="&#x2dc;" horiz-adv-x="251" 
d="M250 554q-24 0 -36 17.5t-14.5 39t-11.5 39t-26 17.5q-43 0 -67 -107h-25q30 134 99 134q23 0 35 -17.5t14.5 -39t11.5 -39t26 -17.5q44 0 68 107h25q-28 -134 -99 -134z" />
    <glyph glyph-name="hungarumlaut" unicode="&#x2dd;" horiz-adv-x="239" 
d="M219 700l-127 -144h-25l111 144h41zM340 700l-127 -144h-25l111 144h41z" />
    <glyph glyph-name="Delta" unicode="&#x394;" horiz-adv-x="474" 
d="M404 0h-442l349 667h38zM368 30l-45 595l-309 -595h354z" />
    <glyph glyph-name="Delta" unicode="&#x2206;" horiz-adv-x="474" 
d="M404 0h-442l349 667h38zM368 30l-45 595l-309 -595h354z" />
    <glyph glyph-name="Omega" unicode="&#x3a9;" horiz-adv-x="570" 
d="M14 0l6 30h115q-75 75 -75 200q0 68 21 145t58 145.5t94 113t122 44.5q92 0 144 -58t52 -173q0 -133 -56.5 -245.5t-146.5 -171.5h107l-6 -30h-158l6 30q88 37 154 164.5t66 255.5q0 95 -43 146t-119 51q-57 0 -107.5 -42.5t-83.5 -107t-52 -137t-19 -136.5
q0 -132 85 -194l-6 -30h-158z" />
    <glyph glyph-name="Omega" unicode="&#x2126;" horiz-adv-x="570" 
d="M14 0l6 30h115q-75 75 -75 200q0 68 21 145t58 145.5t94 113t122 44.5q92 0 144 -58t52 -173q0 -133 -56.5 -245.5t-146.5 -171.5h107l-6 -30h-158l6 30q88 37 154 164.5t66 255.5q0 95 -43 146t-119 51q-57 0 -107.5 -42.5t-83.5 -107t-52 -137t-19 -136.5
q0 -132 85 -194l-6 -30h-158z" />
    <glyph glyph-name="pi" unicode="&#x3c0;" horiz-adv-x="394" 
d="M251 0h-32l104 471h-152l-104 -471h-32l104 471h-61l6 29h338l-6 -29h-61z" />
    <glyph glyph-name="endash" unicode="&#x2013;" horiz-adv-x="527" 
d="M493 227h-467l6 30h467z" />
    <glyph glyph-name="emdash" unicode="&#x2014;" horiz-adv-x="737" 
d="M703 227h-677l6 30h677z" />
    <glyph glyph-name="quoteleft" unicode="&#x2018;" horiz-adv-x="208" 
d="M131 547q0 36 27 73.5t62 56.5l18 -20q-27 -15 -47 -38t-25 -46h6q10 0 18 -8.5t8 -19.5q0 -15 -10.5 -25.5t-24.5 -10.5q-32 0 -32 38z" />
    <glyph glyph-name="quoteright" unicode="&#x2019;" horiz-adv-x="208" 
d="M227 639q0 -36 -27 -73.5t-62 -56.5l-18 20q27 15 47 38t25 46h-6q-10 0 -18 8.5t-8 19.5q0 15 10.5 25.5t24.5 10.5q32 0 32 -38z" />
    <glyph glyph-name="quotesinglbase" unicode="&#x201a;" horiz-adv-x="208" 
d="M89 18q0 -36 -27 -73.5t-62 -56.5l-18 20q27 15 47 38t25 46h-6q-10 0 -18 8.5t-8 19.5q0 15 10.5 25.5t24.5 10.5q32 0 32 -38z" />
    <glyph glyph-name="quotedblleft" unicode="&#x201c;" horiz-adv-x="331" 
d="M259 547q0 36 27 73.5t62 56.5l18 -20q-27 -15 -47 -38t-25 -46h6q10 0 18 -8.5t8 -19.5q0 -15 -10.5 -25.5t-24.5 -10.5q-32 0 -32 38zM137 547q0 36 27 73.5t62 56.5l18 -20q-27 -15 -47 -38t-25 -46h6q10 0 18 -8.5t8 -19.5q0 -15 -10.5 -25.5t-24.5 -10.5
q-32 0 -32 38z" />
    <glyph glyph-name="quotedblright" unicode="&#x201d;" horiz-adv-x="331" 
d="M227 639q0 -36 -27 -73.5t-62 -56.5l-18 20q27 15 47 38t25 46h-6q-10 0 -18 8.5t-8 19.5q0 15 10.5 25.5t24.5 10.5q32 0 32 -38zM349 639q0 -36 -27 -73.5t-62 -56.5l-18 20q27 15 47 38t25 46h-6q-10 0 -18 8.5t-8 19.5q0 15 10.5 25.5t24.5 10.5q32 0 32 -38z" />
    <glyph glyph-name="quotedblbase" unicode="&#x201e;" horiz-adv-x="331" 
d="M89 18q0 -36 -27 -73.5t-62 -56.5l-18 20q27 15 47 38t25 46h-6q-10 0 -18 8.5t-8 19.5q0 15 10.5 25.5t24.5 10.5q32 0 32 -38zM211 18q0 -36 -27 -73.5t-62 -56.5l-18 20q27 15 47 38t25 46h-6q-10 0 -18 8.5t-8 19.5q0 15 10.5 25.5t24.5 10.5q32 0 32 -38z" />
    <glyph glyph-name="dagger" unicode="&#x2020;" horiz-adv-x="251" 
d="M291 539l-88 4l-44 -216h-31l52 216l-90 -4l6 27l88 -3l22 114h31l-30 -114l90 3z" />
    <glyph glyph-name="daggerdbl" unicode="&#x2021;" horiz-adv-x="251" 
d="M297 566l-6 -27l-88 4l-51 -229l90 4l-6 -27l-88 3l-22 -114h-31l30 114l-90 -3l6 27l88 -4l51 229l-90 -4l6 27l88 -3l22 114h31l-30 -114z" />
    <glyph glyph-name="bullet" unicode="&#x2022;" horiz-adv-x="358" 
d="M278 252q0 -43 -33 -75t-77 -32q-38 0 -63 25.5t-25 62.5q0 43 33 75t77 32q38 0 63 -25t25 -63z" />
    <glyph glyph-name="ellipsis" unicode="&#x2026;" horiz-adv-x="624" 
d="M52 -9q-13 0 -21.5 8.5t-8.5 21.5q0 15 10.5 25t25.5 10q13 0 21.5 -8.5t8.5 -21.5q0 -15 -10.5 -25t-25.5 -10zM260 -9q-13 0 -21.5 8.5t-8.5 21.5q0 15 10.5 25t25.5 10q13 0 21.5 -8.5t8.5 -21.5q0 -15 -10.5 -25t-25.5 -10zM468 -9q-13 0 -21.5 8.5t-8.5 21.5
q0 15 10.5 25t25.5 10q13 0 21.5 -8.5t8.5 -21.5q0 -15 -10.5 -25t-25.5 -10z" />
    <glyph glyph-name="perthousand" unicode="&#x2030;" horiz-adv-x="934" 
d="M107 0h-34l495 667h35zM423 -12q-54 0 -86 36t-32 89q0 85 48 143t109 58q54 0 85.5 -35.5t31.5 -89.5q0 -85 -47.5 -143t-108.5 -58zM423 15q48 0 85.5 50t37.5 122q0 47 -23.5 73.5t-61.5 26.5q-48 0 -85.5 -50t-37.5 -121q0 -47 23.5 -74t61.5 -27zM209 351
q-54 0 -85.5 35.5t-31.5 89.5q0 85 47.5 143t108.5 58q54 0 86 -36t32 -89q0 -85 -48 -143t-109 -58zM210 378q48 0 85.5 50t37.5 122q0 47 -23.5 73.5t-61.5 26.5q-48 0 -85.5 -50t-37.5 -121q0 -47 23.5 -74t61.5 -27zM725 -12q-54 0 -86 36t-32 89q0 85 48 143t109 58
q54 0 85.5 -35.5t31.5 -89.5q0 -85 -47.5 -143t-108.5 -58zM725 15q48 0 85.5 50t37.5 122q0 47 -23.5 73.5t-61.5 26.5q-48 0 -85.5 -50t-37.5 -121q0 -47 23.5 -74t61.5 -27z" />
    <glyph glyph-name="guilsinglleft" unicode="&#x2039;" horiz-adv-x="221" 
d="M147 63h-33l-85 180l165 177h39l-168 -181z" />
    <glyph glyph-name="guilsinglright" unicode="&#x203a;" horiz-adv-x="221" 
d="M75 420h33l85 -180l-165 -177h-39l169 182z" />
    <glyph glyph-name="fraction" unicode="&#x2044;" horiz-adv-x="111" 
d="M340 667l-496 -667h-34l495 667h35z" />
    <glyph glyph-name="fraction" unicode="&#x2215;" horiz-adv-x="111" 
d="M340 667l-496 -667h-34l495 667h35z" />
    <glyph glyph-name="zerosuperior" unicode="&#x2070;" 
d="M365 692q0 -37 -10 -82t-28.5 -90.5t-53 -75.5t-76.5 -30q-103 0 -103 135q0 38 10 83t28.5 90t53 75t76.5 30q103 0 103 -135zM335 696q0 105 -75 105q-34 0 -61.5 -29t-43 -71t-23.5 -83t-8 -73q0 -105 74 -105q34 0 62 29t43.5 71.5t23.5 83.5t8 72z" />
    <glyph glyph-name="foursuperior" unicode="&#x2074;" 
d="M333 534h-50l-25 -113h-29l25 113h-165l5 27l214 260h38l-58 -261h50zM259 560l50 223l-185 -223h135z" />
    <glyph glyph-name="fivesuperior" unicode="&#x2075;" 
d="M330 572q0 -63 -38.5 -110.5t-96.5 -47.5q-84 0 -109 71l25 14q22 -59 87 -59q44 0 73 39.5t29 90.5q0 36 -21 55t-53 19q-45 0 -82 -41l-21 11l46 207h197l-6 -26h-168l-34 -159q31 33 76 33q40 0 68 -25.5t28 -71.5z" />
    <glyph glyph-name="sixsuperior" unicode="&#x2076;" 
d="M334 572q0 -57 -35 -107.5t-97 -50.5q-52 0 -78 33t-26 91q0 59 18.5 124t59.5 115t93 50q34 0 60.5 -14.5t36.5 -39.5l-23 -18q-16 46 -74 46q-30 0 -55 -20t-40 -51.5t-24.5 -59.5t-13.5 -55q0 -2 -0.5 -5.5t-0.5 -4.5q45 63 103 63q42 0 69 -24.5t27 -71.5zM303 570
q0 36 -20 54t-55 18q-51 0 -98 -72q-4 -13 -4 -37q0 -41 20.5 -67t57.5 -26q44 0 71.5 41.5t27.5 88.5z" />
    <glyph glyph-name="sevensuperior" unicode="&#x2077;" horiz-adv-x="284" 
d="M364 801l-227 -380h-32l224 374h-188l6 26h221z" />
    <glyph glyph-name="eightsuperior" unicode="&#x2078;" 
d="M324 532q0 -50 -36 -84t-88 -34q-50 0 -81 25t-31 68q0 46 33.5 80t80.5 43q-62 30 -62 83q0 51 35.5 82.5t81.5 31.5q44 0 75.5 -22.5t31.5 -65.5q0 -41 -28 -72.5t-78 -42.5q27 -12 46.5 -36.5t19.5 -55.5zM334 736q0 33 -21.5 49t-55.5 16q-37 0 -62.5 -26t-25.5 -62
q0 -29 22.5 -49t42.5 -26q40 8 70 32.5t30 65.5zM294 532q0 29 -19.5 51.5t-46.5 31.5q-46 -4 -78 -34.5t-32 -73.5q0 -30 23.5 -49t57.5 -19q37 0 66 27t29 66z" />
    <glyph glyph-name="ninesuperior" unicode="&#x2079;" 
d="M126 671q0 57 34.5 107t96.5 50q52 0 78 -32.5t26 -90.5q0 -60 -18.5 -124.5t-59 -115t-92.5 -50.5q-35 0 -61.5 15t-36.5 40l23 18q18 -47 75 -47q39 0 69.5 36t43.5 75t19 76q2 6 2 10q-44 -64 -103 -64q-42 0 -69 25t-27 72zM156 673q0 -36 20 -54.5t55 -18.5
q52 0 99 72q4 20 4 37q0 41 -21 67t-58 26q-45 0 -72 -41.5t-27 -87.5z" />
    <glyph glyph-name="parenleftsuperior" unicode="&#x207d;" horiz-adv-x="122" 
d="M138 363l-17 -7q-25 65 -25 151q0 198 143 379l13 -7q-130 -202 -130 -382q0 -77 16 -134z" />
    <glyph glyph-name="parenrightsuperior" unicode="&#x207e;" horiz-adv-x="122" 
d="M158 879l16 7q25 -65 25 -151q0 -199 -142 -379l-13 7q130 202 130 382q0 77 -16 134z" />
    <glyph glyph-name="nsuperior" unicode="&#x207f;" horiz-adv-x="327" 
d="M285 326h-28l50 230q3 12 3 20q0 49 -56 49q-44 0 -95 -62l-52 -237h-28l69 314h28l-10 -47q44 55 99 55q74 0 74 -61q0 -13 -4 -33z" />
    <glyph glyph-name="zeroinferior" unicode="&#x2080;" 
d="M249 125q0 -37 -10 -82t-28.5 -90.5t-53 -75.5t-76.5 -30q-103 0 -103 135q0 38 10 83t28.5 90t53 75t76.5 30q103 0 103 -135zM219 129q0 105 -75 105q-34 0 -61.5 -29t-43 -71t-23.5 -83t-8 -73q0 -105 74 -105q34 0 62 29t43.5 71.5t23.5 83.5t8 72z" />
    <glyph glyph-name="oneinferior" unicode="&#x2081;" horiz-adv-x="191" 
d="M45 -146h-30l78 356l-74 -65l-16 21l103 88h27z" />
    <glyph glyph-name="twoinferior" unicode="&#x2082;" 
d="M182 -146h-224l5 26q19 17 50 43.5t46.5 40t39.5 35t36 33.5t28.5 29.5t24.5 29t16.5 26t11.5 26.5t3 25q0 32 -22 49t-53 17q-56 0 -94 -50l-19 19q47 57 113 57q41 0 73 -23t32 -69q0 -18 -5 -35t-20 -38t-26 -35.5t-39.5 -41t-43.5 -40t-54.5 -48t-57.5 -50.5h184z
" />
    <glyph glyph-name="threeinferior" unicode="&#x2083;" 
d="M209 -26q0 -47 -33.5 -87t-89.5 -40q-88 0 -117 72l25 14q26 -60 92 -60q43 0 68 33t25 76q0 31 -22.5 48.5t-56.5 17.5q-20 0 -26 -1l6 27q10 -1 42 -1q40 0 67.5 26t27.5 68q0 30 -22 48.5t-56 18.5q-49 0 -93 -49l-18 19q48 56 112 56q47 0 76.5 -23.5t29.5 -67.5
q0 -42 -27 -73.5t-70 -38.5q25 -6 42.5 -28.5t17.5 -54.5z" />
    <glyph glyph-name="fourinferior" unicode="&#x2084;" 
d="M217 -33h-50l-25 -113h-29l25 113h-165l5 27l214 260h38l-58 -261h50zM143 -7l50 223l-185 -223h135z" />
    <glyph glyph-name="fiveinferior" unicode="&#x2085;" 
d="M214 5q0 -63 -38.5 -110.5t-96.5 -47.5q-84 0 -109 71l25 14q22 -59 87 -59q43 0 72.5 39.5t29.5 90.5q0 36 -21 55t-53 19q-45 0 -82 -41l-21 11l46 207h197l-6 -26h-168l-34 -159q31 33 76 33q40 0 68 -25.5t28 -71.5z" />
    <glyph glyph-name="sixinferior" unicode="&#x2086;" 
d="M218 5q0 -57 -35 -107.5t-97 -50.5q-52 0 -78 33t-26 91q0 59 18.5 124t59.5 115t93 50q34 0 60.5 -14.5t36.5 -39.5l-23 -18q-16 46 -74 46q-30 0 -55 -20t-40 -51.5t-24.5 -59.5t-13.5 -55q0 -2 -0.5 -5.5t-0.5 -4.5q45 63 103 63q42 0 69 -24.5t27 -71.5zM187 3
q0 36 -20 54t-55 18q-51 0 -98 -72q-4 -13 -4 -37q0 -41 20.5 -67t57.5 -26q44 0 71.5 41.5t27.5 88.5z" />
    <glyph glyph-name="seveninferior" unicode="&#x2087;" horiz-adv-x="284" 
d="M248 234l-227 -380h-32l224 374h-188l6 26h221z" />
    <glyph glyph-name="eightinferior" unicode="&#x2088;" 
d="M208 -35q0 -50 -36 -84t-88 -34q-50 0 -81 25t-31 68q0 46 33.5 80t80.5 43q-62 30 -62 83q0 51 35.5 82.5t81.5 31.5q44 0 75.5 -22.5t31.5 -65.5q0 -41 -28 -72.5t-78 -42.5q27 -12 46.5 -36.5t19.5 -55.5zM218 169q0 33 -21.5 49t-55.5 16q-37 0 -62.5 -26t-25.5 -62
q0 -29 22.5 -49t42.5 -26q40 8 70 32.5t30 65.5zM178 -35q0 29 -19.5 51.5t-46.5 31.5q-46 -4 -78 -34.5t-32 -73.5q0 -30 23.5 -49t57.5 -19q37 0 66 27t29 66z" />
    <glyph glyph-name="nineinferior" unicode="&#x2089;" 
d="M10 104q0 57 34.5 107t96.5 50q52 0 78 -32.5t26 -90.5q0 -60 -18.5 -124.5t-59 -115t-92.5 -50.5q-35 0 -61.5 15t-36.5 40l23 18q18 -47 75 -47q39 0 69.5 36t43.5 75t19 76q2 6 2 10q-44 -64 -103 -64q-42 0 -69 25t-27 72zM40 106q0 -36 20 -54.5t55 -18.5
q52 0 99 72q4 20 4 37q0 41 -21 67t-58 26q-45 0 -72 -41.5t-27 -87.5z" />
    <glyph glyph-name="parenleftinferior" unicode="&#x208d;" horiz-adv-x="122" 
d="M13 -204l-17 -7q-25 65 -25 151q0 198 143 379l13 -7q-130 -202 -130 -382q0 -77 16 -134z" />
    <glyph glyph-name="parenrightinferior" unicode="&#x208e;" horiz-adv-x="122" 
d="M33 312l16 7q25 -65 25 -151q0 -199 -142 -379l-13 7q130 202 130 382q0 77 -16 134z" />
    <glyph glyph-name="colonmonetary" unicode="&#x20a1;" horiz-adv-x="495" 
d="M254 -12q-25 0 -55 7l-47 -95h-32l51 104q-31 14 -54 37l-69 -141h-32l81 165q-40 57 -40 151q0 108 38 213.5t108 177t153 71.5q25 0 42 -4l47 94h33l-51 -103q31 -12 54 -34l68 137h33l-80 -160q20 -26 31 -56l-30 -12q-8 19 -17 34l-274 -552q19 -4 45 -4q76 0 150 82
l23 -19q-79 -93 -176 -93zM92 214q0 -68 23 -114l269 545q-15 3 -32 3q-69 0 -130 -67t-95.5 -167t-34.5 -200zM133 72q20 -26 52 -40l281 569q-22 25 -53 36z" />
    <glyph glyph-name="frenchfranc" unicode="&#x20a3;" horiz-adv-x="448" 
d="M74 0h-32l35 161h-77l6 27h77l106 479h309l-6 -30h-277l-62 -279h270l-7 -30h-270l-31 -140h180l-6 -27h-180z" />
    <glyph glyph-name="lira" unicode="&#x20a4;" horiz-adv-x="417" 
d="M41 323l7 30h77q-26 50 -26 96q0 90 57.5 159t137.5 69q53 0 94.5 -29t49.5 -75l-29 -14q-8 39 -38.5 63.5t-76.5 24.5q-63 0 -112 -55t-49 -141q0 -44 27 -98h152l-7 -30h-129q20 -44 20 -79v-6h90l-6 -30h-88q-10 -48 -43.5 -90t-71.5 -68q24 9 42 9q30 0 73.5 -21
t66.5 -21q47 0 84 41l13 -26q-47 -45 -100 -45q-39 0 -79.5 22t-74.5 22q-38 0 -96 -38l-10 31q58 27 105 78.5t59 105.5h-144l6 30h142v3q0 34 -23 82h-100z" />
    <glyph glyph-name="uni20A6" unicode="&#x20a6;" horiz-adv-x="575" 
d="M425 0h-32l-78 251h-186l-55 -251h-32l55 251h-77l6 27h77l26 119h-76l5 27h77l54 243h32l77 -243h187l55 243h32l-54 -243h75l-5 -27h-76l-26 -119h75l-6 -27h-75zM306 397l38 -119h109l26 119h-173zM162 397l-27 -119h172l-37 119h-108zM352 251l56 -176l39 176h-95z
M207 599l-39 -175h93z" />
    <glyph glyph-name="peseta" unicode="&#x20a7;" horiz-adv-x="505" 
d="M74 0h-32l102 463h-77l7 30h76l39 174h155q59 0 97.5 -42.5t38.5 -106.5q0 -17 -1 -25h72l-7 -30h-70q-16 -75 -68 -124.5t-137 -49.5h-131zM277 319q65 1 106.5 41.5t55.5 102.5h-263l-32 -144h133zM215 637l-32 -144h261q1 8 1 25q0 53 -30.5 86t-76.5 33h-123z" />
    <glyph glyph-name="rupee" unicode="&#x20a8;" horiz-adv-x="789" 
d="M365 0h-35l-88 289h-120l-64 -289h-32l147 667h150q59 0 101 -41t42 -106q0 -93 -53 -157.5t-139 -71.5zM259 319h1q80 0 125 60t45 141q0 54 -31 85.5t-76 31.5h-124l-71 -318h131zM567 -12q-102 0 -143 74l26 19q36 -66 118 -66q52 0 86 33.5t34 78.5q0 30 -19.5 54.5
t-48 42.5t-56.5 36t-47.5 44.5t-19.5 58.5q0 56 39.5 94t105.5 38q44 0 78.5 -18.5t50.5 -47.5l-25 -19q-12 26 -42.5 42t-65.5 16q-49 0 -79.5 -27.5t-30.5 -69.5q0 -28 19.5 -51.5t48 -41t56.5 -36.5t47.5 -46t19.5 -61q0 -61 -42 -104t-110 -43z" />
    <glyph glyph-name="uni20A9" unicode="&#x20a9;" horiz-adv-x="684" 
d="M455 0h-38l1 251h-148l-109 -251h-38l1 251h-94l6 27h88v119h-61l5 27h56l1 243h34l-2 -243h155l106 243h34l-2 -243h156l105 243h36l-106 -243h52l-5 -27h-59l-52 -119h84l-6 -27h-90zM448 278h95l51 119h-145zM156 397l-1 -119h94l51 119h-144zM334 397l-52 -119h136
l1 119h-85zM448 251l-1 -195l84 195h-83zM237 251h-82l-2 -195zM421 597l-76 -173h74z" />
    <glyph glyph-name="afii57636" unicode="&#x20aa;" horiz-adv-x="622" 
d="M359 0h-192l88 399h32l-82 -370h152q58 0 91.5 35t50.5 112l83 374h32l-82 -366q-21 -92 -60.5 -138t-112.5 -46zM143 550h140q70 0 110.5 -30.5t40.5 -95.5q0 -26 -9 -67l-44 -207h-32l48 217q6 30 6 50q0 52 -32 78t-84 26h-118l-115 -521h-32z" />
    <glyph glyph-name="Euro" unicode="&#x20ac;" horiz-adv-x="525" 
d="M274 -12q-89 0 -143 60t-54 168q0 20 1 31h-49l7 30h44q6 57 23 114h-42l7 30h44q39 112 109 184.5t155 72.5q129 0 177 -126l-30 -12q-42 108 -151 108q-68 0 -127.5 -63.5t-95.5 -163.5h248l-7 -30h-251q-17 -57 -23 -114h249l-7 -30h-245q-1 -11 -1 -33
q0 -94 43.5 -145t121.5 -51q76 0 150 82l23 -19q-79 -93 -176 -93z" />
    <glyph glyph-name="afii61289" unicode="&#x2113;" horiz-adv-x="380" 
d="M146 533l-101 -452q-3 -18 -3 -32q0 -30 19 -45.5t50 -15.5q36 0 62 25l-15 22q-20 -20 -45 -20q-41 0 -41 39q0 12 3 27l51 228l175 121q44 32 66 50t39.5 44.5t17.5 54.5q0 45 -37 71.5t-85 26.5q-123 0 -156 -144zM289 453l-154 -104l41 183q26 119 126 119
q37 0 64.5 -22t27.5 -54q0 -31 -25 -57.5t-80 -64.5z" />
    <glyph glyph-name="afii61352" unicode="&#x2116;" horiz-adv-x="881" 
d="M409 0h-32l-186 599l-133 -599h-32l147 667h32l187 -592l132 592h32zM743 350q-52 0 -81 32.5t-29 89.5q0 73 43.5 140.5t110.5 67.5q52 0 81 -32.5t29 -89.5q0 -72 -43.5 -140t-110.5 -68zM743 376q55 0 90 60t35 122q0 44 -22 69.5t-60 25.5q-55 0 -89 -59.5
t-34 -121.5q0 -44 21.5 -70t58.5 -26z" />
    <glyph glyph-name="published" unicode="&#x2117;" horiz-adv-x="778" 
d="M754 334q0 -142 -101.5 -243.5t-244.5 -101.5q-142 0 -243 101t-101 244t101 244t243 101q143 0 244.5 -101.5t101.5 -243.5zM728 334q0 131 -94.5 225t-225.5 94t-224.5 -94t-93.5 -225t93.5 -225t224.5 -94t225.5 94t94.5 225zM587 436q0 -56 -40 -91t-101 -35h-124
l-39 -179h-29l89 405h125q53 0 86 -27.5t33 -72.5zM558 433q0 35 -26 54.5t-68 19.5h-98l-37 -168h122q49 0 78 26t29 68z" />
    <glyph glyph-name="servicemark" unicode="&#x2120;" horiz-adv-x="425" 
d="M433 447h-28l40 182l-105 -182h-8l-25 182l-40 -182h-28l48 220h42l20 -158l88 158h44zM214 512q0 -30 -21.5 -51t-54.5 -21q-51 0 -73 32l20 21q18 -26 53 -26q18 0 31 12t13 28q0 17 -20.5 31t-41 29t-20.5 37q0 29 20.5 49t52.5 20q46 0 65 -26l-20 -21q-15 22 -47 22
q-17 0 -28 -10.5t-11 -26.5q0 -12 13 -23.5t28 -19.5t28 -22.5t13 -33.5z" />
    <glyph glyph-name="trademark" unicode="&#x2122;" horiz-adv-x="414" 
d="M424 447h-28l40 182l-105 -182h-8l-25 182l-40 -182h-28l48 220h43l20 -158l88 158h43zM237 641h-52l-43 -194h-28l43 194h-52l5 26h132z" />
    <glyph glyph-name="estimated" unicode="&#x212e;" horiz-adv-x="842" 
d="M829 324h-632q-4 0 -4 -5v-190q0 -15 9 -23q98 -103 240 -103q151 0 250 115h57q-54 -63 -135 -99.5t-174 -36.5q-161 0 -275.5 103t-114.5 248t114.5 248t275.5 103t275.5 -103t114.5 -248zM687 349v191q0 14 -10 24q-97 99 -236 99t-238 -102q-10 -10 -10 -24v-188
q0 -6 5 -6h485q4 0 4 6z" />
    <glyph glyph-name="onethird" unicode="&#x2153;" horiz-adv-x="650" 
d="M569 667l-496 -667h-34l495 667h35zM581 120q0 -47 -33.5 -87t-89.5 -40q-88 0 -117 72l25 14q26 -60 92 -60q43 0 68 33t25 76q0 31 -22.5 48.5t-56.5 17.5q-20 0 -26 -1l6 27q10 -1 42 -1q40 0 67.5 26t27.5 68q0 30 -22 48.5t-56 18.5q-49 0 -93 -49l-18 19
q48 56 112 56q47 0 76.5 -23.5t29.5 -67.5q0 -42 -27 -73.5t-70 -38.5q25 -6 42.5 -28.5t17.5 -54.5zM136 267h-30l78 356l-74 -65l-16 21l103 88h27z" />
    <glyph glyph-name="twothirds" unicode="&#x2154;" horiz-adv-x="731" 
d="M650 667l-496 -667h-34l495 667h35zM662 120q0 -47 -33.5 -87t-89.5 -40q-88 0 -117 72l25 14q26 -60 92 -60q43 0 68 33t25 76q0 31 -22.5 48.5t-56.5 17.5q-20 0 -26 -1l6 27q10 -1 42 -1q40 0 67.5 26t27.5 68q0 30 -22 48.5t-56 18.5q-49 0 -93 -49l-18 19
q48 56 112 56q47 0 76.5 -23.5t29.5 -67.5q0 -42 -27 -73.5t-70 -38.5q25 -6 42.5 -28.5t17.5 -54.5zM273 267h-224l5 26q19 17 50 43.5t46.5 40t39.5 35t36 33.5t28.5 29.5t24.5 29t16.5 26t11.5 26.5t3 25q0 32 -22 49t-53 17q-56 0 -94 -50l-19 19q48 57 113 57
q41 0 73 -23t32 -69q0 -18 -5 -35t-20 -38t-26 -35.5t-39.5 -41t-43.5 -40t-54.5 -48t-57.5 -50.5h184z" />
    <glyph glyph-name="oneeighth" unicode="&#x215b;" horiz-adv-x="650" 
d="M569 667l-496 -667h-34l495 667h35zM580 111q0 -50 -36 -84t-88 -34q-50 0 -81 25t-31 68q0 46 33.5 80t80.5 43q-62 30 -62 83q0 51 35.5 82.5t81.5 31.5q44 0 75.5 -22.5t31.5 -65.5q0 -41 -28 -72.5t-78 -42.5q27 -12 46.5 -36.5t19.5 -55.5zM590 315q0 33 -21.5 49
t-55.5 16q-37 0 -62.5 -26t-25.5 -62q0 -29 22.5 -49t42.5 -26q40 8 70 32.5t30 65.5zM550 111q0 29 -19.5 51.5t-46.5 31.5q-46 -4 -78 -34.5t-32 -73.5q0 -30 23.5 -49t57.5 -19q37 0 66 27t29 66zM136 267h-30l78 356l-74 -65l-16 21l103 88h27z" />
    <glyph glyph-name="threeeighths" unicode="&#x215c;" horiz-adv-x="731" 
d="M650 667l-496 -667h-34l495 667h35zM661 111q0 -50 -36 -84t-88 -34q-50 0 -81 25t-31 68q0 46 33.5 80t80.5 43q-62 30 -62 83q0 51 35.5 82.5t81.5 31.5q44 0 75.5 -22.5t31.5 -65.5q0 -41 -28 -72.5t-78 -42.5q27 -12 46.5 -36.5t19.5 -55.5zM671 315q0 33 -21.5 49
t-55.5 16q-37 0 -62.5 -26t-25.5 -62q0 -29 22.5 -49t42.5 -26q40 8 70 32.5t30 65.5zM631 111q0 29 -19.5 51.5t-46.5 31.5q-46 -4 -78 -34.5t-32 -73.5q0 -30 23.5 -49t57.5 -19q37 0 66 27t29 66zM300 387q0 -47 -33.5 -87t-89.5 -40q-88 0 -117 72l25 14q26 -60 92 -60
q43 0 68 33t25 76q0 31 -22.5 48.5t-56.5 17.5q-20 0 -26 -1l6 27q10 -1 42 -1q40 0 67.5 26t27.5 68q0 30 -22 48.5t-56 18.5q-49 0 -93 -49l-18 19q48 56 112 56q47 0 76.5 -23.5t29.5 -67.5q0 -42 -27 -73.5t-70 -38.5q25 -6 42.5 -28.5t17.5 -54.5z" />
    <glyph glyph-name="fiveeighths" unicode="&#x215d;" horiz-adv-x="731" 
d="M650 667l-496 -667h-34l495 667h35zM661 111q0 -50 -36 -84t-88 -34q-50 0 -81 25t-31 68q0 46 33.5 80t80.5 43q-62 30 -62 83q0 51 35.5 82.5t81.5 31.5q44 0 75.5 -22.5t31.5 -65.5q0 -41 -28 -72.5t-78 -42.5q27 -12 46.5 -36.5t19.5 -55.5zM671 315q0 33 -21.5 49
t-55.5 16q-37 0 -62.5 -26t-25.5 -62q0 -29 22.5 -49t42.5 -26q40 8 70 32.5t30 65.5zM631 111q0 29 -19.5 51.5t-46.5 31.5q-46 -4 -78 -34.5t-32 -73.5q0 -30 23.5 -49t57.5 -19q37 0 66 27t29 66zM305 418q0 -63 -38.5 -110.5t-96.5 -47.5q-84 0 -109 71l25 14
q22 -59 87 -59q43 0 72.5 39.5t29.5 90.5q0 36 -21 55t-53 19q-45 0 -82 -41l-21 11l46 207h197l-6 -26h-168l-34 -159q31 33 76 33q40 0 68 -25.5t28 -71.5z" />
    <glyph glyph-name="seveneighths" unicode="&#x215e;" horiz-adv-x="660" 
d="M580 667l-496 -667h-34l495 667h35zM590 111q0 -50 -36 -84t-88 -34q-50 0 -81 25t-31 68q0 46 33.5 80t80.5 43q-62 30 -62 83q0 51 35.5 82.5t81.5 31.5q44 0 75.5 -22.5t31.5 -65.5q0 -41 -28 -72.5t-78 -42.5q27 -12 46.5 -36.5t19.5 -55.5zM600 315q0 33 -21.5 49
t-55.5 16q-37 0 -62.5 -26t-25.5 -62q0 -29 22.5 -49t42.5 -26q40 8 70 32.5t30 65.5zM560 111q0 29 -19.5 51.5t-46.5 31.5q-46 -4 -78 -34.5t-32 -73.5q0 -30 23.5 -49t57.5 -19q37 0 66 27t29 66zM339 647l-227 -380h-32l224 374h-188l6 26h221z" />
    <glyph glyph-name="arrowleft" unicode="&#x2190;" horiz-adv-x="582" 
d="M558 211h-269l12 -130l-281 205l281 204l-12 -129h269v-150z" />
    <glyph glyph-name="arrowup" unicode="&#x2191;" horiz-adv-x="582" 
d="M236 17v269l-130 -12l205 281l204 -281l-129 12v-269h-150z" />
    <glyph glyph-name="arrowright" unicode="&#x2192;" horiz-adv-x="582" 
d="M604 286l-281 -205l12 130h-268v150h268l-12 129z" />
    <glyph glyph-name="arrowdown" unicode="&#x2193;" horiz-adv-x="582" 
d="M386 555v-269l130 12l-205 -281l-204 281l129 -12v269h150z" />
    <glyph glyph-name="partialdiff" unicode="&#x2202;" horiz-adv-x="461" 
d="M197 -12q-72 0 -113.5 47.5t-41.5 128.5q0 77 28 152.5t80 127t113 51.5q38 0 72.5 -20.5t50.5 -64.5q-42 159 -132 255l28 18q138 -174 138 -330q0 -84 -25.5 -166t-78 -140.5t-119.5 -58.5zM197 15q52 0 97 52.5t68 123.5t23 134q0 56 -30.5 99.5t-91.5 43.5
q-52 0 -96.5 -51t-68 -120t-23.5 -132q0 -73 32.5 -111.5t89.5 -38.5z" />
    <glyph glyph-name="product" unicode="&#x220f;" horiz-adv-x="494" 
d="M307 -90h-32l161 727h-205l-161 -727h-32l161 727h-84l6 30h438l-6 -30h-85z" />
    <glyph glyph-name="summation" unicode="&#x2211;" horiz-adv-x="431" 
d="M288 294l-113 343h294l6 30h-326l-6 -30l111 -338l-267 -359l-6 -30h327l6 30h-289z" />
    <glyph glyph-name="minus" unicode="&#x2212;" horiz-adv-x="434" 
d="M421 319h-376l7 30h376z" />
    <glyph glyph-name="radical" unicode="&#x221a;" horiz-adv-x="613" 
d="M314 0h-35l-36 340l-163 -50l-3 28l190 59l35 -342l346 632h30z" />
    <glyph glyph-name="infinity" unicode="&#x221e;" horiz-adv-x="547" 
d="M148 180q-48 0 -75.5 32.5t-27.5 84.5q0 77 42.5 135t105.5 58q43 0 71.5 -33.5t36.5 -83.5q59 117 137 117q49 0 76 -32t27 -84q0 -77 -42.5 -135.5t-105.5 -58.5q-43 0 -71.5 33.5t-36.5 83.5q-61 -117 -137 -117zM395 211q51 0 83 50.5t32 111.5q0 40 -20 63.5
t-54 23.5q-36 0 -66 -34.5t-62 -92.5q15 -122 87 -122zM151 211q38 0 67.5 34t60.5 92q-15 123 -88 123q-51 0 -83 -50.5t-32 -111.5q0 -39 20.5 -63t54.5 -24z" />
    <glyph glyph-name="integral" unicode="&#x222b;" horiz-adv-x="276" 
d="M-13 -100h-46l6 30h47q59 0 75 73l147 662q24 103 112 103h47l-7 -30h-47q-59 0 -75 -73l-147 -662q-22 -103 -112 -103z" />
    <glyph glyph-name="approxequal" unicode="&#x2248;" horiz-adv-x="434" 
d="M23 220l8 35q34 -27 88 -27q41 0 95.5 24t102.5 24q53 0 90 -23l-8 -34q-35 27 -89 27q-40 0 -94.5 -24t-102.5 -24q-52 0 -90 22zM67 415l7 35q34 -27 88 -27q41 0 95.5 24t102.5 24q53 0 90 -23l-7 -34q-36 27 -90 27q-40 0 -94.5 -24t-102.5 -24q-51 0 -89 22z" />
    <glyph glyph-name="notequal" unicode="&#x2260;" horiz-adv-x="434" 
d="M76 93h-36l94 127h-111l7 30h126l125 168h-214l7 30h229l94 126h37l-94 -126h110l-7 -30h-125l-125 -168h213l-7 -30h-229z" />
    <glyph glyph-name="lessequal" unicode="&#x2264;" horiz-adv-x="434" 
d="M379 128l-333 196l5 21l420 197l-9 -38l-373 -172l297 -170zM358 30h-377l6 30h377z" />
    <glyph glyph-name="greaterequal" unicode="&#x2265;" horiz-adv-x="434" 
d="M422 324l-419 -196l9 38l373 170l-297 172l7 34l332 -197zM357 30h-376l6 30h376z" />
    <glyph glyph-name="triangleright" unicode="&#x22b2;" horiz-adv-x="587" 
d="M609 286l-535 -309v618z" />
    <glyph glyph-name="triangleleft" unicode="&#x22b3;" horiz-adv-x="587" 
d="M555 595v-618l-535 309z" />
    <glyph glyph-name="uni2318" unicode="&#x2318;" horiz-adv-x="667" 
d="M213 153l18 82h-90q-37 0 -63.5 -27.5t-26.5 -65.5q0 -30 19.5 -50t49.5 -20q37 0 61 21.5t32 59.5zM274 432l16 72q2 8 2 22q0 32 -19.5 50.5t-52.5 18.5q-37 0 -63.5 -26t-26.5 -63q0 -34 20.5 -54t54.5 -20h69zM269 265h137l31 137h-137zM576 161q0 34 -20.5 54
t-54.5 20h-69l-16 -72q-2 -14 -2 -22q0 -32 19.5 -50.5t52.5 -18.5q37 0 63.5 26t26.5 63zM655 525q0 30 -19.5 50t-49.5 20q-75 0 -93 -81l-18 -82h90q37 0 63.5 27.5t26.5 65.5zM607 160q0 -48 -39 -83t-89 -35q-42 0 -70 28t-28 70q0 14 3 29l16 66h-137l-21 -90
q-11 -46 -45 -74.5t-80 -28.5q-41 0 -70 28t-29 69q0 49 38 87.5t87 38.5h94l31 137h-69q-45 0 -72.5 29.5t-27.5 75.5q0 48 38.5 83t88.5 35q42 0 70 -28t28 -70q0 -14 -3 -29l-15 -66h137l20 90q11 46 45 74.5t80 28.5q42 0 71 -28t29 -69q0 -50 -38 -88t-87 -38h-94
l-31 -137h66q46 0 74.5 -29t28.5 -76z" />
    <glyph glyph-name="uni2318" unicode="&#xf8ff;" horiz-adv-x="667" 
d="M213 153l18 82h-90q-37 0 -63.5 -27.5t-26.5 -65.5q0 -30 19.5 -50t49.5 -20q37 0 61 21.5t32 59.5zM274 432l16 72q2 8 2 22q0 32 -19.5 50.5t-52.5 18.5q-37 0 -63.5 -26t-26.5 -63q0 -34 20.5 -54t54.5 -20h69zM269 265h137l31 137h-137zM576 161q0 34 -20.5 54
t-54.5 20h-69l-16 -72q-2 -14 -2 -22q0 -32 19.5 -50.5t52.5 -18.5q37 0 63.5 26t26.5 63zM655 525q0 30 -19.5 50t-49.5 20q-75 0 -93 -81l-18 -82h90q37 0 63.5 27.5t26.5 65.5zM607 160q0 -48 -39 -83t-89 -35q-42 0 -70 28t-28 70q0 14 3 29l16 66h-137l-21 -90
q-11 -46 -45 -74.5t-80 -28.5q-41 0 -70 28t-29 69q0 49 38 87.5t87 38.5h94l31 137h-69q-45 0 -72.5 29.5t-27.5 75.5q0 48 38.5 83t88.5 35q42 0 70 -28t28 -70q0 -14 -3 -29l-15 -66h137l20 90q11 46 45 74.5t80 28.5q42 0 71 -28t29 -69q0 -50 -38 -88t-87 -38h-94
l-31 -137h66q46 0 74.5 -29t28.5 -76z" />
    <glyph glyph-name="blacksquare" unicode="&#x25a0;" horiz-adv-x="661" 
d="M638 0h-571v572h571v-572z" />
    <glyph glyph-name="triagup" unicode="&#x25b2;" horiz-adv-x="616" 
d="M637 29l-619 1l309 535z" />
    <glyph glyph-name="triagdn" unicode="&#x25bc;" horiz-adv-x="616" 
d="M637 510l-310 -535l-309 535h619z" />
    <glyph glyph-name="lozenge" unicode="&#x25ca;" horiz-adv-x="375" 
d="M144 0h-21l-84 334l231 333h21l85 -333zM142 45l197 293l-67 284l-196 -292z" />
    <glyph glyph-name="circlesolid" unicode="&#x25cf;" horiz-adv-x="695" 
d="M664 285q0 -123 -87 -210t-210 -87t-210 87t-87 210t87 210t210 87t210 -87t87 -210z" />
    <glyph glyph-name="blackstar" unicode="&#x2605;" horiz-adv-x="759" 
d="M779 421l-235 -171l90 -275l-235 170l-234 -170l89 275l-234 171h290l89 276l90 -276h290z" />
    <glyph glyph-name="ballotbox" unicode="&#x2610;" horiz-adv-x="661" 
d="M636 0h-571v572h571v-572zM604 30v512h-508v-512h508z" />
    <glyph glyph-name="boxchecked" unicode="&#x2611;" horiz-adv-x="661" 
d="M705 698l-69 -126h20v-572h-571v572h515l78 145zM624 30v512h-4l-244 -451l-202 246l25 23l173 -215l212 397h-468v-512h508z" />
    <glyph glyph-name="diamond" unicode="&#x2666;" horiz-adv-x="501" 
d="M521 285l-251 -250l-250 250l250 251z" />
    <glyph glyph-name="checkmark" unicode="&#x2713;" horiz-adv-x="531" 
d="M551 698l-329 -607l-202 246l25 23l173 -215l306 572z" />
    <glyph glyph-name="perthousand.onum" unicode="&#xf628;" horiz-adv-x="763" 
d="M295 454q0 -63 -39 -113t-95 -50q-45 0 -71.5 29t-26.5 79q0 63 39 113t95 50q45 0 71.5 -29t26.5 -79zM497 550l-434 -550h-34l432 550h36zM264 455q0 37 -17 59.5t-50 22.5q-43 0 -73 -42t-30 -97q0 -37 17.5 -59.5t50.5 -22.5q42 0 72 42.5t30 96.5zM462 151
q0 -63 -39 -113t-95 -50q-45 0 -71 29t-26 79q0 63 38.5 113t94.5 50q45 0 71.5 -29t26.5 -79zM431 152q0 37 -17 59.5t-50 22.5q-42 0 -72 -42.5t-30 -96.5q0 -37 17 -59.5t50 -22.5q43 0 72.5 42t29.5 97zM713 151q0 -63 -39 -113t-95 -50q-45 0 -71.5 29t-26.5 79
q0 63 39 113t95 50q45 0 71.5 -29t26.5 -79zM682 152q0 37 -17 59.5t-50 22.5q-43 0 -73 -42t-30 -97q0 -37 17.5 -59.5t50.5 -22.5q42 0 72 42.5t30 96.5z" />
    <glyph glyph-name="zero.tzero" unicode="&#xf638;" horiz-adv-x="472" 
d="M199 -12q-82 0 -120 67l-38 -55h-37l60 87q-15 43 -15 107q0 74 18 157t50 156.5t83.5 121.5t110.5 48q81 0 119 -66l39 56h37l-62 -88q16 -48 16 -107q0 -74 -18 -157t-50 -156.5t-83 -122t-110 -48.5zM201 18q65 0 119 81t80.5 185t26.5 193q0 37 -6 68l-322 -461
q28 -66 102 -66zM82 189q0 -38 6 -68l321 461q-28 65 -100 65q-65 0 -119 -80.5t-81 -184.5t-27 -193z" />
    <glyph glyph-name="zero.tnum" unicode="&#xf639;" horiz-adv-x="463" 
d="M194 -12q-73 0 -111.5 53.5t-38.5 152.5q0 74 18 157t50 156.5t83.5 121.5t110.5 48q73 0 111 -53t38 -152q0 -74 -18 -157t-50 -156.5t-83 -122t-110 -48.5zM196 18q65 0 119 81t80.5 185t26.5 193q0 170 -118 170q-65 0 -119 -80.5t-81 -184.5t-27 -193
q0 -171 119 -171z" />
    <glyph glyph-name="two.tnum" unicode="&#xf63a;" horiz-adv-x="463" 
d="M339 0h-328l8 37q39 40 101.5 101.5t91.5 91t71.5 74t61.5 69.5t40 57.5t28.5 58t7.5 51.5q0 49 -32.5 78t-85.5 29q-83 0 -140 -75l-25 19q67 86 165 86q66 0 109.5 -34.5t43.5 -100.5q0 -25 -8 -51.5t-19 -50t-36 -56t-44.5 -56t-59 -65t-66 -68t-80 -79.5t-86.5 -86
h288z" />
    <glyph glyph-name="three.tnum" unicode="&#xf63b;" horiz-adv-x="463" 
d="M198 -12q-64 0 -111.5 36.5t-61.5 99.5l32 12q13 -56 50.5 -87t90.5 -31q71 0 115 59t44 139q0 54 -35.5 84t-89.5 30q-29 0 -38 -1l8 32q8 -1 65 -1q65 0 109.5 51t44.5 125q0 51 -32.5 81t-88.5 30q-79 0 -139 -79l-24 19q29 40 73 65t92 25q68 0 110.5 -37t42.5 -104
q0 -74 -45.5 -130.5t-109.5 -65.5q41 -13 65.5 -48.5t24.5 -81.5q0 -87 -54 -154.5t-138 -67.5z" />
    <glyph glyph-name="four.tnum" unicode="&#xf63c;" horiz-adv-x="463" 
d="M283 0h-32l43 195h-257l8 34l342 438h43l-98 -442h78l-6 -30h-78zM300 225l88 396l-310 -396h222z" />
    <glyph glyph-name="five.tnum" unicode="&#xf63d;" horiz-adv-x="463" 
d="M197 -12q-67 0 -106 34.5t-58 100.5l33 11q26 -116 135 -116q66 0 117.5 73.5t51.5 164.5q0 59 -31.5 91.5t-85.5 32.5q-63 0 -126 -57l-22 18l72 326h289l-6 -30h-257l-61 -275q46 48 118 48q62 0 103 -41t41 -113q0 -104 -60.5 -186t-146.5 -82z" />
    <glyph glyph-name="six.tnum" unicode="&#xf63e;" horiz-adv-x="463" 
d="M204 -12q-75 0 -110.5 51.5t-35.5 139.5q0 44 8.5 103t29 129t50 128.5t76.5 98t104 39.5q53 0 91 -29.5t50 -81.5l-30 -14q-9 44 -38.5 69.5t-74.5 25.5q-150 0 -218 -324q-1 -5 -3 -17q27 40 71 70t92 30q65 0 104.5 -38t39.5 -108q0 -99 -58 -185.5t-148 -86.5z
M209 18q72 0 120 79t48 162q0 53 -30.5 85t-84.5 32q-88 0 -167 -120q-7 -37 -7 -86q0 -70 30.5 -111t90.5 -41z" />
    <glyph glyph-name="seven.tnum" unicode="&#xf63f;" horiz-adv-x="463" 
d="M123 0h-36l356 637h-286l6 30h324l-5 -22z" />
    <glyph glyph-name="eight.tnum" unicode="&#xf640;" horiz-adv-x="463" 
d="M201 -12q-75 0 -120 36.5t-45 105.5q0 76 49 133.5t134 84.5q-38 21 -66 59t-28 84q0 77 53.5 131.5t126.5 54.5q65 0 109 -36.5t44 -102.5q0 -78 -49 -128t-122 -69q41 -25 70.5 -65.5t29.5 -90.5q0 -83 -54.5 -140t-131.5 -57zM257 359q69 12 117.5 58.5t48.5 121.5
q0 48 -34 77.5t-87 29.5q-58 0 -100.5 -44.5t-42.5 -113.5q0 -43 30.5 -79t67.5 -50zM200 18q59 0 106.5 48.5t47.5 120.5q0 53 -33.5 92t-69.5 52q-75 -13 -127.5 -67t-52.5 -129q0 -57 37 -87t92 -30z" />
    <glyph glyph-name="nine.tnum" unicode="&#xf641;" horiz-adv-x="463" 
d="M297 678q75 0 111 -51.5t36 -139.5q0 -44 -8.5 -103t-29 -129t-50 -128.5t-77 -98t-104.5 -39.5q-53 0 -90.5 29.5t-50.5 81.5l30 15q10 -45 39 -70.5t74 -25.5q149 0 219 324q2 8 3 18q-28 -41 -72 -71t-92 -30q-65 0 -104.5 38.5t-39.5 108.5q0 62 24 123.5t73 104.5
t109 43zM293 648q-73 0 -121 -79t-48 -162q0 -52 30.5 -84.5t85.5 -32.5q86 0 167 120q7 49 7 86q0 70 -30.5 111t-90.5 41z" />
    <glyph glyph-name="percent.onum" unicode="&#xf642;" horiz-adv-x="512" 
d="M295 454q0 -63 -39 -113t-95 -50q-45 0 -71.5 29t-26.5 79q0 63 39 113t95 50q45 0 71.5 -29t26.5 -79zM497 550l-434 -550h-34l433 550h35zM264 455q0 37 -17 59.5t-50 22.5q-43 0 -73 -42t-30 -97q0 -37 17.5 -59.5t50.5 -22.5q42 0 72 42.5t30 96.5zM462 151
q0 -63 -39 -113t-95 -50q-45 0 -71 29t-26 79q0 63 38.5 113t94.5 50q45 0 71.5 -29t26.5 -79zM431 152q0 37 -17 59.5t-50 22.5q-42 0 -72 -42.5t-30 -96.5q0 -37 17 -59.5t50 -22.5q43 0 72.5 42t29.5 97z" />
    <glyph glyph-name="zero.tonum" unicode="&#xf643;" horiz-adv-x="463" 
d="M436 368q0 -44 -14.5 -105t-41.5 -124.5t-75.5 -107t-107.5 -43.5q-76 0 -118 50t-42 144q0 34 8.5 80t27.5 99.5t46 97.5t68.5 73.5t89.5 29.5q76 0 117.5 -49.5t41.5 -144.5zM403 372q0 160 -128 160q-51 0 -93 -42.5t-65 -102.5t-35 -115.5t-12 -92.5q0 -161 129 -161
q51 0 93 42.5t64.5 103t34.5 116t12 92.5z" />
    <glyph glyph-name="one.tonum" unicode="&#xf644;" horiz-adv-x="463" 
d="M241 0h-32l111 504l-130 -115l-17 23l159 138h30z" />
    <glyph glyph-name="two.tonum" unicode="&#xf645;" horiz-adv-x="463" 
d="M329 0h-312l6 29q194 127 283 217t89 174q0 52 -32.5 82t-83.5 30q-85 0 -150 -86l-25 19q73 97 175 97q68 0 109.5 -37.5t41.5 -103.5q0 -88 -88.5 -182.5t-262.5 -208.5h256z" />
    <glyph glyph-name="three.tonum" unicode="&#xf646;" horiz-adv-x="463" 
d="M171 -134q-64 0 -111.5 36.5t-61.5 99.5l32 12q13 -56 50.5 -87t90.5 -31q71 0 115 59t44 139q0 54 -35.5 84t-89.5 30q-29 0 -38 -1l8 32q8 -1 65 -1q65 0 109.5 51t44.5 125q0 51 -32.5 81t-88.5 30q-79 0 -139 -79l-24 19q29 40 73 65t92 25q68 0 110.5 -37t42.5 -104
q0 -74 -45.5 -130.5t-109.5 -65.5q41 -13 65.5 -48.5t24.5 -81.5q0 -87 -54 -154.5t-138 -67.5z" />
    <glyph glyph-name="four.tonum" unicode="&#xf647;" horiz-adv-x="463" 
d="M378 78h-78l-43 -195h-32l43 195h-257l7 33l344 439h42l-98 -442h78zM274 108l89 399l-313 -399h224z" />
    <glyph glyph-name="five.tonum" unicode="&#xf648;" horiz-adv-x="463" 
d="M171 -129q-67 0 -106 34.5t-58 100.5l33 11q26 -116 135 -116q66 0 117.5 73.5t51.5 164.5q0 59 -31.5 91.5t-85.5 32.5q-63 0 -126 -57l-22 18l72 326h289l-6 -30h-257l-61 -275q46 48 118 48q62 0 103 -41t41 -113q0 -104 -60.5 -186t-146.5 -82z" />
    <glyph glyph-name="six.tonum" unicode="&#xf649;" horiz-adv-x="463" 
d="M204 -12q-75 0 -110.5 51.5t-35.5 139.5q0 44 8.5 103t29 129t50 128.5t76.5 98t104 39.5q53 0 91 -29.5t50 -81.5l-30 -14q-9 44 -38.5 69.5t-74.5 25.5q-150 0 -218 -324q-1 -5 -3 -17q27 40 71 70t92 30q65 0 104.5 -38t39.5 -108q0 -99 -58 -185.5t-148 -86.5z
M209 18q72 0 120 79t48 162q0 53 -30.5 85t-84.5 32q-88 0 -167 -120q-7 -37 -7 -86q0 -70 30.5 -111t90.5 -41z" />
    <glyph glyph-name="seven.tonum" unicode="&#xf64a;" horiz-adv-x="463" 
d="M97 -117h-36l356 637h-286l6 30h324l-5 -22z" />
    <glyph glyph-name="eight.tonum" unicode="&#xf64b;" horiz-adv-x="463" 
d="M201 -12q-75 0 -120 36.5t-45 105.5q0 76 49 133.5t134 84.5q-38 21 -66 59t-28 84q0 77 53.5 131.5t126.5 54.5q65 0 109 -36.5t44 -102.5q0 -78 -49 -128t-122 -69q41 -25 70.5 -65.5t29.5 -90.5q0 -83 -54.5 -140t-131.5 -57zM257 359q69 12 117.5 58.5t48.5 121.5
q0 48 -34 77.5t-87 29.5q-58 0 -100.5 -44.5t-42.5 -113.5q0 -43 30.5 -79t67.5 -50zM200 18q59 0 106.5 48.5t47.5 120.5q0 53 -33.5 92t-69.5 52q-75 -13 -127.5 -67t-52.5 -129q0 -57 37 -87t92 -30z" />
    <glyph glyph-name="nine.tonum" unicode="&#xf64c;" horiz-adv-x="463" 
d="M271 561q75 0 111 -51.5t36 -139.5q0 -44 -8.5 -103t-29 -129t-50 -128.5t-77 -98t-104.5 -39.5q-53 0 -90.5 29.5t-50.5 81.5l30 15q10 -45 39 -70.5t74 -25.5q149 0 219 324q2 8 3 18q-28 -41 -72 -71t-92 -30q-65 0 -104.5 38.5t-39.5 108.5q0 62 24 123.5t73 104.5
t109 43zM267 531q-73 0 -121 -79t-48 -162q0 -52 30.5 -84.5t85.5 -32.5q86 0 167 120q7 49 7 86q0 70 -30.5 111t-90.5 41z" />
    <glyph glyph-name="colonmonetary.onum" unicode="&#xf64d;" horiz-adv-x="451" 
d="M113 -53l29 60q-21 10 -40 27l-43 -87h-30l54 110q-36 50 -36 132q0 83 31.5 168t94 145t137.5 60q7 0 23 -2l19 39h29l-22 -44q25 -8 44 -21l32 65h29l-40 -81q21 -20 36 -51l-28 -14q-9 19 -23 35l-229 -464q22 -7 51 -7q76 0 133 73l24 -18q-72 -84 -157 -84
q-35 0 -64 9l-25 -50h-29zM81 189q0 -57 20 -97l218 441h-9q-63 0 -117 -54t-83 -133t-29 -157zM118 66q18 -21 38 -32l233 473q-17 13 -43 21z" />
    <glyph glyph-name="Euro.onum" unicode="&#xf64e;" horiz-adv-x="468" 
d="M329 324h-209q-17 -57 -21 -99h208l-6 -30h-203v-6q0 -82 41 -127t109 -45q76 0 133 73l24 -18q-72 -84 -157 -84q-84 0 -134 52t-50 149v6h-46l6 30h41q4 48 20 99h-39l7 30h42q34 90 95 149t137 59q49 0 89.5 -25.5t60.5 -69.5l-28 -14q-16 38 -49 59t-73 21
q-61 0 -113 -50.5t-83 -128.5h205z" />
    <glyph glyph-name="florin.onum" unicode="&#xf64f;" horiz-adv-x="312" 
d="M8 -119h-32l76 344h-48v28h54l41 184q15 65 40.5 94.5t70.5 29.5q35 0 58 -26l-23 -21q-11 17 -37 17q-31 0 -48 -23t-28 -71l-41 -184h103v-28h-109z" />
    <glyph glyph-name="numbersign.onum" unicode="&#xf650;" horiz-adv-x="413" 
d="M422 387l-12 -28h-79l-82 -164h79l-14 -29h-81l-82 -166h-33l84 166h-90l-82 -166h-34l84 166h-76l15 29h77l83 164h-78l13 28h78l83 163h33l-84 -163h89l83 163h32l-83 -163h77zM299 359h-88l-83 -164h88z" />
    <glyph glyph-name="sterling.onum" unicode="&#xf651;" horiz-adv-x="344" 
d="M13 223l7 30h83q-1 2 -9.5 24.5t-11.5 31t-6.5 26.5t-3.5 34q0 81 45 136.5t114 55.5q43 0 78 -25.5t44 -65.5l-28 -10q-7 35 -33.5 54.5t-62.5 19.5q-54 0 -90 -44t-36 -109q0 -19 4 -38.5t7.5 -30.5t12 -31.5t10.5 -27.5h104l-7 -30h-89q3 -15 3 -32q0 -47 -26.5 -86.5
t-58.5 -60.5q12 6 26 6q25 0 60.5 -15t52.5 -15q37 0 67 32l16 -24q-37 -39 -87 -39q-30 0 -65.5 16.5t-60.5 16.5q-30 0 -77 -30l-9 30q56 25 94 71t38 95q0 15 -5 35h-100z" />
    <glyph glyph-name="yen.onum" unicode="&#xf652;" horiz-adv-x="408" 
d="M167 0h-32l26 118h-171l6 30h171l20 89h-170l7 30h153l-100 283h36l97 -278l217 278h38l-223 -283h152l-7 -30h-168l-20 -89h168l-6 -30h-168z" />
    <glyph glyph-name="cent.onum" unicode="&#xf654;" horiz-adv-x="451" 
d="M231 -12h-10l-19 -88h-30l20 91q-67 12 -106 62.5t-39 135.5q0 83 31.5 168t94 145t137.5 60h9l12 53h30l-13 -58q79 -17 112 -90l-28 -14q-27 60 -90 76l-114 -512h3q76 0 133 73l24 -18q-72 -84 -157 -84zM81 189q0 -72 31.5 -115.5t85.5 -53.5l114 513h-2
q-63 0 -117 -54t-83 -133t-29 -157z" />
    <glyph glyph-name="zero.dnom" unicode="&#xf655;" 
d="M281 271q0 -37 -10 -82t-28.5 -90.5t-53 -75.5t-76.5 -30q-103 0 -103 135q0 38 10 83t28.5 90t53 75t76.5 30q103 0 103 -135zM251 275q0 105 -75 105q-34 0 -61.5 -29t-43 -71t-23.5 -83t-8 -73q0 -105 74 -105q34 0 62 29t43.5 71.5t23.5 83.5t8 72z" />
    <glyph glyph-name="one.dnom" unicode="&#xf656;" horiz-adv-x="191" 
d="M77 0h-30l78 356l-74 -65l-16 21l103 88h27z" />
    <glyph glyph-name="two.dnom" unicode="&#xf657;" 
d="M214 0h-224l5 26q19 17 50 43.5t46.5 40t39.5 35t36 33.5t28.5 29.5t24.5 29t16.5 26t11.5 26.5t3 25q0 32 -22 49t-53 17q-56 0 -94 -50l-19 19q47 57 113 57q41 0 73 -23t32 -69q0 -18 -5 -35t-20 -38t-26 -35.5t-39.5 -41t-43.5 -40t-54.5 -48t-57.5 -50.5h184z" />
    <glyph glyph-name="three.dnom" unicode="&#xf658;" 
d="M241 120q0 -47 -33.5 -87t-89.5 -40q-88 0 -117 72l25 14q26 -60 92 -60q43 0 68 33t25 76q0 31 -22.5 48.5t-56.5 17.5q-20 0 -26 -1l6 27q10 -1 42 -1q40 0 67.5 26t27.5 68q0 30 -22 48.5t-56 18.5q-49 0 -93 -49l-18 19q48 56 112 56q47 0 76.5 -23.5t29.5 -67.5
q0 -42 -27 -73.5t-70 -38.5q25 -6 42.5 -28.5t17.5 -54.5z" />
    <glyph glyph-name="four.dnom" unicode="&#xf659;" 
d="M249 113h-50l-25 -113h-29l25 113h-165l5 27l214 260h38l-58 -261h50zM175 139l50 223l-185 -223h135z" />
    <glyph glyph-name="five.dnom" unicode="&#xf65a;" 
d="M246 151q0 -63 -38.5 -110.5t-96.5 -47.5q-84 0 -109 71l25 14q22 -59 87 -59q44 0 73 39.5t29 90.5q0 36 -21 55t-53 19q-45 0 -82 -41l-21 11l46 207h197l-6 -26h-168l-34 -159q31 33 76 33q40 0 68 -25.5t28 -71.5z" />
    <glyph glyph-name="six.dnom" unicode="&#xf65b;" 
d="M250 151q0 -57 -35 -107.5t-97 -50.5q-52 0 -78 33t-26 91q0 59 18.5 124t59.5 115t93 50q34 0 60.5 -14.5t36.5 -39.5l-23 -18q-16 46 -74 46q-30 0 -55 -20t-40 -51.5t-24.5 -59.5t-13.5 -55q0 -2 -0.5 -5.5t-0.5 -4.5q45 63 103 63q42 0 69 -24.5t27 -71.5zM219 149
q0 36 -20 54t-55 18q-51 0 -98 -72q-4 -13 -4 -37q0 -41 20.5 -67t57.5 -26q44 0 71.5 41.5t27.5 88.5z" />
    <glyph glyph-name="seven.dnom" unicode="&#xf65c;" horiz-adv-x="284" 
d="M280 380l-227 -380h-32l224 374h-188l6 26h221z" />
    <glyph glyph-name="eight.dnom" unicode="&#xf65d;" 
d="M240 111q0 -50 -36 -84t-88 -34q-50 0 -81 25t-31 68q0 46 33.5 80t80.5 43q-62 30 -62 83q0 51 35.5 82.5t81.5 31.5q44 0 75.5 -22.5t31.5 -65.5q0 -41 -28 -72.5t-78 -42.5q27 -12 46.5 -36.5t19.5 -55.5zM250 315q0 33 -21.5 49t-55.5 16q-37 0 -62.5 -26t-25.5 -62
q0 -29 22.5 -49t42.5 -26q40 8 70 32.5t30 65.5zM210 111q0 29 -19.5 51.5t-46.5 31.5q-46 -4 -78 -34.5t-32 -73.5q0 -30 23.5 -49t57.5 -19q37 0 66 27t29 66z" />
    <glyph glyph-name="nine.dnom" unicode="&#xf65e;" 
d="M42 250q0 57 34.5 107t96.5 50q52 0 78 -32.5t26 -90.5q0 -60 -18.5 -124.5t-59 -115t-92.5 -50.5q-35 0 -61.5 15t-36.5 40l23 18q18 -47 75 -47q39 0 69.5 36t43.5 75t19 76q2 6 2 10q-44 -64 -103 -64q-42 0 -69 25t-27 72zM72 252q0 -36 20 -54.5t55 -18.5
q52 0 99 72q4 20 4 37q0 41 -21 67t-58 26q-45 0 -72 -41.5t-27 -87.5z" />
    <glyph glyph-name="zero.numr" unicode="&#xf661;" 
d="M340 538q0 -37 -10 -82t-28.5 -90.5t-53 -75.5t-76.5 -30q-103 0 -103 135q0 38 10 83t28.5 90t53 75t76.5 30q103 0 103 -135zM310 542q0 105 -75 105q-34 0 -61.5 -29t-43 -71t-23.5 -83t-8 -73q0 -105 74 -105q34 0 62 29t43.5 71.5t23.5 83.5t8 72z" />
    <glyph glyph-name="one.numr" unicode="&#xf662;" horiz-adv-x="191" 
d="M136 267h-30l78 356l-74 -65l-16 21l103 88h27z" />
    <glyph glyph-name="two.numr" unicode="&#xf663;" 
d="M273 267h-224l5 26q19 17 50 43.5t46.5 40t39.5 35t36 33.5t28.5 29.5t24.5 29t16.5 26t11.5 26.5t3 25q0 32 -22 49t-53 17q-56 0 -94 -50l-19 19q48 57 113 57q41 0 73 -23t32 -69q0 -18 -5 -35t-20 -38t-26 -35.5t-39.5 -41t-43.5 -40t-54.5 -48t-57.5 -50.5h184z" />
    <glyph glyph-name="three.numr" unicode="&#xf664;" 
d="M300 387q0 -47 -33.5 -87t-89.5 -40q-88 0 -117 72l25 14q26 -60 92 -60q43 0 68 33t25 76q0 31 -22.5 48.5t-56.5 17.5q-20 0 -26 -1l6 27q10 -1 42 -1q40 0 67.5 26t27.5 68q0 30 -22 48.5t-56 18.5q-49 0 -93 -49l-18 19q48 56 112 56q47 0 76.5 -23.5t29.5 -67.5
q0 -42 -27 -73.5t-70 -38.5q25 -6 42.5 -28.5t17.5 -54.5z" />
    <glyph glyph-name="four.numr" unicode="&#xf665;" 
d="M308 380h-50l-25 -113h-29l25 113h-165l5 27l214 260h38l-58 -261h50zM234 406l50 223l-185 -223h135z" />
    <glyph glyph-name="five.numr" unicode="&#xf666;" 
d="M305 418q0 -63 -38.5 -110.5t-96.5 -47.5q-84 0 -109 71l25 14q22 -59 87 -59q43 0 72.5 39.5t29.5 90.5q0 36 -21 55t-53 19q-45 0 -82 -41l-21 11l46 207h197l-6 -26h-168l-34 -159q31 33 76 33q40 0 68 -25.5t28 -71.5z" />
    <glyph glyph-name="six.numr" unicode="&#xf667;" 
d="M309 418q0 -57 -35 -107.5t-97 -50.5q-52 0 -78 33t-26 91q0 59 18.5 124t59.5 115t93 50q34 0 60.5 -14.5t36.5 -39.5l-23 -18q-16 46 -74 46q-30 0 -55 -20t-40 -51.5t-24.5 -59.5t-13.5 -55q0 -2 -0.5 -5.5t-0.5 -4.5q45 63 103 63q42 0 69 -24.5t27 -71.5zM278 416
q0 36 -20 54t-55 18q-51 0 -98 -72q-4 -13 -4 -37q0 -41 20.5 -67t57.5 -26q44 0 71.5 41.5t27.5 88.5z" />
    <glyph glyph-name="seven.numr" unicode="&#xf668;" horiz-adv-x="284" 
d="M339 647l-227 -380h-32l224 374h-188l6 26h221z" />
    <glyph glyph-name="eight.numr" unicode="&#xf669;" 
d="M299 378q0 -50 -36 -84t-88 -34q-50 0 -81 25t-31 68q0 46 33.5 80t80.5 43q-62 30 -62 83q0 51 35.5 82.5t81.5 31.5q44 0 75.5 -22.5t31.5 -65.5q0 -41 -28 -72.5t-78 -42.5q27 -12 46.5 -36.5t19.5 -55.5zM309 582q0 33 -21.5 49t-55.5 16q-37 0 -62.5 -26t-25.5 -62
q0 -29 22.5 -49t42.5 -26q40 8 70 32.5t30 65.5zM269 378q0 29 -19.5 51.5t-46.5 31.5q-46 -4 -78 -34.5t-32 -73.5q0 -30 23.5 -49t57.5 -19q37 0 66 27t29 66z" />
    <glyph glyph-name="nine.numr" unicode="&#xf66a;" 
d="M101 517q0 57 34.5 107t96.5 50q52 0 78 -32.5t26 -90.5q0 -60 -18.5 -124.5t-59 -115t-92.5 -50.5q-35 0 -61.5 15t-36.5 40l23 18q18 -47 75 -47q39 0 69.5 36t43.5 75t19 76q2 6 2 10q-44 -64 -103 -64q-42 0 -69 25t-27 72zM131 519q0 -36 20 -54.5t55 -18.5
q52 0 99 72q4 20 4 37q0 41 -21 67t-58 26q-45 0 -72 -41.5t-27 -87.5z" />
    <glyph glyph-name="Abreve.smcp" unicode="&#xf66d;" horiz-adv-x="409" 
d="M254 550h35l52 -550h-33l-13 146h-222l-77 -146h-37zM293 175l-29 331l-177 -331h206zM447 682q-70 -73 -161 -73t-130 73l23 19q14 -30 44 -47.5t67 -17.5q80 0 137 65z" />
    <glyph glyph-name="Amacron.smcp" unicode="&#xf66e;" horiz-adv-x="409" 
d="M254 550h35l52 -550h-33l-13 146h-222l-77 -146h-37zM293 175l-29 331l-177 -331h206zM441 631h-301l6 27h301z" />
    <glyph glyph-name="Aogonek.smcp" unicode="&#xf66f;" horiz-adv-x="409" 
d="M254 550h35l52 -550q-104 -52 -104 -122q0 -37 39 -37q35 0 53 41l21 -14q-28 -54 -78 -54q-29 0 -46 15.5t-17 44.5q0 79 98 135l-12 137h-222l-77 -146h-37zM293 175l-29 331l-177 -331h206z" />
    <glyph glyph-name="AEacute.smcp" unicode="&#xf670;" horiz-adv-x="613" 
d="M534 750l-167 -144h-29l151 144h45zM507 0h-269l32 146h-175l-103 -146h-37l392 550h281l-6 -29h-237l-50 -223h231l-6 -29h-231l-53 -240h237zM276 175l74 332l-236 -332h162z" />
    <glyph glyph-name="Cacute.smcp" unicode="&#xf671;" horiz-adv-x="451" 
d="M231 -12q-84 0 -134 52t-50 149q0 83 31.5 168t94 145t137.5 60q49 0 89.5 -25.5t60.5 -69.5l-28 -14q-16 38 -49 59t-73 21q-63 0 -117 -54t-83 -133t-29 -157q0 -82 41 -127t109 -45q76 0 133 73l24 -18q-72 -84 -157 -84zM491 750l-167 -144h-29l151 144h45z" />
    <glyph glyph-name="Ccaron.smcp" unicode="&#xf672;" horiz-adv-x="451" 
d="M231 -12q-84 0 -134 52t-50 149q0 83 31.5 168t94 145t137.5 60q49 0 89.5 -25.5t60.5 -69.5l-28 -14q-16 38 -49 59t-73 21q-63 0 -117 -54t-83 -133t-29 -157q0 -82 41 -127t109 -45q76 0 133 73l24 -18q-72 -84 -157 -84zM364 606h-36l-54 144h24l52 -118l102 118h27z
" />
    <glyph glyph-name="Ccircumflex.smcp" unicode="&#xf673;" horiz-adv-x="451" 
d="M231 -12q-84 0 -134 52t-50 149q0 83 31.5 168t94 145t137.5 60q49 0 89.5 -25.5t60.5 -69.5l-28 -14q-16 38 -49 59t-73 21q-63 0 -117 -54t-83 -133t-29 -157q0 -82 41 -127t109 -45q76 0 133 73l24 -18q-72 -84 -157 -84zM447 606h-23l-53 118l-101 -118h-28l115 144
h36z" />
    <glyph glyph-name="Cdotaccent.smcp" unicode="&#xf674;" horiz-adv-x="451" 
d="M231 -12q-84 0 -134 52t-50 149q0 83 31.5 168t94 145t137.5 60q49 0 89.5 -25.5t60.5 -69.5l-28 -14q-16 38 -49 59t-73 21q-63 0 -117 -54t-83 -133t-29 -157q0 -82 41 -127t109 -45q76 0 133 73l24 -18q-72 -84 -157 -84zM389 673q0 -13 -9.5 -22.5t-22.5 -9.5
q-11 0 -18.5 7.5t-7.5 18.5q0 13 9.5 22.5t22.5 9.5q11 0 18.5 -7.5t7.5 -18.5z" />
    <glyph glyph-name="Dcaron.smcp" unicode="&#xf675;" horiz-adv-x="479" 
d="M151 0h-140l121 550h107q88 0 140.5 -53.5t52.5 -146.5q0 -65 -18 -126t-51.5 -111.5t-88.5 -81.5t-123 -31zM157 29q109 0 175 99t66 222q0 82 -44 126.5t-121 44.5h-75l-109 -492h108zM327 606h-36l-54 144h24l52 -118l102 118h27z" />
    <glyph glyph-name="Dcroat.smcp" unicode="&#xf676;" horiz-adv-x="503" 
d="M175 0h-140l59 268h-70l6 27h70l56 255h107q88 0 140.5 -53.5t52.5 -146.5q0 -65 -18 -126t-51.5 -111.5t-88.5 -81.5t-123 -31zM181 29q109 0 175 99t66 222q0 82 -44 126.5t-121 44.5h-75l-50 -226h114l-6 -27h-114l-53 -239h108z" />
    <glyph glyph-name="Ebreve.smcp" unicode="&#xf677;" horiz-adv-x="397" 
d="M291 0h-269l121 550h269l-6 -29h-237l-50 -223h232l-6 -29h-232l-53 -240h237zM453 682q-70 -73 -161 -73t-130 73l23 19q14 -30 44 -47.5t67 -17.5q80 0 137 65z" />
    <glyph glyph-name="Ecaron.smcp" unicode="&#xf678;" horiz-adv-x="397" 
d="M291 0h-269l121 550h269l-6 -29h-237l-50 -223h232l-6 -29h-232l-53 -240h237zM310 606h-36l-54 144h24l52 -118l102 118h27z" />
    <glyph glyph-name="Edotaccent.smcp" unicode="&#xf679;" horiz-adv-x="397" 
d="M291 0h-269l121 550h269l-6 -29h-237l-50 -223h232l-6 -29h-232l-53 -240h237zM337 673q0 -13 -9.5 -22.5t-22.5 -9.5q-11 0 -18.5 7.5t-7.5 18.5q0 13 9.5 22.5t22.5 9.5q11 0 18.5 -7.5t7.5 -18.5z" />
    <glyph glyph-name="Emacron.smcp" unicode="&#xf67a;" horiz-adv-x="397" 
d="M291 0h-269l121 550h269l-6 -29h-237l-50 -223h232l-6 -29h-232l-53 -240h237zM447 631h-301l6 27h301z" />
    <glyph glyph-name="Eng.smcp" unicode="&#xf67b;" horiz-adv-x="484" 
d="M195 -196q-89 0 -121 66l28 18q26 -55 92 -55q93 0 115 108l12 54l-159 495l-108 -490h-32l121 550h34l160 -483l107 483h32l-135 -611q-29 -135 -146 -135z" />
    <glyph glyph-name="Eogonek.smcp" unicode="&#xf67c;" horiz-adv-x="397" 
d="M279 -118l21 -14q-28 -54 -78 -54q-29 0 -46 15.5t-17 44.5q0 71 83 126h-220l121 550h269l-6 -29h-237l-50 -223h232l-6 -29h-232l-53 -240h237l-6 -29q-104 -52 -104 -122q0 -37 39 -37q35 0 53 41z" />
    <glyph glyph-name="Gbreve.smcp" unicode="&#xf67d;" horiz-adv-x="487" 
d="M232 -12q-84 0 -134.5 53t-50.5 144q0 65 19 131.5t52 121t83 89.5t108 35q52 0 92.5 -26.5t62.5 -69.5l-27 -15q-17 36 -51 59t-77 23q-65 0 -118.5 -55.5t-81.5 -134.5t-28 -158t41.5 -123.5t109.5 -44.5q70 0 117 43l40 179h-143l7 29h174l-49 -223q-64 -57 -146 -57z
M506 682q-70 -73 -161 -73t-130 73l23 19q14 -30 44 -47.5t67 -17.5q80 0 137 65z" />
    <glyph glyph-name="Gcircumflex.smcp" unicode="&#xf67e;" horiz-adv-x="487" 
d="M232 -12q-84 0 -134.5 53t-50.5 144q0 65 19 131.5t52 121t83 89.5t108 35q52 0 92.5 -26.5t62.5 -69.5l-27 -15q-17 36 -51 59t-77 23q-65 0 -118.5 -55.5t-81.5 -134.5t-28 -158t41.5 -123.5t109.5 -44.5q70 0 117 43l40 179h-143l7 29h174l-49 -223q-64 -57 -146 -57z
M448 606h-23l-53 118l-101 -118h-28l115 144h36z" />
    <glyph glyph-name="Gcommaaccent.smcp" unicode="&#xf67f;" horiz-adv-x="487" 
d="M232 -12q-84 0 -134.5 53t-50.5 144q0 65 19 131.5t52 121t83 89.5t108 35q52 0 92.5 -26.5t62.5 -69.5l-27 -15q-17 36 -51 59t-77 23q-65 0 -118.5 -55.5t-81.5 -134.5t-28 -158t41.5 -123.5t109.5 -44.5q70 0 117 43l40 179h-143l7 29h174l-49 -223q-64 -57 -146 -57z
M223 -122q0 -37 -27 -74t-63 -56l-18 20q28 15 48 38t25 46h-6q-10 0 -18.5 8.5t-8.5 19.5q0 15 11 25.5t25 10.5q32 0 32 -38z" />
    <glyph glyph-name="Gdotaccent.smcp" unicode="&#xf680;" horiz-adv-x="487" 
d="M232 -12q-84 0 -134.5 53t-50.5 144q0 65 19 131.5t52 121t83 89.5t108 35q52 0 92.5 -26.5t62.5 -69.5l-27 -15q-17 36 -51 59t-77 23q-65 0 -118.5 -55.5t-81.5 -134.5t-28 -158t41.5 -123.5t109.5 -44.5q70 0 117 43l40 179h-143l7 29h174l-49 -223q-64 -57 -146 -57z
M389 673q0 -13 -9.5 -22.5t-22.5 -9.5q-11 0 -18.5 7.5t-7.5 18.5q0 13 9.5 22.5t22.5 9.5q11 0 18.5 -7.5t7.5 -18.5z" />
    <glyph glyph-name="Hcircumflex.smcp" unicode="&#xf681;" horiz-adv-x="486" 
d="M357 0h-32l59 269h-271l-59 -269h-32l121 550h32l-56 -252h271l56 252h32zM424 606h-23l-53 118l-101 -118h-28l115 144h36z" />
    <glyph glyph-name="Hbar.smcp" unicode="&#xf682;" horiz-adv-x="524" 
d="M376 0h-32l59 269h-271l-59 -269h-32l90 411h-75l6 27h75l25 112h32l-25 -112h271l25 112h32l-25 -112h74l-6 -27h-74zM138 298h271l25 113h-271z" />
    <glyph glyph-name="Ibreve.smcp" unicode="&#xf683;" horiz-adv-x="183" 
d="M54 0h-32l121 550h32zM332 682q-70 -73 -161 -73t-130 73l23 19q14 -30 44 -47.5t67 -17.5q80 0 137 65z" />
    <glyph glyph-name="IJ.smcp" unicode="&#xf684;" horiz-adv-x="520" 
d="M54 0h-32l121 550h32zM271 -12q-88 0 -122 66l28 18q29 -55 93 -55q92 0 115 108l94 425h32l-94 -425q-30 -137 -146 -137z" />
    <glyph glyph-name="Imacron.smcp" unicode="&#xf685;" horiz-adv-x="183" 
d="M54 0h-32l121 550h32zM329 631h-301l6 27h301z" />
    <glyph glyph-name="Iogonek.smcp" unicode="&#xf686;" horiz-adv-x="183" 
d="M42 -118l21 -14q-28 -54 -78 -54q-29 0 -46 15.5t-17 44.5q0 80 102 138l119 538h32l-121 -550q-104 -52 -104 -122q0 -37 39 -37q35 0 53 41z" />
    <glyph glyph-name="Itilde.smcp" unicode="&#xf687;" horiz-adv-x="183" 
d="M54 0h-32l121 550h32zM226 594q-24 0 -36 17.5t-14.5 39t-11.5 39t-26 17.5q-43 0 -67 -107h-25q30 134 99 134q23 0 35 -17.5t14.5 -39t11.5 -39t26 -17.5q44 0 68 107h25q-28 -134 -99 -134z" />
    <glyph glyph-name="Jcircumflex.smcp" unicode="&#xf688;" horiz-adv-x="337" 
d="M88 -12q-88 0 -122 66l28 18q29 -55 93 -55q92 0 115 108l94 425h32l-94 -425q-30 -137 -146 -137zM428 606h-23l-53 118l-101 -118h-28l115 144h36z" />
    <glyph glyph-name="Kcommaaccent.smcp" unicode="&#xf689;" horiz-adv-x="418" 
d="M344 0h-39l-140 265l-69 -71l-42 -194h-32l121 550h32l-67 -305l296 305h43l-260 -263zM173 -122q0 -37 -27 -74t-63 -56l-18 20q28 15 48 38t25 46h-6q-10 0 -18.5 8.5t-8.5 19.5q0 15 11 25.5t25 10.5q32 0 32 -38z" />
    <glyph glyph-name="Lacute.smcp" unicode="&#xf68a;" horiz-adv-x="361" 
d="M274 0h-252l121 550h32l-115 -521h220zM434 750l-167 -144h-29l151 144h45z" />
    <glyph glyph-name="Lcaron.smcp" unicode="&#xf68b;" horiz-adv-x="361" 
d="M274 0h-252l121 550h32l-115 -521h220zM309 522q0 -37 -27 -74t-63 -56l-18 20q28 15 48 38t25 46h-6q-10 0 -18.5 8.5t-8.5 19.5q0 15 11 25.5t25 10.5q32 0 32 -38z" />
    <glyph glyph-name="Lcommaaccent.smcp" unicode="&#xf68c;" horiz-adv-x="361" 
d="M274 0h-252l121 550h32l-115 -521h220zM156 -122q0 -37 -27 -74t-63 -56l-18 20q28 15 48 38t25 46h-6q-10 0 -18.5 8.5t-8.5 19.5q0 15 11 25.5t25 10.5q32 0 32 -38z" />
    <glyph glyph-name="Ldot.smcp" unicode="&#xf68d;" horiz-adv-x="374" 
d="M274 0h-252l121 550h32l-115 -521h220zM287 252q-13 0 -21.5 8.5t-8.5 21.5q0 15 10.5 25t25.5 10q13 0 21.5 -8.5t8.5 -21.5q0 -15 -10.5 -25t-25.5 -10z" />
    <glyph glyph-name="Nacute.smcp" unicode="&#xf68e;" horiz-adv-x="484" 
d="M355 0h-34l-159 490l-108 -490h-32l121 550h34l160 -483l107 483h32zM469 750l-167 -144h-29l151 144h45z" />
    <glyph glyph-name="Ncaron.smcp" unicode="&#xf68f;" horiz-adv-x="484" 
d="M355 0h-34l-159 490l-108 -490h-32l121 550h34l160 -483l107 483h32zM341 606h-36l-54 144h24l52 -118l102 118h27z" />
    <glyph glyph-name="Ncommaaccent.smcp" unicode="&#xf690;" horiz-adv-x="484" 
d="M355 0h-34l-159 490l-108 -490h-32l121 550h34l160 -483l107 483h32zM198 -122q0 -37 -27 -74t-63 -56l-18 20q28 15 48 38t25 46h-6q-10 0 -18.5 8.5t-8.5 19.5q0 15 11 25.5t25 10.5q32 0 32 -38z" />
    <glyph glyph-name="Obreve.smcp" unicode="&#xf691;" horiz-adv-x="514" 
d="M224 -12q-83 0 -130 53.5t-47 145.5q0 78 28 162t89 148.5t139 64.5q83 0 129.5 -53t46.5 -145q0 -78 -28 -162t-88.5 -149t-138.5 -65zM224 17q67 0 120 61t77.5 138.5t24.5 147.5q0 79 -37.5 124t-105.5 45q-67 0 -120.5 -61t-78 -138.5t-24.5 -146.5q0 -80 37.5 -125
t106.5 -45zM499 682q-70 -73 -161 -73t-130 73l23 19q14 -30 44 -47.5t67 -17.5q80 0 137 65z" />
    <glyph glyph-name="Ohungarumlaut.smcp" unicode="&#xf692;" horiz-adv-x="514" 
d="M224 -12q-83 0 -130 53.5t-47 145.5q0 78 28 162t89 148.5t139 64.5q83 0 129.5 -53t46.5 -145q0 -78 -28 -162t-88.5 -149t-138.5 -65zM224 17q67 0 120 61t77.5 138.5t24.5 147.5q0 79 -37.5 124t-105.5 45q-67 0 -120.5 -61t-78 -138.5t-24.5 -146.5q0 -80 37.5 -125
t106.5 -45zM405 750l-127 -144h-25l111 144h41zM526 750l-127 -144h-25l111 144h41z" />
    <glyph glyph-name="Omacron.smcp" unicode="&#xf693;" horiz-adv-x="514" 
d="M224 -12q-83 0 -130 53.5t-47 145.5q0 78 28 162t89 148.5t139 64.5q83 0 129.5 -53t46.5 -145q0 -78 -28 -162t-88.5 -149t-138.5 -65zM224 17q67 0 120 61t77.5 138.5t24.5 147.5q0 79 -37.5 124t-105.5 45q-67 0 -120.5 -61t-78 -138.5t-24.5 -146.5q0 -80 37.5 -125
t106.5 -45zM493 636h-301l6 27h301z" />
    <glyph glyph-name="Oslashacute.smcp" unicode="&#xf694;" horiz-adv-x="514" 
d="M224 -12q-81 0 -127 49l-28 -37h-34l45 59q-33 52 -33 128q0 78 28 162t89 148.5t139 64.5q79 0 125 -48l28 36h35l-45 -59q33 -52 33 -127q0 -78 -28 -162t-88.5 -149t-138.5 -65zM224 17q67 0 120 61t77.5 138.5t24.5 147.5q0 57 -22 99l-307 -401q37 -45 107 -45z
M80 187q0 -61 21 -101l307 402q-37 45 -105 45q-67 0 -120.5 -61t-78 -138.5t-24.5 -146.5zM486 750l-167 -144h-29l151 144h45z" />
    <glyph glyph-name="Racute.smcp" unicode="&#xf695;" horiz-adv-x="414" 
d="M313 0h-38l-76 235h-93l-52 -235h-32l121 550h127q56 0 91.5 -35t35.5 -91q0 -72 -43.5 -127t-121.5 -61zM215 264h12q63 0 99.5 49.5t36.5 110.5q0 45 -28 71t-71 26h-95l-57 -257h103zM431 750l-167 -144h-29l151 144h45z" />
    <glyph glyph-name="Rcaron.smcp" unicode="&#xf696;" horiz-adv-x="414" 
d="M313 0h-38l-76 235h-93l-52 -235h-32l121 550h127q56 0 91.5 -35t35.5 -91q0 -72 -43.5 -127t-121.5 -61zM215 264h12q63 0 99.5 49.5t36.5 110.5q0 45 -28 71t-71 26h-95l-57 -257h103zM303 606h-36l-54 144h24l52 -118l102 118h27z" />
    <glyph glyph-name="Rcommaaccent.smcp" unicode="&#xf697;" horiz-adv-x="414" 
d="M313 0h-38l-76 235h-93l-52 -235h-32l121 550h127q56 0 91.5 -35t35.5 -91q0 -72 -43.5 -127t-121.5 -61zM215 264h12q63 0 99.5 49.5t36.5 110.5q0 45 -28 71t-71 26h-95l-57 -257h103zM163 -122q0 -37 -27 -74t-63 -56l-18 20q28 15 48 38t25 46h-6q-10 0 -18.5 8.5
t-8.5 19.5q0 15 11 25.5t25 10.5q32 0 32 -38z" />
    <glyph glyph-name="Sacute.smcp" unicode="&#xf698;" horiz-adv-x="382" 
d="M158 -12q-107 0 -159 78l28 19q19 -31 54 -49.5t77 -18.5q62 0 95.5 38.5t33.5 93.5q0 35 -20.5 62.5t-49.5 47t-58.5 39t-50 48t-20.5 64.5q0 64 47 108t109 44q94 0 137 -66l-25 -20q-35 57 -112 57q-49 0 -85.5 -34.5t-36.5 -82.5q0 -31 20.5 -56.5t50 -44.5t59 -40
t50 -53t20.5 -73q0 -64 -44 -112.5t-120 -48.5zM420 750l-167 -144h-29l151 144h45z" />
    <glyph glyph-name="Scedilla.smcp" unicode="&#xf699;" horiz-adv-x="382" 
d="M100 -187q-55 0 -85 35l19 25q26 -33 69 -33q30 0 47.5 16.5t17.5 40.5q0 33 -36 33q-20 0 -36 -17l-18 13l38 66q-78 13 -117 74l28 19q19 -31 54 -49.5t77 -18.5q62 0 95.5 38.5t33.5 93.5q0 35 -20.5 62.5t-49.5 47t-58.5 39t-50 48t-20.5 64.5q0 64 47 108t109 44
q94 0 137 -66l-25 -20q-35 57 -112 57q-49 0 -85.5 -34.5t-36.5 -82.5q0 -31 20.5 -56.5t50 -44.5t59 -40t50 -53t20.5 -73q0 -64 -44 -112.5t-120 -48.5q-2 0 -7 0.5t-7 0.5l-28 -48q12 11 30 11q23 0 37 -14.5t14 -39.5q0 -36 -27.5 -60.5t-69.5 -24.5z" />
    <glyph glyph-name="Scircumflex.smcp" unicode="&#xf69a;" horiz-adv-x="382" 
d="M158 -12q-107 0 -159 78l28 19q19 -31 54 -49.5t77 -18.5q62 0 95.5 38.5t33.5 93.5q0 35 -20.5 62.5t-49.5 47t-58.5 39t-50 48t-20.5 64.5q0 64 47 108t109 44q94 0 137 -66l-25 -20q-35 57 -112 57q-49 0 -85.5 -34.5t-36.5 -82.5q0 -31 20.5 -56.5t50 -44.5t59 -40
t50 -53t20.5 -73q0 -64 -44 -112.5t-120 -48.5zM375 606h-23l-53 118l-101 -118h-28l115 144h36z" />
    <glyph glyph-name="Scommaaccent.smcp" unicode="&#xf69b;" horiz-adv-x="382" 
d="M158 -12q-107 0 -159 78l28 19q19 -31 54 -49.5t77 -18.5q62 0 95.5 38.5t33.5 93.5q0 35 -20.5 62.5t-49.5 47t-58.5 39t-50 48t-20.5 64.5q0 64 47 108t109 44q94 0 137 -66l-25 -20q-35 57 -112 57q-49 0 -85.5 -34.5t-36.5 -82.5q0 -31 20.5 -56.5t50 -44.5t59 -40
t50 -53t20.5 -73q0 -64 -44 -112.5t-120 -48.5zM147 -122q0 -37 -27 -74t-63 -56l-18 20q28 15 48 38t25 46h-6q-10 0 -18.5 8.5t-8.5 19.5q0 15 11 25.5t25 10.5q32 0 32 -38z" />
    <glyph glyph-name="Tbar.smcp" unicode="&#xf69c;" horiz-adv-x="349" 
d="M136 0h-32l60 271h-92l6 27h92l49 223h-135l6 29h303l-6 -29h-136l-49 -223h93l-6 -27h-93z" />
    <glyph glyph-name="Tcaron.smcp" unicode="&#xf69d;" horiz-adv-x="349" 
d="M136 0h-32l115 521h-135l6 29h303l-6 -29h-136zM275 606h-36l-54 144h24l52 -118l102 118h27z" />
    <glyph glyph-name="Tcommaaccent.smcp" unicode="&#xf69e;" horiz-adv-x="349" 
d="M136 0h-32l115 521h-135l6 29h303l-6 -29h-136zM129 -122q0 -37 -27 -74t-63 -56l-18 20q28 15 48 38t25 46h-6q-10 0 -18.5 8.5t-8.5 19.5q0 15 11 25.5t25 10.5q32 0 32 -38z" />
    <glyph glyph-name="Ubreve.smcp" unicode="&#xf69f;" horiz-adv-x="477" 
d="M208 -12q-76 0 -115 35t-39 99q0 14 7 60l82 368h32l-84 -379q-5 -22 -5 -43q0 -111 122 -111q60 0 94 39t52 120l83 374h32l-82 -367q-22 -98 -62 -146.5t-117 -48.5zM481 682q-70 -73 -161 -73t-130 73l23 19q14 -30 44 -47.5t67 -17.5q80 0 137 65z" />
    <glyph glyph-name="Uhungarumlaut.smcp" unicode="&#xf6a0;" horiz-adv-x="477" 
d="M208 -12q-76 0 -115 35t-39 99q0 14 7 60l82 368h32l-84 -379q-5 -22 -5 -43q0 -111 122 -111q60 0 94 39t52 120l83 374h32l-82 -367q-22 -98 -62 -146.5t-117 -48.5zM384 750l-127 -144h-25l111 144h41zM505 750l-127 -144h-25l111 144h41z" />
    <glyph glyph-name="Umacron.smcp" unicode="&#xf6a1;" horiz-adv-x="477" 
d="M208 -12q-76 0 -115 35t-39 99q0 14 7 60l82 368h32l-84 -379q-5 -22 -5 -43q0 -111 122 -111q60 0 94 39t52 120l83 374h32l-82 -367q-22 -98 -62 -146.5t-117 -48.5zM476 631h-301l6 27h301z" />
    <glyph glyph-name="Uogonek.smcp" unicode="&#xf6a2;" horiz-adv-x="477" 
d="M208 -12q-76 0 -115 35t-39 99q0 14 7 60l82 368h32l-84 -379q-5 -22 -5 -43q0 -111 122 -111q60 0 94 39t52 120l83 374h32l-82 -367q-34 -151 -113 -183q-104 -52 -104 -122q0 -37 39 -37q35 0 53 41l21 -14q-28 -54 -78 -54q-29 0 -46 15.5t-17 44.5q0 63 66 114z" />
    <glyph glyph-name="Uring.smcp" unicode="&#xf6a3;" horiz-adv-x="477" 
d="M208 -12q-76 0 -115 35t-39 99q0 14 7 60l82 368h32l-84 -379q-5 -22 -5 -43q0 -111 122 -111q60 0 94 39t52 120l83 374h32l-82 -367q-22 -98 -62 -146.5t-117 -48.5zM332 610q-34 0 -55.5 22t-21.5 56q0 38 28.5 66t65.5 28q34 0 55.5 -22t21.5 -56q0 -38 -28 -66
t-66 -28zM332 634q29 0 49.5 20t20.5 48q0 24 -15 40t-38 16q-29 0 -49.5 -20.5t-20.5 -48.5q0 -23 15 -39t38 -16z" />
    <glyph glyph-name="Utilde.smcp" unicode="&#xf6a4;" horiz-adv-x="477" 
d="M208 -12q-76 0 -115 35t-39 99q0 14 7 60l82 368h32l-84 -379q-5 -22 -5 -43q0 -111 122 -111q60 0 94 39t52 120l83 374h32l-82 -367q-22 -98 -62 -146.5t-117 -48.5zM374 604q-24 0 -36 17.5t-14.5 39t-11.5 39t-26 17.5q-43 0 -67 -107h-25q30 134 99 134
q23 0 35 -17.5t14.5 -39t11.5 -39t26 -17.5q44 0 68 107h25q-28 -134 -99 -134z" />
    <glyph glyph-name="Wcircumflex.smcp" unicode="&#xf6a6;" horiz-adv-x="582" 
d="M473 606h-23l-53 118l-101 -118h-28l115 144h36zM384 0h-35l-5 485l-219 -485h-36l-7 550h34l3 -491l222 491h33l4 -492l221 492h35z" />
    <glyph glyph-name="Ycircumflex.smcp" unicode="&#xf6a9;" horiz-adv-x="408" 
d="M167 0h-32l52 238l-110 312h36l97 -278l217 278h38l-246 -312zM388 606h-23l-53 118l-101 -118h-28l115 144h36z" />
    <glyph glyph-name="Zacute.smcp" unicode="&#xf6ab;" horiz-adv-x="388" 
d="M298 0h-316l5 28l383 493h-273l6 29h310l-6 -28l-382 -493h279zM421 750l-167 -144h-29l151 144h45z" />
    <glyph glyph-name="Zdotaccent.smcp" unicode="&#xf6ac;" horiz-adv-x="388" 
d="M298 0h-316l5 28l383 493h-273l6 29h310l-6 -28l-382 -493h279zM318 673q0 -13 -9.5 -22.5t-22.5 -9.5q-11 0 -18.5 7.5t-7.5 18.5q0 13 9.5 22.5t22.5 9.5q11 0 18.5 -7.5t7.5 -18.5z" />
    <glyph glyph-name="Idotaccent.smcp" unicode="&#xf6ad;" horiz-adv-x="161" 
d="M43 0h-32l121 550h32zM203 673q0 -13 -9.5 -22.5t-22.5 -9.5q-11 0 -18.5 7.5t-7.5 18.5q0 13 9.5 22.5t22.5 9.5q11 0 18.5 -7.5t7.5 -18.5z" />
    <glyph glyph-name="parenleft.case" unicode="&#xf6ae;" horiz-adv-x="187" 
d="M94 -102l-19 -7q-33 112 -33 231q0 341 228 653l15 -10q-213 -332 -213 -668q0 -92 22 -199z" />
    <glyph glyph-name="parenright.case" unicode="&#xf6af;" horiz-adv-x="187" 
d="M132 768l19 7q33 -112 33 -230q0 -342 -228 -654l-16 10q214 332 214 669q0 91 -22 198z" />
    <glyph glyph-name="bracketleft.case" unicode="&#xf6b0;" horiz-adv-x="187" 
d="M93 -100h-135l192 868h136l-7 -30h-106l-179 -808h106z" />
    <glyph glyph-name="bracketright.case" unicode="&#xf6b1;" horiz-adv-x="187" 
d="M76 -100h-135l7 30h105l179 808h-106l7 30h136z" />
    <glyph glyph-name="braceleft.case" unicode="&#xf6b2;" horiz-adv-x="212" 
d="M118 -100h-39q-31 0 -54 21.5t-23 57.5q0 11 3 26l54 242q3 18 3 19q0 24 -10 38.5t-29 14.5l7 30q53 0 68 72l54 244q12 52 41.5 77.5t70.5 25.5h47l-7 -30h-47q-58 0 -75 -73l-55 -247q-14 -69 -64 -87q29 -15 29 -53q0 -18 -4 -34l-53 -241q-2 -12 -2 -19
q0 -24 14 -39t34 -15h44z" />
    <glyph glyph-name="braceright.case" unicode="&#xf6b3;" horiz-adv-x="212" 
d="M133 768h39q31 0 54 -22t23 -58q0 -13 -3 -25l-54 -242q-2 -10 -2 -19q0 -23 9.5 -38t28.5 -15l-7 -30q-51 0 -68 -72l-54 -244q-23 -103 -112 -103h-47l7 30h47q60 0 75 73l55 248q14 67 64 87q-29 14 -29 53q0 18 4 34l53 240q2 12 2 19q0 24 -13.5 39t-34.5 15h-44z
" />
    <glyph glyph-name="exclamdown.case" unicode="&#xf6b4;" horiz-adv-x="208" 
d="M151 506h20l-101 -506h-42zM194 676q13 0 21.5 -8.5t8.5 -21.5q0 -15 -10.5 -25t-25.5 -10q-13 0 -21.5 8.5t-8.5 21.5q0 15 10.5 25t25.5 10z" />
    <glyph glyph-name="questiondown.case" unicode="&#xf6b5;" horiz-adv-x="385" 
d="M226 475l27 20q21 -29 21 -68t-23.5 -71t-57.5 -55t-68 -47t-57.5 -58.5t-23.5 -77.5q0 -44 32 -73.5t87 -29.5q70 0 128 53l16 -24q-65 -59 -144 -59q-70 0 -112 38t-42 92q0 47 24 85t58 64t68.5 49t58.5 51t24 59t-16 52zM286 672q13 0 21.5 -8.5t8.5 -21.5
q0 -15 -10.5 -25t-25.5 -10q-13 0 -21.5 8.5t-8.5 21.5q0 15 10.5 25t25.5 10z" />
    <glyph glyph-name="guillemotleft.case" unicode="&#xf6b6;" horiz-adv-x="319" 
d="M169 162h-33l-85 180l165 177h39l-168 -181zM267 162h-33l-85 180l165 177h39l-169 -181z" />
    <glyph glyph-name="guillemotright.case" unicode="&#xf6b7;" horiz-adv-x="319" 
d="M97 519h33l85 -180l-165 -177h-39l169 182zM195 519h33l85 -180l-165 -177h-39l168 182z" />
    <glyph glyph-name="guilsinglleft.case" unicode="&#xf6b8;" horiz-adv-x="221" 
d="M169 162h-33l-85 180l165 177h39l-168 -181z" />
    <glyph glyph-name="guilsinglright.case" unicode="&#xf6b9;" horiz-adv-x="221" 
d="M97 519h33l85 -180l-165 -177h-39l169 182z" />
    <glyph glyph-name="hyphen.case" unicode="&#xf6ba;" horiz-adv-x="265" 
d="M253 326h-205l6 30h205z" />
    <glyph glyph-name="endash.case" unicode="&#xf6bb;" horiz-adv-x="527" 
d="M515 326h-467l6 30h467z" />
    <glyph glyph-name="emdash.case" unicode="&#xf6bc;" horiz-adv-x="737" 
d="M725 326h-677l6 30h677z" />
    <glyph glyph-name="periodcentered.case" unicode="&#xf6bd;" horiz-adv-x="208" 
d="M122 310q-13 0 -21.5 8.5t-8.5 21.5q0 15 10.5 25t25.5 10q13 0 21.5 -8.5t8.5 -21.5q0 -15 -10.5 -25t-25.5 -10z" />
    <glyph glyph-name="bullet.case" unicode="&#xf6be;" horiz-adv-x="358" 
d="M300 351q0 -43 -33 -75t-77 -32q-38 0 -63 25t-25 63q0 43 33 75t77 32q38 0 63 -25.5t25 -62.5z" />
    <glyph glyph-name="cent.case" unicode="&#xf6bf;" horiz-adv-x="394" 
d="M220 79q-12 0 -18 1l-20 -89h-30l21 94q-51 14 -81 59t-30 118q0 71 26 143t78.5 124.5t117.5 55.5l16 71h30l-16 -72q67 -7 101 -65l-24 -19q-27 49 -83 58l-100 -452h13q59 0 103 51l18 -21q-56 -57 -122 -57zM95 257q0 -119 84 -145l99 446q-43 -4 -79 -35t-58 -76
t-34 -95t-12 -95z" />
    <glyph glyph-name="commaaccent" unicode="&#xf6c3;" horiz-adv-x="208" 
d="M57 -122q0 -37 -27 -74t-63 -56l-18 20q28 15 48 38t25 46h-6q-10 0 -18.5 8.5t-8.5 19.5q0 15 11 25.5t25 10.5q32 0 32 -38z" />
    <glyph glyph-name="one.tnum" unicode="&#xf6dc;" horiz-adv-x="463" 
d="M241 0h-32l137 621l-130 -115l-17 23l159 138h30z" />
    <glyph glyph-name="rupiah" unicode="&#xf6dd;" horiz-adv-x="882" 
d="M365 0h-35l-88 289h-120l-64 -289h-32l147 667h150q59 0 101 -41t42 -106q0 -93 -53 -157.5t-139 -71.5zM259 319h1q80 0 125 60t45 141q0 54 -31 85.5t-76 31.5h-124l-71 -318h131zM623 -12q-44 0 -78.5 25t-52.5 69l-58 -266h-31l149 667h30l-16 -71q54 83 136 83
q63 0 100.5 -44t37.5 -121q0 -74 -25 -151t-76.5 -134t-115.5 -57zM624 15q53 0 97 54.5t65 125t21 134.5q0 68 -29 103.5t-81 35.5q-40 0 -79 -29.5t-63 -72.5l-55 -251q11 -42 45 -71t79 -29z" />
    <glyph glyph-name="centinferior" unicode="&#xf6df;" horiz-adv-x="254" 
d="M46 -151l12 57q-36 9 -55.5 38t-19.5 74q0 69 41.5 127t99.5 61l10 42h24l-10 -44q45 -7 68 -46l-21 -15q-18 33 -52 39l-57 -257h6q38 0 66 32l14 -18q-33 -37 -82 -37h-9l-11 -53h-24zM12 18q0 -70 51 -88l56 252q-46 -6 -76.5 -57t-30.5 -107z" />
    <glyph glyph-name="centsuperior" unicode="&#xf6e0;" horiz-adv-x="254" 
d="M171 416l12 57q-75 19 -75 112q0 69 41.5 127t99.5 61l10 42h24l-10 -44q45 -7 68 -46l-21 -15q-18 33 -52 39l-57 -257h6q38 0 66 32l14 -18q-33 -37 -82 -37h-9l-11 -53h-24zM137 585q0 -71 51 -89l56 253q-46 -6 -76.5 -57t-30.5 -107z" />
    <glyph glyph-name="commainferior" unicode="&#xf6e1;" horiz-adv-x="127" 
d="M4 -128q0 -26 -20 -52t-41 -39l-13 16q39 24 45 53q-2 -1 -4 -1q-7 0 -13 6t-6 15q0 12 8.5 19.5t19.5 7.5q9 0 16.5 -7t7.5 -18z" />
    <glyph glyph-name="commasuperior" unicode="&#xf6e2;" horiz-adv-x="127" 
d="M129 439q0 -26 -20 -52t-41 -39l-13 16q39 24 45 53q-2 -1 -4 -1q-7 0 -13 6t-6 15q0 12 8.5 19.5t19.5 7.5q9 0 16.5 -7t7.5 -18z" />
    <glyph glyph-name="dollarinferior" unicode="&#xf6e3;" horiz-adv-x="291" 
d="M78 -153h-3l-11 -53h-26l12 55q-68 9 -97 57l23 19q27 -42 79 -51l39 177q-26 15 -40 25t-27.5 30t-13.5 44q0 45 34.5 77.5t85.5 32.5h7l13 55h26l-13 -59q52 -11 77 -48l-21 -19q-20 32 -62 43l-36 -163q25 -15 39.5 -26.5t27.5 -32t13 -45.5q0 -48 -33.5 -83
t-92.5 -35zM173 -36q0 41 -56 74l-36 -166q40 2 66 27.5t26 64.5zM44 153q0 -22 14.5 -37.5t42.5 -32.5l34 152h-2q-36 0 -62.5 -23.5t-26.5 -58.5z" />
    <glyph glyph-name="dollarsuperior" unicode="&#xf6e4;" horiz-adv-x="291" 
d="M203 414h-3l-11 -53h-26l12 55q-70 9 -97 57l23 19q25 -43 79 -51l39 177q-26 15 -40 25t-27.5 30t-13.5 44q0 45 34.5 77.5t85.5 32.5h7l13 55h26l-13 -59q52 -11 77 -48l-21 -19q-20 32 -62 43l-36 -163q25 -15 39.5 -26.5t27.5 -32t13 -45.5q0 -48 -33.5 -83
t-92.5 -35zM298 531q0 41 -56 74l-36 -166q40 1 66 26.5t26 65.5zM169 720q0 -22 14.5 -37.5t42.5 -32.5l34 152h-2q-36 0 -62.5 -23.5t-26.5 -58.5z" />
    <glyph glyph-name="hypheninferior" unicode="&#xf6e5;" horiz-adv-x="166" 
d="M103 41h-130l5 25h130z" />
    <glyph glyph-name="hyphensuperior" unicode="&#xf6e6;" horiz-adv-x="166" 
d="M228 609h-130l5 25h130z" />
    <glyph glyph-name="periodinferior" unicode="&#xf6e7;" horiz-adv-x="129" 
d="M6 -125q0 -10 -8.5 -18t-19.5 -8q-22 0 -22 22q0 10 8.5 18t19.5 8q22 0 22 -22z" />
    <glyph glyph-name="periodsuperior" unicode="&#xf6e8;" horiz-adv-x="129" 
d="M131 442q0 -10 -8.5 -18t-19.5 -8q-22 0 -22 22q0 10 8.5 18t19.5 8q22 0 22 -22z" />
    <glyph glyph-name="asuperior" unicode="&#xf6e9;" horiz-adv-x="317" 
d="M239 624q-50 0 -85.5 -60.5t-35.5 -126.5q0 -46 20 -70.5t54 -24.5q53 0 96 65l35 158q-8 25 -31.5 42t-52.5 17zM339 640h28l-69 -314h-28l11 50q-42 -58 -96 -58q-43 0 -69.5 30t-26.5 89q0 76 42 143.5t106 67.5q30 0 55 -15.5t37 -41.5z" />
    <glyph glyph-name="bsuperior" unicode="&#xf6ea;" horiz-adv-x="341" 
d="M207 342q50 0 85.5 60.5t35.5 126.5q0 46 -20 70.5t-54 24.5q-52 0 -96 -64l-35 -158q8 -26 31.5 -43t52.5 -17zM107 326h-28l96 434h28l-38 -170q41 58 96 58q43 0 69.5 -30t26.5 -89q0 -76 -42 -143.5t-106 -67.5q-30 0 -55 15.5t-37 41.5z" />
    <glyph glyph-name="dsuperior" unicode="&#xf6eb;" horiz-adv-x="340" 
d="M239 624q-50 0 -85.5 -60.5t-35.5 -126.5q0 -46 20 -70.5t54 -24.5q53 0 96 65l35 158q-8 25 -31.5 42t-52.5 17zM366 760h28l-96 -434h-28l11 50q-42 -58 -96 -58q-43 0 -69.5 30t-26.5 89q0 76 42 143.5t106 67.5q30 0 55 -15.5t37 -41.5z" />
    <glyph glyph-name="esuperior" unicode="&#xf6ec;" horiz-adv-x="335" 
d="M210 318q-55 0 -87.5 33t-32.5 92q0 77 46 141t111 64q52 0 79 -35t27 -85q0 -28 -6 -54h-226q-3 -24 -3 -30q0 -44 25 -73.5t67 -29.5q47 0 89 40l13 -17q-46 -46 -102 -46zM320 497h3q3 12 3 28q0 45 -21 72.5t-60 27.5q-45 0 -77 -39.5t-43 -88.5h195z" />
    <glyph glyph-name="isuperior" unicode="&#xf6ed;" horiz-adv-x="137" 
d="M170 696q-8 0 -14 6t-6 14q0 10 8 18t19 8q8 0 14 -6t6 -14q0 -10 -8 -18t-19 -8zM101 326h-28l69 314h28z" />
    <glyph glyph-name="lsuperior" unicode="&#xf6ee;" horiz-adv-x="149" 
d="M107 326h-28l96 434h28z" />
    <glyph glyph-name="msuperior" unicode="&#xf6ef;" horiz-adv-x="472" 
d="M430 326h-27l52 234q2 16 2 20q0 45 -48 45q-41 0 -89 -62l-52 -237h-27l52 234q3 12 3 20q0 45 -49 45q-43 0 -88 -62l-52 -237h-28l69 314h28l-10 -47q15 21 40.5 38t52.5 17q58 0 66 -57q40 57 95 57q29 0 47 -15t18 -45q0 -10 -3 -26z" />
    <glyph glyph-name="osuperior" unicode="&#xf6f0;" horiz-adv-x="339" 
d="M200 318q-52 0 -81 32.5t-29 89.5q0 73 43.5 140.5t110.5 67.5q52 0 81 -32.5t29 -89.5q0 -72 -43.5 -140t-110.5 -68zM200 344q55 0 90 60t35 122q0 44 -22 69.5t-60 25.5q-55 0 -89 -59.5t-34 -121.5q0 -44 21.5 -70t58.5 -26z" />
    <glyph glyph-name="rsuperior" unicode="&#xf6f1;" horiz-adv-x="201" 
d="M107 326h-28l69 314h28l-12 -54q27 31 51 45.5t57 14.5l-7 -30q-3 1 -14 1q-24 0 -50.5 -18t-43.5 -43z" />
    <glyph glyph-name="ssuperior" unicode="&#xf6f2;" horiz-adv-x="268" 
d="M162 318q-68 0 -102 53l21 16q27 -46 81 -46q34 0 56.5 20t22.5 48q0 24 -21.5 42.5t-46.5 29t-46.5 31.5t-21.5 50q0 35 29 60.5t73 25.5q62 0 93 -47l-20 -17q-25 41 -76 41q-32 0 -51 -18t-19 -45q0 -21 21 -38t46 -27t46 -32.5t21 -53.5q0 -36 -29 -64.5t-77 -28.5z
" />
    <glyph glyph-name="tsuperior" unicode="&#xf6f3;" horiz-adv-x="170" 
d="M138 318q-50 0 -50 43q0 13 3 22l51 234h-44l5 23h44l19 86h28l-19 -86h56l-5 -23h-56l-52 -233q-2 -14 -2 -18q0 -24 26 -24q16 0 30 12l9 -20q-19 -16 -43 -16z" />
    <glyph glyph-name="Lslash.smcp" unicode="&#xf6f9;" horiz-adv-x="390" 
d="M11 208l7 34l97 50l57 258h32l-53 -240l94 49l-7 -34l-95 -49l-54 -247h220l-6 -29h-252l56 258z" />
    <glyph glyph-name="OE.smcp" unicode="&#xf6fa;" horiz-adv-x="735" 
d="M629 0h-270l18 80q-58 -92 -153 -92q-83 0 -130 53.5t-47 145.5q0 54 17.5 117t48 121.5t81 97.5t109.5 39q56 0 97 -29.5t57 -91.5l23 109h270l-6 -29h-238l-50 -223h232l-6 -29h-232l-53 -240h238zM395 166l49 220q-9 73 -47 110t-94 37q-63 0 -116.5 -61.5t-80 -140
t-26.5 -144.5q0 -80 38.5 -125t105.5 -45q56 0 99.5 39t71.5 110z" />
    <glyph glyph-name="Scaron.smcp" unicode="&#xf6fd;" horiz-adv-x="382" 
d="M158 -12q-107 0 -159 78l28 19q19 -31 54 -49.5t77 -18.5q62 0 95.5 38.5t33.5 93.5q0 35 -20.5 62.5t-49.5 47t-58.5 39t-50 48t-20.5 64.5q0 64 47 108t109 44q94 0 137 -66l-25 -20q-35 57 -112 57q-49 0 -85.5 -34.5t-36.5 -82.5q0 -31 20.5 -56.5t50 -44.5t59 -40
t50 -53t20.5 -73q0 -64 -44 -112.5t-120 -48.5zM292 606h-36l-54 144h24l52 -118l102 118h27z" />
    <glyph glyph-name="Zcaron.smcp" unicode="&#xf6ff;" horiz-adv-x="388" 
d="M298 0h-316l5 28l383 493h-273l6 29h310l-6 -28l-382 -493h279zM291 606h-36l-54 144h24l52 -118l102 118h27z" />
    <glyph glyph-name="exclam.smcp" unicode="&#xf721;" horiz-adv-x="167" 
d="M171 550l-103 -418h-20l81 418h42zM31 -9q-13 0 -21.5 8.5t-8.5 21.5q0 15 10.5 25t25.5 10q13 0 21.5 -8.5t8.5 -21.5q0 -15 -10.5 -25t-25.5 -10z" />
    <glyph glyph-name="dollar.onum" unicode="&#xf724;" horiz-adv-x="382" 
d="M158 -12h-7l-14 -62h-30l14 65q-82 13 -122 75l28 19q31 -53 101 -66l57 260q-24 16 -37 26t-29 26.5t-23.5 36t-7.5 42.5q0 64 47 108t109 44h4l15 66h30l-15 -69q68 -11 103 -63l-25 -20q-29 45 -85 55l-52 -234q33 -23 51 -38.5t35 -45t17 -64.5q0 -64 -44 -112.5
t-120 -48.5zM287 149q0 36 -19.5 61.5t-56.5 50.5l-54 -244h1q62 0 95.5 38.5t33.5 93.5zM122 416q0 -31 18 -54t53 -47l49 218q-48 -1 -84 -35.5t-36 -81.5z" />
    <glyph glyph-name="ampersand.smcp" unicode="&#xf726;" horiz-adv-x="424" 
d="M339 0h-41q-7 12 -19 32.5t-16 27.5q-67 -72 -136 -72q-55 0 -89 33.5t-34 86.5q0 70 37 114t104 85q-15 48 -15 85q0 70 37.5 120t88.5 50q35 0 59 -22t24 -63q0 -22 -5 -41t-19 -37t-23.5 -28.5t-34.5 -27t-34 -22t-39 -23.5q16 -42 39 -86q43 -88 47 -96q45 59 86 145
l27 -13q-48 -100 -97 -161q23 -41 53 -87zM127 16q57 0 120 72q-32 58 -50 99q-23 45 -42 93q-56 -35 -87 -74t-31 -97q0 -40 24.5 -66.5t65.5 -26.5zM162 392q0 -30 12 -68q33 19 51 31t40 31.5t32 41.5t10 49t-13.5 42t-38.5 15q-38 0 -65.5 -42t-27.5 -100z" />
    <glyph glyph-name="zero.onum" unicode="&#xf730;" horiz-adv-x="491" 
d="M451 368q0 -44 -14.5 -105t-41.5 -124.5t-75.5 -107t-107.5 -43.5q-76 0 -118 50t-42 144q0 34 8.5 80t27.5 99.5t46 97.5t68.5 73.5t89.5 29.5q76 0 117.5 -49.5t41.5 -144.5zM418 372q0 160 -128 160q-51 0 -93 -42.5t-65 -102.5t-35 -115.5t-12 -92.5q0 -161 129 -161
q51 0 93 42.5t64.5 103t34.5 116t12 92.5z" />
    <glyph glyph-name="one.onum" unicode="&#xf731;" horiz-adv-x="260" 
d="M126 0h-32l111 504l-130 -115l-17 23l159 138h30z" />
    <glyph glyph-name="two.onum" unicode="&#xf732;" horiz-adv-x="461" 
d="M322 0h-312l6 29q194 127 283 217t89 174q0 52 -32.5 82t-83.5 30q-86 0 -150 -86l-25 19q73 97 175 97q68 0 109.5 -37.5t41.5 -103.5q0 -88 -88.5 -182.5t-262.5 -208.5h256z" />
    <glyph glyph-name="three.onum" unicode="&#xf733;" horiz-adv-x="439" 
d="M152 -129q-64 0 -111.5 36.5t-61.5 99.5l32 12q13 -56 50.5 -87t90.5 -31q71 0 115 59t44 139q0 54 -35.5 84t-89.5 30q-29 0 -38 -1l8 32q8 -1 65 -1q65 0 109.5 51t44.5 125q0 51 -32.5 81t-88.5 30q-79 0 -139 -79l-24 19q29 40 73 65t92 25q68 0 110.5 -37t42.5 -104
q0 -74 -45.5 -130.5t-109.5 -65.5q41 -13 65.5 -48.5t24.5 -81.5q0 -87 -54 -154.5t-138 -67.5z" />
    <glyph glyph-name="four.onum" unicode="&#xf734;" horiz-adv-x="417" 
d="M355 78h-78l-43 -195h-32l43 195h-257l7 33l344 439h42l-98 -442h78zM251 108l89 399l-313 -399h224z" />
    <glyph glyph-name="five.onum" unicode="&#xf735;" horiz-adv-x="461" 
d="M170 -129q-67 0 -106 34.5t-58 100.5l33 11q26 -116 135 -116q66 0 117.5 73.5t51.5 164.5q0 59 -31.5 91.5t-85.5 32.5q-63 0 -126 -57l-22 18l72 326h289l-6 -30h-257l-61 -275q46 48 118 48q62 0 103 -41t41 -113q0 -104 -60.5 -186t-146.5 -82z" />
    <glyph glyph-name="six.onum" unicode="&#xf736;" horiz-adv-x="464" 
d="M202 -12q-75 0 -110.5 51.5t-35.5 139.5q0 44 8.5 103t29 129t50 128.5t76.5 98t104 39.5q53 0 91 -29.5t50 -81.5l-30 -14q-9 44 -38.5 69.5t-74.5 25.5q-150 0 -218 -324q-1 -5 -3 -17q27 40 71 70t92 30q65 0 104.5 -38t39.5 -108q0 -99 -58 -185.5t-148 -86.5z
M207 18q72 0 120 79t48 162q0 53 -30.5 85t-84.5 32q-88 0 -167 -120q-7 -37 -7 -86q0 -70 30.5 -111t90.5 -41z" />
    <glyph glyph-name="seven.onum" unicode="&#xf737;" horiz-adv-x="384" 
d="M57 -117h-36l356 637h-286l6 30h324l-5 -22z" />
    <glyph glyph-name="eight.onum" unicode="&#xf738;" horiz-adv-x="455" 
d="M197 -12q-75 0 -120 36.5t-45 105.5q0 76 49 133.5t134 84.5q-38 21 -66 59t-28 84q0 77 53.5 131.5t126.5 54.5q65 0 109 -36.5t44 -102.5q0 -78 -49 -128t-122 -69q41 -25 70.5 -65.5t29.5 -90.5q0 -83 -54.5 -140t-131.5 -57zM253 359q69 12 117.5 58.5t48.5 121.5
q0 48 -34 77.5t-87 29.5q-58 0 -100.5 -44.5t-42.5 -113.5q0 -43 30.5 -79t67.5 -50zM196 18q59 0 106.5 48.5t47.5 120.5q0 53 -33.5 92t-69.5 52q-75 -13 -127.5 -67t-52.5 -129q0 -57 37 -87t92 -30z" />
    <glyph glyph-name="nine.onum" unicode="&#xf739;" horiz-adv-x="464" 
d="M274 561q75 0 111 -51.5t36 -139.5q0 -44 -8.5 -103t-29 -129t-50 -128.5t-77 -98t-104.5 -39.5q-53 0 -90.5 29.5t-50.5 81.5l30 15q10 -45 39 -70.5t74 -25.5q149 0 219 324q1 8 3 18q-28 -41 -72 -71t-92 -30q-65 0 -104.5 38.5t-39.5 108.5q0 62 24 123.5t73 104.5
t109 43zM270 531q-73 0 -121 -79t-48 -162q0 -52 30.5 -84.5t85.5 -32.5q86 0 167 120q7 49 7 86q0 70 -30.5 111t-90.5 41z" />
    <glyph glyph-name="question.smcp" unicode="&#xf73f;" horiz-adv-x="329" 
d="M346 453q0 -42 -21 -74.5t-50.5 -52.5t-59 -38t-50.5 -39.5t-21 -47.5q0 -22 19 -42l-27 -19q-23 28 -23 57q0 33 20.5 59.5t50 45t59.5 37.5t50.5 47.5t20.5 65.5q0 36 -26 58.5t-73 22.5q-65 0 -117 -52l-18 24q59 57 135 57q59 0 95 -30.5t36 -78.5zM108 -9
q-13 0 -21.5 8.5t-8.5 21.5q0 15 10.5 25t25.5 10q13 0 21.5 -8.5t8.5 -21.5q0 -15 -10.5 -25t-25.5 -10z" />
    <glyph glyph-name="A.smcp" unicode="&#xf761;" horiz-adv-x="409" 
d="M254 550h35l52 -550h-33l-13 146h-222l-77 -146h-37zM293 175l-29 331l-177 -331h206z" />
    <glyph glyph-name="B.smcp" unicode="&#xf762;" horiz-adv-x="413" 
d="M182 0h-160l121 550h123q57 0 94.5 -28.5t37.5 -84.5q0 -54 -28.5 -98.5t-81.5 -58.5q28 -11 45 -39.5t17 -62.5q0 -73 -45 -125.5t-123 -52.5zM60 29h128q56 0 91.5 44.5t35.5 104.5q0 42 -24 66.5t-68 24.5h-110zM238 298h10q53 0 84.5 43t31.5 96q0 84 -104 84h-91
l-51 -223h120z" />
    <glyph glyph-name="C.smcp" unicode="&#xf763;" horiz-adv-x="451" 
d="M231 -12q-84 0 -134 52t-50 149q0 83 31.5 168t94 145t137.5 60q49 0 89.5 -25.5t60.5 -69.5l-28 -14q-16 38 -49 59t-73 21q-63 0 -117 -54t-83 -133t-29 -157q0 -82 41 -127t109 -45q76 0 133 73l24 -18q-72 -84 -157 -84z" />
    <glyph glyph-name="D.smcp" unicode="&#xf764;" horiz-adv-x="479" 
d="M162 0h-140l121 550h107q88 0 140.5 -53.5t52.5 -146.5q0 -65 -18 -126t-51.5 -111.5t-88.5 -81.5t-123 -31zM168 29q109 0 175 99t66 222q0 82 -44 126.5t-121 44.5h-75l-109 -492h108z" />
    <glyph glyph-name="E.smcp" unicode="&#xf765;" horiz-adv-x="397" 
d="M291 0h-269l121 550h269l-6 -29h-237l-50 -223h232l-6 -29h-232l-53 -240h237z" />
    <glyph glyph-name="F.smcp" unicode="&#xf766;" horiz-adv-x="385" 
d="M54 0h-32l121 550h269l-6 -29h-237l-50 -223h232l-6 -29h-232z" />
    <glyph glyph-name="G.smcp" unicode="&#xf767;" horiz-adv-x="487" 
d="M232 -12q-84 0 -134.5 53t-50.5 144q0 65 19 131.5t52 121t83 89.5t108 35q52 0 92.5 -26.5t62.5 -69.5l-27 -15q-17 36 -51 59t-77 23q-65 0 -118.5 -55.5t-81.5 -134.5t-28 -158t41.5 -123.5t109.5 -44.5q70 0 117 43l40 179h-143l7 29h174l-49 -223q-64 -57 -146 -57z
" />
    <glyph glyph-name="H.smcp" unicode="&#xf768;" horiz-adv-x="486" 
d="M357 0h-32l59 269h-271l-59 -269h-32l121 550h32l-56 -252h271l56 252h32z" />
    <glyph glyph-name="I.smcp" unicode="&#xf769;" horiz-adv-x="183" 
d="M54 0h-32l121 550h32z" />
    <glyph glyph-name="J.smcp" unicode="&#xf76a;" horiz-adv-x="337" 
d="M88 -12q-88 0 -122 66l28 18q29 -55 93 -55q92 0 115 108l94 425h32l-94 -425q-30 -137 -146 -137z" />
    <glyph glyph-name="K.smcp" unicode="&#xf76b;" horiz-adv-x="418" 
d="M344 0h-39l-140 265l-69 -71l-42 -194h-32l121 550h32l-67 -305l296 305h43l-260 -263z" />
    <glyph glyph-name="L.smcp" unicode="&#xf76c;" horiz-adv-x="361" 
d="M274 0h-252l121 550h32l-115 -521h220z" />
    <glyph glyph-name="M.smcp" unicode="&#xf76d;" horiz-adv-x="567" 
d="M438 0h-32l110 499l-278 -499h-16l-58 499l-110 -499h-32l121 550h47l56 -471l264 471h49z" />
    <glyph glyph-name="N.smcp" unicode="&#xf76e;" horiz-adv-x="484" 
d="M355 0h-34l-159 490l-108 -490h-32l121 550h34l160 -483l107 483h32z" />
    <glyph glyph-name="O.smcp" unicode="&#xf76f;" horiz-adv-x="514" 
d="M224 -12q-83 0 -130 53.5t-47 145.5q0 78 28 162t89 148.5t139 64.5q83 0 129.5 -53t46.5 -145q0 -78 -28 -162t-88.5 -149t-138.5 -65zM224 17q67 0 120 61t77.5 138.5t24.5 147.5q0 79 -37.5 124t-105.5 45q-67 0 -120.5 -61t-78 -138.5t-24.5 -146.5q0 -80 37.5 -125
t106.5 -45z" />
    <glyph glyph-name="P.smcp" unicode="&#xf770;" horiz-adv-x="392" 
d="M54 0h-32l121 550h120q61 0 97 -33t36 -91q0 -75 -47 -133t-126 -58h-117zM229 264q60 0 96.5 49.5t36.5 112.5q0 46 -27.5 70.5t-77.5 24.5h-88l-57 -257h117z" />
    <glyph glyph-name="Q.smcp" unicode="&#xf771;" horiz-adv-x="514" 
d="M224 -12q-83 0 -130 53.5t-47 145.5q0 78 28 162t89 148.5t139 64.5q83 0 129.5 -53t46.5 -145q0 -86 -36.5 -181.5t-98.5 -148.5l22 -50l-26 -13l-20 45q-48 -28 -96 -28zM224 17q43 0 83 27l-49 114l27 13l46 -107q53 50 84 137t31 163q0 79 -37.5 124t-105.5 45
q-67 0 -120.5 -61t-78 -138.5t-24.5 -146.5q0 -80 37.5 -125t106.5 -45z" />
    <glyph glyph-name="R.smcp" unicode="&#xf772;" horiz-adv-x="414" 
d="M313 0h-38l-76 235h-93l-52 -235h-32l121 550h127q56 0 91.5 -35t35.5 -91q0 -72 -43.5 -127t-121.5 -61zM215 264h12q63 0 99.5 49.5t36.5 110.5q0 45 -28 71t-71 26h-95l-57 -257h103z" />
    <glyph glyph-name="S.smcp" unicode="&#xf773;" horiz-adv-x="382" 
d="M158 -12q-107 0 -159 78l28 19q19 -31 54 -49.5t77 -18.5q62 0 95.5 38.5t33.5 93.5q0 35 -20.5 62.5t-49.5 47t-58.5 39t-50 48t-20.5 64.5q0 64 47 108t109 44q94 0 137 -66l-25 -20q-35 57 -112 57q-49 0 -85.5 -34.5t-36.5 -82.5q0 -31 20.5 -56.5t50 -44.5t59 -40
t50 -53t20.5 -73q0 -64 -44 -112.5t-120 -48.5z" />
    <glyph glyph-name="T.smcp" unicode="&#xf774;" horiz-adv-x="349" 
d="M136 0h-32l115 521h-135l6 29h303l-6 -29h-136z" />
    <glyph glyph-name="U.smcp" unicode="&#xf775;" horiz-adv-x="477" 
d="M208 -12q-76 0 -115 35t-39 99q0 14 7 60l82 368h32l-84 -379q-5 -22 -5 -43q0 -111 122 -111q60 0 94 39t52 120l83 374h32l-82 -367q-22 -98 -62 -146.5t-117 -48.5z" />
    <glyph glyph-name="V.smcp" unicode="&#xf776;" horiz-adv-x="409" 
d="M168 0h-35l-52 550h33l45 -505l268 505h35z" />
    <glyph glyph-name="W.smcp" unicode="&#xf777;" horiz-adv-x="582" 
d="M384 0h-35l-5 485l-219 -485h-36l-7 550h34l3 -491l222 491h33l4 -492l221 492h35z" />
    <glyph glyph-name="X.smcp" unicode="&#xf778;" horiz-adv-x="412" 
d="M345 0h-37l-100 251l-209 -251h-40l236 281l-106 269h38l92 -239l197 239h40l-224 -268z" />
    <glyph glyph-name="Y.smcp" unicode="&#xf779;" horiz-adv-x="408" 
d="M167 0h-32l52 238l-110 312h36l97 -278l217 278h38l-246 -312z" />
    <glyph glyph-name="Z.smcp" unicode="&#xf77a;" horiz-adv-x="388" 
d="M298 0h-316l5 28l383 493h-273l6 29h310l-6 -28l-382 -493h279z" />
    <glyph glyph-name="exclamdown.smcp" unicode="&#xf7a1;" horiz-adv-x="167" 
d="M-4 0l103 418h20l-81 -418h-42zM136 559q13 0 21.5 -8.5t8.5 -21.5q0 -15 -10.5 -25t-25.5 -10q-13 0 -21.5 8.5t-8.5 21.5q0 15 10.5 25t25.5 10z" />
    <glyph glyph-name="questiondown.smcp" unicode="&#xf7b8;" horiz-adv-x="329" 
d="M-17 97q0 42 21 74.5t50.5 52.5t59 38t50.5 39.5t21 47.5q0 22 -19 42l27 19q23 -28 23 -57q0 -33 -20.5 -59.5t-50 -45t-59.5 -37.5t-50.5 -47.5t-20.5 -65.5q0 -36 26 -58.5t73 -22.5q65 0 117 52l18 -24q-59 -57 -135 -57q-59 0 -95 30.5t-36 78.5zM221 559
q13 0 21.5 -8.5t8.5 -21.5q0 -15 -10.5 -25t-25.5 -10q-13 0 -21.5 8.5t-8.5 21.5q0 15 10.5 25t25.5 10z" />
    <glyph glyph-name="Agrave.smcp" unicode="&#xf7e0;" horiz-adv-x="409" 
d="M254 550h35l52 -550h-33l-13 146h-222l-77 -146h-37zM293 175l-29 331l-177 -331h206zM331 606h-27l-103 144h43z" />
    <glyph glyph-name="Aacute.smcp" unicode="&#xf7e1;" horiz-adv-x="409" 
d="M254 550h35l52 -550h-33l-13 146h-222l-77 -146h-37zM293 175l-29 331l-177 -331h206zM433 750l-167 -144h-29l151 144h45z" />
    <glyph glyph-name="Acircumflex.smcp" unicode="&#xf7e2;" horiz-adv-x="409" 
d="M254 550h35l52 -550h-33l-13 146h-222l-77 -146h-37zM293 175l-29 331l-177 -331h206zM388 606h-23l-53 118l-101 -118h-28l115 144h36z" />
    <glyph glyph-name="Atilde.smcp" unicode="&#xf7e3;" horiz-adv-x="409" 
d="M254 550h35l52 -550h-33l-13 146h-222l-77 -146h-37zM293 175l-29 331l-177 -331h206zM340 604q-24 0 -36 17.5t-14.5 39t-11.5 39t-26 17.5q-43 0 -67 -107h-25q30 134 99 134q23 0 35 -17.5t14.5 -39t11.5 -39t26 -17.5q44 0 68 107h25q-28 -134 -99 -134z" />
    <glyph glyph-name="Adieresis.smcp" unicode="&#xf7e4;" horiz-adv-x="409" 
d="M254 550h35l52 -550h-33l-13 146h-222l-77 -146h-37zM293 175l-29 331l-177 -331h206zM402 651q0 -13 -9 -22t-22 -9q-11 0 -18 7t-7 18q0 13 9 22t22 9q11 0 18 -7t7 -18zM240 651q0 -13 -9 -22t-22 -9q-11 0 -18 7t-7 18q0 13 9 22t22 9q11 0 18 -7t7 -18z" />
    <glyph glyph-name="Aring.smcp" unicode="&#xf7e5;" horiz-adv-x="409" 
d="M254 550h35l52 -550h-33l-13 146h-222l-77 -146h-37zM293 175l-29 331l-177 -331h206zM296 610q-34 0 -55.5 22t-21.5 56q0 38 28.5 66t65.5 28q34 0 55.5 -22t21.5 -56q0 -38 -28 -66t-66 -28zM296 634q29 0 49.5 20t20.5 48q0 24 -15 40t-38 16q-29 0 -49.5 -20.5
t-20.5 -48.5q0 -23 15 -39t38 -16z" />
    <glyph glyph-name="AE.smcp" unicode="&#xf7e6;" horiz-adv-x="613" 
d="M507 0h-269l32 146h-175l-103 -146h-37l392 550h281l-6 -29h-237l-50 -223h231l-6 -29h-231l-53 -240h237zM276 175l74 332l-236 -332h162z" />
    <glyph glyph-name="Ccedilla.smcp" unicode="&#xf7e7;" horiz-adv-x="451" 
d="M174 -187q-55 0 -85 35l19 25q26 -33 69 -33q30 0 47.5 16.5t17.5 40.5q0 33 -36 33q-20 0 -36 -17l-18 13l38 66q-66 12 -104.5 62t-38.5 135q0 83 31.5 168t94 145t137.5 60q49 0 89.5 -25.5t60.5 -69.5l-28 -14q-16 38 -49 59t-73 21q-63 0 -117 -54t-83 -133
t-29 -157q0 -82 41 -127t109 -45q76 0 133 73l24 -18q-72 -84 -157 -84q-2 0 -6.5 0.5t-6.5 0.5l-28 -48q12 11 30 11q23 0 37 -14.5t14 -39.5q0 -36 -27.5 -60.5t-69.5 -24.5z" />
    <glyph glyph-name="Egrave.smcp" unicode="&#xf7e8;" horiz-adv-x="397" 
d="M291 0h-269l121 550h269l-6 -29h-237l-50 -223h232l-6 -29h-232l-53 -240h237zM340 606h-27l-103 144h43z" />
    <glyph glyph-name="Eacute.smcp" unicode="&#xf7e9;" horiz-adv-x="397" 
d="M291 0h-269l121 550h269l-6 -29h-237l-50 -223h232l-6 -29h-232l-53 -240h237zM442 750l-167 -144h-29l151 144h45z" />
    <glyph glyph-name="Ecircumflex.smcp" unicode="&#xf7ea;" horiz-adv-x="397" 
d="M291 0h-269l121 550h269l-6 -29h-237l-50 -223h232l-6 -29h-232l-53 -240h237zM395 606h-23l-53 118l-101 -118h-28l115 144h36z" />
    <glyph glyph-name="Edieresis.smcp" unicode="&#xf7eb;" horiz-adv-x="397" 
d="M291 0h-269l121 550h269l-6 -29h-237l-50 -223h232l-6 -29h-232l-53 -240h237zM409 651q0 -13 -9 -22t-22 -9q-10 0 -17.5 7t-7.5 18q0 13 9 22t22 9q10 0 17.5 -7t7.5 -18zM247 651q0 -13 -9 -22t-22 -9q-10 0 -17.5 7t-7.5 18q0 13 9 22t22 9q10 0 17.5 -7t7.5 -18z
" />
    <glyph glyph-name="Igrave.smcp" unicode="&#xf7ec;" horiz-adv-x="183" 
d="M54 0h-32l121 550h32zM218 606h-27l-103 144h43z" />
    <glyph glyph-name="Iacute.smcp" unicode="&#xf7ed;" horiz-adv-x="183" 
d="M54 0h-32l121 550h32zM321 750l-167 -144h-29l151 144h45z" />
    <glyph glyph-name="Icircumflex.smcp" unicode="&#xf7ee;" horiz-adv-x="183" 
d="M54 0h-32l121 550h32zM275 606h-23l-53 118l-101 -118h-28l115 144h36z" />
    <glyph glyph-name="Idieresis.smcp" unicode="&#xf7ef;" horiz-adv-x="183" 
d="M54 0h-32l121 550h32zM290 651q0 -13 -9 -22t-22 -9q-11 0 -18 7t-7 18q0 13 9 22t22 9q11 0 18 -7t7 -18zM128 651q0 -13 -9 -22t-22 -9q-11 0 -18 7t-7 18q0 13 9 22t22 9q11 0 18 -7t7 -18z" />
    <glyph glyph-name="Eth.smcp" unicode="&#xf7f0;" horiz-adv-x="503" 
d="M175 0h-140l59 268h-70l6 27h70l56 255h107q88 0 140.5 -53.5t52.5 -146.5q0 -65 -18 -126t-51.5 -111.5t-88.5 -81.5t-123 -31zM181 29q109 0 175 99t66 222q0 82 -44 126.5t-121 44.5h-75l-50 -226h114l-6 -27h-114l-53 -239h108z" />
    <glyph glyph-name="Ntilde.smcp" unicode="&#xf7f1;" horiz-adv-x="484" 
d="M355 0h-34l-159 490l-108 -490h-32l121 550h34l160 -483l107 483h32zM376 604q-24 0 -36 17.5t-14.5 39t-11.5 39t-26 17.5q-43 0 -67 -107h-25q30 134 99 134q23 0 35 -17.5t14.5 -39t11.5 -39t26 -17.5q44 0 68 107h25q-28 -134 -99 -134z" />
    <glyph glyph-name="Ograve.smcp" unicode="&#xf7f2;" horiz-adv-x="514" 
d="M224 -12q-83 0 -130 53.5t-47 145.5q0 78 28 162t89 148.5t139 64.5q83 0 129.5 -53t46.5 -145q0 -78 -28 -162t-88.5 -149t-138.5 -65zM224 17q67 0 120 61t77.5 138.5t24.5 147.5q0 79 -37.5 124t-105.5 45q-67 0 -120.5 -61t-78 -138.5t-24.5 -146.5q0 -80 37.5 -125
t106.5 -45zM383 606h-27l-103 144h43z" />
    <glyph glyph-name="Oacute.smcp" unicode="&#xf7f3;" horiz-adv-x="514" 
d="M224 -12q-83 0 -130 53.5t-47 145.5q0 78 28 162t89 148.5t139 64.5q83 0 129.5 -53t46.5 -145q0 -78 -28 -162t-88.5 -149t-138.5 -65zM224 17q67 0 120 61t77.5 138.5t24.5 147.5q0 79 -37.5 124t-105.5 45q-67 0 -120.5 -61t-78 -138.5t-24.5 -146.5q0 -80 37.5 -125
t106.5 -45zM486 750l-167 -144h-29l151 144h45z" />
    <glyph glyph-name="Ocircumflex.smcp" unicode="&#xf7f4;" horiz-adv-x="514" 
d="M224 -12q-83 0 -130 53.5t-47 145.5q0 78 28 162t89 148.5t139 64.5q83 0 129.5 -53t46.5 -145q0 -78 -28 -162t-88.5 -149t-138.5 -65zM224 17q67 0 120 61t77.5 138.5t24.5 147.5q0 79 -37.5 124t-105.5 45q-67 0 -120.5 -61t-78 -138.5t-24.5 -146.5q0 -80 37.5 -125
t106.5 -45zM441 606h-23l-53 118l-101 -118h-28l115 144h36z" />
    <glyph glyph-name="Otilde.smcp" unicode="&#xf7f5;" horiz-adv-x="514" 
d="M224 -12q-83 0 -130 53.5t-47 145.5q0 78 28 162t89 148.5t139 64.5q83 0 129.5 -53t46.5 -145q0 -78 -28 -162t-88.5 -149t-138.5 -65zM224 17q67 0 120 61t77.5 138.5t24.5 147.5q0 79 -37.5 124t-105.5 45q-67 0 -120.5 -61t-78 -138.5t-24.5 -146.5q0 -80 37.5 -125
t106.5 -45zM393 604q-24 0 -36 17.5t-14.5 39t-11.5 39t-26 17.5q-43 0 -67 -107h-25q30 134 99 134q23 0 35 -17.5t14.5 -39t11.5 -39t26 -17.5q44 0 68 107h25q-28 -134 -99 -134z" />
    <glyph glyph-name="Odieresis.smcp" unicode="&#xf7f6;" horiz-adv-x="514" 
d="M224 -12q-83 0 -130 53.5t-47 145.5q0 78 28 162t89 148.5t139 64.5q83 0 129.5 -53t46.5 -145q0 -78 -28 -162t-88.5 -149t-138.5 -65zM224 17q67 0 120 61t77.5 138.5t24.5 147.5q0 79 -37.5 124t-105.5 45q-67 0 -120.5 -61t-78 -138.5t-24.5 -146.5q0 -80 37.5 -125
t106.5 -45zM455 651q0 -13 -9 -22t-22 -9q-10 0 -17.5 7t-7.5 18q0 13 9 22t22 9q10 0 17.5 -7t7.5 -18zM293 651q0 -13 -9 -22t-22 -9q-10 0 -17.5 7t-7.5 18q0 13 9 22t22 9q10 0 17.5 -7t7.5 -18z" />
    <glyph glyph-name="Oslash.smcp" unicode="&#xf7f8;" horiz-adv-x="514" 
d="M224 -12q-80 0 -126 49l-28 -37h-36l46 60q-33 50 -33 127q0 78 28 162t89 148.5t139 64.5t124 -48l28 36h37l-46 -60q33 -49 33 -126q0 -78 -28 -162t-88.5 -149t-138.5 -65zM224 17q67 0 120 61t77.5 138.5t24.5 147.5q0 58 -21 99l-308 -401q39 -45 107 -45zM80 187
q0 -59 21 -100l307 401q-37 45 -105 45q-67 0 -120.5 -61t-78 -138.5t-24.5 -146.5z" />
    <glyph glyph-name="Ugrave.smcp" unicode="&#xf7f9;" horiz-adv-x="477" 
d="M208 -12q-76 0 -115 35t-39 99q0 14 7 60l82 368h32l-84 -379q-5 -22 -5 -43q0 -111 122 -111q60 0 94 39t52 120l83 374h32l-82 -367q-22 -98 -62 -146.5t-117 -48.5zM365 606h-27l-103 144h43z" />
    <glyph glyph-name="Uacute.smcp" unicode="&#xf7fa;" horiz-adv-x="477" 
d="M208 -12q-76 0 -115 35t-39 99q0 14 7 60l82 368h32l-84 -379q-5 -22 -5 -43q0 -111 122 -111q60 0 94 39t52 120l83 374h32l-82 -367q-22 -98 -62 -146.5t-117 -48.5zM469 750l-167 -144h-29l151 144h45z" />
    <glyph glyph-name="Ucircumflex.smcp" unicode="&#xf7fb;" horiz-adv-x="477" 
d="M208 -12q-76 0 -115 35t-39 99q0 14 7 60l82 368h32l-84 -379q-5 -22 -5 -43q0 -111 122 -111q60 0 94 39t52 120l83 374h32l-82 -367q-22 -98 -62 -146.5t-117 -48.5zM421 606h-23l-53 118l-101 -118h-28l115 144h36z" />
    <glyph glyph-name="Udieresis.smcp" unicode="&#xf7fc;" horiz-adv-x="477" 
d="M208 -12q-76 0 -115 35t-39 99q0 14 7 60l82 368h32l-84 -379q-5 -22 -5 -43q0 -111 122 -111q60 0 94 39t52 120l83 374h32l-82 -367q-22 -98 -62 -146.5t-117 -48.5zM436 651q0 -13 -9 -22t-22 -9q-11 0 -18 7t-7 18q0 13 9 22t22 9q11 0 18 -7t7 -18zM274 651
q0 -13 -9 -22t-22 -9q-11 0 -18 7t-7 18q0 13 9 22t22 9q11 0 18 -7t7 -18z" />
    <glyph glyph-name="Yacute.smcp" unicode="&#xf7fd;" horiz-adv-x="408" 
d="M167 0h-32l52 238l-110 312h36l97 -278l217 278h38l-246 -312zM434 750l-167 -144h-29l151 144h45z" />
    <glyph glyph-name="Thorn.smcp" unicode="&#xf7fe;" horiz-adv-x="392" 
d="M54 0h-32l121 550h32l-22 -102h87q60 0 96.5 -33t36.5 -91q0 -74 -46.5 -132.5t-126.5 -58.5h-117zM189 162h17q60 0 96.5 49.5t36.5 112.5q0 47 -28.5 71t-76.5 24h-88l-57 -257h100z" />
    <glyph glyph-name="Ydieresis.smcp" unicode="&#xf7ff;" horiz-adv-x="408" 
d="M167 0h-32l52 238l-110 312h36l97 -278l217 278h38l-246 -312zM403 651q0 -13 -9 -22t-22 -9q-10 0 -17.5 7t-7.5 18q0 13 9 22t22 9q10 0 17.5 -7t7.5 -18zM241 651q0 -13 -9 -22t-22 -9q-10 0 -17.5 7t-7.5 18q0 13 9 22t22 9q10 0 17.5 -7t7.5 -18z" />
    <glyph glyph-name="f.alt1" horiz-adv-x="224" 
d="M65 0h-30l101 456h-65l6 27h65l17 79q25 115 116 115q31 0 51 -14l-16 -25q-15 12 -38 12q-64 0 -83 -88l-17 -79h84l-6 -27h-84z" />
    <glyph glyph-name="l.alt1" horiz-adv-x="215" 
d="M105 -12q-32 0 -51 15.5t-19 45.5q0 16 4 32l130 586h30l-130 -586q-4 -22 -4 -27q0 -39 41 -39q26 0 46 20l14 -22q-27 -25 -61 -25z" />
    <glyph glyph-name="a.alt1" horiz-adv-x="428" 
d="M303 0h-30l11 52q-52 -64 -123 -64q-56 0 -94 33t-38 95q0 81 47.5 137.5t117.5 56.5q91 0 131 -75l24 106q5 23 5 42q0 40 -28 62.5t-77 22.5q-69 0 -124 -57l-16 24q66 60 141 60q60 0 97.5 -27.5t37.5 -79.5q0 -16 -7 -48zM166 15q72 0 126 72l27 118q-14 38 -47 58
t-77 20q-59 0 -95.5 -50.5t-36.5 -114.5q0 -51 28.5 -77t74.5 -26z" />
    <glyph glyph-name="y.alt1" horiz-adv-x="435" 
d="M123 -196q-108 0 -156 66l25 24q38 -63 132 -63q113 0 146 145l21 96q-75 -84 -145 -84q-46 0 -74.5 23t-28.5 68q0 18 5 39l81 365h30l-82 -366q-4 -24 -4 -34q0 -68 79 -68q39 0 78 26.5t69 66.5l84 375h30l-113 -507q-39 -172 -177 -172z" />
    <glyph glyph-name="G.alt1" horiz-adv-x="542" 
d="M248 -12q-85 0 -136 60t-51 168q0 104 37 209t110.5 179t162.5 74q57 0 100.5 -34.5t65.5 -91.5l-29 -11q-19 51 -57 79t-87 28q-71 0 -134 -67.5t-98.5 -167.5t-35.5 -199q0 -91 42 -143.5t116 -52.5q88 0 147.5 76t90.5 197h-225l6 30h259q-72 -333 -284 -333z" />
    <glyph glyph-name="G.smcp.alt1" horiz-adv-x="496" 
d="M232 -12q-85 0 -135 53.5t-50 138.5q0 89 33 176.5t94.5 146.5t133.5 59q106 0 160 -97l-27 -16q-41 84 -132 84q-62 0 -116 -55t-83.5 -135.5t-29.5 -159.5q0 -74 43 -120t108 -46q69 0 123 64.5t73 157.5h-181l7 28h210q-15 -114 -78.5 -196.5t-152.5 -82.5z" />
    <glyph glyph-name="Gbreve.alt1" horiz-adv-x="562" 
d="M570 801q-70 -73 -161 -73t-130 73l23 19q14 -30 44 -47.5t67 -17.5q80 0 137 65zM248 -12q-85 0 -136 60t-51 168q0 104 37 209t110.5 179t162.5 74q57 0 100.5 -34.5t65.5 -91.5l-29 -11q-19 51 -57 79t-87 28q-71 0 -134 -67.5t-98.5 -167.5t-35.5 -199
q0 -91 42 -143.5t116 -52.5q88 0 147.5 76t90.5 197h-225l6 30h259q-72 -333 -284 -333z" />
    <glyph glyph-name="Gbreve.smcp.alt1" horiz-adv-x="496" 
d="M506 682q-70 -73 -161 -73t-130 73l23 19q14 -30 44 -47.5t67 -17.5q80 0 137 65zM232 -12q-85 0 -135 53.5t-50 138.5q0 89 33 176.5t94.5 146.5t133.5 59q106 0 160 -97l-27 -16q-41 84 -132 84q-62 0 -116 -55t-83.5 -135.5t-29.5 -159.5q0 -74 43 -120t108 -46
q69 0 123 64.5t73 157.5h-181l7 28h210q-15 -114 -78.5 -196.5t-152.5 -82.5z" />
    <glyph glyph-name="Gcommaaccent.alt1" horiz-adv-x="562" 
d="M254 -122q0 -37 -27 -74t-63 -56l-18 20q28 15 48 38t25 46h-6q-10 0 -18.5 8.5t-8.5 19.5q0 15 11 25.5t25 10.5q32 0 32 -38zM248 -12q-85 0 -136 60t-51 168q0 104 37 209t110.5 179t162.5 74q57 0 100.5 -34.5t65.5 -91.5l-29 -11q-19 51 -57 79t-87 28
q-71 0 -134 -67.5t-98.5 -167.5t-35.5 -199q0 -91 42 -143.5t116 -52.5q88 0 147.5 76t90.5 197h-225l6 30h259q-72 -333 -284 -333z" />
    <glyph glyph-name="Gcommaaccent.smcp.alt1" horiz-adv-x="496" 
d="M223 -122q0 -37 -27 -74t-63 -56l-18 20q28 15 48 38t25 46h-6q-10 0 -18.5 8.5t-8.5 19.5q0 15 11 25.5t25 10.5q32 0 32 -38zM232 -12q-85 0 -135 53.5t-50 138.5q0 89 33 176.5t94.5 146.5t133.5 59q106 0 160 -97l-27 -16q-41 84 -132 84q-62 0 -116 -55
t-83.5 -135.5t-29.5 -159.5q0 -74 43 -120t108 -46q69 0 123 64.5t73 157.5h-181l7 28h210q-15 -114 -78.5 -196.5t-152.5 -82.5z" />
    <glyph glyph-name="lslash.alt1" horiz-adv-x="249" 
d="M24 267l7 32l95 48l71 320h30l-67 -303l95 49l-7 -32l-95 -49l-56 -251q-4 -22 -4 -27q0 -39 41 -39q26 0 46 20l14 -22q-27 -25 -61 -25q-32 0 -51 15.5t-19 45.5q0 16 4 32l52 234z" />
    <glyph glyph-name="lacute.alt1" horiz-adv-x="215" 
d="M346 872l-167 -144h-29l151 144h45zM105 -12q-32 0 -51 15.5t-19 45.5q0 16 4 32l130 586h30l-130 -586q-4 -22 -4 -27q0 -39 41 -39q26 0 46 20l14 -22q-27 -25 -61 -25z" />
    <glyph glyph-name="lcommaaccent.alt1" horiz-adv-x="215" 
d="M68 -122q0 -37 -27 -74t-63 -56l-18 20q28 15 48 38t25 46h-6q-10 0 -18.5 8.5t-8.5 19.5q0 15 11 25.5t25 10.5q32 0 32 -38zM105 -12q-32 0 -51 15.5t-19 45.5q0 16 4 32l130 586h30l-130 -586q-4 -22 -4 -27q0 -39 41 -39q26 0 46 20l14 -22q-27 -25 -61 -25z" />
    <glyph glyph-name="lcaron.alt1" horiz-adv-x="229" 
d="M331 641q0 -37 -27 -74t-63 -56l-18 20q28 15 48 38t25 46h-6q-10 0 -18.5 8.5t-8.5 19.5q0 15 11 25.5t25 10.5q32 0 32 -38zM105 -12q-32 0 -51 15.5t-19 45.5q0 16 4 32l130 586h30l-130 -586q-4 -22 -4 -27q0 -39 41 -39q26 0 46 20l14 -22q-27 -25 -61 -25z" />
    <glyph glyph-name="aacute.alt1" horiz-adv-x="428" 
d="M437 700l-167 -144h-29l151 144h45zM303 0h-30l11 52q-52 -64 -123 -64q-56 0 -94 33t-38 95q0 81 47.5 137.5t117.5 56.5q91 0 131 -75l24 106q5 23 5 42q0 40 -28 62.5t-77 22.5q-69 0 -124 -57l-16 24q66 60 141 60q60 0 97.5 -27.5t37.5 -79.5q0 -16 -7 -48zM166 15
q72 0 126 72l27 118q-14 38 -47 58t-77 20q-59 0 -95.5 -50.5t-36.5 -114.5q0 -51 28.5 -77t74.5 -26z" />
    <glyph glyph-name="agrave.alt1" horiz-adv-x="428" 
d="M335 556h-27l-103 144h43zM303 0h-30l11 52q-52 -64 -123 -64q-56 0 -94 33t-38 95q0 81 47.5 137.5t117.5 56.5q91 0 131 -75l24 106q5 23 5 42q0 40 -28 62.5t-77 22.5q-69 0 -124 -57l-16 24q66 60 141 60q60 0 97.5 -27.5t37.5 -79.5q0 -16 -7 -48zM166 15
q72 0 126 72l27 118q-14 38 -47 58t-77 20q-59 0 -95.5 -50.5t-36.5 -114.5q0 -51 28.5 -77t74.5 -26z" />
    <glyph glyph-name="acircumflex.alt1" horiz-adv-x="428" 
d="M393 556h-23l-53 118l-101 -118h-28l115 144h36zM303 0h-30l11 52q-52 -64 -123 -64q-56 0 -94 33t-38 95q0 81 47.5 137.5t117.5 56.5q91 0 131 -75l24 106q5 23 5 42q0 40 -28 62.5t-77 22.5q-69 0 -124 -57l-16 24q66 60 141 60q60 0 97.5 -27.5t37.5 -79.5
q0 -16 -7 -48zM166 15q72 0 126 72l27 118q-14 38 -47 58t-77 20q-59 0 -95.5 -50.5t-36.5 -114.5q0 -51 28.5 -77t74.5 -26z" />
    <glyph glyph-name="adieresis.alt1" horiz-adv-x="428" 
d="M405 601q0 -13 -9 -22t-22 -9q-10 0 -17.5 7t-7.5 18q0 13 9 22t22 9q10 0 17.5 -7t7.5 -18zM243 601q0 -13 -9 -22t-22 -9q-10 0 -17.5 7t-7.5 18q0 13 9 22t22 9q10 0 17.5 -7t7.5 -18zM303 0h-30l11 52q-52 -64 -123 -64q-56 0 -94 33t-38 95q0 81 47.5 137.5
t117.5 56.5q91 0 131 -75l24 106q5 23 5 42q0 40 -28 62.5t-77 22.5q-69 0 -124 -57l-16 24q66 60 141 60q60 0 97.5 -27.5t37.5 -79.5q0 -16 -7 -48zM166 15q72 0 126 72l27 118q-14 38 -47 58t-77 20q-59 0 -95.5 -50.5t-36.5 -114.5q0 -51 28.5 -77t74.5 -26z" />
    <glyph glyph-name="atilde.alt1" horiz-adv-x="428" 
d="M345 554q-24 0 -36 17.5t-14.5 39t-11.5 39t-26 17.5q-43 0 -67 -107h-25q30 134 99 134q23 0 35 -17.5t14.5 -39t11.5 -39t26 -17.5q44 0 68 107h25q-28 -134 -99 -134zM303 0h-30l11 52q-52 -64 -123 -64q-56 0 -94 33t-38 95q0 81 47.5 137.5t117.5 56.5q91 0 131 -75
l24 106q5 23 5 42q0 40 -28 62.5t-77 22.5q-69 0 -124 -57l-16 24q66 60 141 60q60 0 97.5 -27.5t37.5 -79.5q0 -16 -7 -48zM166 15q72 0 126 72l27 118q-14 38 -47 58t-77 20q-59 0 -95.5 -50.5t-36.5 -114.5q0 -51 28.5 -77t74.5 -26z" />
    <glyph glyph-name="aring.alt1" horiz-adv-x="428" 
d="M299 560q-34 0 -55.5 22t-21.5 56q0 38 28 66t66 28q34 0 55.5 -22t21.5 -56q0 -38 -28 -66t-66 -28zM299 584q29 0 49.5 20t20.5 48q0 24 -15 40t-38 16q-29 0 -49.5 -20.5t-20.5 -48.5q0 -23 15 -39t38 -16zM303 0h-30l11 52q-52 -64 -123 -64q-56 0 -94 33t-38 95
q0 81 47.5 137.5t117.5 56.5q91 0 131 -75l24 106q5 23 5 42q0 40 -28 62.5t-77 22.5q-69 0 -124 -57l-16 24q66 60 141 60q60 0 97.5 -27.5t37.5 -79.5q0 -16 -7 -48zM166 15q72 0 126 72l27 118q-14 38 -47 58t-77 20q-59 0 -95.5 -50.5t-36.5 -114.5q0 -51 28.5 -77
t74.5 -26z" />
    <glyph glyph-name="amacron.alt1" horiz-adv-x="428" 
d="M444 591h-301l6 27h301zM303 0h-30l11 52q-52 -64 -123 -64q-56 0 -94 33t-38 95q0 81 47.5 137.5t117.5 56.5q91 0 131 -75l24 106q5 23 5 42q0 40 -28 62.5t-77 22.5q-69 0 -124 -57l-16 24q66 60 141 60q60 0 97.5 -27.5t37.5 -79.5q0 -16 -7 -48zM166 15q72 0 126 72
l27 118q-14 38 -47 58t-77 20q-59 0 -95.5 -50.5t-36.5 -114.5q0 -51 28.5 -77t74.5 -26z" />
    <glyph glyph-name="abreve.alt1" horiz-adv-x="428" 
d="M451 642q-70 -73 -161 -73t-130 73l23 19q14 -30 44 -47.5t67 -17.5q80 0 137 65zM303 0h-30l11 52q-52 -64 -123 -64q-56 0 -94 33t-38 95q0 81 47.5 137.5t117.5 56.5q91 0 131 -75l24 106q5 23 5 42q0 40 -28 62.5t-77 22.5q-69 0 -124 -57l-16 24q66 60 141 60
q60 0 97.5 -27.5t37.5 -79.5q0 -16 -7 -48zM166 15q72 0 126 72l27 118q-14 38 -47 58t-77 20q-59 0 -95.5 -50.5t-36.5 -114.5q0 -51 28.5 -77t74.5 -26z" />
    </font>
</defs>
</svg>
