<?xml version="1.0" encoding="utf-8"?>
<!-- Generator: Adobe Illustrator 16.0.4, SVG Export Plug-In . SVG Version: 6.00 Build 0)  -->
<!DOCTYPE svg PUBLIC "-//W3C//DTD SVG 1.1//EN" "http://www.w3.org/Graphics/SVG/1.1/DTD/svg11.dtd">
<svg version="1.1" id="Layer_1" xmlns:sketch="http://www.bohemiancoding.com/sketch/ns"
	 xmlns="http://www.w3.org/2000/svg" xmlns:xlink="http://www.w3.org/1999/xlink" x="0px" y="0px" width="100px" height="100px"
	 viewBox="5.5 5.5 100 100" enable-background="new 5.5 5.5 100 100" xml:space="preserve">
<title>agency_icon</title>
<desc>Created with Sketch.</desc>
<g>
	<path d="M86.689,31.275c-2.13-2.539-5.266-3.995-8.604-3.995c-1.854,0-3.673,0.467-5.303,1.323L33.348,61.189l0.987,1.177
		L22.951,84.448l23.836-7.243l1.038,1.237l36.637-30.741l2.45-2.263C90.104,41.307,90.146,35.395,86.689,31.275z M47.99,75.836
		l-3.417-4.074l35.171-29.511l3.475,4.141L48.047,75.901L47.99,75.836z M78.585,40.871L43.414,70.385l-2.896-3.453l35.171-29.511
		L78.585,40.871z M71.057,31.9l3.475,4.141l-35.17,29.512l-3.462-4.127l-0.013-0.016L71.057,31.9z M26.505,81.485l9.085-17.623
		l9.937,11.842L26.505,81.485z M73.97,30.017c1.282-0.606,2.687-0.935,4.116-0.935c2.803,0,5.438,1.221,7.225,3.351
		c2.811,3.35,2.863,8.116,0.408,11.583L73.97,30.017z"/>
	<path d="M55.5,5.5c-27.57,0-50,22.43-50,50s22.43,50,50,50s50-22.43,50-50S83.07,5.5,55.5,5.5z M55.5,103.698
		c-26.577,0-48.198-21.622-48.198-48.198c0-26.577,21.622-48.198,48.198-48.198c26.576,0,48.198,21.622,48.198,48.198
		C103.698,82.076,82.076,103.698,55.5,103.698z"/>
</g>
</svg>
