<?xml version="1.0" encoding="utf-8"?>
<!-- Generator: Adobe Illustrator 16.0.4, SVG Export Plug-In . SVG Version: 6.00 Build 0)  -->
<!DOCTYPE svg PUBLIC "-//W3C//DTD SVG 1.1//EN" "http://www.w3.org/Graphics/SVG/1.1/DTD/svg11.dtd">
<svg version="1.1" id="Layer_1" xmlns="http://www.w3.org/2000/svg" xmlns:xlink="http://www.w3.org/1999/xlink" x="0px" y="0px"
	 width="101px" height="101px" viewBox="0 0 101 101" enable-background="new 0 0 101 101" xml:space="preserve">
<g>
	<path d="M47.076,30.158c-6.751,0-12.243,5.484-12.243,12.224c0,6.74,5.492,12.224,12.243,12.224S59.32,49.122,59.32,42.382
		C59.32,35.642,53.827,30.158,47.076,30.158z M54.898,35.5l-6.468,5.778v-9.222C50.996,32.39,53.268,33.653,54.898,35.5z
		 M36.633,42.382c0-5.598,4.446-10.166,9.997-10.401v10.708l-3.16,9.461C39.486,50.681,36.633,46.862,36.633,42.382z M47.076,52.805
		c-0.639,0-1.261-0.065-1.868-0.177l2.884-8.637c0.013-0.01,0.025-0.02,0.037-0.031l0.106-0.095l8.85,1.473
		C55.805,49.648,51.807,52.805,47.076,52.805z M57.445,43.573l-7.487-1.246l6.017-5.374c0.975,1.584,1.545,3.438,1.545,5.429
		C57.52,42.785,57.491,43.182,57.445,43.573z"/>
	<path d="M71.498,45.147c0-13.259-10.87-24.047-24.231-24.047c-13.361,0-24.231,10.787-24.231,24.047
		c0,5.783,2.091,11.356,5.894,15.721l3.186,18.067H55.15l2.062-5.48h9.946l3.739-3.712V58.365h3.752l2.025-2.731l-5.193-9.669
		C71.493,45.693,71.498,45.421,71.498,45.147z M74.551,55.48l-0.805,1.084H69.1v12.431l-2.683,2.661h-10.45l-2.062,5.479H33.627
		l-3.015-17.08l-0.169-0.189c-3.617-4.064-5.609-9.29-5.609-14.717c0-12.268,10.062-22.248,22.431-22.248
		c12.369,0,22.43,9.981,22.43,22.248c0,0.331-0.004,0.66-0.021,0.987l-0.011,0.248L74.551,55.48z"/>
	<path d="M50.394,0.1C22.626,0.1,0.036,22.651,0.036,50.37c0,27.719,22.59,50.271,50.358,50.271
		c27.767,0,50.358-22.552,50.358-50.271C100.752,22.651,78.162,0.1,50.394,0.1z M50.393,98.84c-26.775,0-48.558-21.744-48.558-48.47
		c0-26.726,21.784-48.47,48.559-48.47s48.557,21.743,48.557,48.47C98.951,77.098,77.168,98.84,50.393,98.84z"/>
</g>
</svg>
