<?xml version="1.0" encoding="utf-8"?>
<!-- Generator: Adobe Illustrator 16.0.4, SVG Export Plug-In . SVG Version: 6.00 Build 0)  -->
<!DOCTYPE svg PUBLIC "-//W3C//DTD SVG 1.1//EN" "http://www.w3.org/Graphics/SVG/1.1/DTD/svg11.dtd">
<svg version="1.1" id="Layer_1" xmlns="http://www.w3.org/2000/svg" xmlns:xlink="http://www.w3.org/1999/xlink" x="0px" y="0px"
	 width="100px" height="100px" viewBox="0 0 100 100" enable-background="new 0 0 100 100" xml:space="preserve">
<g>
	<path d="M50,2c26.467,0,48,21.533,48,48c0,26.467-21.533,48-48,48C23.533,98,2,76.467,2,50C2,23.533,23.533,2,50,2 M50,0
		C22.386,0,0,22.386,0,50s22.386,50,50,50s50-22.386,50-50S77.614,0,50,0L50,0z"/>
</g>
<path d="M50.857,27.276c-10.503,0-19.048,8.465-19.048,18.87c0,3.302,0.873,6.549,2.525,9.395l7.391,17.991l3.066,12.166h0.79
	l0.402,2.291h9.938l0.399-2.291h0.513l3.255-11.751l7.323-18.457c1.634-2.833,2.497-6.063,2.497-9.344
	C69.909,35.741,61.363,27.276,50.857,27.276z M55.375,82.834h-9.208l-0.583-2.936h10.445L55.375,82.834z M56.667,78.1H45.125
	l-1-3.646h13.906L56.667,78.1z M65.82,54.645l-6.961,17.521H43.11L35.976,54.8l-0.056-0.112c-1.512-2.584-2.312-5.538-2.312-8.542
	c0-9.412,7.738-17.07,17.25-17.07c9.514,0,17.25,7.658,17.25,17.07C68.107,49.133,67.318,52.07,65.82,54.645z"/>
<path d="M81.26,45.382h-6.807c-0.497,0-0.9-0.403-0.9-0.9s0.403-0.9,0.9-0.9h6.807c0.497,0,0.9,0.403,0.9,0.9
	S81.757,45.382,81.26,45.382z M27.718,45.382h-6.806c-0.497,0-0.9-0.403-0.9-0.9s0.403-0.9,0.9-0.9h6.806c0.497,0,0.9,0.403,0.9,0.9
	S28.215,45.382,27.718,45.382z M30.893,34.527c-0.172,0-0.346-0.049-0.499-0.152l-5.445-3.64c-0.414-0.276-0.524-0.835-0.248-1.248
	c0.276-0.414,0.835-0.526,1.248-0.248l5.445,3.64c0.414,0.276,0.524,0.835,0.248,1.248C31.469,34.387,31.184,34.527,30.893,34.527z
	 M38.155,26.375c-0.291,0-0.577-0.141-0.75-0.401l-3.63-5.451c-0.275-0.414-0.164-0.973,0.25-1.248s0.973-0.163,1.248,0.25
	l3.63,5.451c0.275,0.414,0.164,0.973-0.25,1.248C38.5,26.326,38.326,26.375,38.155,26.375z M50.857,22.751
	c-0.498,0-0.899-0.403-0.899-0.9v-6.357c0-0.497,0.403-0.9,0.899-0.9c0.498,0,0.899,0.403,0.899,0.9v6.357
	C51.759,22.348,51.355,22.751,50.857,22.751z"/>
<path d="M70.824,34.527c-0.291,0-0.576-0.14-0.749-0.4c-0.276-0.413-0.165-0.972,0.248-1.248l5.444-3.64
	c0.414-0.278,0.974-0.166,1.248,0.248c0.273,0.413,0.166,0.972-0.248,1.248l-5.444,3.64C71.17,34.479,70.996,34.527,70.824,34.527z
	 M62.654,26.375c-0.17,0-0.344-0.049-0.497-0.151c-0.413-0.275-0.525-0.834-0.25-1.248l3.63-5.451
	c0.273-0.413,0.834-0.525,1.248-0.25c0.413,0.275,0.525,0.834,0.25,1.248l-3.631,5.451C63.232,26.234,62.945,26.375,62.654,26.375z"
	/>
</svg>
