<?xml version="1.0" encoding="UTF-8" standalone="no"?>
<svg width="111px" height="111px" viewBox="0 0 111 111" version="1.1" xmlns="http://www.w3.org/2000/svg" xmlns:xlink="http://www.w3.org/1999/xlink" xmlns:sketch="http://www.bohemiancoding.com/sketch/ns">
    <!-- Generator: Sketch 3.3.3 (12081) - http://www.bohemiancoding.com/sketch -->
    <title>health_and_living_icon</title>
    <desc>Created with Sketch.</desc>
    <defs></defs>
    <g id="Page-1" stroke="none" stroke-width="1" fill="none" fill-rule="evenodd" sketch:type="MSPage">
        <g id="news_category_icons" sketch:type="MSArtboardGroup" transform="translate(-701.000000, -550.000000)" stroke="#000000" stroke-width="2">
            <g id="health_and_living_icon" sketch:type="MSLayerGroup" transform="translate(678.000000, 551.000000)">
                <g transform="translate(24.000000, 0.000000)" sketch:type="MSShapeGroup">
                    <path d="M29.6630813,52.2264882 C30.1217882,53.6026089 30.6304533,54.7243971 31.1913474,55.6940399 C31.7522415,56.6614119 32.4153227,57.5788257 33.1283622,58.4462814 C33.8414016,59.3636952 34.3523375,59.9745474 34.7088573,60.3310672 C35.013148,60.6875869 35.3197095,60.8919613 35.4718549,61.0441066 L53.209279,78.1706784 C53.5680695,78.5271982 53.9745474,78.6816143 54.4854834,78.6816143 C54.9941484,78.6816143 55.4028972,78.5271982 55.7594169,78.1706784 L73.444612,61.1462938 C77.7773485,56.7635991 79.9686959,52.5330497 79.9686959,48.3025004 C79.9686959,44.1741382 78.7469913,40.9109608 76.3512696,38.5152391 C73.9555479,36.1717464 70.6424123,35 66.359634,35 C65.1878876,35 64.0161413,35.2021035 62.7921659,35.6108523 C61.5704614,36.019601 60.3964442,36.5782243 59.3768432,37.2935345 C58.307284,37.9566158 57.3898702,38.6174263 56.6246017,39.2305494 C55.9115623,39.8414016 55.1462938,40.4522539 54.4854834,41.1675642 C53.8224021,40.4522539 53.0571336,39.8414016 52.3440942,39.2305494 C51.5788257,38.6174263 50.6614119,37.9566158 49.5918527,37.2935345 C48.5722517,36.5782243 47.4005054,36.019601 46.17653,35.6108523 C44.9525546,35.2021035 43.7808083,35 42.6090619,35 C38.3262835,35 35.013148,36.1717464 32.6174263,38.5152391 C30.2217045,40.9109608 29,44.1741382 29,48.3025004 C29,49.5764339 29.2043744,50.9025964 29.6630813,52.2264882" id="Fill-180"></path>
                    <path d="M36.5470852,54.646656 L43.6128107,54.646656 L45.4864406,58.6987947 L48.2409078,49.4904472 L50.7654251,54.540504 L54.4463035,54.540504 L56.9032476,62.2152466 L61.7236772,45.9775785 L65.6937855,54.5149738 L72.2242152,54.5149738" id="Path-6"></path>
                    <circle id="Oval-26" cx="54.5" cy="54.5" r="54.5"></circle>
                </g>
            </g>
        </g>
    </g>
</svg>