<?xml version="1.0" encoding="utf-8"?>
<!-- Generator: Adobe Illustrator 16.0.0, SVG Export Plug-In . SVG Version: 6.00 Build 0)  -->
<!DOCTYPE svg PUBLIC "-//W3C//DTD SVG 1.1//EN" "http://www.w3.org/Graphics/SVG/1.1/DTD/svg11.dtd">
<svg version="1.1" id="Layer_1" xmlns="http://www.w3.org/2000/svg" xmlns:xlink="http://www.w3.org/1999/xlink" x="0px" y="0px"
	 width="101px" height="101px" viewBox="0 0 101 101" enable-background="new 0 0 101 101" xml:space="preserve">
<g>
	<g>
		<defs>
			<rect id="SVGID_1_" width="101" height="101"/>
		</defs>
		<clipPath id="SVGID_2_">
			<use xlink:href="#SVGID_1_"  overflow="visible"/>
		</clipPath>
		<path clip-path="url(#SVGID_2_)" d="M50.405,100.641c-27.768,0-50.358-22.552-50.358-50.271c0-27.719,22.59-50.27,50.358-50.27
			c27.768,0,50.359,22.551,50.359,50.27C100.764,78.089,78.173,100.641,50.405,100.641z M50.405,1.9
			C23.63,1.9,1.847,23.644,1.847,50.37S23.63,98.84,50.405,98.84s48.558-21.743,48.558-48.47S77.18,1.9,50.405,1.9z"/>
	</g>
	<path d="M44.801,73.269c-0.497,0-0.9-0.403-0.9-0.9V27.074c0-0.497,0.403-0.9,0.9-0.9s0.9,0.403,0.9,0.9v45.294
		C45.701,72.865,45.298,73.269,44.801,73.269z M47.524,69.645c-0.497,0-0.9-0.403-0.9-0.9V31.604c0-0.497,0.403-0.9,0.9-0.9
		s0.9,0.403,0.9,0.9v37.141C48.424,69.241,48.021,69.645,47.524,69.645z M50.246,66.021c-0.497,0-0.9-0.403-0.9-0.9V35.227
		c0-0.497,0.403-0.9,0.9-0.9s0.9,0.403,0.9,0.9v29.894C51.146,65.618,50.743,66.021,50.246,66.021z M36.634,57.868
		c-0.497,0-0.9-0.403-0.9-0.9V42.474c0-0.497,0.403-0.9,0.9-0.9s0.9,0.403,0.9,0.9v14.494
		C37.534,57.465,37.131,57.868,36.634,57.868z M39.356,55.92c-0.497,0-0.9-0.403-0.9-0.9v-8.996c0-0.497,0.403-0.9,0.9-0.9
		s0.9,0.403,0.9,0.9v8.996C40.256,55.517,39.854,55.92,39.356,55.92z M33.912,55.92c-0.497,0-0.9-0.403-0.9-0.9v-8.996
		c0-0.497,0.403-0.9,0.9-0.9s0.9,0.403,0.9,0.9v8.996C34.812,55.517,34.409,55.92,33.912,55.92z M20.299,55.076
		c-0.497,0-0.9-0.403-0.9-0.9v-7.247c0-0.497,0.403-0.9,0.9-0.9s0.9,0.403,0.9,0.9v7.247C21.199,54.673,20.796,55.076,20.299,55.076
		z M52.969,54.245c-0.497,0-0.9-0.403-0.9-0.9v-6.341c0-0.497,0.403-0.9,0.9-0.9s0.9,0.403,0.9,0.9v6.341
		C53.869,53.842,53.466,54.245,52.969,54.245z M28.467,54.124c-0.497,0-0.9-0.403-0.9-0.9v-5.389c0-0.497,0.403-0.9,0.9-0.9
		s0.9,0.403,0.9,0.9v5.389C29.367,53.721,28.964,54.124,28.467,54.124z M72.026,53.339c-0.497,0-0.9-0.403-0.9-0.9v-4.529
		c0-0.497,0.403-0.9,0.9-0.9s0.9,0.403,0.9,0.9v4.529C72.927,52.936,72.523,53.339,72.026,53.339z M31.189,53.265
		c-0.497,0-0.9-0.403-0.9-0.9v-3.624c0-0.497,0.403-0.9,0.9-0.9s0.9,0.403,0.9,0.9v3.624C32.089,52.861,31.686,53.265,31.189,53.265
		z M23.021,53.265c-0.497,0-0.9-0.403-0.9-0.9v-4.529c0-0.497,0.403-0.9,0.9-0.9s0.9,0.403,0.9,0.9v4.529
		C23.921,52.861,23.519,53.265,23.021,53.265z M17.577,53.265c-0.497,0-0.9-0.403-0.9-0.9v-3.624c0-0.497,0.403-0.9,0.9-0.9
		s0.9,0.403,0.9,0.9v3.624C18.477,52.861,18.074,53.265,17.577,53.265z M74.748,52.58c-0.497,0-0.9-0.403-0.9-0.9v-2.865
		c0-0.497,0.403-0.9,0.9-0.9s0.9,0.403,0.9,0.9v2.865C75.648,52.177,75.245,52.58,74.748,52.58z M69.304,52.433
		c-0.497,0-0.9-0.403-0.9-0.9v-2.717c0-0.497,0.403-0.9,0.9-0.9s0.9,0.403,0.9,0.9v2.717C70.204,52.029,69.801,52.433,69.304,52.433
		z M55.691,52.433c-0.497,0-0.9-0.403-0.9-0.9v-3.623c0-0.497,0.403-0.9,0.9-0.9s0.9,0.403,0.9,0.9v3.623
		C56.592,52.029,56.188,52.433,55.691,52.433z M42.079,52.433c-0.497,0-0.9-0.403-0.9-0.9v-3.623c0-0.497,0.403-0.9,0.9-0.9
		s0.9,0.403,0.9,0.9v3.623C42.979,52.029,42.576,52.433,42.079,52.433z M25.744,52.396c-0.497,0-0.9-0.403-0.9-0.9v-2.755
		c0-0.497,0.403-0.9,0.9-0.9s0.9,0.403,0.9,0.9v2.755C26.644,51.993,26.241,52.396,25.744,52.396z M85.639,51.527
		c-0.497,0-0.9-0.403-0.9-0.9v-0.906c0-0.497,0.403-0.9,0.9-0.9s0.9,0.403,0.9,0.9v0.906C86.539,51.124,86.136,51.527,85.639,51.527
		z M82.916,51.527c-0.497,0-0.9-0.403-0.9-0.9v-0.906c0-0.497,0.403-0.9,0.9-0.9s0.9,0.403,0.9,0.9v0.906
		C83.816,51.124,83.413,51.527,82.916,51.527z M80.193,51.527c-0.497,0-0.9-0.403-0.9-0.9v-0.906c0-0.497,0.403-0.9,0.9-0.9
		s0.9,0.403,0.9,0.9v0.906C81.094,51.124,80.69,51.527,80.193,51.527z M77.471,51.527c-0.497,0-0.9-0.403-0.9-0.9v-1.812
		c0-0.497,0.403-0.9,0.9-0.9s0.9,0.403,0.9,0.9v1.812C78.371,51.124,77.968,51.527,77.471,51.527z M66.581,51.527
		c-0.497,0-0.9-0.403-0.9-0.9v-0.906c0-0.497,0.403-0.9,0.9-0.9s0.9,0.403,0.9,0.9v0.906C67.481,51.124,67.078,51.527,66.581,51.527
		z M63.858,51.527c-0.497,0-0.9-0.403-0.9-0.9v-0.906c0-0.497,0.403-0.9,0.9-0.9s0.9,0.403,0.9,0.9v0.906
		C64.759,51.124,64.355,51.527,63.858,51.527z M61.136,51.527c-0.497,0-0.9-0.403-0.9-0.9v-0.906c0-0.497,0.403-0.9,0.9-0.9
		s0.9,0.403,0.9,0.9v0.906C62.036,51.124,61.633,51.527,61.136,51.527z M58.414,51.527c-0.497,0-0.9-0.403-0.9-0.9v-1.812
		c0-0.497,0.403-0.9,0.9-0.9s0.9,0.403,0.9,0.9v1.812C59.314,51.124,58.911,51.527,58.414,51.527z M14.854,51.527
		c-0.497,0-0.9-0.403-0.9-0.9v-0.906c0-0.497,0.403-0.9,0.9-0.9s0.9,0.403,0.9,0.9v0.906C15.754,51.124,15.352,51.527,14.854,51.527
		z"/>
</g>
</svg>
