<?xml version="1.0" encoding="utf-8"?>
<!-- Generator: Adobe Illustrator 16.0.4, SVG Export Plug-In . SVG Version: 6.00 Build 0)  -->
<!DOCTYPE svg PUBLIC "-//W3C//DTD SVG 1.1//EN" "http://www.w3.org/Graphics/SVG/1.1/DTD/svg11.dtd">
<svg version="1.1" id="Layer_1" xmlns:sketch="http://www.bohemiancoding.com/sketch/ns"
	 xmlns="http://www.w3.org/2000/svg" xmlns:xlink="http://www.w3.org/1999/xlink" x="0px" y="0px" width="100px" height="100px"
	 viewBox="5.5 5.5 100 100" enable-background="new 5.5 5.5 100 100" xml:space="preserve">
<path d="M55.5,105.5c-27.57,0-50-22.43-50-50s22.43-50,50-50s50,22.43,50,50S83.07,105.5,55.5,105.5z M55.5,7.302
	C28.923,7.302,7.302,28.923,7.302,55.5c0,26.577,21.622,48.197,48.198,48.197c26.577,0,48.197-21.62,48.197-48.197
	C103.697,28.923,82.077,7.302,55.5,7.302z"/>
<path d="M55.95,26.221c-10.432,0-18.918,8.42-18.918,18.772c0,3.285,0.866,6.515,2.508,9.346l7.548,18.407h1.013l2.005,9.699h2.258
	l0.242,1.374h6.875l0.241-1.374h2.226l2.032-9.699h1.102l7.308-18.457c1.624-2.819,2.48-6.032,2.48-9.295
	C74.869,34.641,66.382,26.221,55.95,26.221z M60.482,80.643h-8.91l-0.634-3.07h10.188L60.482,80.643z M61.504,75.77H50.566
	l-0.625-3.024h12.196L61.504,75.77z M70.798,53.443l-6.87,17.321H48.221l-7.039-17.167l-0.056-0.112
	c-0.146-0.25-0.28-0.506-0.412-0.763l5.647-5.581L57.5,54.245l8.71-9.865l1.984,1.551l0.497-6.224l-5.92,1.986l2.016,1.575
	l-7.617,8.627l-11.052-7.048l-6.185,6.112c-0.718-1.898-1.1-3.92-1.1-5.968c0-9.357,7.678-16.97,17.117-16.97
	c9.439,0,17.119,7.613,17.119,16.971C73.068,47.962,72.281,50.885,70.798,53.443z"/>
</svg>
