<?xml version="1.0" encoding="UTF-8" standalone="no"?>
<svg width="111px" height="111px" viewBox="0 0 111 111" version="1.1" xmlns="http://www.w3.org/2000/svg" xmlns:xlink="http://www.w3.org/1999/xlink" xmlns:sketch="http://www.bohemiancoding.com/sketch/ns">
    <!-- Generator: Sketch 3.3.3 (12081) - http://www.bohemiancoding.com/sketch -->
    <title>money_icon</title>
    <desc>Created with Sketch.</desc>
    <defs></defs>
    <g id="Page-1" stroke="none" stroke-width="1" fill="none" fill-rule="evenodd" sketch:type="MSPage">
        <g id="news_category_icons" sketch:type="MSArtboardGroup" transform="translate(-269.000000, -550.000000)" stroke-width="2" stroke="#000000">
            <g id="money_icon" sketch:type="MSLayerGroup" transform="translate(270.000000, 551.000000)">
                <g sketch:type="MSShapeGroup">
                    <circle id="Oval-26" cx="54.5" cy="54.5" r="54.5"></circle>
                    <g id="money-copy" transform="translate(29.000000, 42.000000)">
                        <rect id="Rectangle-3" x="0" y="0" width="51" height="25.2177122"></rect>
                        <circle id="Oval-2" cx="25.5940959" cy="12.6088561" r="8.09225092"></circle>
                        <path d="M50.4354243,15.8201069 C50.4354243,15.8201069 41.7472088,15.1146535 41.6950456,24.5266776" id="Path-193"></path>
                        <path d="M8.84501835,15.8201069 C8.84501835,15.8201069 0.156802928,15.1146535 0.104639737,24.5266776" id="Path-193-Copy" transform="translate(4.474829, 20.167398) scale(-1, 1) translate(-4.474829, -20.167398) "></path>
                        <path d="M50.4354243,0.576564431 C50.4354243,0.576564431 41.7472088,-0.128888949 41.6950456,9.28313516" id="Path-193-Copy-3" transform="translate(46.065235, 4.923855) scale(1, -1) translate(-46.065235, -4.923855) "></path>
                        <path d="M8.84501835,0.576564431 C8.84501835,0.576564431 0.156802928,-0.128888949 0.104639737,9.28313516" id="Path-193-Copy-2" transform="translate(4.474829, 4.923855) scale(-1, -1) translate(-4.474829, -4.923855) "></path>
                    </g>
                </g>
            </g>
        </g>
    </g>
</svg>