<?xml version="1.0" encoding="UTF-8" standalone="no"?>
<svg width="111px" height="111px" viewBox="0 0 111 111" version="1.1" xmlns="http://www.w3.org/2000/svg" xmlns:xlink="http://www.w3.org/1999/xlink" xmlns:sketch="http://www.bohemiancoding.com/sketch/ns">
    <!-- Generator: Sketch 3.3.3 (12081) - http://www.bohemiancoding.com/sketch -->
    <title>news_in_focus_icon</title>
    <desc>Created with Sketch.</desc>
    <defs></defs>
    <g id="Page-1" stroke="none" stroke-width="1" fill="none" fill-rule="evenodd" sketch:type="MSPage">
        <g id="news_category_icons" sketch:type="MSArtboardGroup" transform="translate(-269.000000, -234.000000)" stroke="#000000" stroke-width="2">
            <g id="news_in_focus_icon-copy" sketch:type="MSLayerGroup" transform="translate(248.000000, 235.000000)">
                <g id="news_in_focus_icon" transform="translate(22.000000, 0.000000)" sketch:type="MSShapeGroup">
                    <circle id="Oval-26" cx="54.5" cy="54.5" r="54.5"></circle>
                    <g id="news-in-focus" transform="translate(29.000000, 32.000000)">
                        <rect id="Rectangle-33" x="29.8245614" y="11.9298246" width="8.64912281" height="8.05263158"></rect>
                        <path d="M41.8825747,8.44866381 L50.7157779,8.52796053 L50.7996232,0.271262488" id="Path-107-Copy-4" transform="translate(46.341099, 4.399612) scale(-1, 1) translate(-46.341099, -4.399612) "></path>
                        <path d="M49.5142107,8.11903783 L42.3846384,0.989465523" id="Path-108-Copy-4" transform="translate(46.005551, 4.610378) scale(-1, 1) translate(-46.005551, -4.610378) "></path>
                        <path d="M41.8825747,44.5363831 L50.7157779,44.6156798 L50.7996232,36.3589818" id="Path-107-Copy-7" transform="translate(46.341099, 40.487331) scale(-1, -1) translate(-46.341099, -40.487331) "></path>
                        <path d="M49.2159651,43.6102659 L42.0863928,36.4806936" id="Path-108-Copy-7" transform="translate(45.707305, 40.101606) scale(-1, -1) translate(-45.707305, -40.101606) "></path>
                        <path d="M0.128188714,8.44866381 L8.96139191,8.52796053 L9.04523719,0.271262488" id="Path-107-Copy-5"></path>
                        <path d="M8.65456156,8.11903783 L1.52498925,0.989465523" id="Path-108-Copy-5"></path>
                        <path d="M0.128188714,44.5363831 L8.96139191,44.6156798 L9.04523719,36.3589818" id="Path-107-Copy-6" transform="translate(4.586713, 40.487331) scale(1, -1) translate(-4.586713, -40.487331) "></path>
                        <path d="M8.65456156,43.9085115 L1.52498925,36.7789392" id="Path-108-Copy-6" transform="translate(5.145902, 40.399852) scale(1, -1) translate(-5.145902, -40.399852) "></path>
                        <path d="M12.5233653,13 L25.3479267,13" id="Path-115"></path>
                        <path d="M12.5233653,19 L25.3479267,19" id="Path-115-Copy"></path>
                        <path d="M12.483271,26 L38.3355691,26" id="Path-115-Copy-2"></path>
                        <path d="M12.483271,32 L38.3355691,32" id="Path-115-Copy-3"></path>
                    </g>
                </g>
            </g>
        </g>
    </g>
</svg>