<?xml version="1.0" encoding="UTF-8" standalone="no"?>
<svg width="111px" height="111px" viewBox="0 0 111 111" version="1.1" xmlns="http://www.w3.org/2000/svg" xmlns:xlink="http://www.w3.org/1999/xlink" xmlns:sketch="http://www.bohemiancoding.com/sketch/ns">
    <!-- Generator: Sketch 3.3.3 (12081) - http://www.bohemiancoding.com/sketch -->
    <title>non-english_language_news_icon</title>
    <desc>Created with Sketch.</desc>
    <defs></defs>
    <g id="Page-1" stroke="none" stroke-width="1" fill="none" fill-rule="evenodd" sketch:type="MSPage">
        <g id="news_category_icons" sketch:type="MSArtboardGroup" transform="translate(-1154.000000, -868.000000)">
            <g id="non_english_language_news_icon-copy" sketch:type="MSLayerGroup" transform="translate(1089.000000, 869.000000)">
                <g id="non-english_language_news_icon" transform="translate(66.000000, 0.000000)" sketch:type="MSShapeGroup">
                    <path d="M33.9259855,79.0317421 C34.4332723,79.5863756 35.0893631,79.8411463 35.8491659,79.8411463 L73.8032313,79.8411463 C74.5134327,79.8411463 75.1695236,79.5863756 75.7264117,79.0317421 C76.2336984,78.5244554 76.4862145,77.86611 76.4862145,77.1085618 L76.4862145,47.3003938 L61.1526277,47.3003938 C60.3928249,47.3003938 59.7344795,47.0478778 59.2294474,46.4909897 C58.6725593,45.9859576 58.4200432,45.3276121 58.4200432,44.5678094 L58.4200432,29.2342226 L35.8491659,29.2342226 C35.0893631,29.2342226 34.4332723,29.4867387 33.9259855,29.9940254 C33.3690975,30.5509135 33.1165814,31.2092589 33.1165814,31.9172057 L33.1165814,77.1085618 C33.1165814,77.86611 33.3690975,78.5244554 33.9259855,79.0317421 L33.9259855,79.0317421 Z" id="Fill-112" stroke="#000000" stroke-width="2"></path>
                    <path d="M58.7664974,29.2284392 L76.5080307,46.9972025" id="Line-Copy" stroke="#000000" stroke-width="2" stroke-linecap="round"></path>
                    <path d="M66.6317231,58.2956283 L67.2218278,59.1287173 C66.5622958,59.626259 65.9143441,59.8750262 65.2779535,59.8750262 C64.8729777,59.8750262 64.4390815,59.7593205 63.9762519,59.5279058 C63.5134224,59.296491 63.1258085,59.1807853 62.8133985,59.1807853 C62.5009886,59.1807853 62.0844482,59.3774849 61.563765,59.7708901 L61.0083723,58.903089 C61.5290556,58.3592643 62.1422955,58.087356 62.8481106,58.087356 C63.2877986,58.087356 63.7419433,58.1972764 64.2105582,58.4171204 C64.6791731,58.6369645 65.0610018,58.7468848 65.3560556,58.7468848 C65.6511094,58.7468848 66.0763277,58.5964675 66.6317231,58.2956283 L66.6317231,58.2956283 Z M60.2099954,61.7321204 L61.4075608,61.7321204 L61.4075608,63.3809424 C62.3563614,62.1197319 63.5076326,61.4891361 64.861409,61.4891361 C65.5556533,61.4891361 66.1804638,61.6771578 66.7358593,62.0532068 C67.2912547,62.4292558 67.6846539,62.9210048 67.9160687,63.5284686 C68.1474835,64.1359324 68.2631891,65.0297585 68.2631891,66.2099738 L68.2631891,70.9481675 L67.0829797,70.9481675 L67.0829797,66.5570942 C67.0829797,65.4810156 67.0338048,64.75207 66.9354535,64.3702356 C66.8371022,63.9884012 66.6866849,63.6644254 66.484197,63.3982984 C66.281709,63.1321714 66.024264,62.9296866 65.711854,62.7908377 C65.3994441,62.6519888 65.0205081,62.5825654 64.5750347,62.5825654 C64.1295612,62.5825654 63.6927724,62.6924858 63.2646551,62.9123298 C62.8365377,63.1321739 62.472065,63.4387938 62.1712258,63.832199 C61.8703865,64.2256041 61.6679017,64.6305738 61.563765,65.0471204 C61.4596284,65.463667 61.4075608,66.302533 61.4075608,67.5637435 L61.4075608,70.9481675 L60.2099954,70.9481675 L60.2099954,61.7321204 Z" id="ñ" fill="#000000"></path>
                    <path d="M48.6469831,45.6937393 C48.8774751,45.6937393 49.0762714,45.7772913 49.2433781,45.944398 C49.4104847,46.1115047 49.4940368,46.310301 49.4940368,46.5407929 C49.4940368,46.7712849 49.4104847,46.9700812 49.2433781,47.1371879 C49.0762714,47.3042945 48.8774751,47.3878466 48.6469831,47.3878466 C48.4164912,47.3878466 48.2176949,47.3042945 48.0505882,47.1371879 C47.8834815,46.9700812 47.7999295,46.7712849 47.7999295,46.5407929 C47.7999295,46.310301 47.8834815,46.1115047 48.0505882,45.944398 C48.2176949,45.7772913 48.4164912,45.6937393 48.6469831,45.6937393 L48.6469831,45.6937393 Z M45.2760552,45.6937393 C45.5065472,45.6937393 45.7053435,45.7772913 45.8724502,45.944398 C46.0395568,46.1115047 46.1231089,46.310301 46.1231089,46.5407929 C46.1231089,46.7712849 46.0395568,46.9700812 45.8724502,47.1371879 C45.7053435,47.3042945 45.5065472,47.3878466 45.2760552,47.3878466 C45.0455633,47.3878466 44.8467669,47.3042945 44.6796603,47.1371879 C44.5125536,46.9700812 44.4290015,46.7712849 44.4290015,46.5407929 C44.4290015,46.310301 44.5125536,46.1115047 44.6796603,45.944398 C44.8467669,45.7772913 45.0455633,45.6937393 45.2760552,45.6937393 L45.2760552,45.6937393 Z M50.9634156,57.4833436 L49.7706258,57.4833436 L49.7706258,55.8410966 C48.8256088,57.0972778 47.6789285,57.7253589 46.3305506,57.7253589 C45.6390748,57.7253589 45.0167558,57.538087 44.4635752,57.1635376 C43.9103945,56.7889882 43.518564,56.2992001 43.2880721,55.6941587 C43.0575801,55.0891174 42.9423359,54.1988556 42.9423359,53.0233466 L42.9423359,48.3040475 L44.117839,48.3040475 L44.117839,52.6776104 C44.117839,53.749398 44.1668178,54.4754367 44.2647768,54.8557485 C44.3627359,55.2360602 44.5125534,55.5587441 44.7142339,55.8238098 C44.9159144,56.0888756 45.1723328,56.290553 45.4834969,56.4288482 C45.7946611,56.5671433 46.172086,56.6362899 46.615783,56.6362899 C47.05948,56.6362899 47.494527,56.5268078 47.9209371,56.3078405 C48.3473472,56.0888731 48.7103666,55.7834759 49.0100061,55.3916396 C49.3096457,54.9998033 49.5113231,54.5964484 49.6150445,54.1815629 C49.7187659,53.7666774 49.7706258,52.9311566 49.7706258,51.6749755 L49.7706258,48.3040475 L50.9634156,48.3040475 L50.9634156,57.4833436 Z" id="ü" fill="#000000"></path>
                    <circle id="Oval-26" stroke="#000000" stroke-width="2" cx="54.5" cy="54.5" r="54.5"></circle>
                </g>
            </g>
        </g>
    </g>
</svg>