<?xml version="1.0" encoding="utf-8"?>
<!-- Generator: Adobe Illustrator 16.0.0, SVG Export Plug-In . SVG Version: 6.00 Build 0)  -->
<!DOCTYPE svg PUBLIC "-//W3C//DTD SVG 1.1//EN" "http://www.w3.org/Graphics/SVG/1.1/DTD/svg11.dtd">
<svg version="1.1" id="Layer_1" xmlns:sketch="http://www.bohemiancoding.com/sketch/ns"
	 xmlns="http://www.w3.org/2000/svg" xmlns:xlink="http://www.w3.org/1999/xlink" x="0px" y="0px" width="111px" height="111px"
	 viewBox="0 0 111 111" enable-background="new 0 0 111 111" xml:space="preserve">
<title>people_and_culture_icon</title>
<desc>Created with Sketch.</desc>
<path d="M55.5,111C24.897,111,0,86.103,0,55.5C0,24.897,24.897,0,55.5,0C86.103,0,111,24.897,111,55.5
	C111,86.103,86.103,111,55.5,111z M55.5,2C26,2,2,26,2,55.5S26,109,55.5,109S109,85,109,55.5S85,2,55.5,2z"/>
<g id="Path-_x2B_-Path" transform="translate(0.838863, 0.000000)">
	<g id="Fill-72">
		<path d="M35.394,58.191h-4.042c-1.657,0-3.103-0.432-4.296-1.284c-1.258-0.897-1.896-2.228-1.896-3.955
			c0-4.437,0.449-10.334,4.335-10.334c0.312,0,0.578,0.097,1.639,0.705c0.689,0.343,1.52,0.696,2.416,1.023
			c2.216,0.771,4.168,0.625,6.033-0.048l1.564-0.563l-0.235,1.646c-0.089,0.622-0.132,1.151-0.132,1.619
			c0,2.275,0.657,4.314,2.007,6.235l1.065,1.514l-1.85,0.061c-2.639,0.087-4.703,1.074-6.309,3.02L35.394,58.191z M29.349,44.628
			c-1.393,0.196-2.188,3.205-2.188,8.324c0,1.073,0.336,1.812,1.058,2.327c0.847,0.605,1.902,0.912,3.134,0.912h3.112
			c1.563-1.74,3.512-2.817,5.813-3.215c-1.005-1.858-1.497-3.828-1.497-5.978c0-0.129,0.002-0.262,0.008-0.398
			c-1.861,0.4-3.817,0.358-5.909-0.371c-0.981-0.357-1.882-0.741-2.689-1.145C29.718,44.815,29.471,44.687,29.349,44.628z"/>
	</g>
	<g id="Path">
		<path d="M36.399,43.618c-2.194,0-4.054-0.775-5.529-2.304c-1.509-1.512-2.281-3.368-2.281-5.503c0-2.138,0.771-3.994,2.293-5.517
			C32.344,28.776,34.205,28,36.399,28c2.141,0,3.998,0.772,5.517,2.294c1.521,1.519,2.293,3.375,2.293,5.516
			c0,2.139-0.771,3.995-2.293,5.516C40.396,42.847,38.54,43.618,36.399,43.618z M36.399,30c-1.653,0-2.991,0.554-4.089,1.694
			c-1.146,1.146-1.721,2.527-1.721,4.116c0,1.587,0.575,2.967,1.708,4.103c1.111,1.151,2.449,1.705,4.102,1.705
			c1.59,0,2.971-0.574,4.102-1.706c1.133-1.133,1.708-2.513,1.708-4.102c0-1.591-0.574-2.971-1.707-4.102
			C39.37,30.574,37.99,30,36.399,30z"/>
	</g>
	<g id="Path_1_">
		<path d="M66.304,80.618H43.065c-2.401,0-4.365-0.72-5.836-2.139c-1.498-1.44-2.258-3.365-2.258-5.72
			c0-0.936,0.046-1.829,0.09-2.692l0.006-0.119c0.045-0.844,0.167-1.778,0.396-3.034c0.194-1.073,0.445-2.08,0.748-2.99
			c0.292-0.925,0.692-1.843,1.218-2.791c0.632-1.075,1.204-1.828,1.814-2.393c0.839-0.719,1.648-1.225,2.576-1.615
			c1.102-0.405,2.228-0.602,3.39-0.602c0.333,0,0.666,0.107,1.663,0.717c0.567,0.379,1.183,0.774,1.802,1.173l0.123,0.079
			c0.645,0.429,1.522,0.821,2.623,1.175c2.167,0.695,4.368,0.693,6.532,0c1.099-0.354,1.976-0.746,2.605-1.166
			c0.439-0.265,0.808-0.504,1.163-0.734c0.278-0.181,0.549-0.356,0.82-0.523c0.897-0.597,1.289-0.72,1.62-0.72
			c1.163,0,2.288,0.196,3.345,0.585c1.052,0.442,1.918,0.985,2.618,1.631c0.607,0.562,1.18,1.314,1.803,2.369
			c0.54,0.972,0.939,1.89,1.235,2.83c0.292,0.873,0.544,1.88,0.744,2.976c0.23,1.257,0.352,2.192,0.395,3.035
			c0.043,0.798,0.097,1.794,0.097,2.811c0,2.354-0.76,4.279-2.258,5.721C70.669,79.898,68.705,80.618,66.304,80.618z M45.08,58.524
			c-0.88,0.014-1.73,0.169-2.527,0.461c-0.697,0.296-1.321,0.686-1.979,1.249c-0.434,0.402-0.89,1.011-1.407,1.89
			c-0.448,0.809-0.796,1.606-1.052,2.416c-0.277,0.834-0.505,1.749-0.683,2.731c-0.213,1.171-0.327,2.028-0.367,2.782l-0.006,0.116
			c-0.043,0.839-0.088,1.706-0.088,2.59c0,1.815,0.538,3.215,1.645,4.279c1.103,1.062,2.558,1.579,4.449,1.579h23.238
			c1.892,0,3.347-0.517,4.448-1.578c1.107-1.065,1.646-2.465,1.646-4.28c0-0.892-0.041-1.718-0.095-2.706
			c-0.038-0.756-0.15-1.612-0.363-2.78c-0.184-1.003-0.412-1.917-0.68-2.719c-0.261-0.827-0.608-1.624-1.067-2.452
			c-0.509-0.859-0.966-1.469-1.426-1.895c-0.528-0.487-1.199-0.904-1.994-1.239c-0.753-0.275-1.599-0.43-2.478-0.444
			c-0.095,0.045-0.303,0.155-0.676,0.402c-0.286,0.178-0.545,0.346-0.811,0.518c-0.374,0.243-0.762,0.494-1.182,0.746
			c-0.754,0.505-1.77,0.965-3.064,1.381c-2.561,0.819-5.189,0.821-7.753,0c-1.295-0.416-2.311-0.876-3.107-1.405l-0.11-0.07
			c-0.63-0.406-1.255-0.809-1.797-1.171C45.384,58.674,45.174,58.567,45.08,58.524z"/>
	</g>
	<g id="Path_2_">
		<path d="M54.685,58.191c-3.085,0-5.758-1.108-7.946-3.295c-2.185-2.186-3.292-4.843-3.292-7.897c0-3.052,1.107-5.709,3.292-7.896
			c2.186-2.185,4.859-3.293,7.946-3.293c3.057,0,5.715,1.108,7.898,3.292c2.186,2.188,3.293,4.844,3.293,7.896
			c0,3.054-1.107,5.711-3.293,7.897C60.396,57.083,57.739,58.191,54.685,58.191z M54.685,37.81c-2.573,0-4.71,0.885-6.532,2.707
			c-1.821,1.823-2.707,3.944-2.707,6.482c0,2.541,0.885,4.661,2.707,6.483c1.823,1.823,3.96,2.709,6.531,2.709
			c2.54,0,4.661-0.886,6.484-2.709c1.821-1.823,2.707-3.943,2.707-6.483c0-2.538-0.886-4.659-2.708-6.483
			C59.348,38.695,57.227,37.81,54.685,37.81z"/>
	</g>
	<g id="Path_3_">
		<path d="M72.97,43.618c-2.138,0-3.993-0.771-5.516-2.291c-1.522-1.524-2.293-3.38-2.293-5.517c0-2.139,0.771-3.995,2.292-5.517
			C68.976,28.771,70.831,28,72.97,28c2.194,0,4.055,0.776,5.529,2.307c1.508,1.506,2.28,3.362,2.28,5.503
			c0,2.139-0.771,3.995-2.294,5.516C77.023,42.842,75.163,43.618,72.97,43.618z M72.97,30c-1.589,0-2.969,0.575-4.103,1.708
			c-1.132,1.132-1.706,2.513-1.706,4.103c0,1.588,0.574,2.968,1.707,4.103c1.133,1.131,2.514,1.705,4.102,1.705
			c1.63,0,3.006-0.569,4.089-1.693c1.146-1.146,1.721-2.526,1.721-4.115c0-1.591-0.574-2.971-1.707-4.102
			C75.96,30.554,74.623,30,72.97,30z"/>
	</g>
	<g id="Path_4_">
		<path d="M78.019,58.191h-3.986l-0.3-0.354c-1.655-1.951-3.722-2.942-6.318-3.029l-1.784-0.06l0.982-1.49
			c1.299-1.969,1.93-4.017,1.93-6.26c0-0.469-0.043-0.998-0.133-1.619l-0.236-1.647l1.565,0.564
			c1.843,0.664,3.815,0.838,6.093,0.043c0.886-0.323,1.715-0.676,2.453-1.045c1.014-0.581,1.28-0.678,1.591-0.678
			c3.842,0,4.286,5.898,4.286,10.334c0,1.728-0.638,3.058-1.896,3.956C81.059,57.771,79.669,58.191,78.019,58.191z M74.946,56.191
			h3.072c1.219,0,2.228-0.298,3.084-0.911c0.723-0.516,1.059-1.255,1.059-2.328c0-5.118-0.778-8.127-2.142-8.324
			c-0.118,0.057-0.351,0.178-0.792,0.431c-0.854,0.429-1.755,0.812-2.725,1.166c-2.149,0.75-4.139,0.77-5.969,0.377
			c0.005,0.136,0.008,0.268,0.008,0.397c0,2.121-0.475,4.088-1.446,5.974C71.382,53.367,73.344,54.445,74.946,56.191z"/>
	</g>
</g>
</svg>
