<?xml version="1.0" encoding="UTF-8" standalone="no"?>
<svg width="111px" height="111px" viewBox="0 0 111 111" version="1.1" xmlns="http://www.w3.org/2000/svg" xmlns:xlink="http://www.w3.org/1999/xlink" xmlns:sketch="http://www.bohemiancoding.com/sketch/ns">
    <!-- Generator: Sketch 3.3.3 (12081) - http://www.bohemiancoding.com/sketch -->
    <title>science_and_tech_2</title>
    <desc>Created with Sketch.</desc>
    <defs></defs>
    <g id="Page-1" stroke="none" stroke-width="1" fill="none" fill-rule="evenodd" sketch:type="MSPage">
        <g id="news_category_icons" sketch:type="MSArtboardGroup" transform="translate(-1155.000000, -234.000000)">
            <g id="science_and_technology_2" sketch:type="MSLayerGroup" transform="translate(1130.000000, 235.000000)">
                <g id="science_and_tech_2" transform="translate(26.000000, 0.000000)" sketch:type="MSShapeGroup">
                    <circle id="Oval-26" stroke="#000000" stroke-width="2" cx="54.5" cy="54.5" r="54.5"></circle>
                    <g id="science-and-tech" transform="translate(35.000000, 27.000000)">
                        <path d="M27.4817474,45.8115935 L-7.81597009e-14,45.8115935 L-7.53545499e-14,7.10542736e-15 L32.5314327,7.10542736e-15 L32.5314327,31.3948976" id="Path-197" stroke="#000000" stroke-width="2" stroke-linecap="round" stroke-linejoin="round"></path>
                        <path d="M12,5 L20,5" id="Path-193-Copy-4" stroke="#000000" stroke-width="2" stroke-linecap="round"></path>
                        <circle id="Oval-54" fill="#000000" cx="16" cy="40" r="2"></circle>
                        <path d="M32.1842747,50 C30.4256484,50 28.2428432,48.7928547 27.3151466,47.3138156 L21.3225298,37.7597061 C20.6610689,36.6290971 21.0474047,35.186928 22.2033099,34.5283469 C23.3512122,33.8743255 24.8190957,34.2625645 25.4794517,35.3912851 L27.4,38.6740027 L27.4,26.3157895 L27.4,22.3540497 C27.4,21.0539439 28.4652756,20 29.8,20 C31.1254834,20 32.2,21.0677159 32.2,22.3540497 L32.2,31.8421053 L42.6,33.4210526 C42.6,33.4210526 45,34.2105263 45,37.3778776 L45,38.9473684 L45,39.7368421 L45,41.3157895 C45,42.6831399 44.4111367,44.9502124 43.7386256,46.2256411 C42.8434216,47.9234109 42.0068466,48.7836105 42.0068466,48.7836105 C41.4507806,49.4554039 40.2852821,50 39.4064927,50 L32.1842747,50 Z" id="Rectangle-46-Copy" stroke="#000000" stroke-width="1.98000002" transform="translate(33.000000, 35.000000) rotate(-47.000000) translate(-33.000000, -35.000000) "></path>
                    </g>
                </g>
            </g>
        </g>
    </g>
</svg>