<?xml version="1.0" encoding="utf-8"?>
<!-- Generator: Adobe Illustrator 16.0.4, SVG Export Plug-In . SVG Version: 6.00 Build 0)  -->
<!DOCTYPE svg PUBLIC "-//W3C//DTD SVG 1.1//EN" "http://www.w3.org/Graphics/SVG/1.1/DTD/svg11.dtd">
<svg version="1.1" id="Layer_1" xmlns="http://www.w3.org/2000/svg" xmlns:xlink="http://www.w3.org/1999/xlink" x="0px" y="0px"
	 width="100px" height="100px" viewBox="0 0 100 100" enable-background="new 0 0 100 100" xml:space="preserve">
<path fill="#231F20" d="M50.5,2.271c26.467,0,48,21.533,48,48c0,26.467-21.533,48-48,48s-48-21.533-48-48
	C2.5,23.803,24.033,2.271,50.5,2.271 M50.5,0.271c-27.614,0-50,22.386-50,50c0,27.613,22.386,50,50,50c27.613,0,50-22.388,50-50
	C100.5,22.656,78.113,0.271,50.5,0.271L50.5,0.271z"/>
<path d="M50.5,17.937c-17.857,0-32.334,14.477-32.334,32.334S32.643,82.604,50.5,82.604c17.857,0,32.334-14.477,32.334-32.333
	S68.357,17.937,50.5,17.937z M78.917,39.716c1.228,3.291,1.917,6.841,1.917,10.555c0,4.306-0.902,8.404-2.527,12.118h-9.732
	c0.822-3.383,1.312-7.048,1.398-10.884h6.521l-4.312,3.879c-0.369,0.333-0.4,0.902-0.066,1.271c0.178,0.196,0.423,0.299,0.669,0.299
	c0.215,0,0.43-0.077,0.603-0.231l5.385-4.846c0.238-0.214,0.319-0.523,0.271-0.816c0.049-0.295-0.031-0.604-0.271-0.817
	l-5.385-4.844c-0.369-0.331-0.938-0.302-1.271,0.067c-0.334,0.37-0.303,0.939,0.066,1.271l3.301,2.969h-5.496
	c-0.036-3.488-0.403-6.84-1.057-9.976h9.924C78.875,39.729,78.895,39.718,78.917,39.716z M78.197,37.929h-9.682
	c-1.832-7.341-5.236-13.329-9.529-16.775C67.574,23.661,74.591,29.872,78.197,37.929z M42.012,21.154
	c-4.303,3.456-7.722,9.459-9.55,16.826c-0.081-0.024-0.163-0.051-0.252-0.051h-9.409C26.406,29.869,33.425,23.662,42.012,21.154z
	 M20.166,50.271c0-3.706,0.67-7.257,1.893-10.542c0.002,0,0.003,0.001,0.005,0.001h10.002c-0.652,3.135-1.015,6.489-1.051,9.976
	h-5.986l3.303-2.97c0.369-0.332,0.4-0.901,0.067-1.271c-0.333-0.369-0.9-0.4-1.271-0.067l-4.857,4.369
	c-0.224,0.08-0.405,0.243-0.507,0.456l-0.022,0.02c-0.237,0.214-0.318,0.522-0.27,0.815c-0.051,0.295,0.03,0.605,0.269,0.82
	l5.386,4.846c0.173,0.154,0.388,0.23,0.602,0.23c0.247,0,0.492-0.102,0.669-0.298c0.332-0.37,0.303-0.939-0.067-1.271l-4.313-3.88
	h7.01c0.087,3.838,0.575,7.501,1.401,10.883h-9.734C21.068,58.675,20.166,54.576,20.166,50.271z M23.569,64.188h9.334
	c1.908,6.619,5.127,12.002,9.108,15.198C33.995,77.046,27.353,71.475,23.569,64.188z M49.6,80.562
	c-4.152-0.377-8.091-3.346-11.176-8.461c-1.415-2.346-2.558-5.021-3.435-7.912H49.6V80.562z M49.6,62.389H34.478
	c-0.87-3.406-1.353-7.082-1.441-10.884H49.6V62.389z M50.499,21.604c-0.294-0.049-0.604,0.031-0.817,0.265l-4.845,5.303
	c-0.332,0.364-0.303,0.924,0.067,1.25c0.37,0.327,0.938,0.297,1.271-0.065l3.425-3.749v13.32h-8.235l3.302-2.97
	c0.37-0.332,0.4-0.901,0.067-1.271c-0.333-0.369-0.902-0.4-1.271-0.067l-4.858,4.37c-0.215,0.08-0.386,0.236-0.488,0.439
	l-0.04,0.035c-0.237,0.212-0.318,0.52-0.271,0.812c-0.052,0.295,0.029,0.608,0.269,0.823l5.386,4.845
	c0.173,0.155,0.388,0.231,0.602,0.231c0.247,0,0.492-0.101,0.669-0.298c0.332-0.37,0.303-0.939-0.067-1.271l-4.312-3.879H49.6v9.976
	H33.017c0.086-8.063,1.99-15.599,5.407-21.265c3.307-5.483,7.596-8.503,12.076-8.503c4.48,0,8.77,3.02,12.075,8.503
	c1.669,2.767,2.968,5.988,3.883,9.489H51.4v-13.32l3.425,3.749c0.179,0.194,0.423,0.293,0.669,0.293c0.215,0,0.43-0.075,0.602-0.228
	c0.371-0.327,0.4-0.887,0.067-1.25l-4.845-5.303C51.104,21.635,50.793,21.555,50.499,21.604z M51.4,64.188h7.849l-4.312,3.877
	c-0.369,0.334-0.399,0.902-0.066,1.271c0.178,0.198,0.423,0.299,0.669,0.299c0.215,0,0.431-0.076,0.603-0.232l5.385-4.844
	c0.238-0.215,0.32-0.523,0.271-0.816c0.049-0.294-0.031-0.604-0.271-0.817l-5.385-4.845c-0.369-0.333-0.938-0.305-1.271,0.066
	c-0.333,0.369-0.304,0.938,0.065,1.271l3.303,2.971H51.4V51.505h12.92c0.498,0,0.9-0.401,0.9-0.899c0-0.498-0.402-0.9-0.9-0.9H51.4
	v-9.976h15.479C67.604,43.062,68,46.608,68,50.271c0,8.277-1.927,16.03-5.425,21.831c-3.084,5.115-7.023,8.084-11.175,8.461V64.188z
	 M58.986,79.389c3.981-3.197,7.199-8.578,9.104-15.199h9.341C73.646,71.475,67.004,77.047,58.986,79.389z"/>
</svg>
