<?xml version="1.0" encoding="utf-8"?>
<!-- Generator: Adobe Illustrator 16.0.0, SVG Export Plug-In . SVG Version: 6.00 Build 0)  -->
<!DOCTYPE svg PUBLIC "-//W3C//DTD SVG 1.1//EN" "http://www.w3.org/Graphics/SVG/1.1/DTD/svg11.dtd">
<svg version="1.1" id="Layer_1" xmlns:sketch="http://www.bohemiancoding.com/sketch/ns"
	 xmlns="http://www.w3.org/2000/svg" xmlns:xlink="http://www.w3.org/1999/xlink" x="0px" y="0px" width="63px" height="63px"
	 viewBox="0 0 63 63" enable-background="new 0 0 63 63" xml:space="preserve">
<title>video_arrow</title>
<desc>Created with Sketch.</desc>
<g id="Page-1" sketch:type="MSPage">
	<g id="video_arrow" sketch:type="MSLayerGroup">
		<g id="Oval-19">
			<path d="M31.57,62.26c-16.999,0-30.829-13.831-30.829-30.83c0-17,13.83-30.83,30.829-30.83c17,0,30.83,13.83,30.83,30.83
				C62.4,48.429,48.57,62.26,31.57,62.26z M31.57,2.497c-15.953,0-28.932,12.979-28.932,28.933
				c0,15.952,12.979,28.932,28.932,28.932S60.503,47.382,60.503,31.43C60.503,15.476,47.523,2.497,31.57,2.497z"/>
		</g>
		<g id="Fill-228">
			<path d="M27.471,47.916c-0.755,0-1.425-0.3-1.989-0.892c-0.555-0.576-0.836-1.255-0.836-2.013V17.847
				c0-0.757,0.282-1.435,0.838-2.014c0.566-0.591,1.235-0.89,1.987-0.89c0.729,0,1.435,0.315,1.987,0.887l12.983,13.587
				c0.554,0.578,0.835,1.255,0.835,2.013c0,0.759-0.281,1.436-0.836,2.015l-12.979,13.58C28.909,47.6,28.203,47.916,27.471,47.916z
				 M27.471,16.84c-0.169,0-0.361,0.038-0.619,0.306c-0.217,0.226-0.31,0.436-0.31,0.701v27.165c0,0.27,0.089,0.472,0.31,0.701
				c0.257,0.269,0.449,0.306,0.619,0.306c0.208,0,0.435-0.112,0.621-0.307l12.979-13.58c0.217-0.225,0.308-0.434,0.308-0.701
				c0-0.271-0.088-0.474-0.308-0.702L28.09,17.145C27.905,16.952,27.678,16.84,27.471,16.84z"/>
		</g>
	</g>
</g>
</svg>
