<?xml version="1.0" standalone="no"?>
<!DOCTYPE svg PUBLIC "-//W3C//DTD SVG 1.1//EN" "http://www.w3.org/Graphics/SVG/1.1/DTD/svg11.dtd" >
<svg>
<metadata>
Created by FontForge 20120731 at Mon Oct  3 21:02:54 2016
 By ,,,
Copyright (c) Mark Simonson, 2005. All rights reserved.
</metadata>
<defs>
<font id="ProximaNovaExCn-RegularIt" horiz-adv-x="378" >
  <font-face 
    font-family="Proxima Nova ExCn Rg"
    font-weight="400"
    font-style="italic"
    font-stretch="normal"
    units-per-em="1000"
    panose-1="2 0 5 6 3 0 0 2 0 4"
    ascent="790"
    descent="-210"
    x-height="483"
    cap-height="667"
    bbox="-154 -264 830 886"
    underline-thickness="20"
    underline-position="-113"
    unicode-range="U+0020-FB04"
  />
<missing-glyph horiz-adv-x="477" 
d="M434 -90h-351v842h351v-842zM402 -60v782h-288v-782h288z" />
    <glyph glyph-name="f_f_j" unicode="ffj" horiz-adv-x="628" 
d="M85 0h-69l94 423h-47l13 60h47l17 80q24 114 117 114q52 0 73 -29l-34 -52q-12 20 -34 20q-42 0 -53 -53l-18 -80h66l-13 -60h-66zM309 0h-69l94 423h-47l13 60h47l17 80q25 114 117 114q30 0 52 -12l-26 -55q-7 6 -21 6q-42 0 -53 -53l-18 -80h66l-13 -60h-66zM391 -196
q-49 0 -64 34l36 46q5 -19 26 -19q31 0 45 64l123 554h68l-123 -554q-15 -68 -40.5 -96.5t-70.5 -28.5zM611 554q-18 0 -30.5 12t-12.5 29q0 23 17 38t37 15q18 0 30.5 -12t12.5 -29q0 -23 -17 -38t-37 -15z" />
    <glyph glyph-name="f_j" unicode="fj" horiz-adv-x="404" 
d="M85 0h-69l94 423h-47l13 60h47l17 80q25 114 117 114q29 0 52 -12l-26 -55q-7 6 -21 6q-42 0 -53 -53l-18 -80h66l-13 -60h-66zM167 -196q-49 0 -64 34l36 46q5 -19 26 -19q31 0 45 64l123 554h68l-123 -554q-15 -68 -40.5 -96.5t-70.5 -28.5zM387 554q-18 0 -30.5 12
t-12.5 29q0 23 17 38t37 15q18 0 30.5 -12t12.5 -29q0 -23 -17 -38t-37 -15z" />
    <glyph glyph-name="f_f" unicode="ff" horiz-adv-x="448" 
d="M85 0h-69l94 423h-47l13 60h47l17 80q24 114 117 114q52 0 73 -29l-34 -52q-12 20 -34 20q-42 0 -53 -53l-18 -80h66l-13 -60h-66zM309 0h-69l94 423h-47l13 60h47l17 80q24 114 117 114q52 0 73 -29l-34 -52q-12 20 -34 20q-42 0 -53 -53l-18 -80h66l-13 -60h-66z" />
    <glyph glyph-name="fi" unicode="fi" horiz-adv-x="404" 
d="M85 0h-69l94 423h-47l13 60h47l17 80q25 114 117 114q29 0 52 -12l-26 -55q-7 6 -21 6q-42 0 -53 -53l-18 -80h66l-13 -60h-66zM387 554q-18 0 -30.5 12t-12.5 29q0 23 17 38t37 15q18 0 30.5 -12t12.5 -29q0 -23 -17 -38t-37 -15zM294 0h-68l107 483h68z" />
    <glyph glyph-name="fl" unicode="fl" horiz-adv-x="404" 
d="M85 0h-69l94 423h-47l13 60h47l17 80q25 114 117 114q29 0 52 -12l-26 -55q-7 6 -21 6q-42 0 -53 -53l-18 -80h66l-13 -60h-66zM294 0h-68l147 667h68z" />
    <glyph glyph-name="f_f_i" unicode="ffi" horiz-adv-x="628" 
d="M85 0h-69l94 423h-47l13 60h47l17 80q24 114 117 114q52 0 73 -29l-34 -52q-12 20 -34 20q-42 0 -53 -53l-18 -80h66l-13 -60h-66zM309 0h-69l94 423h-47l13 60h47l17 80q25 114 117 114q30 0 52 -12l-26 -55q-7 6 -21 6q-42 0 -53 -53l-18 -80h66l-13 -60h-66zM611 554
q-18 0 -30.5 12t-12.5 29q0 23 17 38t37 15q18 0 30.5 -12t12.5 -29q0 -23 -17 -38t-37 -15zM518 0h-68l107 483h68z" />
    <glyph glyph-name="f_f_l" unicode="ffl" horiz-adv-x="628" 
d="M85 0h-69l94 423h-47l13 60h47l17 80q24 114 117 114q52 0 73 -29l-34 -52q-12 20 -34 20q-42 0 -53 -53l-18 -80h66l-13 -60h-66zM309 0h-69l94 423h-47l13 60h47l17 80q25 114 117 114q30 0 52 -12l-26 -55q-7 6 -21 6q-42 0 -53 -53l-18 -80h66l-13 -60h-66zM518 0
h-68l147 667h68z" />
    <glyph glyph-name="f_b" unicode="fb" horiz-adv-x="608" 
d="M85 0h-69l94 423h-47l13 60h47l17 80q25 114 117 114q29 0 52 -12l-26 -55q-7 6 -21 6q-42 0 -53 -53l-18 -80h66l-13 -60h-66zM397 -12q-66 0 -88 82l-15 -70h-68l147 667h68l-54 -246q44 74 101 74q46 0 71 -37.5t25 -105.5q0 -48 -12 -107.5t-33.5 -118.5t-59 -98.5
t-82.5 -39.5zM386 49q30 0 55 34t40 83t23.5 97.5t8.5 83.5q0 87 -55 87q-23 0 -47 -23.5t-39 -56.5l-50 -224q4 -34 22 -57.5t42 -23.5z" />
    <glyph glyph-name="f_h" unicode="fh" horiz-adv-x="602" 
d="M85 0h-69l94 423h-47l13 60h47l17 80q25 114 117 114q29 0 52 -12l-26 -55q-7 6 -21 6q-42 0 -53 -53l-18 -80h66l-13 -60h-66zM492 0h-68l82 371q3 15 3 24q0 39 -38 39q-50 0 -99 -82l-78 -352h-68l147 667h68l-54 -249q54 77 117 77q38 0 58 -20t20 -54q0 -11 -4 -31z
" />
    <glyph glyph-name="f_k" unicode="fk" horiz-adv-x="585" 
d="M85 0h-69l94 423h-47l13 60h47l17 80q25 114 117 114q29 0 52 -12l-26 -55q-7 6 -21 6q-42 0 -53 -53l-18 -80h66l-13 -60h-66zM516 0h-72l-44 222l-79 -99l-27 -123h-68l147 667h68l-98 -446l204 262h76l-171 -216z" />
    <glyph glyph-name=".notdef" horiz-adv-x="477" 
d="M434 -90h-351v842h351v-842zM402 -60v782h-288v-782h288z" />
    <glyph glyph-name=".null" horiz-adv-x="0" 
 />
    <glyph glyph-name="nonmarkingreturn" horiz-adv-x="333" 
 />
    <glyph glyph-name="space" unicode=" " horiz-adv-x="171" 
 />
    <glyph glyph-name="exclam" unicode="!" horiz-adv-x="227" 
d="M127 183h-56l92 484h86zM63 -10q-19 0 -33 14t-14 33q0 23 17 39.5t40 16.5q19 0 33 -13.5t14 -33.5q0 -23 -17 -39.5t-40 -16.5z" />
    <glyph glyph-name="quotedbl" unicode="&#x22;" horiz-adv-x="336" 
d="M151 416h-34q21 203 21 209q2 24 15.5 38t34.5 14q16 0 27 -11t11 -28q0 -2 -5 -22zM293 416h-34q21 203 21 209q2 24 15.5 38t34.5 14q16 0 27 -11t11 -28q0 -2 -5 -22z" />
    <glyph glyph-name="numbersign" unicode="#" horiz-adv-x="423" 
d="M171 0h-57l84 183h-71l-82 -183h-57l83 183h-68l22 49h69l92 203h-69l20 49h71l82 183h57l-82 -183h70l82 183h56l-82 -183h68l-21 -49h-69l-93 -203h71l-22 -49h-72zM219 232l93 203h-70l-92 -203h69z" />
    <glyph glyph-name="dollar" unicode="$" horiz-adv-x="343" 
d="M78 -100l20 90q-77 11 -115 67l49 56q27 -49 81 -57l57 256q-28 35 -40 52t-26 51.5t-14 69.5q0 76 47.5 130.5t112.5 61.5l21 91h56l-21 -95q52 -11 83 -50l-44 -56q-20 30 -54 39l-54 -241q22 -29 35 -49t24.5 -52.5t11.5 -64.5q0 -80 -43 -138.5t-111 -69.5l-20 -91
h-56zM170 496q0 -33 24 -72l40 180q-29 -11 -46.5 -41t-17.5 -67zM230 188q0 32 -18 65l-41 -184q59 36 59 119z" />
    <glyph glyph-name="percent" unicode="%" horiz-adv-x="570" 
d="M114 0h-40l420 667h42zM378 -12q-51 0 -77.5 34.5t-26.5 86.5q0 85 45.5 146.5t102.5 61.5q50 0 76.5 -35t26.5 -87q0 -85 -45.5 -146t-101.5 -61zM380 35q34 0 63 46t29 110q0 78 -53 78q-34 0 -63 -46t-29 -110q0 -78 53 -78zM187 348q-50 0 -76.5 35t-26.5 87
q0 85 45 146t102 61q50 0 76.5 -34.5t26.5 -86.5q0 -85 -45 -146.5t-102 -61.5zM189 396q34 0 63.5 46t29.5 110q0 78 -53 78q-34 0 -63.5 -46t-29.5 -110q0 -78 53 -78z" />
    <glyph glyph-name="ampersand" unicode="&#x26;" horiz-adv-x="399" 
d="M333 0h-73l-18 48q-58 -60 -119 -60q-50 0 -80.5 33t-30.5 92q0 47 11.5 86t34 70.5t44 52.5t53.5 48q-7 46 -7 96q0 84 42 147.5t96 63.5q39 0 62 -25t23 -78q0 -31 -10 -60t-19.5 -47t-36.5 -44.5t-37.5 -35.5t-45.5 -37q7 -39 20 -87q16 -61 24 -88q32 59 66 139
l52 -28q-49 -113 -95 -179q23 -60 44 -107zM136 46q39 0 86 61q-25 77 -33 109q-11 42 -21 86q-84 -82 -84 -182q0 -34 14.5 -54t37.5 -20zM212 456q0 -27 1 -40q47 39 71.5 75t24.5 85q0 28 -7.5 37.5t-22.5 9.5q-26 0 -46.5 -53t-20.5 -114z" />
    <glyph glyph-name="quotesingle" unicode="'" horiz-adv-x="195" 
d="M151 416h-34q21 203 21 209q2 24 15.5 38t34.5 14q16 0 27 -11t11 -28q0 -2 -5 -22z" />
    <glyph glyph-name="parenleft" unicode="(" horiz-adv-x="209" 
d="M96 -183l-51 -16q-25 97 -25 208q0 358 220 676l43 -25q-86 -150 -140 -335t-54 -358q0 -86 7 -150z" />
    <glyph glyph-name="parenright" unicode=")" horiz-adv-x="209" 
d="M112 669l51 16q26 -101 26 -208q0 -359 -221 -676l-43 25q86 150 140 335t54 358q0 86 -7 150z" />
    <glyph glyph-name="asterisk" unicode="*" horiz-adv-x="303" 
d="M205 392h-44l32 118l-111 -51l-12 38l114 41l-90 62l29 35l82 -72l20 114h44l-32 -117l110 51l13 -39l-113 -41l90 -62l-30 -34l-82 71z" />
    <glyph glyph-name="plus" unicode="+" 
d="M364 313h-133l-35 -155h-53l34 155h-133l11 49h133l33 148h53l-32 -148h133z" />
    <glyph glyph-name="comma" unicode="," horiz-adv-x="228" 
d="M122 38q0 -44 -32.5 -89t-78.5 -68l-29 30q28 15 51.5 38t30.5 46h-8q-16 0 -28 12t-12 31q0 22 17 38.5t40 16.5q21 0 35 -14.5t14 -40.5z" />
    <glyph glyph-name="hyphen" unicode="-" horiz-adv-x="235" 
d="M198 212h-175l13 60h175z" />
    <glyph glyph-name="period" unicode="." horiz-adv-x="227" 
d="M63 -10q-19 0 -33 14t-14 33q0 23 17 39.5t40 16.5q19 0 33 -13.5t14 -33.5q0 -23 -17 -39.5t-40 -16.5z" />
    <glyph glyph-name="slash" unicode="/" horiz-adv-x="200" 
d="M-5 -20h-54l303 707h55z" />
    <glyph glyph-name="zero" unicode="0" horiz-adv-x="412" 
d="M166 -12q-58 0 -92.5 45.5t-34.5 137.5q0 107 29.5 221.5t88 199.5t128.5 85q58 0 92 -45.5t34 -137.5q0 -106 -29.5 -221t-88 -200t-127.5 -85zM172 56q46 0 86 87t59.5 189.5t19.5 174.5q0 102 -59 102q-46 0 -86 -86.5t-59.5 -189t-19.5 -175.5q0 -102 59 -102z" />
    <glyph glyph-name="one" unicode="1" horiz-adv-x="292" 
d="M175 0h-75l125 567l-123 -106l-35 47l188 159h67z" />
    <glyph glyph-name="two" unicode="2" horiz-adv-x="391" 
d="M293 0h-296l18 78q208 250 242 296q69 103 73 159q0 35 -18.5 55.5t-49.5 20.5q-59 0 -108 -72l-44 47q70 93 158 93q63 0 102.5 -35.5t39.5 -98.5q0 -76 -57.5 -162.5t-245.5 -313.5h200z" />
    <glyph glyph-name="three" unicode="3" horiz-adv-x="390" 
d="M155 -12q-59 0 -102 34.5t-57 99.5l65 34q19 -100 94 -100q49 0 78.5 53.5t29.5 118.5q0 40 -21.5 60.5t-52.5 20.5q-23 0 -31 -1l16 69q7 -1 45 -1q50 0 78 47.5t28 109.5q0 76 -71 76q-60 0 -100 -71l-46 43q63 96 158 96q63 0 101 -34.5t38 -97.5q0 -71 -39 -131.5
t-99 -73.5q71 -27 71 -124q0 -88 -52.5 -158t-130.5 -70z" />
    <glyph glyph-name="four" unicode="4" horiz-adv-x="366" 
d="M245 0h-75l38 173h-211l17 73l285 421h93l-94 -427h52l-14 -67h-53zM222 240l73 328l-217 -328h144z" />
    <glyph glyph-name="five" unicode="5" horiz-adv-x="393" 
d="M156 -12q-121 0 -150 133l64 33q14 -98 87 -98q46 0 82.5 69t36.5 148q0 80 -61 80q-45 0 -92 -53l-52 24l76 343h273l-15 -67h-197l-50 -231q38 48 93 48q48 0 76.5 -36.5t28.5 -99.5q0 -113 -58 -203t-142 -90z" />
    <glyph glyph-name="six" unicode="6" horiz-adv-x="392" 
d="M165 -12q-67 0 -98 48t-31 127q0 55 15 135t43.5 168t83 149.5t121.5 61.5q45 0 79 -28t44 -75l-55 -44q-4 37 -23 58t-49 21q-98 0 -159 -263l-4 -22q52 92 120 92q47 0 77 -35.5t30 -99.5t-21.5 -129.5t-67.5 -114.5t-105 -49zM170 56q35 0 61.5 40.5t38 88.5t11.5 88
q0 35 -14.5 57t-44.5 22q-54 0 -104 -103q-10 -52 -10 -94q0 -99 62 -99z" />
    <glyph glyph-name="seven" unicode="7" horiz-adv-x="330" 
d="M104 0h-83l281 600h-202l14 67h288l-12 -52z" />
    <glyph glyph-name="eight" unicode="8" horiz-adv-x="391" 
d="M161 -12q-148 0 -148 134q0 71 39 133t114 95q-28 21 -47 58t-19 78q0 74 50 132.5t122 58.5q58 0 98 -32.5t40 -100.5q0 -76 -42 -129t-100 -76q33 -25 51.5 -64.5t18.5 -81.5q0 -88 -51 -146.5t-126 -58.5zM223 370q42 17 75 58.5t33 107.5q0 73 -64 73
q-38 0 -65 -40.5t-27 -97.5q0 -31 14.5 -59t33.5 -42zM160 56q39 0 70.5 44t31.5 105q0 42 -17 72t-34 40q-47 -17 -83 -66t-36 -114q0 -41 19 -61t49 -20z" />
    <glyph glyph-name="nine" unicode="9" horiz-adv-x="392" 
d="M266 678q67 0 98 -48t31 -127q0 -55 -15 -135t-43.5 -168t-83 -149.5t-121.5 -61.5q-45 0 -79 28t-44 75l56 44q4 -37 22.5 -58t48.5 -21q98 0 159 263q2 6 2.5 12.5t1.5 9.5q-52 -92 -120 -92q-47 0 -77 35.5t-30 99.5t21.5 129.5t67.5 114.5t105 49zM262 610
q-35 0 -62 -40.5t-38.5 -88.5t-11.5 -88q0 -34 14.5 -56.5t44.5 -22.5q56 0 104 103q10 52 10 94q0 99 -61 99z" />
    <glyph glyph-name="colon" unicode=":" horiz-adv-x="226" 
d="M64 -10q-20 0 -33.5 13.5t-13.5 33.5q0 23 16.5 39.5t39.5 16.5q20 0 33.5 -13.5t13.5 -33.5q0 -23 -16.5 -39.5t-39.5 -16.5zM151 387q-19 0 -33 13.5t-14 33.5q0 23 17 39.5t40 16.5q20 0 33.5 -14t13.5 -34q0 -23 -17 -39t-40 -16z" />
    <glyph glyph-name="semicolon" unicode=";" horiz-adv-x="227" 
d="M122 38q0 -44 -32.5 -89t-78.5 -68l-29 30q28 15 51.5 38t30.5 46h-8q-16 0 -28 12t-12 31q0 22 17 38.5t40 16.5q21 0 35 -14.5t14 -40.5zM151 387q-19 0 -33 13.5t-14 33.5q0 23 17 39.5t40 16.5q20 0 33.5 -14t13.5 -34q0 -23 -17 -39t-40 -16z" />
    <glyph glyph-name="less" unicode="&#x3c;" 
d="M330 161l-287 149l11 49l353 149l-14 -61l-284 -116l233 -114z" />
    <glyph glyph-name="equal" unicode="=" 
d="M385 407h-321l12 49h320zM342 212h-321l12 49h320z" />
    <glyph glyph-name="greater" unicode="&#x3e;" 
d="M363 310l-353 -149l14 62l285 114l-234 115l12 56l287 -149z" />
    <glyph glyph-name="question" unicode="?" horiz-adv-x="313" 
d="M184 208l-63 -25q-12 27 -12 62q0 47 26.5 88.5t57.5 67.5t57.5 63t26.5 77q0 30 -17.5 51t-47.5 21q-36 0 -67 -25l-23 52q49 38 107 38q57 0 91.5 -35.5t34.5 -83.5q0 -42 -18.5 -79t-45 -64.5t-53 -52.5t-45 -53t-18.5 -56t9 -46zM110 -10q-20 0 -33.5 13.5
t-13.5 33.5q0 23 16.5 39.5t39.5 16.5q20 0 34 -13.5t14 -33.5q0 -23 -17 -39.5t-40 -16.5z" />
    <glyph glyph-name="at" unicode="@" horiz-adv-x="599" 
d="M283 -70q-104 0 -166 77t-62 208q0 107 45 205t121.5 158.5t163.5 60.5q90 0 144.5 -65t54.5 -180q0 -128 -45.5 -218.5t-102.5 -90.5q-32 0 -52 19.5t-22 50.5l-1 7q-47 -77 -108 -77q-38 0 -64.5 29t-26.5 94q0 69 22 135t65 111t96 45q56 0 72 -72l11 56h63l-59 -278
q-3 -15 -3 -28q0 -42 30 -42q12 0 27 17.5t29.5 48.5t24.5 82.5t10 110.5q0 101 -45.5 156t-120.5 55q-77 0 -145.5 -57t-108 -147t-39.5 -185q0 -116 53 -184.5t143 -68.5q71 0 137 56l17 -26q-76 -63 -158 -63zM277 137q20 0 39.5 14t29 27.5t25.5 38.5l35 162
q-13 69 -54 69q-54 0 -88.5 -76.5t-34.5 -155.5t48 -79z" />
    <glyph glyph-name="A" unicode="A" horiz-adv-x="364" 
d="M303 0h-75l7 153h-143l-60 -153h-79l278 667h87zM240 220l17 357l-140 -357h123z" />
    <glyph glyph-name="B" unicode="B" horiz-adv-x="403" 
d="M172 0h-163l147 667h117q64 0 99.5 -37.5t35.5 -96.5q0 -69 -34.5 -127t-91.5 -69q33 -10 49.5 -43.5t16.5 -73.5q0 -86 -47 -153t-129 -67zM228 375q47 0 73.5 47.5t26.5 98.5q0 39 -20 59t-55 20h-36l-50 -225h61zM163 67q46 0 77 48t31 110q0 83 -77 83h-42l-53 -241
h64z" />
    <glyph glyph-name="C" unicode="C" horiz-adv-x="390" 
d="M175 -12q-65 0 -100.5 48t-35.5 141q0 61 15 141t44 163.5t81 140t117 56.5q62 0 93 -42.5t37 -111.5l-70 -14q-9 100 -66 100q-40 0 -74.5 -51.5t-55 -124.5t-32 -143.5t-11.5 -116.5q0 -118 63 -118q47 0 94 85l60 -28q-66 -125 -159 -125z" />
    <glyph glyph-name="D" unicode="D" horiz-adv-x="427" 
d="M136 0h-127l147 667h124q58 0 99 -50t41 -150q0 -30 -5.5 -72t-17.5 -96t-34.5 -105.5t-52 -95.5t-75 -71t-99.5 -27zM151 67h-2q50 0 90 50t61 120.5t31.5 131t10.5 97.5q0 68 -21.5 101t-54.5 33h-49l-118 -533h52z" />
    <glyph glyph-name="E" unicode="E" horiz-adv-x="352" 
d="M257 0h-248l147 667h248l-15 -67h-172l-50 -225h165l-15 -67h-165l-53 -241h172z" />
    <glyph glyph-name="F" unicode="F" horiz-adv-x="351" 
d="M84 0h-75l147 667h248l-15 -67h-172l-50 -225h165l-15 -67h-165z" />
    <glyph glyph-name="G" unicode="G" horiz-adv-x="411" 
d="M175 -12q-65 0 -100.5 47.5t-35.5 141.5q0 65 16 146.5t45.5 163t81 136.5t114.5 55t93.5 -42.5t33.5 -104.5l-66 -15q-7 94 -67 94q-39 0 -73 -50t-55 -121t-33 -142.5t-12 -122.5q0 -64 15.5 -91t48.5 -27q39 0 79 56l35 161h-89l14 67h158l-56 -255q-64 -97 -147 -97z
" />
    <glyph glyph-name="H" unicode="H" horiz-adv-x="436" 
d="M319 0h-75l68 309h-160l-68 -309h-75l147 667h75l-64 -290h160l64 290h75z" />
    <glyph glyph-name="I" unicode="I" horiz-adv-x="201" 
d="M84 0h-75l147 667h75z" />
    <glyph glyph-name="J" unicode="J" horiz-adv-x="321" 
d="M76 -12q-77 0 -112 51l37 57q23 -40 70 -40q37 0 58.5 21t31.5 68l116 522h75l-116 -525q-18 -81 -56 -117.5t-104 -36.5z" />
    <glyph glyph-name="K" unicode="K" horiz-adv-x="418" 
d="M353 0h-81l-78 292l-65 -89l-45 -203h-75l147 667h75l-73 -335l239 335h90l-238 -317z" />
    <glyph glyph-name="L" unicode="L" horiz-adv-x="333" 
d="M257 0h-248l147 667h75l-132 -600h172z" />
    <glyph glyph-name="M" unicode="M" horiz-adv-x="558" 
d="M441 0h-74l115 523l-242 -523h-30l-10 523l-116 -523h-75l147 667h100l10 -470l220 470h102z" />
    <glyph glyph-name="N" unicode="N" horiz-adv-x="436" 
d="M319 0h-72l-55 489l-108 -489h-75l147 667h75l54 -479l106 479h75z" />
    <glyph glyph-name="O" unicode="O" horiz-adv-x="434" 
d="M175 -12q-69 0 -102.5 52.5t-33.5 136.5q0 46 9 107t29.5 131t49 128t73 96.5t96.5 38.5q69 0 103 -53.5t34 -137.5q0 -59 -15.5 -139t-44.5 -163t-81.5 -140t-116.5 -57zM180 56q38 0 72.5 50t56 121t34 142t12.5 121q0 120 -65 120q-39 0 -73 -50t-55 -121.5t-33 -143
t-12 -121.5q0 -118 63 -118z" />
    <glyph glyph-name="P" unicode="P" horiz-adv-x="387" 
d="M84 0h-75l147 667h125q58 0 94.5 -42t36.5 -109q0 -62 -22 -117t-71 -92.5t-116 -37.5h-59zM217 600l-59 -264h52q57 0 89.5 53t32.5 121q0 44 -18.5 67t-49.5 23h-47z" />
    <glyph glyph-name="Q" unicode="Q" horiz-adv-x="434" 
d="M175 -12q-69 0 -102.5 52.5t-33.5 136.5q0 46 9 107t29.5 131t49 128t73 96.5t96.5 38.5q69 0 103 -53.5t34 -137.5q0 -109 -43.5 -255t-121.5 -209l8 -48l-59 -10l-5 29q-18 -6 -37 -6zM180 56q13 0 22 4l-24 149l60 10l17 -111q44 65 72 183.5t28 198.5q0 120 -65 120
q-39 0 -73 -50t-55 -121.5t-33 -143t-12 -121.5q0 -118 63 -118z" />
    <glyph glyph-name="R" unicode="R" horiz-adv-x="409" 
d="M311 0h-78l-27 269h-62l-60 -269h-75l147 667h123q59 0 96.5 -42.5t37.5 -107.5q0 -85 -40 -151.5t-97 -83.5zM217 600l-59 -264h53q58 0 90 53.5t32 122.5q0 44 -18 66t-49 22h-49z" />
    <glyph glyph-name="S" unicode="S" horiz-adv-x="354" 
d="M125 -12q-44 0 -82.5 19.5t-59.5 49.5l49 56q14 -26 39.5 -41.5t53.5 -15.5q42 0 73.5 36t31.5 96q0 35 -22 72t-48 65t-48 71t-22 89q0 80 53 136.5t123 56.5q80 0 123 -55l-44 -56q-29 43 -80 43q-42 0 -68.5 -33.5t-26.5 -80.5q0 -26 14 -53.5t34.5 -53t41 -53
t34.5 -63.5t14 -74q0 -89 -52.5 -150t-130.5 -61z" />
    <glyph glyph-name="T" unicode="T" horiz-adv-x="323" 
d="M145 0h-76l133 600h-105l14 67h287l-15 -67h-106z" />
    <glyph glyph-name="U" unicode="U" horiz-adv-x="437" 
d="M181 -12q-62 0 -100.5 37.5t-38.5 102.5q0 24 5 46l109 493h75l-110 -498q-4 -28 -4 -36q0 -38 19.5 -58t51.5 -20q36 0 58.5 26.5t35.5 87.5l110 498h75l-109 -495q-41 -184 -177 -184z" />
    <glyph glyph-name="V" unicode="V" horiz-adv-x="364" 
d="M171 0h-87l16 667h75l-28 -567l223 567h80z" />
    <glyph glyph-name="W" unicode="W" horiz-adv-x="548" 
d="M370 0h-80l44 515l-184 -515h-79l40 667h77l-47 -531l193 531h64l-42 -531l188 531h79z" />
    <glyph glyph-name="X" unicode="X" horiz-adv-x="368" 
d="M311 0h-80l-41 265l-153 -265h-87l213 343l-59 324h80l35 -254l143 254h88l-204 -331z" />
    <glyph glyph-name="Y" unicode="Y" horiz-adv-x="372" 
d="M170 0h-76l63 283l-65 384h78l38 -307l175 307h83l-234 -384z" />
    <glyph glyph-name="Z" unicode="Z" horiz-adv-x="340" 
d="M253 0h-274l14 66l298 534h-179l14 67h267l-13 -63l-301 -537h188z" />
    <glyph glyph-name="bracketleft" unicode="[" horiz-adv-x="182" 
d="M67 -190h-128l192 868h129l-11 -51h-76l-169 -766h75z" />
    <glyph glyph-name="backslash" unicode="\" horiz-adv-x="200" 
d="M89 -20v707h53v-707h-53z" />
    <glyph glyph-name="bracketright" unicode="]" horiz-adv-x="182" 
d="M50 -190h-129l12 51h75l169 766h-75l11 51h130z" />
    <glyph glyph-name="asciicircum" unicode="^" horiz-adv-x="330" 
d="M330 333h-53l-30 275l-152 -275h-57l194 334h52z" />
    <glyph glyph-name="underscore" unicode="_" horiz-adv-x="279" 
d="M207 -91h-284l12 51h284z" />
    <glyph glyph-name="grave" unicode="`" horiz-adv-x="146" 
d="M215 556h-46l-68 144h68z" />
    <glyph glyph-name="grave" unicode="&#x2cb;" horiz-adv-x="146" 
d="M215 556h-46l-68 144h68z" />
    <glyph glyph-name="a" unicode="a" horiz-adv-x="384" 
d="M210 495q30 0 54 -20.5t34 -61.5l15 70h68l-107 -483h-68l14 62q-44 -74 -101 -74q-46 0 -71 37t-25 106q0 48 12 107.5t33.5 118.5t59 98.5t82.5 39.5zM221 434q-30 0 -55 -34t-40 -83t-23.5 -97.5t-8.5 -83.5q0 -87 55 -87q23 0 47 23.5t39 56.5l50 224q-3 34 -21 57.5
t-43 23.5z" />
    <glyph glyph-name="b" unicode="b" horiz-adv-x="384" 
d="M173 -12q-66 0 -88 82l-15 -70h-68l147 667h68l-54 -246q44 74 101 74q46 0 71 -37.5t25 -105.5q0 -48 -12 -107.5t-33.5 -118.5t-59 -98.5t-82.5 -39.5zM162 49q30 0 55 34t40 83t23.5 97.5t8.5 83.5q0 87 -55 87q-23 0 -47 -23.5t-39 -56.5l-50 -224q4 -34 22 -57.5
t42 -23.5z" />
    <glyph glyph-name="c" unicode="c" horiz-adv-x="317" 
d="M157 -12q-62 0 -97 41.5t-35 124.5q0 52 14 109.5t39 110t67 87t91 34.5q66 0 100 -49l-37 -50q-21 38 -61 38q-44 0 -78 -51t-48.5 -113t-14.5 -115q0 -106 73 -106q34 0 62 31l19 -53q-42 -39 -94 -39z" />
    <glyph glyph-name="d" unicode="d" horiz-adv-x="384" 
d="M210 495q30 0 54 -20.5t34 -61.5l56 254h68l-148 -667h-68l14 62q-44 -74 -101 -74q-46 0 -71 37t-25 106q0 48 12 107.5t33.5 118.5t59 98.5t82.5 39.5zM221 434q-30 0 -55 -34t-40 -83t-23.5 -97.5t-8.5 -83.5q0 -87 55 -87q23 0 47 23.5t39 56.5l50 224
q-3 34 -21 57.5t-43 23.5z" />
    <glyph glyph-name="e" unicode="e" horiz-adv-x="373" 
d="M164 -12q-66 0 -103 42t-37 124q0 40 11.5 94.5t34.5 111.5t65 96t94 39q123 0 123 -149q0 -57 -18 -127h-236q-8 -38 -8 -68q0 -48 21 -77t63 -29q44 0 86 54l30 -43q-54 -68 -126 -68zM273 270h6q9 47 9 75q0 40 -16.5 66.5t-47.5 26.5t-56.5 -29t-38.5 -64t-21 -75
h165z" />
    <glyph glyph-name="f" unicode="f" horiz-adv-x="224" 
d="M85 0h-69l94 423h-47l13 60h47l17 80q24 114 117 114q52 0 73 -29l-34 -52q-12 20 -34 20q-42 0 -53 -53l-18 -80h66l-13 -60h-66z" />
    <glyph glyph-name="g" unicode="g" horiz-adv-x="384" 
d="M99 -196q-87 0 -131 56l39 53q32 -48 92 -48q38 0 62.5 27.5t39.5 88.5l22 89q-44 -74 -102 -74q-45 0 -71 34.5t-26 104.5q0 47 11 105.5t32.5 117t59 98t84.5 39.5q28 0 54.5 -22t33.5 -60l15 70h67l-112 -502q-21 -94 -63.5 -135.5t-106.5 -41.5zM150 57q24 0 47.5 23
t38.5 57l49 216q-3 31 -21.5 56t-43.5 25q-29 0 -53.5 -32t-39.5 -79t-23.5 -94.5t-8.5 -83.5q0 -88 55 -88z" />
    <glyph glyph-name="h" unicode="h" 
d="M268 0h-68l82 371q3 15 3 24q0 39 -38 39q-50 0 -99 -82l-78 -352h-68l147 667h68l-54 -249q54 77 117 77q38 0 58 -20t20 -54q0 -11 -4 -31z" />
    <glyph glyph-name="i" unicode="i" horiz-adv-x="180" 
d="M163 554q-18 0 -30.5 12t-12.5 29q0 23 17 38t37 15q18 0 30.5 -12t12.5 -29q0 -23 -17 -38t-37 -15zM70 0h-68l107 483h68z" />
    <glyph glyph-name="j" unicode="j" horiz-adv-x="180" 
d="M-57 -196q-49 0 -64 34l36 46q5 -19 26 -19q31 0 45 64l123 554h68l-123 -554q-15 -68 -40.5 -96.5t-70.5 -28.5zM163 554q-18 0 -30.5 12t-12.5 29q0 23 17 38t37 15q18 0 30.5 -12t12.5 -29q0 -23 -17 -38t-37 -15z" />
    <glyph glyph-name="k" unicode="k" horiz-adv-x="361" 
d="M292 0h-72l-44 222l-79 -99l-27 -123h-68l147 667h68l-98 -446l204 262h76l-171 -216z" />
    <glyph glyph-name="l" unicode="l" horiz-adv-x="180" 
d="M70 0h-68l147 667h68z" />
    <glyph glyph-name="m" unicode="m" horiz-adv-x="576" 
d="M465 0h-68l82 371q4 16 4 24q0 39 -38 39q-26 0 -53 -24t-47 -58l-77 -352h-68l82 371q3 24 3 26q0 37 -38 37q-26 0 -53 -24t-46 -58l-78 -352h-68l107 483h68l-14 -65q52 77 117 77q36 0 57 -19.5t21 -48.5q0 -6 -1 -12q56 80 120 80q37 0 58 -19.5t21 -52.5
q0 -11 -5 -33z" />
    <glyph glyph-name="n" unicode="n" 
d="M268 0h-68l82 371q3 21 3 24q0 39 -38 39q-50 0 -99 -82l-78 -352h-68l107 483h68l-14 -65q54 77 117 77q37 0 57.5 -19.5t20.5 -54.5q0 -19 -4 -31z" />
    <glyph glyph-name="o" unicode="o" horiz-adv-x="382" 
d="M150 -12q-60 0 -93 39.5t-33 117.5q0 54 13.5 113t38 113t65.5 89t90 35q59 0 92 -39.5t33 -117.5q0 -53 -13.5 -112.5t-38 -113.5t-65.5 -89t-89 -35zM154 49q39 0 71 54.5t46.5 119.5t14.5 115q0 96 -59 96q-39 0 -71.5 -55t-47 -120t-14.5 -115q0 -95 60 -95z" />
    <glyph glyph-name="p" unicode="p" horiz-adv-x="384" 
d="M173 -12q-66 0 -88 82l-56 -254h-68l148 667h68l-14 -62q44 74 101 74q46 0 71 -37.5t25 -105.5q0 -48 -12 -107.5t-33.5 -118.5t-59 -98.5t-82.5 -39.5zM162 49q30 0 55 34t40 83t23.5 97.5t8.5 83.5q0 87 -55 87q-23 0 -47 -23.5t-39 -56.5l-50 -224q4 -34 22 -57.5
t42 -23.5z" />
    <glyph glyph-name="q" unicode="q" horiz-adv-x="384" 
d="M210 495q30 0 54 -20.5t34 -61.5l15 70h68l-148 -667h-68l55 246q-44 -74 -101 -74q-46 0 -71 37t-25 106q0 48 12 107.5t33.5 118.5t59 98.5t82.5 39.5zM221 434q-30 0 -55 -34t-40 -83t-23.5 -97.5t-8.5 -83.5q0 -87 55 -87q23 0 47 23.5t39 56.5l50 224
q-3 34 -21 57.5t-43 23.5z" />
    <glyph glyph-name="r" unicode="r" horiz-adv-x="252" 
d="M70 0h-68l107 483h68l-15 -68q48 78 130 78l-16 -70q-9 3 -23 3q-61 0 -107 -82z" />
    <glyph glyph-name="s" unicode="s" horiz-adv-x="309" 
d="M110 -12q-43 0 -77 18t-50 49l42 44q27 -55 88 -55q33 0 56 25t23 59q0 23 -13.5 44.5t-33 39t-39 36.5t-33 46t-13.5 59q0 58 38.5 100t102.5 42q76 0 116 -59l-41 -44q-10 21 -31.5 34t-45.5 13q-32 0 -52 -21t-20 -53q0 -25 21 -51t46 -46t46 -53.5t21 -72.5
q0 -64 -43 -109t-108 -45z" />
    <glyph glyph-name="t" unicode="t" horiz-adv-x="233" 
d="M114 -12q-82 0 -82 71q0 16 4 36l74 328h-49l13 60h49l29 132h69l-29 -132h65l-13 -60h-66l-71 -319q-4 -12 -4 -27q0 -28 29 -28q18 0 31 15l10 -54q-24 -22 -59 -22z" />
    <glyph glyph-name="u" unicode="u" 
d="M109 483h68l-82 -371q0 -3 -1 -8t-1.5 -9t-0.5 -7q0 -39 38 -39q25 0 51 22t46 55l80 357h68l-107 -483h-68l14 65q-54 -77 -117 -77q-37 0 -57.5 19.5t-20.5 54.5q0 19 4 31z" />
    <glyph glyph-name="v" unicode="v" horiz-adv-x="326" 
d="M146 0h-75l-9 483h71l-9 -399l170 399h76z" />
    <glyph glyph-name="w" unicode="w" horiz-adv-x="541" 
d="M369 0h-71l4 389l-167 -389h-71l2 483h70l-14 -387l163 387h70l-7 -387l159 387h74z" />
    <glyph glyph-name="x" unicode="x" horiz-adv-x="326" 
d="M259 0h-71l-35 190l-120 -190h-75l163 244l-50 239h71l30 -185l114 185h74l-156 -239z" />
    <glyph glyph-name="y" unicode="y" horiz-adv-x="326" 
d="M-61 -186l23 57q8 -6 23 -6t25.5 9.5t22.5 34.5l37 78l-8 496h71l-8 -395l169 395h76l-275 -588q-25 -51 -49 -71t-58 -20q-31 0 -49 10z" />
    <glyph glyph-name="z" unicode="z" horiz-adv-x="303" 
d="M214 0h-234l11 54l232 369h-149l13 60h230l-11 -52l-231 -371h152z" />
    <glyph glyph-name="braceleft" unicode="{" horiz-adv-x="202" 
d="M88 -190h-24q-33 0 -57.5 22t-25.5 59q0 7 4 27l51 233q3 15 3 20q0 50 -39 50l11 46q51 0 67 70l52 236q23 105 121 105h30l-12 -51h-30q-42 0 -55 -54l-54 -247q-15 -69 -65 -88q29 -14 29 -54q0 -18 -4 -34l-51 -232q-2 -12 -2 -17q0 -19 9.5 -29.5t22.5 -10.5h31z
" />
    <glyph glyph-name="bar" unicode="|" horiz-adv-x="177" 
d="M134 -20h-51v707h51v-707z" />
    <glyph glyph-name="braceright" unicode="}" horiz-adv-x="202" 
d="M113 678h24q33 0 58 -22.5t25 -59.5q0 -6 -4 -26l-51 -233q-3 -15 -3 -21q0 -49 39 -49l-10 -46q-52 0 -68 -70l-52 -236q-23 -105 -121 -105h-30l12 51h30q42 0 55 54l54 247q15 69 65 88q-29 14 -29 54q0 18 4 34l51 232q2 12 2 17q0 19 -9.5 29.5t-22.5 10.5h-31z" />
    <glyph glyph-name="asciitilde" unicode="~" horiz-adv-x="394" 
d="M408 667l52 -5q-53 -237 -153 -237q-37 0 -52 30t-13 66t-2.5 66t-23.5 30q-52 0 -97 -194l-51 6q51 237 152 237q37 0 52 -30t13 -66.5t2.5 -66.5t23.5 -30q28 0 51 46t46 148z" />
    <glyph glyph-name="nbspace" unicode="&#xa0;" horiz-adv-x="171" 
 />
    <glyph glyph-name="exclamdown" unicode="&#xa1;" horiz-adv-x="227" 
d="M98 300h56l-92 -484h-86zM162 493q20 0 33.5 -13.5t13.5 -33.5q0 -23 -16.5 -39.5t-39.5 -16.5q-20 0 -33.5 13.5t-13.5 33.5q0 23 16.5 39.5t39.5 16.5z" />
    <glyph glyph-name="cent" unicode="&#xa2;" horiz-adv-x="317" 
d="M98 -100l20 93q-93 22 -93 161q0 70 22 145t71 134t112 61l16 71h54l-18 -79q34 -12 54 -40l-37 -50q-11 20 -30 30l-84 -376q24 5 47 30l19 -53q-38 -35 -80 -38l-19 -89h-54zM97 155q0 -74 36 -97l83 372q-54 -17 -86.5 -106t-32.5 -169z" />
    <glyph glyph-name="sterling" unicode="&#xa3;" horiz-adv-x="380" 
d="M36 271l10 50h71q-1 6 -6.5 25t-8 28.5t-5 27t-2.5 34.5q0 98 57 169.5t131 71.5q55 0 91.5 -32t39.5 -88l-66 -22q-7 78 -65 78q-41 0 -74.5 -54t-33.5 -130q0 -19 3.5 -36.5t10 -40t8.5 -31.5h75l-11 -50h-59q-3 -59 -33.5 -112.5t-69.5 -81.5q23 10 35 10
q23 0 55 -15.5t48 -15.5q39 0 69 34l12 -60q-37 -42 -95 -42q-36 0 -72 20.5t-57 20.5q-32 0 -79 -36l-15 55q52 30 90 88.5t38 116.5q0 3 -0.5 9t-0.5 9h-91z" />
    <glyph glyph-name="currency" unicode="&#xa4;" horiz-adv-x="522" 
d="M461 136l-34 -27l-37 49q-61 -44 -132 -44q-83 0 -145 59l-79 -66l-23 31l77 63q-31 56 -31 108q0 95 80 173l-37 49l32 26l39 -48q60 43 133 43q81 0 143 -57l78 64l25 -30l-78 -64q31 -51 31 -108q0 -91 -80 -173zM454 351q0 68 -43.5 110.5t-111.5 42.5
q-77 0 -135 -56.5t-58 -132.5q0 -68 43.5 -110.5t111.5 -42.5q77 0 135 56.5t58 132.5z" />
    <glyph glyph-name="yen" unicode="&#xa5;" horiz-adv-x="372" 
d="M172 0h-76l27 123h-129l11 50h129l25 110h-129l11 49h109l-56 335h78l38 -307l175 307h83l-204 -335h104l-11 -49h-123l-24 -110h123l-11 -50h-123z" />
    <glyph glyph-name="brokenbar" unicode="&#xa6;" horiz-adv-x="177" 
d="M134 -20h-51v316h51v-316zM134 371h-51v316h51v-316z" />
    <glyph glyph-name="section" unicode="&#xa7;" horiz-adv-x="310" 
d="M298 324q0 -106 -101 -143q46 -43 46 -102q0 -66 -41 -113t-104 -47q-97 0 -136 64l43 43q28 -53 89 -53q34 0 57.5 28t23.5 68q0 23 -13.5 43.5t-32.5 37t-37.5 34.5t-32 44.5t-13.5 59.5q0 50 30.5 87t82.5 46q-58 49 -58 113q0 61 40.5 102t95.5 41q85 0 124 -58
l-41 -39q-27 45 -80 45q-30 0 -51 -24.5t-21 -58.5q0 -28 20.5 -54.5t44.5 -45t44.5 -50t20.5 -68.5zM233 309q0 46 -36 82q-86 -11 -86 -92q0 -49 50 -90q72 27 72 100z" />
    <glyph glyph-name="dieresis" unicode="&#xa8;" horiz-adv-x="264" 
d="M325 608q0 -19 -14.5 -33.5t-33.5 -14.5q-17 0 -28 11t-11 27q0 20 15 34.5t34 14.5q16 0 27 -11t11 -28zM185 608q0 -19 -14.5 -33.5t-34.5 -14.5q-17 0 -28 11t-11 27q0 20 14.5 34.5t34.5 14.5q16 0 27.5 -11.5t11.5 -27.5z" />
    <glyph glyph-name="copyright" unicode="&#xa9;" horiz-adv-x="778" 
d="M754 334q0 -142 -101.5 -243.5t-244.5 -101.5q-142 0 -243 101t-101 244t101 244t243 101q143 0 244.5 -101.5t101.5 -243.5zM724 334q0 130 -93 222.5t-223 92.5t-222 -92.5t-92 -222.5t92 -222.5t222 -92.5t223 92.5t93 222.5zM505 200l19 -27q-62 -52 -134 -52
q-88 0 -140 53t-52 133q0 100 72 170.5t164 70.5q108 0 155 -80l-29 -21q-37 69 -127 69q-75 0 -137 -60.5t-62 -147.5q0 -65 43.5 -110t112.5 -45q68 0 115 47z" />
    <glyph glyph-name="ordfeminine" unicode="&#xaa;" horiz-adv-x="291" 
d="M217 605q-37 0 -62 -60.5t-25 -117.5q0 -66 41 -66q30 0 60 54l30 141q-2 20 -14.5 34.5t-29.5 14.5zM280 640h53l-69 -314h-53l9 43q-32 -51 -73 -51q-71 0 -71 106q0 76 36 150t93 74q21 0 39.5 -13.5t26.5 -36.5z" />
    <glyph glyph-name="guillemotleft" unicode="&#xab;" horiz-adv-x="325" 
d="M135 63h-56l-50 180l130 177h60l-133 -181zM252 63h-56l-50 180l130 177h60l-133 -181z" />
    <glyph glyph-name="logicalnot" unicode="&#xac;" 
d="M396 456l-54 -244h-52l43 195h-269l12 49h320z" />
    <glyph glyph-name="registered" unicode="&#xae;" horiz-adv-x="494" 
d="M508 465q0 -88 -62.5 -150t-150.5 -62t-149.5 62t-61.5 150t62 150t150 62t150 -61.5t62 -150.5zM480 465q0 77 -54 130.5t-131 53.5t-130 -53.5t-53 -130.5q0 -76 53.5 -130t129.5 -54t130.5 54t54.5 130zM367 343h-38l-42 96h-46l-21 -96h-32l53 243h92q30 0 50 -17.5
t20 -46.5q0 -35 -24.5 -58.5t-55.5 -23.5zM369 518q0 19 -11.5 29.5t-29.5 10.5h-61l-20 -90h68q22 0 38 14.5t16 35.5z" />
    <glyph glyph-name="macron" unicode="&#xaf;" horiz-adv-x="248" 
d="M324 591h-247l10 45h247z" />
    <glyph glyph-name="macron" unicode="&#x203e;" horiz-adv-x="248" 
d="M324 591h-247l10 45h247z" />
    <glyph glyph-name="degree" unicode="&#xb0;" horiz-adv-x="288" 
d="M333 556q0 -49 -35.5 -84t-85.5 -35t-84.5 34.5t-34.5 84.5t35 85.5t84 35.5q50 0 85.5 -35.5t35.5 -85.5zM288 556q0 31 -22.5 53.5t-53.5 22.5t-52.5 -22.5t-21.5 -53.5t21 -52.5t52 -21.5t54 22t23 52z" />
    <glyph glyph-name="plusminus" unicode="&#xb1;" 
d="M364 313h-133l-35 -155h-53l34 155h-133l11 49h133l33 148h53l-32 -148h133zM305 45h-320l10 49h320z" />
    <glyph glyph-name="twosuperior" unicode="&#xb2;" horiz-adv-x="264" 
d="M280 421h-210l10 44q130 130 170 179.5t40 87.5q0 24 -13.5 36.5t-34.5 12.5q-41 0 -77 -49l-30 36q49 59 110 59q44 0 73 -24t29 -67q0 -47 -38 -95.5t-148 -159.5l-14 -14h143z" />
    <glyph glyph-name="threesuperior" unicode="&#xb3;" horiz-adv-x="264" 
d="M307 543q0 -47 -33 -88t-88 -41q-40 0 -69.5 19t-40.5 51l44 30q15 -54 64 -54q32 0 50 29.5t18 64.5q0 25 -13.5 37.5t-33.5 12.5q-21 0 -27 -1l10 46q5 -1 30 -1q30 0 50.5 23.5t20.5 60.5q0 22 -13 35.5t-36 13.5q-40 0 -74 -46l-30 32q45 60 109 60q46 0 73 -23.5
t27 -66.5q0 -37 -24 -72t-64 -42q50 -15 50 -80z" />
    <glyph glyph-name="acute" unicode="&#xb4;" horiz-adv-x="146" 
d="M247 700l-132 -144h-48l111 144h69z" />
    <glyph glyph-name="mu" unicode="&#xb5;" 
d="M29 -184h-68l148 667h68l-82 -372q-13 -64 31 -64q26 0 54.5 23.5t46.5 55.5l80 357h68l-107 -483h-68l13 63q-23 -33 -56.5 -54t-67.5 -21q-8 0 -22 2z" />
    <glyph glyph-name="mu" unicode="&#x3bc;" 
d="M29 -184h-68l148 667h68l-82 -372q-13 -64 31 -64q26 0 54.5 23.5t46.5 55.5l80 357h68l-107 -483h-68l13 63q-23 -33 -56.5 -54t-67.5 -21q-8 0 -22 2z" />
    <glyph glyph-name="paragraph" unicode="&#xb6;" horiz-adv-x="449" 
d="M298 -100h-43l161 724h-90l-161 -724h-43l94 423q-57 0 -97 44.5t-40 111.5q0 73 56.5 130.5t137.5 57.5h195z" />
    <glyph glyph-name="periodcentered" unicode="&#xb7;" horiz-adv-x="227" 
d="M108 193q-20 0 -33.5 13.5t-13.5 33.5q0 23 17 39.5t40 16.5q20 0 33.5 -14t13.5 -33q0 -23 -17 -39.5t-40 -16.5z" />
    <glyph glyph-name="periodcentered" unicode="&#x2219;" horiz-adv-x="227" 
d="M108 193q-20 0 -33.5 13.5t-13.5 33.5q0 23 17 39.5t40 16.5q20 0 33.5 -14t13.5 -33q0 -23 -17 -39.5t-40 -16.5z" />
    <glyph glyph-name="cedilla" unicode="&#xb8;" horiz-adv-x="165" 
d="M-8 -190q-51 0 -81 36l25 33q21 -32 58 -32q22 0 36 15t14 35q0 27 -25 27q-14 0 -28 -14l-27 17l50 84h43l-42 -67q10 10 24 10q21 0 34.5 -15.5t13.5 -39.5q0 -37 -27.5 -63t-67.5 -26z" />
    <glyph glyph-name="onesuperior" unicode="&#xb9;" horiz-adv-x="215" 
d="M202 421h-56l70 324l-68 -60l-28 34l121 102h49z" />
    <glyph glyph-name="ordmasculine" unicode="&#xba;" horiz-adv-x="289" 
d="M173 318q-48 0 -72 29.5t-24 82.5q0 43 14.5 91.5t49 87.5t79.5 39q96 0 96 -112q0 -44 -14.5 -92t-48.5 -87t-80 -39zM175 363q40 0 63.5 62.5t23.5 112.5q0 64 -44 64q-40 0 -63.5 -62t-23.5 -112q0 -65 44 -65z" />
    <glyph glyph-name="guillemotright" unicode="&#xbb;" horiz-adv-x="325" 
d="M73 420h56l50 -180l-130 -177h-60l133 181zM190 420h56l50 -180l-130 -177h-60l133 181z" />
    <glyph glyph-name="onequarter" unicode="&#xbc;" horiz-adv-x="576" 
d="M536 667l-421 -667h-41l421 667h41zM528 102h-35l-23 -102h-55l22 102h-141l10 46l184 252h68l-56 -252h36zM447 148l41 184l-133 -184h92zM168 267h-56l70 324l-68 -60l-28 34l121 102h49z" />
    <glyph glyph-name="onehalf" unicode="&#xbd;" horiz-adv-x="608" 
d="M536 667l-421 -667h-41l421 667h41zM531 0h-210l10 44q130 130 170 179.5t40 87.5q0 24 -13.5 36.5t-34.5 12.5q-41 0 -77 -49l-30 36q49 59 110 59q44 0 73 -24t29 -67q0 -47 -38 -95.5t-148 -159.5l-14 -14h143zM168 267h-56l70 324l-68 -60l-28 34l121 102h49z" />
    <glyph glyph-name="threequarters" unicode="&#xbe;" horiz-adv-x="612" 
d="M572 667l-421 -667h-41l421 667h41zM564 102h-35l-23 -102h-55l22 102h-141l10 46l184 252h68l-56 -252h36zM483 148l41 184l-133 -184h92zM273 389q0 -47 -33 -88t-88 -41q-40 0 -69.5 19t-40.5 51l44 30q15 -54 64 -54q32 0 50 29.5t18 64.5q0 25 -13.5 37.5
t-33.5 12.5q-21 0 -27 -1l10 46q5 -1 30 -1q30 0 50.5 23.5t20.5 60.5q0 22 -13 35.5t-36 13.5q-40 0 -74 -46l-30 32q45 60 109 60q46 0 73 -23.5t27 -66.5q0 -37 -24 -72t-64 -42q50 -15 50 -80z" />
    <glyph glyph-name="questiondown" unicode="&#xbf;" horiz-adv-x="271" 
d="M127 275l63 25q12 -27 12 -62q0 -39 -17.5 -72.5t-42 -58.5t-49 -49t-42 -53.5t-17.5 -62.5q0 -30 17.5 -51t47.5 -21q36 0 67 25l23 -52q-49 -38 -107 -38q-57 0 -91.5 35t-34.5 83q0 42 18.5 79.5t44.5 65t52.5 52.5t45 53t18.5 56q0 29 -8 46zM201 493q20 0 33.5 -14
t13.5 -34q0 -23 -16.5 -39t-39.5 -16q-20 0 -34 13.5t-14 33.5q0 23 17 39.5t40 16.5z" />
    <glyph glyph-name="Agrave" unicode="&#xc0;" horiz-adv-x="364" 
d="M340 728h-46l-68 144h68zM303 0h-75l7 153h-143l-60 -153h-79l278 667h87zM240 220l17 357l-140 -357h123z" />
    <glyph glyph-name="Aacute" unicode="&#xc1;" horiz-adv-x="364" 
d="M417 872l-132 -144h-48l111 144h69zM303 0h-75l7 153h-143l-60 -153h-79l278 667h87zM240 220l17 357l-140 -357h123z" />
    <glyph glyph-name="Acircumflex" unicode="&#xc2;" horiz-adv-x="364" 
d="M390 728h-40l-38 105l-80 -105h-43l97 144h67zM303 0h-75l7 153h-143l-60 -153h-79l278 667h87zM240 220l17 357l-140 -357h123z" />
    <glyph glyph-name="Atilde" unicode="&#xc3;" horiz-adv-x="364" 
d="M327 726q-21 0 -30.5 15t-10.5 32.5t-7 32.5t-19 15q-31 0 -50 -89h-40q30 134 96 134q21 0 31 -15t11 -32.5t7 -32.5t19 -15q30 0 50 89h41q-31 -134 -98 -134zM303 0h-75l7 153h-143l-60 -153h-79l278 667h87zM240 220l17 357l-140 -357h123z" />
    <glyph glyph-name="Adieresis" unicode="&#xc4;" horiz-adv-x="364" 
d="M412 777q0 -19 -14.5 -33.5t-33.5 -14.5q-17 0 -28 11t-11 27q0 19 14.5 34t34.5 15q16 0 27 -11t11 -28zM272 777q0 -19 -14.5 -33.5t-34.5 -14.5q-17 0 -28 11t-11 27q0 19 15 34t34 15q17 0 28 -11t11 -28zM303 0h-75l7 153h-143l-60 -153h-79l278 667h87zM240 220
l17 357l-140 -357h123z" />
    <glyph glyph-name="Aring" unicode="&#xc5;" horiz-adv-x="364" 
d="M290 691q-32 0 -53 21.5t-21 54.5q0 37 28 64.5t65 27.5q32 0 52.5 -21.5t20.5 -54.5q0 -37 -27.5 -64.5t-64.5 -27.5zM293 727q22 0 38 15.5t16 37.5q0 18 -11.5 30.5t-29.5 12.5q-22 0 -37.5 -15.5t-15.5 -37.5q0 -18 11 -30.5t29 -12.5zM303 0h-75l7 153h-143
l-60 -153h-79l278 667h87zM240 220l17 357l-140 -357h123z" />
    <glyph glyph-name="AE" unicode="&#xc6;" horiz-adv-x="554" 
d="M457 0h-247l33 153h-123l-80 -153h-80l364 667h280l-14 -67h-172l-50 -225h165l-15 -67h-165l-54 -241h173zM258 220l77 348l-181 -348h104z" />
    <glyph glyph-name="Ccedilla" unicode="&#xc7;" horiz-adv-x="390" 
d="M127 -190q-51 0 -81 36l25 33q21 -32 58 -32q22 0 36 15t14 35q0 27 -25 27q-14 0 -28 -14l-27 17l39 66q-99 25 -99 184q0 61 15 141t44 163.5t81 140t117 56.5q62 0 93 -42.5t37 -111.5l-70 -14q-9 100 -66 100q-40 0 -74.5 -51.5t-55 -124.5t-32 -143.5t-11.5 -116.5
q0 -118 63 -118q47 0 94 85l60 -28q-66 -124 -157 -125l-27 -44q10 10 24 10q21 0 34.5 -15.5t13.5 -39.5q0 -37 -27.5 -63t-67.5 -26z" />
    <glyph glyph-name="Egrave" unicode="&#xc8;" horiz-adv-x="352" 
d="M348 728h-46l-68 144h68zM257 0h-248l147 667h248l-15 -67h-172l-50 -225h165l-15 -67h-165l-53 -241h172z" />
    <glyph glyph-name="Eacute" unicode="&#xc9;" horiz-adv-x="352" 
d="M424 872l-132 -144h-48l111 144h69zM257 0h-248l147 667h248l-15 -67h-172l-50 -225h165l-15 -67h-165l-53 -241h172z" />
    <glyph glyph-name="Ecircumflex" unicode="&#xca;" horiz-adv-x="352" 
d="M397 728h-40l-38 105l-80 -105h-43l97 144h67zM257 0h-248l147 667h248l-15 -67h-172l-50 -225h165l-15 -67h-165l-53 -241h172z" />
    <glyph glyph-name="Edieresis" unicode="&#xcb;" horiz-adv-x="352" 
d="M419 777q0 -19 -14.5 -33.5t-33.5 -14.5q-17 0 -28 11t-11 27q0 19 15 34t34 15q16 0 27 -11t11 -28zM279 777q0 -19 -14.5 -33.5t-34.5 -14.5q-17 0 -28 11t-11 27q0 19 14.5 34t34.5 15q16 0 27.5 -11t11.5 -28zM257 0h-248l147 667h248l-15 -67h-172l-50 -225h165
l-15 -67h-165l-53 -241h172z" />
    <glyph glyph-name="Igrave" unicode="&#xcc;" horiz-adv-x="201" 
d="M259 728h-46l-68 144h68zM84 0h-75l147 667h75z" />
    <glyph glyph-name="Iacute" unicode="&#xcd;" horiz-adv-x="201" 
d="M337 872l-132 -144h-48l111 144h69zM84 0h-75l147 667h75z" />
    <glyph glyph-name="Icircumflex" unicode="&#xce;" horiz-adv-x="201" 
d="M309 728h-40l-38 105l-80 -105h-43l97 144h67zM84 0h-75l147 667h75z" />
    <glyph glyph-name="Idieresis" unicode="&#xcf;" horiz-adv-x="201" 
d="M333 777q0 -19 -14.5 -33.5t-33.5 -14.5q-17 0 -28 11t-11 27q0 19 15 34t34 15q16 0 27 -11t11 -28zM193 777q0 -19 -14.5 -33.5t-34.5 -14.5q-17 0 -28 11t-11 27q0 19 14.5 34t34.5 15q16 0 27.5 -11t11.5 -28zM84 0h-75l147 667h75z" />
    <glyph glyph-name="Eth" unicode="&#xd0;" horiz-adv-x="446" 
d="M155 0h-127l66 302h-60l14 63h60l67 302h124q58 0 99 -50t41 -150q0 -30 -5.5 -72t-17.5 -96t-34.5 -105.5t-52 -95.5t-75 -71t-99.5 -27zM254 302h-84l-52 -235h50q50 0 90 50t61 120.5t31.5 131t10.5 97.5q0 68 -21.5 101t-54.5 33h-49l-52 -235h84z" />
    <glyph glyph-name="Ntilde" unicode="&#xd1;" horiz-adv-x="436" 
d="M367 726q-21 0 -30.5 15t-10.5 32.5t-7 32.5t-19 15q-31 0 -50 -89h-40q30 134 96 134q21 0 31 -15t11 -32.5t7 -32.5t19 -15q30 0 50 89h41q-31 -134 -98 -134zM319 0h-72l-55 489l-108 -489h-75l147 667h75l54 -479l106 479h75z" />
    <glyph glyph-name="Ograve" unicode="&#xd2;" horiz-adv-x="434" 
d="M374 728h-46l-68 144h68zM175 -12q-69 0 -102.5 52.5t-33.5 136.5q0 46 9 107t29.5 131t49 128t73 96.5t96.5 38.5q69 0 103 -53.5t34 -137.5q0 -59 -15.5 -139t-44.5 -163t-81.5 -140t-116.5 -57zM180 56q38 0 72.5 50t56 121t34 142t12.5 121q0 120 -65 120
q-39 0 -73 -50t-55 -121.5t-33 -143t-12 -121.5q0 -118 63 -118z" />
    <glyph glyph-name="Oacute" unicode="&#xd3;" horiz-adv-x="434" 
d="M452 872l-132 -144h-48l111 144h69zM175 -12q-69 0 -102.5 52.5t-33.5 136.5q0 46 9 107t29.5 131t49 128t73 96.5t96.5 38.5q69 0 103 -53.5t34 -137.5q0 -59 -15.5 -139t-44.5 -163t-81.5 -140t-116.5 -57zM180 56q38 0 72.5 50t56 121t34 142t12.5 121q0 120 -65 120
q-39 0 -73 -50t-55 -121.5t-33 -143t-12 -121.5q0 -118 63 -118z" />
    <glyph glyph-name="Ocircumflex" unicode="&#xd4;" horiz-adv-x="434" 
d="M425 728h-40l-38 105l-80 -105h-43l97 144h67zM175 -12q-69 0 -102.5 52.5t-33.5 136.5q0 46 9 107t29.5 131t49 128t73 96.5t96.5 38.5q69 0 103 -53.5t34 -137.5q0 -59 -15.5 -139t-44.5 -163t-81.5 -140t-116.5 -57zM180 56q38 0 72.5 50t56 121t34 142t12.5 121
q0 120 -65 120q-39 0 -73 -50t-55 -121.5t-33 -143t-12 -121.5q0 -118 63 -118z" />
    <glyph glyph-name="Otilde" unicode="&#xd5;" horiz-adv-x="434" 
d="M369 726q-21 0 -30.5 15t-10.5 32.5t-7 32.5t-19 15q-31 0 -50 -89h-40q30 134 96 134q21 0 31 -15t11 -32.5t7 -32.5t19 -15q30 0 50 89h41q-31 -134 -98 -134zM175 -12q-69 0 -102.5 52.5t-33.5 136.5q0 46 9 107t29.5 131t49 128t73 96.5t96.5 38.5q69 0 103 -53.5
t34 -137.5q0 -59 -15.5 -139t-44.5 -163t-81.5 -140t-116.5 -57zM180 56q38 0 72.5 50t56 121t34 142t12.5 121q0 120 -65 120q-39 0 -73 -50t-55 -121.5t-33 -143t-12 -121.5q0 -118 63 -118z" />
    <glyph glyph-name="Odieresis" unicode="&#xd6;" horiz-adv-x="434" 
d="M447 777q0 -19 -14.5 -33.5t-33.5 -14.5q-17 0 -28 11t-11 27q0 19 15 34t34 15q16 0 27 -11t11 -28zM307 777q0 -19 -14.5 -33.5t-34.5 -14.5q-17 0 -28 11t-11 27q0 19 14.5 34t34.5 15q16 0 27.5 -11t11.5 -28zM175 -12q-69 0 -102.5 52.5t-33.5 136.5q0 46 9 107
t29.5 131t49 128t73 96.5t96.5 38.5q69 0 103 -53.5t34 -137.5q0 -59 -15.5 -139t-44.5 -163t-81.5 -140t-116.5 -57zM180 56q38 0 72.5 50t56 121t34 142t12.5 121q0 120 -65 120q-39 0 -73 -50t-55 -121.5t-33 -143t-12 -121.5q0 -118 63 -118z" />
    <glyph glyph-name="multiply" unicode="&#xd7;" 
d="M286 194l-82 105l-132 -109l-30 39l133 108l-83 105l39 32l82 -105l132 109l31 -39l-132 -108l81 -105z" />
    <glyph glyph-name="Oslash" unicode="&#xd8;" horiz-adv-x="434" 
d="M175 -12q-66 0 -101 49l-23 -37h-52l53 83q-13 40 -13 94q0 46 9 107t29.5 131t49 128t73 96.5t96.5 38.5q65 0 101 -51l26 40h51l-55 -86q14 -39 14 -94q0 -59 -15.5 -139t-44.5 -163t-81.5 -140t-116.5 -57zM290 610q-38 0 -71.5 -47t-54.5 -116t-33.5 -138.5
t-13.5 -122.5l232 365q-14 59 -59 59zM180 56q37 0 71 47t55.5 116t34 138.5t14.5 121.5l-233 -366q13 -57 58 -57z" />
    <glyph glyph-name="Ugrave" unicode="&#xd9;" horiz-adv-x="437" 
d="M376 728h-46l-68 144h68zM181 -12q-62 0 -100.5 37.5t-38.5 102.5q0 24 5 46l109 493h75l-110 -498q-4 -28 -4 -36q0 -38 19.5 -58t51.5 -20q36 0 58.5 26.5t35.5 87.5l110 498h75l-109 -495q-41 -184 -177 -184z" />
    <glyph glyph-name="Uacute" unicode="&#xda;" horiz-adv-x="437" 
d="M453 872l-132 -144h-48l111 144h69zM181 -12q-62 0 -100.5 37.5t-38.5 102.5q0 24 5 46l109 493h75l-110 -498q-4 -28 -4 -36q0 -38 19.5 -58t51.5 -20q36 0 58.5 26.5t35.5 87.5l110 498h75l-109 -495q-41 -184 -177 -184z" />
    <glyph glyph-name="Ucircumflex" unicode="&#xdb;" horiz-adv-x="437" 
d="M426 728h-40l-38 105l-80 -105h-43l97 144h67zM181 -12q-62 0 -100.5 37.5t-38.5 102.5q0 24 5 46l109 493h75l-110 -498q-4 -28 -4 -36q0 -38 19.5 -58t51.5 -20q36 0 58.5 26.5t35.5 87.5l110 498h75l-109 -495q-41 -184 -177 -184z" />
    <glyph glyph-name="Udieresis" unicode="&#xdc;" horiz-adv-x="437" 
d="M448 777q0 -19 -14.5 -33.5t-33.5 -14.5q-17 0 -28 11t-11 27q0 19 14.5 34t34.5 15q16 0 27 -11t11 -28zM308 777q0 -19 -14.5 -33.5t-34.5 -14.5q-17 0 -28 11t-11 27q0 19 15 34t34 15q17 0 28 -11t11 -28zM181 -12q-62 0 -100.5 37.5t-38.5 102.5q0 24 5 46l109 493
h75l-110 -498q-4 -28 -4 -36q0 -38 19.5 -58t51.5 -20q36 0 58.5 26.5t35.5 87.5l110 498h75l-109 -495q-41 -184 -177 -184z" />
    <glyph glyph-name="Yacute" unicode="&#xdd;" horiz-adv-x="372" 
d="M424 872l-132 -144h-48l111 144h69zM170 0h-76l63 283l-65 384h78l38 -307l175 307h83l-234 -384z" />
    <glyph glyph-name="Thorn" unicode="&#xde;" horiz-adv-x="387" 
d="M84 0h-75l147 667h75l-26 -121h49q59 0 95 -42t36 -109q0 -42 -12.5 -83.5t-36.5 -79t-65.5 -61t-94.5 -23.5h-59zM183 216q56 0 89 53t33 121q0 41 -18 65t-50 24h-47l-58 -263h51z" />
    <glyph glyph-name="germandbls" unicode="&#xdf;" horiz-adv-x="452" 
d="M412 140q0 -59 -40.5 -105.5t-104.5 -46.5q-86 0 -129 65l41 45q32 -54 82 -54q31 0 54.5 25t23.5 63q0 25 -19 49.5t-41.5 42t-41.5 48t-19 66.5q0 35 14.5 62t36 43.5t42.5 31.5t35.5 34.5t14.5 43.5q0 29 -19.5 46t-52.5 17q-73 0 -95 -97l-114 -519h-68l114 519
q17 74 61.5 116t107.5 42q59 0 97.5 -32.5t38.5 -84.5q0 -34 -15 -60t-36 -42t-42 -31t-36 -34t-15 -43q0 -26 19.5 -50t43 -41.5t43 -49t19.5 -69.5z" />
    <glyph glyph-name="agrave" unicode="&#xe0;" horiz-adv-x="384" 
d="M210 495q30 0 54 -20.5t34 -61.5l15 70h68l-107 -483h-68l14 62q-44 -74 -101 -74q-46 0 -71 37t-25 106q0 48 12 107.5t33.5 118.5t59 98.5t82.5 39.5zM221 434q-30 0 -55 -34t-40 -83t-23.5 -97.5t-8.5 -83.5q0 -87 55 -87q23 0 47 23.5t39 56.5l50 224q-3 34 -21 57.5
t-43 23.5zM294 556h-46l-68 144h68z" />
    <glyph glyph-name="aacute" unicode="&#xe1;" horiz-adv-x="384" 
d="M210 495q30 0 54 -20.5t34 -61.5l15 70h68l-107 -483h-68l14 62q-44 -74 -101 -74q-46 0 -71 37t-25 106q0 48 12 107.5t33.5 118.5t59 98.5t82.5 39.5zM221 434q-30 0 -55 -34t-40 -83t-23.5 -97.5t-8.5 -83.5q0 -87 55 -87q23 0 47 23.5t39 56.5l50 224q-3 34 -21 57.5
t-43 23.5zM372 700l-132 -144h-48l111 144h69z" />
    <glyph glyph-name="acircumflex" unicode="&#xe2;" horiz-adv-x="384" 
d="M210 495q30 0 54 -20.5t34 -61.5l15 70h68l-107 -483h-68l14 62q-44 -74 -101 -74q-46 0 -71 37t-25 106q0 48 12 107.5t33.5 118.5t59 98.5t82.5 39.5zM221 434q-30 0 -55 -34t-40 -83t-23.5 -97.5t-8.5 -83.5q0 -87 55 -87q23 0 47 23.5t39 56.5l50 224q-3 34 -21 57.5
t-43 23.5zM343 556h-40l-38 105l-80 -105h-43l97 144h67z" />
    <glyph glyph-name="atilde" unicode="&#xe3;" horiz-adv-x="384" 
d="M210 495q30 0 54 -20.5t34 -61.5l15 70h68l-107 -483h-68l14 62q-44 -74 -101 -74q-46 0 -71 37t-25 106q0 48 12 107.5t33.5 118.5t59 98.5t82.5 39.5zM221 434q-30 0 -55 -34t-40 -83t-23.5 -97.5t-8.5 -83.5q0 -87 55 -87q23 0 47 23.5t39 56.5l50 224q-3 34 -21 57.5
t-43 23.5zM287 554q-21 0 -30.5 15t-10.5 32.5t-7 32.5t-19 15q-31 0 -50 -89h-40q30 134 96 134q21 0 31 -15t11 -32.5t7 -32.5t19 -15q30 0 50 89h41q-31 -134 -98 -134z" />
    <glyph glyph-name="adieresis" unicode="&#xe4;" horiz-adv-x="384" 
d="M210 495q30 0 54 -20.5t34 -61.5l15 70h68l-107 -483h-68l14 62q-44 -74 -101 -74q-46 0 -71 37t-25 106q0 48 12 107.5t33.5 118.5t59 98.5t82.5 39.5zM221 434q-30 0 -55 -34t-40 -83t-23.5 -97.5t-8.5 -83.5q0 -87 55 -87q23 0 47 23.5t39 56.5l50 224q-3 34 -21 57.5
t-43 23.5zM367 608q0 -19 -14.5 -33.5t-33.5 -14.5q-17 0 -28 11t-11 27q0 20 15 34.5t34 14.5q16 0 27 -11t11 -28zM227 608q0 -19 -14.5 -33.5t-34.5 -14.5q-17 0 -28 11t-11 27q0 20 14.5 34.5t34.5 14.5q16 0 27.5 -11.5t11.5 -27.5z" />
    <glyph glyph-name="aring" unicode="&#xe5;" horiz-adv-x="384" 
d="M210 495q30 0 54 -20.5t34 -61.5l15 70h68l-107 -483h-68l14 62q-44 -74 -101 -74q-46 0 -71 37t-25 106q0 48 12 107.5t33.5 118.5t59 98.5t82.5 39.5zM221 434q-30 0 -55 -34t-40 -83t-23.5 -97.5t-8.5 -83.5q0 -87 55 -87q23 0 47 23.5t39 56.5l50 224q-3 34 -21 57.5
t-43 23.5zM247 547q-32 0 -53 21.5t-21 54.5q0 37 28 64.5t65 27.5q32 0 52.5 -21.5t20.5 -54.5q0 -37 -27.5 -64.5t-64.5 -27.5zM250 583q22 0 38 15.5t16 37.5q0 18 -11.5 30.5t-29.5 12.5q-22 0 -37.5 -15.5t-15.5 -37.5q0 -18 11 -30.5t29 -12.5z" />
    <glyph glyph-name="ae" unicode="&#xe6;" horiz-adv-x="597" 
d="M402 -12q-90 0 -108 103l-20 -91h-68l14 62q-44 -74 -101 -74q-47 0 -71.5 37t-24.5 106q0 48 12 107.5t33.5 118.5t59 98.5t82.5 39.5q66 0 88 -82l15 70h68l-15 -65q50 77 107 77q103 0 103 -145q0 -64 -19 -131h-233q-8 -32 -8 -68q0 -47 21.5 -76t63.5 -29
q43 0 85 54l30 -46q-52 -66 -114 -66zM221 434q-30 0 -55 -34t-40 -83t-23.5 -97.5t-8.5 -83.5q0 -87 55 -87q23 0 46.5 23t39.5 57l50 224q-4 34 -22 57.5t-42 23.5zM502 270q9 39 9 75q0 93 -60 93q-31 0 -57 -29t-39.5 -65t-20.5 -74h168z" />
    <glyph glyph-name="ccedilla" unicode="&#xe7;" horiz-adv-x="317" 
d="M108 -190q-51 0 -81 36l25 33q21 -32 58 -32q22 0 36 15t14 35q0 27 -25 27q-14 0 -28 -14l-27 17l39 66q-94 23 -94 161q0 52 14 109.5t39 110t67 87t91 34.5q66 0 100 -49l-37 -50q-21 38 -61 38q-44 0 -78 -51t-48.5 -113t-14.5 -115q0 -106 73 -106q34 0 62 31
l19 -53q-42 -38 -93 -39l-27 -44q10 10 24 10q21 0 34.5 -15.5t13.5 -39.5q0 -37 -27.5 -63t-67.5 -26z" />
    <glyph glyph-name="egrave" unicode="&#xe8;" horiz-adv-x="373" 
d="M164 -12q-66 0 -103 42t-37 124q0 40 11.5 94.5t34.5 111.5t65 96t94 39q123 0 123 -149q0 -57 -18 -127h-236q-8 -38 -8 -68q0 -48 21 -77t63 -29q44 0 86 54l30 -43q-54 -68 -126 -68zM273 270h6q9 47 9 75q0 40 -16.5 66.5t-47.5 26.5t-56.5 -29t-38.5 -64t-21 -75
h165zM312 556h-46l-68 144h68z" />
    <glyph glyph-name="eacute" unicode="&#xe9;" horiz-adv-x="373" 
d="M164 -12q-66 0 -103 42t-37 124q0 40 11.5 94.5t34.5 111.5t65 96t94 39q123 0 123 -149q0 -57 -18 -127h-236q-8 -38 -8 -68q0 -48 21 -77t63 -29q44 0 86 54l30 -43q-54 -68 -126 -68zM273 270h6q9 47 9 75q0 40 -16.5 66.5t-47.5 26.5t-56.5 -29t-38.5 -64t-21 -75
h165zM389 700l-132 -144h-48l111 144h69z" />
    <glyph glyph-name="ecircumflex" unicode="&#xea;" horiz-adv-x="373" 
d="M164 -12q-66 0 -103 42t-37 124q0 40 11.5 94.5t34.5 111.5t65 96t94 39q123 0 123 -149q0 -57 -18 -127h-236q-8 -38 -8 -68q0 -48 21 -77t63 -29q44 0 86 54l30 -43q-54 -68 -126 -68zM273 270h6q9 47 9 75q0 40 -16.5 66.5t-47.5 26.5t-56.5 -29t-38.5 -64t-21 -75
h165zM361 556h-40l-38 105l-80 -105h-43l97 144h67z" />
    <glyph glyph-name="edieresis" unicode="&#xeb;" horiz-adv-x="373" 
d="M164 -12q-66 0 -103 42t-37 124q0 40 11.5 94.5t34.5 111.5t65 96t94 39q123 0 123 -149q0 -57 -18 -127h-236q-8 -38 -8 -68q0 -48 21 -77t63 -29q44 0 86 54l30 -43q-54 -68 -126 -68zM273 270h6q9 47 9 75q0 40 -16.5 66.5t-47.5 26.5t-56.5 -29t-38.5 -64t-21 -75
h165zM382 608q0 -19 -14.5 -33.5t-33.5 -14.5q-17 0 -28 11t-11 27q0 20 14.5 34.5t34.5 14.5q16 0 27 -11t11 -28zM242 608q0 -19 -14.5 -33.5t-34.5 -14.5q-17 0 -28 11t-11 27q0 20 15 34.5t34 14.5q17 0 28 -11.5t11 -27.5z" />
    <glyph glyph-name="igrave" unicode="&#xec;" horiz-adv-x="180" 
d="M210 556h-46l-68 144h68zM70 0h-68l107 483h68z" />
    <glyph glyph-name="iacute" unicode="&#xed;" horiz-adv-x="180" 
d="M287 700l-132 -144h-48l111 144h69zM70 0h-68l107 483h68z" />
    <glyph glyph-name="icircumflex" unicode="&#xee;" horiz-adv-x="180" 
d="M261 556h-40l-38 105l-80 -105h-43l97 144h67zM70 0h-68l107 483h68z" />
    <glyph glyph-name="idieresis" unicode="&#xef;" horiz-adv-x="180" 
d="M283 608q0 -19 -14.5 -33.5t-33.5 -14.5q-17 0 -28 11t-11 27q0 20 15 34.5t34 14.5q16 0 27 -11t11 -28zM143 608q0 -19 -14.5 -33.5t-34.5 -14.5q-17 0 -28 11t-11 27q0 20 14.5 34.5t34.5 14.5q16 0 27.5 -11.5t11.5 -27.5zM70 0h-68l107 483h68z" />
    <glyph glyph-name="eth" unicode="&#xf0;" horiz-adv-x="382" 
d="M177 516l-9 39l109 32q-11 48 -23 80l69 22q18 -59 23 -81l73 22l9 -38l-74 -23q12 -65 12 -153q0 -65 -12 -135.5t-35.5 -138t-66.5 -111t-98 -43.5q-130 0 -130 160q0 68 21.5 143t67 132.5t102.5 57.5q32 0 54 -19t29 -53q-2 73 -14 139zM155 49q39 0 70 54t45 116.5
t14 109.5q0 36 -15 64t-46 28q-30 0 -55.5 -32t-40.5 -77.5t-23.5 -90.5t-8.5 -76q0 -96 60 -96z" />
    <glyph glyph-name="ntilde" unicode="&#xf1;" 
d="M268 0h-68l82 371q3 21 3 24q0 39 -38 39q-50 0 -99 -82l-78 -352h-68l107 483h68l-14 -65q54 77 117 77q37 0 57.5 -19.5t20.5 -54.5q0 -19 -4 -31zM305 554q-21 0 -30.5 15t-10.5 32.5t-7 32.5t-19 15q-31 0 -50 -89h-40q30 134 96 134q21 0 31 -15t11 -32.5t7 -32.5
t19 -15q30 0 50 89h41q-31 -134 -98 -134z" />
    <glyph glyph-name="ograve" unicode="&#xf2;" horiz-adv-x="382" 
d="M150 -12q-60 0 -93 39.5t-33 117.5q0 54 13.5 113t38 113t65.5 89t90 35q59 0 92 -39.5t33 -117.5q0 -53 -13.5 -112.5t-38 -113.5t-65.5 -89t-89 -35zM154 49q39 0 71 54.5t46.5 119.5t14.5 115q0 96 -59 96q-39 0 -71.5 -55t-47 -120t-14.5 -115q0 -95 60 -95zM311 556
h-46l-68 144h68z" />
    <glyph glyph-name="oacute" unicode="&#xf3;" horiz-adv-x="382" 
d="M150 -12q-60 0 -93 39.5t-33 117.5q0 54 13.5 113t38 113t65.5 89t90 35q59 0 92 -39.5t33 -117.5q0 -53 -13.5 -112.5t-38 -113.5t-65.5 -89t-89 -35zM154 49q39 0 71 54.5t46.5 119.5t14.5 115q0 96 -59 96q-39 0 -71.5 -55t-47 -120t-14.5 -115q0 -95 60 -95zM388 700
l-132 -144h-48l111 144h69z" />
    <glyph glyph-name="ocircumflex" unicode="&#xf4;" horiz-adv-x="382" 
d="M150 -12q-60 0 -93 39.5t-33 117.5q0 54 13.5 113t38 113t65.5 89t90 35q59 0 92 -39.5t33 -117.5q0 -53 -13.5 -112.5t-38 -113.5t-65.5 -89t-89 -35zM154 49q39 0 71 54.5t46.5 119.5t14.5 115q0 96 -59 96q-39 0 -71.5 -55t-47 -120t-14.5 -115q0 -95 60 -95zM361 556
h-40l-38 105l-80 -105h-43l97 144h67z" />
    <glyph glyph-name="otilde" unicode="&#xf5;" horiz-adv-x="382" 
d="M150 -12q-60 0 -93 39.5t-33 117.5q0 54 13.5 113t38 113t65.5 89t90 35q59 0 92 -39.5t33 -117.5q0 -53 -13.5 -112.5t-38 -113.5t-65.5 -89t-89 -35zM154 49q39 0 71 54.5t46.5 119.5t14.5 115q0 96 -59 96q-39 0 -71.5 -55t-47 -120t-14.5 -115q0 -95 60 -95zM305 554
q-21 0 -30.5 15t-10.5 32.5t-7 32.5t-19 15q-31 0 -50 -89h-40q30 134 96 134q21 0 31 -15t11 -32.5t7 -32.5t19 -15q30 0 50 89h41q-31 -134 -98 -134z" />
    <glyph glyph-name="odieresis" unicode="&#xf6;" horiz-adv-x="382" 
d="M150 -12q-60 0 -93 39.5t-33 117.5q0 54 13.5 113t38 113t65.5 89t90 35q59 0 92 -39.5t33 -117.5q0 -53 -13.5 -112.5t-38 -113.5t-65.5 -89t-89 -35zM154 49q39 0 71 54.5t46.5 119.5t14.5 115q0 96 -59 96q-39 0 -71.5 -55t-47 -120t-14.5 -115q0 -95 60 -95zM385 608
q0 -19 -14.5 -33.5t-33.5 -14.5q-17 0 -28 11t-11 27q0 20 15 34.5t34 14.5q16 0 27 -11t11 -28zM245 608q0 -19 -14.5 -33.5t-34.5 -14.5q-17 0 -28 11t-11 27q0 20 14.5 34.5t34.5 14.5q16 0 27.5 -11.5t11.5 -27.5z" />
    <glyph glyph-name="divide" unicode="&#xf7;" horiz-adv-x="374" 
d="M360 313h-316l11 49h316zM172 149q-17 0 -28.5 11.5t-11.5 28.5q0 19 14 33t34 14q17 0 28.5 -11.5t11.5 -28.5q0 -20 -14 -33.5t-34 -13.5zM236 435q-17 0 -28.5 11.5t-11.5 28.5q0 19 14 33t34 14q16 0 28 -12t12 -28q0 -20 -14 -33.5t-34 -13.5z" />
    <glyph glyph-name="oslash" unicode="&#xf8;" horiz-adv-x="382" 
d="M38 0h-47l46 63q-13 32 -13 82q0 54 13.5 113t38 113t65.5 89t90 35q59 0 92 -40l20 28h47l-47 -64q13 -36 13 -81q0 -53 -13.5 -112.5t-38 -113.5t-65.5 -89t-89 -35q-60 0 -93 39zM94 144v-3l185 254q-13 39 -52 39t-71.5 -55t-47 -120t-14.5 -115zM154 49
q39 0 71 54.5t46.5 119.5t14.5 115v2l-185 -253q14 -38 53 -38z" />
    <glyph glyph-name="ugrave" unicode="&#xf9;" 
d="M109 483h68l-82 -371q0 -3 -1 -8t-1.5 -9t-0.5 -7q0 -39 38 -39q25 0 51 22t46 55l80 357h68l-107 -483h-68l14 65q-54 -77 -117 -77q-37 0 -57.5 19.5t-20.5 54.5q0 19 4 31zM310 556h-46l-68 144h68z" />
    <glyph glyph-name="uacute" unicode="&#xfa;" 
d="M109 483h68l-82 -371q0 -3 -1 -8t-1.5 -9t-0.5 -7q0 -39 38 -39q25 0 51 22t46 55l80 357h68l-107 -483h-68l14 65q-54 -77 -117 -77q-37 0 -57.5 19.5t-20.5 54.5q0 19 4 31zM386 700l-132 -144h-48l111 144h69z" />
    <glyph glyph-name="ucircumflex" unicode="&#xfb;" 
d="M109 483h68l-82 -371q0 -3 -1 -8t-1.5 -9t-0.5 -7q0 -39 38 -39q25 0 51 22t46 55l80 357h68l-107 -483h-68l14 65q-54 -77 -117 -77q-37 0 -57.5 19.5t-20.5 54.5q0 19 4 31zM360 556h-40l-38 105l-80 -105h-43l97 144h67z" />
    <glyph glyph-name="udieresis" unicode="&#xfc;" 
d="M109 483h68l-82 -371q0 -3 -1 -8t-1.5 -9t-0.5 -7q0 -39 38 -39q25 0 51 22t46 55l80 357h68l-107 -483h-68l14 65q-54 -77 -117 -77q-37 0 -57.5 19.5t-20.5 54.5q0 19 4 31zM384 608q0 -19 -14.5 -33.5t-33.5 -14.5q-17 0 -28 11t-11 27q0 20 14.5 34.5t34.5 14.5
q16 0 27 -11t11 -28zM244 608q0 -19 -14.5 -33.5t-34.5 -14.5q-17 0 -28 11t-11 27q0 20 15 34.5t34 14.5q17 0 28 -11.5t11 -27.5z" />
    <glyph glyph-name="yacute" unicode="&#xfd;" horiz-adv-x="326" 
d="M-61 -186l23 57q8 -6 23 -6t25.5 9.5t22.5 34.5l37 78l-8 496h71l-8 -395l169 395h76l-275 -588q-25 -51 -49 -71t-58 -20q-31 0 -49 10zM359 700l-132 -144h-48l111 144h69z" />
    <glyph glyph-name="thorn" unicode="&#xfe;" horiz-adv-x="384" 
d="M173 -12q-66 0 -88 82l-56 -254h-68l188 851h68l-54 -246q44 74 101 74q46 0 71 -37.5t25 -105.5q0 -48 -12 -107.5t-33.5 -118.5t-59 -98.5t-82.5 -39.5zM162 49q30 0 55 34t40 83t23.5 97.5t8.5 83.5q0 87 -55 87q-23 0 -47 -23.5t-39 -56.5l-50 -224q4 -34 22 -57.5
t42 -23.5z" />
    <glyph glyph-name="ydieresis" unicode="&#xff;" horiz-adv-x="326" 
d="M-61 -186l23 57q8 -6 23 -6t25.5 9.5t22.5 34.5l37 78l-8 496h71l-8 -395l169 395h76l-275 -588q-25 -51 -49 -71t-58 -20q-31 0 -49 10zM356 608q0 -19 -14.5 -33.5t-33.5 -14.5q-17 0 -28 11t-11 27q0 20 14.5 34.5t34.5 14.5q16 0 27 -11t11 -28zM216 608
q0 -19 -14.5 -33.5t-34.5 -14.5q-17 0 -28 11t-11 27q0 20 15 34.5t34 14.5q17 0 28 -11.5t11 -27.5z" />
    <glyph glyph-name="Amacron" unicode="&#x100;" horiz-adv-x="364" 
d="M303 0h-75l7 153h-143l-60 -153h-79l278 667h87zM240 220l17 357l-140 -357h123zM416 749h-247l10 45h247z" />
    <glyph glyph-name="amacron" unicode="&#x101;" horiz-adv-x="384" 
d="M210 495q30 0 54 -20.5t34 -61.5l15 70h68l-107 -483h-68l14 62q-44 -74 -101 -74q-46 0 -71 37t-25 106q0 48 12 107.5t33.5 118.5t59 98.5t82.5 39.5zM221 434q-30 0 -55 -34t-40 -83t-23.5 -97.5t-8.5 -83.5q0 -87 55 -87q23 0 47 23.5t39 56.5l50 224q-3 34 -21 57.5
t-43 23.5zM370 578h-247l10 45h247z" />
    <glyph glyph-name="Abreve" unicode="&#x102;" horiz-adv-x="364" 
d="M303 0h-75l7 153h-143l-60 -153h-79l278 667h87zM240 220l17 357l-140 -357h123zM420 783q-58 -60 -133 -60t-106 60l40 28q9 -20 29.5 -31.5t44.5 -11.5t49.5 11.5t41.5 31.5z" />
    <glyph glyph-name="abreve" unicode="&#x103;" horiz-adv-x="384" 
d="M210 495q30 0 54 -20.5t34 -61.5l15 70h68l-107 -483h-68l14 62q-44 -74 -101 -74q-46 0 -71 37t-25 106q0 48 12 107.5t33.5 118.5t59 98.5t82.5 39.5zM221 434q-30 0 -55 -34t-40 -83t-23.5 -97.5t-8.5 -83.5q0 -87 55 -87q23 0 47 23.5t39 56.5l50 224q-3 34 -21 57.5
t-43 23.5zM375 624q-58 -60 -133 -60t-106 60l40 28q9 -20 29.5 -31.5t44.5 -11.5t49.5 11.5t41.5 31.5z" />
    <glyph glyph-name="Aogonek" unicode="&#x104;" horiz-adv-x="364" 
d="M274 -116l31 -22q-28 -48 -73 -48q-28 0 -45 15t-17 43q0 69 74 128h-16l7 153h-143l-60 -153h-79l278 667h87l-15 -667q-91 -56 -91 -123q0 -26 25 -26t37 33zM240 220l17 357l-140 -357h123z" />
    <glyph glyph-name="aogonek" unicode="&#x105;" horiz-adv-x="384" 
d="M245 -116l31 -22q-28 -48 -73 -48q-28 0 -45 15t-17 43q0 69 74 128h-9l14 62q-44 -74 -101 -74q-46 0 -71 37t-25 106q0 48 12 107.5t33.5 118.5t59 98.5t82.5 39.5q30 0 54 -20.5t34 -61.5l15 70h68l-107 -483q-91 -56 -91 -123q0 -26 25 -26t37 33zM221 434
q-30 0 -55 -34t-40 -83t-23.5 -97.5t-8.5 -83.5q0 -87 55 -87q23 0 47 23.5t39 56.5l50 224q-3 34 -21 57.5t-43 23.5z" />
    <glyph glyph-name="Cacute" unicode="&#x106;" horiz-adv-x="390" 
d="M175 -12q-65 0 -100.5 48t-35.5 141q0 61 15 141t44 163.5t81 140t117 56.5q62 0 93 -42.5t37 -111.5l-70 -14q-9 100 -66 100q-40 0 -74.5 -51.5t-55 -124.5t-32 -143.5t-11.5 -116.5q0 -118 63 -118q47 0 94 85l60 -28q-66 -125 -159 -125zM452 872l-132 -144h-48
l111 144h69z" />
    <glyph glyph-name="cacute" unicode="&#x107;" horiz-adv-x="317" 
d="M157 -12q-62 0 -97 41.5t-35 124.5q0 52 14 109.5t39 110t67 87t91 34.5q66 0 100 -49l-37 -50q-21 38 -61 38q-44 0 -78 -51t-48.5 -113t-14.5 -115q0 -106 73 -106q34 0 62 31l19 -53q-42 -39 -94 -39zM393 700l-132 -144h-48l111 144h69z" />
    <glyph glyph-name="Ccircumflex" unicode="&#x108;" horiz-adv-x="390" 
d="M175 -12q-65 0 -100.5 48t-35.5 141q0 61 15 141t44 163.5t81 140t117 56.5q62 0 93 -42.5t37 -111.5l-70 -14q-9 100 -66 100q-40 0 -74.5 -51.5t-55 -124.5t-32 -143.5t-11.5 -116.5q0 -118 63 -118q47 0 94 85l60 -28q-66 -125 -159 -125zM426 728h-40l-38 105
l-80 -105h-43l97 144h67z" />
    <glyph glyph-name="ccircumflex" unicode="&#x109;" horiz-adv-x="317" 
d="M157 -12q-62 0 -97 41.5t-35 124.5q0 52 14 109.5t39 110t67 87t91 34.5q66 0 100 -49l-37 -50q-21 38 -61 38q-44 0 -78 -51t-48.5 -113t-14.5 -115q0 -106 73 -106q34 0 62 31l19 -53q-42 -39 -94 -39zM367 556h-40l-38 105l-80 -105h-43l97 144h67z" />
    <glyph glyph-name="Cdotaccent" unicode="&#x10a;" horiz-adv-x="390" 
d="M175 -12q-65 0 -100.5 48t-35.5 141q0 61 15 141t44 163.5t81 140t117 56.5q62 0 93 -42.5t37 -111.5l-70 -14q-9 100 -66 100q-40 0 -74.5 -51.5t-55 -124.5t-32 -143.5t-11.5 -116.5q0 -118 63 -118q47 0 94 85l60 -28q-66 -125 -159 -125zM379 777q0 -19 -15 -34
t-35 -15q-17 0 -28.5 11.5t-11.5 28.5q0 20 15 34.5t35 14.5q17 0 28.5 -11.5t11.5 -28.5z" />
    <glyph glyph-name="cdotaccent" unicode="&#x10b;" horiz-adv-x="317" 
d="M157 -12q-62 0 -97 41.5t-35 124.5q0 52 14 109.5t39 110t67 87t91 34.5q66 0 100 -49l-37 -50q-21 38 -61 38q-44 0 -78 -51t-48.5 -113t-14.5 -115q0 -106 73 -106q34 0 62 31l19 -53q-42 -39 -94 -39zM326 624q0 -19 -15 -34t-35 -15q-17 0 -28.5 11.5t-11.5 28.5
q0 20 15 34.5t35 14.5q17 0 28.5 -11.5t11.5 -28.5z" />
    <glyph glyph-name="Ccaron" unicode="&#x10c;" horiz-adv-x="390" 
d="M175 -12q-65 0 -100.5 48t-35.5 141q0 61 15 141t44 163.5t81 140t117 56.5q62 0 93 -42.5t37 -111.5l-70 -14q-9 100 -66 100q-40 0 -74.5 -51.5t-55 -124.5t-32 -143.5t-11.5 -116.5q0 -118 63 -118q47 0 94 85l60 -28q-66 -125 -159 -125zM360 728h-67l-36 144h39
l37 -105l81 105h44z" />
    <glyph glyph-name="ccaron" unicode="&#x10d;" horiz-adv-x="317" 
d="M157 -12q-62 0 -97 41.5t-35 124.5q0 52 14 109.5t39 110t67 87t91 34.5q66 0 100 -49l-37 -50q-21 38 -61 38q-44 0 -78 -51t-48.5 -113t-14.5 -115q0 -106 73 -106q34 0 62 31l19 -53q-42 -39 -94 -39zM301 556h-67l-36 144h39l37 -105l81 105h44z" />
    <glyph glyph-name="Dcaron" unicode="&#x10e;" horiz-adv-x="427" 
d="M136 0h-127l147 667h124q58 0 99 -50t41 -150q0 -30 -5.5 -72t-17.5 -96t-34.5 -105.5t-52 -95.5t-75 -71t-99.5 -27zM151 67h-2q50 0 90 50t61 120.5t31.5 131t10.5 97.5q0 68 -21.5 101t-54.5 33h-49l-118 -533h52zM351 728h-67l-36 144h39l37 -105l81 105h44z" />
    <glyph glyph-name="dcaron" unicode="&#x10f;" horiz-adv-x="466" 
d="M210 495q30 0 54 -20.5t34 -61.5l56 254h68l-148 -667h-68l14 62q-44 -74 -101 -74q-46 0 -71 37t-25 106q0 48 12 107.5t33.5 118.5t59 98.5t82.5 39.5zM221 434q-30 0 -55 -34t-40 -83t-23.5 -97.5t-8.5 -83.5q0 -87 55 -87q23 0 47 23.5t39 56.5l50 224
q-3 34 -21 57.5t-43 23.5zM551 631q0 -41 -29.5 -81t-70.5 -62l-25 27q26 14 47 35.5t28 43.5q0 -1 -7 -1q-14 0 -24.5 11t-10.5 26q0 20 15 34.5t34 14.5t31 -12.5t12 -35.5z" />
    <glyph glyph-name="Dcroat" unicode="&#x110;" horiz-adv-x="446" 
d="M155 0h-127l66 302h-60l14 63h60l67 302h124q58 0 99 -50t41 -150q0 -30 -5.5 -72t-17.5 -96t-34.5 -105.5t-52 -95.5t-75 -71t-99.5 -27zM254 302h-84l-52 -235h50q50 0 90 50t61 120.5t31.5 131t10.5 97.5q0 68 -21.5 101t-54.5 33h-49l-52 -235h84z" />
    <glyph glyph-name="dcroat" unicode="&#x111;" horiz-adv-x="397" 
d="M210 495q30 0 54 -20.5t34 -61.5l27 123h-125l10 45h125l19 86h68l-19 -86h39l-9 -45h-40l-119 -536h-68l14 62q-44 -74 -101 -74q-46 0 -71 37t-25 106q0 48 12 107.5t33.5 118.5t59 98.5t82.5 39.5zM221 434q-30 0 -55 -34t-40 -83t-23.5 -97.5t-8.5 -83.5
q0 -87 55 -87q23 0 47 23.5t39 56.5l50 224q-3 34 -21 57.5t-43 23.5z" />
    <glyph glyph-name="Emacron" unicode="&#x112;" horiz-adv-x="352" 
d="M257 0h-248l147 667h248l-15 -67h-172l-50 -225h165l-15 -67h-165l-53 -241h172zM422 749h-247l10 45h247z" />
    <glyph glyph-name="emacron" unicode="&#x113;" horiz-adv-x="373" 
d="M164 -12q-66 0 -103 42t-37 124q0 40 11.5 94.5t34.5 111.5t65 96t94 39q123 0 123 -149q0 -57 -18 -127h-236q-8 -38 -8 -68q0 -48 21 -77t63 -29q44 0 86 54l30 -43q-54 -68 -126 -68zM273 270h6q9 47 9 75q0 40 -16.5 66.5t-47.5 26.5t-56.5 -29t-38.5 -64t-21 -75
h165zM384 578h-247l10 45h247z" />
    <glyph glyph-name="Ebreve" unicode="&#x114;" horiz-adv-x="352" 
d="M257 0h-248l147 667h248l-15 -67h-172l-50 -225h165l-15 -67h-165l-53 -241h172zM427 783q-58 -60 -133 -60t-106 60l40 28q9 -20 29.5 -31.5t44.5 -11.5t49.5 11.5t41.5 31.5z" />
    <glyph glyph-name="ebreve" unicode="&#x115;" horiz-adv-x="373" 
d="M164 -12q-66 0 -103 42t-37 124q0 40 11.5 94.5t34.5 111.5t65 96t94 39q123 0 123 -149q0 -57 -18 -127h-236q-8 -38 -8 -68q0 -48 21 -77t63 -29q44 0 86 54l30 -43q-54 -68 -126 -68zM273 270h6q9 47 9 75q0 40 -16.5 66.5t-47.5 26.5t-56.5 -29t-38.5 -64t-21 -75
h165zM395 624q-58 -60 -133 -60t-106 60l40 28q9 -20 29.5 -31.5t44.5 -11.5t49.5 11.5t41.5 31.5z" />
    <glyph glyph-name="Edotaccent" unicode="&#x116;" horiz-adv-x="352" 
d="M257 0h-248l147 667h248l-15 -67h-172l-50 -225h165l-15 -67h-165l-53 -241h172zM356 777q0 -19 -15 -34t-35 -15q-17 0 -28.5 11.5t-11.5 28.5q0 20 15 34.5t35 14.5q17 0 28.5 -11.5t11.5 -28.5z" />
    <glyph glyph-name="edotaccent" unicode="&#x117;" horiz-adv-x="373" 
d="M164 -12q-66 0 -103 42t-37 124q0 40 11.5 94.5t34.5 111.5t65 96t94 39q123 0 123 -149q0 -57 -18 -127h-236q-8 -38 -8 -68q0 -48 21 -77t63 -29q44 0 86 54l30 -43q-54 -68 -126 -68zM273 270h6q9 47 9 75q0 40 -16.5 66.5t-47.5 26.5t-56.5 -29t-38.5 -64t-21 -75
h165zM319 624q0 -19 -15 -34t-35 -15q-17 0 -28.5 11.5t-11.5 28.5q0 20 15 34.5t35 14.5q17 0 28.5 -11.5t11.5 -28.5z" />
    <glyph glyph-name="Eogonek" unicode="&#x118;" horiz-adv-x="352" 
d="M228 -116l31 -22q-28 -48 -73 -48q-28 0 -45 15t-17 43q0 69 74 128h-189l147 667h248l-15 -67h-172l-50 -225h165l-15 -67h-165l-53 -241h172l-14 -67q-91 -56 -91 -123q0 -26 25 -26t37 33z" />
    <glyph glyph-name="eogonek" unicode="&#x119;" horiz-adv-x="373" 
d="M191 -116l31 -22q-28 -48 -73 -48q-28 0 -45 15t-17 43q0 63 60 117q-58 5 -90.5 47t-32.5 118q0 40 11.5 94.5t34.5 111.5t65 96t94 39q123 0 123 -149q0 -57 -18 -127h-236q-8 -38 -8 -68q0 -48 21 -77t63 -29q44 0 86 54l30 -43q-32 -39 -70 -56q-91 -56 -91 -123
q0 -26 25 -26t37 33zM279 270q9 47 9 75q0 40 -16.5 66.5t-47.5 26.5t-56.5 -29t-38.5 -64t-21 -75h171z" />
    <glyph glyph-name="Ecaron" unicode="&#x11a;" horiz-adv-x="352" 
d="M257 0h-248l147 667h248l-15 -67h-172l-50 -225h165l-15 -67h-165l-53 -241h172zM327 728h-67l-36 144h39l37 -105l81 105h44z" />
    <glyph glyph-name="ecaron" unicode="&#x11b;" horiz-adv-x="373" 
d="M164 -12q-66 0 -103 42t-37 124q0 40 11.5 94.5t34.5 111.5t65 96t94 39q123 0 123 -149q0 -57 -18 -127h-236q-8 -38 -8 -68q0 -48 21 -77t63 -29q44 0 86 54l30 -43q-54 -68 -126 -68zM273 270h6q9 47 9 75q0 40 -16.5 66.5t-47.5 26.5t-56.5 -29t-38.5 -64t-21 -75
h165zM294 556h-67l-36 144h39l37 -105l81 105h44z" />
    <glyph glyph-name="Gcircumflex" unicode="&#x11c;" horiz-adv-x="411" 
d="M175 -12q-65 0 -100.5 47.5t-35.5 141.5q0 65 16 146.5t45.5 163t81 136.5t114.5 55t93.5 -42.5t33.5 -104.5l-66 -15q-7 94 -67 94q-39 0 -73 -50t-55 -121t-33 -142.5t-12 -122.5q0 -64 15.5 -91t48.5 -27q39 0 79 56l35 161h-89l14 67h158l-56 -255q-64 -97 -147 -97z
M388 728h-40l-38 105l-80 -105h-43l97 144h67z" />
    <glyph glyph-name="gcircumflex" unicode="&#x11d;" horiz-adv-x="384" 
d="M99 -196q-87 0 -131 56l39 53q32 -48 92 -48q38 0 62.5 27.5t39.5 88.5l22 89q-44 -74 -102 -74q-45 0 -71 34.5t-26 104.5q0 47 11 105.5t32.5 117t59 98t84.5 39.5q28 0 54.5 -22t33.5 -60l15 70h67l-112 -502q-21 -94 -63.5 -135.5t-106.5 -41.5zM150 57q24 0 47.5 23
t38.5 57l49 216q-3 31 -21.5 56t-43.5 25q-29 0 -53.5 -32t-39.5 -79t-23.5 -94.5t-8.5 -83.5q0 -88 55 -88zM362 550h-40l-38 105l-80 -105h-43l97 144h67z" />
    <glyph glyph-name="Gbreve" unicode="&#x11e;" horiz-adv-x="411" 
d="M175 -12q-65 0 -100.5 47.5t-35.5 141.5q0 65 16 146.5t45.5 163t81 136.5t114.5 55t93.5 -42.5t33.5 -104.5l-66 -15q-7 94 -67 94q-39 0 -73 -50t-55 -121t-33 -142.5t-12 -122.5q0 -64 15.5 -91t48.5 -27q39 0 79 56l35 161h-89l14 67h158l-56 -255q-64 -97 -147 -97z
M458 783q-58 -60 -133 -60t-106 60l40 28q9 -20 29.5 -31.5t44.5 -11.5t49.5 11.5t41.5 31.5z" />
    <glyph glyph-name="gbreve" unicode="&#x11f;" horiz-adv-x="384" 
d="M99 -196q-87 0 -131 56l39 53q32 -48 92 -48q38 0 62.5 27.5t39.5 88.5l22 89q-44 -74 -102 -74q-45 0 -71 34.5t-26 104.5q0 47 11 105.5t32.5 117t59 98t84.5 39.5q28 0 54.5 -22t33.5 -60l15 70h67l-112 -502q-21 -94 -63.5 -135.5t-106.5 -41.5zM150 57q24 0 47.5 23
t38.5 57l49 216q-3 31 -21.5 56t-43.5 25q-29 0 -53.5 -32t-39.5 -79t-23.5 -94.5t-8.5 -83.5q0 -88 55 -88zM395 624q-58 -60 -133 -60t-106 60l40 28q9 -20 29.5 -31.5t44.5 -11.5t49.5 11.5t41.5 31.5z" />
    <glyph glyph-name="Gdotaccent" unicode="&#x120;" horiz-adv-x="411" 
d="M175 -12q-65 0 -100.5 47.5t-35.5 141.5q0 65 16 146.5t45.5 163t81 136.5t114.5 55t93.5 -42.5t33.5 -104.5l-66 -15q-7 94 -67 94q-39 0 -73 -50t-55 -121t-33 -142.5t-12 -122.5q0 -64 15.5 -91t48.5 -27q39 0 79 56l35 161h-89l14 67h158l-56 -255q-64 -97 -147 -97z
M380 777q0 -19 -15 -34t-35 -15q-17 0 -28.5 11.5t-11.5 28.5q0 20 15 34.5t35 14.5q17 0 28.5 -11.5t11.5 -28.5z" />
    <glyph glyph-name="gdotaccent" unicode="&#x121;" horiz-adv-x="384" 
d="M99 -196q-87 0 -131 56l39 53q32 -48 92 -48q38 0 62.5 27.5t39.5 88.5l22 89q-44 -74 -102 -74q-45 0 -71 34.5t-26 104.5q0 47 11 105.5t32.5 117t59 98t84.5 39.5q28 0 54.5 -22t33.5 -60l15 70h67l-112 -502q-21 -94 -63.5 -135.5t-106.5 -41.5zM150 57q24 0 47.5 23
t38.5 57l49 216q-3 31 -21.5 56t-43.5 25q-29 0 -53.5 -32t-39.5 -79t-23.5 -94.5t-8.5 -83.5q0 -88 55 -88zM319 624q0 -19 -15 -34t-35 -15q-17 0 -28.5 11.5t-11.5 28.5q0 20 15 34.5t35 14.5q17 0 28.5 -11.5t11.5 -28.5z" />
    <glyph glyph-name="Gcommaaccent" unicode="&#x122;" horiz-adv-x="411" 
d="M175 -12q-65 0 -100.5 47.5t-35.5 141.5q0 65 16 146.5t45.5 163t81 136.5t114.5 55t93.5 -42.5t33.5 -104.5l-66 -15q-7 94 -67 94q-39 0 -73 -50t-55 -121t-33 -142.5t-12 -122.5q0 -64 15.5 -91t48.5 -27q39 0 79 56l35 161h-89l14 67h158l-56 -255q-64 -97 -147 -97z
M179 -121q0 -41 -29.5 -81t-70.5 -62l-25 27q26 14 47 35.5t28 43.5q0 -1 -7 -1q-14 0 -24.5 11t-10.5 26q0 20 15 34.5t34 14.5t31 -12.5t12 -35.5z" />
    <glyph glyph-name="gcommaaccent" unicode="&#x123;" horiz-adv-x="384" 
d="M219 609q0 40 30 81t71 62l25 -27q-26 -13 -47 -35t-28 -44h7q15 0 25 -10.5t10 -26.5q0 -20 -14.5 -34.5t-34.5 -14.5q-19 0 -31.5 13t-12.5 36zM99 -196q-87 0 -131 56l39 53q32 -48 92 -48q38 0 62.5 27.5t39.5 88.5l22 89q-44 -74 -102 -74q-45 0 -71 34.5t-26 104.5
q0 47 11 105.5t32.5 117t59 98t84.5 39.5q28 0 54.5 -22t33.5 -60l15 70h67l-112 -502q-21 -94 -63.5 -135.5t-106.5 -41.5zM150 57q24 0 47.5 23t38.5 57l49 216q-3 31 -21.5 56t-43.5 25q-29 0 -53.5 -32t-39.5 -79t-23.5 -94.5t-8.5 -83.5q0 -88 55 -88z" />
    <glyph glyph-name="Hcircumflex" unicode="&#x124;" horiz-adv-x="436" 
d="M319 0h-75l68 309h-160l-68 -309h-75l147 667h75l-64 -290h160l64 290h75zM426 728h-40l-38 105l-80 -105h-43l97 144h67z" />
    <glyph glyph-name="hcircumflex" unicode="&#x125;" 
d="M268 0h-68l82 371q3 15 3 24q0 39 -38 39q-50 0 -99 -82l-78 -352h-68l147 667h68l-54 -249q54 77 117 77q38 0 58 -20t20 -54q0 -11 -4 -31zM300 728h-40l-38 105l-80 -105h-43l97 144h67z" />
    <glyph glyph-name="Hbar" unicode="&#x126;" horiz-adv-x="478" 
d="M340 0h-75l68 309h-160l-68 -309h-75l110 501h-62l10 45h62l27 121h75l-27 -121h160l27 121h75l-27 -121h61l-10 -45h-61zM188 377h160l27 124h-160z" />
    <glyph glyph-name="hbar" unicode="&#x127;" horiz-adv-x="392" 
d="M282 0h-68l82 371q3 15 3 24q0 39 -38 39q-50 0 -99 -82l-78 -352h-68l118 536h-49l10 45h49l19 86h68l-19 -86h118l-10 -45h-118l-25 -118q54 77 117 77q38 0 58 -20t20 -54q0 -11 -4 -31z" />
    <glyph glyph-name="Itilde" unicode="&#x128;" horiz-adv-x="201" 
d="M84 0h-75l147 667h75zM254 726q-21 0 -30.5 15t-10.5 32.5t-7 32.5t-19 15q-31 0 -50 -89h-40q30 134 96 134q21 0 31 -15t11 -32.5t7 -32.5t19 -15q30 0 50 89h41q-31 -134 -98 -134z" />
    <glyph glyph-name="itilde" unicode="&#x129;" horiz-adv-x="180" 
d="M70 0h-68l107 483h68zM205 541q-21 0 -30.5 15t-10.5 32.5t-7 32.5t-19 15q-31 0 -50 -89h-40q30 134 96 134q21 0 31 -15t11 -32.5t7 -32.5t19 -15q30 0 50 89h41q-31 -134 -98 -134z" />
    <glyph glyph-name="Imacron" unicode="&#x12a;" horiz-adv-x="201" 
d="M84 0h-75l147 667h75zM335 749h-247l10 45h247z" />
    <glyph glyph-name="imacron" unicode="&#x12b;" horiz-adv-x="180" 
d="M70 0h-68l107 483h68zM288 578h-247l10 45h247z" />
    <glyph glyph-name="Ibreve" unicode="&#x12c;" horiz-adv-x="201" 
d="M84 0h-75l147 667h75zM340 783q-58 -60 -133 -60t-106 60l40 28q9 -20 29.5 -31.5t44.5 -11.5t49.5 11.5t41.5 31.5z" />
    <glyph glyph-name="ibreve" unicode="&#x12d;" horiz-adv-x="180" 
d="M70 0h-68l107 483h68zM297 624q-58 -60 -133 -60t-106 60l40 28q9 -20 29.5 -31.5t44.5 -11.5t49.5 11.5t41.5 31.5z" />
    <glyph glyph-name="Iogonek" unicode="&#x12e;" horiz-adv-x="201" 
d="M55 -116l31 -22q-28 -48 -73 -48q-28 0 -45 15t-17 43q0 69 74 128h-16l147 667h75l-147 -667q-91 -56 -91 -123q0 -26 25 -26t37 33z" />
    <glyph glyph-name="iogonek" unicode="&#x12f;" horiz-adv-x="180" 
d="M41 -116l31 -22q-28 -48 -73 -48q-28 0 -45 15t-17 43q0 69 74 128h-9l107 483h68l-107 -483q-91 -56 -91 -123q0 -26 25 -26t37 33zM163 554q-18 0 -30.5 12t-12.5 29q0 23 17 38t37 15q18 0 30.5 -12t12.5 -29q0 -23 -17 -38t-37 -15z" />
    <glyph glyph-name="Idotaccent" unicode="&#x130;" horiz-adv-x="201" 
d="M84 0h-75l147 667h75zM263 777q0 -19 -15 -34t-35 -15q-17 0 -28.5 11.5t-11.5 28.5q0 20 15 34.5t35 14.5q17 0 28.5 -11.5t11.5 -28.5z" />
    <glyph glyph-name="dotlessi" unicode="&#x131;" horiz-adv-x="180" 
d="M70 0h-68l107 483h68z" />
    <glyph glyph-name="IJ" unicode="&#x132;" horiz-adv-x="522" 
d="M84 0h-75l147 667h75zM277 -12q-77 0 -112 51l37 57q23 -40 70 -40q37 0 58.5 21t31.5 68l116 522h75l-116 -525q-18 -81 -56 -117.5t-104 -36.5z" />
    <glyph glyph-name="ij" unicode="&#x133;" horiz-adv-x="361" 
d="M163 554q-18 0 -30.5 12t-12.5 29q0 23 17 38t37 15q18 0 30.5 -12t12.5 -29q0 -23 -17 -38t-37 -15zM70 0h-68l107 483h68zM123 -196q-49 0 -64 34l36 46q5 -19 26 -19q31 0 45 64l123 554h68l-123 -554q-15 -68 -40.5 -96.5t-70.5 -28.5zM343 554q-18 0 -30.5 12
t-12.5 29q0 23 17 38t37 15q18 0 30.5 -12t12.5 -29q0 -23 -17 -38t-37 -15z" />
    <glyph glyph-name="Jcircumflex" unicode="&#x134;" horiz-adv-x="321" 
d="M76 -12q-77 0 -112 51l37 57q23 -40 70 -40q37 0 58.5 21t31.5 68l116 522h75l-116 -525q-18 -81 -56 -117.5t-104 -36.5zM429 728h-40l-38 105l-80 -105h-43l97 144h67z" />
    <glyph glyph-name="jcircumflex" unicode="&#x135;" horiz-adv-x="180" 
d="M-57 -196q-49 0 -64 34l36 46q5 -19 26 -19q31 0 45 64l123 554h68l-123 -554q-15 -68 -40.5 -96.5t-70.5 -28.5zM262 556h-40l-38 105l-80 -105h-43l97 144h67z" />
    <glyph glyph-name="Kcommaaccent" unicode="&#x136;" horiz-adv-x="418" 
d="M353 0h-81l-78 292l-65 -89l-45 -203h-75l147 667h75l-73 -335l239 335h90l-238 -317zM179 -121q0 -41 -29.5 -81t-70.5 -62l-25 27q26 14 47 35.5t28 43.5q0 -1 -7 -1q-14 0 -24.5 11t-10.5 26q0 20 15 34.5t34 14.5t31 -12.5t12 -35.5z" />
    <glyph glyph-name="kcommaaccent" unicode="&#x137;" horiz-adv-x="361" 
d="M292 0h-72l-44 222l-79 -99l-27 -123h-68l147 667h68l-98 -446l204 262h76l-171 -216zM150 -121q0 -41 -29.5 -81t-70.5 -62l-25 27q26 14 47 35.5t28 43.5q0 -1 -7 -1q-14 0 -24.5 11t-10.5 26q0 20 15 34.5t34 14.5t31 -12.5t12 -35.5z" />
    <glyph glyph-name="kgreenlandic" unicode="&#x138;" horiz-adv-x="361" 
d="M292 0h-72l-44 222l-79 -99l-27 -123h-68l107 483h68l-58 -262l204 262h76l-171 -216z" />
    <glyph glyph-name="Lacute" unicode="&#x139;" horiz-adv-x="333" 
d="M257 0h-248l147 667h75l-132 -600h172zM402 872l-132 -144h-48l111 144h69z" />
    <glyph glyph-name="lacute" unicode="&#x13a;" horiz-adv-x="180" 
d="M70 0h-68l147 667h68zM324 872l-132 -144h-48l111 144h69z" />
    <glyph glyph-name="Lcommaaccent" unicode="&#x13b;" horiz-adv-x="333" 
d="M257 0h-248l147 667h75l-132 -600h172zM136 -121q0 -41 -29.5 -81t-70.5 -62l-25 27q26 14 47 35.5t28 43.5q0 -1 -7 -1q-14 0 -24.5 11t-10.5 26q0 20 15 34.5t34 14.5t31 -12.5t12 -35.5z" />
    <glyph glyph-name="lcommaaccent" unicode="&#x13c;" horiz-adv-x="180" 
d="M70 0h-68l147 667h68zM60 -121q0 -41 -29.5 -81t-70.5 -62l-25 27q26 14 47 35.5t28 43.5q0 -1 -7 -1q-14 0 -24.5 11t-10.5 26q0 20 15 34.5t34 14.5t31 -12.5t12 -35.5z" />
    <glyph glyph-name="Lcaron" unicode="&#x13d;" horiz-adv-x="333" 
d="M257 0h-248l147 667h75l-132 -600h172zM369 633q0 -41 -29.5 -81t-70.5 -62l-25 27q26 14 47 35.5t28 43.5q0 -1 -7 -1q-14 0 -24.5 11t-10.5 26q0 20 15 34.5t34 14.5t31 -12.5t12 -35.5z" />
    <glyph glyph-name="lcaron" unicode="&#x13e;" horiz-adv-x="261" 
d="M70 0h-68l147 667h68zM363 632q0 -41 -29.5 -81t-70.5 -62l-25 27q26 14 47 35.5t28 43.5q0 -1 -7 -1q-14 0 -24.5 11t-10.5 26q0 20 15 34.5t34 14.5t31 -12.5t12 -35.5z" />
    <glyph glyph-name="Ldot" unicode="&#x13f;" horiz-adv-x="363" 
d="M257 0h-248l147 667h75l-132 -600h172zM297 290q-19 0 -33 14t-14 33q0 23 17 39.5t40 16.5q19 0 33 -13.5t14 -33.5q0 -23 -17 -39.5t-40 -16.5z" />
    <glyph glyph-name="ldot" unicode="&#x140;" horiz-adv-x="287" 
d="M70 0h-68l147 667h68zM229 193q-19 0 -33 13.5t-14 33.5q0 23 17 39.5t40 16.5q19 0 33 -14t14 -33q0 -23 -17 -39.5t-40 -16.5z" />
    <glyph glyph-name="Lslash" unicode="&#x141;" horiz-adv-x="346" 
d="M22 248l14 66l62 32l71 321h75l-61 -278l68 35l-14 -66l-69 -35l-56 -256h172l-14 -67h-248l61 279z" />
    <glyph glyph-name="lslash" unicode="&#x142;" horiz-adv-x="222" 
d="M25 262l12 56l63 32l70 317h68l-62 -279l63 32l-12 -56l-63 -32l-73 -332h-68l64 293z" />
    <glyph glyph-name="Nacute" unicode="&#x143;" horiz-adv-x="436" 
d="M319 0h-72l-55 489l-108 -489h-75l147 667h75l54 -479l106 479h75zM452 872l-132 -144h-48l111 144h69z" />
    <glyph glyph-name="nacute" unicode="&#x144;" 
d="M268 0h-68l82 371q3 21 3 24q0 39 -38 39q-50 0 -99 -82l-78 -352h-68l107 483h68l-14 -65q54 77 117 77q37 0 57.5 -19.5t20.5 -54.5q0 -19 -4 -31zM385 700l-132 -144h-48l111 144h69z" />
    <glyph glyph-name="Ncommaaccent" unicode="&#x145;" horiz-adv-x="436" 
d="M319 0h-72l-55 489l-108 -489h-75l147 667h75l54 -479l106 479h75zM187 -121q0 -41 -29.5 -81t-70.5 -62l-25 27q26 14 47 35.5t28 43.5q0 -1 -7 -1q-14 0 -24.5 11t-10.5 26q0 20 15 34.5t34 14.5t31 -12.5t12 -35.5z" />
    <glyph glyph-name="ncommaaccent" unicode="&#x146;" 
d="M268 0h-68l82 371q3 21 3 24q0 39 -38 39q-50 0 -99 -82l-78 -352h-68l107 483h68l-14 -65q54 77 117 77q37 0 57.5 -19.5t20.5 -54.5q0 -19 -4 -31zM159 -121q0 -41 -29.5 -81t-70.5 -62l-25 27q26 14 47 35.5t28 43.5q0 -1 -7 -1q-14 0 -24.5 11t-10.5 26q0 20 15 34.5
t34 14.5t31 -12.5t12 -35.5z" />
    <glyph glyph-name="Ncaron" unicode="&#x147;" horiz-adv-x="436" 
d="M319 0h-72l-55 489l-108 -489h-75l147 667h75l54 -479l106 479h75zM360 728h-67l-36 144h39l37 -105l81 105h44z" />
    <glyph glyph-name="ncaron" unicode="&#x148;" 
d="M268 0h-68l82 371q3 21 3 24q0 39 -38 39q-50 0 -99 -82l-78 -352h-68l107 483h68l-14 -65q54 77 117 77q37 0 57.5 -19.5t20.5 -54.5q0 -19 -4 -31zM292 556h-67l-36 144h39l37 -105l81 105h44z" />
    <glyph glyph-name="napostrophe" unicode="&#x149;" 
d="M268 0h-68l82 371q3 21 3 24q0 39 -38 39q-50 0 -99 -82l-78 -352h-68l107 483h68l-14 -65q54 77 117 77q37 0 57.5 -19.5t20.5 -54.5q0 -19 -4 -31zM232 693q0 -41 -29.5 -81t-70.5 -62l-25 27q26 14 47 35.5t28 43.5q0 -1 -7 -1q-14 0 -24.5 11t-10.5 26q0 20 15 34.5
t34 14.5t31 -12.5t12 -35.5z" />
    <glyph glyph-name="Eng" unicode="&#x14a;" horiz-adv-x="436" 
d="M150 -196q-76 0 -112 51l36 54q23 -38 71 -38q37 0 58 21t32 68l11 50l-54 479l-108 -489h-75l147 667h75l54 -479l106 479h75l-156 -709q-18 -81 -55.5 -117.5t-104.5 -36.5z" />
    <glyph glyph-name="eng" unicode="&#x14b;" 
d="M140 -196q-45 0 -64 34l37 46q5 -19 25 -19q31 0 45 64l99 442q3 10 3 25q0 38 -38 38q-25 0 -52 -24t-47 -58l-78 -352h-68l107 483h68l-15 -68q55 80 118 80q36 0 57 -19t21 -54q0 -14 -4 -32l-102 -461q-16 -69 -42 -97t-70 -28z" />
    <glyph glyph-name="Omacron" unicode="&#x14c;" horiz-adv-x="434" 
d="M175 -12q-69 0 -102.5 52.5t-33.5 136.5q0 46 9 107t29.5 131t49 128t73 96.5t96.5 38.5q69 0 103 -53.5t34 -137.5q0 -59 -15.5 -139t-44.5 -163t-81.5 -140t-116.5 -57zM180 56q38 0 72.5 50t56 121t34 142t12.5 121q0 120 -65 120q-39 0 -73 -50t-55 -121.5t-33 -143
t-12 -121.5q0 -118 63 -118zM451 749h-247l10 45h247z" />
    <glyph glyph-name="omacron" unicode="&#x14d;" horiz-adv-x="382" 
d="M150 -12q-60 0 -93 39.5t-33 117.5q0 54 13.5 113t38 113t65.5 89t90 35q59 0 92 -39.5t33 -117.5q0 -53 -13.5 -112.5t-38 -113.5t-65.5 -89t-89 -35zM154 49q39 0 71 54.5t46.5 119.5t14.5 115q0 96 -59 96q-39 0 -71.5 -55t-47 -120t-14.5 -115q0 -95 60 -95zM388 578
h-247l10 45h247z" />
    <glyph glyph-name="Obreve" unicode="&#x14e;" horiz-adv-x="434" 
d="M175 -12q-69 0 -102.5 52.5t-33.5 136.5q0 46 9 107t29.5 131t49 128t73 96.5t96.5 38.5q69 0 103 -53.5t34 -137.5q0 -59 -15.5 -139t-44.5 -163t-81.5 -140t-116.5 -57zM180 56q38 0 72.5 50t56 121t34 142t12.5 121q0 120 -65 120q-39 0 -73 -50t-55 -121.5t-33 -143
t-12 -121.5q0 -118 63 -118zM455 783q-58 -60 -133 -60t-106 60l40 28q9 -20 29.5 -31.5t44.5 -11.5t49.5 11.5t41.5 31.5z" />
    <glyph glyph-name="obreve" unicode="&#x14f;" horiz-adv-x="382" 
d="M150 -12q-60 0 -93 39.5t-33 117.5q0 54 13.5 113t38 113t65.5 89t90 35q59 0 92 -39.5t33 -117.5q0 -53 -13.5 -112.5t-38 -113.5t-65.5 -89t-89 -35zM154 49q39 0 71 54.5t46.5 119.5t14.5 115q0 96 -59 96q-39 0 -71.5 -55t-47 -120t-14.5 -115q0 -95 60 -95zM395 624
q-58 -60 -133 -60t-106 60l40 28q9 -20 29.5 -31.5t44.5 -11.5t49.5 11.5t41.5 31.5z" />
    <glyph glyph-name="Ohungarumlaut" unicode="&#x150;" horiz-adv-x="434" 
d="M175 -12q-69 0 -102.5 52.5t-33.5 136.5q0 46 9 107t29.5 131t49 128t73 96.5t96.5 38.5q69 0 103 -53.5t34 -137.5q0 -59 -15.5 -139t-44.5 -163t-81.5 -140t-116.5 -57zM180 56q38 0 72.5 50t56 121t34 142t12.5 121q0 120 -65 120q-39 0 -73 -50t-55 -121.5t-33 -143
t-12 -121.5q0 -118 63 -118zM385 872l-109 -144h-40l88 144h61zM502 872l-110 -144h-40l88 144h62z" />
    <glyph glyph-name="ohungarumlaut" unicode="&#x151;" horiz-adv-x="382" 
d="M150 -12q-60 0 -93 39.5t-33 117.5q0 54 13.5 113t38 113t65.5 89t90 35q59 0 92 -39.5t33 -117.5q0 -53 -13.5 -112.5t-38 -113.5t-65.5 -89t-89 -35zM154 49q39 0 71 54.5t46.5 119.5t14.5 115q0 96 -59 96q-39 0 -71.5 -55t-47 -120t-14.5 -115q0 -95 60 -95zM321 700
l-109 -144h-40l88 144h61zM438 700l-110 -144h-40l88 144h62z" />
    <glyph glyph-name="OE" unicode="&#x152;" horiz-adv-x="594" 
d="M497 0h-247l14 66q-48 -78 -113 -78q-53 0 -82.5 51t-29.5 138q0 48 9.5 110t30.5 131t50 126.5t74 95t97 37.5q67 0 83 -76l14 66h247l-14 -67h-172l-50 -225h165l-15 -67h-165l-54 -241h173zM289 178l68 311q-1 120 -61 120q-42 0 -77.5 -49.5t-56.5 -120.5t-33 -142
t-12 -123q0 -118 58 -118q30 0 60 32t54 90z" />
    <glyph glyph-name="oe" unicode="&#x153;" horiz-adv-x="608" 
d="M569 219h-233q-7 -35 -7 -68q0 -106 81 -106q43 0 85 54l31 -43q-58 -68 -124 -68q-51 0 -81 29t-36 81q-60 -110 -137 -110q-124 0 -124 157q0 79 23 157.5t71.5 135.5t110.5 57q88 0 104 -107q53 107 134 107q120 0 120 -149q0 -65 -18 -127zM347 270h167q9 40 9 75
q0 93 -61 93q-45 0 -74 -51t-41 -117zM282 338q0 96 -58 96q-39 0 -70.5 -54.5t-45.5 -119.5t-14 -116q0 -96 58 -96q30 0 56 33t41.5 80.5t24 94.5t8.5 82z" />
    <glyph glyph-name="Racute" unicode="&#x154;" horiz-adv-x="409" 
d="M311 0h-78l-27 269h-62l-60 -269h-75l147 667h123q59 0 96.5 -42.5t37.5 -107.5q0 -85 -40 -151.5t-97 -83.5zM217 600l-59 -264h53q58 0 90 53.5t32 122.5q0 44 -18 66t-49 22h-49zM437 872l-132 -144h-48l111 144h69z" />
    <glyph glyph-name="racute" unicode="&#x155;" horiz-adv-x="252" 
d="M70 0h-68l107 483h68l-15 -68q48 78 130 78l-16 -70q-9 3 -23 3q-61 0 -107 -82zM341 700l-132 -144h-48l111 144h69z" />
    <glyph glyph-name="Rcommaaccent" unicode="&#x156;" horiz-adv-x="409" 
d="M311 0h-78l-27 269h-62l-60 -269h-75l147 667h123q59 0 96.5 -42.5t37.5 -107.5q0 -85 -40 -151.5t-97 -83.5zM213 336h-2q58 0 90 53.5t32 122.5q0 44 -18 66t-49 22h-49l-59 -264h55zM172 -121q0 -41 -29.5 -81t-70.5 -62l-25 27q26 14 47 35.5t28 43.5q0 -1 -7 -1
q-14 0 -24.5 11t-10.5 26q0 20 15 34.5t34 14.5t31 -12.5t12 -35.5z" />
    <glyph glyph-name="rcommaaccent" unicode="&#x157;" horiz-adv-x="252" 
d="M70 0h-68l107 483h68l-15 -68q48 78 130 78l-16 -70q-9 3 -23 3q-61 0 -107 -82zM95 -121q0 -41 -29.5 -81t-70.5 -62l-25 27q26 14 47 35.5t28 43.5q0 -1 -7 -1q-14 0 -24.5 11t-10.5 26q0 20 15 34.5t34 14.5t31 -12.5t12 -35.5z" />
    <glyph glyph-name="Rcaron" unicode="&#x158;" horiz-adv-x="409" 
d="M311 0h-78l-27 269h-62l-60 -269h-75l147 667h123q59 0 96.5 -42.5t37.5 -107.5q0 -85 -40 -151.5t-97 -83.5zM217 600l-59 -264h53q58 0 90 53.5t32 122.5q0 44 -18 66t-49 22h-49zM344 728h-67l-36 144h39l37 -105l81 105h44z" />
    <glyph glyph-name="rcaron" unicode="&#x159;" horiz-adv-x="252" 
d="M70 0h-68l107 483h68l-15 -68q48 78 130 78l-16 -70q-9 3 -23 3q-61 0 -107 -82zM247 556h-67l-36 144h39l37 -105l81 105h44z" />
    <glyph glyph-name="Sacute" unicode="&#x15a;" horiz-adv-x="354" 
d="M125 -12q-44 0 -82.5 19.5t-59.5 49.5l49 56q14 -26 39.5 -41.5t53.5 -15.5q42 0 73.5 36t31.5 96q0 35 -22 72t-48 65t-48 71t-22 89q0 80 53 136.5t123 56.5q80 0 123 -55l-44 -56q-29 43 -80 43q-42 0 -68.5 -33.5t-26.5 -80.5q0 -26 14 -53.5t34.5 -53t41 -53
t34.5 -63.5t14 -74q0 -89 -52.5 -150t-130.5 -61zM407 872l-132 -144h-48l111 144h69z" />
    <glyph glyph-name="sacute" unicode="&#x15b;" horiz-adv-x="309" 
d="M110 -12q-43 0 -77 18t-50 49l42 44q27 -55 88 -55q33 0 56 25t23 59q0 23 -13.5 44.5t-33 39t-39 36.5t-33 46t-13.5 59q0 58 38.5 100t102.5 42q76 0 116 -59l-41 -44q-10 21 -31.5 34t-45.5 13q-32 0 -52 -21t-20 -53q0 -25 21 -51t46 -46t46 -53.5t21 -72.5
q0 -64 -43 -109t-108 -45zM351 700l-132 -144h-48l111 144h69z" />
    <glyph glyph-name="Scircumflex" unicode="&#x15c;" horiz-adv-x="343" 
d="M399 728h-40l-38 105l-80 -105h-43l97 144h67zM125 -12q-44 0 -82.5 19.5t-59.5 49.5l49 56q14 -26 39.5 -41.5t53.5 -15.5q42 0 73.5 36t31.5 96q0 35 -22 72t-48 65t-48 71t-22 89q0 80 53 136.5t123 56.5q80 0 123 -55l-44 -56q-29 43 -80 43q-42 0 -68.5 -33.5
t-26.5 -80.5q0 -26 14 -53.5t34.5 -53t41 -53t34.5 -63.5t14 -74q0 -89 -52.5 -150t-130.5 -61z" />
    <glyph glyph-name="scircumflex" unicode="&#x15d;" horiz-adv-x="309" 
d="M110 -12q-43 0 -77 18t-50 49l42 44q27 -55 88 -55q33 0 56 25t23 59q0 23 -13.5 44.5t-33 39t-39 36.5t-33 46t-13.5 59q0 58 38.5 100t102.5 42q76 0 116 -59l-41 -44q-10 21 -31.5 34t-45.5 13q-32 0 -52 -21t-20 -53q0 -25 21 -51t46 -46t46 -53.5t21 -72.5
q0 -64 -43 -109t-108 -45zM330 556h-40l-38 105l-80 -105h-43l97 144h67z" />
    <glyph glyph-name="Scedilla" unicode="&#x15e;" horiz-adv-x="354" 
d="M73 -190q-51 0 -81 36l25 33q21 -32 58 -32q22 0 36 15t14 35q0 27 -25 27q-14 0 -28 -14l-27 17l39 66q-69 14 -101 64l49 56q14 -26 39.5 -41.5t53.5 -15.5q42 0 73.5 36t31.5 96q0 35 -22 72t-48 65t-48 71t-22 89q0 80 53 136.5t123 56.5q80 0 123 -55l-44 -56
q-29 43 -80 43q-42 0 -68.5 -33.5t-26.5 -80.5q0 -26 14 -53.5t34.5 -53t41 -53t34.5 -63.5t14 -74q0 -89 -52.5 -150t-130.5 -61h-2l-27 -44q10 10 24 10q21 0 34.5 -15.5t13.5 -39.5q0 -37 -27.5 -63t-67.5 -26z" />
    <glyph glyph-name="scedilla" unicode="&#x15f;" horiz-adv-x="309" 
d="M60 -190q-51 0 -81 36l25 33q21 -32 58 -32q22 0 36 15t14 35q0 27 -25 27q-14 0 -28 -14l-27 17l38 65q-61 14 -87 63l42 44q27 -55 88 -55q33 0 56 25t23 59q0 23 -13.5 44.5t-33 39t-39 36.5t-33 46t-13.5 59q0 58 38.5 100t102.5 42q76 0 116 -59l-41 -44
q-10 21 -31.5 34t-45.5 13q-32 0 -52 -21t-20 -53q0 -25 21 -51t46 -46t46 -53.5t21 -72.5q0 -63 -42.5 -108t-108.5 -46l-27 -44q10 10 24 10q21 0 34.5 -15.5t13.5 -39.5q0 -37 -27.5 -63t-67.5 -26z" />
    <glyph glyph-name="Scaron" unicode="&#x160;" horiz-adv-x="343" 
d="M333 728h-67l-36 144h39l37 -105l81 105h44zM125 -12q-44 0 -82.5 19.5t-59.5 49.5l49 56q14 -26 39.5 -41.5t53.5 -15.5q42 0 73.5 36t31.5 96q0 35 -22 72t-48 65t-48 71t-22 89q0 80 53 136.5t123 56.5q80 0 123 -55l-44 -56q-29 43 -80 43q-42 0 -68.5 -33.5
t-26.5 -80.5q0 -26 14 -53.5t34.5 -53t41 -53t34.5 -63.5t14 -74q0 -89 -52.5 -150t-130.5 -61z" />
    <glyph glyph-name="scaron" unicode="&#x161;" horiz-adv-x="309" 
d="M110 -12q-43 0 -77 18t-50 49l42 44q27 -55 88 -55q33 0 56 25t23 59q0 23 -13.5 44.5t-33 39t-39 36.5t-33 46t-13.5 59q0 58 38.5 100t102.5 42q76 0 116 -59l-41 -44q-10 21 -31.5 34t-45.5 13q-32 0 -52 -21t-20 -53q0 -25 21 -51t46 -46t46 -53.5t21 -72.5
q0 -64 -43 -109t-108 -45zM264 556h-67l-36 144h39l37 -105l81 105h44z" />
    <glyph glyph-name="Tcommaaccent" unicode="&#x162;" horiz-adv-x="323" 
d="M145 0h-76l133 600h-105l14 67h287l-15 -67h-106zM131 -121q0 -41 -29.5 -81t-70.5 -62l-25 27q26 14 47 35.5t28 43.5q0 -1 -7 -1q-14 0 -24.5 11t-10.5 26q0 20 15 34.5t34 14.5t31 -12.5t12 -35.5z" />
    <glyph glyph-name="Tcommaaccent" unicode="&#x21a;" horiz-adv-x="323" 
d="M145 0h-76l133 600h-105l14 67h287l-15 -67h-106zM131 -121q0 -41 -29.5 -81t-70.5 -62l-25 27q26 14 47 35.5t28 43.5q0 -1 -7 -1q-14 0 -24.5 11t-10.5 26q0 20 15 34.5t34 14.5t31 -12.5t12 -35.5z" />
    <glyph glyph-name="tcommaaccent" unicode="&#x163;" horiz-adv-x="233" 
d="M114 -12q-82 0 -82 71q0 16 4 36l74 328h-49l13 60h49l29 132h69l-29 -132h65l-13 -60h-66l-71 -319q-4 -12 -4 -27q0 -28 29 -28q18 0 31 15l10 -54q-24 -22 -59 -22zM86 -121q0 -41 -29.5 -81t-70.5 -62l-25 27q26 14 47 35.5t28 43.5q0 -1 -7 -1q-14 0 -24.5 11
t-10.5 26q0 20 15 34.5t34 14.5t31 -12.5t12 -35.5z" />
    <glyph glyph-name="tcommaaccent" unicode="&#x21b;" horiz-adv-x="233" 
d="M114 -12q-82 0 -82 71q0 16 4 36l74 328h-49l13 60h49l29 132h69l-29 -132h65l-13 -60h-66l-71 -319q-4 -12 -4 -27q0 -28 29 -28q18 0 31 15l10 -54q-24 -22 -59 -22zM86 -121q0 -41 -29.5 -81t-70.5 -62l-25 27q26 14 47 35.5t28 43.5q0 -1 -7 -1q-14 0 -24.5 11
t-10.5 26q0 20 15 34.5t34 14.5t31 -12.5t12 -35.5z" />
    <glyph glyph-name="Tcaron" unicode="&#x164;" horiz-adv-x="323" 
d="M145 0h-76l133 600h-105l14 67h287l-15 -67h-106zM303 728h-67l-36 144h39l37 -105l81 105h44z" />
    <glyph glyph-name="tcaron" unicode="&#x165;" horiz-adv-x="233" 
d="M114 -12q-82 0 -82 71q0 16 4 36l74 328h-49l13 60h49l29 132h69l-29 -132h65l-13 -60h-66l-71 -319q-4 -12 -4 -27q0 -28 29 -28q18 0 31 15l10 -54q-24 -22 -59 -22zM379 693q0 -41 -29.5 -81t-70.5 -62l-25 27q26 14 47 35.5t28 43.5q0 -1 -7 -1q-14 0 -24.5 11
t-10.5 26q0 20 15 34.5t34 14.5t31 -12.5t12 -35.5z" />
    <glyph glyph-name="Tbar" unicode="&#x166;" horiz-adv-x="323" 
d="M145 0h-76l66 298h-75l10 45h75l57 257h-105l14 67h287l-15 -67h-106l-57 -257h75l-10 -45h-75z" />
    <glyph glyph-name="tbar" unicode="&#x167;" horiz-adv-x="233" 
d="M114 -12q-82 0 -82 71q0 16 4 36l30 134h-48l9 45h49l34 149h-49l13 60h49l29 132h69l-29 -132h65l-13 -60h-66l-33 -149h36l-9 -45h-37l-28 -125q-4 -12 -4 -27q0 -28 29 -28q18 0 31 15l10 -54q-24 -22 -59 -22z" />
    <glyph glyph-name="Utilde" unicode="&#x168;" horiz-adv-x="437" 
d="M181 -12q-62 0 -100.5 37.5t-38.5 102.5q0 24 5 46l109 493h75l-110 -498q-4 -28 -4 -36q0 -38 19.5 -58t51.5 -20q36 0 58.5 26.5t35.5 87.5l110 498h75l-109 -495q-41 -184 -177 -184zM371 726q-21 0 -30.5 15t-10.5 32.5t-7 32.5t-19 15q-31 0 -50 -89h-40
q30 134 96 134q21 0 31 -15t11 -32.5t7 -32.5t19 -15q30 0 50 89h41q-31 -134 -98 -134z" />
    <glyph glyph-name="utilde" unicode="&#x169;" 
d="M109 483h68l-82 -371q0 -3 -1 -8t-1.5 -9t-0.5 -7q0 -39 38 -39q25 0 51 22t46 55l80 357h68l-107 -483h-68l14 65q-54 -77 -117 -77q-37 0 -57.5 19.5t-20.5 54.5q0 19 4 31zM302 554q-21 0 -30.5 15t-10.5 32.5t-7 32.5t-19 15q-31 0 -50 -89h-40q30 134 96 134
q21 0 31 -15t11 -32.5t7 -32.5t19 -15q30 0 50 89h41q-31 -134 -98 -134z" />
    <glyph glyph-name="Umacron" unicode="&#x16a;" horiz-adv-x="437" 
d="M181 -12q-62 0 -100.5 37.5t-38.5 102.5q0 24 5 46l109 493h75l-110 -498q-4 -28 -4 -36q0 -38 19.5 -58t51.5 -20q36 0 58.5 26.5t35.5 87.5l110 498h75l-109 -495q-41 -184 -177 -184zM453 749h-247l10 45h247z" />
    <glyph glyph-name="umacron" unicode="&#x16b;" 
d="M109 483h68l-82 -371q0 -3 -1 -8t-1.5 -9t-0.5 -7q0 -39 38 -39q25 0 51 22t46 55l80 357h68l-107 -483h-68l14 65q-54 -77 -117 -77q-37 0 -57.5 19.5t-20.5 54.5q0 19 4 31zM386 578h-247l10 45h247z" />
    <glyph glyph-name="Ubreve" unicode="&#x16c;" horiz-adv-x="437" 
d="M181 -12q-62 0 -100.5 37.5t-38.5 102.5q0 24 5 46l109 493h75l-110 -498q-4 -28 -4 -36q0 -38 19.5 -58t51.5 -20q36 0 58.5 26.5t35.5 87.5l110 498h75l-109 -495q-41 -184 -177 -184zM458 783q-58 -60 -133 -60t-106 60l40 28q9 -20 29.5 -31.5t44.5 -11.5t49.5 11.5
t41.5 31.5z" />
    <glyph glyph-name="ubreve" unicode="&#x16d;" 
d="M109 483h68l-82 -371q0 -3 -1 -8t-1.5 -9t-0.5 -7q0 -39 38 -39q25 0 51 22t46 55l80 357h68l-107 -483h-68l14 65q-54 -77 -117 -77q-37 0 -57.5 19.5t-20.5 54.5q0 19 4 31zM393 624q-58 -60 -133 -60t-106 60l40 28q9 -20 29.5 -31.5t44.5 -11.5t49.5 11.5t41.5 31.5z
" />
    <glyph glyph-name="Uring" unicode="&#x16e;" horiz-adv-x="437" 
d="M181 -12q-62 0 -100.5 37.5t-38.5 102.5q0 24 5 46l109 493h75l-110 -498q-4 -28 -4 -36q0 -38 19.5 -58t51.5 -20q36 0 58.5 26.5t35.5 87.5l110 498h75l-109 -495q-41 -184 -177 -184zM326 691q-32 0 -53 21.5t-21 54.5q0 37 28 64.5t65 27.5q32 0 52.5 -21.5
t20.5 -54.5q0 -37 -27.5 -64.5t-64.5 -27.5zM329 727q22 0 38 15.5t16 37.5q0 18 -11.5 30.5t-29.5 12.5q-22 0 -37.5 -15.5t-15.5 -37.5q0 -18 11 -30.5t29 -12.5z" />
    <glyph glyph-name="uring" unicode="&#x16f;" 
d="M109 483h68l-82 -371q0 -3 -1 -8t-1.5 -9t-0.5 -7q0 -39 38 -39q25 0 51 22t46 55l80 357h68l-107 -483h-68l14 65q-54 -77 -117 -77q-37 0 -57.5 19.5t-20.5 54.5q0 19 4 31zM266 554q-32 0 -53 21.5t-21 54.5q0 37 28 64.5t65 27.5q32 0 52.5 -21.5t20.5 -54.5
q0 -37 -27.5 -64.5t-64.5 -27.5zM269 590q22 0 38 15.5t16 37.5q0 18 -11.5 30.5t-29.5 12.5q-22 0 -37.5 -15.5t-15.5 -37.5q0 -18 11 -30.5t29 -12.5z" />
    <glyph glyph-name="Uhungarumlaut" unicode="&#x170;" horiz-adv-x="437" 
d="M181 -12q-62 0 -100.5 37.5t-38.5 102.5q0 24 5 46l109 493h75l-110 -498q-4 -28 -4 -36q0 -38 19.5 -58t51.5 -20q36 0 58.5 26.5t35.5 87.5l110 498h75l-109 -495q-41 -184 -177 -184zM386 872l-109 -144h-40l88 144h61zM503 872l-110 -144h-40l88 144h62z" />
    <glyph glyph-name="uhungarumlaut" unicode="&#x171;" 
d="M109 483h68l-82 -371q0 -3 -1 -8t-1.5 -9t-0.5 -7q0 -39 38 -39q25 0 51 22t46 55l80 357h68l-107 -483h-68l14 65q-54 -77 -117 -77q-37 0 -57.5 19.5t-20.5 54.5q0 19 4 31zM319 700l-109 -144h-40l88 144h61zM436 700l-110 -144h-40l88 144h62z" />
    <glyph glyph-name="Uogonek" unicode="&#x172;" horiz-adv-x="437" 
d="M216 -116l31 -22q-28 -48 -73 -48q-28 0 -45 15t-17 43q0 62 60 116q-58 3 -94 40t-36 100q0 24 5 46l109 493h75l-110 -498q-4 -28 -4 -36q0 -38 19.5 -58t51.5 -20q36 0 58.5 26.5t35.5 87.5l110 498h75l-109 -495q-32 -139 -113 -172q-91 -56 -91 -123q0 -26 25 -26
t37 33z" />
    <glyph glyph-name="uogonek" unicode="&#x173;" 
d="M239 -116l31 -22q-28 -48 -73 -48q-28 0 -45 15t-17 43q0 69 74 128h-9l14 65q-54 -77 -117 -77q-37 0 -57.5 19.5t-20.5 54.5q0 19 4 31l86 390h68l-82 -371q0 -3 -1 -8t-1.5 -9t-0.5 -7q0 -39 38 -39q25 0 51 22t46 55l80 357h68l-107 -483q-91 -56 -91 -123
q0 -26 25 -26t37 33z" />
    <glyph glyph-name="Wcircumflex" unicode="&#x174;" horiz-adv-x="548" 
d="M370 0h-80l44 515l-184 -515h-79l40 667h77l-47 -531l193 531h64l-42 -531l188 531h79zM482 728h-40l-38 105l-80 -105h-43l97 144h67z" />
    <glyph glyph-name="wcircumflex" unicode="&#x175;" horiz-adv-x="541" 
d="M369 0h-71l4 389l-167 -389h-71l2 483h70l-14 -387l163 387h70l-7 -387l159 387h74zM440 556h-40l-38 105l-80 -105h-43l97 144h67z" />
    <glyph glyph-name="Ycircumflex" unicode="&#x176;" horiz-adv-x="372" 
d="M394 728h-40l-38 105l-80 -105h-43l97 144h67zM170 0h-76l63 283l-65 384h78l38 -307l175 307h83l-234 -384z" />
    <glyph glyph-name="ycircumflex" unicode="&#x177;" horiz-adv-x="326" 
d="M-61 -186l23 57q8 -6 23 -6t25.5 9.5t22.5 34.5l37 78l-8 496h71l-8 -395l169 395h76l-275 -588q-25 -51 -49 -71t-58 -20q-31 0 -49 10zM333 556h-40l-38 105l-80 -105h-43l97 144h67z" />
    <glyph glyph-name="Ydieresis" unicode="&#x178;" horiz-adv-x="372" 
d="M420 777q0 -19 -14.5 -33.5t-33.5 -14.5q-17 0 -28 11t-11 27q0 19 14.5 34t34.5 15q16 0 27 -11t11 -28zM280 777q0 -19 -14.5 -33.5t-34.5 -14.5q-17 0 -28 11t-11 27q0 19 15 34t34 15q17 0 28 -11t11 -28zM170 0h-76l63 283l-65 384h78l38 -307l175 307h83l-234 -384
z" />
    <glyph glyph-name="Zacute" unicode="&#x179;" horiz-adv-x="340" 
d="M253 0h-274l14 66l298 534h-179l14 67h267l-13 -63l-301 -537h188zM404 872l-132 -144h-48l111 144h69z" />
    <glyph glyph-name="zacute" unicode="&#x17a;" horiz-adv-x="303" 
d="M214 0h-234l11 54l232 369h-149l13 60h230l-11 -52l-231 -371h152zM348 700l-132 -144h-48l111 144h69z" />
    <glyph glyph-name="Zdotaccent" unicode="&#x17b;" horiz-adv-x="340" 
d="M253 0h-274l14 66l298 534h-179l14 67h267l-13 -63l-301 -537h188zM331 777q0 -19 -15 -34t-35 -15q-17 0 -28.5 11.5t-11.5 28.5q0 20 15 34.5t35 14.5q17 0 28.5 -11.5t11.5 -28.5z" />
    <glyph glyph-name="zdotaccent" unicode="&#x17c;" horiz-adv-x="303" 
d="M214 0h-234l11 54l232 369h-149l13 60h230l-11 -52l-231 -371h152zM279 624q0 -19 -15 -34t-35 -15q-17 0 -28.5 11.5t-11.5 28.5q0 20 15 34.5t35 14.5q17 0 28.5 -11.5t11.5 -28.5z" />
    <glyph glyph-name="Zcaron" unicode="&#x17d;" horiz-adv-x="340" 
d="M312 728h-67l-36 144h39l37 -105l81 105h44zM253 0h-274l14 66l298 534h-179l14 67h267l-13 -63l-301 -537h188z" />
    <glyph glyph-name="zcaron" unicode="&#x17e;" horiz-adv-x="303" 
d="M214 0h-234l11 54l232 369h-149l13 60h230l-11 -52l-231 -371h152zM253 556h-67l-36 144h39l37 -105l81 105h44z" />
    <glyph glyph-name="longs" unicode="&#x17f;" horiz-adv-x="224" 
d="M85 0h-69l94 423h-47l13 60h47l17 80q24 114 117 114q52 0 73 -29l-34 -52q-12 20 -34 20q-42 0 -53 -53z" />
    <glyph glyph-name="florin" unicode="&#x192;" horiz-adv-x="364" 
d="M45 -161h-77l92 417h-46v62h60l56 252q11 50 40.5 78.5t74.5 28.5q48 0 74 -26l-29 -55q-11 14 -34 14q-40 0 -53 -56l-52 -236h90v-62h-104z" />
    <glyph glyph-name="AEacute" unicode="&#x1fc;" horiz-adv-x="554" 
d="M457 0h-247l33 153h-123l-80 -153h-80l364 667h280l-14 -67h-172l-50 -225h165l-15 -67h-165l-54 -241h173zM258 220l77 348l-181 -348h104zM523 872l-132 -144h-48l111 144h69z" />
    <glyph glyph-name="aeacute" unicode="&#x1fd;" horiz-adv-x="597" 
d="M402 -12q-90 0 -108 103l-20 -91h-68l14 62q-44 -74 -101 -74q-47 0 -71.5 37t-24.5 106q0 48 12 107.5t33.5 118.5t59 98.5t82.5 39.5q66 0 88 -82l15 70h68l-15 -65q50 77 107 77q103 0 103 -145q0 -64 -19 -131h-233q-8 -32 -8 -68q0 -47 21.5 -76t63.5 -29
q43 0 85 54l30 -46q-52 -66 -114 -66zM221 434q-30 0 -55 -34t-40 -83t-23.5 -97.5t-8.5 -83.5q0 -87 55 -87q23 0 46.5 23t39.5 57l50 224q-4 34 -22 57.5t-42 23.5zM502 270q9 39 9 75q0 93 -60 93q-31 0 -57 -29t-39.5 -65t-20.5 -74h168zM489 700l-132 -144h-48l111 144
h69z" />
    <glyph glyph-name="Oslashacute" unicode="&#x1fe;" horiz-adv-x="434" 
d="M452 872l-132 -144h-48l111 144h69zM175 -12q-66 0 -101 49l-23 -37h-52l53 83q-13 40 -13 94q0 46 9 107t29.5 131t49 128t73 96.5t96.5 38.5q65 0 101 -51l26 40h51l-55 -86q14 -39 14 -94q0 -59 -15.5 -139t-44.5 -163t-81.5 -140t-116.5 -57zM290 610
q-38 0 -71.5 -47t-54.5 -116t-33.5 -138.5t-13.5 -122.5l232 365q-14 59 -59 59zM180 56q37 0 71 47t55.5 116t34 138.5t14.5 121.5l-233 -366q13 -57 58 -57z" />
    <glyph glyph-name="oslashacute" unicode="&#x1ff;" horiz-adv-x="382" 
d="M388 700l-132 -144h-48l111 144h69zM38 0h-47l46 63q-13 32 -13 82q0 54 13.5 113t38 113t65.5 89t90 35q59 0 92 -40l20 28h47l-47 -64q13 -36 13 -81q0 -53 -13.5 -112.5t-38 -113.5t-65.5 -89t-89 -35q-60 0 -93 39zM94 144v-3l185 254q-13 39 -52 39t-71.5 -55
t-47 -120t-14.5 -115zM154 49q39 0 71 54.5t46.5 119.5t14.5 115v2l-185 -253q14 -38 53 -38z" />
    <glyph glyph-name="Scommaaccent" unicode="&#x218;" horiz-adv-x="343" 
d="M125 -12q-44 0 -82.5 19.5t-59.5 49.5l49 56q14 -26 39.5 -41.5t53.5 -15.5q42 0 73.5 36t31.5 96q0 35 -22 72t-48 65t-48 71t-22 89q0 80 53 136.5t123 56.5q80 0 123 -55l-44 -56q-29 43 -80 43q-42 0 -68.5 -33.5t-26.5 -80.5q0 -26 14 -53.5t34.5 -53t41 -53
t34.5 -63.5t14 -74q0 -89 -52.5 -150t-130.5 -61zM141 -121q0 -41 -29.5 -81t-70.5 -62l-25 27q26 14 47 35.5t28 43.5q0 -1 -7 -1q-14 0 -24.5 11t-10.5 26q0 20 15 34.5t34 14.5t31 -12.5t12 -35.5z" />
    <glyph glyph-name="scommaaccent" unicode="&#x219;" horiz-adv-x="310" 
d="M110 -12q-43 0 -77 18t-50 49l42 44q27 -55 88 -55q33 0 56 25t23 59q0 23 -13.5 44.5t-33 39t-39 36.5t-33 46t-13.5 59q0 58 38.5 100t102.5 42q76 0 116 -59l-41 -44q-10 21 -31.5 34t-45.5 13q-32 0 -52 -21t-20 -53q0 -25 21 -51t46 -46t46 -53.5t21 -72.5
q0 -64 -43 -109t-108 -45zM124 -121q0 -41 -29.5 -81t-70.5 -62l-25 27q26 14 47 35.5t28 43.5q0 -1 -7 -1q-14 0 -24.5 11t-10.5 26q0 20 15 34.5t34 14.5t31 -12.5t12 -35.5z" />
    <glyph glyph-name="hsuperior" unicode="&#x2b0;" horiz-adv-x="287" 
d="M260 326h-53l51 231q3 12 3 19q0 28 -30 28q-31 0 -65 -54l-50 -224h-53l96 434h53l-36 -163q35 51 82 51q59 0 59 -50q0 -16 -3 -29z" />
    <glyph glyph-name="hsuperior" unicode="&#xf637;" horiz-adv-x="287" 
d="M260 326h-53l51 231q3 12 3 19q0 28 -30 28q-31 0 -65 -54l-50 -224h-53l96 434h53l-36 -163q35 51 82 51q59 0 59 -50q0 -16 -3 -29z" />
    <glyph glyph-name="circumflex" unicode="&#x2c6;" horiz-adv-x="201" 
d="M270 556h-40l-38 105l-80 -105h-43l97 144h67z" />
    <glyph glyph-name="caron" unicode="&#x2c7;" horiz-adv-x="201" 
d="M204 556h-67l-36 144h39l37 -105l81 105h44z" />
    <glyph glyph-name="breve" unicode="&#x2d8;" horiz-adv-x="238" 
d="M323 624q-58 -60 -133 -60t-106 60l40 28q9 -20 29.5 -31.5t44.5 -11.5t49.5 11.5t41.5 31.5z" />
    <glyph glyph-name="dotaccent" unicode="&#x2d9;" horiz-adv-x="104" 
d="M180 624q0 -19 -15 -34t-35 -15q-17 0 -28.5 11.5t-11.5 28.5q0 20 15 34.5t35 14.5q17 0 28.5 -11.5t11.5 -28.5z" />
    <glyph glyph-name="ring" unicode="&#x2da;" horiz-adv-x="165" 
d="M160 554q-32 0 -53 21.5t-21 54.5q0 37 28 64.5t65 27.5q32 0 52.5 -21.5t20.5 -54.5q0 -37 -27.5 -64.5t-64.5 -27.5zM163 590q22 0 38 15.5t16 37.5q0 18 -11.5 30.5t-29.5 12.5q-22 0 -37.5 -15.5t-15.5 -37.5q0 -18 11 -30.5t29 -12.5z" />
    <glyph glyph-name="ogonek" unicode="&#x2db;" horiz-adv-x="139" 
d="M24 -116l31 -22q-28 -48 -73 -48q-28 0 -45 15t-17 43q0 84 105 150l28 -22q-91 -56 -91 -123q0 -26 25 -26t37 33z" />
    <glyph glyph-name="tilde" unicode="&#x2dc;" horiz-adv-x="227" 
d="M227 554q-21 0 -30.5 15t-10.5 32.5t-7 32.5t-19 15q-31 0 -50 -89h-40q30 134 96 134q21 0 31 -15t11 -32.5t7 -32.5t19 -15q30 0 50 89h41q-31 -134 -98 -134z" />
    <glyph glyph-name="hungarumlaut" unicode="&#x2dd;" horiz-adv-x="232" 
d="M216 700l-109 -144h-40l88 144h61zM333 700l-110 -144h-40l88 144h62z" />
    <glyph glyph-name="Delta" unicode="&#x394;" horiz-adv-x="364" 
d="M303 0h-350l278 667h87zM233 67l24 510l-201 -510h177z" />
    <glyph glyph-name="Delta" unicode="&#x2206;" horiz-adv-x="364" 
d="M303 0h-350l278 667h87zM233 67l24 510l-201 -510h177z" />
    <glyph glyph-name="Omega" unicode="&#x3a9;" horiz-adv-x="419" 
d="M-9 0l14 67h82q-45 60 -45 161q0 59 16.5 133.5t45.5 146.5t77 121t104 49q141 0 141 -183q0 -129 -51 -246t-124 -182h83l-14 -67h-132l14 67q58 45 101.5 184t43.5 239q0 63 -14.5 91t-48.5 28q-38 0 -72.5 -48t-55 -117t-32.5 -137.5t-12 -117.5q0 -84 25 -122l-8 -39
l-6 -28h-132z" />
    <glyph glyph-name="Omega" unicode="&#x2126;" horiz-adv-x="419" 
d="M-9 0l14 67h82q-45 60 -45 161q0 59 16.5 133.5t45.5 146.5t77 121t104 49q141 0 141 -183q0 -129 -51 -246t-124 -182h83l-14 -67h-132l14 67q58 45 101.5 184t43.5 239q0 63 -14.5 91t-48.5 28q-38 0 -72.5 -48t-55 -117t-32.5 -137.5t-12 -117.5q0 -84 25 -122l-8 -39
l-6 -28h-132z" />
    <glyph glyph-name="pi" unicode="&#x3c0;" horiz-adv-x="348" 
d="M237 0h-70l97 438h-95l-97 -438h-70l97 438h-38l13 62h312l-13 -62h-40z" />
    <glyph glyph-name="endash" unicode="&#x2013;" horiz-adv-x="460" 
d="M423 212h-400l13 60h400z" />
    <glyph glyph-name="emdash" unicode="&#x2014;" horiz-adv-x="640" 
d="M603 212h-580l13 60h580z" />
    <glyph glyph-name="quoteleft" unicode="&#x2018;" horiz-adv-x="228" 
d="M121 520q0 44 32.5 89t78.5 68l29 -30q-28 -15 -51.5 -38t-30.5 -46h8q16 0 28 -12.5t12 -30.5q0 -22 -17 -38.5t-39 -16.5t-36 14t-14 41z" />
    <glyph glyph-name="quoteright" unicode="&#x2019;" horiz-adv-x="228" 
d="M252 622q0 -44 -33 -89t-79 -69l-28 31q28 15 51 38t31 46h-8q-16 0 -28 12t-12 30q0 23 17 39.5t39 16.5t36 -14.5t14 -40.5z" />
    <glyph glyph-name="quotesinglbase" unicode="&#x201a;" horiz-adv-x="228" 
d="M122 38q0 -44 -32.5 -89t-78.5 -68l-29 30q28 15 51.5 38t30.5 46h-8q-16 0 -28 12t-12 31q0 22 17 38.5t40 16.5q21 0 35 -14.5t14 -40.5z" />
    <glyph glyph-name="quotedblleft" unicode="&#x201c;" horiz-adv-x="382" 
d="M275 520q0 45 33 89.5t79 67.5l28 -30q-28 -15 -51 -38t-31 -46h8q16 0 28 -12.5t12 -30.5q0 -22 -17 -38.5t-39 -16.5t-36 14t-14 41zM122 520q0 44 32.5 89t78.5 68l29 -30q-28 -15 -51.5 -38t-30.5 -46h8q16 0 28 -12.5t12 -30.5q0 -22 -17 -38.5t-39 -16.5t-36 14
t-14 41z" />
    <glyph glyph-name="quotedblright" unicode="&#x201d;" horiz-adv-x="382" 
d="M252 622q0 -44 -33 -89t-79 -69l-28 31q28 15 51 38t31 46h-8q-16 0 -28 12t-12 30q0 23 17 39.5t39 16.5t36 -14.5t14 -40.5zM405 622q0 -44 -33 -89t-79 -69l-28 31q28 15 51 38t31 46h-8q-16 0 -28 12t-12 30q0 23 17 39.5t39 16.5t36 -14.5t14 -40.5z" />
    <glyph glyph-name="quotedblbase" unicode="&#x201e;" horiz-adv-x="382" 
d="M122 38q0 -44 -32.5 -89t-78.5 -68l-29 30q28 15 51.5 38t30.5 46h-8q-16 0 -28 12t-12 31q0 22 17 38.5t40 16.5q21 0 35 -14.5t14 -40.5zM276 38q0 -44 -33 -89t-79 -68l-29 30q29 15 52 38t30 46h-7q-17 0 -28.5 12t-11.5 31q0 22 16.5 38.5t39.5 16.5
q21 0 35.5 -14.5t14.5 -40.5z" />
    <glyph glyph-name="dagger" unicode="&#x2020;" horiz-adv-x="261" 
d="M302 532l-88 4l-43 -209h-45l50 209l-90 -4l9 41l89 -3l20 107h45l-28 -107l90 3z" />
    <glyph glyph-name="daggerdbl" unicode="&#x2021;" horiz-adv-x="261" 
d="M311 573l-9 -41l-88 4l-48 -215l90 4l-9 -41l-88 3l-21 -107h-45l28 107l-90 -3l9 41l88 -4l48 215l-90 -4l9 41l88 -3l21 107h45l-28 -107z" />
    <glyph glyph-name="bullet" unicode="&#x2022;" horiz-adv-x="358" 
d="M286 253q0 -47 -35.5 -81.5t-83.5 -34.5q-41 0 -68 27.5t-27 67.5q0 47 35.5 81.5t83.5 34.5q41 0 68 -27t27 -68z" />
    <glyph glyph-name="ellipsis" unicode="&#x2026;" horiz-adv-x="680" 
d="M63 -10q-19 0 -33 14t-14 33q0 23 17 39.5t40 16.5q19 0 33 -13.5t14 -33.5q0 -23 -17 -39.5t-40 -16.5zM290 -10q-20 0 -33.5 14t-13.5 33q0 23 17 39.5t40 16.5q20 0 33.5 -13.5t13.5 -33.5q0 -23 -17 -39.5t-40 -16.5zM517 -10q-20 0 -33.5 13.5t-13.5 33.5
q0 23 16.5 39.5t39.5 16.5q20 0 33.5 -13.5t13.5 -33.5q0 -23 -16.5 -39.5t-39.5 -16.5z" />
    <glyph glyph-name="perthousand" unicode="&#x2030;" horiz-adv-x="840" 
d="M114 0h-40l420 667h42zM378 -12q-51 0 -77.5 34.5t-26.5 86.5q0 85 45.5 146.5t102.5 61.5q50 0 76.5 -35t26.5 -87q0 -85 -45.5 -146t-101.5 -61zM380 35q34 0 63 46t29 110q0 78 -53 78q-34 0 -63 -46t-29 -110q0 -78 53 -78zM187 348q-50 0 -76.5 35t-26.5 87
q0 85 45 146t102 61q50 0 76.5 -34.5t26.5 -86.5q0 -85 -45 -146.5t-102 -61.5zM189 396q34 0 63.5 46t29.5 110q0 78 -53 78q-34 0 -63.5 -46t-29.5 -110q0 -78 53 -78zM648 -12q-51 0 -77.5 34.5t-26.5 86.5q0 85 45.5 146.5t102.5 61.5q50 0 76.5 -35t26.5 -87
q0 -85 -45 -146t-102 -61zM650 35q34 0 63 46t29 110q0 78 -53 78q-34 0 -63 -46t-29 -110q0 -78 53 -78z" />
    <glyph glyph-name="guilsinglleft" unicode="&#x2039;" horiz-adv-x="208" 
d="M135 63h-56l-50 180l130 177h60l-133 -181z" />
    <glyph glyph-name="guilsinglright" unicode="&#x203a;" horiz-adv-x="208" 
d="M73 420h56l50 -180l-130 -177h-60l133 181z" />
    <glyph glyph-name="fraction" unicode="&#x2044;" horiz-adv-x="115" 
d="M308 667l-421 -667h-41l421 667h41z" />
    <glyph glyph-name="fraction" unicode="&#x2215;" horiz-adv-x="115" 
d="M308 667l-421 -667h-41l421 667h41z" />
    <glyph glyph-name="zerosuperior" unicode="&#x2070;" horiz-adv-x="264" 
d="M333 701q0 -39 -10 -86.5t-28.5 -93t-50.5 -76.5t-71 -31q-93 0 -93 126q0 39 10 86.5t28.5 93t50.5 76.5t71 31q93 0 93 -126zM279 712q0 69 -42 69q-43 0 -73 -93.5t-30 -158.5q0 -69 42 -69q43 0 73 93.5t30 158.5z" />
    <glyph glyph-name="foursuperior" unicode="&#x2074;" horiz-adv-x="264" 
d="M301 523h-35l-23 -102h-55l22 102h-141l10 46l184 252h68l-56 -252h36zM220 569l41 184l-133 -184h92z" />
    <glyph glyph-name="fivesuperior" unicode="&#x2075;" horiz-adv-x="264" 
d="M303 583q0 -66 -37 -117.5t-95 -51.5q-79 0 -105 70l43 27q14 -51 63 -51q32 0 53 37t21 80q0 54 -44 54q-34 0 -62 -38l-38 15l47 213h192l-10 -46h-137l-28 -131q26 29 60 29q33 0 55 -22.5t22 -67.5z" />
    <glyph glyph-name="sixsuperior" unicode="&#x2076;" horiz-adv-x="264" 
d="M305 583q0 -59 -34.5 -114t-94.5 -55q-94 0 -94 118q0 38 10.5 86.5t30 96t53.5 80t75 32.5q65 0 88 -54l-38 -33q-13 41 -51 41q-26 0 -46.5 -25.5t-30.5 -53.5t-21 -69q-3 -12 -3 -13q32 55 80 55q34 0 55 -23t21 -69zM247 577q0 53 -42 53q-36 0 -65 -58
q-6 -26 -6 -45q0 -28 11 -47.5t33 -19.5q30 0 49.5 39.5t19.5 77.5z" />
    <glyph glyph-name="sevensuperior" unicode="&#x2077;" horiz-adv-x="239" 
d="M331 783l-187 -362h-56l187 354h-150l10 46h205z" />
    <glyph glyph-name="eightsuperior" unicode="&#x2078;" horiz-adv-x="264" 
d="M295 536q0 -53 -32.5 -87.5t-83.5 -34.5q-49 0 -79 23t-30 66q0 47 29.5 82t68.5 46q-46 27 -46 79q0 51 33.5 84t79.5 33q42 0 71.5 -22t29.5 -66q0 -39 -25 -71.5t-66 -45.5q20 -11 35 -35t15 -51zM279 736q0 46 -44 46q-26 0 -43 -23.5t-17 -53.5q0 -22 12.5 -38.5
t24.5 -21.5q29 10 48 33t19 58zM240 539q0 25 -12.5 43.5t-24.5 23.5q-27 -3 -51 -32t-24 -67q0 -22 13 -35.5t35 -13.5q25 0 44.5 23.5t19.5 57.5z" />
    <glyph glyph-name="ninesuperior" unicode="&#x2079;" horiz-adv-x="264" 
d="M109 659q0 59 34.5 114t94.5 55q94 0 94 -118q0 -38 -10.5 -86.5t-30 -96t-53.5 -80t-75 -32.5q-65 0 -88 54l38 33q11 -41 51 -41q26 0 46.5 25.5t30.5 53.5t21 69q3 12 3 13q-32 -55 -80 -55q-34 0 -55 23t-21 69zM167 665q0 -53 42 -53q36 0 65 58q6 26 6 45
q0 28 -11 47.5t-33 19.5q-30 0 -49.5 -39.5t-19.5 -77.5z" />
    <glyph glyph-name="parenleftsuperior" unicode="&#x207d;" horiz-adv-x="133" 
d="M147 368l-31 -12q-21 64 -21 147q0 196 138 383l26 -12q-122 -200 -122 -391q0 -74 10 -115z" />
    <glyph glyph-name="parenrightsuperior" unicode="&#x207e;" horiz-adv-x="133" 
d="M150 874l31 12q21 -59 21 -147q0 -196 -138 -383l-26 12q122 200 122 391q0 74 -10 115z" />
    <glyph glyph-name="nsuperior" unicode="&#x207f;" horiz-adv-x="287" 
d="M260 326h-53l51 231q3 12 3 19q0 28 -30 28q-31 0 -65 -54l-50 -224h-53l69 314h53l-9 -43q35 51 82 51q59 0 59 -50q0 -16 -3 -29z" />
    <glyph glyph-name="zeroinferior" unicode="&#x2080;" horiz-adv-x="264" 
d="M217 134q0 -39 -10 -86.5t-28.5 -93t-50.5 -76.5t-71 -31q-93 0 -93 126q0 39 10 86.5t28.5 93t50.5 76.5t71 31q93 0 93 -126zM163 145q0 69 -42 69q-43 0 -73 -93.5t-30 -158.5q0 -69 42 -69q43 0 73 93.5t30 158.5z" />
    <glyph glyph-name="oneinferior" unicode="&#x2081;" horiz-adv-x="215" 
d="M77 -146h-56l70 324l-68 -60l-28 34l121 102h49z" />
    <glyph glyph-name="twoinferior" unicode="&#x2082;" horiz-adv-x="264" 
d="M155 -146h-210l10 44q130 130 170 179.5t40 87.5q0 24 -13.5 36.5t-34.5 12.5q-41 0 -77 -49l-30 36q49 59 110 59q44 0 73 -24t29 -67q0 -47 -38 -95.5t-148 -159.5l-14 -14h143z" />
    <glyph glyph-name="threeinferior" unicode="&#x2083;" horiz-adv-x="264" 
d="M182 -24q0 -47 -33 -88t-88 -41q-40 0 -69.5 19t-40.5 51l44 30q15 -54 64 -54q32 0 50 29.5t18 64.5q0 25 -13.5 37.5t-33.5 12.5q-21 0 -27 -1l10 46q5 -1 30 -1q30 0 50.5 23.5t20.5 60.5q0 22 -13 35.5t-36 13.5q-39 0 -74 -46l-30 32q45 60 109 60q46 0 73 -23.5
t27 -66.5q0 -37 -24 -72t-64 -42q50 -15 50 -80z" />
    <glyph glyph-name="fourinferior" unicode="&#x2084;" horiz-adv-x="264" 
d="M185 -44h-35l-23 -102h-55l22 102h-141l10 46l184 252h68l-56 -252h36zM104 2l41 184l-133 -184h92z" />
    <glyph glyph-name="fiveinferior" unicode="&#x2085;" horiz-adv-x="264" 
d="M187 16q0 -66 -37 -117.5t-95 -51.5q-79 0 -105 70l43 27q14 -51 63 -51q32 0 53 37t21 80q0 54 -44 54q-34 0 -62 -38l-38 15l47 213h192l-10 -46h-137l-28 -131q26 29 60 29q33 0 55 -22.5t22 -67.5z" />
    <glyph glyph-name="sixinferior" unicode="&#x2086;" horiz-adv-x="264" 
d="M189 16q0 -59 -34.5 -114t-94.5 -55q-94 0 -94 118q0 38 10.5 86.5t30 96t53.5 80t75 32.5q65 0 88 -54l-38 -33q-13 41 -51 41q-26 0 -46.5 -25.5t-30.5 -53.5t-21 -69q-3 -12 -3 -13q32 55 80 55q34 0 55 -23t21 -69zM131 10q0 53 -42 53q-36 0 -65 -58q-6 -26 -6 -45
q0 -28 11 -47.5t33 -19.5q30 0 49.5 39.5t19.5 77.5z" />
    <glyph glyph-name="seveninferior" unicode="&#x2087;" horiz-adv-x="239" 
d="M215 216l-187 -362h-56l187 354h-150l10 46h205z" />
    <glyph glyph-name="eightinferior" unicode="&#x2088;" horiz-adv-x="264" 
d="M179 -31q0 -53 -32.5 -87.5t-83.5 -34.5q-49 0 -79 23t-30 66q0 47 29.5 82t68.5 46q-46 27 -46 79q0 51 33.5 84t79.5 33q42 0 71.5 -22t29.5 -66q0 -39 -25 -71.5t-66 -45.5q20 -11 35 -35t15 -51zM163 169q0 46 -44 46q-26 0 -43 -23.5t-17 -53.5q0 -22 12.5 -38.5
t24.5 -21.5q29 10 48 33t19 58zM124 -28q0 25 -12.5 43.5t-24.5 23.5q-27 -3 -51 -32t-24 -67q0 -22 13 -35.5t35 -13.5q25 0 44.5 23.5t19.5 57.5z" />
    <glyph glyph-name="nineinferior" unicode="&#x2089;" horiz-adv-x="264" 
d="M-7 92q0 59 34.5 114t94.5 55q94 0 94 -118q0 -38 -10.5 -86.5t-30 -96t-53.5 -80t-75 -32.5q-65 0 -88 54l38 33q11 -41 51 -41q26 0 46.5 25.5t30.5 53.5t21 69q3 12 3 13q-32 -55 -80 -55q-34 0 -55 23t-21 69zM51 98q0 -53 42 -53q36 0 65 58q6 26 6 45
q0 28 -11 47.5t-33 19.5q-30 0 -49.5 -39.5t-19.5 -77.5z" />
    <glyph glyph-name="parenleftinferior" unicode="&#x208d;" horiz-adv-x="133" 
d="M22 -199l-31 -12q-21 64 -21 147q0 196 138 383l26 -12q-122 -200 -122 -391q0 -74 10 -115z" />
    <glyph glyph-name="parenrightinferior" unicode="&#x208e;" horiz-adv-x="133" 
d="M25 307l31 12q21 -59 21 -147q0 -196 -138 -383l-26 12q122 200 122 391q0 74 -10 115z" />
    <glyph glyph-name="colonmonetary" unicode="&#x20a1;" horiz-adv-x="364" 
d="M168 -12q-22 0 -40 6l-40 -94h-47l47 113q-15 12 -26 31l-62 -144h-47l86 201q-7 31 -7 76q0 47 8.5 108t28.5 130.5t48.5 127t72.5 96t96 39.5l39 90h48l-42 -97q20 -7 33 -18l49 115h48l-66 -154q19 -37 24 -90l-70 -14q-9 100 -66 100q-40 0 -74.5 -51.5t-55 -124.5
t-32 -143.5t-11.5 -116.5q0 -118 63 -118q47 0 94 85l60 -28q-66 -125 -159 -125z" />
    <glyph glyph-name="frenchfranc" unicode="&#x20a3;" horiz-adv-x="368" 
d="M101 0h-75l31 141h-59l10 44h58l107 482h248l-15 -67h-172l-50 -225h165l-15 -67h-165l-28 -123h103l-10 -44h-102z" />
    <glyph glyph-name="lira" unicode="&#x20a4;" horiz-adv-x="380" 
d="M48 327l10 44h45q-8 30 -8 65q0 98 57 169.5t131 71.5q55 0 91.5 -32t39.5 -88l-66 -22q-7 78 -65 78q-41 0 -74.5 -54t-33.5 -130q0 -29 8 -58h100l-10 -44h-78q7 -26 7 -47q0 -9 -2 -25h57l-9 -44h-57q-13 -43 -38.5 -78.5t-53.5 -55.5q23 10 35 10q23 0 55 -15.5
t48 -15.5q39 0 69 34l12 -60q-37 -42 -95 -42q-36 0 -72 20.5t-57 20.5q-32 0 -79 -36l-15 55q42 25 76 69.5t46 93.5h-99l9 44h96q-1 34 -13 72h-67z" />
    <glyph glyph-name="uni20A6" unicode="&#x20a6;" horiz-adv-x="470" 
d="M336 0h-72l-28 243h-82l-53 -243h-75l53 243h-58l10 45h58l22 98h-58l9 45h59l52 236h75l26 -236h82l52 236h75l-52 -236h56l-9 -45h-57l-22 -98h57l-10 -45h-57zM209 489l-45 -201h67zM279 386l23 -198l44 198h-67z" />
    <glyph glyph-name="peseta" unicode="&#x20a7;" horiz-adv-x="441" 
d="M101 0h-75l98 444h-59l11 47h58l39 176h125q58 0 94.5 -42t36.5 -109q0 -5 -0.5 -13t-0.5 -12h57l-11 -47h-54q-18 -76 -69.5 -125.5t-130.5 -49.5h-59zM230 336q41 1 69.5 31t40.5 77h-141l-24 -108h55zM234 600l-25 -109h139q1 6 1 19q0 44 -18.5 67t-49.5 23h-47z" />
    <glyph glyph-name="rupee" unicode="&#x20a8;" horiz-adv-x="681" 
d="M311 0h-78l-27 269h-62l-60 -269h-75l147 667h123q59 0 96.5 -42.5t37.5 -107.5q0 -85 -40 -151.5t-97 -83.5zM482 -12q-43 0 -77 18t-50 49l42 44q27 -55 88 -55q33 0 56 25t23 59q0 23 -13.5 44.5t-33 39t-39 36.5t-33 46t-13.5 59q0 58 38.5 100t102.5 42
q76 0 116 -59l-41 -44q-10 21 -31.5 34t-45.5 13q-32 0 -52 -21t-20 -53q0 -25 21 -51t46 -46t46 -53.5t21 -72.5q0 -64 -43 -109t-108 -45zM217 600l-59 -264h53q58 0 90 53.5t32 122.5q0 44 -18 66t-49 22h-49z" />
    <glyph glyph-name="uni20A9" unicode="&#x20a9;" horiz-adv-x="578" 
d="M385 0h-80l21 243h-74l-87 -243h-79l14 243h-72l10 45h65l6 98h-49l9 45h42l15 236h77l-21 -236h81l86 236h64l-19 -236h81l84 236h79l-90 -236h40l-10 -45h-47l-37 -98h62l-10 -45h-69zM178 386l-22 -250l90 250h-68zM459 386h-68l-20 -250zM349 515l-81 -227h62z" />
    <glyph glyph-name="afii57636" unicode="&#x20aa;" horiz-adv-x="498" 
d="M277 0h-166l87 396h56l-76 -343h96q37 0 57.5 23t33.5 79l87 395h56l-87 -390q-36 -160 -144 -160zM123 550h125q56 0 89 -26t33 -79q0 -24 -9 -67l-49 -225h-56l54 241q5 25 5 40q0 63 -70 63h-77l-110 -497h-56z" />
    <glyph glyph-name="Euro" unicode="&#x20ac;" horiz-adv-x="403" 
d="M188 -12q-65 0 -100.5 48t-35.5 141q0 27 3 61h-40l11 49h35q5 39 19 94h-34l12 49h35q34 109 88 178.5t128 69.5q62 0 93 -42.5t37 -111.5l-70 -14q-9 100 -66 100q-76 0 -130 -180h125l-11 -49h-128q-10 -40 -19 -94h126l-11 -49h-121q-4 -33 -4 -64q0 -118 63 -118
q47 0 94 85l60 -28q-66 -125 -159 -125z" />
    <glyph glyph-name="afii61289" unicode="&#x2113;" horiz-adv-x="375" 
d="M127 523l-95 -428q-5 -19 -5 -38q0 -69 83 -69q36 0 59 22l-11 52q-13 -15 -31 -15q-29 0 -29 30q0 7 4 25l37 169l172 136q65 51 91.5 86t26.5 72q0 53 -41 82.5t-94 29.5q-133 0 -167 -154zM270 441l-113 -89l38 171q12 51 36 75.5t63 24.5q30 0 49.5 -18t19.5 -45
q0 -28 -22 -53.5t-71 -65.5z" />
    <glyph glyph-name="afii61352" unicode="&#x2116;" horiz-adv-x="725" 
d="M319 0h-72l-55 489l-108 -489h-75l147 667h75l54 -479l106 479h75zM610 350q-48 0 -72 29.5t-24 82.5q0 43 14.5 91.5t49 87.5t79.5 39q96 0 96 -112q0 -44 -14.5 -92t-48.5 -87t-80 -39zM612 395q40 0 63.5 62.5t23.5 112.5q0 64 -44 64q-40 0 -63.5 -62t-23.5 -112
q0 -65 44 -65z" />
    <glyph glyph-name="published" unicode="&#x2117;" horiz-adv-x="778" 
d="M754 334q0 -142 -101.5 -243.5t-244.5 -101.5q-142 0 -243 101t-101 244t101 244t243 101q143 0 244.5 -101.5t101.5 -243.5zM724 334q0 129 -93.5 222t-222.5 93q-130 0 -221.5 -92.5t-91.5 -222.5t91.5 -222.5t221.5 -92.5t223 92.5t93 222.5zM590 433q0 -56 -41 -92
t-102 -36h-123l-38 -174h-35l89 405h129q52 0 86.5 -28t34.5 -75zM554 430q0 33 -24.5 52.5t-64.5 19.5h-97l-36 -163h121q45 0 73 25.5t28 65.5z" />
    <glyph glyph-name="servicemark" unicode="&#x2120;" horiz-adv-x="374" 
d="M382 447h-28l40 182l-95 -182h-8l-15 182l-40 -182h-28l48 220h42l10 -157l78 157h44zM181 513q0 -29 -19.5 -50.5t-47.5 -21.5q-33 0 -50 24l18 22q12 -19 33 -19q12 0 24 13t12 28q0 18 -25 44.5t-25 48.5q0 29 17.5 50t44.5 21q29 0 45 -18l-18 -24q-10 15 -29 15
q-11 0 -20.5 -10.5t-9.5 -26.5q0 -13 25 -42.5t25 -53.5z" />
    <glyph glyph-name="trademark" unicode="&#x2122;" horiz-adv-x="374" 
d="M384 447h-28l40 182l-95 -182h-8l-15 182l-40 -182h-28l48 220h43l10 -157l78 157h43zM217 641h-42l-43 -194h-28l43 194h-42l5 26h112z" />
    <glyph glyph-name="estimated" unicode="&#x212e;" horiz-adv-x="842" 
d="M829 324h-632q-4 0 -4 -5v-190q0 -15 9 -23q98 -103 240 -103q151 0 250 115h57q-54 -63 -135 -99.5t-174 -36.5q-161 0 -275.5 103t-114.5 248t114.5 248t275.5 103t275.5 -103t114.5 -248zM687 349v191q0 14 -10 24q-97 99 -236 99t-238 -102q-10 -10 -10 -24v-188
q0 -6 5 -6h485q4 0 4 6z" />
    <glyph glyph-name="onethird" unicode="&#x2153;" horiz-adv-x="608" 
d="M536 667l-421 -667h-41l421 667h41zM558 122q0 -47 -33 -88t-88 -41q-40 0 -69.5 19t-40.5 51l44 30q15 -54 64 -54q32 0 50 29.5t18 64.5q0 25 -13.5 37.5t-33.5 12.5q-21 0 -27 -1l10 46q5 -1 30 -1q30 0 50.5 23.5t20.5 60.5q0 22 -13 35.5t-36 13.5q-39 0 -74 -46
l-30 32q45 60 109 60q46 0 73 -23.5t27 -66.5q0 -37 -24 -72t-64 -42q50 -15 50 -80zM168 267h-56l70 324l-68 -60l-28 34l121 102h49z" />
    <glyph glyph-name="twothirds" unicode="&#x2154;" horiz-adv-x="644" 
d="M572 667l-421 -667h-41l421 667h41zM594 122q0 -47 -33 -88t-88 -41q-40 0 -69.5 19t-40.5 51l44 30q15 -54 64 -54q32 0 50 29.5t18 64.5q0 25 -13.5 37.5t-33.5 12.5q-21 0 -27 -1l10 46q5 -1 30 -1q30 0 50.5 23.5t20.5 60.5q0 22 -13 35.5t-36 13.5q-39 0 -74 -46
l-30 32q45 60 109 60q46 0 73 -23.5t27 -66.5q0 -37 -24 -72t-64 -42q50 -15 50 -80zM246 267h-210l10 44q130 130 170 179.5t40 87.5q0 24 -13.5 36.5t-34.5 12.5q-41 0 -77 -49l-30 36q49 59 110 59q44 0 73 -24t29 -67q0 -47 -38 -95.5t-148 -159.5l-14 -14h143z" />
    <glyph glyph-name="oneeighth" unicode="&#x215b;" horiz-adv-x="608" 
d="M536 667l-421 -667h-41l421 667h41zM555 115q0 -53 -32.5 -87.5t-83.5 -34.5q-49 0 -79 23t-30 66q0 47 29.5 82t68.5 46q-46 27 -46 79q0 51 33.5 84t79.5 33q42 0 71.5 -22t29.5 -66q0 -39 -25 -71.5t-66 -45.5q20 -11 35 -35t15 -51zM539 315q0 46 -44 46
q-26 0 -43 -23.5t-17 -53.5q0 -22 12.5 -38.5t24.5 -21.5q29 10 48 33t19 58zM500 118q0 25 -12.5 43.5t-24.5 23.5q-27 -3 -51 -32t-24 -67q0 -22 13 -35.5t35 -13.5q25 0 44.5 23.5t19.5 57.5zM168 267h-56l70 324l-68 -60l-28 34l121 102h49z" />
    <glyph glyph-name="threeeighths" unicode="&#x215c;" horiz-adv-x="644" 
d="M572 667l-421 -667h-41l421 667h41zM591 115q0 -53 -32.5 -87.5t-83.5 -34.5q-49 0 -79 23t-30 66q0 47 29.5 82t68.5 46q-46 27 -46 79q0 51 33.5 84t79.5 33q42 0 71.5 -22t29.5 -66q0 -39 -25 -71.5t-66 -45.5q20 -11 35 -35t15 -51zM575 315q0 46 -44 46
q-26 0 -43 -23.5t-17 -53.5q0 -22 12.5 -38.5t24.5 -21.5q29 10 48 33t19 58zM536 118q0 25 -12.5 43.5t-24.5 23.5q-27 -3 -51 -32t-24 -67q0 -22 13 -35.5t35 -13.5q25 0 44.5 23.5t19.5 57.5zM273 389q0 -47 -33 -88t-88 -41q-40 0 -69.5 19t-40.5 51l44 30
q15 -54 64 -54q32 0 50 29.5t18 64.5q0 25 -13.5 37.5t-33.5 12.5q-21 0 -27 -1l10 46q5 -1 30 -1q30 0 50.5 23.5t20.5 60.5q0 22 -13 35.5t-36 13.5q-40 0 -74 -46l-30 32q45 60 109 60q46 0 73 -23.5t27 -66.5q0 -37 -24 -72t-64 -42q50 -15 50 -80z" />
    <glyph glyph-name="fiveeighths" unicode="&#x215d;" horiz-adv-x="642" 
d="M570 667l-421 -667h-41l421 667h41zM588 115q0 -53 -32.5 -87.5t-83.5 -34.5q-49 0 -79 23t-30 66q0 47 29.5 82t68.5 46q-46 27 -46 79q0 51 33.5 84t79.5 33q42 0 71.5 -22t29.5 -66q0 -39 -25 -71.5t-66 -45.5q20 -11 35 -35t15 -51zM572 315q0 46 -44 46
q-26 0 -43 -23.5t-17 -53.5q0 -22 12.5 -38.5t24.5 -21.5q29 10 48 33t19 58zM533 118q0 25 -12.5 43.5t-24.5 23.5q-27 -3 -51 -32t-24 -67q0 -22 13 -35.5t35 -13.5q25 0 44.5 23.5t19.5 57.5zM278 429q0 -66 -37 -117.5t-95 -51.5q-79 0 -105 70l43 27q14 -51 63 -51
q32 0 53 37t21 80q0 54 -44 54q-33 0 -62 -38l-38 15l47 213h192l-10 -46h-137l-28 -131q26 29 60 29q33 0 55 -22.5t22 -67.5z" />
    <glyph glyph-name="seveneighths" unicode="&#x215e;" horiz-adv-x="589" 
d="M517 667l-421 -667h-41l421 667h41zM535 115q0 -53 -32.5 -87.5t-83.5 -34.5q-49 0 -79 23t-30 66q0 47 29.5 82t68.5 46q-46 27 -46 79q0 51 33.5 84t79.5 33q42 0 71.5 -22t29.5 -66q0 -39 -25 -71.5t-66 -45.5q20 -11 35 -35t15 -51zM519 315q0 46 -44 46
q-26 0 -43 -23.5t-17 -53.5q0 -22 12.5 -38.5t24.5 -21.5q29 10 48 33t19 58zM480 118q0 25 -12.5 43.5t-24.5 23.5q-27 -3 -51 -32t-24 -67q0 -22 13 -35.5t35 -13.5q25 0 44.5 23.5t19.5 57.5zM306 629l-187 -362h-56l187 354h-150l10 46h205z" />
    <glyph glyph-name="arrowleft" unicode="&#x2190;" horiz-adv-x="582" 
d="M558 211h-269l12 -130l-281 205l281 204l-12 -129h269v-150z" />
    <glyph glyph-name="arrowup" unicode="&#x2191;" horiz-adv-x="582" 
d="M236 17v269l-130 -12l205 281l204 -281l-129 12v-269h-150z" />
    <glyph glyph-name="arrowright" unicode="&#x2192;" horiz-adv-x="582" 
d="M604 286l-281 -205l12 130h-268v150h268l-12 129z" />
    <glyph glyph-name="arrowdown" unicode="&#x2193;" horiz-adv-x="582" 
d="M386 555v-269l130 12l-205 -281l-204 281l129 -12v269h150z" />
    <glyph glyph-name="partialdiff" unicode="&#x2202;" horiz-adv-x="382" 
d="M154 -12q-130 0 -130 160q0 68 21.5 143t67 132.5t102.5 57.5q32 0 54 -19t29 -53q-1 59 -13.5 136t-30.5 122l69 22q43 -131 43 -273q0 -65 -12 -135.5t-35.5 -138t-66.5 -111t-98 -43.5zM155 49q39 0 70 54t45 116.5t14 109.5q0 36 -15 64t-46 28q-30 0 -55.5 -32
t-40.5 -77.5t-23.5 -90.5t-8.5 -76q0 -96 60 -96z" />
    <glyph glyph-name="product" unicode="&#x220f;" horiz-adv-x="426" 
d="M280 -90h-76l153 690h-132l-153 -690h-75l153 690h-53l14 67h390l-15 -67h-54z" />
    <glyph glyph-name="summation" unicode="&#x2211;" horiz-adv-x="326" 
d="M246 293l-49 307h174l15 67h-251l-14 -67l48 -301l-186 -319l-15 -70h251l14 67h-173z" />
    <glyph glyph-name="minus" unicode="&#x2212;" 
d="M363 310h-320l11 49h320z" />
    <glyph glyph-name="radical" unicode="&#x221a;" horiz-adv-x="465" 
d="M235 0h-55l-1 318l-117 -24l1 48l163 33l-3 -304l267 596h50z" />
    <glyph glyph-name="infinity" unicode="&#x221e;" horiz-adv-x="479" 
d="M129 172q-41 0 -63.5 31t-22.5 81q0 81 40 148t100 67q36 0 59 -31t29 -78q51 109 119 109q41 0 63.5 -31t22.5 -82q0 -81 -40 -147.5t-100 -66.5q-37 0 -60 31t-29 78q-50 -109 -118 -109zM335 221q41 0 66 51.5t25 105.5q0 34 -13 53t-33 19q-43 0 -98 -118
q7 -111 53 -111zM140 221q19 0 38.5 20t31 40.5t28.5 56.5q-7 112 -53 112q-41 0 -66.5 -51.5t-25.5 -105.5q0 -34 13 -53t34 -19z" />
    <glyph glyph-name="integral" unicode="&#x222b;" horiz-adv-x="234" 
d="M-30 -100h-29l11 51h30q43 0 55 53l146 659q23 105 120 105h30l-11 -51h-31q-43 0 -54 -54l-146 -659q-23 -104 -121 -104z" />
    <glyph glyph-name="approxequal" unicode="&#x2248;" 
d="M21 212l13 53q29 -19 75 -19q34 0 80.5 16.5t86.5 16.5q42 0 77 -15l-11 -52q-31 18 -77 18q-33 0 -80 -16.5t-87 -16.5q-42 0 -77 15zM64 404l12 52q30 -18 76 -18q33 0 79.5 16.5t86.5 16.5q43 0 78 -15l-12 -53q-31 19 -77 19q-33 0 -80 -16.5t-87 -16.5q-41 0 -76 15
z" />
    <glyph glyph-name="notequal" unicode="&#x2260;" 
d="M77 93h-43l75 119h-88l12 49h107l93 146h-169l12 49h188l75 118h44l-75 -118h88l-11 -49h-108l-93 -146h169l-11 -49h-189z" />
    <glyph glyph-name="lessequal" unicode="&#x2264;" 
d="M330 161l-287 149l11 49l353 149l-14 -61l-284 -116l233 -114zM305 45h-320l10 49h320z" />
    <glyph glyph-name="greaterequal" unicode="&#x2265;" 
d="M363 310l-353 -149l14 62l285 114l-234 115l12 56l287 -149zM305 45h-320l10 49h320z" />
    <glyph glyph-name="triangleright" unicode="&#x22b2;" horiz-adv-x="587" 
d="M609 286l-535 -309v618z" />
    <glyph glyph-name="triangleleft" unicode="&#x22b3;" horiz-adv-x="587" 
d="M555 595v-618l-535 309z" />
    <glyph glyph-name="uni2318" unicode="&#x2318;" horiz-adv-x="667" 
d="M207 153l17 76h-84q-34 0 -59 -25.5t-25 -59.5q0 -29 18.5 -47.5t46.5 -18.5q34 0 56 20t30 55zM270 438l14 66q2 7 2 20q0 30 -18 47.5t-48 17.5q-35 0 -59.5 -24t-24.5 -58q0 -31 19 -50t51 -19h64zM269 265h137l31 137h-137zM570 160q0 31 -19.5 50t-51.5 19h-63
l-15 -66q-2 -12 -2 -20q0 -30 18.5 -47.5t48.5 -17.5q35 0 59.5 24t24.5 58zM649 523q0 29 -18 47.5t-46 18.5q-34 0 -56 -20t-30 -55l-17 -76h83q34 0 59 25.5t25 59.5zM607 160q0 -48 -39 -83t-89 -35q-42 0 -70 28t-28 70q0 14 3 29l14 60h-137l-19 -84
q-11 -46 -45 -74.5t-80 -28.5q-41 0 -70 28t-29 69q0 49 38 87.5t87 38.5h88l31 137h-63q-45 0 -72.5 29.5t-27.5 75.5q0 48 38.5 83t88.5 35q42 0 70 -28t28 -70q0 -14 -3 -29l-14 -60h137l19 84q11 46 45 74.5t80 28.5q42 0 71 -28t29 -69q0 -50 -38 -88t-87 -38h-88
l-31 -137h60q46 0 74.5 -29.5t28.5 -75.5z" />
    <glyph glyph-name="uni2318" unicode="&#xf8ff;" horiz-adv-x="667" 
d="M207 153l17 76h-84q-34 0 -59 -25.5t-25 -59.5q0 -29 18.5 -47.5t46.5 -18.5q34 0 56 20t30 55zM270 438l14 66q2 7 2 20q0 30 -18 47.5t-48 17.5q-35 0 -59.5 -24t-24.5 -58q0 -31 19 -50t51 -19h64zM269 265h137l31 137h-137zM570 160q0 31 -19.5 50t-51.5 19h-63
l-15 -66q-2 -12 -2 -20q0 -30 18.5 -47.5t48.5 -17.5q35 0 59.5 24t24.5 58zM649 523q0 29 -18 47.5t-46 18.5q-34 0 -56 -20t-30 -55l-17 -76h83q34 0 59 25.5t25 59.5zM607 160q0 -48 -39 -83t-89 -35q-42 0 -70 28t-28 70q0 14 3 29l14 60h-137l-19 -84
q-11 -46 -45 -74.5t-80 -28.5q-41 0 -70 28t-29 69q0 49 38 87.5t87 38.5h88l31 137h-63q-45 0 -72.5 29.5t-27.5 75.5q0 48 38.5 83t88.5 35q42 0 70 -28t28 -70q0 -14 -3 -29l-14 -60h137l19 84q11 46 45 74.5t80 28.5q42 0 71 -28t29 -69q0 -50 -38 -88t-87 -38h-88
l-31 -137h60q46 0 74.5 -29.5t28.5 -75.5z" />
    <glyph glyph-name="blacksquare" unicode="&#x25a0;" horiz-adv-x="661" 
d="M638 0h-571v572h571v-572z" />
    <glyph glyph-name="triagup" unicode="&#x25b2;" horiz-adv-x="616" 
d="M637 29l-619 1l309 535z" />
    <glyph glyph-name="triagdn" unicode="&#x25bc;" horiz-adv-x="616" 
d="M637 510l-310 -535l-309 535h619z" />
    <glyph glyph-name="lozenge" unicode="&#x25ca;" horiz-adv-x="375" 
d="M144 0h-21l-84 334l231 333h21l85 -333zM142 45l197 293l-67 284l-196 -292z" />
    <glyph glyph-name="circlesolid" unicode="&#x25cf;" horiz-adv-x="695" 
d="M664 285q0 -123 -87 -210t-210 -87t-210 87t-87 210t87 210t210 87t210 -87t87 -210z" />
    <glyph glyph-name="blackstar" unicode="&#x2605;" horiz-adv-x="759" 
d="M779 421l-235 -171l90 -275l-235 170l-234 -170l89 275l-234 171h290l89 276l90 -276h290z" />
    <glyph glyph-name="ballotbox" unicode="&#x2610;" horiz-adv-x="661" 
d="M636 0h-571v572h571v-572zM583 49v474h-465v-474h465z" />
    <glyph glyph-name="boxchecked" unicode="&#x2611;" horiz-adv-x="661" 
d="M715 698l-69 -126h10v-572h-571v572h504l83 154zM603 49v442l-217 -400l-202 246l39 37l156 -193l184 342h-425v-474h465z" />
    <glyph glyph-name="diamond" unicode="&#x2666;" horiz-adv-x="501" 
d="M521 285l-251 -250l-250 250l250 251z" />
    <glyph glyph-name="checkmark" unicode="&#x2713;" horiz-adv-x="531" 
d="M551 698l-329 -607l-202 246l39 37l156 -193l293 545z" />
    <glyph glyph-name="perthousand.onum" unicode="&#xf628;" horiz-adv-x="691" 
d="M270 459q0 -64 -36.5 -117t-89.5 -53q-42 0 -64.5 27t-22.5 76q0 64 36.5 117t89.5 53q42 0 64.5 -27t22.5 -76zM441 550l-366 -550h-40l365 550h41zM222 460q0 61 -40 61q-32 0 -54.5 -40t-22.5 -90q0 -61 41 -61q31 0 53.5 40.5t22.5 89.5zM420 158q0 -63 -36.5 -116
t-89.5 -53q-42 0 -65 27t-23 76q0 64 36.5 117t90.5 53q41 0 64 -27.5t23 -76.5zM372 160q0 61 -41 61q-31 0 -53.5 -40.5t-22.5 -89.5q0 -61 41 -61q31 0 53.5 40t22.5 90zM647 158q0 -64 -36 -116.5t-90 -52.5q-41 0 -64 27t-23 76q0 64 36.5 117t89.5 53q42 0 64.5 -27
t22.5 -77zM599 160q0 61 -40 61q-31 0 -53.5 -40t-22.5 -90q0 -61 40 -61q31 0 53.5 40t22.5 90z" />
    <glyph glyph-name="zero.tzero" unicode="&#xf638;" horiz-adv-x="391" 
d="M155 -12q-66 0 -98 54l-27 -42h-54l60 94q-8 35 -8 77q0 107 29.5 221.5t88 199.5t128.5 85q65 0 97 -54l28 44h54l-61 -96q8 -35 8 -77q0 -106 -29.5 -221t-88 -200t-127.5 -85zM161 56q32 0 61.5 42.5t49.5 106.5t34 132t18 127l-220 -347q9 -61 57 -61zM267 609
q-32 0 -61.5 -42.5t-50 -106.5t-34 -132t-17.5 -127l219 346q-9 62 -56 62z" />
    <glyph glyph-name="zero.tnum" unicode="&#xf639;" horiz-adv-x="391" 
d="M155 -12q-58 0 -92.5 45.5t-34.5 137.5q0 107 29.5 221.5t88 199.5t128.5 85q58 0 92 -45.5t34 -137.5q0 -106 -29.5 -221t-88 -200t-127.5 -85zM161 56q46 0 86 87t59.5 189.5t19.5 174.5q0 102 -59 102q-46 0 -86 -86.5t-59.5 -189t-19.5 -175.5q0 -102 59 -102z" />
    <glyph glyph-name="two.tnum" unicode="&#xf63a;" horiz-adv-x="391" 
d="M294 0h-296l18 78q208 250 242 296q69 103 73 159q0 35 -18.5 55.5t-49.5 20.5q-59 0 -108 -72l-44 47q70 93 158 93q63 0 102.5 -35.5t39.5 -98.5q0 -76 -57.5 -162.5t-245.5 -313.5h200z" />
    <glyph glyph-name="three.tnum" unicode="&#xf63b;" horiz-adv-x="391" 
d="M156 -12q-59 0 -102 34.5t-57 99.5l65 34q19 -100 94 -100q49 0 78.5 53.5t29.5 118.5q0 40 -21.5 60.5t-52.5 20.5q-23 0 -31 -1l16 69q7 -1 45 -1q50 0 78 47.5t28 109.5q0 76 -71 76q-60 0 -100 -71l-46 43q63 96 158 96q63 0 101 -34.5t38 -97.5q0 -71 -39 -131.5
t-99 -73.5q71 -27 71 -124q0 -88 -52.5 -158t-130.5 -70z" />
    <glyph glyph-name="four.tnum" unicode="&#xf63c;" horiz-adv-x="391" 
d="M258 0h-75l38 173h-211l17 73l285 421h93l-94 -427h52l-14 -67h-53zM235 240l73 328l-217 -328h144z" />
    <glyph glyph-name="five.tnum" unicode="&#xf63d;" horiz-adv-x="391" 
d="M154 -12q-121 0 -150 133l64 33q14 -98 87 -98q46 0 82.5 69t36.5 148q0 80 -61 80q-45 0 -92 -53l-52 24l76 343h273l-15 -67h-197l-50 -231q38 48 93 48q48 0 76.5 -36.5t28.5 -99.5q0 -113 -58 -203t-142 -90z" />
    <glyph glyph-name="six.tnum" unicode="&#xf63e;" horiz-adv-x="391" 
d="M164 -12q-67 0 -98 48t-31 127q0 55 15 135t43.5 168t83 149.5t121.5 61.5q45 0 79 -28t44 -75l-55 -44q-4 37 -23 58t-49 21q-98 0 -159 -263l-4 -22q52 92 120 92q47 0 77 -35.5t30 -99.5t-21.5 -129.5t-67.5 -114.5t-105 -49zM169 56q35 0 61.5 40.5t38 88.5t11.5 88
q0 35 -14.5 57t-44.5 22q-54 0 -104 -103q-10 -52 -10 -94q0 -99 62 -99z" />
    <glyph glyph-name="seven.tnum" unicode="&#xf63f;" horiz-adv-x="391" 
d="M134 0h-83l281 600h-202l14 67h288l-12 -52z" />
    <glyph glyph-name="eight.tnum" unicode="&#xf640;" horiz-adv-x="391" 
d="M161 -12q-148 0 -148 134q0 71 39 133t114 95q-28 21 -47 58t-19 78q0 74 50 132.5t122 58.5q58 0 98 -32.5t40 -100.5q0 -76 -42 -129t-100 -76q33 -25 51.5 -64.5t18.5 -81.5q0 -88 -51 -146.5t-126 -58.5zM223 370q42 17 75 58.5t33 107.5q0 73 -64 73
q-38 0 -65 -40.5t-27 -97.5q0 -31 14.5 -59t33.5 -42zM160 56q39 0 70.5 44t31.5 105q0 42 -17 72t-34 40q-47 -17 -83 -66t-36 -114q0 -41 19 -61t49 -20z" />
    <glyph glyph-name="nine.tnum" unicode="&#xf641;" horiz-adv-x="391" 
d="M266 678q67 0 98 -48t31 -127q0 -55 -15 -135t-43.5 -168t-83 -149.5t-121.5 -61.5q-45 0 -79 28t-44 75l56 44q4 -37 22.5 -58t48.5 -21q98 0 159 263q2 6 2.5 12.5t1.5 9.5q-52 -92 -120 -92q-47 0 -77 35.5t-30 99.5t21.5 129.5t67.5 114.5t105 49zM262 610
q-35 0 -62 -40.5t-38.5 -88.5t-11.5 -88q0 -34 14.5 -56.5t44.5 -22.5q56 0 104 103q10 52 10 94q0 99 -61 99z" />
    <glyph glyph-name="percent.onum" unicode="&#xf642;" horiz-adv-x="463" 
d="M270 459q0 -64 -36.5 -117t-89.5 -53q-42 0 -64.5 27t-22.5 76q0 64 36.5 117t89.5 53q42 0 64.5 -27t22.5 -76zM442 550l-367 -550h-40l366 550h41zM222 460q0 61 -40 61q-32 0 -54.5 -40t-22.5 -90q0 -61 41 -61q31 0 53.5 40.5t22.5 89.5zM420 158q0 -63 -36.5 -116
t-89.5 -53q-42 0 -65 27t-23 76q0 64 36.5 117t90.5 53q41 0 64 -27.5t23 -76.5zM372 160q0 61 -41 61q-31 0 -53.5 -40.5t-22.5 -89.5q0 -61 41 -61q31 0 53.5 40t22.5 90z" />
    <glyph glyph-name="zero.tonum" unicode="&#xf643;" horiz-adv-x="391" 
d="M381 388q0 -44 -13 -107t-38.5 -131t-72 -115t-103.5 -47q-60 0 -96 43.5t-36 130.5q0 44 13 107t38.5 131t71.5 115t103 47q61 0 97 -43.5t36 -130.5zM305 394q0 100 -63 100q-37 0 -67 -44.5t-45.5 -105.5t-23.5 -111.5t-8 -76.5q0 -100 62 -100q37 0 67 44.5t46 105.5
t24 111.5t8 76.5z" />
    <glyph glyph-name="one.tonum" unicode="&#xf644;" horiz-adv-x="391" 
d="M237 0h-75l99 450l-123 -106l-35 47l188 159h67z" />
    <glyph glyph-name="two.tonum" unicode="&#xf645;" horiz-adv-x="391" 
d="M279 0h-281l14 64q154 124 220.5 208.5t66.5 148.5q0 35 -17.5 54.5t-48.5 19.5q-59 0 -105 -78l-47 43q69 102 159 102q65 0 102.5 -34t37.5 -93q0 -151 -264 -368h177z" />
    <glyph glyph-name="three.tonum" unicode="&#xf646;" horiz-adv-x="391" 
d="M130 -129q-59 0 -102 34.5t-57 99.5l65 34q19 -100 94 -100q49 0 78.5 53.5t29.5 118.5q0 40 -21.5 60.5t-52.5 20.5q-23 0 -31 -1l16 69q7 -1 45 -1q50 0 78 47.5t28 109.5q0 76 -71 76q-60 0 -100 -71l-46 43q63 96 158 96q63 0 101 -34.5t38 -97.5q0 -71 -39 -131.5
t-99 -73.5q71 -27 71 -124q0 -88 -52.5 -158t-130.5 -70z" />
    <glyph glyph-name="four.tonum" unicode="&#xf647;" horiz-adv-x="391" 
d="M324 58h-53l-39 -175h-75l39 175h-211l15 70l289 422h90l-94 -425h53zM210 125l73 330l-219 -330h146z" />
    <glyph glyph-name="five.tonum" unicode="&#xf648;" horiz-adv-x="391" 
d="M128 -129q-121 0 -150 133l64 33q14 -98 87 -98q46 0 82.5 69t36.5 148q0 80 -61 80q-45 0 -92 -53l-52 24l76 343h273l-15 -67h-197l-50 -231q38 48 93 48q48 0 76.5 -36.5t28.5 -99.5q0 -113 -58 -203t-142 -90z" />
    <glyph glyph-name="six.tonum" unicode="&#xf649;" horiz-adv-x="391" 
d="M164 -12q-67 0 -98 48t-31 127q0 55 15 135t43.5 168t83 149.5t121.5 61.5q45 0 79 -28t44 -75l-55 -44q-4 37 -23 58t-49 21q-98 0 -159 -263l-4 -22q52 92 120 92q47 0 77 -35.5t30 -99.5t-21.5 -129.5t-67.5 -114.5t-105 -49zM169 56q35 0 61.5 40.5t38 88.5t11.5 88
q0 35 -14.5 57t-44.5 22q-54 0 -104 -103q-10 -52 -10 -94q0 -99 62 -99z" />
    <glyph glyph-name="seven.tonum" unicode="&#xf64a;" horiz-adv-x="391" 
d="M108 -117h-83l281 600h-202l14 67h288l-12 -52z" />
    <glyph glyph-name="eight.tonum" unicode="&#xf64b;" horiz-adv-x="391" 
d="M161 -12q-148 0 -148 134q0 71 39 133t114 95q-28 21 -47 58t-19 78q0 74 50 132.5t122 58.5q58 0 98 -32.5t40 -100.5q0 -76 -42 -129t-100 -76q33 -25 51.5 -64.5t18.5 -81.5q0 -88 -51 -146.5t-126 -58.5zM223 370q42 17 75 58.5t33 107.5q0 73 -64 73
q-38 0 -65 -40.5t-27 -97.5q0 -31 14.5 -59t33.5 -42zM160 56q39 0 70.5 44t31.5 105q0 42 -17 72t-34 40q-47 -17 -83 -66t-36 -114q0 -41 19 -61t49 -20z" />
    <glyph glyph-name="nine.tonum" unicode="&#xf64c;" horiz-adv-x="391" 
d="M240 561q67 0 98 -48t31 -127q0 -55 -15 -135t-43.5 -168t-83 -149.5t-121.5 -61.5q-45 0 -79 28t-44 75l56 44q4 -37 22.5 -58t48.5 -21q98 0 159 263q2 6 2.5 12.5t1.5 9.5q-52 -92 -120 -92q-47 0 -77 35.5t-30 99.5t21.5 129.5t67.5 114.5t105 49zM236 493
q-35 0 -62 -40.5t-38.5 -88.5t-11.5 -88q0 -34 14.5 -56.5t44.5 -22.5q56 0 104 103q10 52 10 94q0 99 -61 99z" />
    <glyph glyph-name="colonmonetary.onum" unicode="&#xf64d;" horiz-adv-x="351" 
d="M-8 -53l50 117q-14 37 -14 91q0 48 13 113t37.5 133t69.5 114.5t100 46.5q2 0 5 -0.5t4 -0.5l16 38h37l-19 -44q7 -2 24 -13l24 57h37l-36 -83q20 -30 25 -72l-63 -14q-8 69 -55 69q-34 0 -63.5 -41t-46.5 -99t-26.5 -112.5t-9.5 -90.5q0 -105 59 -105q25 0 42 17.5
t36 55.5l55 -26q-29 -54 -60.5 -82t-77.5 -28q-22 0 -40 6l-20 -47h-36l25 60q-14 10 -21 20l-34 -80h-37z" />
    <glyph glyph-name="Euro.onum" unicode="&#xf64e;" horiz-adv-x="360" 
d="M237 315h-103q-11 -45 -17 -81h102l-8 -42h-99q-2 -14 -2 -36q0 -105 59 -105q25 0 42 17.5t36 55.5l55 -26q-29 -54 -60.5 -82t-77.5 -28q-127 0 -127 167q0 23 1 37h-33l9 42h29q6 36 17 81h-29l10 42h31q28 89 74.5 147t110.5 58q51 0 81 -31.5t36 -86.5l-63 -14
q-8 69 -55 69q-64 0 -111 -142h102z" />
    <glyph glyph-name="florin.onum" unicode="&#xf64f;" horiz-adv-x="322" 
d="M50 -119h-77l74 334h-38v54h50l38 170q15 65 44.5 93.5t74.5 28.5q40 0 62 -27l-33 -53q-7 13 -25 13t-29 -14.5t-19 -50.5l-36 -160h70v-54h-82z" />
    <glyph glyph-name="numbersign.onum" unicode="&#xf650;" horiz-adv-x="367" 
d="M383 393l-19 -44h-56l-64 -144h56l-21 -45h-57l-71 -160h-54l74 160h-67l-71 -160h-54l73 160h-55l21 45h55l65 144h-55l19 44h56l71 157h54l-73 -157h67l71 157h52l-71 -157h54zM257 349h-67l-65 -144h66z" />
    <glyph glyph-name="sterling.onum" unicode="&#xf651;" horiz-adv-x="314" 
d="M19 226l10 45h52q-12 54 -12 88q0 87 45 144.5t111 57.5q44 0 75 -27.5t33 -70.5l-58 -15q-6 60 -52 60q-39 0 -61.5 -45t-22.5 -106q0 -27 9 -86h71l-10 -45h-56v-20q-1 -78 -68 -139q11 6 22 6q18 0 41 -11.5t37 -11.5q30 0 53 28l17 -49q-36 -38 -82 -38q-29 0 -59 15
t-47 15q-25 0 -64 -28l-13 47q40 23 70 66t30 94q0 8 -2 26h-69z" />
    <glyph glyph-name="yen.onum" unicode="&#xf652;" horiz-adv-x="328" 
d="M146 0h-72l25 114h-110l9 45h111l16 73h-110l10 45h92l-51 273h75l36 -243l142 243h77l-172 -273h94l-11 -45h-110l-16 -73h110l-10 -45h-110z" />
    <glyph glyph-name="cent.onum" unicode="&#xf654;" horiz-adv-x="351" 
d="M94 -93l19 87q-85 25 -85 161q0 47 12.5 111t36.5 130.5t67 114t96 50.5l13 57h53l-14 -64q63 -24 73 -110l-63 -14q-5 41 -25 58l-97 -434q30 12 58 70l55 -26q-27 -51 -56 -78.5t-71 -30.5l-18 -82h-54zM101 156q0 -74 27 -95l97 433q-38 -16 -68 -85t-43 -138
t-13 -115z" />
    <glyph glyph-name="zero.dnom" unicode="&#xf655;" horiz-adv-x="264" 
d="M249 280q0 -39 -10 -86.5t-28.5 -93t-50.5 -76.5t-71 -31q-93 0 -93 126q0 39 10 86.5t28.5 93t50.5 76.5t71 31q93 0 93 -126zM195 291q0 69 -42 69q-43 0 -73 -93.5t-30 -158.5q0 -69 42 -69q43 0 73 93.5t30 158.5z" />
    <glyph glyph-name="one.dnom" unicode="&#xf656;" horiz-adv-x="215" 
d="M109 0h-56l70 324l-68 -60l-28 34l121 102h49z" />
    <glyph glyph-name="two.dnom" unicode="&#xf657;" horiz-adv-x="264" 
d="M187 0h-210l10 44q130 130 170 179.5t40 87.5q0 24 -13.5 36.5t-34.5 12.5q-41 0 -77 -49l-30 36q49 59 110 59q44 0 73 -24t29 -67q0 -47 -38 -95.5t-148 -159.5l-14 -14h143z" />
    <glyph glyph-name="three.dnom" unicode="&#xf658;" horiz-adv-x="264" 
d="M214 122q0 -47 -33 -88t-88 -41q-40 0 -69.5 19t-40.5 51l44 30q15 -54 64 -54q32 0 50 29.5t18 64.5q0 25 -13.5 37.5t-33.5 12.5q-21 0 -27 -1l10 46q5 -1 30 -1q30 0 50.5 23.5t20.5 60.5q0 22 -13 35.5t-36 13.5q-39 0 -74 -46l-30 32q45 60 109 60q46 0 73 -23.5
t27 -66.5q0 -37 -24 -72t-64 -42q50 -15 50 -80z" />
    <glyph glyph-name="four.dnom" unicode="&#xf659;" horiz-adv-x="264" 
d="M217 102h-35l-23 -102h-55l22 102h-141l10 46l184 252h68l-56 -252h36zM136 148l41 184l-133 -184h92z" />
    <glyph glyph-name="five.dnom" unicode="&#xf65a;" horiz-adv-x="264" 
d="M219 162q0 -66 -37 -117.5t-95 -51.5q-79 0 -105 70l43 27q14 -51 63 -51q32 0 53 37t21 80q0 54 -44 54q-34 0 -62 -38l-38 15l47 213h192l-10 -46h-137l-28 -131q26 29 60 29q33 0 55 -22.5t22 -67.5z" />
    <glyph glyph-name="six.dnom" unicode="&#xf65b;" horiz-adv-x="264" 
d="M221 162q0 -59 -34.5 -114t-94.5 -55q-94 0 -94 118q0 38 10.5 86.5t30 96t53.5 80t75 32.5q65 0 88 -54l-38 -33q-13 41 -51 41q-26 0 -46.5 -25.5t-30.5 -53.5t-21 -69q-3 -12 -3 -13q32 55 80 55q34 0 55 -23t21 -69zM163 156q0 53 -42 53q-36 0 -65 -58
q-6 -26 -6 -45q0 -28 11 -47.5t33 -19.5q30 0 49.5 39.5t19.5 77.5z" />
    <glyph glyph-name="seven.dnom" unicode="&#xf65c;" horiz-adv-x="239" 
d="M247 362l-187 -362h-56l187 354h-150l10 46h205z" />
    <glyph glyph-name="eight.dnom" unicode="&#xf65d;" horiz-adv-x="264" 
d="M211 115q0 -53 -32.5 -87.5t-83.5 -34.5q-49 0 -79 23t-30 66q0 47 29.5 82t68.5 46q-46 27 -46 79q0 51 33.5 84t79.5 33q42 0 71.5 -22t29.5 -66q0 -39 -25 -71.5t-66 -45.5q20 -11 35 -35t15 -51zM195 315q0 46 -44 46q-26 0 -43 -23.5t-17 -53.5q0 -22 12.5 -38.5
t24.5 -21.5q29 10 48 33t19 58zM156 118q0 25 -12.5 43.5t-24.5 23.5q-27 -3 -51 -32t-24 -67q0 -22 13 -35.5t35 -13.5q25 0 44.5 23.5t19.5 57.5z" />
    <glyph glyph-name="nine.dnom" unicode="&#xf65e;" horiz-adv-x="264" 
d="M25 238q0 59 34.5 114t94.5 55q94 0 94 -118q0 -38 -10.5 -86.5t-30 -96t-53.5 -80t-75 -32.5q-65 0 -88 54l38 33q11 -41 51 -41q26 0 46.5 25.5t30.5 53.5t21 69q3 12 3 13q-32 -55 -80 -55q-34 0 -55 23t-21 69zM83 244q0 -53 42 -53q36 0 65 58q6 26 6 45
q0 28 -11 47.5t-33 19.5q-30 0 -49.5 -39.5t-19.5 -77.5z" />
    <glyph glyph-name="zero.numr" unicode="&#xf661;" horiz-adv-x="264" 
d="M308 547q0 -39 -10 -86.5t-28.5 -93t-50.5 -76.5t-71 -31q-93 0 -93 126q0 39 10 86.5t28.5 93t50.5 76.5t71 31q93 0 93 -126zM254 558q0 69 -42 69q-43 0 -73 -93.5t-30 -158.5q0 -69 42 -69q43 0 73 93.5t30 158.5z" />
    <glyph glyph-name="one.numr" unicode="&#xf662;" horiz-adv-x="215" 
d="M168 267h-56l70 324l-68 -60l-28 34l121 102h49z" />
    <glyph glyph-name="two.numr" unicode="&#xf663;" horiz-adv-x="264" 
d="M246 267h-210l10 44q130 130 170 179.5t40 87.5q0 24 -13.5 36.5t-34.5 12.5q-41 0 -77 -49l-30 36q49 59 110 59q44 0 73 -24t29 -67q0 -47 -38 -95.5t-148 -159.5l-14 -14h143z" />
    <glyph glyph-name="three.numr" unicode="&#xf664;" horiz-adv-x="264" 
d="M273 389q0 -47 -33 -88t-88 -41q-40 0 -69.5 19t-40.5 51l44 30q15 -54 64 -54q32 0 50 29.5t18 64.5q0 25 -13.5 37.5t-33.5 12.5q-21 0 -27 -1l10 46q5 -1 30 -1q30 0 50.5 23.5t20.5 60.5q0 22 -13 35.5t-36 13.5q-40 0 -74 -46l-30 32q45 60 109 60q46 0 73 -23.5
t27 -66.5q0 -37 -24 -72t-64 -42q50 -15 50 -80z" />
    <glyph glyph-name="four.numr" unicode="&#xf665;" horiz-adv-x="264" 
d="M276 369h-35l-23 -102h-55l22 102h-141l10 46l184 252h68l-56 -252h36zM195 415l41 184l-133 -184h92z" />
    <glyph glyph-name="five.numr" unicode="&#xf666;" horiz-adv-x="264" 
d="M278 429q0 -66 -37 -117.5t-95 -51.5q-79 0 -105 70l43 27q14 -51 63 -51q32 0 53 37t21 80q0 54 -44 54q-33 0 -62 -38l-38 15l47 213h192l-10 -46h-137l-28 -131q26 29 60 29q33 0 55 -22.5t22 -67.5z" />
    <glyph glyph-name="six.numr" unicode="&#xf667;" horiz-adv-x="264" 
d="M280 429q0 -59 -34.5 -114t-94.5 -55q-94 0 -94 118q0 38 10.5 86.5t30 96t53.5 80t75 32.5q65 0 88 -54l-38 -33q-13 41 -51 41q-26 0 -46.5 -25.5t-30.5 -53.5t-21 -69q-3 -12 -3 -13q32 55 80 55q34 0 55 -23t21 -69zM222 423q0 53 -42 53q-36 0 -65 -58
q-6 -26 -6 -45q0 -28 11 -47.5t33 -19.5q30 0 49.5 39.5t19.5 77.5z" />
    <glyph glyph-name="seven.numr" unicode="&#xf668;" horiz-adv-x="239" 
d="M306 629l-187 -362h-56l187 354h-150l10 46h205z" />
    <glyph glyph-name="eight.numr" unicode="&#xf669;" horiz-adv-x="264" 
d="M270 382q0 -53 -32.5 -87.5t-83.5 -34.5q-49 0 -79 23t-30 66q0 47 29.5 82t68.5 46q-46 27 -46 79q0 51 33.5 84t79.5 33q42 0 71.5 -22t29.5 -66q0 -39 -25 -71.5t-66 -45.5q20 -11 35 -35t15 -51zM254 582q0 46 -44 46q-26 0 -43 -23.5t-17 -53.5q0 -22 12.5 -38.5
t24.5 -21.5q29 10 48 33t19 58zM215 385q0 25 -12.5 43.5t-24.5 23.5q-27 -3 -51 -32t-24 -67q0 -22 13 -35.5t35 -13.5q25 0 44.5 23.5t19.5 57.5z" />
    <glyph glyph-name="nine.numr" unicode="&#xf66a;" horiz-adv-x="264" 
d="M84 505q0 59 34.5 114t94.5 55q94 0 94 -118q0 -38 -10.5 -86.5t-30 -96t-53.5 -80t-75 -32.5q-65 0 -88 54l38 33q11 -41 51 -41q26 0 46.5 25.5t30.5 53.5t21 69q3 12 3 13q-32 -55 -80 -55q-34 0 -55 23t-21 69zM142 511q0 -53 42 -53q36 0 65 58q6 26 6 45
q0 28 -11 47.5t-33 19.5q-30 0 -49.5 -39.5t-19.5 -77.5z" />
    <glyph glyph-name="Abreve.smcp" unicode="&#xf66d;" horiz-adv-x="314" 
d="M184 550h81l-10 -550h-73l6 124h-114l-48 -124h-75zM193 187l13 275l-110 -275h97zM369 664q-58 -60 -133 -60t-106 60l40 28q9 -20 29.5 -31.5t44.5 -11.5t49.5 11.5t41.5 31.5z" />
    <glyph glyph-name="Amacron.smcp" unicode="&#xf66e;" horiz-adv-x="314" 
d="M184 550h81l-10 -550h-73l6 124h-114l-48 -124h-75zM193 187l13 275l-110 -275h97zM364 628h-247l10 45h247z" />
    <glyph glyph-name="Aogonek.smcp" unicode="&#xf66f;" horiz-adv-x="314" 
d="M184 550h81l-10 -550q-91 -56 -91 -123q0 -26 25 -26t37 33l31 -22q-28 -48 -73 -48q-28 0 -45 15t-17 43q0 69 74 128h-14l6 124h-114l-48 -124h-75zM193 187l13 275l-110 -275h97z" />
    <glyph glyph-name="AEacute.smcp" unicode="&#xf670;" horiz-adv-x="471" 
d="M448 750l-132 -144h-48l111 144h69zM380 0h-219l27 124h-103l-65 -124h-75l306 550h250l-14 -63h-147l-39 -174h141l-13 -62h-142l-41 -188h147zM202 187l61 276l-147 -276h86z" />
    <glyph glyph-name="Cacute.smcp" unicode="&#xf671;" horiz-adv-x="351" 
d="M155 -12q-127 0 -127 167q0 48 13 113t37.5 133t69.5 114.5t100 46.5q51 0 81 -31.5t36 -86.5l-63 -14q-8 69 -55 69q-34 0 -63.5 -41t-46.5 -99t-26.5 -112.5t-9.5 -90.5q0 -105 59 -105q25 0 42 17.5t36 55.5l55 -26q-29 -54 -60.5 -82t-77.5 -28zM402 750l-132 -144
h-48l111 144h69z" />
    <glyph glyph-name="Ccaron.smcp" unicode="&#xf672;" horiz-adv-x="351" 
d="M155 -12q-127 0 -127 167q0 48 13 113t37.5 133t69.5 114.5t100 46.5q51 0 81 -31.5t36 -86.5l-63 -14q-8 69 -55 69q-34 0 -63.5 -41t-46.5 -99t-26.5 -112.5t-9.5 -90.5q0 -105 59 -105q25 0 42 17.5t36 55.5l55 -26q-29 -54 -60.5 -82t-77.5 -28zM311 606h-67l-36 144
h39l37 -105l81 105h44z" />
    <glyph glyph-name="Ccircumflex.smcp" unicode="&#xf673;" horiz-adv-x="351" 
d="M155 -12q-127 0 -127 167q0 48 13 113t37.5 133t69.5 114.5t100 46.5q51 0 81 -31.5t36 -86.5l-63 -14q-8 69 -55 69q-34 0 -63.5 -41t-46.5 -99t-26.5 -112.5t-9.5 -90.5q0 -105 59 -105q25 0 42 17.5t36 55.5l55 -26q-29 -54 -60.5 -82t-77.5 -28zM377 606h-40l-38 105
l-80 -105h-43l97 144h67z" />
    <glyph glyph-name="Cdotaccent.smcp" unicode="&#xf674;" horiz-adv-x="351" 
d="M155 -12q-127 0 -127 167q0 48 13 113t37.5 133t69.5 114.5t100 46.5q51 0 81 -31.5t36 -86.5l-63 -14q-8 69 -55 69q-34 0 -63.5 -41t-46.5 -99t-26.5 -112.5t-9.5 -90.5q0 -105 59 -105q25 0 42 17.5t36 55.5l55 -26q-29 -54 -60.5 -82t-77.5 -28zM336 679
q0 -19 -15 -34t-35 -15q-17 0 -28.5 11.5t-11.5 28.5q0 20 15 34.5t35 14.5q17 0 28.5 -11.5t11.5 -28.5z" />
    <glyph glyph-name="Dcaron.smcp" unicode="&#xf675;" horiz-adv-x="386" 
d="M128 0h-131l121 550h87q159 0 159 -174q0 -55 -13.5 -116t-40 -121.5t-74.5 -99.5t-108 -39zM135 63h2q46 0 83 57.5t53.5 127t16.5 127.5q0 60 -23 86t-69 26h-22l-94 -424h53zM302 606h-67l-36 144h39l37 -105l81 105h44z" />
    <glyph glyph-name="Dcroat.smcp" unicode="&#xf676;" horiz-adv-x="415" 
d="M156 0h-131l56 254h-58l12 52h57l54 244h87q159 0 159 -174q0 -55 -13.5 -116t-40 -121.5t-74.5 -99.5t-108 -39zM165 63q46 0 83 57.5t53.5 127t16.5 127.5q0 60 -23 86t-69 26h-22l-40 -181h67l-12 -52h-67l-42 -191h55z" />
    <glyph glyph-name="Ebreve.smcp" unicode="&#xf677;" horiz-adv-x="313" 
d="M222 0h-220l121 550h220l-14 -63h-148l-39 -174h142l-14 -62h-142l-41 -188h148zM380 664q-58 -60 -133 -60t-106 60l40 28q9 -20 29.5 -31.5t44.5 -11.5t49.5 11.5t41.5 31.5z" />
    <glyph glyph-name="Ecaron.smcp" unicode="&#xf678;" horiz-adv-x="313" 
d="M222 0h-220l121 550h220l-14 -63h-148l-39 -174h142l-14 -62h-142l-41 -188h148zM280 606h-67l-36 144h39l37 -105l81 105h44z" />
    <glyph glyph-name="Edotaccent.smcp" unicode="&#xf679;" horiz-adv-x="313" 
d="M222 0h-220l121 550h220l-14 -63h-148l-39 -174h142l-14 -62h-142l-41 -188h148zM308 679q0 -19 -15 -34t-35 -15q-17 0 -28.5 11.5t-11.5 28.5q0 20 15 34.5t35 14.5q17 0 28.5 -11.5t11.5 -28.5z" />
    <glyph glyph-name="Emacron.smcp" unicode="&#xf67a;" horiz-adv-x="313" 
d="M222 0h-220l121 550h220l-14 -63h-148l-39 -174h142l-14 -62h-142l-41 -188h148zM377 628h-247l10 45h247z" />
    <glyph glyph-name="Eng.smcp" unicode="&#xf67b;" horiz-adv-x="385" 
d="M125 -196q-75 0 -103 46l36 46q18 -35 60 -35q29 0 46 17t25 55l14 63l-41 404l-89 -400h-71l121 550h76l40 -390l86 390h71l-136 -618q-15 -68 -47.5 -98t-87.5 -30z" />
    <glyph glyph-name="Eogonek.smcp" unicode="&#xf67c;" horiz-adv-x="313" 
d="M193 -116l31 -22q-28 -48 -73 -48q-28 0 -45 15t-17 43q0 69 74 128h-161l121 550h220l-14 -63h-148l-39 -174h142l-14 -62h-142l-41 -188h148l-13 -63q-91 -56 -91 -123q0 -26 25 -26t37 33z" />
    <glyph glyph-name="Gbreve.smcp" unicode="&#xf67d;" horiz-adv-x="371" 
d="M160 -12q-132 0 -132 166q0 55 14 122t39.5 132.5t69.5 109.5t97 44q52 0 81 -32.5t35 -85.5l-62 -14q-10 69 -57 69q-32 0 -61 -40t-46 -97t-27 -113t-10 -95q0 -56 15.5 -79.5t46.5 -23.5q38 0 59 28l32 144h-71l14 60h135l-53 -241q-54 -54 -119 -54zM409 664
q-58 -60 -133 -60t-106 60l40 28q9 -20 29.5 -31.5t44.5 -11.5t49.5 11.5t41.5 31.5z" />
    <glyph glyph-name="Gcircumflex.smcp" unicode="&#xf67e;" horiz-adv-x="371" 
d="M160 -12q-132 0 -132 166q0 55 14 122t39.5 132.5t69.5 109.5t97 44q52 0 81 -32.5t35 -85.5l-62 -14q-10 69 -57 69q-32 0 -61 -40t-46 -97t-27 -113t-10 -95q0 -56 15.5 -79.5t46.5 -23.5q38 0 59 28l32 144h-71l14 60h135l-53 -241q-54 -54 -119 -54zM379 606h-40
l-38 105l-80 -105h-43l97 144h67z" />
    <glyph glyph-name="Gcommaaccent.smcp" unicode="&#xf67f;" horiz-adv-x="371" 
d="M160 -12q-132 0 -132 166q0 55 14 122t39.5 132.5t69.5 109.5t97 44q52 0 81 -32.5t35 -85.5l-62 -14q-10 69 -57 69q-32 0 -61 -40t-46 -97t-27 -113t-10 -95q0 -56 15.5 -79.5t46.5 -23.5q38 0 59 28l32 144h-71l14 60h135l-53 -241q-54 -54 -119 -54zM167 -121
q0 -41 -29.5 -81t-70.5 -62l-25 27q26 14 47 35.5t28 43.5q0 -1 -7 -1q-14 0 -24.5 11t-10.5 26q0 20 15 34.5t34 14.5t31 -12.5t12 -35.5z" />
    <glyph glyph-name="Gdotaccent.smcp" unicode="&#xf680;" horiz-adv-x="371" 
d="M160 -12q-132 0 -132 166q0 55 14 122t39.5 132.5t69.5 109.5t97 44q52 0 81 -32.5t35 -85.5l-62 -14q-10 69 -57 69q-32 0 -61 -40t-46 -97t-27 -113t-10 -95q0 -56 15.5 -79.5t46.5 -23.5q38 0 59 28l32 144h-71l14 60h135l-53 -241q-54 -54 -119 -54zM337 679
q0 -19 -15 -34t-35 -15q-17 0 -28.5 11.5t-11.5 28.5q0 20 15 34.5t35 14.5q17 0 28.5 -11.5t11.5 -28.5z" />
    <glyph glyph-name="Hcircumflex.smcp" unicode="&#xf681;" horiz-adv-x="389" 
d="M279 0h-72l55 251h-133l-56 -251h-71l121 550h71l-52 -236h134l52 236h72zM375 606h-40l-38 105l-80 -105h-43l97 144h67z" />
    <glyph glyph-name="Hbar.smcp" unicode="&#xf682;" horiz-adv-x="432" 
d="M300 0h-72l55 251h-133l-56 -251h-71l90 411h-55l10 45h55l21 94h71l-21 -94h134l21 94h72l-21 -94h56l-10 -45h-56zM163 314h134l21 97h-134z" />
    <glyph glyph-name="Ibreve.smcp" unicode="&#xf683;" horiz-adv-x="182" 
d="M72 0h-71l121 550h71zM304 664q-58 -60 -133 -60t-106 60l40 28q9 -20 29.5 -31.5t44.5 -11.5t49.5 11.5t41.5 31.5z" />
    <glyph glyph-name="IJ.smcp" unicode="&#xf684;" horiz-adv-x="466" 
d="M73 0h-71l121 550h71zM245 -12q-75 0 -103 46l37 52q18 -35 60 -35q29 0 46 17t26 55l94 427h72l-96 -434q-15 -69 -48.5 -98.5t-87.5 -29.5z" />
    <glyph glyph-name="Imacron.smcp" unicode="&#xf685;" horiz-adv-x="182" 
d="M72 0h-71l121 550h71zM300 628h-247l10 45h247z" />
    <glyph glyph-name="Iogonek.smcp" unicode="&#xf686;" horiz-adv-x="182" 
d="M43 -116l31 -22q-28 -48 -73 -48q-28 0 -45 15t-17 43q0 69 74 128h-12l121 550h71l-121 -550q-91 -56 -91 -123q0 -26 25 -26t37 33z" />
    <glyph glyph-name="Itilde.smcp" unicode="&#xf687;" horiz-adv-x="182" 
d="M72 0h-71l121 550h71zM215 591q-21 0 -30.5 15t-10.5 32.5t-7 32.5t-19 15q-31 0 -50 -89h-40q30 134 96 134q21 0 31 -15t11 -32.5t7 -32.5t19 -15q30 0 50 89h41q-31 -134 -98 -134z" />
    <glyph glyph-name="Jcircumflex.smcp" unicode="&#xf688;" horiz-adv-x="283" 
d="M62 -12q-75 0 -103 46l37 52q18 -35 60 -35q29 0 46 17t26 55l94 427h72l-96 -434q-15 -69 -48.5 -98.5t-87.5 -29.5zM373 606h-40l-38 105l-80 -105h-43l97 144h67z" />
    <glyph glyph-name="Kcommaaccent.smcp" unicode="&#xf689;" horiz-adv-x="370" 
d="M306 0h-81l-66 233l-49 -66l-37 -167h-71l121 550h71l-58 -268l199 268h81l-204 -261zM161 -121q0 -41 -29.5 -81t-70.5 -62l-25 27q26 14 47 35.5t28 43.5q0 -1 -7 -1q-14 0 -24.5 11t-10.5 26q0 20 15 34.5t34 14.5t31 -12.5t12 -35.5z" />
    <glyph glyph-name="Lacute.smcp" unicode="&#xf68a;" horiz-adv-x="296" 
d="M222 0h-220l121 550h71l-107 -487h148zM376 750l-132 -144h-48l111 144h69z" />
    <glyph glyph-name="Lcaron.smcp" unicode="&#xf68b;" horiz-adv-x="303" 
d="M222 0h-220l121 550h71l-107 -487h148zM321 512q0 -41 -29.5 -81t-70.5 -62l-25 27q26 14 47 35.5t28 43.5q0 -1 -7 -1q-14 0 -24.5 11t-10.5 26q0 20 15 34.5t34 14.5t31 -12.5t12 -35.5z" />
    <glyph glyph-name="Lcommaaccent.smcp" unicode="&#xf68c;" horiz-adv-x="296" 
d="M222 0h-220l121 550h71l-107 -487h148zM133 -121q0 -41 -29.5 -81t-70.5 -62l-25 27q26 14 47 35.5t28 43.5q0 -1 -7 -1q-14 0 -24.5 11t-10.5 26q0 20 15 34.5t34 14.5t31 -12.5t12 -35.5z" />
    <glyph glyph-name="Ldot.smcp" unicode="&#xf68d;" horiz-adv-x="348" 
d="M222 0h-220l121 550h71l-107 -487h148zM272 241q-20 0 -33.5 13.5t-13.5 33.5q0 23 17 39.5t40 16.5q20 0 33.5 -14t13.5 -33q0 -23 -17 -39.5t-40 -16.5z" />
    <glyph glyph-name="Nacute.smcp" unicode="&#xf68e;" horiz-adv-x="385" 
d="M275 0h-72l-41 400l-89 -400h-71l121 550h76l40 -390l86 390h71zM400 750l-132 -144h-48l111 144h69z" />
    <glyph glyph-name="Ncaron.smcp" unicode="&#xf68f;" horiz-adv-x="385" 
d="M275 0h-72l-41 400l-89 -400h-71l121 550h76l40 -390l86 390h71zM307 606h-67l-36 144h39l37 -105l81 105h44z" />
    <glyph glyph-name="Ncommaaccent.smcp" unicode="&#xf690;" horiz-adv-x="385" 
d="M275 0h-72l-41 400l-89 -400h-71l121 550h76l40 -390l86 390h71zM164 -121q0 -41 -29.5 -81t-70.5 -62l-25 27q26 14 47 35.5t28 43.5q0 -1 -7 -1q-14 0 -24.5 11t-10.5 26q0 20 15 34.5t34 14.5t31 -12.5t12 -35.5z" />
    <glyph glyph-name="Obreve.smcp" unicode="&#xf691;" horiz-adv-x="393" 
d="M155 -12q-60 0 -93.5 42t-33.5 123q0 43 11.5 105.5t35 133.5t69.5 120.5t105 49.5q60 0 94 -42t34 -123q0 -32 -6.5 -79t-23 -105.5t-41 -108t-64 -83t-87.5 -33.5zM158 51q37 0 67 44.5t46 106t24.5 114.5t8.5 82q0 101 -57 101q-36 0 -66.5 -44.5t-46.5 -106t-25 -115
t-9 -81.5q0 -101 58 -101zM409 664q-58 -60 -133 -60t-106 60l40 28q9 -20 29.5 -31.5t44.5 -11.5t49.5 11.5t41.5 31.5z" />
    <glyph glyph-name="Ohungarumlaut.smcp" unicode="&#xf692;" horiz-adv-x="393" 
d="M155 -12q-60 0 -93.5 42t-33.5 123q0 43 11.5 105.5t35 133.5t69.5 120.5t105 49.5q60 0 94 -42t34 -123q0 -32 -6.5 -79t-23 -105.5t-41 -108t-64 -83t-87.5 -33.5zM158 51q37 0 67 44.5t46 106t24.5 114.5t8.5 82q0 101 -57 101q-36 0 -66.5 -44.5t-46.5 -106t-25 -115
t-9 -81.5q0 -101 58 -101zM339 750l-109 -144h-40l88 144h61zM456 750l-110 -144h-40l88 144h62z" />
    <glyph glyph-name="Omacron.smcp" unicode="&#xf693;" horiz-adv-x="393" 
d="M155 -12q-60 0 -93.5 42t-33.5 123q0 43 11.5 105.5t35 133.5t69.5 120.5t105 49.5q60 0 94 -42t34 -123q0 -32 -6.5 -79t-23 -105.5t-41 -108t-64 -83t-87.5 -33.5zM158 51q37 0 67 44.5t46 106t24.5 114.5t8.5 82q0 101 -57 101q-36 0 -66.5 -44.5t-46.5 -106t-25 -115
t-9 -81.5q0 -101 58 -101zM404 628h-247l10 45h247z" />
    <glyph glyph-name="Oslashacute.smcp" unicode="&#xf694;" horiz-adv-x="393" 
d="M155 -12q-63 0 -95 44l-22 -32h-46l48 70q-12 34 -12 83q0 43 11.5 105.5t35 133.5t69.5 120.5t105 49.5q63 0 97 -46l24 34h46l-50 -73q11 -36 11 -80q0 -32 -6.5 -79t-23 -105.5t-41 -108t-64 -83t-87.5 -33.5zM247 499q-35 0 -64.5 -42.5t-46.5 -102t-26 -112
t-10 -85.5l199 290q-10 52 -52 52zM158 51q35 0 63.5 40t45 98.5t25.5 109.5t11 87l-198 -288q12 -47 53 -47zM404 750l-132 -144h-48l111 144h69z" />
    <glyph glyph-name="Racute.smcp" unicode="&#xf695;" horiz-adv-x="350" 
d="M263 0h-77l-23 217h-42l-48 -217h-71l121 550h101q56 0 89.5 -34.5t33.5 -93.5q0 -67 -34 -124t-83 -72zM169 280h12q41 0 66 44.5t25 91.5q0 35 -16 53t-43 18h-32l-46 -207h34zM382 750l-132 -144h-48l111 144h69z" />
    <glyph glyph-name="Rcaron.smcp" unicode="&#xf696;" horiz-adv-x="350" 
d="M263 0h-77l-23 217h-42l-48 -217h-71l121 550h101q56 0 89.5 -34.5t33.5 -93.5q0 -67 -34 -124t-83 -72zM169 280h12q41 0 66 44.5t25 91.5q0 35 -16 53t-43 18h-32l-46 -207h34zM289 606h-67l-36 144h39l37 -105l81 105h44z" />
    <glyph glyph-name="Rcommaaccent.smcp" unicode="&#xf697;" horiz-adv-x="350" 
d="M263 0h-77l-23 217h-42l-48 -217h-71l121 550h101q56 0 89.5 -34.5t33.5 -93.5q0 -67 -34 -124t-83 -72zM169 280h12q41 0 66 44.5t25 91.5q0 35 -16 53t-43 18h-32l-46 -207h34zM144 -121q0 -41 -29.5 -81t-70.5 -62l-25 27q26 14 47 35.5t28 43.5q0 -1 -7 -1
q-14 0 -24.5 11t-10.5 26q0 20 15 34.5t34 14.5t31 -12.5t12 -35.5z" />
    <glyph glyph-name="Sacute.smcp" unicode="&#xf698;" horiz-adv-x="309" 
d="M109 -12q-87 0 -131 63l45 50q31 -50 83 -50q34 0 57 30t23 74q0 30 -18 60.5t-39 52t-39 56t-18 72.5q0 69 43.5 117.5t105.5 48.5q70 0 111 -50l-42 -51q-25 38 -69 38q-29 0 -51.5 -28t-22.5 -64q0 -27 18 -56t40 -51.5t40 -61t18 -82.5q0 -65 -45 -116.5t-109 -51.5z
M365 750l-132 -144h-48l111 144h69z" />
    <glyph glyph-name="Scedilla.smcp" unicode="&#xf699;" horiz-adv-x="309" 
d="M63 -190q-51 0 -81 36l25 33q21 -32 58 -32q22 0 36 15t14 35q0 27 -25 27q-14 0 -28 -14l-27 17l38 64q-60 11 -95 60l45 50q31 -50 83 -50q34 0 57 30t23 74q0 30 -18 60.5t-39 52t-39 56t-18 72.5q0 69 43.5 117.5t105.5 48.5q70 0 111 -50l-42 -51q-25 38 -69 38
q-29 0 -51.5 -28t-22.5 -64q0 -27 18 -56t40 -51.5t40 -61t18 -82.5q0 -63 -43.5 -114.5t-106.5 -53.5l-27 -44q10 10 24 10q21 0 34.5 -15.5t13.5 -39.5q0 -37 -27.5 -63t-67.5 -26z" />
    <glyph glyph-name="Scircumflex.smcp" unicode="&#xf69a;" horiz-adv-x="309" 
d="M109 -12q-87 0 -131 63l45 50q31 -50 83 -50q34 0 57 30t23 74q0 30 -18 60.5t-39 52t-39 56t-18 72.5q0 69 43.5 117.5t105.5 48.5q70 0 111 -50l-42 -51q-25 38 -69 38q-29 0 -51.5 -28t-22.5 -64q0 -27 18 -56t40 -51.5t40 -61t18 -82.5q0 -65 -45 -116.5t-109 -51.5z
M340 606h-40l-38 105l-80 -105h-43l97 144h67z" />
    <glyph glyph-name="Scommaaccent.smcp" unicode="&#xf69b;" horiz-adv-x="309" 
d="M109 -12q-87 0 -131 63l45 50q31 -50 83 -50q34 0 57 30t23 74q0 30 -18 60.5t-39 52t-39 56t-18 72.5q0 69 43.5 117.5t105.5 48.5q70 0 111 -50l-42 -51q-25 38 -69 38q-29 0 -51.5 -28t-22.5 -64q0 -27 18 -56t40 -51.5t40 -61t18 -82.5q0 -65 -45 -116.5t-109 -51.5z
M121 -121q0 -41 -29.5 -81t-70.5 -62l-25 27q26 14 47 35.5t28 43.5q0 -1 -7 -1q-14 0 -24.5 11t-10.5 26q0 20 15 34.5t34 14.5t31 -12.5t12 -35.5z" />
    <glyph glyph-name="Tbar.smcp" unicode="&#xf69c;" horiz-adv-x="272" 
d="M117 0h-71l54 246h-53l10 44h52l44 197h-85l14 63h242l-14 -63h-85l-44 -197h52l-10 -44h-52z" />
    <glyph glyph-name="Tcaron.smcp" unicode="&#xf69d;" horiz-adv-x="272" 
d="M117 0h-71l107 487h-85l14 63h242l-14 -63h-85zM252 606h-67l-36 144h39l37 -105l81 105h44z" />
    <glyph glyph-name="Tcommaaccent.smcp" unicode="&#xf69e;" horiz-adv-x="272" 
d="M117 0h-71l107 487h-85l14 63h242l-14 -63h-85zM102 -121q0 -41 -29.5 -81t-70.5 -62l-25 27q26 14 47 35.5t28 43.5q0 -1 -7 -1q-14 0 -24.5 11t-10.5 26q0 20 15 34.5t34 14.5t31 -12.5t12 -35.5z" />
    <glyph glyph-name="Ubreve.smcp" unicode="&#xf69f;" horiz-adv-x="389" 
d="M158 -12q-63 0 -95.5 29t-32.5 81q0 33 8 65l85 387h71l-88 -400q-5 -23 -5 -36q0 -63 59 -63q31 0 50 25t31 79l87 395h72l-86 -385q-20 -88 -55.5 -132.5t-100.5 -44.5zM409 664q-58 -60 -133 -60t-106 60l40 28q9 -20 29.5 -31.5t44.5 -11.5t49.5 11.5t41.5 31.5z" />
    <glyph glyph-name="Uhungarumlaut.smcp" unicode="&#xf6a0;" horiz-adv-x="389" 
d="M158 -12q-63 0 -95.5 29t-32.5 81q0 33 8 65l85 387h71l-88 -400q-5 -23 -5 -36q0 -63 59 -63q31 0 50 25t31 79l87 395h72l-86 -385q-20 -88 -55.5 -132.5t-100.5 -44.5zM335 750l-109 -144h-40l88 144h61zM452 750l-110 -144h-40l88 144h62z" />
    <glyph glyph-name="Umacron.smcp" unicode="&#xf6a1;" horiz-adv-x="389" 
d="M158 -12q-63 0 -95.5 29t-32.5 81q0 33 8 65l85 387h71l-88 -400q-5 -23 -5 -36q0 -63 59 -63q31 0 50 25t31 79l87 395h72l-86 -385q-20 -88 -55.5 -132.5t-100.5 -44.5zM403 628h-247l10 45h247z" />
    <glyph glyph-name="Uogonek.smcp" unicode="&#xf6a2;" horiz-adv-x="389" 
d="M188 -116l31 -22q-28 -48 -73 -48q-28 0 -45 15t-17 43q0 63 60 117q-57 3 -85.5 31.5t-28.5 77.5q0 33 8 65l85 387h71l-88 -400q-5 -23 -5 -36q0 -63 59 -63q31 0 50 25t31 79l87 395h72l-86 -385q-31 -134 -97 -165q-91 -56 -91 -123q0 -26 25 -26t37 33z" />
    <glyph glyph-name="Uring.smcp" unicode="&#xf6a3;" horiz-adv-x="389" 
d="M158 -12q-63 0 -95.5 29t-32.5 81q0 33 8 65l85 387h71l-88 -400q-5 -23 -5 -36q0 -63 59 -63q31 0 50 25t31 79l87 395h72l-86 -385q-20 -88 -55.5 -132.5t-100.5 -44.5zM284 604q-32 0 -53 21.5t-21 54.5q0 37 28 64.5t65 27.5q32 0 52.5 -21.5t20.5 -54.5
q0 -37 -27.5 -64.5t-64.5 -27.5zM287 640q22 0 38 15.5t16 37.5q0 18 -11.5 30.5t-29.5 12.5q-22 0 -37.5 -15.5t-15.5 -37.5q0 -18 11 -30.5t29 -12.5z" />
    <glyph glyph-name="Utilde.smcp" unicode="&#xf6a4;" horiz-adv-x="389" 
d="M158 -12q-63 0 -95.5 29t-32.5 81q0 33 8 65l85 387h71l-88 -400q-5 -23 -5 -36q0 -63 59 -63q31 0 50 25t31 79l87 395h72l-86 -385q-20 -88 -55.5 -132.5t-100.5 -44.5zM319 604q-21 0 -30.5 15t-10.5 32.5t-7 32.5t-19 15q-31 0 -50 -89h-40q30 134 96 134
q21 0 31 -15t11 -32.5t7 -32.5t19 -15q30 0 50 89h41q-31 -134 -98 -134z" />
    <glyph glyph-name="Wcircumflex.smcp" unicode="&#xf6a6;" horiz-adv-x="480" 
d="M420 606h-40l-38 105l-80 -105h-43l97 144h67zM322 0h-74l27 404l-151 -404h-74l24 550h74l-29 -414l158 414h60l-25 -415l154 415h73z" />
    <glyph glyph-name="Ycircumflex.smcp" unicode="&#xf6a9;" horiz-adv-x="328" 
d="M146 0h-72l51 233l-59 317h75l36 -243l142 243h77l-199 -317zM345 606h-40l-38 105l-80 -105h-43l97 144h67z" />
    <glyph glyph-name="Zacute.smcp" unicode="&#xf6ab;" horiz-adv-x="292" 
d="M211 0h-238l12 56l247 431h-152l14 63h232l-12 -55l-248 -432h159zM349 750l-132 -144h-48l111 144h69z" />
    <glyph glyph-name="Zdotaccent.smcp" unicode="&#xf6ac;" horiz-adv-x="292" 
d="M211 0h-238l12 56l247 431h-152l14 63h232l-12 -55l-248 -432h159zM287 679q0 -19 -15 -34t-35 -15q-17 0 -28.5 11.5t-11.5 28.5q0 20 15 34.5t35 14.5q17 0 28.5 -11.5t11.5 -28.5z" />
    <glyph glyph-name="Idotaccent.smcp" unicode="&#xf6ad;" horiz-adv-x="171" 
d="M68 0h-71l121 550h71zM226 679q0 -19 -15 -34t-35 -15q-17 0 -28.5 11.5t-11.5 28.5q0 20 15 34.5t35 14.5q17 0 28.5 -11.5t11.5 -28.5z" />
    <glyph glyph-name="parenleft.case" unicode="&#xf6ae;" horiz-adv-x="209" 
d="M116 -93l-51 -16q-25 97 -25 208q0 358 220 676l43 -25q-86 -150 -140 -335t-54 -358q0 -86 7 -150z" />
    <glyph glyph-name="parenright.case" unicode="&#xf6af;" horiz-adv-x="209" 
d="M132 759l51 16q26 -101 26 -208q0 -359 -221 -676l-43 25q86 150 140 335t54 358q0 86 -7 150z" />
    <glyph glyph-name="bracketleft.case" unicode="&#xf6b0;" horiz-adv-x="182" 
d="M87 -100h-128l192 868h129l-11 -51h-76l-169 -766h75z" />
    <glyph glyph-name="bracketright.case" unicode="&#xf6b1;" horiz-adv-x="182" 
d="M70 -100h-129l12 51h75l169 766h-75l11 51h130z" />
    <glyph glyph-name="braceleft.case" unicode="&#xf6b2;" horiz-adv-x="202" 
d="M108 -100h-24q-33 0 -57.5 22t-25.5 59q0 7 4 27l51 233q3 15 3 20q0 50 -39 50l11 46q51 0 67 70l52 236q23 105 121 105h30l-12 -51h-30q-42 0 -55 -54l-54 -247q-15 -69 -65 -88q29 -14 29 -54q0 -18 -4 -34l-51 -232q-2 -12 -2 -17q0 -19 9.5 -29.5t22.5 -10.5h31z
" />
    <glyph glyph-name="braceright.case" unicode="&#xf6b3;" horiz-adv-x="202" 
d="M133 768h24q33 0 58 -22.5t25 -59.5q0 -6 -4 -26l-51 -233q-3 -15 -3 -21q0 -49 39 -49l-10 -46q-52 0 -68 -70l-52 -236q-23 -105 -121 -105h-30l12 51h30q42 0 55 54l54 247q15 69 65 88q-29 14 -29 54q0 18 4 34l51 232q2 12 2 17q0 19 -9.5 29.5t-22.5 10.5h-31z" />
    <glyph glyph-name="exclamdown.case" unicode="&#xf6b4;" horiz-adv-x="227" 
d="M138 484h56l-92 -484h-86zM202 677q20 0 33.5 -13.5t13.5 -33.5q0 -23 -16.5 -39.5t-39.5 -16.5q-20 0 -33.5 13.5t-13.5 33.5q0 23 16.5 39.5t39.5 16.5z" />
    <glyph glyph-name="questiondown.case" unicode="&#xf6b5;" horiz-adv-x="313" 
d="M167 455l63 25q12 -27 12 -62q0 -39 -17.5 -72.5t-42 -58.5t-49 -49t-42 -53.5t-17.5 -62.5q0 -30 17.5 -51t47.5 -21q36 0 67 25l23 -52q-49 -38 -107 -38q-57 0 -91.5 35t-34.5 83q0 42 18.5 79.5t44.5 65t52.5 52.5t45 53t18.5 56q0 29 -8 46zM241 673q20 0 33.5 -14
t13.5 -34q0 -23 -16.5 -39t-39.5 -16q-20 0 -34 13.5t-14 33.5q0 23 17 39.5t40 16.5z" />
    <glyph glyph-name="guillemotleft.case" unicode="&#xf6b6;" horiz-adv-x="325" 
d="M157 162h-56l-50 180l130 177h60l-133 -181zM274 162h-56l-50 180l130 177h60l-133 -181z" />
    <glyph glyph-name="guillemotright.case" unicode="&#xf6b7;" horiz-adv-x="325" 
d="M95 519h56l50 -180l-130 -177h-60l133 181zM212 519h56l50 -180l-130 -177h-60l133 181z" />
    <glyph glyph-name="guilsinglleft.case" unicode="&#xf6b8;" horiz-adv-x="208" 
d="M157 162h-56l-50 180l130 177h60l-133 -181z" />
    <glyph glyph-name="guilsinglright.case" unicode="&#xf6b9;" horiz-adv-x="208" 
d="M95 519h56l50 -180l-130 -177h-60l133 181z" />
    <glyph glyph-name="hyphen.case" unicode="&#xf6ba;" horiz-adv-x="235" 
d="M220 311h-175l13 60h175z" />
    <glyph glyph-name="endash.case" unicode="&#xf6bb;" horiz-adv-x="460" 
d="M445 311h-400l13 60h400z" />
    <glyph glyph-name="emdash.case" unicode="&#xf6bc;" horiz-adv-x="640" 
d="M625 311h-580l13 60h580z" />
    <glyph glyph-name="periodcentered.case" unicode="&#xf6bd;" horiz-adv-x="227" 
d="M129 290q-19 0 -33 14t-14 33q0 23 17 39.5t40 16.5q19 0 33 -13.5t14 -33.5q0 -23 -17 -39.5t-40 -16.5z" />
    <glyph glyph-name="bullet.case" unicode="&#xf6be;" horiz-adv-x="358" 
d="M308 352q0 -47 -35.5 -81.5t-83.5 -34.5q-41 0 -68 27t-27 68q0 47 35.5 81.5t83.5 34.5q41 0 68 -27.5t27 -67.5z" />
    <glyph glyph-name="cent.case" unicode="&#xf6bf;" horiz-adv-x="317" 
d="M177 79h-6l-19 -88h-54l22 99q-75 34 -75 155q0 66 20 137t64 130.5t101 70.5l16 73h54l-17 -73q47 -10 73 -46l-37 -50q-18 30 -49 37l-85 -384h5q34 0 62 31l19 -53q-42 -39 -94 -39zM117 246q0 -55 20 -81l76 345q-45 -32 -70.5 -113.5t-25.5 -150.5z" />
    <glyph glyph-name="commaaccent" unicode="&#xf6c3;" horiz-adv-x="228" 
d="M78 -121q0 -41 -29.5 -81t-70.5 -62l-25 27q26 14 47 35.5t28 43.5q0 -1 -7 -1q-14 0 -24.5 11t-10.5 26q0 20 15 34.5t34 14.5t31 -12.5t12 -35.5z" />
    <glyph glyph-name="one.tnum" unicode="&#xf6dc;" horiz-adv-x="391" 
d="M237 0h-75l125 567l-123 -106l-35 47l188 159h67z" />
    <glyph glyph-name="rupiah" unicode="&#xf6dd;" horiz-adv-x="761" 
d="M311 0h-78l-27 269h-62l-60 -269h-75l147 667h123q59 0 96.5 -42.5t37.5 -107.5q0 -85 -40 -151.5t-97 -83.5zM545 -12q-66 0 -88 82l-56 -254h-68l148 667h68l-14 -62q44 74 101 74q46 0 71 -37.5t25 -105.5q0 -48 -12 -107.5t-33.5 -118.5t-59 -98.5t-82.5 -39.5z
M534 49q30 0 55 34t40 83t23.5 97.5t8.5 83.5q0 87 -55 87q-23 0 -47 -23.5t-39 -56.5l-50 -224q4 -34 22 -57.5t42 -23.5zM217 600l-59 -264h53q58 0 90 53.5t32 122.5q0 44 -18 66t-49 22h-49z" />
    <glyph glyph-name="centinferior" unicode="&#xf6df;" horiz-adv-x="217" 
d="M28 -151l12 57q-66 16 -66 106q0 71 38 131t94 63l10 42h39l-11 -48q27 -10 43 -33l-29 -31q-10 16 -23 23l-47 -215q17 4 32 21l15 -35q-22 -24 -56 -27l-12 -54h-39zM25 12q0 -46 25 -62l47 212q-32 -11 -52 -57.5t-20 -92.5z" />
    <glyph glyph-name="centsuperior" unicode="&#xf6e0;" horiz-adv-x="217" 
d="M153 416l12 56q-66 18 -66 107q0 71 38 131t94 63l10 42h39l-11 -48q27 -10 43 -33l-29 -31q-10 16 -23 23l-47 -215q17 4 32 21l15 -35q-22 -24 -56 -28l-12 -53h-39zM150 579q0 -46 25 -62l47 212q-32 -11 -52 -57.5t-20 -92.5z" />
    <glyph glyph-name="commainferior" unicode="&#xf6e1;" horiz-adv-x="141" 
d="M26 -114q0 -28 -21.5 -60t-50.5 -48l-19 22q41 24 50 52q-2 -1 -5 -1q-10 0 -18.5 8.5t-8.5 21.5q0 17 12.5 28t28.5 11q13 0 22.5 -9.5t9.5 -24.5z" />
    <glyph glyph-name="commasuperior" unicode="&#xf6e2;" horiz-adv-x="141" 
d="M151 453q0 -28 -21.5 -60t-50.5 -48l-19 22q41 24 50 52q-2 -1 -5 -1q-10 0 -18.5 8.5t-8.5 21.5q0 17 12.5 28t28.5 11q13 0 22.5 -9.5t9.5 -24.5z" />
    <glyph glyph-name="dollarinferior" unicode="&#xf6e3;" horiz-adv-x="241" 
d="M6 -206l12 55q-54 8 -80 46l33 38q19 -32 57 -38l32 147q-20 18 -29 27t-19.5 29t-10.5 41q0 48 31 82.5t76 37.5l13 56h41l-13 -59q40 -8 62 -36l-31 -39q-15 22 -42 29l-30 -136q57 -51 57 -100q0 -48 -29 -84t-77 -42l-12 -54h-41zM58 147q0 -21 17 -40l22 102
q-39 -18 -39 -62zM108 -31q0 20 -14 39l-24 -107q38 19 38 68z" />
    <glyph glyph-name="dollarsuperior" unicode="&#xf6e4;" horiz-adv-x="241" 
d="M131 361l12 55q-54 8 -80 46l33 38q18 -32 57 -38l32 147q-20 18 -29 27t-19.5 29t-10.5 41q0 48 31 82.5t76 37.5l13 56h41l-13 -59q40 -8 62 -36l-31 -39q-15 22 -42 29l-30 -136q57 -51 57 -100t-29 -85t-77 -41l-12 -54h-41zM183 714q0 -21 17 -40l22 102
q-39 -18 -39 -62zM233 536q0 18 -14 39l-24 -108q38 21 38 69z" />
    <glyph glyph-name="hypheninferior" unicode="&#xf6e5;" horiz-adv-x="150" 
d="M85 32h-114l9 43h114z" />
    <glyph glyph-name="hyphensuperior" unicode="&#xf6e6;" horiz-adv-x="150" 
d="M210 600h-114l9 43h114z" />
    <glyph glyph-name="periodinferior" unicode="&#xf6e7;" horiz-adv-x="140" 
d="M26 -112q0 -16 -12.5 -27.5t-28.5 -11.5q-13 0 -22.5 9.5t-9.5 22.5q0 16 12.5 27.5t28.5 11.5q14 0 23 -9t9 -23z" />
    <glyph glyph-name="periodsuperior" unicode="&#xf6e8;" horiz-adv-x="140" 
d="M151 455q0 -16 -12.5 -27.5t-28.5 -11.5q-14 0 -23 9t-9 23q0 16 12.5 27.5t28.5 11.5q14 0 23 -9t9 -23z" />
    <glyph glyph-name="asuperior" unicode="&#xf6e9;" horiz-adv-x="279" 
d="M217 605q-37 0 -62 -60.5t-25 -117.5q0 -66 41 -66q30 0 60 54l30 141q-2 20 -14.5 34.5t-29.5 14.5zM280 640h53l-69 -314h-53l9 43q-32 -51 -73 -51q-71 0 -71 106q0 76 36 150t93 74q21 0 39.5 -13.5t26.5 -36.5z" />
    <glyph glyph-name="bsuperior" unicode="&#xf6ea;" horiz-adv-x="292" 
d="M179 361q37 0 62 60.5t25 117.5q0 66 -40 66q-32 0 -60 -54l-31 -141q2 -20 15 -34.5t29 -14.5zM116 326h-53l96 434h53l-36 -163q32 51 73 51q72 0 72 -106q0 -47 -14.5 -97t-45.5 -88.5t-70 -38.5q-21 0 -39.5 13.5t-25.5 36.5z" />
    <glyph glyph-name="dsuperior" unicode="&#xf6eb;" horiz-adv-x="291" 
d="M217 605q-37 0 -62 -60.5t-25 -117.5q0 -66 41 -66q30 0 60 54l30 141q-2 20 -14.5 34.5t-29.5 14.5zM307 760h53l-96 -434h-53l9 43q-32 -51 -73 -51q-71 0 -71 106q0 76 36 150t93 74q21 0 39.5 -13.5t26.5 -36.5z" />
    <glyph glyph-name="esuperior" unicode="&#xf6ec;" horiz-adv-x="281" 
d="M180 318q-47 0 -75 29t-28 85q0 79 40.5 147.5t104.5 68.5q46 0 68 -32.5t22 -79.5q0 -36 -9 -71h-172q-4 -14 -4 -35q0 -31 15.5 -51t43.5 -20q33 0 65 34l22 -29q-41 -46 -93 -46zM255 503h4q4 24 4 37q0 68 -45 68q-55 0 -79 -105h116z" />
    <glyph glyph-name="isuperior" unicode="&#xf6ed;" horiz-adv-x="143" 
d="M172 686q-13 0 -21.5 9t-8.5 22q0 16 12 28t28 12q13 0 22 -9t9 -22q0 -16 -12 -28t-29 -12zM116 326h-53l69 314h53z" />
    <glyph glyph-name="lsuperior" unicode="&#xf6ee;" horiz-adv-x="143" 
d="M116 326h-53l96 434h53z" />
    <glyph glyph-name="msuperior" unicode="&#xf6ef;" horiz-adv-x="424" 
d="M397 326h-52l51 234q2 10 2 14q0 30 -28 30q-29 0 -64 -54l-49 -224h-53l52 234q2 10 2 14q0 30 -28 30q-17 0 -34.5 -16.5t-29.5 -37.5l-50 -224h-53l69 314h53l-9 -43q14 21 36 36t45 15q30 0 43.5 -15.5t13.5 -38.5q35 54 82 54q58 0 58 -49q0 -10 -2 -24z" />
    <glyph glyph-name="osuperior" unicode="&#xf6f0;" horiz-adv-x="289" 
d="M173 318q-48 0 -72 29.5t-24 82.5q0 43 14.5 91.5t49 87.5t79.5 39q96 0 96 -112q0 -44 -14.5 -92t-48.5 -87t-80 -39zM175 363q40 0 63.5 62.5t23.5 112.5q0 64 -44 64q-40 0 -63.5 -62t-23.5 -112q0 -65 44 -65z" />
    <glyph glyph-name="rsuperior" unicode="&#xf6f1;" horiz-adv-x="190" 
d="M116 326h-53l69 314h53l-10 -49q37 56 90 56l-13 -53q-3 1 -13 1q-38 0 -75 -53z" />
    <glyph glyph-name="ssuperior" unicode="&#xf6f2;" horiz-adv-x="229" 
d="M140 318q-64 0 -95 48l32 33q23 -41 62 -41q24 0 39.5 16t15.5 40q0 18 -15.5 34.5t-34 27.5t-34 32t-15.5 48q0 38 28 65t69 27q58 0 88 -43l-30 -30q-21 34 -57 34q-20 0 -33.5 -14.5t-13.5 -35.5q0 -16 15.5 -31.5t34 -27t34 -32.5t15.5 -48q0 -42 -30 -72t-75 -30z
" />
    <glyph glyph-name="tsuperior" unicode="&#xf6f3;" horiz-adv-x="171" 
d="M140 318q-59 0 -59 46q0 14 3 27l46 209h-34l8 40h35l19 86h52l-19 -86h45l-9 -40h-44l-46 -206q-3 -10 -3 -16q0 -18 19 -18q14 0 22 9l7 -36q-20 -15 -42 -15z" />
    <glyph glyph-name="Lslash.smcp" unicode="&#xf6f9;" horiz-adv-x="314" 
d="M10 193l14 66l59 30l58 261h71l-49 -219l71 36l-14 -67l-71 -36l-44 -201h148l-13 -63h-220l49 223z" />
    <glyph glyph-name="OE.smcp" unicode="&#xf6fa;" horiz-adv-x="527" 
d="M436 0h-219l10 46q-34 -58 -89 -58q-53 0 -81.5 43t-28.5 116q0 52 12.5 118t36.5 135t68 115.5t98 46.5q30 0 53 -18.5t29 -54.5l13 61h219l-13 -63h-149l-38 -174h142l-14 -62h-142l-41 -188h148zM251 155l53 241q0 103 -57 103q-35 0 -65 -42.5t-46.5 -102t-26 -114.5
t-9.5 -88q0 -101 58 -101q29 0 50.5 26t42.5 78z" />
    <glyph glyph-name="Scaron.smcp" unicode="&#xf6fd;" horiz-adv-x="309" 
d="M109 -12q-87 0 -131 63l45 50q31 -50 83 -50q34 0 57 30t23 74q0 30 -18 60.5t-39 52t-39 56t-18 72.5q0 69 43.5 117.5t105.5 48.5q70 0 111 -50l-42 -51q-25 38 -69 38q-29 0 -51.5 -28t-22.5 -64q0 -27 18 -56t40 -51.5t40 -61t18 -82.5q0 -65 -45 -116.5t-109 -51.5z
M274 606h-67l-36 144h39l37 -105l81 105h44z" />
    <glyph glyph-name="Zcaron.smcp" unicode="&#xf6ff;" horiz-adv-x="292" 
d="M211 0h-238l12 56l247 431h-152l14 63h232l-12 -55l-248 -432h159zM258 606h-67l-36 144h39l37 -105l81 105h44z" />
    <glyph glyph-name="exclam.smcp" unicode="&#xf721;" horiz-adv-x="182" 
d="M198 550l-100 -389h-52l72 389h80zM41 -10q-19 0 -33 14t-14 33q0 23 17 39.5t40 16.5q19 0 33 -13.5t14 -33.5q0 -23 -17 -39.5t-40 -16.5z" />
    <glyph glyph-name="dollar.onum" unicode="&#xf724;" horiz-adv-x="309" 
d="M61 -74l14 65q-64 11 -97 60l45 50q26 -42 66 -49l46 208q-20 23 -31 38.5t-21.5 42.5t-10.5 55q0 64 37.5 110.5t92.5 54.5l15 67h53l-16 -69q48 -11 78 -47l-42 -51q-19 29 -50 35l-42 -189q20 -24 31.5 -40.5t22.5 -47t11 -63.5q0 -59 -39 -108.5t-96 -57.5l-14 -64
h-53zM186 155q0 27 -15 55l-32 -151q47 27 47 96zM147 407q0 -26 14 -51l30 134q-19 -11 -31.5 -34t-12.5 -49z" />
    <glyph glyph-name="ampersand.smcp" unicode="&#xf726;" horiz-adv-x="341" 
d="M283 0h-68q-6 14 -16 40q-53 -51 -101 -51q-45 0 -73 30t-28 76q0 50 19 91.5t42 66t59 52.5q-7 38 -7 72q0 75 36 130t85 55q34 0 56 -24t22 -64q0 -32 -9.5 -58.5t-33 -51.5t-37 -37t-48.5 -39q12 -45 17 -62q10 -34 24 -74q28 50 58 119l48 -26q-41 -94 -84 -153
q13 -33 39 -92zM109 40q32 0 72 50q-12 31 -30 89q-15 45 -20 66q-68 -63 -68 -144q0 -25 12.5 -43t33.5 -18zM169 377q0 -20 1 -31q39 31 59.5 60t20.5 67q0 40 -23 40q-22 0 -40 -41.5t-18 -94.5z" />
    <glyph glyph-name="zero.onum" unicode="&#xf730;" horiz-adv-x="412" 
d="M392 388q0 -44 -13 -107t-38.5 -131t-72 -115t-103.5 -47q-60 0 -96 43.5t-36 130.5q0 44 13 107t38.5 131t71.5 115t103 47q61 0 97 -43.5t36 -130.5zM316 394q0 100 -63 100q-37 0 -67 -44.5t-45.5 -105.5t-23.5 -111.5t-8 -76.5q0 -100 62 -100q37 0 67 44.5t46 105.5
t24 111.5t8 76.5z" />
    <glyph glyph-name="one.onum" unicode="&#xf731;" horiz-adv-x="292" 
d="M175 0h-75l99 450l-123 -106l-35 47l188 159h67z" />
    <glyph glyph-name="two.onum" unicode="&#xf732;" horiz-adv-x="384" 
d="M278 0h-281l14 64q154 124 220.5 208.5t66.5 148.5q0 35 -17.5 54.5t-48.5 19.5q-59 0 -105 -78l-47 43q69 102 159 102q65 0 102.5 -34t37.5 -93q0 -151 -264 -368h177z" />
    <glyph glyph-name="three.onum" unicode="&#xf733;" horiz-adv-x="390" 
d="M129 -129q-59 0 -102 34.5t-57 99.5l65 34q19 -100 94 -100q49 0 78.5 53.5t29.5 118.5q0 40 -21.5 60.5t-52.5 20.5q-23 0 -31 -1l16 69q7 -1 45 -1q50 0 78 47.5t28 109.5q0 76 -71 76q-60 0 -100 -71l-46 43q63 96 158 96q63 0 101 -34.5t38 -97.5q0 -71 -39 -131.5
t-99 -73.5q71 -27 71 -124q0 -88 -52.5 -158t-130.5 -70z" />
    <glyph glyph-name="four.onum" unicode="&#xf734;" horiz-adv-x="366" 
d="M311 58h-53l-39 -175h-75l39 175h-211l15 70l289 422h90l-94 -425h53zM197 125l73 330l-219 -330h146z" />
    <glyph glyph-name="five.onum" unicode="&#xf735;" horiz-adv-x="393" 
d="M130 -129q-121 0 -150 133l64 33q14 -98 87 -98q46 0 82.5 69t36.5 148q0 80 -61 80q-45 0 -92 -53l-52 24l76 343h273l-15 -67h-197l-50 -231q38 48 93 48q48 0 76.5 -36.5t28.5 -99.5q0 -113 -58 -203t-142 -90z" />
    <glyph glyph-name="six.onum" unicode="&#xf736;" horiz-adv-x="392" 
d="M165 -12q-67 0 -98 48t-31 127q0 55 15 135t43.5 168t83 149.5t121.5 61.5q45 0 79 -28t44 -75l-55 -44q-4 37 -23 58t-49 21q-98 0 -159 -263l-4 -22q52 92 120 92q47 0 77 -35.5t30 -99.5t-21.5 -129.5t-67.5 -114.5t-105 -49zM170 56q35 0 61.5 40.5t38 88.5t11.5 88
q0 35 -14.5 57t-44.5 22q-54 0 -104 -103q-10 -52 -10 -94q0 -99 62 -99z" />
    <glyph glyph-name="seven.onum" unicode="&#xf737;" horiz-adv-x="330" 
d="M78 -117h-83l281 600h-202l14 67h288l-12 -52z" />
    <glyph glyph-name="eight.onum" unicode="&#xf738;" horiz-adv-x="391" 
d="M161 -12q-148 0 -148 134q0 71 39 133t114 95q-28 21 -47 58t-19 78q0 74 50 132.5t122 58.5q58 0 98 -32.5t40 -100.5q0 -76 -42 -129t-100 -76q33 -25 51.5 -64.5t18.5 -81.5q0 -88 -51 -146.5t-126 -58.5zM223 370q42 17 75 58.5t33 107.5q0 73 -64 73
q-38 0 -65 -40.5t-27 -97.5q0 -31 14.5 -59t33.5 -42zM160 56q39 0 70.5 44t31.5 105q0 42 -17 72t-34 40q-47 -17 -83 -66t-36 -114q0 -41 19 -61t49 -20z" />
    <glyph glyph-name="nine.onum" unicode="&#xf739;" horiz-adv-x="392" 
d="M240 561q67 0 98 -48t31 -127q0 -55 -15 -135t-43.5 -168t-83 -149.5t-121.5 -61.5q-45 0 -79 28t-44 75l56 44q4 -37 22.5 -58t48.5 -21q98 0 159 263q2 6 2.5 12.5t1.5 9.5q-52 -92 -120 -92q-47 0 -77 35.5t-30 99.5t21.5 129.5t67.5 114.5t105 49zM236 493
q-35 0 -62 -40.5t-38.5 -88.5t-11.5 -88q0 -34 14.5 -56.5t44.5 -22.5q56 0 104 103q10 52 10 94q0 99 -61 99z" />
    <glyph glyph-name="question.smcp" unicode="&#xf73f;" horiz-adv-x="273" 
d="M301 463q0 -38 -16 -69t-38.5 -52t-45 -39t-38.5 -39.5t-16 -44.5q0 -18 11 -34l-59 -25q-13 23 -13 52q0 30 14.5 56t35 44.5t41.5 37t35.5 43.5t14.5 54q0 24 -12 39.5t-38 15.5q-30 0 -58 -25l-28 44q49 41 103 41q48 0 77.5 -27t29.5 -72zM89 -10q-19 0 -33 14
t-14 33q0 23 17 39.5t40 16.5q19 0 33 -13.5t14 -33.5q0 -23 -17 -39.5t-40 -16.5z" />
    <glyph glyph-name="A.smcp" unicode="&#xf761;" horiz-adv-x="314" 
d="M184 550h81l-10 -550h-73l6 124h-114l-48 -124h-75zM193 187l13 275l-110 -275h97z" />
    <glyph glyph-name="B.smcp" unicode="&#xf762;" horiz-adv-x="341" 
d="M138 0h-136l121 550h97q56 0 89.5 -28.5t33.5 -80.5q0 -55 -27 -101.5t-76 -59.5q52 -22 52 -94t-40.5 -129t-113.5 -57zM87 63h49q37 0 60 38.5t23 86.5q0 30 -14 46.5t-39 16.5h-38zM181 487l-40 -174h47q34 0 56 36.5t22 78.5q0 59 -64 59h-21z" />
    <glyph glyph-name="C.smcp" unicode="&#xf763;" horiz-adv-x="351" 
d="M155 -12q-127 0 -127 167q0 48 13 113t37.5 133t69.5 114.5t100 46.5q51 0 81 -31.5t36 -86.5l-63 -14q-8 69 -55 69q-34 0 -63.5 -41t-46.5 -99t-26.5 -112.5t-9.5 -90.5q0 -105 59 -105q25 0 42 17.5t36 55.5l55 -26q-29 -54 -60.5 -82t-77.5 -28z" />
    <glyph glyph-name="D.smcp" unicode="&#xf764;" horiz-adv-x="386" 
d="M133 0h-131l121 550h87q159 0 159 -174q0 -55 -13.5 -116t-40 -121.5t-74.5 -99.5t-108 -39zM140 63h2q46 0 83 57.5t53.5 127t16.5 127.5q0 60 -23 86t-69 26h-22l-94 -424h53z" />
    <glyph glyph-name="E.smcp" unicode="&#xf765;" horiz-adv-x="313" 
d="M222 0h-220l121 550h220l-14 -63h-148l-39 -174h142l-14 -62h-142l-41 -188h148z" />
    <glyph glyph-name="F.smcp" unicode="&#xf766;" horiz-adv-x="311" 
d="M73 0h-71l121 550h220l-14 -63h-148l-39 -174h142l-14 -62h-142z" />
    <glyph glyph-name="G.smcp" unicode="&#xf767;" horiz-adv-x="371" 
d="M160 -12q-132 0 -132 166q0 55 14 122t39.5 132.5t69.5 109.5t97 44q52 0 81 -32.5t35 -85.5l-62 -14q-10 69 -57 69q-32 0 -61 -40t-46 -97t-27 -113t-10 -95q0 -56 15.5 -79.5t46.5 -23.5q38 0 59 28l32 144h-71l14 60h135l-53 -241q-54 -54 -119 -54z" />
    <glyph glyph-name="H.smcp" unicode="&#xf768;" horiz-adv-x="389" 
d="M279 0h-72l55 251h-133l-56 -251h-71l121 550h71l-52 -236h134l52 236h72z" />
    <glyph glyph-name="I.smcp" unicode="&#xf769;" horiz-adv-x="183" 
d="M73 0h-71l121 550h71z" />
    <glyph glyph-name="J.smcp" unicode="&#xf76a;" horiz-adv-x="283" 
d="M62 -12q-75 0 -103 46l37 52q18 -35 60 -35q29 0 46 17t26 55l94 427h72l-96 -434q-15 -69 -48.5 -98.5t-87.5 -29.5z" />
    <glyph glyph-name="K.smcp" unicode="&#xf76b;" horiz-adv-x="370" 
d="M306 0h-81l-66 233l-49 -66l-37 -167h-71l121 550h71l-58 -268l199 268h81l-204 -261z" />
    <glyph glyph-name="L.smcp" unicode="&#xf76c;" horiz-adv-x="296" 
d="M222 0h-220l121 550h71l-107 -487h148z" />
    <glyph glyph-name="M.smcp" unicode="&#xf76d;" horiz-adv-x="490" 
d="M380 0h-70l91 415l-194 -415h-31l-11 415l-92 -415h-71l121 550h92l11 -387l182 387h93z" />
    <glyph glyph-name="N.smcp" unicode="&#xf76e;" horiz-adv-x="385" 
d="M275 0h-72l-41 400l-89 -400h-71l121 550h76l40 -390l86 390h71z" />
    <glyph glyph-name="O.smcp" unicode="&#xf76f;" horiz-adv-x="393" 
d="M155 -12q-60 0 -93.5 42t-33.5 123q0 43 11.5 105.5t35 133.5t69.5 120.5t105 49.5q60 0 94 -42t34 -123q0 -32 -6.5 -79t-23 -105.5t-41 -108t-64 -83t-87.5 -33.5zM158 51q37 0 67 44.5t46 106t24.5 114.5t8.5 82q0 101 -57 101q-36 0 -66.5 -44.5t-46.5 -106t-25 -115
t-9 -81.5q0 -101 58 -101z" />
    <glyph glyph-name="P.smcp" unicode="&#xf770;" horiz-adv-x="333" 
d="M73 0h-71l121 550h97q58 0 92 -33t34 -94q0 -78 -45 -142t-124 -64h-56zM179 280h1q41 0 66 43.5t25 93.5q0 70 -64 70h-26l-46 -207h44z" />
    <glyph glyph-name="Q.smcp" unicode="&#xf771;" horiz-adv-x="393" 
d="M155 -12q-60 0 -93.5 42t-33.5 123q0 43 11.5 105.5t35 133.5t69.5 120.5t105 49.5q60 0 94 -42t34 -123q0 -48 -12.5 -116.5t-47 -149.5t-83.5 -117l6 -36l-58 -11l-4 24q-10 -3 -23 -3zM158 51q7 0 11 1l-18 114l58 11l13 -85q38 53 60 153t22 153q0 101 -57 101
q-36 0 -66.5 -44.5t-46.5 -106t-25 -115t-9 -81.5q0 -101 58 -101z" />
    <glyph glyph-name="R.smcp" unicode="&#xf772;" horiz-adv-x="350" 
d="M263 0h-77l-23 217h-42l-48 -217h-71l121 550h101q56 0 89.5 -34.5t33.5 -93.5q0 -67 -34 -124t-83 -72zM169 280h12q41 0 66 44.5t25 91.5q0 35 -16 53t-43 18h-32l-46 -207h34z" />
    <glyph glyph-name="S.smcp" unicode="&#xf773;" horiz-adv-x="309" 
d="M109 -12q-87 0 -131 63l45 50q31 -50 83 -50q34 0 57 30t23 74q0 30 -18 60.5t-39 52t-39 56t-18 72.5q0 69 43.5 117.5t105.5 48.5q70 0 111 -50l-42 -51q-25 38 -69 38q-29 0 -51.5 -28t-22.5 -64q0 -27 18 -56t40 -51.5t40 -61t18 -82.5q0 -65 -45 -116.5t-109 -51.5z
" />
    <glyph glyph-name="T.smcp" unicode="&#xf774;" horiz-adv-x="272" 
d="M117 0h-71l107 487h-85l14 63h242l-14 -63h-85z" />
    <glyph glyph-name="U.smcp" unicode="&#xf775;" horiz-adv-x="389" 
d="M158 -12q-63 0 -95.5 29t-32.5 81q0 33 8 65l85 387h71l-88 -400q-5 -23 -5 -36q0 -63 59 -63q31 0 50 25t31 79l87 395h72l-86 -385q-20 -88 -55.5 -132.5t-100.5 -44.5z" />
    <glyph glyph-name="V.smcp" unicode="&#xf776;" horiz-adv-x="314" 
d="M144 0h-81l9 550h73l-20 -447l176 447h75z" />
    <glyph glyph-name="W.smcp" unicode="&#xf777;" horiz-adv-x="480" 
d="M322 0h-74l27 404l-151 -404h-74l24 550h74l-29 -414l158 414h60l-25 -415l154 415h73z" />
    <glyph glyph-name="X.smcp" unicode="&#xf778;" horiz-adv-x="324" 
d="M267 0h-77l-34 216l-128 -216h-80l178 280l-50 270h77l30 -206l119 206h80l-169 -269z" />
    <glyph glyph-name="Y.smcp" unicode="&#xf779;" horiz-adv-x="328" 
d="M146 0h-72l51 233l-59 317h75l36 -243l142 243h77l-199 -317z" />
    <glyph glyph-name="Z.smcp" unicode="&#xf77a;" horiz-adv-x="292" 
d="M211 0h-238l12 56l247 431h-152l14 63h232l-12 -55l-248 -432h159z" />
    <glyph glyph-name="exclamdown.smcp" unicode="&#xf7a1;" horiz-adv-x="182" 
d="M-16 0l100 389h52l-72 -389h-80zM141 560q19 0 33 -14t14 -33q0 -23 -17 -39.5t-40 -16.5q-19 0 -33 13.5t-14 33.5q0 23 17 39.5t40 16.5z" />
    <glyph glyph-name="questiondown.smcp" unicode="&#xf7b8;" horiz-adv-x="273" 
d="M-28 87q0 38 16 69t38.5 52t45 39t38.5 39.5t16 44.5q0 18 -11 34l59 25q13 -23 13 -52q0 -30 -14.5 -56t-35.5 -44.5t-41.5 -37t-35 -43.5t-14.5 -54q0 -24 12 -39.5t38 -15.5q30 0 58 25l28 -44q-49 -41 -103 -41q-48 0 -77.5 27t-29.5 72zM184 560q20 0 33.5 -14
t13.5 -33q0 -23 -17 -39.5t-40 -16.5q-20 0 -33.5 13.5t-13.5 33.5q0 23 17 39.5t40 16.5z" />
    <glyph glyph-name="Agrave.smcp" unicode="&#xf7e0;" horiz-adv-x="314" 
d="M184 550h81l-10 -550h-73l6 124h-114l-48 -124h-75zM193 187l13 275l-110 -275h97zM288 606h-46l-68 144h68z" />
    <glyph glyph-name="Aacute.smcp" unicode="&#xf7e1;" horiz-adv-x="314" 
d="M184 550h81l-10 -550h-73l6 124h-114l-48 -124h-75zM193 187l13 275l-110 -275h97zM365 750l-132 -144h-48l111 144h69z" />
    <glyph glyph-name="Acircumflex.smcp" unicode="&#xf7e2;" horiz-adv-x="314" 
d="M184 550h81l-10 -550h-73l6 124h-114l-48 -124h-75zM193 187l13 275l-110 -275h97zM338 606h-40l-38 105l-80 -105h-43l97 144h67z" />
    <glyph glyph-name="Atilde.smcp" unicode="&#xf7e3;" horiz-adv-x="314" 
d="M184 550h81l-10 -550h-73l6 124h-114l-48 -124h-75zM193 187l13 275l-110 -275h97zM282 604q-21 0 -30.5 15t-10.5 32.5t-7 32.5t-19 15q-31 0 -50 -89h-40q30 134 96 134q21 0 31 -15t11 -32.5t7 -32.5t19 -15q30 0 50 89h41q-31 -134 -98 -134z" />
    <glyph glyph-name="Adieresis.smcp" unicode="&#xf7e4;" horiz-adv-x="314" 
d="M184 550h81l-10 -550h-73l6 124h-114l-48 -124h-75zM193 187l13 275l-110 -275h97zM361 663q0 -19 -14.5 -33.5t-33.5 -14.5q-17 0 -28 11t-11 27q0 19 15 34t34 15q16 0 27 -11t11 -28zM221 663q0 -19 -14.5 -33.5t-34.5 -14.5q-17 0 -28 11t-11 27q0 19 14.5 34
t34.5 15q16 0 27.5 -11t11.5 -28z" />
    <glyph glyph-name="Aring.smcp" unicode="&#xf7e5;" horiz-adv-x="314" 
d="M184 550h81l-10 -550h-73l6 124h-114l-48 -124h-75zM193 187l13 275l-110 -275h97zM245 604q-32 0 -53 21.5t-21 54.5q0 37 28 64.5t65 27.5q32 0 52.5 -21.5t20.5 -54.5q0 -37 -27.5 -64.5t-64.5 -27.5zM248 640q22 0 38 15.5t16 37.5q0 18 -11.5 30.5t-29.5 12.5
q-22 0 -37.5 -15.5t-15.5 -37.5q0 -18 11 -30.5t29 -12.5z" />
    <glyph glyph-name="AE.smcp" unicode="&#xf7e6;" horiz-adv-x="471" 
d="M380 0h-219l27 124h-103l-65 -124h-75l306 550h250l-14 -63h-147l-39 -174h141l-13 -62h-142l-41 -188h147zM202 187l61 276l-147 -276h86z" />
    <glyph glyph-name="Ccedilla.smcp" unicode="&#xf7e7;" horiz-adv-x="351" 
d="M101 -190q-51 0 -81 36l25 33q21 -32 58 -32q22 0 36 15t14 35q0 27 -25 27q-14 0 -28 -14l-27 17l40 67q-85 26 -85 161q0 48 13 113t37.5 133t69.5 114.5t100 46.5q51 0 81 -31.5t36 -86.5l-63 -14q-8 69 -55 69q-34 0 -63.5 -41t-46.5 -99t-26.5 -112.5t-9.5 -90.5
q0 -105 59 -105q25 0 42 17.5t36 55.5l55 -26q-29 -54 -60.5 -82t-77.5 -28h-4l-27 -44q10 10 24 10q21 0 34.5 -15.5t13.5 -39.5q0 -37 -27.5 -63t-67.5 -26z" />
    <glyph glyph-name="Egrave.smcp" unicode="&#xf7e8;" horiz-adv-x="313" 
d="M222 0h-220l121 550h220l-14 -63h-148l-39 -174h142l-14 -62h-142l-41 -188h148zM298 606h-46l-68 144h68z" />
    <glyph glyph-name="Eacute.smcp" unicode="&#xf7e9;" horiz-adv-x="313" 
d="M222 0h-220l121 550h220l-14 -63h-148l-39 -174h142l-14 -62h-142l-41 -188h148zM375 750l-132 -144h-48l111 144h69z" />
    <glyph glyph-name="Ecircumflex.smcp" unicode="&#xf7ea;" horiz-adv-x="313" 
d="M222 0h-220l121 550h220l-14 -63h-148l-39 -174h142l-14 -62h-142l-41 -188h148zM346 606h-40l-38 105l-80 -105h-43l97 144h67z" />
    <glyph glyph-name="Edieresis.smcp" unicode="&#xf7eb;" horiz-adv-x="313" 
d="M222 0h-220l121 550h220l-14 -63h-148l-39 -174h142l-14 -62h-142l-41 -188h148zM372 663q0 -19 -14.5 -33.5t-33.5 -14.5q-17 0 -28 11t-11 27q0 19 14.5 34t34.5 15q16 0 27 -11t11 -28zM232 663q0 -19 -14.5 -33.5t-34.5 -14.5q-17 0 -28 11t-11 27q0 19 15 34t34 15
q17 0 28 -11t11 -28z" />
    <glyph glyph-name="Igrave.smcp" unicode="&#xf7ec;" horiz-adv-x="182" 
d="M73 0h-71l121 550h71zM222 606h-46l-68 144h68z" />
    <glyph glyph-name="Iacute.smcp" unicode="&#xf7ed;" horiz-adv-x="182" 
d="M73 0h-71l121 550h71zM299 750l-132 -144h-48l111 144h69z" />
    <glyph glyph-name="Icircumflex.smcp" unicode="&#xf7ee;" horiz-adv-x="182" 
d="M73 0h-71l121 550h71zM272 606h-40l-38 105l-80 -105h-43l97 144h67z" />
    <glyph glyph-name="Idieresis.smcp" unicode="&#xf7ef;" horiz-adv-x="182" 
d="M73 0h-71l121 550h71zM297 663q0 -19 -14.5 -33.5t-33.5 -14.5q-17 0 -28 11t-11 27q0 19 15 34t34 15q16 0 27 -11t11 -28zM157 663q0 -19 -14.5 -33.5t-34.5 -14.5q-17 0 -28 11t-11 27q0 19 14.5 34t34.5 15q16 0 27.5 -11t11.5 -28z" />
    <glyph glyph-name="Eth.smcp" unicode="&#xf7f0;" horiz-adv-x="415" 
d="M156 0h-131l56 254h-58l12 52h57l54 244h87q159 0 159 -174q0 -55 -13.5 -116t-40 -121.5t-74.5 -99.5t-108 -39zM165 63q46 0 83 57.5t53.5 127t16.5 127.5q0 60 -23 86t-69 26h-22l-40 -181h67l-12 -52h-67l-42 -191h55z" />
    <glyph glyph-name="Ntilde.smcp" unicode="&#xf7f1;" horiz-adv-x="385" 
d="M275 0h-72l-41 400l-89 -400h-71l121 550h76l40 -390l86 390h71zM315 604q-21 0 -30.5 15t-10.5 32.5t-7 32.5t-19 15q-31 0 -50 -89h-40q30 134 96 134q21 0 31 -15t11 -32.5t7 -32.5t19 -15q30 0 50 89h41q-31 -134 -98 -134z" />
    <glyph glyph-name="Ograve.smcp" unicode="&#xf7f2;" horiz-adv-x="393" 
d="M155 -12q-60 0 -93.5 42t-33.5 123q0 43 11.5 105.5t35 133.5t69.5 120.5t105 49.5q60 0 94 -42t34 -123q0 -32 -6.5 -79t-23 -105.5t-41 -108t-64 -83t-87.5 -33.5zM158 51q37 0 67 44.5t46 106t24.5 114.5t8.5 82q0 101 -57 101q-36 0 -66.5 -44.5t-46.5 -106t-25 -115
t-9 -81.5q0 -101 58 -101zM327 606h-46l-68 144h68z" />
    <glyph glyph-name="Oacute.smcp" unicode="&#xf7f3;" horiz-adv-x="393" 
d="M155 -12q-60 0 -93.5 42t-33.5 123q0 43 11.5 105.5t35 133.5t69.5 120.5t105 49.5q60 0 94 -42t34 -123q0 -32 -6.5 -79t-23 -105.5t-41 -108t-64 -83t-87.5 -33.5zM158 51q37 0 67 44.5t46 106t24.5 114.5t8.5 82q0 101 -57 101q-36 0 -66.5 -44.5t-46.5 -106t-25 -115
t-9 -81.5q0 -101 58 -101zM404 750l-132 -144h-48l111 144h69z" />
    <glyph glyph-name="Ocircumflex.smcp" unicode="&#xf7f4;" horiz-adv-x="393" 
d="M155 -12q-60 0 -93.5 42t-33.5 123q0 43 11.5 105.5t35 133.5t69.5 120.5t105 49.5q60 0 94 -42t34 -123q0 -32 -6.5 -79t-23 -105.5t-41 -108t-64 -83t-87.5 -33.5zM158 51q37 0 67 44.5t46 106t24.5 114.5t8.5 82q0 101 -57 101q-36 0 -66.5 -44.5t-46.5 -106t-25 -115
t-9 -81.5q0 -101 58 -101zM377 606h-40l-38 105l-80 -105h-43l97 144h67z" />
    <glyph glyph-name="Otilde.smcp" unicode="&#xf7f5;" horiz-adv-x="393" 
d="M155 -12q-60 0 -93.5 42t-33.5 123q0 43 11.5 105.5t35 133.5t69.5 120.5t105 49.5q60 0 94 -42t34 -123q0 -32 -6.5 -79t-23 -105.5t-41 -108t-64 -83t-87.5 -33.5zM158 51q37 0 67 44.5t46 106t24.5 114.5t8.5 82q0 101 -57 101q-36 0 -66.5 -44.5t-46.5 -106t-25 -115
t-9 -81.5q0 -101 58 -101zM320 604q-21 0 -30.5 15t-10.5 32.5t-7 32.5t-19 15q-31 0 -50 -89h-40q30 134 96 134q21 0 31 -15t11 -32.5t7 -32.5t19 -15q30 0 50 89h41q-31 -134 -98 -134z" />
    <glyph glyph-name="Odieresis.smcp" unicode="&#xf7f6;" horiz-adv-x="393" 
d="M155 -12q-60 0 -93.5 42t-33.5 123q0 43 11.5 105.5t35 133.5t69.5 120.5t105 49.5q60 0 94 -42t34 -123q0 -32 -6.5 -79t-23 -105.5t-41 -108t-64 -83t-87.5 -33.5zM158 51q37 0 67 44.5t46 106t24.5 114.5t8.5 82q0 101 -57 101q-36 0 -66.5 -44.5t-46.5 -106t-25 -115
t-9 -81.5q0 -101 58 -101zM400 663q0 -19 -14.5 -33.5t-33.5 -14.5q-17 0 -28 11t-11 27q0 19 14.5 34t34.5 15q16 0 27 -11t11 -28zM260 663q0 -19 -14.5 -33.5t-34.5 -14.5q-17 0 -28 11t-11 27q0 19 15 34t34 15q17 0 28 -11t11 -28z" />
    <glyph glyph-name="Oslash.smcp" unicode="&#xf7f8;" horiz-adv-x="393" 
d="M155 -12q-61 0 -94 42l-21 -30h-49l49 71q-12 33 -12 82q0 43 11.5 105.5t35 133.5t69.5 120.5t105 49.5q64 0 97 -46l23 34h49l-52 -75q11 -35 11 -78q0 -32 -6.5 -79t-23 -105.5t-41 -108t-64 -83t-87.5 -33.5zM247 499q-35 0 -64.5 -42t-46.5 -101.5t-26 -112
t-10 -85.5l199 291q-11 50 -52 50zM158 51q34 0 62.5 39t45 96.5t26 108.5t11.5 88l-197 -287q12 -45 52 -45z" />
    <glyph glyph-name="Ugrave.smcp" unicode="&#xf7f9;" horiz-adv-x="389" 
d="M158 -12q-63 0 -95.5 29t-32.5 81q0 33 8 65l85 387h71l-88 -400q-5 -23 -5 -36q0 -63 59 -63q31 0 50 25t31 79l87 395h72l-86 -385q-20 -88 -55.5 -132.5t-100.5 -44.5zM325 606h-46l-68 144h68z" />
    <glyph glyph-name="Uacute.smcp" unicode="&#xf7fa;" horiz-adv-x="389" 
d="M158 -12q-63 0 -95.5 29t-32.5 81q0 33 8 65l85 387h71l-88 -400q-5 -23 -5 -36q0 -63 59 -63q31 0 50 25t31 79l87 395h72l-86 -385q-20 -88 -55.5 -132.5t-100.5 -44.5zM403 750l-132 -144h-48l111 144h69z" />
    <glyph glyph-name="Ucircumflex.smcp" unicode="&#xf7fb;" horiz-adv-x="389" 
d="M158 -12q-63 0 -95.5 29t-32.5 81q0 33 8 65l85 387h71l-88 -400q-5 -23 -5 -36q0 -63 59 -63q31 0 50 25t31 79l87 395h72l-86 -385q-20 -88 -55.5 -132.5t-100.5 -44.5zM375 606h-40l-38 105l-80 -105h-43l97 144h67z" />
    <glyph glyph-name="Udieresis.smcp" unicode="&#xf7fc;" horiz-adv-x="389" 
d="M158 -12q-63 0 -95.5 29t-32.5 81q0 33 8 65l85 387h71l-88 -400q-5 -23 -5 -36q0 -63 59 -63q31 0 50 25t31 79l87 395h72l-86 -385q-20 -88 -55.5 -132.5t-100.5 -44.5zM399 663q0 -19 -14.5 -33.5t-33.5 -14.5q-17 0 -28 11t-11 27q0 19 15 34t34 15q16 0 27 -11
t11 -28zM259 663q0 -19 -14.5 -33.5t-34.5 -14.5q-17 0 -28 11t-11 27q0 19 14.5 34t34.5 15q16 0 27.5 -11t11.5 -28z" />
    <glyph glyph-name="Yacute.smcp" unicode="&#xf7fd;" horiz-adv-x="328" 
d="M146 0h-72l51 233l-59 317h75l36 -243l142 243h77l-199 -317zM372 750l-132 -144h-48l111 144h69z" />
    <glyph glyph-name="Thorn.smcp" unicode="&#xf7fe;" horiz-adv-x="333" 
d="M73 0h-71l121 550h71l-20 -94h25q61 0 93.5 -32t32.5 -95q0 -78 -45.5 -142t-123.5 -64h-56zM143 185h16q41 0 66 44t25 94q0 70 -64 70h-26l-46 -208h29z" />
    <glyph glyph-name="Ydieresis.smcp" unicode="&#xf7ff;" horiz-adv-x="328" 
d="M146 0h-72l51 233l-59 317h75l36 -243l142 243h77l-199 -317zM369 663q0 -19 -14.5 -33.5t-33.5 -14.5q-17 0 -28 11t-11 27q0 19 15 34t34 15q16 0 27 -11t11 -28zM229 663q0 -19 -14.5 -33.5t-34.5 -14.5q-17 0 -28 11t-11 27q0 19 14.5 34t34.5 15q16 0 27.5 -11
t11.5 -28z" />
    <glyph glyph-name="f.alt1" horiz-adv-x="224" 
d="M85 0h-69l94 423h-47l13 60h47l17 80q25 114 117 114q29 0 52 -12l-26 -55q-7 6 -21 6q-42 0 -53 -53l-18 -80h66l-13 -60h-66z" />
    <glyph glyph-name="l.alt1" horiz-adv-x="208" 
d="M100 -12q-82 0 -82 70q0 17 4 37l127 572h68l-124 -563q-4 -16 -4 -25q0 -30 29 -30q18 0 31 15l10 -54q-25 -22 -59 -22z" />
    <glyph glyph-name="a.alt1" horiz-adv-x="375" 
d="M274 0h-68l10 47q-37 -59 -98 -59q-44 0 -74 31t-30 88q0 80 42.5 140.5t107.5 60.5q29 0 56.5 -17.5t38.5 -48.5l20 88q6 27 6 42q0 32 -19 48.5t-51 16.5q-53 0 -99 -43l-19 51q58 50 131 50q58 0 93 -27t35 -78q0 -18 -7 -52zM147 38q48 0 80 59l22 96q-6 30 -25 47.5
t-46 17.5q-43 0 -67.5 -46.5t-24.5 -99.5q0 -74 61 -74z" />
    <glyph glyph-name="y.alt1" 
d="M93 -196q-42 0 -78 15.5t-54 40.5l40 53q33 -48 92 -48q76 0 102 116l20 92q-55 -77 -116 -77q-38 0 -58.5 19.5t-20.5 54.5q0 16 4 31l85 382h68l-81 -363q-2 -9 -2 -25q0 -39 38 -39q26 0 52 23t45 56l78 348h68l-112 -502q-20 -90 -61 -133.5t-109 -43.5z" />
    <glyph glyph-name="G.alt1" horiz-adv-x="411" 
d="M164 -12q-59 0 -92 48t-33 141q0 45 8.5 105t29.5 130.5t50.5 129t77 97.5t103.5 39q54 0 83 -42.5t32 -104.5l-66 -15q-2 42 -17 68t-42 26q-42 0 -78 -51t-57.5 -123.5t-33.5 -143t-12 -118.5q0 -118 60 -118q43 0 77 61.5t55 155.5h-103l14 67h178
q-37 -177 -92 -264.5t-142 -87.5z" />
    <glyph glyph-name="G.smcp.alt1" horiz-adv-x="371" 
d="M153 -12q-60 0 -92.5 42.5t-32.5 115.5q0 55 14 123t39.5 135t69.5 112.5t97 45.5q51 0 80.5 -31t37.5 -84l-61 -16q-13 68 -60 68q-34 0 -63 -44t-46 -104.5t-26.5 -116t-9.5 -87.5q0 -45 15.5 -70.5t43.5 -25.5q41 0 69.5 50t43.5 122h-89l14 59h156
q-10 -58 -26.5 -107.5t-40 -93t-58 -68.5t-75.5 -25z" />
    <glyph glyph-name="Gbreve.alt1" horiz-adv-x="411" 
d="M457 783q-58 -60 -133 -60t-106 60l40 28q9 -20 29.5 -31.5t44.5 -11.5t49.5 11.5t41.5 31.5zM164 -12q-59 0 -92 48t-33 141q0 45 8.5 105t29.5 130.5t50.5 129t77 97.5t103.5 39q54 0 83 -42.5t32 -104.5l-66 -15q-2 42 -17 68t-42 26q-42 0 -78 -51t-57.5 -123.5
t-33.5 -143t-12 -118.5q0 -118 60 -118q43 0 77 61.5t55 155.5h-103l14 67h178q-37 -177 -92 -264.5t-142 -87.5z" />
    <glyph glyph-name="Gbreve.smcp.alt1" horiz-adv-x="371" 
d="M409 664q-58 -60 -133 -60t-106 60l40 28q9 -20 29.5 -31.5t44.5 -11.5t49.5 11.5t41.5 31.5zM153 -12q-60 0 -92.5 42.5t-32.5 115.5q0 55 14 123t39.5 135t69.5 112.5t97 45.5q51 0 80.5 -31t37.5 -84l-61 -16q-13 68 -60 68q-34 0 -63 -44t-46 -104.5t-26.5 -116
t-9.5 -87.5q0 -45 15.5 -70.5t43.5 -25.5q41 0 69.5 50t43.5 122h-89l14 59h156q-10 -58 -26.5 -107.5t-40 -93t-58 -68.5t-75.5 -25z" />
    <glyph glyph-name="Gcommaaccent.alt1" horiz-adv-x="411" 
d="M184 -121q0 -41 -29.5 -81t-70.5 -62l-25 27q26 14 47 35.5t28 43.5q0 -1 -7 -1q-14 0 -24.5 11t-10.5 26q0 20 15 34.5t34 14.5t31 -12.5t12 -35.5zM164 -12q-59 0 -92 48t-33 141q0 45 8.5 105t29.5 130.5t50.5 129t77 97.5t103.5 39q54 0 83 -42.5t32 -104.5l-66 -15
q-2 42 -17 68t-42 26q-42 0 -78 -51t-57.5 -123.5t-33.5 -143t-12 -118.5q0 -118 60 -118q43 0 77 61.5t55 155.5h-103l14 67h178q-37 -177 -92 -264.5t-142 -87.5z" />
    <glyph glyph-name="Gcommaaccent.smcp.alt1" horiz-adv-x="371" 
d="M167 -121q0 -41 -29.5 -81t-70.5 -62l-25 27q26 14 47 35.5t28 43.5q0 -1 -7 -1q-14 0 -24.5 11t-10.5 26q0 20 15 34.5t34 14.5t31 -12.5t12 -35.5zM153 -12q-60 0 -92.5 42.5t-32.5 115.5q0 55 14 123t39.5 135t69.5 112.5t97 45.5q51 0 80.5 -31t37.5 -84l-61 -16
q-13 68 -60 68q-34 0 -63 -44t-46 -104.5t-26.5 -116t-9.5 -87.5q0 -45 15.5 -70.5t43.5 -25.5q41 0 69.5 50t43.5 122h-89l14 59h156q-10 -58 -26.5 -107.5t-40 -93t-58 -68.5t-75.5 -25z" />
    <glyph glyph-name="lslash.alt1" horiz-adv-x="240" 
d="M25 262l12 56l62 31l71 318h68l-61 -279l62 32l-12 -56l-63 -32l-50 -228q-4 -16 -4 -25q0 -30 29 -30q17 0 31 15l10 -54q-25 -22 -59 -22q-82 0 -82 70q0 17 4 37l44 198z" />
    <glyph glyph-name="lacute.alt1" horiz-adv-x="208" 
d="M324 872l-132 -144h-48l111 144h69zM100 -12q-82 0 -82 70q0 17 4 37l127 572h68l-124 -563q-4 -16 -4 -25q0 -30 29 -30q18 0 31 15l10 -54q-25 -22 -59 -22z" />
    <glyph glyph-name="lcommaaccent.alt1" horiz-adv-x="208" 
d="M71 -121q0 -41 -29.5 -81t-70.5 -62l-25 27q26 14 47 35.5t28 43.5q0 -1 -7 -1q-14 0 -24.5 11t-10.5 26q0 20 15 34.5t34 14.5t31 -12.5t12 -35.5zM100 -12q-82 0 -82 70q0 17 4 37l127 572h68l-124 -563q-4 -16 -4 -25q0 -30 29 -30q18 0 31 15l10 -54q-25 -22 -59 -22
z" />
    <glyph glyph-name="lcaron.alt1" horiz-adv-x="261" 
d="M365 632q0 -41 -29.5 -81t-70.5 -62l-25 27q26 14 47 35.5t28 43.5q0 -1 -7 -1q-14 0 -24.5 11t-10.5 26q0 20 15 34.5t34 14.5t31 -12.5t12 -35.5zM100 -12q-82 0 -82 70q0 17 4 37l127 572h68l-124 -563q-4 -16 -4 -25q0 -30 29 -30q18 0 31 15l10 -54q-25 -22 -59 -22
z" />
    <glyph glyph-name="aacute.alt1" horiz-adv-x="375" 
d="M386 700l-132 -144h-48l111 144h69zM274 0h-68l10 47q-37 -59 -98 -59q-44 0 -74 31t-30 88q0 80 42.5 140.5t107.5 60.5q29 0 56.5 -17.5t38.5 -48.5l20 88q6 27 6 42q0 32 -19 48.5t-51 16.5q-53 0 -99 -43l-19 51q58 50 131 50q58 0 93 -27t35 -78q0 -18 -7 -52z
M147 38q48 0 80 59l22 96q-6 30 -25 47.5t-46 17.5q-43 0 -67.5 -46.5t-24.5 -99.5q0 -74 61 -74z" />
    <glyph glyph-name="agrave.alt1" horiz-adv-x="375" 
d="M308 556h-46l-68 144h68zM274 0h-68l10 47q-37 -59 -98 -59q-44 0 -74 31t-30 88q0 80 42.5 140.5t107.5 60.5q29 0 56.5 -17.5t38.5 -48.5l20 88q6 27 6 42q0 32 -19 48.5t-51 16.5q-53 0 -99 -43l-19 51q58 50 131 50q58 0 93 -27t35 -78q0 -18 -7 -52zM147 38
q48 0 80 59l22 96q-6 30 -25 47.5t-46 17.5q-43 0 -67.5 -46.5t-24.5 -99.5q0 -74 61 -74z" />
    <glyph glyph-name="acircumflex.alt1" horiz-adv-x="375" 
d="M360 556h-40l-38 105l-80 -105h-43l97 144h67zM274 0h-68l10 47q-37 -59 -98 -59q-44 0 -74 31t-30 88q0 80 42.5 140.5t107.5 60.5q29 0 56.5 -17.5t38.5 -48.5l20 88q6 27 6 42q0 32 -19 48.5t-51 16.5q-53 0 -99 -43l-19 51q58 50 131 50q58 0 93 -27t35 -78
q0 -18 -7 -52zM147 38q48 0 80 59l22 96q-6 30 -25 47.5t-46 17.5q-43 0 -67.5 -46.5t-24.5 -99.5q0 -74 61 -74z" />
    <glyph glyph-name="adieresis.alt1" horiz-adv-x="375" 
d="M381 608q0 -19 -14.5 -33.5t-33.5 -14.5q-17 0 -28 11t-11 27q0 20 15 34.5t34 14.5q16 0 27 -11t11 -28zM241 608q0 -19 -14.5 -33.5t-34.5 -14.5q-17 0 -28 11t-11 27q0 20 14.5 34.5t34.5 14.5q16 0 27.5 -11.5t11.5 -27.5zM274 0h-68l10 47q-37 -59 -98 -59
q-44 0 -74 31t-30 88q0 80 42.5 140.5t107.5 60.5q29 0 56.5 -17.5t38.5 -48.5l20 88q6 27 6 42q0 32 -19 48.5t-51 16.5q-53 0 -99 -43l-19 51q58 50 131 50q58 0 93 -27t35 -78q0 -18 -7 -52zM147 38q48 0 80 59l22 96q-6 30 -25 47.5t-46 17.5q-43 0 -67.5 -46.5
t-24.5 -99.5q0 -74 61 -74z" />
    <glyph glyph-name="atilde.alt1" horiz-adv-x="375" 
d="M303 554q-21 0 -30.5 15t-10.5 32.5t-7 32.5t-19 15q-31 0 -50 -89h-40q30 134 96 134q21 0 31 -15t11 -32.5t7 -32.5t19 -15q30 0 50 89h41q-31 -134 -98 -134zM274 0h-68l10 47q-37 -59 -98 -59q-44 0 -74 31t-30 88q0 80 42.5 140.5t107.5 60.5q29 0 56.5 -17.5
t38.5 -48.5l20 88q6 27 6 42q0 32 -19 48.5t-51 16.5q-53 0 -99 -43l-19 51q58 50 131 50q58 0 93 -27t35 -78q0 -18 -7 -52zM147 38q48 0 80 59l22 96q-6 30 -25 47.5t-46 17.5q-43 0 -67.5 -46.5t-24.5 -99.5q0 -74 61 -74z" />
    <glyph glyph-name="aring.alt1" horiz-adv-x="375" 
d="M265 554q-32 0 -53 21.5t-21 54.5q0 37 28 64.5t65 27.5q32 0 52.5 -21.5t20.5 -54.5q0 -37 -27.5 -64.5t-64.5 -27.5zM268 590q22 0 38 15.5t16 37.5q0 18 -11.5 30.5t-29.5 12.5q-22 0 -37.5 -15.5t-15.5 -37.5q0 -18 11 -30.5t29 -12.5zM274 0h-68l10 47
q-37 -59 -98 -59q-44 0 -74 31t-30 88q0 80 42.5 140.5t107.5 60.5q29 0 56.5 -17.5t38.5 -48.5l20 88q6 27 6 42q0 32 -19 48.5t-51 16.5q-53 0 -99 -43l-19 51q58 50 131 50q58 0 93 -27t35 -78q0 -18 -7 -52zM147 38q48 0 80 59l22 96q-6 30 -25 47.5t-46 17.5
q-43 0 -67.5 -46.5t-24.5 -99.5q0 -74 61 -74z" />
    <glyph glyph-name="amacron.alt1" horiz-adv-x="375" 
d="M387 591h-247l10 45h247zM274 0h-68l10 47q-37 -59 -98 -59q-44 0 -74 31t-30 88q0 80 42.5 140.5t107.5 60.5q29 0 56.5 -17.5t38.5 -48.5l20 88q6 27 6 42q0 32 -19 48.5t-51 16.5q-53 0 -99 -43l-19 51q58 50 131 50q58 0 93 -27t35 -78q0 -18 -7 -52zM147 38
q48 0 80 59l22 96q-6 30 -25 47.5t-46 17.5q-43 0 -67.5 -46.5t-24.5 -99.5q0 -74 61 -74z" />
    <glyph glyph-name="abreve.alt1" horiz-adv-x="375" 
d="M391 624q-58 -60 -133 -60t-106 60l40 28q9 -20 29.5 -31.5t44.5 -11.5t49.5 11.5t41.5 31.5zM274 0h-68l10 47q-37 -59 -98 -59q-44 0 -74 31t-30 88q0 80 42.5 140.5t107.5 60.5q29 0 56.5 -17.5t38.5 -48.5l20 88q6 27 6 42q0 32 -19 48.5t-51 16.5q-53 0 -99 -43
l-19 51q58 50 131 50q58 0 93 -27t35 -78q0 -18 -7 -52zM147 38q48 0 80 59l22 96q-6 30 -25 47.5t-46 17.5q-43 0 -67.5 -46.5t-24.5 -99.5q0 -74 61 -74z" />
    <glyph glyph-name="aogonek.alt1" horiz-adv-x="375" 
d="M274 0q-91 -56 -91 -123q0 -26 25 -26t37 33l31 -22q-28 -48 -73 -48q-28 0 -45 15t-17 43q0 69 74 128h-9l10 47q-37 -59 -98 -59q-44 0 -74 31t-30 88q0 80 42.5 140.5t107.5 60.5q29 0 56.5 -17.5t38.5 -48.5l20 88q6 27 6 42q0 32 -19 48.5t-51 16.5q-53 0 -99 -43
l-19 51q58 50 131 50q58 0 93 -27t35 -78q0 -18 -7 -52zM147 38q48 0 80 59l22 96q-6 30 -25 47.5t-46 17.5q-43 0 -67.5 -46.5t-24.5 -99.5q0 -74 61 -74z" />
    <glyph glyph-name="yacute.alt1" 
d="M385 700l-132 -144h-48l111 144h69zM93 -196q-42 0 -78 15.5t-54 40.5l40 53q33 -48 92 -48q76 0 102 116l20 92q-55 -77 -116 -77q-38 0 -58.5 19.5t-20.5 54.5q0 16 4 31l85 382h68l-81 -363q-2 -9 -2 -25q0 -39 38 -39q26 0 52 23t45 56l78 348h68l-112 -502
q-20 -90 -61 -133.5t-109 -43.5z" />
    <glyph glyph-name="ydieresis.alt1" 
d="M382 608q0 -19 -14.5 -33.5t-33.5 -14.5q-17 0 -28 11t-11 27q0 20 14.5 34.5t34.5 14.5q16 0 27 -11t11 -28zM242 608q0 -19 -14.5 -33.5t-34.5 -14.5q-17 0 -28 11t-11 27q0 20 15 34.5t34 14.5q17 0 28 -11.5t11 -27.5zM93 -196q-42 0 -78 15.5t-54 40.5l40 53
q33 -48 92 -48q76 0 102 116l20 92q-55 -77 -116 -77q-38 0 -58.5 19.5t-20.5 54.5q0 16 4 31l85 382h68l-81 -363q-2 -9 -2 -25q0 -39 38 -39q26 0 52 23t45 56l78 348h68l-112 -502q-20 -90 -61 -133.5t-109 -43.5z" />
    <glyph glyph-name="ae.alt1" horiz-adv-x="593" 
d="M553 219h-233q-8 -38 -8 -68q0 -49 21 -77.5t60 -28.5q44 0 86 54l31 -43q-59 -68 -126 -68q-93 0 -119 85q-69 -85 -143 -85q-48 0 -78 32.5t-30 88.5q0 83 42.5 141t107.5 58q29 0 57 -16t38 -47l19 85q7 24 5 41q0 66 -69 66q-50 0 -99 -43l-18 51q59 50 131 50
q93 0 103 -82q49 82 121 82q120 0 120 -149q0 -57 -19 -127zM331 270h167q10 34 10 72q0 42 -16 69t-48 27q-78 0 -113 -168zM244 115q-1 9 -1 27q0 24 5 51q-5 32 -25 48.5t-46 16.5q-41 0 -66.5 -45t-25.5 -101q0 -74 61 -74q54 0 98 77z" />
    <glyph glyph-name="zero.pzero" horiz-adv-x="412" 
d="M166 -12q-66 0 -98 54l-27 -42h-52l58 92q-8 37 -8 79q0 107 29.5 221.5t88 199.5t128.5 85q64 0 97 -55l29 45h53l-61 -96q8 -35 8 -77q0 -106 -29.5 -221t-88 -200t-127.5 -85zM278 609q-42 0 -79.5 -74t-58 -165t-26.5 -172l220 348q-8 63 -56 63zM172 56
q32 0 61.5 42.5t49.5 106.5t34 132t18 127l-220 -347q9 -61 57 -61z" />
    <glyph glyph-name="Gcircumflex.alt1" horiz-adv-x="411" 
d="M422 728h-40l-38 105l-80 -105h-43l97 144h67zM164 -12q-59 0 -92 48t-33 141q0 45 8.5 105t29.5 130.5t50.5 129t77 97.5t103.5 39q54 0 83 -42.5t32 -104.5l-66 -15q-2 42 -17 68t-42 26q-42 0 -78 -51t-57.5 -123.5t-33.5 -143t-12 -118.5q0 -118 60 -118
q43 0 77 61.5t55 155.5h-103l14 67h178q-37 -177 -92 -264.5t-142 -87.5z" />
    </font>
</defs>
</svg>
